<?xml version="1.0" encoding="UTF-8" standalone="no"?>
<!DOCTYPE svg PUBLIC "-//W3C//DTD SVG 1.1//EN" "http://www.w3.org/Graphics/SVG/1.1/DTD/svg11.dtd">
<svg xmlns="http://www.w3.org/2000/svg" version="1.1" viewBox="0.00 0.00 200.00 41.00">
<path fill="#ffffff" d="
  M 22.56 18.77
  A 0.65 0.65 0.0 0 0 22.54 19.87
  L 35.01 27.97
  A 0.91 0.90 -57.8 0 1 35.29 29.21
  Q 32.32 34.05 27.23 36.21
  Q 25.45 36.97 23.59 37.80
  Q 21.93 38.54 20.33 38.53
  C 18.88 38.52 17.51 38.68 16.18 38.00
  C 14.25 37.00 12.14 36.48 10.26 35.32
  Q 3.67 31.27 1.77 23.67
  C 1.34 21.92 0.08 20.35 0.70 18.51
  Q 1.40 16.41 2.05 14.15
  C 4.34 6.18 10.76 2.16 18.56 0.48
  C 20.91 -0.02 23.17 1.10 25.36 1.83
  Q 31.69 3.96 35.31 9.51
  A 0.63 0.62 55.2 0 1 35.16 10.36
  Q 29.29 14.75 22.56 18.77
  Z
  M 24.51 9.22
  A 1.39 1.39 0.0 0 0 23.12 7.83
  A 1.39 1.39 0.0 0 0 21.73 9.22
  A 1.39 1.39 0.0 0 0 23.12 10.61
  A 1.39 1.39 0.0 0 0 24.51 9.22
  Z"
/>
<path fill="#ffffff" d="
  M 196.93 11.07
  Q 197.51 11.74 197.51 12.63
  L 197.51 25.37
  A 4.64 4.63 -89.9 0 1 192.88 30.00
  L 49.24 29.99
  A 4.00 4.00 0.0 0 1 45.24 25.99
  L 45.24 9.21
  Q 45.24 8.78 45.68 8.78
  Q 119.69 8.77 193.16 8.79
  C 194.68 8.79 195.97 9.98 196.93 11.07
  Z
  M 59.39 21.63
  C 56.62 26.11 49.68 20.71 53.77 16.67
  Q 56.12 14.35 58.48 16.46
  A 1.12 1.12 0.0 0 0 60.18 16.21
  L 60.33 15.96
  Q 60.92 15.01 59.98 14.41
  Q 56.69 12.28 53.51 13.85
  C 50.29 15.44 49.04 19.73 51.07 22.72
  C 53.34 26.07 57.60 26.88 60.53 23.75
  Q 62.17 22.00 61.90 19.23
  Q 61.84 18.62 61.23 18.62
  L 57.20 18.64
  Q 56.28 18.64 56.31 19.55
  L 56.33 20.20
  A 0.89 0.88 80.2 0 0 57.49 21.02
  Q 58.23 20.77 58.99 20.84
  Q 59.84 20.91 59.39 21.63
  Z
  M 74.02 21.83
  Q 73.51 19.37 75.04 21.37
  Q 76.16 22.83 76.99 24.55
  A 0.65 0.65 0.0 0 0 78.16 24.54
  Q 79.18 22.40 80.69 20.73
  Q 81.40 19.95 81.28 20.99
  L 80.86 24.62
  Q 80.76 25.47 81.61 25.49
  L 82.57 25.50
  Q 83.38 25.52 83.35 24.71
  Q 83.16 19.31 83.42 14.70
  Q 83.54 12.58 82.32 14.32
  L 78.04 20.46
  A 0.56 0.56 0.0 0 1 77.12 20.46
  L 72.45 13.74
  Q 71.58 12.48 71.61 14.01
  L 71.81 22.41
  Q 71.90 25.82 70.50 22.71
  L 66.35 13.43
  A 0.37 0.37 0.0 0 0 65.67 13.46
  Q 63.59 19.23 60.69 24.69
  Q 60.34 25.35 61.07 25.52
  Q 62.97 25.94 63.51 24.15
  Q 63.67 23.62 64.22 23.63
  L 67.81 23.63
  Q 68.30 23.63 68.52 24.06
  L 68.97 24.94
  Q 69.26 25.52 69.91 25.51
  L 73.57 25.48
  Q 74.27 25.47 74.28 24.78
  Q 74.30 23.24 74.02 21.83
  Z
  M 103.01 22.24
  C 101.25 23.17 100.28 23.89 98.51 22.28
  C 94.83 18.94 99.33 13.53 102.68 16.33
  Q 103.67 17.15 104.35 16.07
  L 104.61 15.66
  A 0.88 0.87 -56.5 0 0 104.38 14.49
  C 97.74 9.75 90.53 19.36 97.28 24.41
  Q 100.71 26.97 104.42 24.27
  Q 104.84 23.97 104.68 23.48
  Q 104.46 22.83 103.96 22.36
  Q 103.53 21.97 103.01 22.24
  Z
  M 129.61 19.71
  L 123.83 13.83
  Q 122.67 12.65 122.72 14.31
  L 123.04 24.21
  Q 123.08 25.51 122.48 24.35
  Q 119.75 19.10 117.67 13.92
  Q 117.19 12.70 116.66 13.90
  L 112.94 22.30
  Q 112.63 23.00 111.86 23.00
  L 108.11 22.99
  Q 107.48 22.99 107.48 22.36
  L 107.52 14.00
  Q 107.52 13.47 107.00 13.42
  L 105.98 13.31
  A 0.71 0.71 0.0 0 0 105.20 14.02
  L 105.24 24.74
  Q 105.24 25.49 105.99 25.49
  L 113.33 25.49
  A 1.13 1.13 0.0 0 0 114.38 24.77
  L 114.60 24.19
  A 0.89 0.87 -79.2 0 1 115.42 23.62
  L 118.84 23.62
  A 0.87 0.85 74.7 0 1 119.58 24.05
  L 120.14 25.03
  A 1.10 1.10 0.0 0 0 121.31 25.55
  Q 123.00 25.19 124.75 25.55
  A 0.59 0.58 -84.6 0 0 125.46 24.96
  L 125.26 19.75
  Q 125.22 18.45 126.13 19.38
  L 131.83 25.18
  Q 132.34 25.69 132.33 24.98
  L 132.27 13.93
  Q 132.27 13.33 131.67 13.38
  L 130.31 13.48
  Q 129.88 13.52 129.91 13.94
  L 130.21 19.45
  Q 130.26 20.37 129.61 19.71
  Z
  M 151.12 24.22
  C 151.70 24.61 152.08 25.24 152.78 25.44
  Q 156.08 26.36 158.03 24.20
  C 159.29 22.80 158.99 20.53 157.50 19.40
  Q 156.09 18.33 154.30 17.70
  Q 153.66 17.47 153.47 16.93
  Q 153.21 16.19 153.88 15.72
  A 1.61 1.61 0.0 0 1 156.02 15.99
  Q 156.75 16.82 157.52 16.06
  A 1.19 1.16 22.5 0 1 158.34 15.73
  L 160.63 15.73
  Q 161.28 15.73 161.27 16.38
  L 161.21 24.73
  Q 161.20 25.53 162.00 25.51
  L 163.04 25.50
  A 0.53 0.53 0.0 0 0 163.56 24.96
  L 163.49 16.04
  A 0.25 0.24 87.5 0 1 163.71 15.79
  L 166.35 15.58
  A 0.27 0.26 87.1 0 1 166.64 15.85
  L 166.55 24.78
  Q 166.54 25.52 167.28 25.51
  L 168.15 25.50
  A 0.65 0.64 89.6 0 0 168.78 24.85
  L 168.79 13.98
  Q 168.79 13.45 168.26 13.44
  Q 163.72 13.41 159.25 13.39
  Q 158.72 13.39 158.39 13.80
  Q 158.36 13.85 158.34 13.91
  Q 158.09 14.57 157.50 14.16
  Q 153.80 11.60 151.42 15.20
  Q 149.94 17.43 152.13 18.85
  Q 154.11 20.14 156.36 21.50
  A 0.56 0.55 34.9 0 1 156.51 22.32
  Q 155.64 23.39 154.16 23.28
  A 1.39 1.35 -17.3 0 1 153.24 22.81
  Q 152.32 21.73 151.14 22.58
  A 1.85 1.85 0.0 0 1 150.06 22.95
  L 146.41 23.02
  Q 145.53 23.04 145.52 22.16
  L 145.50 21.24
  Q 145.48 20.45 146.27 20.48
  L 148.73 20.57
  Q 149.81 20.61 149.83 19.52
  L 149.83 19.02
  A 0.98 0.98 0.0 0 0 148.77 18.03
  L 146.32 18.22
  Q 145.61 18.28 145.56 17.57
  L 145.49 16.50
  Q 145.43 15.67 146.26 15.69
  L 149.47 15.74
  Q 150.21 15.76 150.32 15.03
  L 150.49 13.99
  Q 150.59 13.39 149.98 13.39
  L 143.81 13.40
  Q 143.27 13.40 143.27 13.94
  L 143.31 25.02
  A 0.46 0.46 0.0 0 0 143.77 25.48
  L 149.73 25.49
  A 0.63 0.62 -82.0 0 0 150.33 25.03
  L 150.49 24.45
  Q 150.64 23.89 151.12 24.22
  Z
  M 192.15 19.39
  A 6.16 6.16 0.0 0 0 185.99 13.23
  A 6.16 6.16 0.0 0 0 179.83 19.39
  A 6.16 6.16 0.0 0 0 185.99 25.55
  A 6.16 6.16 0.0 0 0 192.15 19.39
  Z
  M 86.55 16.19
  A 0.53 0.53 0.0 0 1 87.09 15.64
  L 90.95 15.75
  A 0.53 0.53 0.0 0 0 91.49 15.23
  L 91.52 13.94
  A 0.53 0.53 0.0 0 0 90.99 13.40
  L 84.97 13.39
  A 0.53 0.53 0.0 0 0 84.44 13.92
  L 84.52 24.97
  A 0.53 0.53 0.0 0 0 85.05 25.50
  L 90.99 25.48
  A 0.53 0.53 0.0 0 0 91.51 24.94
  L 91.47 23.40
  A 0.53 0.53 0.0 0 0 90.91 22.88
  L 87.14 23.05
  A 0.53 0.53 0.0 0 1 86.59 22.53
  L 86.55 21.03
  A 0.53 0.53 0.0 0 1 87.10 20.48
  L 90.20 20.57
  A 0.53 0.53 0.0 0 0 90.74 20.05
  L 90.78 18.63
  A 0.53 0.53 0.0 0 0 90.23 18.09
  L 87.13 18.20
  A 0.53 0.53 0.0 0 1 86.59 17.69
  L 86.55 16.19
  Z
  M 133.42 13.78
  L 133.50 25.10
  A 0.40 0.40 0.0 0 0 133.90 25.50
  L 137.17 25.48
  A 5.79 5.73 89.6 0 0 142.86 19.65
  L 142.86 19.11
  A 5.79 5.73 89.6 0 0 137.09 13.36
  L 133.82 13.38
  A 0.40 0.40 0.0 0 0 133.42 13.78
  Z
  M 176.69 19.56
  Q 173.64 17.07 170.92 13.94
  Q 169.73 12.56 169.90 14.38
  Q 170.34 19.09 169.96 24.67
  A 0.79 0.77 -88.6 0 0 170.75 25.51
  L 171.73 25.50
  Q 172.44 25.48 172.41 24.77
  L 172.23 19.53
  Q 172.19 18.46 172.95 19.22
  Q 175.58 21.90 178.08 24.52
  Q 180.19 26.73 179.45 23.78
  Q 179.06 22.21 179.59 20.46
  Q 179.73 19.98 179.64 19.50
  Q 179.14 16.63 179.50 13.98
  Q 179.59 13.35 178.96 13.39
  L 177.29 13.48
  Q 176.85 13.50 176.88 13.95
  L 177.21 19.29
  Q 177.26 20.02 176.69 19.56
  Z"
/>
<circle fill="#ffffff" cx="185.92" cy="19.36" r="3.80"/>
<path fill="#ffffff" d="
  M 135.59 16.09
  A 0.37 0.37 0.0 0 1 135.96 15.72
  L 136.57 15.72
  A 4.02 3.46 -0.1 0 1 140.60 19.18
  L 140.60 19.58
  A 4.02 3.46 -0.1 0 1 136.59 23.04
  L 135.98 23.04
  A 0.37 0.37 0.0 0 1 135.61 22.67
  L 135.59 16.09
  Z"
/>
</svg>
