<?xml version="1.0" encoding="UTF-8" standalone="no"?>
<!DOCTYPE svg PUBLIC "-//W3C//DTD SVG 1.1//EN" "http://www.w3.org/Graphics/SVG/1.1/DTD/svg11.dtd">
<svg xmlns="http://www.w3.org/2000/svg" version="1.1" viewBox="0.00 0.00 256.00 256.00">
<path fill="#ffcd00" d="
  M 151.25 128.87
  A 0.20 0.19 44.1 0 0 151.26 129.19
  Q 189.40 153.94 229.04 179.43
  Q 233.46 182.28 234.57 184.72
  Q 236.41 188.78 233.22 193.44
  C 214.60 220.67 186.18 237.88 153.73 243.07
  C 146.09 244.29 138.31 243.86 130.58 243.97
  Q 125.74 244.04 121.23 243.42
  Q 84.76 238.35 58.44 214.15
  Q 28.04 186.20 21.94 145.32
  Q 19.55 129.35 21.80 113.83
  Q 27.69 73.11 56.95 45.45
  Q 84.00 19.87 121.03 14.83
  Q 151.79 10.64 181.62 22.93
  Q 212.65 35.71 232.63 63.78
  Q 236.07 68.62 233.59 72.96
  Q 232.32 75.18 228.05 78.00
  Q 190.60 102.68 151.25 128.87
  Z
  M 166.29 65.66
  A 8.15 8.15 0.0 0 0 158.14 57.51
  A 8.15 8.15 0.0 0 0 149.99 65.66
  A 8.15 8.15 0.0 0 0 158.14 73.81
  A 8.15 8.15 0.0 0 0 166.29 65.66
  Z"
/>
</svg>
