<?xml version="1.0" encoding="UTF-8" standalone="no"?>
<!DOCTYPE svg PUBLIC "-//W3C//DTD SVG 1.1//EN" "http://www.w3.org/Graphics/SVG/1.1/DTD/svg11.dtd">
<svg xmlns="http://www.w3.org/2000/svg" version="1.1" viewBox="0.00 0.00 590.00 255.00">
<g stroke-width="2.00" fill="none" stroke-linecap="butt">
<path stroke="#838383" stroke-opacity="0.988" vector-effect="non-scaling-stroke" d="
  M 376.76 147.45
  Q 374.17 139.96 373.15 131.77"
/>
<path stroke="#838383" stroke-opacity="0.988" vector-effect="non-scaling-stroke" d="
  M 132.84 129.97
  L 129.52 127.95"
/>
<path stroke="#838383" stroke-opacity="0.988" vector-effect="non-scaling-stroke" d="
  M 439.70 126.75
  Q 440.93 109.86 438.21 93.83"
/>
<path stroke="#838383" stroke-opacity="0.988" vector-effect="non-scaling-stroke" d="
  M 303.78 124.22
  Q 304.35 113.34 302.81 102.49
  Q 302.40 99.56 301.24 97.07"
/>
</g>
<path fill="#ffffff" d="
  M 376.76 147.45
  Q 374.17 139.96 373.15 131.77
  Q 371.38 104.29 390.22 87.94
  C 403.32 76.57 421.05 72.46 437.53 76.94
  C 456.18 82.01 470.41 96.20 473.74 115.45
  C 476.99 134.16 473.32 154.13 458.51 167.12
  Q 443.49 180.30 423.66 179.88
  C 402.30 179.43 385.21 167.38 376.76 147.45
  Z
  M 439.70 126.75
  Q 440.93 109.86 438.21 93.83
  Q 435.65 85.95 428.25 85.05
  Q 423.16 84.44 419.94 85.17
  Q 409.89 87.45 409.08 97.78
  Q 407.18 121.83 408.43 148.53
  C 408.76 155.53 408.84 165.58 416.53 168.80
  Q 422.76 171.41 430.14 169.26
  C 435.92 167.58 438.16 162.40 438.91 156.63
  Q 439.95 148.50 439.70 126.75
  Z"
/>
<path fill="#ffffff" d="
  M 240.58 86.07
  L 227.32 86.38
  Q 227.16 86.38 227.17 86.23
  L 227.52 76.98
  A 0.33 0.33 0.0 0 1 227.85 76.66
  Q 284.73 76.48 286.21 76.52
  Q 294.95 76.74 303.57 79.05
  C 321.45 83.86 334.78 98.56 337.95 116.56
  Q 341.44 136.36 331.88 152.60
  C 324.21 165.65 310.46 175.63 295.25 177.47
  Q 286.34 178.55 280.38 178.60
  Q 254.13 178.84 227.39 178.67
  Q 227.31 178.67 227.30 178.59
  Q 227.01 174.31 227.65 168.93
  Q 227.66 168.82 227.77 168.82
  Q 234.72 168.79 240.47 168.69
  Q 241.07 168.68 241.07 168.07
  Q 240.80 127.34 241.16 86.64
  Q 241.17 86.06 240.58 86.07
  Z
  M 303.78 124.22
  Q 304.35 113.34 302.81 102.49
  Q 302.40 99.56 301.24 97.07
  C 300.01 91.66 296.80 88.09 291.29 86.90
  Q 287.08 85.98 284.66 86.06
  Q 278.16 86.27 273.12 86.10
  Q 272.42 86.07 272.42 86.77
  L 272.41 168.24
  A 0.60 0.60 0.0 0 0 273.01 168.84
  C 280.90 168.79 296.18 169.59 299.81 160.31
  Q 301.58 155.77 302.52 149.50
  Q 303.90 140.33 303.78 124.22
  Z"
/>
<path fill="#ffffff" d="
  M 132.84 129.97
  L 129.52 127.95
  C 127.51 122.53 131.07 119.79 136.00 120.18
  C 146.19 120.98 157.52 121.31 158.93 108.01
  C 159.52 102.44 160.42 88.21 152.79 86.82
  Q 147.35 85.82 141.53 87.56
  Q 140.67 87.82 141.42 88.30
  C 146.82 91.76 150.59 97.68 147.00 104.01
  Q 143.85 109.57 137.09 110.55
  C 128.53 111.78 118.41 105.25 120.25 95.48
  C 122.18 85.22 133.94 79.32 143.50 77.80
  C 156.58 75.72 171.71 77.66 182.13 86.02
  C 189.61 92.01 192.14 102.10 187.70 110.61
  C 184.07 117.55 175.80 122.16 168.49 123.65
  Q 167.03 123.94 168.48 124.31
  C 183.54 128.16 195.22 139.27 192.13 155.76
  C 189.28 171.00 172.25 179.17 157.88 179.92
  Q 153.32 180.16 148.11 180.07
  C 140.16 179.95 132.36 177.75 126.03 173.20
  C 119.89 168.78 116.08 162.72 117.04 155.39
  Q 117.41 152.54 119.01 150.32
  C 124.66 142.50 136.54 141.52 143.31 148.35
  C 147.07 152.16 147.42 158.40 144.23 162.83
  Q 141.99 165.94 138.32 167.73
  Q 137.10 168.33 138.37 168.82
  Q 144.20 171.08 150.28 170.40
  C 161.61 169.15 161.60 153.50 161.20 145.29
  C 160.85 138.19 157.78 131.71 150.38 129.95
  Q 148.10 129.41 141.63 129.79
  Q 137.20 130.05 132.84 129.97
  Z"
/>
<path fill="#040404" fill-opacity="0.976" d="
  M 438.21 93.83
  Q 440.93 109.86 439.70 126.75
  Q 439.45 118.46 439.44 110.25
  Q 439.43 103.50 438.21 93.83
  Z"
/>
<path fill="#040404" fill-opacity="0.976" d="
  M 301.24 97.07
  Q 302.40 99.56 302.81 102.49
  Q 304.35 113.34 303.78 124.22
  Q 303.51 107.81 302.38 102.62
  Q 301.76 99.82 301.24 97.07
  Z"
/>
<path fill="#040404" fill-opacity="0.976" d="
  M 129.52 127.95
  L 132.84 129.97
  Q 130.09 129.83 129.52 127.95
  Z"
/>
<path fill="#040404" fill-opacity="0.976" d="
  M 373.15 131.77
  Q 374.17 139.96 376.76 147.45
  Q 373.32 140.52 373.15 131.77
  Z"
/>
</svg>
