<?xml version="1.0" encoding="UTF-8" standalone="no"?>
<!DOCTYPE svg PUBLIC "-//W3C//DTD SVG 1.1//EN" "http://www.w3.org/Graphics/SVG/1.1/DTD/svg11.dtd">
<svg xmlns="http://www.w3.org/2000/svg" version="1.1" viewBox="0.00 0.00 590.00 255.00">
<path fill="#f31c25" d="
  M 367.33 125.35
  C 374.55 126.63 384.28 130.77 384.77 139.48
  C 385.49 152.70 363.37 156.73 354.29 157.31
  Q 337.10 158.41 317.97 154.89
  A 0.36 0.34 -85.2 0 1 317.69 154.54
  L 317.69 145.30
  A 0.17 0.16 -82.1 0 1 317.90 145.14
  Q 333.66 149.98 347.98 149.25
  C 352.86 149.00 360.30 147.55 363.53 143.50
  C 367.40 138.63 362.89 134.31 358.30 132.90
  C 349.25 130.13 339.12 130.27 329.64 130.48
  Q 329.18 130.49 329.18 130.03
  L 329.19 122.90
  A 0.52 0.52 0.0 0 1 329.71 122.38
  C 338.74 122.44 348.99 122.82 357.14 119.79
  C 361.57 118.14 364.96 113.17 359.46 109.78
  Q 354.15 106.52 345.25 106.34
  C 336.24 106.16 327.84 107.51 319.19 109.61
  Q 318.93 109.68 318.93 109.41
  L 318.97 101.00
  A 0.31 0.30 -4.4 0 1 319.23 100.70
  C 335.27 98.08 351.15 97.23 366.43 100.56
  C 372.46 101.88 383.52 105.49 382.28 113.75
  C 381.23 120.81 373.28 123.66 367.33 124.88
  Q 366.09 125.13 367.33 125.35
  Z"
/>
<path fill="#ffffff" d="
  M 52.05 106.44
  A 0.22 0.22 0.0 0 0 51.67 106.60
  L 51.78 125.99
  Q 51.78 126.51 51.26 126.51
  L 46.74 126.50
  Q 46.45 126.50 46.45 126.20
  L 46.47 99.71
  Q 46.47 98.80 47.37 98.95
  Q 48.53 99.15 49.68 98.94
  A 1.90 1.90 0.0 0 1 51.32 99.45
  L 71.05 118.70
  A 0.32 0.31 22.5 0 0 71.59 118.48
  L 71.50 99.79
  Q 71.49 99.07 72.21 99.06
  L 75.76 99.02
  Q 76.51 99.01 76.51 99.76
  L 76.54 125.86
  Q 76.54 126.51 75.89 126.51
  L 73.22 126.51
  Q 72.58 126.51 72.13 126.07
  L 52.05 106.44
  Z"
/>
<path fill="#ffffff" d="
  M 102.28 126.51
  L 97.90 126.50
  A 0.34 0.34 0.0 0 1 97.56 126.16
  L 97.57 99.36
  A 0.34 0.34 0.0 0 1 97.91 99.02
  L 101.68 99.05
  A 0.34 0.34 0.0 0 1 101.92 99.15
  L 121.95 118.68
  A 0.34 0.34 0.0 0 0 122.53 118.44
  L 122.48 99.38
  A 0.34 0.34 0.0 0 1 122.82 99.04
  L 127.15 99.01
  A 0.34 0.34 0.0 0 1 127.49 99.35
  L 127.50 126.16
  A 0.34 0.34 0.0 0 1 127.16 126.50
  L 123.66 126.51
  A 0.34 0.34 0.0 0 1 123.42 126.41
  L 103.15 106.65
  A 0.34 0.34 0.0 0 0 102.57 106.90
  L 102.62 126.17
  A 0.34 0.34 0.0 0 1 102.28 126.51
  Z"
/>
<path fill="#ffffff" d="
  M 450.93 103.32
  C 461.08 107.83 468.25 116.19 468.42 127.60
  C 468.63 142.24 457.61 152.13 444.16 155.14
  C 436.65 156.82 429.22 157.49 421.45 157.44
  Q 406.27 157.34 390.96 157.42
  A 0.40 0.40 0.0 0 1 390.55 157.02
  L 390.55 99.44
  Q 390.55 98.84 391.16 98.84
  Q 406.65 98.94 421.59 98.83
  Q 426.99 98.80 432.45 99.30
  C 438.61 99.86 445.20 100.78 450.93 103.32
  Z
  M 409.53 107.09
  L 409.31 148.85
  A 0.20 0.20 0.0 0 0 409.51 149.05
  L 424.22 149.13
  A 24.27 19.86 0.3 0 0 448.59 129.39
  L 448.61 126.95
  A 24.27 19.86 0.3 0 0 424.44 106.97
  L 409.73 106.89
  A 0.20 0.20 0.0 0 0 409.53 107.09
  Z"
/>
<path fill="#ffffff" d="
  M 508.60 144.47
  C 511.20 138.78 503.30 135.55 499.02 134.03
  Q 489.01 130.48 481.25 126.89
  C 476.61 124.74 471.62 121.08 470.74 115.69
  C 469.31 106.92 478.71 102.27 485.58 100.68
  Q 502.84 96.67 521.58 100.77
  Q 521.97 100.85 521.94 101.24
  Q 521.69 105.20 522.02 109.38
  Q 522.05 109.78 521.65 109.69
  C 513.09 107.75 504.98 105.73 496.23 106.82
  C 492.22 107.32 484.87 110.42 489.32 115.54
  Q 491.28 117.79 495.33 119.33
  Q 502.91 122.20 509.85 124.74
  C 516.00 126.98 525.85 130.94 527.70 138.11
  C 531.62 153.20 510.26 156.66 500.40 157.31
  Q 486.45 158.23 470.92 155.48
  Q 470.57 155.42 470.57 155.06
  L 470.60 146.17
  Q 470.60 145.80 470.95 145.91
  C 477.81 148.08 504.37 153.74 508.60 144.47
  Z"
/>
<rect fill="#ffffff" x="84.52" y="99.04" width="5.04" height="27.46" rx="0.37"/>
<path fill="#ffffff" d="
  M 145.13 103.77
  L 133.55 103.76
  A 0.38 0.38 0.0 0 1 133.17 103.37
  L 133.27 99.43
  A 0.38 0.38 0.0 0 1 133.65 99.06
  L 162.62 99.07
  A 0.38 0.38 0.0 0 1 163.00 99.45
  L 163.02 103.38
  A 0.38 0.38 0.0 0 1 162.64 103.76
  L 151.11 103.76
  A 0.38 0.38 0.0 0 0 150.73 104.14
  L 150.77 126.13
  A 0.38 0.38 0.0 0 1 150.39 126.51
  L 145.84 126.50
  A 0.38 0.38 0.0 0 1 145.46 126.12
  L 145.51 104.15
  A 0.38 0.38 0.0 0 0 145.13 103.77
  Z"
/>
<path fill="#ffffff" d="
  M 173.75 115.05
  L 173.75 121.45
  A 0.33 0.33 0.0 0 0 174.08 121.78
  L 195.15 121.79
  A 0.33 0.33 0.0 0 1 195.48 122.11
  L 195.60 126.17
  A 0.33 0.33 0.0 0 1 195.27 126.51
  L 169.08 126.51
  A 0.33 0.33 0.0 0 1 168.75 126.18
  L 168.75 99.40
  A 0.33 0.33 0.0 0 1 169.08 99.07
  L 195.15 99.05
  A 0.33 0.33 0.0 0 1 195.48 99.37
  L 195.54 103.43
  A 0.33 0.33 0.0 0 1 195.21 103.77
  L 174.08 103.76
  A 0.33 0.33 0.0 0 0 173.75 104.09
  L 173.75 109.70
  A 0.33 0.33 0.0 0 0 174.08 110.03
  L 190.21 110.02
  A 0.33 0.33 0.0 0 1 190.54 110.34
  L 190.65 114.37
  A 0.33 0.33 0.0 0 1 190.32 114.71
  L 174.08 114.72
  A 0.33 0.33 0.0 0 0 173.75 115.05
  Z"
/>
<path fill="#ffffff" d="
  M 228.14 118.31
  Q 227.81 108.92 228.03 99.34
  Q 228.04 99.08 228.30 99.08
  L 232.51 99.04
  Q 232.98 99.04 232.98 99.51
  L 232.98 125.97
  Q 232.98 126.53 232.42 126.53
  C 230.45 126.49 229.48 126.98 227.82 125.38
  Q 218.33 116.19 208.90 106.89
  Q 208.10 106.10 208.11 107.23
  L 208.18 126.28
  Q 208.18 126.50 207.97 126.50
  L 203.31 126.50
  Q 203.11 126.50 203.11 126.30
  L 203.11 99.71
  Q 203.11 99.04 203.79 99.03
  L 206.71 99.00
  A 1.18 1.14 65.4 0 1 207.53 99.32
  L 227.47 118.61
  Q 228.18 119.29 228.14 118.31
  Z"
/>
<path fill="#ffffff" d="
  M 240.76 99.46
  A 0.45 0.45 0.0 0 1 241.21 99.01
  L 261.11 99.05
  A 12.40 11.27 -89.9 0 1 272.36 111.47
  L 272.36 114.19
  A 12.40 11.27 -89.9 0 1 261.07 126.57
  L 241.17 126.53
  A 0.45 0.45 0.0 0 1 240.72 126.08
  L 240.76 99.46
  Z
  M 245.52 104.28
  L 245.54 121.32
  A 0.53 0.53 0.0 0 0 246.08 121.85
  L 260.62 121.82
  A 7.54 7.19 89.9 0 0 267.79 114.27
  L 267.79 111.25
  A 7.54 7.19 89.9 0 0 260.58 103.72
  L 246.04 103.75
  A 0.53 0.53 0.0 0 0 245.52 104.28
  Z"
/>
<path fill="#ffffff" d="
  M 311.3937 120.5906
  A 5.89 5.89 0.0 0 1 305.5139 126.4908
  L 283.5740 126.5291
  A 5.89 5.89 0.0 0 1 277.6737 120.6494
  L 277.6463 104.9694
  A 5.89 5.89 0.0 0 1 283.5261 99.0692
  L 305.4660 99.0309
  A 5.89 5.89 0.0 0 1 311.3663 104.9106
  L 311.3937 120.5906
  Z
  M 306.52 104.86
  A 1.08 1.08 0.0 0 0 305.44 103.78
  L 283.58 103.78
  A 1.08 1.08 0.0 0 0 282.50 104.86
  L 282.50 120.72
  A 1.08 1.08 0.0 0 0 283.58 121.80
  L 305.44 121.80
  A 1.08 1.08 0.0 0 0 306.52 120.72
  L 306.52 104.86
  Z"
/>
<path fill="#a3a3a3" d="
  M 311.39 151.43
  A 6.04 6.04 0.0 0 1 305.35 157.47
  L 283.69 157.47
  A 6.04 6.04 0.0 0 1 277.65 151.43
  L 277.65 135.85
  A 6.04 6.04 0.0 0 1 283.69 129.81
  L 305.35 129.81
  A 6.04 6.04 0.0 0 1 311.39 135.85
  L 311.39 151.43
  Z
  M 306.51 135.56
  A 1.02 1.02 0.0 0 0 305.49 134.54
  L 283.53 134.54
  A 1.02 1.02 0.0 0 0 282.51 135.56
  L 282.51 151.50
  A 1.02 1.02 0.0 0 0 283.53 152.52
  L 305.49 152.52
  A 1.02 1.02 0.0 0 0 306.51 151.50
  L 306.51 135.56
  Z"
/>
<path fill="#ffffff" d="
  M 534.02 150.20
  L 534.18 154.21
  Q 534.20 154.68 533.73 154.71
  L 533.31 154.73
  Q 532.68 154.75 532.71 154.13
  L 532.88 150.11
  Q 532.91 149.57 532.37 149.52
  L 531.53 149.44
  Q 530.81 149.37 531.02 148.69
  Q 531.07 148.51 531.21 148.39
  Q 531.35 148.26 531.54 148.26
  L 535.48 148.26
  Q 535.88 148.26 535.88 148.66
  L 535.88 148.98
  Q 535.88 149.11 535.77 149.18
  Q 535.29 149.49 534.71 149.49
  Q 533.99 149.48 534.02 150.20
  Z"
/>
<path fill="#ffffff" d="
  M 537.71 150.95
  Q 537.59 152.49 537.83 153.98
  A 0.61 0.61 0.0 0 1 537.21 154.68
  L 536.87 154.67
  Q 536.18 154.65 536.27 153.96
  L 536.92 149.02
  Q 536.97 148.67 537.25 148.46
  Q 537.70 148.12 538.24 148.38
  Q 538.83 148.67 538.92 149.30
  Q 539.03 150.02 539.15 150.76
  Q 539.26 151.47 539.82 151.80
  Q 540.27 152.08 540.48 151.59
  Q 540.86 150.70 540.95 149.67
  Q 541.01 149.01 541.45 148.63
  Q 541.95 148.20 542.67 148.28
  Q 543.26 148.35 543.32 148.95
  Q 543.53 151.25 543.80 153.60
  Q 543.85 154.01 543.65 154.37
  Q 543.29 155.01 542.59 154.68
  A 1.13 1.12 17.9 0 1 541.96 153.46
  L 542.39 151.09
  Q 542.52 150.39 542.01 150.90
  Q 540.74 152.18 540.74 153.68
  A 0.92 0.90 81.3 0 1 540.11 154.55
  L 539.68 154.69
  A 0.40 0.39 77.3 0 1 539.17 154.36
  Q 538.97 152.56 538.11 150.87
  Q 537.77 150.20 537.71 150.95
  Z"
/>
</svg>
