<?xml version="1.0" encoding="UTF-8" standalone="no"?>
<!DOCTYPE svg PUBLIC "-//W3C//DTD SVG 1.1//EN" "http://www.w3.org/Graphics/SVG/1.1/DTD/svg11.dtd">
<svg xmlns="http://www.w3.org/2000/svg" version="1.1" viewBox="0.00 0.00 590.00 255.00">
<g stroke-width="2.00" fill="none" stroke-linecap="butt">
<path stroke="#9c8664" vector-effect="non-scaling-stroke" d="
  M 170.59 82.12
  L 156.58 87.46"
/>
<path stroke="#94ae3e" vector-effect="non-scaling-stroke" d="
  M 156.58 87.46
  L 142.63 82.09"
/>
<path stroke="#317176" vector-effect="non-scaling-stroke" d="
  M 170.68 104.59
  L 168.34 108.23"
/>
<path stroke="#9c8664" vector-effect="non-scaling-stroke" d="
  M 168.34 108.23
  Q 163.12 106.55 158.36 104.75
  Q 156.18 103.93 155.35 104.31
  Q 151.03 106.33 145.52 107.90"
/>
<path stroke="#317176" vector-effect="non-scaling-stroke" d="
  M 156.58 87.46
  L 145.52 107.90"
/>
<path stroke="#94ae3e" vector-effect="non-scaling-stroke" d="
  M 145.52 107.90
  L 141.35 109.48"
/>
<path stroke="#8c6b45" vector-effect="non-scaling-stroke" d="
  M 141.35 109.48
  L 134.86 95.95"
/>
<path stroke="#317176" vector-effect="non-scaling-stroke" d="
  M 193.46 101.15
  Q 193.48 101.85 193.04 102.18
  Q 192.64 102.48 192.64 102.99
  L 192.84 138.44
  Q 192.85 139.59 192.17 138.66
  Q 182.76 125.83 173.60 112.40
  Q 172.55 110.87 171.15 109.82"
/>
<path stroke="#94ae3e" vector-effect="non-scaling-stroke" d="
  M 171.15 109.82
  Q 170.67 108.55 168.34 108.23"
/>
<path stroke="#f68033" vector-effect="non-scaling-stroke" d="
  M 141.35 109.48
  Q 141.47 109.17 141.55 109.71"
/>
<path stroke="#8c6b45" vector-effect="non-scaling-stroke" d="
  M 141.55 109.71
  L 141.79 139.37
  A 0.33 0.33 0.0 0 1 141.17 139.54
  L 120.35 101.47"
/>
<path stroke="#94436b" vector-effect="non-scaling-stroke" d="
  M 192.82 161.90
  L 173.38 136.78
  Q 171.78 134.72 171.80 137.33
  L 171.88 149.81"
/>
<path stroke="#9c8664" vector-effect="non-scaling-stroke" d="
  M 156.52 115.31
  L 171.15 109.82"
/>
<path stroke="#9c8664" vector-effect="non-scaling-stroke" d="
  M 206.91 96.03
  L 193.46 101.15"
/>
<path stroke="#94ae3e" vector-effect="non-scaling-stroke" d="
  M 193.46 101.15
  Q 193.19 101.33 192.82 101.37
  Q 192.55 101.40 192.19 101.26
  Q 185.75 98.68 178.55 96.01"
/>
<path stroke="#94ae3e" vector-effect="non-scaling-stroke" d="
  M 141.55 109.71
  L 156.52 115.31"
/>
<path stroke="#317176" vector-effect="non-scaling-stroke" d="
  M 156.52 115.31
  Q 156.79 120.71 156.70 126.11
  C 156.40 142.49 156.69 158.86 156.38 175.25
  Q 156.36 176.29 157.24 176.89"
/>
<path stroke="#317176" vector-effect="non-scaling-stroke" d="
  M 133.81 156.06
  L 121.01 131.90
  A 0.40 0.40 0.0 0 0 120.26 132.13
  Q 120.51 134.47 120.50 136.75
  Q 120.46 148.16 120.62 160.06
  C 120.62 160.68 120.97 161.14 121.26 161.66"
/>
<path stroke="#f68033" vector-effect="non-scaling-stroke" d="
  M 133.54 95.58
  Q 133.82 96.20 133.26 96.43
  Q 126.48 99.21 120.35 101.47"
/>
<path stroke="#94ae3e" vector-effect="non-scaling-stroke" d="
  M 120.35 101.47
  Q 113.66 98.48 107.25 96.61
  Q 106.67 96.43 106.96 95.74"
/>
<path stroke="#d2d2d2" stroke-opacity="0.608" vector-effect="non-scaling-stroke" d="
  M 262.07 89.56
  C 243.75 93.02 228.09 107.21 226.84 126.36
  Q 226.24 135.55 227.72 143.84
  C 230.23 158.01 239.98 164.53 253.68 164.91
  Q 259.50 165.07 262.14 164.63
  Q 276.82 162.16 282.93 148.25
  Q 283.24 147.54 284.01 147.54
  L 308.95 147.55
  A 0.46 0.46 0.0 0 1 309.41 148.01
  L 309.46 163.79
  Q 309.47 164.26 309.93 164.27
  L 327.92 164.67"
/>
<path stroke="#d2d2d2" stroke-opacity="0.608" vector-effect="non-scaling-stroke" d="
  M 274.48 104.98
  C 263.52 105.06 251.37 108.87 246.65 119.24
  Q 246.24 120.14 247.07 119.60
  Q 251.91 116.47 258.07 115.62"
/>
<path stroke="#d2d2d2" stroke-opacity="0.608" vector-effect="non-scaling-stroke" d="
  M 279.22 123.94
  L 281.72 128.32
  Q 281.98 128.78 282.25 128.32
  L 302.39 93.32"
/>
<path stroke="#d2d2d2" stroke-opacity="0.608" vector-effect="non-scaling-stroke" d="
  M 393.99 101.50
  L 398.73 108.95
  Q 399.14 109.60 399.23 108.84
  Q 399.31 108.20 399.08 107.62
  A 1.68 1.63 -56.1 0 1 398.96 106.95
  L 399.14 94.27"
/>
<path stroke="#d2d2d2" stroke-opacity="0.608" vector-effect="non-scaling-stroke" d="
  M 452.68 154.50
  Q 443.01 163.94 428.98 164.17
  Q 414.69 164.41 399.78 164.22
  Q 399.25 164.21 399.25 163.68
  L 399.17 146.98
  Q 399.17 145.90 398.69 146.87
  Q 392.00 160.38 377.10 163.32
  C 374.47 163.84 371.63 164.33 368.93 164.30
  Q 354.60 164.17 340.29 164.57"
/>
<path stroke="#94cca8" vector-effect="non-scaling-stroke" d="
  M 340.29 164.57
  Q 339.77 164.65 339.80 163.35"
/>
<path stroke="#d2d2d2" stroke-opacity="0.608" vector-effect="non-scaling-stroke" d="
  M 339.80 163.35
  L 340.12 148.28
  Q 340.13 147.75 339.60 147.77
  L 332.63 147.96"
/>
<path stroke="#227d42" stroke-opacity="0.608" vector-effect="non-scaling-stroke" d="
  M 339.15 164.72
  Q 340.03 165.06 340.29 164.57"
/>
<path stroke="#227d42" stroke-opacity="0.608" vector-effect="non-scaling-stroke" d="
  M 339.80 163.35
  L 339.18 163.55"
/>
<path stroke="#d2d2d2" stroke-opacity="0.608" vector-effect="non-scaling-stroke" d="
  M 368.04 151.30
  Q 375.26 149.43 378.90 142.62
  C 383.81 133.45 384.14 120.93 378.02 112.20
  C 373.44 105.67 367.04 105.29 359.58 105.62
  Q 358.95 105.64 358.94 106.28
  L 358.89 111.07"
/>
<path stroke="#d2d2d2" stroke-opacity="0.608" vector-effect="non-scaling-stroke" d="
  M 427.06 151.31
  Q 434.84 149.16 438.41 141.62
  Q 442.66 132.66 441.04 122.43
  C 439.55 112.98 433.37 105.18 423.21 105.60
  Q 420.79 105.70 418.43 105.68
  Q 417.82 105.67 417.83 106.28
  L 417.95 110.77"
/>
<path stroke="#d2d2d2" stroke-opacity="0.608" vector-effect="non-scaling-stroke" d="
  M 304.83 133.06
  Q 306.79 133.49 308.91 133.12
  Q 309.44 133.02 309.44 132.49
  L 309.37 109.28
  Q 309.36 108.48 308.98 109.18
  L 301.98 122.03"
/>
<path stroke="#d2d2d2" stroke-opacity="0.608" vector-effect="non-scaling-stroke" d="
  M 252.08 151.29
  A 11.66 8.88 90.0 0 0 261.56 148.48
  A 11.64 8.88 89.8 0 0 263.31 135.73
  A 11.66 8.89 89.9 0 0 256.51 128.86
  A 11.70 8.92 89.9 0 0 250.92 130.14
  A 11.65 8.87 89.9 0 0 246.65 137.07"
/>
</g>
<path fill="#fec32c" d="
  M 170.59 82.12
  L 156.58 87.46
  L 142.63 82.09
  L 155.34 77.19
  A 3.58 3.58 0.0 0 1 157.90 77.19
  L 170.59 82.12
  Z"
/>
<path fill="#299850" d="
  M 142.63 82.09
  L 156.58 87.46
  L 145.52 107.90
  L 141.35 109.48
  L 134.86 95.95
  L 142.63 82.09
  Z"
/>
<path fill="#39499b" d="
  M 170.59 82.12
  L 170.68 104.59
  L 168.34 108.23
  Q 163.12 106.55 158.36 104.75
  Q 156.18 103.93 155.35 104.31
  Q 151.03 106.33 145.52 107.90
  L 156.58 87.46
  L 170.59 82.12
  Z"
/>
<path fill="#000000" fill-opacity="0.216" d="
  M 262.07 89.56
  C 243.75 93.02 228.09 107.21 226.84 126.36
  Q 226.24 135.55 227.72 143.84
  C 230.23 158.01 239.98 164.53 253.68 164.91
  Q 259.50 165.07 262.14 164.63
  Q 276.82 162.16 282.93 148.25
  Q 283.24 147.54 284.01 147.54
  L 308.95 147.55
  A 0.46 0.46 0.0 0 1 309.41 148.01
  L 309.46 163.79
  Q 309.47 164.26 309.93 164.27
  L 327.92 164.67
  Q 322.39 164.83 317.63 166.86
  Q 316.52 167.34 313.42 166.74
  Q 311.47 166.36 309.36 166.05
  Q 307.30 165.75 305.35 164.39
  Q 305.03 164.16 304.93 163.79
  Q 303.94 160.24 304.14 156.68
  C 304.27 154.26 302.53 152.16 300.04 152.13
  Q 292.00 152.06 284.90 152.18
  A 0.70 0.69 -2.3 0 0 284.21 152.92
  Q 284.25 153.66 283.21 153.65
  Q 282.98 153.64 282.78 153.77
  Q 282.53 153.94 282.62 154.24
  Q 282.69 154.46 282.48 154.37
  Q 282.31 154.30 282.30 154.12
  Q 282.30 153.92 282.11 153.99
  Q 281.53 154.20 281.65 154.82
  Q 281.74 155.27 281.35 155.03
  Q 281.10 154.87 281.10 154.58
  Q 281.11 154.16 280.68 154.11
  Q 280.47 154.09 280.30 154.23
  Q 279.78 154.67 280.32 155.07
  L 280.63 155.30
  Q 281.13 155.68 280.81 156.23
  Q 278.33 160.51 274.77 163.31
  Q 273.95 163.96 272.91 164.23
  Q 271.68 164.56 270.80 165.48
  Q 270.49 165.81 270.05 165.91
  Q 267.84 166.40 265.98 168.08
  Q 265.62 168.40 265.14 168.43
  Q 262.97 168.58 260.69 169.00
  Q 258.50 169.40 256.29 169.42
  Q 251.97 169.45 247.81 169.13
  Q 243.16 168.77 238.89 166.98
  Q 237.32 166.32 235.65 164.99
  Q 234.18 163.81 232.55 162.65
  Q 232.18 162.39 231.97 161.98
  Q 231.74 161.51 231.22 161.32
  Q 230.73 161.15 230.39 160.75
  Q 228.04 157.96 225.89 154.68
  Q 223.99 151.78 223.61 149.08
  Q 223.34 147.17 222.64 145.24
  Q 221.94 143.34 221.80 141.26
  Q 221.13 131.30 222.39 121.75
  Q 222.68 119.58 223.62 117.49
  Q 226.47 111.22 230.01 106.01
  Q 232.15 102.87 234.92 100.73
  Q 237.07 99.06 238.95 97.34
  Q 240.29 96.11 241.96 95.10
  Q 243.67 94.06 245.35 92.96
  Q 246.49 92.21 249.25 91.39
  Q 250.46 91.03 251.05 91.38
  A 1.95 1.94 60.8 0 0 252.00 91.65
  Q 252.24 91.66 252.41 91.53
  Q 252.72 91.31 252.50 90.99
  Q 252.30 90.72 251.98 90.67
  Q 251.14 90.53 251.99 90.45
  Q 253.00 90.36 254.04 90.84
  Q 254.52 91.07 254.80 90.62
  Q 254.92 90.43 254.89 90.19
  Q 254.82 89.63 254.26 89.63
  L 253.82 89.63
  Q 253.53 89.63 253.78 89.49
  Q 254.20 89.24 254.70 89.35
  Q 256.49 89.73 258.04 89.92
  A 0.53 0.52 77.9 0 0 258.55 89.13
  Q 258.35 88.80 257.98 88.80
  Q 256.77 88.79 257.94 88.51
  Q 260.24 87.94 262.07 89.56
  Z"
/>
<path fill="#ffffff" d="
  M 274.48 104.98
  C 263.52 105.06 251.37 108.87 246.65 119.24
  Q 246.24 120.14 247.07 119.60
  Q 251.91 116.47 258.07 115.62
  Q 271.32 114.01 279.22 123.94
  L 281.72 128.32
  Q 281.98 128.78 282.25 128.32
  L 302.39 93.32
  Q 302.72 92.44 303.40 91.66
  Q 303.78 91.22 304.36 91.22
  L 327.19 91.08
  Q 327.81 91.07 327.81 91.69
  L 327.84 132.94
  A 0.60 0.59 89.5 0 0 328.44 133.54
  L 339.30 133.34
  Q 339.93 133.33 339.93 132.75
  L 339.61 91.71
  Q 339.60 91.01 340.30 91.02
  Q 354.16 91.12 367.41 91.14
  C 377.67 91.15 386.94 93.73 393.99 101.50
  L 398.73 108.95
  Q 399.14 109.60 399.23 108.84
  Q 399.31 108.20 399.08 107.62
  A 1.68 1.63 -56.1 0 1 398.96 106.95
  L 399.14 94.27
  Q 398.88 92.83 399.10 91.68
  Q 399.20 91.17 399.72 91.16
  Q 414.13 91.05 428.02 91.18
  C 440.92 91.30 452.56 97.03 457.60 109.16
  Q 462.08 119.95 460.99 132.50
  Q 459.84 145.78 452.68 154.50
  Q 443.01 163.94 428.98 164.17
  Q 414.69 164.41 399.78 164.22
  Q 399.25 164.21 399.25 163.68
  L 399.17 146.98
  Q 399.17 145.90 398.69 146.87
  Q 392.00 160.38 377.10 163.32
  C 374.47 163.84 371.63 164.33 368.93 164.30
  Q 354.60 164.17 340.29 164.57
  Q 339.77 164.65 339.80 163.35
  L 340.12 148.28
  Q 340.13 147.75 339.60 147.77
  L 332.63 147.96
  L 328.56 147.95
  Q 328.03 147.95 328.03 148.48
  L 327.92 164.67
  L 309.93 164.27
  Q 309.47 164.26 309.46 163.79
  L 309.41 148.01
  A 0.46 0.46 0.0 0 0 308.95 147.55
  L 284.01 147.54
  Q 283.24 147.54 282.93 148.25
  Q 276.82 162.16 262.14 164.63
  Q 259.50 165.07 253.68 164.91
  C 239.98 164.53 230.23 158.01 227.72 143.84
  Q 226.24 135.55 226.84 126.36
  C 228.09 107.21 243.75 93.02 262.07 89.56
  L 274.13 89.17
  A 0.62 0.62 0.0 0 1 274.77 89.80
  L 274.48 104.98
  Z
  M 358.89 111.07
  L 358.88 150.90
  Q 358.88 151.42 359.39 151.41
  L 368.04 151.30
  Q 375.26 149.43 378.90 142.62
  C 383.81 133.45 384.14 120.93 378.02 112.20
  C 373.44 105.67 367.04 105.29 359.58 105.62
  Q 358.95 105.64 358.94 106.28
  L 358.89 111.07
  Z
  M 417.95 110.77
  L 417.82 150.94
  Q 417.82 151.47 418.34 151.46
  L 427.06 151.31
  Q 434.84 149.16 438.41 141.62
  Q 442.66 132.66 441.04 122.43
  C 439.55 112.98 433.37 105.18 423.21 105.60
  Q 420.79 105.70 418.43 105.68
  Q 417.82 105.67 417.83 106.28
  L 417.95 110.77
  Z
  M 301.98 122.03
  L 296.22 132.80
  A 0.29 0.28 -76.3 0 0 296.47 133.22
  L 304.83 133.06
  Q 306.79 133.49 308.91 133.12
  Q 309.44 133.02 309.44 132.49
  L 309.37 109.28
  Q 309.36 108.48 308.98 109.18
  L 301.98 122.03
  Z
  M 246.65 137.07
  A 11.65 8.88 89.8 0 0 252.08 151.29
  A 11.66 8.88 90.0 0 0 261.56 148.48
  A 11.64 8.88 89.8 0 0 263.31 135.73
  A 11.66 8.89 89.9 0 0 256.51 128.86
  A 11.70 8.92 89.9 0 0 250.92 130.14
  A 11.65 8.87 89.9 0 0 246.65 137.07
  Z"
/>
<path fill="#fec32c" d="
  M 133.54 95.58
  Q 133.82 96.20 133.26 96.43
  Q 126.48 99.21 120.35 101.47
  Q 113.66 98.48 107.25 96.61
  Q 106.67 96.43 106.96 95.74
  L 119.92 90.79
  Q 120.39 90.61 120.87 90.79
  L 133.54 95.58
  Z"
/>
<path fill="#fec32c" d="
  M 206.91 96.03
  L 193.46 101.15
  Q 193.19 101.33 192.82 101.37
  Q 192.55 101.40 192.19 101.26
  Q 185.75 98.68 178.55 96.01
  L 192.04 90.79
  Q 192.52 90.61 192.99 90.79
  L 206.91 96.03
  Z"
/>
<path fill="#000000" fill-opacity="0.216" d="
  M 302.39 93.32
  L 282.25 128.32
  Q 281.98 128.78 281.72 128.32
  L 279.22 123.94
  Q 279.87 124.19 280.09 124.53
  Q 280.76 125.56 280.62 124.34
  Q 280.46 123.04 281.40 122.56
  A 1.16 1.14 2.5 0 0 281.90 122.11
  L 299.74 92.82
  Q 300.16 92.15 300.72 92.70
  Q 301.32 93.28 302.39 93.32
  Z"
/>
<path fill="#000000" fill-opacity="0.216" d="
  M 399.14 94.27
  L 398.96 106.95
  A 1.68 1.63 -56.1 0 0 399.08 107.62
  Q 399.31 108.20 399.23 108.84
  Q 399.14 109.60 398.73 108.95
  L 393.99 101.50
  Q 394.52 101.24 394.61 100.70
  Q 394.65 100.39 394.34 99.84
  Q 394.06 99.35 393.94 98.75
  Q 393.83 98.26 394.13 97.85
  Q 396.11 95.13 399.14 94.27
  Z"
/>
<path fill="#ee3d3a" d="
  M 133.54 95.58
  L 134.86 95.95
  L 141.35 109.48
  Q 141.47 109.17 141.55 109.71
  L 141.79 139.37
  A 0.33 0.33 0.0 0 1 141.17 139.54
  L 120.35 101.47
  Q 126.48 99.21 133.26 96.43
  Q 133.82 96.20 133.54 95.58
  Z"
/>
<path fill="#299850" d="
  M 106.96 95.74
  Q 106.67 96.43 107.25 96.61
  Q 113.66 98.48 120.35 101.47
  L 141.17 139.54
  A 0.33 0.33 0.0 0 0 141.79 139.37
  L 141.55 109.71
  L 156.52 115.31
  Q 156.79 120.71 156.70 126.11
  C 156.40 142.49 156.69 158.86 156.38 175.25
  Q 156.36 176.29 157.24 176.89
  Q 156.35 177.05 155.51 176.70
  Q 148.84 173.91 142.40 171.24
  Q 141.43 170.83 140.95 169.90
  L 133.81 156.06
  L 121.01 131.90
  A 0.40 0.40 0.0 0 0 120.26 132.13
  Q 120.51 134.47 120.50 136.75
  Q 120.46 148.16 120.62 160.06
  C 120.62 160.68 120.97 161.14 121.26 161.66
  L 120.84 161.80
  A 1.49 1.45 47.2 0 1 119.83 161.75
  L 106.74 156.20
  Q 106.26 156.00 106.26 155.47
  Q 106.22 125.85 106.25 96.25
  Q 106.25 95.82 106.96 95.74
  Z"
/>
<path fill="#299850" d="
  M 178.55 96.01
  Q 185.75 98.68 192.19 101.26
  Q 192.55 101.40 192.82 101.37
  Q 193.19 101.33 193.46 101.15
  Q 193.48 101.85 193.04 102.18
  Q 192.64 102.48 192.64 102.99
  L 192.84 138.44
  Q 192.85 139.59 192.17 138.66
  Q 182.76 125.83 173.60 112.40
  Q 172.55 110.87 171.15 109.82
  Q 170.67 108.55 168.34 108.23
  L 170.68 104.59
  L 178.55 96.01
  Z"
/>
<path fill="#39499b" d="
  M 206.91 96.03
  L 206.95 155.36
  A 0.90 0.89 -11.5 0 1 206.40 156.18
  L 192.82 161.90
  L 173.38 136.78
  Q 171.78 134.72 171.80 137.33
  L 171.88 149.81
  L 171.72 170.44
  A 0.59 0.58 -69.7 0 1 171.36 170.98
  L 157.24 176.89
  Q 156.36 176.29 156.38 175.25
  C 156.69 158.86 156.40 142.49 156.70 126.11
  Q 156.79 120.71 156.52 115.31
  L 171.15 109.82
  Q 172.55 110.87 173.60 112.40
  Q 182.76 125.83 192.17 138.66
  Q 192.85 139.59 192.84 138.44
  L 192.64 102.99
  Q 192.64 102.48 193.04 102.18
  Q 193.48 101.85 193.46 101.15
  L 206.91 96.03
  Z"
/>
<path fill="#fec32c" d="
  M 168.34 108.23
  Q 170.67 108.55 171.15 109.82
  L 156.52 115.31
  L 141.55 109.71
  Q 141.47 109.17 141.35 109.48
  L 145.52 107.90
  Q 151.03 106.33 155.35 104.31
  Q 156.18 103.93 158.36 104.75
  Q 163.12 106.55 168.34 108.23
  Z"
/>
<path fill="#000000" fill-opacity="0.216" d="
  M 274.48 104.98
  L 269.80 106.54
  Q 269.67 106.59 269.71 106.71
  Q 269.76 106.90 269.62 106.93
  Q 268.57 107.16 269.64 107.11
  Q 269.84 107.10 269.96 107.27
  A 0.48 0.48 0.0 0 1 269.66 108.03
  Q 264.88 108.89 260.34 110.42
  Q 259.01 110.87 257.75 111.64
  Q 256.87 112.18 257.08 113.12
  Q 257.18 113.59 256.71 113.64
  Q 256.28 113.70 255.92 113.93
  Q 255.37 114.29 255.86 114.73
  Q 256.55 115.34 258.07 115.62
  Q 251.91 116.47 247.07 119.60
  Q 246.24 120.14 246.65 119.24
  C 251.37 108.87 263.52 105.06 274.48 104.98
  Z"
/>
<path fill="#000000" fill-opacity="0.216" d="
  M 368.04 151.30
  Q 367.65 150.85 367.78 150.07
  A 0.81 0.81 0.0 0 1 368.89 149.46
  Q 369.45 149.71 370.03 149.80
  Q 371.02 149.95 370.39 149.17
  Q 370.30 149.07 370.22 148.96
  A 0.66 0.65 -38.5 0 1 370.33 148.04
  Q 376.36 143.24 377.83 135.48
  Q 379.19 128.30 377.42 121.25
  Q 375.69 114.35 369.75 110.50
  Q 369.39 110.27 368.73 110.32
  A 2.10 2.08 -35.0 0 1 367.79 110.16
  Q 365.18 109.02 360.39 109.61
  A 0.11 0.09 4.1 0 0 360.31 109.67
  Q 359.84 110.69 358.89 111.07
  L 358.94 106.28
  Q 358.95 105.64 359.58 105.62
  C 367.04 105.29 373.44 105.67 378.02 112.20
  C 384.14 120.93 383.81 133.45 378.90 142.62
  Q 375.26 149.43 368.04 151.30
  Z"
/>
<path fill="#000000" fill-opacity="0.216" d="
  M 427.06 151.31
  Q 426.60 150.51 426.57 149.86
  Q 426.54 149.24 427.16 149.27
  Q 427.72 149.29 428.00 148.80
  Q 428.25 148.37 428.65 148.03
  Q 430.29 146.67 431.85 145.49
  A 0.93 0.84 87.2 0 0 432.13 145.15
  L 435.65 137.15
  Q 435.85 136.70 435.85 136.20
  C 435.82 134.41 436.38 132.81 436.36 130.98
  Q 436.30 124.21 435.75 122.50
  Q 434.07 117.25 433.13 115.85
  Q 428.17 108.46 417.95 110.77
  L 417.83 106.28
  Q 417.82 105.67 418.43 105.68
  Q 420.79 105.70 423.21 105.60
  C 433.37 105.18 439.55 112.98 441.04 122.43
  Q 442.66 132.66 438.41 141.62
  Q 434.84 149.16 427.06 151.31
  Z"
/>
<path fill="#000000" fill-opacity="0.216" d="
  M 304.83 133.06
  L 298.49 132.87
  A 0.34 0.34 0.0 0 1 298.21 132.35
  Q 298.62 131.70 299.35 131.88
  Q 300.99 132.27 302.95 132.03
  Q 303.96 131.91 303.95 131.00
  Q 303.95 130.60 304.15 130.27
  L 304.97 128.91
  Q 305.20 128.51 305.12 128.06
  L 304.50 124.65
  Q 304.45 124.39 304.21 124.30
  Q 304.06 124.25 303.91 124.23
  Q 303.26 124.18 303.22 123.53
  Q 303.16 122.50 303.65 121.68
  Q 303.84 121.37 303.47 121.38
  Q 303.28 121.39 303.31 121.53
  Q 303.39 122.03 302.89 122.11
  Q 302.44 122.18 301.98 122.03
  L 308.98 109.18
  Q 309.36 108.48 309.37 109.28
  L 309.44 132.49
  Q 309.44 133.02 308.91 133.12
  Q 306.79 133.49 304.83 133.06
  Z"
/>
<path fill="#000000" fill-opacity="0.216" d="
  M 252.08 151.29
  Q 253.81 151.02 253.92 150.04
  Q 253.97 149.59 254.41 149.45
  Q 256.56 148.80 257.35 147.27
  Q 259.79 142.52 257.74 136.86
  Q 257.17 135.29 255.88 134.58
  Q 254.59 133.87 252.75 133.95
  Q 250.36 134.05 249.68 135.64
  Q 249.45 136.18 249.10 135.71
  Q 248.79 135.30 248.83 134.79
  Q 248.85 134.50 248.56 134.45
  L 248.30 134.41
  Q 248.19 134.40 248.18 134.51
  L 248.11 136.36
  Q 248.09 136.90 247.56 136.96
  L 246.65 137.07
  A 11.65 8.87 89.9 0 1 250.92 130.14
  A 11.70 8.92 89.9 0 1 256.51 128.86
  A 11.66 8.89 89.9 0 1 263.31 135.73
  A 11.64 8.88 89.8 0 1 261.56 148.48
  A 11.66 8.88 90.0 0 1 252.08 151.29
  Z"
/>
<path fill="#39499b" d="
  M 133.81 156.06
  L 121.26 161.66
  C 120.97 161.14 120.62 160.68 120.62 160.06
  Q 120.46 148.16 120.50 136.75
  Q 120.51 134.47 120.26 132.13
  A 0.40 0.40 0.0 0 1 121.01 131.90
  L 133.81 156.06
  Z"
/>
<path fill="#ee3d3a" d="
  M 192.82 161.90
  Q 184.90 159.21 177.81 156.14
  Q 175.95 155.34 174.72 153.67
  Q 173.37 151.85 171.88 149.81
  L 171.80 137.33
  Q 171.78 134.72 173.38 136.78
  L 192.82 161.90
  Z"
/>
<path fill="#000000" fill-opacity="0.216" d="
  M 452.68 154.50
  Q 452.24 155.74 451.36 156.34
  Q 450.82 156.70 451.37 157.06
  Q 451.69 157.26 452.03 157.31
  Q 452.75 157.42 452.04 157.57
  Q 451.39 157.71 451.12 158.27
  A 5.58 4.80 -0.6 0 1 448.21 160.83
  Q 447.55 161.09 447.27 161.74
  Q 447.06 162.22 446.61 162.48
  Q 445.73 162.96 445.04 163.56
  Q 444.31 164.20 443.28 164.50
  Q 438.66 165.84 434.62 167.14
  Q 431.76 168.06 426.63 168.13
  C 418.36 168.24 410.10 168.49 401.86 168.35
  Q 401.33 168.34 400.96 167.96
  L 400.61 167.62
  Q 400.43 167.44 400.17 167.42
  Q 397.47 167.17 396.15 165.08
  Q 394.86 163.01 394.17 160.73
  A 1.23 1.21 6.8 0 0 393.62 160.04
  Q 391.96 159.08 390.37 160.21
  Q 384.44 164.45 375.76 166.81
  Q 374.31 167.20 372.80 167.25
  Q 371.21 167.31 369.64 167.64
  Q 368.25 167.94 366.83 167.91
  Q 358.68 167.73 350.79 168.25
  A 1.97 1.91 26.1 0 0 349.84 168.56
  Q 349.08 169.04 348.05 168.98
  Q 347.25 168.92 346.64 168.48
  Q 345.07 167.36 343.34 166.51
  Q 342.66 166.17 343.06 166.81
  Q 343.74 167.88 344.79 168.17
  Q 345.45 168.35 344.77 168.42
  Q 344.25 168.48 343.97 168.04
  Q 342.98 167.54 342.53 166.59
  Q 342.30 166.12 341.78 166.14
  Q 339.90 166.21 338.19 165.09
  A 0.81 0.80 -71.3 0 1 337.83 164.35
  C 338.10 161.40 336.77 158.85 336.87 155.93
  Q 336.94 153.87 335.85 151.79
  Q 335.67 151.45 335.29 151.40
  Q 334.68 151.32 333.95 151.49
  A 0.11 0.11 0.0 0 1 333.88 151.29
  Q 335.59 150.48 337.05 152.47
  Q 337.92 153.64 337.96 155.13
  Q 338.06 159.02 338.44 162.69
  Q 338.50 163.25 338.07 163.61
  Q 337.75 163.88 337.84 164.27
  Q 337.94 164.72 338.37 164.90
  Q 339.11 165.22 339.15 164.72
  Q 340.03 165.06 340.29 164.57
  Q 354.60 164.17 368.93 164.30
  C 371.63 164.33 374.47 163.84 377.10 163.32
  Q 392.00 160.38 398.69 146.87
  Q 399.17 145.90 399.17 146.98
  L 399.25 163.68
  Q 399.25 164.21 399.78 164.22
  Q 414.69 164.41 428.98 164.17
  Q 443.01 163.94 452.68 154.50
  Z"
/>
<path fill="#000000" fill-opacity="0.216" d="
  M 339.80 163.35
  L 339.18 163.55
  L 339.15 151.42
  Q 339.15 150.88 338.63 150.72
  L 336.99 150.23
  Q 336.45 150.07 336.02 149.72
  Q 334.60 148.55 332.63 147.96
  L 339.60 147.77
  Q 340.13 147.75 340.12 148.28
  L 339.80 163.35
  Z"
/>
<path fill="#ffffff" d="
  M 464.22 154.97
  L 461.07 154.98
  A 0.27 0.27 0.0 0 1 460.80 154.74
  L 460.73 154.11
  A 0.27 0.27 0.0 0 1 460.99 153.81
  L 469.18 153.76
  A 0.27 0.27 0.0 0 1 469.45 154.08
  L 469.34 154.65
  A 0.27 0.27 0.0 0 1 469.09 154.87
  L 466.12 155.00
  A 0.27 0.27 0.0 0 0 465.86 155.26
  L 465.69 164.26
  A 0.27 0.27 0.0 0 1 465.35 164.52
  L 464.54 164.31
  A 0.27 0.27 0.0 0 1 464.33 164.05
  L 464.49 155.25
  A 0.27 0.27 0.0 0 0 464.22 154.97
  Z"
/>
<path fill="#ffffff" d="
  M 472.27 158.73
  L 472.25 163.50
  A 1.06 1.05 75.8 0 1 471.70 164.43
  L 471.33 164.64
  Q 470.82 164.93 470.83 164.34
  L 471.02 154.45
  Q 471.03 153.93 471.52 153.77
  Q 472.50 153.44 472.96 154.37
  Q 474.22 156.90 475.31 160.00
  Q 475.77 161.29 476.23 160.00
  L 478.18 154.56
  Q 478.88 152.62 479.40 154.61
  Q 479.85 156.34 478.78 158.00
  C 477.63 159.79 477.04 161.68 476.27 163.62
  Q 475.69 165.09 475.16 163.60
  Q 474.23 160.97 473.13 158.54
  Q 472.28 156.68 472.27 158.73
  Z"
/>
<ellipse fill="#ffffff" cx="0.00" cy="0.00" transform="translate(479.34,162.38) rotate(93.5)" rx="1.77" ry="0.28"/>
<path fill="#299850" d="
  M 339.80 163.35
  Q 339.77 164.65 340.29 164.57
  Q 340.03 165.06 339.15 164.72
  L 339.18 163.55
  L 339.80 163.35
  Z"
/>
</svg>
