<?xml version="1.0" encoding="UTF-8" standalone="no"?>
<!DOCTYPE svg PUBLIC "-//W3C//DTD SVG 1.1//EN" "http://www.w3.org/Graphics/SVG/1.1/DTD/svg11.dtd">
<svg xmlns="http://www.w3.org/2000/svg" version="1.1" viewBox="0.00 0.00 590.00 255.00">
<path fill="#ffffff" d="
  M 258.29 100.11
  Q 256.40 110.90 254.87 121.04
  C 254.65 122.50 254.09 123.78 253.72 125.19
  Q 253.57 125.76 252.99 125.85
  C 244.88 127.09 235.80 126.45 227.73 126.07
  A 0.55 0.55 0.0 0 1 227.21 125.42
  C 230.09 110.33 242.01 99.43 257.38 99.16
  Q 258.25 99.14 258.37 98.29
  L 259.51 90.23
  A 1.91 1.88 76.0 0 1 260.25 88.97
  Q 260.86 88.51 261.55 88.46
  A 0.74 0.74 0.0 0 1 262.36 89.25
  Q 262.06 93.69 260.87 98.51
  Q 260.74 99.03 260.28 99.30
  Q 259.78 99.60 259.18 99.49
  Q 258.42 99.36 258.29 100.11
  Z"
/>
<path fill="#ffffff" d="
  M 421.28 143.36
  Q 421.22 144.63 421.79 143.49
  L 442.11 102.75
  Q 442.52 101.93 443.43 101.94
  L 462.43 102.09
  A 1.29 1.29 0.0 0 1 463.69 103.17
  L 470.66 145.54
  A 0.38 0.38 0.0 0 0 471.32 145.72
  L 487.55 126.06
  Q 488.01 125.50 487.67 124.85
  L 476.07 102.68
  Q 475.70 101.98 476.49 101.98
  L 495.95 101.98
  Q 496.50 101.98 496.76 102.47
  L 500.36 109.31
  A 0.42 0.42 0.0 0 0 501.06 109.39
  L 507.03 102.39
  Q 507.38 101.99 507.92 101.99
  L 530.31 101.98
  A 0.52 0.52 0.0 0 1 530.71 102.83
  L 510.40 127.31
  A 0.71 0.70 -38.9 0 0 510.31 128.08
  L 523.35 152.73
  A 0.57 0.56 -15.2 0 1 522.87 153.56
  Q 513.45 153.93 503.06 153.68
  A 0.83 0.83 0.0 0 1 502.33 153.21
  L 497.75 143.99
  A 0.64 0.63 50.8 0 0 496.68 143.88
  Q 493.54 147.99 489.96 152.07
  Q 488.47 153.76 486.36 153.77
  Q 469.19 153.79 454.09 153.77
  Q 453.45 153.77 453.39 153.13
  L 452.89 147.44
  A 1.21 1.20 87.4 0 0 451.69 146.34
  L 441.39 146.36
  A 1.89 1.88 10.3 0 0 439.62 147.58
  L 437.86 152.28
  A 2.26 2.26 0.0 0 1 435.74 153.75
  L 400.73 153.82
  Q 400.15 153.82 400.18 153.24
  L 401.49 126.57
  Q 401.56 125.23 400.97 126.43
  L 388.00 152.82
  A 1.74 1.74 0.0 0 1 386.44 153.79
  L 375.33 153.78
  Q 374.86 153.78 374.79 153.31
  L 371.15 127.79
  Q 370.97 126.49 370.62 127.76
  L 363.90 152.32
  Q 363.51 153.73 362.06 153.74
  L 342.14 153.84
  Q 341.66 153.85 341.79 153.39
  L 358.82 93.35
  Q 359.38 91.38 361.42 91.39
  L 381.10 91.46
  Q 382.24 91.46 382.42 92.59
  L 386.41 118.01
  Q 386.58 119.12 387.07 118.12
  L 399.65 92.42
  A 1.92 1.92 0.0 0 1 401.39 91.34
  L 422.47 91.45
  A 0.77 0.77 0.0 0 1 423.24 92.25
  Q 422.53 117.72 421.28 143.36
  Z
  M 451.79 133.57
  C 451.28 129.81 451.04 126.03 451.05 122.16
  Q 451.05 120.92 450.50 122.03
  Q 447.73 127.68 445.22 133.89
  A 0.36 0.36 0.0 0 0 445.57 134.39
  L 451.23 134.23
  Q 451.88 134.22 451.79 133.57
  Z"
/>
<path fill="#ffffff" d="
  M 72.66 128.73
  L 60.76 128.86
  Q 59.39 128.88 59.79 127.57
  L 59.96 127.05
  Q 60.30 125.95 61.45 125.93
  L 73.16 125.80
  A 1.80 1.80 0.0 0 0 74.73 124.82
  L 90.73 93.56
  A 1.13 1.12 13.1 0 1 91.74 92.94
  L 114.98 92.97
  A 0.87 0.87 0.0 0 1 115.84 93.71
  L 120.52 125.40
  A 0.68 0.68 0.0 0 1 119.93 126.17
  Q 118.04 126.40 116.19 126.41
  Q 97.58 126.49 75.48 126.36
  C 73.98 126.35 73.19 127.44 72.66 128.73
  Z"
/>
<path fill="#ffffff" d="
  M 281.65 115.62
  Q 283.75 120.64 283.08 125.60
  A 0.59 0.59 0.0 0 1 282.52 126.11
  Q 269.83 126.76 256.80 126.07
  Q 256.22 126.04 256.31 125.47
  L 260.31 100.39
  A 1.14 1.13 -79.1 0 1 261.68 99.46
  Q 276.26 102.78 281.65 115.62
  Z"
/>
<path fill="#ffffff" d="
  M 141.62 125.35
  Q 141.04 126.47 139.77 126.46
  L 122.95 126.20
  Q 122.19 126.19 122.37 125.46
  Q 126.83 107.36 143.60 101.52
  C 149.90 99.33 157.40 99.93 163.57 102.70
  A 1.51 1.50 15.9 0 1 164.44 104.26
  Q 163.40 112.52 161.60 119.42
  A 0.31 0.31 0.0 0 1 161.16 119.62
  Q 148.17 112.70 141.62 125.35
  Z"
/>
<path fill="#ffffff" d="
  M 206.06 125.41
  L 210.27 102.56
  A 0.86 0.86 0.0 0 1 211.12 101.86
  L 229.25 102.07
  A 0.86 0.86 0.0 0 1 230.09 103.07
  L 226.20 125.61
  A 0.86 0.86 0.0 0 1 225.36 126.32
  L 206.91 126.42
  A 0.86 0.86 0.0 0 1 206.06 125.41
  Z"
/>
<path fill="#ffffff" d="
  M 174.50 117.31
  L 165.25 117.27
  A 0.61 0.61 0.0 0 1 164.65 116.56
  L 167.16 102.47
  A 0.61 0.61 0.0 0 1 167.76 101.97
  L 208.13 101.99
  A 0.61 0.61 0.0 0 1 208.72 102.71
  L 206.09 116.75
  A 0.61 0.61 0.0 0 1 205.47 117.25
  L 195.60 117.04
  A 0.61 0.61 0.0 0 0 194.99 117.54
  L 193.53 125.67
  A 0.61 0.61 0.0 0 1 192.93 126.17
  L 174.19 126.15
  A 0.61 0.61 0.0 0 1 173.59 125.42
  L 175.09 118.04
  A 0.61 0.61 0.0 0 0 174.50 117.31
  Z"
/>
<path fill="#ffffff" d="
  M 303.50 131.19
  Q 303.09 130.20 302.90 131.25
  L 298.95 153.09
  A 0.80 0.80 0.0 0 1 298.16 153.75
  L 280.23 153.79
  Q 279.66 153.79 279.71 153.23
  Q 280.07 149.61 280.51 147.49
  Q 282.37 138.52 283.98 129.54
  Q 284.16 128.50 285.22 128.49
  L 292.44 128.40
  Q 293.39 128.39 293.57 127.46
  Q 293.67 126.93 293.40 126.45
  Q 293.24 126.16 292.91 126.16
  L 285.70 126.18
  Q 284.42 126.18 284.64 124.92
  L 288.37 103.52
  Q 288.64 101.97 290.21 101.97
  L 307.28 101.98
  A 0.92 0.92 0.0 0 1 308.11 102.50
  L 317.60 122.37
  Q 318.34 123.92 318.63 122.23
  L 321.94 102.70
  A 0.85 0.84 4.8 0 1 322.78 102.00
  L 340.80 101.97
  A 0.50 0.50 0.0 0 1 341.29 102.56
  L 332.36 152.70
  A 1.31 1.30 5.0 0 1 331.07 153.77
  L 313.50 153.78
  A 0.66 0.65 78.4 0 1 312.90 153.38
  L 303.50 131.19
  Z"
/>
<path fill="#ffffff" d="
  M 72.66 128.73
  Q 74.36 128.23 76.00 128.25
  Q 97.08 128.46 119.94 128.49
  A 1.14 1.13 85.9 0 1 121.06 129.47
  L 124.28 152.38
  A 1.19 1.18 -4.2 0 1 123.11 153.73
  L 102.25 153.80
  Q 101.70 153.81 101.71 153.25
  L 101.85 146.03
  A 0.57 0.56 0.5 0 0 101.28 145.46
  L 88.01 145.51
  A 1.09 1.09 0.0 0 0 86.98 146.25
  L 84.84 152.75
  A 1.44 1.42 -80.6 0 1 83.49 153.73
  L 60.50 153.83
  Q 60.07 153.84 60.26 153.45
  L 72.66 128.73
  Z"
/>
<path fill="#ffffff" d="
  M 141.42 129.38
  C 143.75 137.30 151.74 139.07 158.46 135.30
  A 0.41 0.41 0.0 0 1 159.06 135.73
  L 155.77 152.95
  A 1.74 1.74 0.0 0 1 154.46 154.32
  C 138.02 158.23 121.44 147.09 122.36 129.37
  A 0.99 0.98 1.5 0 1 123.35 128.44
  L 140.27 128.52
  A 1.21 1.20 81.5 0 1 141.42 129.38
  Z"
/>
<path fill="#ffffff" d="
  M 201.31 152.58
  L 205.41 129.18
  A 1.08 1.08 0.0 0 1 206.49 128.29
  L 224.37 128.49
  A 1.08 1.08 0.0 0 1 225.42 129.76
  L 221.20 152.86
  A 1.08 1.08 0.0 0 1 220.14 153.74
  L 202.38 153.84
  A 1.08 1.08 0.0 0 1 201.31 152.58
  Z"
/>
<path fill="#ffffff" d="
  M 248.86 154.56
  Q 246.96 154.86 244.65 154.09
  Q 231.51 149.69 227.65 136.56
  Q 226.56 132.88 227.11 128.88
  A 0.46 0.46 0.0 0 1 227.57 128.48
  L 252.04 128.44
  Q 252.90 128.44 253.02 129.29
  Q 253.19 130.51 252.95 132.02
  Q 251.15 143.28 248.86 154.56
  Z"
/>
<path fill="#ffffff" d="
  M 248.86 154.56
  L 250.76 154.73
  A 0.49 0.49 0.0 0 0 251.30 154.32
  L 255.57 129.36
  A 1.18 1.16 -85.0 0 1 256.72 128.38
  L 281.74 128.39
  A 1.15 1.15 0.0 0 1 282.87 129.77
  Q 281.00 138.95 274.18 145.83
  C 268.72 151.33 259.72 156.23 251.75 155.07
  Q 251.29 155.00 251.23 155.46
  L 249.87 165.55
  A 1.78 1.78 0.0 0 1 248.21 167.10
  L 247.70 167.14
  A 0.85 0.85 0.0 0 1 246.81 166.14
  L 248.86 154.56
  Z"
/>
<path fill="#ffffff" d="
  M 168.59 153.07
  L 173.06 129.00
  A 0.63 0.63 0.0 0 1 173.68 128.48
  L 192.27 128.49
  A 0.63 0.63 0.0 0 1 192.89 129.23
  L 188.77 153.25
  A 0.63 0.63 0.0 0 1 188.15 153.77
  L 169.21 153.82
  A 0.63 0.63 0.0 0 1 168.59 153.07
  Z"
/>
</svg>
