<?xml version="1.0" encoding="UTF-8" standalone="no"?>
<!DOCTYPE svg PUBLIC "-//W3C//DTD SVG 1.1//EN" "http://www.w3.org/Graphics/SVG/1.1/DTD/svg11.dtd">
<svg xmlns="http://www.w3.org/2000/svg" version="1.1" viewBox="0.00 0.00 590.00 255.00">
<g stroke-width="2.00" fill="none" stroke-linecap="butt">
<path stroke="#dddddd" stroke-opacity="0.580" vector-effect="non-scaling-stroke" d="
  M 520.77 150.02
  Q 519.29 150.43 518.25 150.43
  Q 417.79 150.45 317.31 150.43
  C 311.67 150.43 308.27 149.99 305.29 144.85
  Q 303.99 142.61 303.98 136.39
  Q 303.98 123.85 303.99 109.74
  Q 303.99 107.85 306.34 104.22"
/>
<path stroke="#183fdc" stroke-opacity="0.580" vector-effect="non-scaling-stroke" d="
  M 100.45 103.62
  L 92.55 103.66"
/>
<path stroke="#183fdc" stroke-opacity="0.580" vector-effect="non-scaling-stroke" d="
  M 121.26 137.33
  L 125.70 148.01
  A 0.72 0.61 -85.5 0 0 125.86 148.23
  L 126.21 148.53
  A 0.32 0.32 0.0 0 0 126.73 148.29
  L 126.73 117.48
  A 1.74 1.73 -0.2 0 0 124.98 115.75
  L 119.58 115.78
  Q 119.02 115.78 119.18 115.24
  Q 120.95 109.35 124.08 104.13"
/>
<path stroke="#183fdc" stroke-opacity="0.580" vector-effect="non-scaling-stroke" d="
  M 173.51 129.91
  Q 173.53 134.83 173.41 139.68
  Q 173.31 143.64 172.11 145.59
  C 168.33 151.76 161.87 149.84 155.91 149.86
  Q 134.39 149.92 113.47 149.93
  A 1.19 1.18 76.6 0 1 112.39 149.26
  L 109.24 142.87
  Q 108.96 142.32 108.34 142.31
  L 85.42 142.29
  A 0.88 0.87 10.9 0 0 84.61 142.83
  L 82.42 148.31"
/>
<path stroke="#183fdc" stroke-opacity="0.580" vector-effect="non-scaling-stroke" d="
  M 78.85 150.47
  L 68.83 150.49
  A 1.01 1.00 -78.3 0 1 67.91 149.08
  L 81.21 118.36
  A 1.88 1.88 0.0 0 0 79.50 115.73
  L 75.00 115.68
  A 0.90 0.90 0.0 0 1 74.18 114.43
  L 78.02 105.23"
/>
<path stroke="#183fdc" stroke-opacity="0.580" vector-effect="non-scaling-stroke" d="
  M 153.69 103.66
  L 146.81 103.67"
/>
<path stroke="#183fdc" stroke-opacity="0.580" vector-effect="non-scaling-stroke" d="
  M 222.16 135.67
  Q 223.95 140.50 226.37 144.93
  Q 226.67 145.47 226.79 147.15
  Q 226.84 147.90 227.46 148.31
  L 227.86 148.57
  Q 228.55 149.03 228.54 148.20
  Q 228.51 132.88 228.55 118.33
  C 228.56 114.91 224.11 115.68 221.89 115.71
  A 1.04 1.04 0.0 0 1 220.98 114.16
  Q 221.91 112.54 222.39 110.75
  C 223.08 108.25 224.38 105.94 225.74 103.72"
/>
<path stroke="#183fdc" stroke-opacity="0.580" vector-effect="non-scaling-stroke" d="
  M 256.32 118.76
  L 259.70 129.18
  Q 260.19 130.70 260.66 129.17
  C 261.57 126.20 262.71 123.06 263.37 119.94
  Q 263.67 118.48 264.37 116.91
  Q 266.88 111.23 268.09 103.79"
/>
<path stroke="#183fdc" stroke-opacity="0.580" vector-effect="non-scaling-stroke" d="
  M 278.19 144.90
  Q 278.83 141.45 278.91 139.75
  Q 279.46 128.45 279.15 117.09
  Q 279.14 116.60 278.71 116.37
  Q 278.52 116.28 278.30 116.28
  Q 277.79 116.30 277.62 116.79
  L 272.29 132.57"
/>
<path stroke="#183fdc" stroke-opacity="0.580" vector-effect="non-scaling-stroke" d="
  M 271.22 136.68
  Q 270.88 137.18 270.79 138.00"
/>
<path stroke="#183fdc" stroke-opacity="0.580" vector-effect="non-scaling-stroke" d="
  M 268.93 143.19
  Q 267.41 145.46 267.19 148.76
  A 1.16 1.16 0.0 0 1 266.03 149.85
  L 254.24 149.82
  A 1.00 0.99 -11.8 0 1 253.33 149.23
  C 251.45 145.00 251.07 140.47 249.31 136.26
  Q 247.51 131.99 246.51 127.02
  Q 245.96 124.33 244.78 121.51
  Q 243.77 119.11 242.83 116.48
  Q 242.75 116.26 242.54 116.16
  Q 242.38 116.08 242.16 116.25
  Q 241.84 116.49 241.85 116.88
  C 242.08 126.91 242.38 138.08 241.92 149.36
  Q 241.89 149.91 241.34 149.92
  L 215.07 150.00
  A 0.76 0.75 -12.1 0 1 214.36 149.55
  L 211.38 142.89
  Q 211.12 142.32 210.50 142.32
  L 188.51 142.31
  Q 187.96 142.31 187.72 142.79
  L 186.11 145.96"
/>
<path stroke="#183fdc" stroke-opacity="0.580" vector-effect="non-scaling-stroke" d="
  M 184.98 149.76
  L 171.54 149.78
  Q 170.79 149.78 171.16 149.13
  Q 172.07 147.55 172.90 145.93
  C 173.57 144.61 173.36 143.12 174.11 141.89
  C 176.41 138.14 177.62 134.08 179.32 130.07
  Q 180.09 128.28 179.86 126.48
  Q 179.85 126.36 179.93 126.26
  Q 179.97 126.21 180.04 126.19
  Q 180.64 125.96 180.25 126.47
  Q 179.71 127.17 179.86 128.05
  Q 179.98 128.82 180.36 128.14
  Q 181.36 126.30 181.91 124.35
  C 182.46 122.38 183.43 120.44 184.44 118.65
  A 1.74 1.74 0.0 0 0 183.71 116.24
  Q 181.15 114.96 178.44 115.41
  A 0.46 0.45 -82.1 0 1 177.96 114.77
  L 182.85 103.86"
/>
<path stroke="#dddddd" stroke-opacity="0.580" vector-effect="non-scaling-stroke" d="
  M 312.92 144.44
  Q 312.92 145.10 313.75 145.10
  Q 372.27 145.37 430.80 145.21"
/>
<path stroke="#dddddd" stroke-opacity="0.580" vector-effect="non-scaling-stroke" d="
  M 433.46 145.24
  L 517.03 145.23
  A 5.76 5.76 0.0 0 0 522.79 139.41
  Q 522.68 126.84 522.85 112.20
  C 522.90 107.88 520.41 105.52 516.00 105.53
  C 492.43 105.59 467.81 105.23 443.69 106.13"
/>
<path stroke="#dddddd" stroke-opacity="0.580" vector-effect="non-scaling-stroke" d="
  M 386.80 106.15
  Q 383.41 105.87 380.00 105.84
  Q 347.12 105.58 314.25 105.59
  Q 311.60 105.59 309.51 109.09"
/>
<path stroke="#183fdc" stroke-opacity="0.580" vector-effect="non-scaling-stroke" d="
  M 155.90 137.72
  L 159.17 137.70
  A 1.68 1.68 0.0 0 0 160.83 136.03
  L 160.89 117.28
  A 1.87 1.87 0.0 0 0 159.02 115.40
  Q 150.40 115.38 141.13 115.41
  Q 140.39 115.41 140.14 116.11
  Q 139.88 116.83 140.03 118.20"
/>
<path stroke="#183fdc" stroke-opacity="0.580" vector-effect="non-scaling-stroke" d="
  M 97.08 131.21
  L 102.15 131.12
  A 1.61 1.60 77.7 0 0 103.59 128.87
  C 102.37 126.06 100.57 123.35 99.88 120.42
  Q 99.31 117.94 97.38 115.81
  A 0.50 0.50 0.0 0 0 96.56 115.92
  L 93.46 121.92"
/>
<path stroke="#183fdc" stroke-opacity="0.580" vector-effect="non-scaling-stroke" d="
  M 199.88 131.10
  L 204.21 131.21
  Q 207.05 131.29 205.73 128.77
  C 204.19 125.85 202.95 123.54 201.95 119.98
  Q 201.39 118.00 200.17 116.08
  A 0.64 0.64 0.0 0 0 199.24 115.91
  Q 198.82 116.23 198.56 117.04
  Q 197.90 119.10 197.31 120.86"
/>
<path stroke="#dddddd" stroke-opacity="0.580" vector-effect="non-scaling-stroke" d="
  M 348.28 122.43
  L 343.77 122.40
  Q 343.19 122.40 342.89 121.89
  C 341.79 120.01 340.87 119.09 338.50 119.08
  Q 332.65 119.04 326.88 119.31
  Q 324.81 119.41 324.13 121.91"
/>
<path stroke="#dddddd" stroke-opacity="0.580" vector-effect="non-scaling-stroke" d="
  M 343.27 128.69
  L 349.36 129.12
  Q 349.98 129.17 350.00 129.79
  C 350.17 134.85 346.20 137.81 341.47 137.73
  Q 332.71 137.58 324.56 137.64
  Q 320.56 137.67 318.36 134.69
  Q 317.03 132.88 316.96 128.99
  Q 316.90 124.96 316.87 120.87
  Q 316.85 117.85 320.38 114.27"
/>
<path stroke="#dddddd" stroke-opacity="0.580" vector-effect="non-scaling-stroke" d="
  M 512.33 136.43
  L 507.84 137.99"
/>
<path stroke="#dddddd" stroke-opacity="0.580" vector-effect="non-scaling-stroke" d="
  M 477.66 122.45
  L 472.64 122.38
  Q 472.15 122.38 471.94 121.93
  C 470.37 118.71 468.24 119.20 464.48 119.17
  Q 458.28 119.12 456.26 119.26
  Q 454.18 119.41 453.13 121.55"
/>
<path stroke="#dddddd" stroke-opacity="0.580" vector-effect="non-scaling-stroke" d="
  M 472.59 128.69
  Q 474.62 129.24 476.87 128.95"
/>
<path stroke="#dddddd" stroke-opacity="0.580" vector-effect="non-scaling-stroke" d="
  M 477.98 133.94
  Q 475.54 137.68 472.39 137.67
  Q 464.52 137.67 456.65 137.69
  Q 451.50 137.70 449.53 136.65
  Q 445.85 134.69 445.77 129.50
  Q 445.68 124.31 445.93 119.24"
/>
<path stroke="#dddddd" stroke-opacity="0.580" vector-effect="non-scaling-stroke" d="
  M 396.54 128.17
  L 396.57 131.37
  Q 396.57 131.99 397.18 131.99
  L 413.81 131.99
  A 0.57 0.56 0.5 0 1 414.38 132.56
  L 414.36 137.53
  Q 414.35 138.19 413.69 138.19
  L 388.82 138.19"
/>
<path stroke="#dddddd" stroke-opacity="0.580" vector-effect="non-scaling-stroke" d="
  M 444.46 116.16
  Q 444.67 117.63 444.37 118.82
  Q 444.24 119.33 443.71 119.33
  L 425.20 119.34
  Q 424.50 119.35 424.51 120.05
  L 424.53 122.65
  Q 424.54 123.27 425.15 123.27
  L 442.68 123.35
  Q 443.02 123.35 443.02 123.68
  L 442.99 128.03
  A 0.27 0.26 -0.0 0 1 442.72 128.29
  L 424.95 128.35
  Q 424.51 128.35 424.51 128.80
  L 424.51 132.01
  Q 424.51 132.51 425.01 132.51
  L 443.99 132.50
  Q 444.48 132.50 444.47 132.99
  L 444.37 137.54
  Q 444.36 138.18 443.71 138.19
  L 416.79 138.24
  A 0.28 0.27 -0.0 0 1 416.51 137.97
  L 416.58 113.76"
/>
<path stroke="#dddddd" stroke-opacity="0.580" vector-effect="non-scaling-stroke" d="
  M 385.33 134.75
  Q 382.02 137.68 379.88 137.67
  Q 371.82 137.64 363.76 137.67
  Q 357.89 137.70 355.87 136.73
  Q 351.66 134.71 351.78 128.67"
/>
<path stroke="#dddddd" stroke-opacity="0.580" vector-effect="non-scaling-stroke" d="
  M 373.89 132.20
  C 377.54 132.47 379.61 130.43 379.56 126.85
  C 379.51 123.27 379.80 119.11 374.75 119.12
  Q 368.63 119.14 362.50 119.25
  Q 359.87 119.30 359.14 122.69"
/>
<path stroke="#dddddd" stroke-opacity="0.580" vector-effect="non-scaling-stroke" d="
  M 500.65 132.20
  Q 503.79 132.40 504.75 132.17
  C 508.96 131.13 508.75 126.70 508.39 123.26
  C 508.07 120.31 506.06 119.00 503.33 119.09
  Q 498.00 119.25 492.49 119.20
  C 489.67 119.17 487.87 121.06 488.03 123.99"
/>
</g>
<path fill="#ffffff" d="
  M 520.77 150.02
  Q 519.29 150.43 518.25 150.43
  Q 417.79 150.45 317.31 150.43
  C 311.67 150.43 308.27 149.99 305.29 144.85
  Q 303.99 142.61 303.98 136.39
  Q 303.98 123.85 303.99 109.74
  Q 303.99 107.85 306.34 104.22
  Q 309.71 100.39 313.87 100.39
  Q 454.93 100.17 516.75 100.39
  C 523.29 100.41 527.89 104.81 527.84 111.26
  Q 527.74 125.92 527.79 140.64
  C 527.81 144.86 524.60 148.44 520.77 150.02
  Z
  M 309.51 109.09
  Q 309.07 132.23 309.37 139.74
  Q 309.55 144.26 312.92 144.44
  Q 312.92 145.10 313.75 145.10
  Q 372.27 145.37 430.80 145.21
  L 433.46 145.24
  L 517.03 145.23
  A 5.76 5.76 0.0 0 0 522.79 139.41
  Q 522.68 126.84 522.85 112.20
  C 522.90 107.88 520.41 105.52 516.00 105.53
  C 492.43 105.59 467.81 105.23 443.69 106.13
  L 386.80 106.15
  Q 383.41 105.87 380.00 105.84
  Q 347.12 105.58 314.25 105.59
  Q 311.60 105.59 309.51 109.09
  Z"
/>
<path fill="#060505" fill-opacity="0.157" d="
  M 100.45 103.62
  L 92.55 103.66
  Q 96.45 102.38 100.45 103.62
  Z"
/>
<path fill="#060505" fill-opacity="0.157" d="
  M 153.69 103.66
  L 146.81 103.67
  Q 150.14 102.34 153.69 103.66
  Z"
/>
<path fill="#1b48fe" d="
  M 92.55 103.66
  L 100.45 103.62
  L 106.36 103.81
  A 0.78 0.76 78.5 0 1 107.05 104.28
  L 121.26 137.33
  L 125.70 148.01
  A 0.72 0.61 -85.5 0 0 125.86 148.23
  L 126.21 148.53
  A 0.32 0.32 0.0 0 0 126.73 148.29
  L 126.73 117.48
  A 1.74 1.73 -0.2 0 0 124.98 115.75
  L 119.58 115.78
  Q 119.02 115.78 119.18 115.24
  Q 120.95 109.35 124.08 104.13
  L 146.81 103.67
  L 153.69 103.66
  Q 157.71 103.74 161.90 103.75
  Q 167.10 103.77 168.84 104.83
  C 173.31 107.58 173.54 110.85 173.50 115.65
  Q 173.45 122.83 173.51 129.91
  Q 173.53 134.83 173.41 139.68
  Q 173.31 143.64 172.11 145.59
  C 168.33 151.76 161.87 149.84 155.91 149.86
  Q 134.39 149.92 113.47 149.93
  A 1.19 1.18 76.6 0 1 112.39 149.26
  L 109.24 142.87
  Q 108.96 142.32 108.34 142.31
  L 85.42 142.29
  A 0.88 0.87 10.9 0 0 84.61 142.83
  L 82.42 148.31
  Q 81.37 151.08 78.85 150.47
  L 68.83 150.49
  A 1.01 1.00 -78.3 0 1 67.91 149.08
  L 81.21 118.36
  A 1.88 1.88 0.0 0 0 79.50 115.73
  L 75.00 115.68
  A 0.90 0.90 0.0 0 1 74.18 114.43
  L 78.02 105.23
  L 78.59 104.26
  Q 78.84 103.83 79.33 103.83
  L 92.55 103.66
  Z
  M 140.03 118.20
  L 140.03 137.46
  Q 140.03 137.77 140.34 137.77
  L 155.90 137.72
  L 159.17 137.70
  A 1.68 1.68 0.0 0 0 160.83 136.03
  L 160.89 117.28
  A 1.87 1.87 0.0 0 0 159.02 115.40
  Q 150.40 115.38 141.13 115.41
  Q 140.39 115.41 140.14 116.11
  Q 139.88 116.83 140.03 118.20
  Z
  M 93.46 121.92
  L 90.11 130.18
  A 0.71 0.71 0.0 0 0 90.76 131.16
  L 97.08 131.21
  L 102.15 131.12
  A 1.61 1.60 77.7 0 0 103.59 128.87
  C 102.37 126.06 100.57 123.35 99.88 120.42
  Q 99.31 117.94 97.38 115.81
  A 0.50 0.50 0.0 0 0 96.56 115.92
  L 93.46 121.92
  Z"
/>
<path fill="#1b48fe" d="
  M 222.16 135.67
  Q 223.95 140.50 226.37 144.93
  Q 226.67 145.47 226.79 147.15
  Q 226.84 147.90 227.46 148.31
  L 227.86 148.57
  Q 228.55 149.03 228.54 148.20
  Q 228.51 132.88 228.55 118.33
  C 228.56 114.91 224.11 115.68 221.89 115.71
  A 1.04 1.04 0.0 0 1 220.98 114.16
  Q 221.91 112.54 222.39 110.75
  C 223.08 108.25 224.38 105.94 225.74 103.72
  L 250.70 103.75
  A 1.13 1.13 0.0 0 1 251.76 104.53
  L 256.32 118.76
  L 259.70 129.18
  Q 260.19 130.70 260.66 129.17
  C 261.57 126.20 262.71 123.06 263.37 119.94
  Q 263.67 118.48 264.37 116.91
  Q 266.88 111.23 268.09 103.79
  L 290.94 103.75
  A 0.48 0.48 0.0 0 1 291.42 104.23
  L 291.42 149.31
  A 0.77 0.77 0.0 0 1 290.69 150.08
  L 278.82 150.78
  Q 278.28 150.81 278.28 150.27
  L 278.19 144.90
  Q 278.83 141.45 278.91 139.75
  Q 279.46 128.45 279.15 117.09
  Q 279.14 116.60 278.71 116.37
  Q 278.52 116.28 278.30 116.28
  Q 277.79 116.30 277.62 116.79
  L 272.29 132.57
  L 271.22 136.68
  Q 270.88 137.18 270.79 138.00
  L 268.93 143.19
  Q 267.41 145.46 267.19 148.76
  A 1.16 1.16 0.0 0 1 266.03 149.85
  L 254.24 149.82
  A 1.00 0.99 -11.8 0 1 253.33 149.23
  C 251.45 145.00 251.07 140.47 249.31 136.26
  Q 247.51 131.99 246.51 127.02
  Q 245.96 124.33 244.78 121.51
  Q 243.77 119.11 242.83 116.48
  Q 242.75 116.26 242.54 116.16
  Q 242.38 116.08 242.16 116.25
  Q 241.84 116.49 241.85 116.88
  C 242.08 126.91 242.38 138.08 241.92 149.36
  Q 241.89 149.91 241.34 149.92
  L 215.07 150.00
  A 0.76 0.75 -12.1 0 1 214.36 149.55
  L 211.38 142.89
  Q 211.12 142.32 210.50 142.32
  L 188.51 142.31
  Q 187.96 142.31 187.72 142.79
  L 186.11 145.96
  L 184.98 149.76
  L 171.54 149.78
  Q 170.79 149.78 171.16 149.13
  Q 172.07 147.55 172.90 145.93
  C 173.57 144.61 173.36 143.12 174.11 141.89
  C 176.41 138.14 177.62 134.08 179.32 130.07
  Q 180.09 128.28 179.86 126.48
  Q 179.85 126.36 179.93 126.26
  Q 179.97 126.21 180.04 126.19
  Q 180.64 125.96 180.25 126.47
  Q 179.71 127.17 179.86 128.05
  Q 179.98 128.82 180.36 128.14
  Q 181.36 126.30 181.91 124.35
  C 182.46 122.38 183.43 120.44 184.44 118.65
  A 1.74 1.74 0.0 0 0 183.71 116.24
  Q 181.15 114.96 178.44 115.41
  A 0.46 0.45 -82.1 0 1 177.96 114.77
  L 182.85 103.86
  L 208.23 103.74
  A 1.01 1.01 0.0 0 1 209.16 104.36
  L 222.16 135.67
  Z
  M 197.31 120.86
  Q 194.22 125.72 193.11 130.74
  A 0.39 0.39 0.0 0 0 193.49 131.21
  L 199.88 131.10
  L 204.21 131.21
  Q 207.05 131.29 205.73 128.77
  C 204.19 125.85 202.95 123.54 201.95 119.98
  Q 201.39 118.00 200.17 116.08
  A 0.64 0.64 0.0 0 0 199.24 115.91
  Q 198.82 116.23 198.56 117.04
  Q 197.90 119.10 197.31 120.86
  Z"
/>
<path fill="#060505" fill-opacity="0.157" d="
  M 225.74 103.72
  C 224.38 105.94 223.08 108.25 222.39 110.75
  Q 221.91 112.54 220.98 114.16
  A 1.04 1.04 0.0 0 0 221.89 115.71
  C 224.11 115.68 228.56 114.91 228.55 118.33
  Q 228.51 132.88 228.54 148.20
  Q 228.55 149.03 227.86 148.57
  L 227.46 148.31
  Q 226.84 147.90 226.79 147.15
  Q 226.67 145.47 226.37 144.93
  Q 223.95 140.50 222.16 135.67
  Q 223.12 136.07 223.71 136.03
  Q 224.22 135.99 224.27 135.48
  Q 224.83 130.24 224.62 123.96
  Q 224.55 121.98 223.46 120.44
  Q 222.78 119.47 220.62 117.94
  Q 216.69 115.14 219.55 110.19
  Q 219.80 109.74 219.86 109.26
  Q 219.89 109.02 219.89 108.79
  Q 219.89 108.28 220.18 107.87
  Q 222.31 104.94 225.74 103.72
  Z"
/>
<path fill="#060505" fill-opacity="0.157" d="
  M 124.08 104.13
  Q 120.95 109.35 119.18 115.24
  Q 119.02 115.78 119.58 115.78
  L 124.98 115.75
  A 1.74 1.73 -0.2 0 1 126.73 117.48
  L 126.73 148.29
  A 0.32 0.32 0.0 0 1 126.21 148.53
  L 125.86 148.23
  A 0.72 0.61 -85.5 0 1 125.70 148.01
  L 121.26 137.33
  Q 122.50 136.83 122.03 134.90
  Q 121.69 133.48 121.75 132.58
  Q 122.09 127.84 121.88 123.08
  Q 121.86 122.58 121.57 122.17
  L 119.69 119.50
  Q 119.45 119.16 119.07 118.98
  Q 115.27 117.24 116.06 113.17
  Q 116.74 109.70 119.49 106.21
  Q 120.68 104.70 122.33 104.77
  Q 122.79 104.79 123.08 104.43
  Q 123.42 104.01 124.08 104.13
  Z"
/>
<path fill="#060505" fill-opacity="0.157" d="
  M 268.09 103.79
  Q 266.88 111.23 264.37 116.91
  Q 263.67 118.48 263.37 119.94
  C 262.71 123.06 261.57 126.20 260.66 129.17
  Q 260.19 130.70 259.70 129.18
  L 256.32 118.76
  Q 257.17 119.54 257.83 119.62
  Q 258.31 119.67 258.55 119.25
  L 260.50 115.74
  A 0.81 0.76 -32.0 0 0 260.60 115.36
  Q 260.66 113.45 261.65 111.75
  Q 262.41 110.47 262.70 109.11
  Q 263.06 107.45 263.83 105.90
  Q 264.08 105.39 264.61 105.18
  L 268.09 103.79
  Z"
/>
<path fill="#060505" fill-opacity="0.157" d="
  M 182.85 103.86
  L 177.96 114.77
  A 0.46 0.45 -82.1 0 0 178.44 115.41
  Q 181.15 114.96 183.71 116.24
  A 1.74 1.74 0.0 0 1 184.44 118.65
  C 183.43 120.44 182.46 122.38 181.91 124.35
  Q 181.36 126.30 180.36 128.14
  Q 179.98 128.82 179.86 128.05
  Q 179.71 127.17 180.25 126.47
  Q 180.64 125.96 180.04 126.19
  Q 179.97 126.21 179.93 126.26
  Q 179.85 126.36 179.86 126.48
  Q 180.09 128.28 179.32 130.07
  C 177.62 134.08 176.41 138.14 174.11 141.89
  C 173.36 143.12 173.57 144.61 172.90 145.93
  Q 172.07 147.55 171.16 149.13
  Q 170.79 149.78 171.54 149.78
  L 184.98 149.76
  Q 185.13 151.34 182.13 151.61
  Q 181.72 151.64 181.71 152.05
  Q 181.69 152.72 181.03 152.87
  Q 175.79 154.03 170.63 152.70
  Q 167.91 151.99 164.91 152.79
  Q 162.31 153.49 159.45 153.52
  Q 141.23 153.70 126.03 153.20
  Q 121.48 153.05 117.08 153.42
  Q 114.04 153.68 110.18 152.12
  Q 109.60 151.88 109.18 151.42
  L 105.16 146.94
  Q 104.76 146.50 104.18 146.62
  Q 103.76 146.71 103.53 146.40
  Q 103.14 145.87 102.49 145.87
  L 86.89 145.87
  A 2.45 2.40 -57.3 0 0 85.84 146.11
  Q 85.27 146.39 84.64 146.38
  Q 84.15 146.38 83.93 146.81
  Q 83.41 147.83 82.42 148.31
  L 84.61 142.83
  A 0.88 0.87 10.9 0 1 85.42 142.29
  L 108.34 142.31
  Q 108.96 142.32 109.24 142.87
  L 112.39 149.26
  A 1.19 1.18 76.6 0 0 113.47 149.93
  Q 134.39 149.92 155.91 149.86
  C 161.87 149.84 168.33 151.76 172.11 145.59
  Q 173.31 143.64 173.41 139.68
  Q 173.53 134.83 173.51 129.91
  Q 174.19 131.16 174.23 132.81
  Q 174.24 133.56 174.80 133.07
  Q 175.49 132.45 175.92 131.64
  Q 177.83 128.04 179.33 123.69
  Q 180.53 120.21 178.08 117.86
  Q 176.42 116.27 176.62 114.09
  Q 176.65 113.68 177.07 113.68
  Q 177.29 113.68 177.51 113.60
  Q 178.31 113.32 177.46 113.37
  Q 177.00 113.40 176.68 112.90
  A 0.81 0.80 -52.3 0 1 176.60 112.24
  Q 177.62 109.02 180.09 106.65
  Q 180.44 106.31 180.64 105.86
  Q 181.17 104.66 182.85 103.86
  Z"
/>
<path fill="#060505" fill-opacity="0.157" d="
  M 306.34 104.22
  Q 303.99 107.85 303.99 109.74
  Q 303.98 123.85 303.98 136.39
  Q 303.99 142.61 305.29 144.85
  C 308.27 149.99 311.67 150.43 317.31 150.43
  Q 417.79 150.45 518.25 150.43
  Q 519.29 150.43 520.77 150.02
  Q 520.94 150.40 520.89 150.68
  Q 520.78 151.21 520.25 151.13
  Q 518.87 150.92 517.53 151.35
  Q 516.78 151.59 517.47 151.98
  Q 517.61 152.05 517.68 152.21
  Q 517.84 152.54 517.55 152.74
  Q 516.40 153.57 515.00 153.57
  Q 415.25 153.62 315.50 153.58
  Q 312.23 153.58 309.11 152.83
  Q 307.43 152.43 306.21 151.29
  C 305.09 150.24 303.74 149.56 302.96 148.17
  Q 300.13 143.14 300.13 141.01
  Q 300.12 127.28 300.13 113.56
  C 300.13 112.04 300.84 110.87 301.14 109.43
  Q 301.40 108.14 302.39 107.25
  Q 302.72 106.96 302.83 106.52
  Q 303.43 104.06 306.34 104.22
  Z"
/>
<path fill="#060505" fill-opacity="0.157" d="
  M 78.02 105.23
  L 74.18 114.43
  A 0.90 0.90 0.0 0 0 75.00 115.68
  L 79.50 115.73
  A 1.88 1.88 0.0 0 1 81.21 118.36
  L 67.91 149.08
  A 1.01 1.00 -78.3 0 0 68.83 150.49
  L 78.85 150.47
  Q 78.84 150.98 78.48 151.34
  Q 77.93 151.89 78.66 152.06
  Q 78.85 152.10 79.03 152.21
  Q 79.73 152.60 78.96 152.82
  Q 73.66 154.30 68.87 153.42
  Q 67.33 153.13 65.83 151.96
  C 63.76 150.33 64.64 147.17 65.70 145.28
  Q 66.52 143.82 66.93 142.26
  Q 67.03 141.88 67.33 141.63
  Q 67.96 141.10 68.20 140.28
  Q 68.44 139.43 68.82 138.70
  Q 71.48 133.54 73.96 127.97
  Q 74.40 126.98 74.52 125.92
  Q 74.62 124.98 74.91 124.12
  C 75.42 122.62 75.30 120.66 74.05 119.49
  Q 72.68 118.21 71.78 116.48
  Q 71.03 115.02 71.22 113.34
  Q 71.70 109.12 74.52 106.14
  Q 75.73 104.87 78.02 105.23
  Z"
/>
<path fill="#060505" fill-opacity="0.157" d="
  M 386.80 106.15
  Q 386.02 106.30 385.88 106.75
  Q 385.75 107.19 385.29 107.15
  Q 385.13 107.13 384.96 107.17
  Q 384.49 107.29 384.50 107.77
  L 384.51 108.75
  Q 384.52 109.40 383.87 109.42
  Q 380.42 109.49 377.49 109.51
  Q 346.98 109.62 316.04 109.62
  Q 314.08 109.62 311.37 110.30
  A 0.11 0.10 74.4 0 1 311.25 110.23
  Q 310.72 108.50 309.51 109.09
  Q 311.60 105.59 314.25 105.59
  Q 347.12 105.58 380.00 105.84
  Q 383.41 105.87 386.80 106.15
  Z"
/>
<path fill="#060505" fill-opacity="0.157" d="
  M 433.46 145.24
  Q 433.56 144.65 434.00 144.64
  Q 468.87 144.15 513.00 144.37
  Q 514.37 144.37 515.64 144.04
  A 2.87 2.87 0.0 0 0 517.78 141.50
  C 518.21 136.52 517.33 131.73 517.52 126.68
  Q 517.72 121.15 517.87 114.98
  C 517.91 113.57 517.12 112.73 516.82 111.41
  Q 516.70 110.84 516.21 110.53
  Q 514.36 109.33 512.25 109.34
  Q 485.74 109.39 450.00 109.32
  Q 448.32 109.32 448.36 108.11
  A 1.04 1.03 7.7 0 0 447.57 107.08
  L 443.69 106.13
  C 467.81 105.23 492.43 105.59 516.00 105.53
  C 520.41 105.52 522.90 107.88 522.85 112.20
  Q 522.68 126.84 522.79 139.41
  A 5.76 5.76 0.0 0 1 517.03 145.23
  L 433.46 145.24
  Z"
/>
<path fill="#ffffff" d="
  M 348.28 122.43
  L 343.77 122.40
  Q 343.19 122.40 342.89 121.89
  C 341.79 120.01 340.87 119.09 338.50 119.08
  Q 332.65 119.04 326.88 119.31
  Q 324.81 119.41 324.13 121.91
  C 323.69 124.28 323.18 129.15 325.05 131.03
  Q 326.25 132.23 328.01 132.24
  Q 333.60 132.24 339.28 132.23
  Q 341.93 132.22 343.27 128.69
  L 349.36 129.12
  Q 349.98 129.17 350.00 129.79
  C 350.17 134.85 346.20 137.81 341.47 137.73
  Q 332.71 137.58 324.56 137.64
  Q 320.56 137.67 318.36 134.69
  Q 317.03 132.88 316.96 128.99
  Q 316.90 124.96 316.87 120.87
  Q 316.85 117.85 320.38 114.27
  Q 330.14 113.23 340.72 113.54
  Q 345.10 113.66 346.78 114.94
  Q 350.05 117.42 350.02 121.57
  Q 350.01 122.11 349.49 122.21
  L 348.28 122.43
  Z"
/>
<path fill="#ffffff" d="
  M 385.33 134.75
  Q 382.02 137.68 379.88 137.67
  Q 371.82 137.64 363.76 137.67
  Q 357.89 137.70 355.87 136.73
  Q 351.66 134.71 351.78 128.67
  C 351.84 125.21 351.24 119.73 352.98 117.12
  C 354.54 114.76 357.21 113.56 359.97 113.57
  Q 368.59 113.60 378.60 113.57
  C 382.42 113.56 385.94 116.25 386.52 119.99
  Q 387.63 127.11 385.33 134.75
  Z
  M 359.14 122.69
  C 358.62 126.54 358.45 131.83 363.00 132.18
  Q 365.75 132.40 373.89 132.20
  C 377.54 132.47 379.61 130.43 379.56 126.85
  C 379.51 123.27 379.80 119.11 374.75 119.12
  Q 368.63 119.14 362.50 119.25
  Q 359.87 119.30 359.14 122.69
  Z"
/>
<path fill="#ffffff" d="
  M 396.54 128.17
  L 396.57 131.37
  Q 396.57 131.99 397.18 131.99
  L 413.81 131.99
  A 0.57 0.56 0.5 0 1 414.38 132.56
  L 414.36 137.53
  Q 414.35 138.19 413.69 138.19
  L 388.82 138.19
  L 388.80 113.97
  Q 388.80 113.58 389.19 113.58
  L 396.21 113.66
  Q 396.51 113.66 396.51 113.97
  L 396.54 128.17
  Z"
/>
<path fill="#ffffff" d="
  M 444.46 116.16
  Q 444.67 117.63 444.37 118.82
  Q 444.24 119.33 443.71 119.33
  L 425.20 119.34
  Q 424.50 119.35 424.51 120.05
  L 424.53 122.65
  Q 424.54 123.27 425.15 123.27
  L 442.68 123.35
  Q 443.02 123.35 443.02 123.68
  L 442.99 128.03
  A 0.27 0.26 -0.0 0 1 442.72 128.29
  L 424.95 128.35
  Q 424.51 128.35 424.51 128.80
  L 424.51 132.01
  Q 424.51 132.51 425.01 132.51
  L 443.99 132.50
  Q 444.48 132.50 444.47 132.99
  L 444.37 137.54
  Q 444.36 138.18 443.71 138.19
  L 416.79 138.24
  A 0.28 0.27 -0.0 0 1 416.51 137.97
  L 416.58 113.76
  L 443.71 113.64
  Q 444.39 113.63 444.41 114.32
  L 444.46 116.16
  Z"
/>
<path fill="#ffffff" d="
  M 477.66 122.45
  L 472.64 122.38
  Q 472.15 122.38 471.94 121.93
  C 470.37 118.71 468.24 119.20 464.48 119.17
  Q 458.28 119.12 456.26 119.26
  Q 454.18 119.41 453.13 121.55
  Q 452.28 127.81 453.02 129.51
  Q 454.17 132.15 456.95 132.19
  Q 461.57 132.26 467.21 132.26
  C 470.73 132.25 470.58 130.50 472.59 128.69
  Q 474.62 129.24 476.87 128.95
  Q 480.36 128.18 477.98 133.94
  Q 475.54 137.68 472.39 137.67
  Q 464.52 137.67 456.65 137.69
  Q 451.50 137.70 449.53 136.65
  Q 445.85 134.69 445.77 129.50
  Q 445.68 124.31 445.93 119.24
  C 447.21 115.67 449.97 113.54 453.71 113.57
  Q 462.25 113.63 471.01 113.58
  C 475.69 113.55 478.95 116.84 478.92 121.60
  Q 478.92 122.08 478.48 122.30
  Q 478.07 122.49 477.66 122.45
  Z"
/>
<path fill="#ffffff" d="
  M 512.33 136.43
  L 507.84 137.99
  Q 502.20 137.64 488.74 137.69
  C 484.53 137.71 480.54 134.39 480.68 129.94
  Q 480.81 125.91 480.67 121.94
  C 480.48 116.62 484.48 113.47 489.52 113.55
  Q 498.05 113.69 506.56 113.55
  C 509.92 113.50 512.76 114.42 514.50 117.50
  C 516.03 120.22 515.49 125.40 515.47 129.00
  Q 515.45 133.78 512.33 136.43
  Z
  M 488.03 123.99
  C 487.74 128.83 487.79 132.09 493.43 132.22
  Q 497.08 132.30 500.65 132.20
  Q 503.79 132.40 504.75 132.17
  C 508.96 131.13 508.75 126.70 508.39 123.26
  C 508.07 120.31 506.06 119.00 503.33 119.09
  Q 498.00 119.25 492.49 119.20
  C 489.67 119.17 487.87 121.06 488.03 123.99
  Z"
/>
<path fill="#060505" fill-opacity="0.157" d="
  M 416.58 113.76
  L 416.51 137.97
  A 0.28 0.27 0.0 0 0 416.79 138.24
  L 443.71 138.19
  Q 444.36 138.18 444.37 137.54
  L 444.47 132.99
  Q 444.48 132.50 443.99 132.50
  L 425.01 132.51
  Q 424.51 132.51 424.51 132.01
  L 424.51 128.80
  Q 424.51 128.35 424.95 128.35
  L 442.72 128.29
  A 0.27 0.26 0.0 0 0 442.99 128.03
  L 443.02 123.68
  Q 443.02 123.35 442.68 123.35
  L 425.15 123.27
  Q 424.54 123.27 424.53 122.65
  L 424.51 120.05
  Q 424.50 119.35 425.20 119.34
  L 443.71 119.33
  Q 444.24 119.33 444.37 118.82
  Q 444.67 117.63 444.46 116.16
  Q 445.07 116.50 444.75 117.75
  Q 444.41 119.12 445.93 119.24
  Q 445.68 124.31 445.77 129.50
  Q 445.85 134.69 449.53 136.65
  Q 451.50 137.70 456.65 137.69
  Q 464.52 137.67 472.39 137.67
  Q 475.54 137.68 477.98 133.94
  Q 478.51 133.76 478.86 134.09
  A 0.97 0.94 25.7 0 1 479.15 134.88
  Q 478.99 136.23 480.22 136.80
  Q 481.06 137.19 481.69 137.93
  Q 482.06 138.36 482.60 138.51
  Q 486.04 139.44 487.00 139.59
  Q 496.41 141.11 507.84 137.99
  L 512.33 136.43
  Q 510.82 139.24 508.64 140.41
  Q 506.87 141.36 504.30 141.23
  C 499.30 140.99 494.22 141.08 489.21 141.15
  C 487.15 141.17 485.54 140.55 483.58 140.21
  Q 482.50 140.03 481.56 139.37
  Q 479.79 138.16 478.05 137.21
  A 2.41 2.41 0.0 0 0 474.85 138.05
  Q 474.46 138.69 473.69 138.71
  Q 472.98 138.73 472.68 139.38
  Q 472.39 140.02 471.67 140.19
  C 470.26 140.52 468.96 141.08 467.49 141.11
  Q 460.14 141.23 453.32 141.03
  Q 449.71 140.92 445.03 139.19
  Q 443.97 138.80 442.87 138.93
  Q 441.74 139.05 440.67 139.12
  Q 440.23 139.14 439.91 139.45
  Q 439.31 140.03 438.49 139.87
  Q 437.95 139.76 437.56 140.14
  Q 437.21 140.49 437.06 140.95
  Q 436.92 141.37 436.48 141.37
  L 418.77 141.37
  Q 418.35 141.37 418.16 141.01
  L 418.02 140.75
  Q 417.97 140.66 417.87 140.66
  Q 416.34 140.61 414.64 140.02
  Q 414.09 139.83 414.32 139.29
  Q 414.52 138.79 414.01 138.71
  Q 413.20 138.59 412.02 139.01
  Q 411.86 139.06 411.92 139.22
  A 0.30 0.29 70.3 0 1 411.75 139.59
  Q 410.03 140.26 408.10 140.83
  Q 406.37 141.34 404.32 141.35
  Q 398.25 141.39 392.16 141.37
  Q 390.95 141.37 389.92 140.94
  Q 388.78 140.47 387.66 140.14
  Q 387.20 140.00 386.87 139.64
  Q 385.82 138.51 384.27 137.91
  Q 383.94 137.78 383.91 137.43
  Q 383.87 136.96 383.42 137.12
  Q 382.96 137.29 382.67 137.68
  A 1.08 1.07 10.2 0 1 382.09 138.08
  Q 380.21 138.65 378.85 139.90
  A 1.69 1.66 18.8 0 1 377.98 140.32
  Q 375.72 140.73 373.68 140.80
  Q 366.94 141.04 360.47 140.99
  Q 354.89 140.94 351.75 137.96
  Q 351.35 137.58 350.80 137.49
  Q 349.66 137.30 348.91 136.47
  Q 348.57 136.11 348.14 136.34
  L 343.99 138.57
  Q 343.60 138.78 343.58 139.21
  Q 343.56 139.51 343.29 139.63
  C 341.48 140.40 339.56 140.88 337.56 140.89
  C 331.87 140.93 326.32 141.12 320.84 140.29
  Q 319.01 140.01 317.63 139.09
  Q 316.03 138.03 315.25 136.74
  Q 314.19 135.00 312.96 133.17
  Q 312.66 132.73 312.66 132.20
  C 312.62 128.97 312.20 124.66 312.94 121.45
  Q 313.38 119.53 313.62 118.90
  Q 315.07 115.08 320.38 114.27
  Q 316.85 117.85 316.87 120.87
  Q 316.90 124.96 316.96 128.99
  Q 317.03 132.88 318.36 134.69
  Q 320.56 137.67 324.56 137.64
  Q 332.71 137.58 341.47 137.73
  C 346.20 137.81 350.17 134.85 350.00 129.79
  Q 349.98 129.17 349.36 129.12
  L 343.27 128.69
  L 346.82 127.63
  Q 347.38 127.47 347.04 126.99
  Q 345.47 124.77 342.88 125.11
  Q 342.32 125.18 341.79 124.98
  Q 339.51 124.12 337.10 123.23
  Q 334.39 122.23 332.27 122.32
  Q 329.77 122.43 327.06 122.36
  Q 326.62 122.35 326.41 122.73
  Q 326.31 122.92 326.11 122.93
  Q 325.61 122.96 325.26 122.61
  Q 324.83 122.18 324.13 121.91
  Q 324.81 119.41 326.88 119.31
  Q 332.65 119.04 338.50 119.08
  C 340.87 119.09 341.79 120.01 342.89 121.89
  Q 343.19 122.40 343.77 122.40
  L 348.28 122.43
  Q 348.93 123.36 350.27 123.12
  Q 350.73 123.04 350.68 123.50
  Q 350.37 126.13 351.78 128.67
  Q 351.66 134.71 355.87 136.73
  Q 357.89 137.70 363.76 137.67
  Q 371.82 137.64 379.88 137.67
  Q 382.02 137.68 385.33 134.75
  L 385.64 134.95
  Q 386.05 135.22 386.23 135.67
  Q 386.48 136.34 387.08 136.53
  Q 387.55 136.67 387.90 137.09
  Q 388.06 137.29 387.93 137.51
  Q 387.59 138.11 388.28 138.16
  L 388.82 138.19
  L 413.69 138.19
  Q 414.35 138.19 414.36 137.53
  L 414.38 132.56
  A 0.57 0.56 0.5 0 0 413.81 131.99
  L 397.18 131.99
  Q 396.57 131.99 396.57 131.37
  L 396.54 128.17
  Q 397.22 128.99 397.04 130.60
  A 0.92 0.92 0.0 0 0 397.96 131.62
  Q 404.14 131.64 410.86 131.62
  Q 412.17 131.62 412.16 129.99
  Q 412.16 129.48 412.38 129.01
  Q 413.20 127.29 413.82 125.54
  Q 414.24 124.35 414.34 121.85
  Q 414.49 118.25 416.58 113.76
  Z"
/>
<path fill="#060505" fill-opacity="0.157" d="
  M 155.90 137.72
  Q 156.87 132.29 156.72 126.65
  Q 156.60 122.37 156.48 121.84
  Q 155.80 118.71 152.01 118.65
  Q 142.43 118.50 140.03 118.20
  Q 139.88 116.83 140.14 116.11
  Q 140.39 115.41 141.13 115.41
  Q 150.40 115.38 159.02 115.40
  A 1.87 1.87 0.0 0 1 160.89 117.28
  L 160.83 136.03
  A 1.68 1.68 0.0 0 1 159.17 137.70
  L 155.90 137.72
  Z"
/>
<path fill="#060505" fill-opacity="0.157" d="
  M 97.08 131.21
  Q 100.91 125.65 93.46 121.92
  L 96.56 115.92
  A 0.50 0.50 0.0 0 1 97.38 115.81
  Q 99.31 117.94 99.88 120.42
  C 100.57 123.35 102.37 126.06 103.59 128.87
  A 1.61 1.60 77.7 0 1 102.15 131.12
  L 97.08 131.21
  Z"
/>
<path fill="#060505" fill-opacity="0.157" d="
  M 199.88 131.10
  Q 203.32 130.37 200.76 124.25
  Q 199.77 121.86 197.31 120.86
  Q 197.90 119.10 198.56 117.04
  Q 198.82 116.23 199.24 115.91
  A 0.64 0.64 0.0 0 1 200.17 116.08
  Q 201.39 118.00 201.95 119.98
  C 202.95 123.54 204.19 125.85 205.73 128.77
  Q 207.05 131.29 204.21 131.21
  L 199.88 131.10
  Z"
/>
<path fill="#060505" fill-opacity="0.157" d="
  M 268.93 143.19
  L 269.20 143.98
  Q 269.29 144.25 269.57 144.26
  Q 269.74 144.27 269.88 144.19
  Q 270.26 143.94 270.02 144.32
  Q 269.74 144.75 269.40 145.16
  Q 269.17 145.43 269.15 145.79
  Q 269.10 147.47 268.47 149.45
  Q 267.87 151.31 266.05 151.37
  Q 265.62 151.38 265.79 151.78
  Q 266.17 152.70 265.29 153.19
  Q 263.75 154.06 262.17 153.83
  Q 259.61 153.46 257.22 153.74
  Q 253.95 154.12 250.57 153.44
  Q 248.09 152.94 247.15 150.69
  Q 246.03 148.05 245.24 145.37
  Q 244.89 144.20 243.89 143.46
  Q 243.38 143.08 243.38 143.71
  L 243.38 148.67
  A 2.26 2.26 0.0 0 1 241.59 150.88
  L 239.96 151.22
  Q 239.40 151.34 239.35 151.90
  Q 239.26 153.06 238.00 153.21
  Q 235.78 153.48 233.41 153.63
  Q 231.34 153.76 229.18 153.56
  Q 226.78 153.33 224.09 153.48
  Q 219.46 153.73 213.22 152.38
  Q 212.58 152.24 212.16 151.73
  Q 210.20 149.36 208.21 147.41
  Q 207.35 146.56 206.24 145.94
  Q 205.14 145.33 203.93 145.34
  Q 197.23 145.41 190.63 145.36
  C 189.68 145.35 188.97 145.83 188.06 145.48
  Q 187.56 145.30 187.17 145.66
  Q 186.62 146.17 186.11 145.96
  L 187.72 142.79
  Q 187.96 142.31 188.51 142.31
  L 210.50 142.32
  Q 211.12 142.32 211.38 142.89
  L 214.36 149.55
  A 0.76 0.75 -12.1 0 0 215.07 150.00
  L 241.34 149.92
  Q 241.89 149.91 241.92 149.36
  C 242.38 138.08 242.08 126.91 241.85 116.88
  Q 241.84 116.49 242.16 116.25
  Q 242.38 116.08 242.54 116.16
  Q 242.75 116.26 242.83 116.48
  Q 243.77 119.11 244.78 121.51
  Q 245.96 124.33 246.51 127.02
  Q 247.51 131.99 249.31 136.26
  C 251.07 140.47 251.45 145.00 253.33 149.23
  A 1.00 0.99 -11.8 0 0 254.24 149.82
  L 266.03 149.85
  A 1.16 1.16 0.0 0 0 267.19 148.76
  Q 267.41 145.46 268.93 143.19
  Z"
/>
<path fill="#060505" fill-opacity="0.157" d="
  M 278.19 144.90
  Q 276.10 141.52 275.72 137.49
  Q 275.67 136.97 275.29 136.60
  Q 274.90 136.22 274.82 135.67
  A 0.48 0.48 0.0 0 0 274.01 135.39
  Q 273.10 136.28 272.69 137.41
  Q 272.54 137.81 272.12 137.86
  L 270.79 138.00
  Q 270.88 137.18 271.22 136.68
  Q 271.43 136.89 271.62 136.85
  Q 271.83 136.81 271.91 136.61
  Q 272.43 135.26 272.42 133.88
  A 1.18 1.18 0.0 0 1 274.39 132.99
  Q 274.66 133.24 275.01 133.32
  Q 275.50 133.44 275.56 133.94
  Q 275.99 137.70 277.42 141.60
  Q 277.57 141.99 277.43 142.39
  Q 277.36 142.59 277.42 142.79
  Q 277.69 143.78 277.63 142.75
  C 277.54 141.12 277.51 139.37 276.96 137.84
  Q 276.21 135.76 275.62 133.61
  A 0.98 0.98 0.0 0 0 274.88 132.90
  Q 274.27 132.75 274.09 132.16
  Q 273.86 131.42 273.32 131.98
  Q 272.83 132.49 272.29 132.57
  L 277.62 116.79
  Q 277.79 116.30 278.30 116.28
  Q 278.52 116.28 278.71 116.37
  Q 279.14 116.60 279.15 117.09
  Q 279.46 128.45 278.91 139.75
  Q 278.83 141.45 278.19 144.90
  Z"
/>
<path fill="#060505" fill-opacity="0.157" d="
  M 373.89 132.20
  Q 375.75 128.52 374.93 125.60
  Q 374.40 123.73 372.77 123.01
  Q 371.12 122.27 369.25 122.20
  Q 365.83 122.08 362.00 122.10
  Q 361.04 122.10 360.85 121.20
  A 0.14 0.13 64.4 0 0 360.64 121.12
  Q 359.90 121.65 360.11 122.60
  Q 360.20 123.04 359.75 122.97
  Q 359.51 122.93 359.14 122.69
  Q 359.87 119.30 362.50 119.25
  Q 368.63 119.14 374.75 119.12
  C 379.80 119.11 379.51 123.27 379.56 126.85
  C 379.61 130.43 377.54 132.47 373.89 132.20
  Z"
/>
<path fill="#060505" fill-opacity="0.157" d="
  M 477.66 122.45
  Q 477.94 125.14 478.37 127.62
  Q 478.60 128.90 476.87 128.95
  Q 474.62 129.24 472.59 128.69
  L 474.96 127.66
  Q 475.47 127.44 475.11 127.02
  Q 473.84 125.48 471.81 125.30
  Q 470.06 125.14 468.59 124.33
  Q 467.25 123.60 465.83 123.03
  Q 464.64 122.55 463.44 122.45
  Q 458.91 122.07 454.52 122.71
  Q 454.27 122.74 454.16 122.51
  Q 454.09 122.36 454.13 122.22
  Q 454.31 121.67 453.64 121.62
  Q 453.41 121.60 453.13 121.55
  Q 454.18 119.41 456.26 119.26
  Q 458.28 119.12 464.48 119.17
  C 468.24 119.20 470.37 118.71 471.94 121.93
  Q 472.15 122.38 472.64 122.38
  L 477.66 122.45
  Z"
/>
<path fill="#060505" fill-opacity="0.157" d="
  M 500.65 132.20
  Q 501.62 130.98 502.59 129.90
  C 503.44 128.96 503.51 127.95 503.62 126.78
  Q 503.66 126.27 503.41 125.84
  Q 501.92 123.34 499.27 122.96
  Q 493.52 122.14 488.03 123.99
  C 487.87 121.06 489.67 119.17 492.49 119.20
  Q 498.00 119.25 503.33 119.09
  C 506.06 119.00 508.07 120.31 508.39 123.26
  C 508.75 126.70 508.96 131.13 504.75 132.17
  Q 503.79 132.40 500.65 132.20
  Z"
/>
<path fill="#060505" fill-opacity="0.157" d="
  M 430.80 145.21
  Q 372.27 145.37 313.75 145.10
  Q 312.92 145.10 312.92 144.44
  Q 371.53 144.33 430.00 144.45
  Q 430.93 144.45 430.80 145.21
  Z"
/>
</svg>
