<?xml version="1.0" encoding="UTF-8" standalone="no"?>
<!DOCTYPE svg PUBLIC "-//W3C//DTD SVG 1.1//EN" "http://www.w3.org/Graphics/SVG/1.1/DTD/svg11.dtd">
<svg xmlns="http://www.w3.org/2000/svg" version="1.1" viewBox="0.00 0.00 590.00 255.00">
<g stroke-width="2.00" fill="none" stroke-linecap="butt">
<path stroke="#808080" vector-effect="non-scaling-stroke" d="
  M 271.83 56.20
  A 0.76 0.76 0.0 0 1 272.59 55.42
  L 278.24 55.38
  A 0.76 0.76 0.0 0 0 278.99 54.62
  L 279.01 51.08
  A 0.76 0.76 0.0 0 0 278.24 50.32
  L 272.51 50.36
  A 0.76 0.76 0.0 0 1 271.75 49.61
  L 271.73 40.85
  A 0.76 0.76 0.0 0 1 272.48 40.09
  L 277.96 39.99
  A 0.76 0.76 0.0 0 0 278.70 39.23
  L 278.67 35.68
  A 0.76 0.76 0.0 0 0 277.90 34.93
  L 266.99 35.06
  A 0.76 0.76 0.0 0 0 266.24 35.83
  L 266.53 74.03
  A 0.76 0.76 0.0 0 0 267.30 74.79
  L 278.28 74.74
  A 0.76 0.76 0.0 0 0 279.04 74.00
  L 279.12 70.25
  A 0.76 0.76 0.0 0 0 278.34 69.47
  L 272.83 69.64
  A 0.76 0.76 0.0 0 1 272.05 68.89
  L 271.83 56.20"
/>
<path stroke="#808080" vector-effect="non-scaling-stroke" d="
  M 309.86 43.92
  L 314.67 74.08
  A 0.69 0.69 0.0 0 0 315.34 74.66
  L 322.21 74.73
  Q 322.73 74.73 322.74 74.22
  Q 323.05 57.31 322.31 44.25
  Q 322.00 38.71 322.22 35.63
  Q 322.29 34.57 321.24 34.56
  L 319.17 34.54
  Q 318.07 34.53 318.09 35.63
  Q 318.31 51.18 318.23 66.20
  Q 318.23 67.01 318.10 66.21
  L 313.07 34.99
  A 0.44 0.43 84.7 0 0 312.63 34.62
  L 305.44 34.74
  Q 305.12 34.75 305.13 35.06
  L 305.32 73.54
  A 1.21 1.21 0.0 0 0 306.54 74.74
  L 308.51 74.72
  Q 309.81 74.71 309.80 73.41
  Q 309.63 58.65 309.19 43.79
  Q 309.19 43.73 309.25 43.72
  L 309.56 43.69
  Q 309.82 43.67 309.86 43.92"
/>
<path stroke="#808080" vector-effect="non-scaling-stroke" d="
  M 359.73 39.81
  L 363.28 39.76
  Q 364.15 39.74 364.13 38.87
  L 364.03 35.32
  Q 364.01 34.38 363.07 34.39
  L 349.45 34.52
  Q 348.42 34.53 348.46 35.56
  L 348.56 38.68
  Q 348.60 39.76 349.68 39.77
  L 352.99 39.81
  Q 353.56 39.81 353.55 40.39
  C 353.49 43.88 353.98 47.31 354.02 50.85
  Q 354.14 62.59 354.25 73.87
  Q 354.26 74.69 355.07 74.68
  L 358.86 74.63
  A 0.97 0.97 0.0 0 0 359.82 73.64
  L 359.05 40.52
  Q 359.04 39.82 359.73 39.81"
/>
<path stroke="#808080" vector-effect="non-scaling-stroke" d="
  M 396.19 63.70
  A 0.81 0.81 0.0 0 1 397.00 64.42
  L 398.04 74.02
  A 0.81 0.81 0.0 0 0 398.86 74.74
  L 402.72 74.69
  A 0.81 0.81 0.0 0 0 403.51 73.78
  L 398.37 35.01
  A 0.81 0.81 0.0 0 0 397.57 34.30
  L 391.05 34.34
  A 0.81 0.81 0.0 0 0 390.25 35.07
  L 386.61 73.90
  A 0.81 0.81 0.0 0 0 387.45 74.79
  L 390.74 74.63
  A 0.81 0.81 0.0 0 0 391.51 73.89
  L 392.31 64.44
  A 0.81 0.81 0.0 0 1 393.11 63.70
  L 396.19 63.70"
/>
<path stroke="#808080" vector-effect="non-scaling-stroke" d="
  M 442.76 70.01
  A 0.63 0.63 0.0 0 0 442.13 69.38
  L 435.49 69.35
  A 0.63 0.63 0.0 0 1 434.87 68.73
  L 434.69 34.82
  A 0.63 0.63 0.0 0 0 434.05 34.19
  L 429.82 34.26
  A 0.63 0.63 0.0 0 0 429.20 34.90
  L 429.54 74.04
  A 0.63 0.63 0.0 0 0 430.18 74.66
  L 442.13 74.47
  A 0.63 0.63 0.0 0 0 442.75 73.84
  L 442.76 70.01"
/>
<path stroke="#808080" vector-effect="non-scaling-stroke" d="
  M 235.81 53.50
  C 237.63 52.68 239.07 51.94 239.37 49.74
  Q 239.87 46.08 239.45 41.00
  C 238.86 33.77 230.22 35.17 225.46 35.51
  Q 225.14 35.53 225.14 35.84
  L 225.18 73.99
  Q 225.18 75.30 226.49 75.26
  L 229.49 75.16
  Q 230.56 75.13 230.55 74.06
  L 230.50 57.78
  Q 230.49 55.97 232.17 56.63
  Q 232.44 56.74 232.65 56.82
  Q 234.27 57.46 234.22 59.19
  Q 234.08 65.59 234.72 73.22
  Q 234.88 75.12 236.78 75.10
  L 239.01 75.08
  Q 240.77 75.06 240.49 73.32
  Q 239.49 67.21 239.72 60.20
  C 239.81 57.36 238.73 55.15 235.86 54.27
  Q 234.81 53.95 235.81 53.50"
/>
<path stroke="#808080" vector-effect="non-scaling-stroke" d="
  M 396.27 57.55
  Q 395.01 49.19 394.82 44.28
  Q 394.81 44.10 394.72 43.94
  Q 394.63 43.79 394.50 43.72
  Q 394.24 43.59 394.21 43.88
  L 392.82 57.51
  A 0.73 0.72 -85.9 0 0 393.51 58.31
  L 395.50 58.41
  Q 396.41 58.45 396.27 57.55"
/>
<path stroke="#808080" vector-effect="non-scaling-stroke" d="
  M 150.87 62.00
  Q 150.86 60.62 152.24 60.74
  C 156.80 61.14 159.88 58.88 159.93 54.08
  C 159.97 49.68 160.43 44.92 159.47 40.76
  C 158.32 35.81 150.61 36.11 146.52 36.59
  Q 145.93 36.66 145.93 37.25
  L 146.07 74.80
  Q 146.08 76.02 147.30 75.97
  L 149.99 75.86
  A 1.08 1.08 0.0 0 0 151.03 74.76
  L 150.87 62.00"
/>
<path stroke="#808080" vector-effect="non-scaling-stroke" d="
  M 192.67 64.79
  A 0.89 0.89 0.0 0 1 193.54 65.58
  L 194.52 74.75
  A 0.89 0.89 0.0 0 0 195.44 75.55
  L 198.72 75.43
  A 0.89 0.89 0.0 0 0 199.57 74.44
  L 195.30 36.54
  A 0.89 0.89 0.0 0 0 194.39 35.75
  L 188.29 35.94
  A 0.89 0.89 0.0 0 0 187.44 36.73
  L 183.27 74.67
  A 0.89 0.89 0.0 0 0 184.17 75.66
  L 187.10 75.60
  A 0.89 0.89 0.0 0 0 187.97 74.81
  L 188.95 65.54
  A 0.89 0.89 0.0 0 1 189.85 64.74
  L 192.67 64.79"
/>
<path stroke="#808080" vector-effect="non-scaling-stroke" d="
  M 230.46 40.56
  L 230.46 51.12
  A 0.74 0.74 0.0 0 0 231.20 51.86
  L 231.34 51.86
  A 2.88 2.64 -0.0 0 0 234.22 49.22
  L 234.22 42.46
  A 2.88 2.64 0.0 0 0 231.34 39.82
  L 231.20 39.82
  A 0.74 0.74 0.0 0 0 230.46 40.56"
/>
<path stroke="#808080" vector-effect="non-scaling-stroke" d="
  M 192.64 58.12
  Q 192.43 50.76 191.27 43.85
  Q 191.26 43.79 191.20 43.79
  Q 191.15 43.79 191.10 43.79
  Q 190.94 43.79 190.93 43.96
  Q 190.58 51.56 189.43 58.87
  Q 189.32 59.57 190.02 59.55
  L 192.50 59.51
  Q 193.03 59.50 193.01 58.97
  Q 193.01 58.72 192.82 58.54
  A 0.67 0.64 23.1 0 1 192.64 58.12"
/>
<path stroke="#808080" vector-effect="non-scaling-stroke" d="
  M 150.88 55.05
  A 1.37 1.37 0.0 0 0 152.74 56.32
  L 153.88 55.88
  A 1.37 1.37 0.0 0 0 154.76 54.60
  L 154.73 42.80
  A 1.37 1.37 0.0 0 0 153.77 41.50
  L 152.59 41.13
  A 1.37 1.37 0.0 0 0 150.81 42.44
  L 150.88 55.05"
/>
<path stroke="#808080" vector-effect="non-scaling-stroke" d="
  M 150.99 195.52
  L 153.45 195.65
  A 1.24 1.24 0.0 0 0 154.75 194.33
  L 154.72 193.80
  Q 154.63 192.48 153.30 192.47
  L 148.03 192.42
  A 0.79 0.79 0.0 0 0 147.23 193.22
  L 147.33 215.67
  A 1.33 1.33 0.0 0 0 148.67 216.99
  L 153.77 216.96
  Q 155.00 216.95 154.94 215.73
  L 154.89 214.85
  A 1.17 1.17 0.0 0 0 153.73 213.74
  L 151.24 213.74
  Q 150.49 213.73 150.49 212.99
  L 150.50 205.96
  Q 150.51 205.00 151.44 205.22
  Q 152.79 205.53 154.13 205.03
  Q 154.80 204.78 154.87 204.07
  Q 154.96 203.21 154.56 202.49
  Q 154.31 202.04 153.80 202.06
  L 151.19 202.14
  Q 150.46 202.17 150.46 201.44
  L 150.48 196.01
  Q 150.48 195.49 150.99 195.52"
/>
<path stroke="#808080" vector-effect="non-scaling-stroke" d="
  M 171.79 200.69
  L 170.40 193.74
  Q 170.16 192.54 168.95 192.37
  Q 168.67 192.33 168.39 192.32
  Q 166.82 192.25 167.15 193.78
  C 168.19 198.62 170.44 203.27 169.06 208.29
  Q 167.99 212.17 167.37 216.00
  Q 167.16 217.31 168.49 217.24
  L 169.04 217.22
  A 1.72 1.72 0.0 0 0 170.65 215.79
  L 171.80 209.01
  Q 172.12 207.10 172.49 209.00
  L 173.82 215.87
  Q 174.11 217.36 175.62 217.26
  L 176.09 217.23
  Q 177.36 217.15 177.06 215.90
  L 174.71 206.06
  A 6.54 6.49 44.8 0 1 174.69 203.08
  L 176.84 193.67
  Q 177.14 192.33 175.78 192.42
  Q 175.48 192.44 175.20 192.46
  A 1.91 1.90 1.5 0 0 173.47 194.09
  Q 173.00 197.55 172.21 200.70
  Q 171.98 201.63 171.79 200.69"
/>
<path stroke="#808080" vector-effect="non-scaling-stroke" d="
  M 193.63 208.29
  C 196.38 208.38 198.56 206.97 198.62 204.06
  Q 198.71 200.16 198.44 196.88
  Q 198.20 193.99 195.41 193.21
  Q 193.53 192.68 191.38 192.62
  Q 189.45 192.56 189.47 194.48
  L 189.64 216.11
  Q 189.66 217.78 191.33 217.76
  L 191.76 217.76
  Q 193.03 217.75 193.01 216.48
  L 192.91 209.00
  A 0.70 0.70 0.0 0 1 193.63 208.29"
/>
<path stroke="#808080" vector-effect="non-scaling-stroke" d="
  M 254.33 215.20
  A 0.66 0.66 0.0 0 1 253.51 214.57
  L 253.36 196.37
  A 0.43 0.42 -84.5 0 1 253.86 195.95
  L 254.14 196.00
  Q 254.88 196.15 254.92 196.91
  L 255.16 201.47
  Q 255.20 202.25 255.97 202.14
  L 257.77 201.90
  A 1.04 1.03 84.6 0 0 258.66 200.82
  Q 258.58 199.27 258.60 197.71
  C 258.69 190.96 249.54 191.17 249.52 196.74
  Q 249.48 204.86 249.57 213.66
  C 249.63 219.90 258.63 220.08 258.70 214.52
  Q 258.73 211.95 258.62 209.60
  A 0.91 0.91 0.0 0 0 257.71 208.73
  L 255.84 208.72
  Q 255.14 208.71 255.13 209.41
  L 255.04 214.54
  Q 255.04 215.01 254.58 215.13
  L 254.33 215.20"
/>
<path stroke="#808080" vector-effect="non-scaling-stroke" d="
  M 216.19 214.49
  A 0.66 0.66 0.0 0 1 215.53 213.85
  L 215.15 193.60
  A 0.66 0.66 0.0 0 0 214.46 192.95
  L 212.78 193.02
  A 0.66 0.66 0.0 0 0 212.15 193.69
  L 212.28 217.13
  A 0.66 0.66 0.0 0 0 212.94 217.78
  L 219.38 217.74
  A 0.66 0.66 0.0 0 0 220.04 217.04
  L 219.92 215.09
  A 0.66 0.66 0.0 0 0 219.25 214.47
  L 216.19 214.49"
/>
<path stroke="#808080" vector-effect="non-scaling-stroke" d="
  M 235.6719 194.2566
  A 1.21 1.21 0.0 0 0 234.4513 193.0572
  L 233.7114 193.0637
  A 1.21 1.21 0.0 0 0 232.5120 194.2842
  L 232.7081 216.7634
  A 1.21 1.21 0.0 0 0 233.9287 217.9628
  L 234.6686 217.9563
  A 1.21 1.21 0.0 0 0 235.8680 216.7358
  L 235.6719 194.2566"
/>
<path stroke="#808080" vector-effect="non-scaling-stroke" d="
  M 275.6203 194.3392
  A 1.25 1.25 0.0 0 0 274.3616 193.0980
  L 273.7016 193.1026
  A 1.25 1.25 0.0 0 0 272.4604 194.3613
  L 272.6197 217.1808
  A 1.25 1.25 0.0 0 0 273.8784 218.4220
  L 274.5384 218.4174
  A 1.25 1.25 0.0 0 0 275.7796 217.1587
  L 275.6203 194.3392"
/>
<path stroke="#808080" vector-effect="non-scaling-stroke" d="
  M 296.27 196.67
  L 297.76 196.68
  Q 298.70 196.69 298.71 195.74
  L 298.74 194.36
  Q 298.76 193.21 297.61 193.22
  L 289.97 193.26
  A 0.88 0.88 0.0 0 0 289.12 193.92
  Q 288.89 194.82 289.21 195.85
  Q 289.40 196.49 290.05 196.58
  L 291.59 196.81
  A 0.79 0.79 0.0 0 1 292.26 197.59
  L 292.27 217.20
  Q 292.27 218.38 293.45 218.38
  L 294.43 218.38
  Q 295.74 218.38 295.72 217.07
  L 295.48 197.48
  Q 295.47 196.67 296.27 196.67"
/>
<path stroke="#808080" vector-effect="non-scaling-stroke" d="
  M 195.1234 197.1074
  A 1.16 1.16 0.0 0 0 193.9413 195.9699
  L 193.8413 195.9718
  A 1.16 1.16 0.0 0 0 192.7038 197.1539
  L 192.8366 204.0726
  A 1.16 1.16 0.0 0 0 194.0187 205.2101
  L 194.1187 205.2082
  A 1.16 1.16 0.0 0 0 195.2562 204.0261
  L 195.1234 197.1074"
/>
<path stroke="#808080" vector-effect="non-scaling-stroke" d="
  M 337.93 212.32
  C 336.79 209.05 335.92 201.54 338.82 198.44
  Q 339.18 198.05 339.70 198.01
  Q 342.08 197.80 342.74 200.53
  A 0.80 0.80 0.0 0 0 343.91 201.04
  L 344.37 200.78
  Q 345.63 200.08 345.30 198.67
  Q 344.41 194.94 341.94 194.03
  C 333.47 190.94 334.37 206.19 334.54 210.04
  C 334.73 214.48 337.57 221.29 343.28 217.33
  Q 345.66 215.69 345.70 213.18
  Q 345.77 209.75 345.71 206.21
  Q 345.69 205.24 344.73 205.24
  L 341.79 205.21
  A 1.09 1.08 -82.1 0 0 340.73 206.02
  Q 339.94 208.92 342.66 209.30
  Q 343.07 209.36 343.18 209.76
  Q 343.87 212.36 342.07 213.67
  C 340.51 214.81 338.53 214.06 337.93 212.32"
/>
<path stroke="#808080" vector-effect="non-scaling-stroke" d="
  M 358.67 211.75
  L 361.24 211.74
  Q 361.97 211.74 362.09 212.47
  L 362.78 216.97
  A 1.55 1.54 -5.9 0 0 364.40 218.28
  Q 364.56 218.27 364.72 218.25
  A 0.82 0.82 0.0 0 0 365.42 217.30
  L 361.65 195.02
  A 1.61 1.61 0.0 0 0 360.42 193.72
  Q 358.45 193.27 358.11 195.35
  Q 356.27 206.85 354.38 217.08
  A 1.00 0.99 5.3 0 0 355.36 218.25
  L 355.77 218.25
  Q 356.81 218.25 356.98 217.23
  L 357.71 212.57
  Q 357.84 211.75 358.67 211.75"
/>
<path stroke="#808080" vector-effect="non-scaling-stroke" d="
  M 377.01 204.37
  Q 378.03 210.78 378.92 217.12
  Q 379.12 218.51 380.48 218.09
  A 1.14 1.14 0.0 0 0 381.28 217.19
  Q 382.39 210.49 383.11 203.79
  Q 383.13 203.63 383.29 203.63
  L 383.30 203.63
  Q 383.54 203.64 383.55 203.89
  Q 383.81 210.54 383.73 216.84
  Q 383.72 217.83 384.62 218.24
  Q 384.74 218.29 384.87 218.28
  Q 386.04 218.19 386.03 217.01
  L 386.01 195.21
  Q 386.01 193.90 384.71 193.79
  L 384.42 193.77
  Q 382.71 193.62 382.45 195.32
  L 380.31 209.24
  Q 380.15 210.28 379.99 209.24
  L 377.81 194.78
  A 1.11 1.10 -84.0 0 0 377.12 193.92
  Q 376.04 193.49 374.93 193.83
  Q 374.25 194.04 374.25 194.74
  L 374.26 217.21
  Q 374.26 218.31 375.35 218.26
  Q 375.57 218.25 375.79 218.25
  Q 376.69 218.25 376.68 217.35
  Q 376.57 210.63 376.82 204.38
  Q 376.85 203.41 377.01 204.37"
/>
<path stroke="#808080" vector-effect="non-scaling-stroke" d="
  M 398.72 203.70
  A 0.92 0.92 0.0 0 1 397.81 202.76
  L 397.93 198.78
  A 0.92 0.92 0.0 0 1 398.87 197.89
  L 403.85 197.99
  A 0.92 0.92 0.0 0 0 404.78 196.99
  L 404.58 194.61
  A 0.92 0.92 0.0 0 0 403.65 193.77
  L 396.25 193.88
  A 0.92 0.92 0.0 0 0 395.34 194.80
  L 395.30 217.35
  A 0.92 0.92 0.0 0 0 396.22 218.27
  L 404.00 218.26
  A 0.92 0.92 0.0 0 0 404.92 217.34
  L 404.92 214.87
  A 0.92 0.92 0.0 0 0 403.96 213.95
  L 398.81 214.19
  A 0.92 0.92 0.0 0 1 397.85 213.24
  L 398.00 208.68
  A 0.92 0.92 0.0 0 1 398.91 207.79
  L 403.26 207.75
  A 0.92 0.92 0.0 0 0 404.17 206.79
  L 404.09 204.61
  A 0.92 0.92 0.0 0 0 403.17 203.73
  L 398.72 203.70"
/>
<path stroke="#808080" vector-effect="non-scaling-stroke" d="
  M 416.44 198.36
  C 416.89 197.08 418.44 197.16 419.33 197.77
  Q 419.78 198.07 419.96 198.58
  L 420.48 200.00
  Q 420.69 200.57 421.24 200.31
  L 422.29 199.83
  Q 422.84 199.57 422.81 198.96
  C 422.64 195.27 420.17 192.45 416.40 194.08
  C 412.55 195.74 413.27 202.43 414.72 205.30
  C 416.33 208.48 422.08 207.67 420.47 213.01
  A 2.07 2.07 0.0 0 1 417.97 214.42
  Q 416.04 213.92 415.84 212.10
  Q 415.73 211.16 414.78 211.21
  L 414.24 211.24
  Q 413.25 211.30 413.20 212.30
  Q 413.09 214.82 414.84 217.00
  C 416.76 219.40 420.68 218.92 422.06 216.34
  Q 423.80 213.10 422.93 208.20
  C 422.41 205.30 420.21 203.96 417.69 203.01
  A 1.80 1.74 -9.5 0 1 416.95 202.50
  Q 415.54 200.92 416.44 198.36"
/>
<path stroke="#808080" vector-effect="non-scaling-stroke" d="
  M 361.25 207.04
  L 360.16 200.54
  Q 359.94 199.22 359.68 200.53
  Q 359.05 203.84 358.62 207.31
  A 0.64 0.64 0.0 0 0 359.27 208.03
  L 360.46 208.00
  Q 361.41 207.97 361.25 207.04"
/>
</g>
<path fill="#000000" d="
  M 272.99 56.75
  L 273.00 67.25
  Q 273.00 68.01 273.75 68.01
  L 279.75 68.00
  Q 280.00 68.00 280.00 68.25
  L 280.00 75.75
  Q 280.00 75.99 279.75 75.99
  L 265.50 75.99
  Q 265.00 75.99 265.00 75.50
  L 265.00 34.63
  Q 265.00 34.00 265.63 34.00
  L 273.79 34.02
  Q 274.27 34.02 274.66 33.74
  Q 277.27 31.87 279.57 33.98
  Q 280.00 34.38 280.00 34.96
  L 280.00 40.38
  Q 280.00 41.00 279.37 41.00
  L 276.74 40.98
  Q 276.20 40.97 275.97 41.46
  Q 275.63 42.17 274.79 42.02
  Q 274.11 41.90 273.91 41.24
  Q 273.83 41.00 273.60 40.95
  Q 272.98 40.81 272.98 41.44
  L 273.00 48.50
  Q 273.00 49.01 273.50 49.01
  L 279.75 49.00
  Q 280.00 49.00 280.00 49.25
  L 280.00 55.75
  Q 280.00 55.99 279.75 55.99
  L 273.75 55.99
  Q 272.99 55.99 272.99 56.75
  Z
  M 271.83 56.20
  A 0.76 0.76 0.0 0 1 272.59 55.42
  L 278.24 55.38
  A 0.76 0.76 0.0 0 0 278.99 54.62
  L 279.01 51.08
  A 0.76 0.76 0.0 0 0 278.24 50.32
  L 272.51 50.36
  A 0.76 0.76 0.0 0 1 271.75 49.61
  L 271.73 40.85
  A 0.76 0.76 0.0 0 1 272.48 40.09
  L 277.96 39.99
  A 0.76 0.76 0.0 0 0 278.70 39.23
  L 278.67 35.68
  A 0.76 0.76 0.0 0 0 277.90 34.93
  L 266.99 35.06
  A 0.76 0.76 0.0 0 0 266.24 35.83
  L 266.53 74.03
  A 0.76 0.76 0.0 0 0 267.30 74.79
  L 278.28 74.74
  A 0.76 0.76 0.0 0 0 279.04 74.00
  L 279.12 70.25
  A 0.76 0.76 0.0 0 0 278.34 69.47
  L 272.83 69.64
  A 0.76 0.76 0.0 0 1 272.05 68.89
  L 271.83 56.20
  Z"
/>
<path fill="#000000" d="
  M 317.03 45.60
  L 316.99 33.25
  Q 316.99 33.00 317.25 33.00
  L 322.75 33.00
  Q 323.00 33.00 323.00 33.25
  L 323.00 45.26
  Q 323.00 45.83 323.52 46.07
  Q 323.87 46.23 323.98 46.75
  A 0.69 0.61 41.4 0 1 324.00 46.91
  L 324.00 75.37
  Q 324.00 76.00 323.38 76.00
  L 315.25 75.99
  A 2.17 2.16 86.2 0 1 313.11 74.11
  Q 312.86 72.26 313.06 70.16
  Q 313.14 69.42 312.51 69.03
  Q 312.27 68.88 312.14 68.61
  Q 311.98 68.29 311.99 67.92
  Q 312.03 64.78 312.03 61.35
  Q 312.03 61.03 311.71 61.03
  L 311.35 61.03
  Q 310.99 61.03 310.99 61.40
  L 311.00 75.75
  Q 311.00 76.00 310.75 76.00
  L 304.26 75.99
  A 0.25 0.25 0.0 0 1 304.01 75.74
  Q 303.99 56.97 304.05 38.00
  Q 304.05 37.38 303.58 37.07
  Q 303.15 36.79 303.01 36.31
  Q 302.73 35.36 303.58 34.97
  Q 304.04 34.76 304.03 34.26
  L 304.00 33.25
  A 0.25 0.25 0.0 0 1 304.25 33.00
  L 313.71 33.00
  Q 314.14 33.00 314.02 33.41
  Q 313.67 34.55 314.52 35.11
  A 1.06 1.05 17.2 0 1 315.00 36.01
  L 314.99 41.26
  Q 314.99 41.83 315.50 42.06
  Q 315.75 42.17 315.88 42.43
  Q 316.01 42.71 316.01 43.00
  L 316.00 45.41
  Q 315.99 45.80 316.34 45.95
  Q 316.48 46.01 316.62 46.01
  Q 317.03 46.01 317.03 45.60
  Z
  M 309.86 43.92
  L 314.67 74.08
  A 0.69 0.69 0.0 0 0 315.34 74.66
  L 322.21 74.73
  Q 322.73 74.73 322.74 74.22
  Q 323.05 57.31 322.31 44.25
  Q 322.00 38.71 322.22 35.63
  Q 322.29 34.57 321.24 34.56
  L 319.17 34.54
  Q 318.07 34.53 318.09 35.63
  Q 318.31 51.18 318.23 66.20
  Q 318.23 67.01 318.10 66.21
  L 313.07 34.99
  A 0.44 0.43 84.7 0 0 312.63 34.62
  L 305.44 34.74
  Q 305.12 34.75 305.13 35.06
  L 305.32 73.54
  A 1.21 1.21 0.0 0 0 306.54 74.74
  L 308.51 74.72
  Q 309.81 74.71 309.80 73.41
  Q 309.63 58.65 309.19 43.79
  Q 309.19 43.73 309.25 43.72
  L 309.56 43.69
  Q 309.82 43.67 309.86 43.92
  Z"
/>
<path fill="#000000" d="
  M 351.50 40.98
  L 349.00 40.99
  A 2.00 1.99 89.7 0 1 347.00 39.00
  L 347.00 35.13
  A 2.13 2.12 90.0 0 1 349.12 33.00
  L 364.00 33.00
  Q 365.00 33.00 365.00 34.00
  L 365.00 40.13
  Q 365.00 41.00 364.12 41.00
  L 360.50 40.99
  Q 359.99 40.99 359.99 41.50
  L 360.00 50.26
  Q 360.00 50.84 360.53 51.07
  Q 360.92 51.24 360.99 51.87
  A 0.39 0.14 64.3 0 1 361.00 51.96
  L 361.00 75.75
  A 0.25 0.25 0.0 0 1 360.75 76.00
  L 353.25 75.99
  A 0.25 0.24 0.0 0 1 353.00 75.75
  L 353.00 62.60
  Q 353.00 62.22 352.66 62.08
  Q 352.48 62.01 352.32 61.91
  Q 351.49 61.43 352.37 61.05
  L 352.62 60.94
  A 0.64 0.63 -12.2 0 0 353.00 60.36
  L 353.00 46.69
  A 0.70 0.69 -75.0 0 0 352.66 46.09
  L 352.38 45.93
  Q 352.00 45.71 352.00 45.26
  L 352.01 41.50
  A 0.51 0.51 0.0 0 0 351.50 40.98
  Z
  M 359.73 39.81
  L 363.28 39.76
  Q 364.15 39.74 364.13 38.87
  L 364.03 35.32
  Q 364.01 34.38 363.07 34.39
  L 349.45 34.52
  Q 348.42 34.53 348.46 35.56
  L 348.56 38.68
  Q 348.60 39.76 349.68 39.77
  L 352.99 39.81
  Q 353.56 39.81 353.55 40.39
  C 353.49 43.88 353.98 47.31 354.02 50.85
  Q 354.14 62.59 354.25 73.87
  Q 354.26 74.69 355.07 74.68
  L 358.86 74.63
  A 0.97 0.97 0.0 0 0 359.82 73.64
  L 359.05 40.52
  Q 359.04 39.82 359.73 39.81
  Z"
/>
<path fill="#000000" d="
  M 402.32 56.00
  Q 402.61 56.04 402.79 56.25
  Q 403.00 56.51 403.00 56.84
  Q 403.01 60.96 402.98 65.27
  Q 402.98 65.83 403.50 66.05
  Q 403.64 66.12 403.74 66.23
  Q 404.00 66.54 404.00 66.75
  L 403.98 69.23
  Q 403.97 69.80 404.49 70.05
  Q 404.73 70.16 404.89 70.39
  A 0.63 0.61 28.6 0 1 405.00 70.74
  L 405.00 75.12
  Q 405.00 76.00 404.13 76.00
  L 397.50 76.00
  A 0.60 0.59 -80.4 0 1 396.95 75.21
  Q 397.44 73.77 396.42 72.93
  Q 395.94 72.53 395.94 71.90
  Q 395.95 71.23 396.57 70.97
  A 0.81 0.81 0.0 0 0 397.07 70.25
  L 397.09 69.75
  Q 397.10 69.18 396.56 69.01
  Q 395.93 68.80 395.97 68.11
  Q 396.04 66.76 396.02 65.51
  A 0.52 0.52 0.0 0 0 395.50 65.00
  L 393.50 64.99
  Q 392.99 64.99 392.99 65.50
  L 393.00 75.25
  Q 393.00 75.99 392.25 75.99
  L 385.76 76.00
  Q 384.83 76.00 384.94 75.08
  Q 385.11 73.72 384.95 72.03
  A 0.98 0.96 51.5 0 1 384.99 71.64
  Q 385.20 71.01 385.69 70.89
  Q 386.01 70.81 386.01 70.49
  L 385.99 65.64
  A 0.65 0.63 -13.7 0 1 386.35 65.07
  L 386.63 64.93
  A 0.67 0.66 77.3 0 0 387.00 64.33
  L 387.00 51.91
  Q 387.00 51.46 387.30 51.12
  Q 387.45 50.95 387.65 50.89
  Q 388.00 50.78 388.00 50.41
  L 388.01 46.75
  Q 388.02 46.14 387.42 45.99
  Q 387.24 45.95 387.12 45.80
  A 0.46 0.46 0.0 0 1 387.31 45.07
  L 387.66 44.94
  Q 388.01 44.80 388.01 44.42
  Q 388.02 41.86 387.98 39.12
  A 0.76 0.70 -42.6 0 1 387.99 39.00
  Q 388.09 38.08 388.65 37.90
  A 0.55 0.54 -10.0 0 0 389.01 37.39
  L 389.00 33.50
  Q 388.99 33.00 389.50 33.00
  L 397.63 33.00
  A 2.37 2.37 0.0 0 1 400.00 35.38
  L 399.99 41.26
  Q 399.99 41.83 400.50 42.06
  Q 400.72 42.16 400.85 42.39
  Q 401.00 42.65 401.00 42.96
  L 400.98 46.23
  Q 400.98 46.68 401.34 46.94
  Q 402.04 47.46 402.03 48.27
  Q 401.96 52.02 402.01 55.65
  A 0.37 0.37 0.0 0 0 402.32 56.00
  Z
  M 396.19 63.70
  A 0.81 0.81 0.0 0 1 397.00 64.42
  L 398.04 74.02
  A 0.81 0.81 0.0 0 0 398.86 74.74
  L 402.72 74.69
  A 0.81 0.81 0.0 0 0 403.51 73.78
  L 398.37 35.01
  A 0.81 0.81 0.0 0 0 397.57 34.30
  L 391.05 34.34
  A 0.81 0.81 0.0 0 0 390.25 35.07
  L 386.61 73.90
  A 0.81 0.81 0.0 0 0 387.45 74.79
  L 390.74 74.63
  A 0.81 0.81 0.0 0 0 391.51 73.89
  L 392.31 64.44
  A 0.81 0.81 0.0 0 1 393.11 63.70
  L 396.19 63.70
  Z"
/>
<path fill="#000000" d="
  M 428.02 35.31
  L 427.99 33.76
  Q 427.98 33.00 428.74 33.00
  L 435.25 33.00
  Q 436.00 33.00 436.00 33.75
  L 436.00 67.50
  Q 436.00 68.00 436.50 68.00
  L 443.75 68.00
  Q 444.00 68.00 444.00 68.25
  L 444.00 75.75
  A 0.25 0.25 0.0 0 1 443.75 76.00
  L 430.25 75.99
  A 2.25 2.24 0.0 0 1 428.00 73.75
  L 428.00 38.77
  A 0.80 0.79 -78.1 0 0 427.53 38.04
  Q 427.29 37.93 427.15 37.71
  Q 427.03 37.51 426.98 37.27
  Q 426.77 36.34 427.58 35.99
  A 0.72 0.72 0.0 0 0 428.02 35.31
  Z
  M 442.76 70.01
  A 0.63 0.63 0.0 0 0 442.13 69.38
  L 435.49 69.35
  A 0.63 0.63 0.0 0 1 434.87 68.73
  L 434.69 34.82
  A 0.63 0.63 0.0 0 0 434.05 34.19
  L 429.82 34.26
  A 0.63 0.63 0.0 0 0 429.20 34.90
  L 429.54 74.04
  A 0.63 0.63 0.0 0 0 430.18 74.66
  L 442.13 74.47
  A 0.63 0.63 0.0 0 0 442.75 73.84
  L 442.76 70.01
  Z"
/>
<path fill="#000000" d="
  M 240.52 40.09
  Q 240.65 40.11 240.74 40.22
  Q 241.00 40.51 241.00 40.90
  Q 240.97 45.03 241.03 49.05
  Q 241.03 49.58 240.60 49.90
  Q 239.66 50.59 240.01 51.81
  Q 240.25 52.63 239.49 52.97
  A 0.95 0.94 -4.4 0 0 238.98 53.56
  Q 238.66 54.62 239.60 55.10
  A 0.69 0.68 19.7 0 1 239.96 55.85
  Q 239.79 56.64 240.44 57.02
  Q 241.00 57.34 241.00 57.99
  L 240.99 68.41
  Q 240.99 68.77 241.31 68.93
  L 241.60 69.06
  Q 242.00 69.26 242.00 69.71
  L 242.00 75.24
  Q 242.00 75.99 241.25 75.99
  L 234.73 76.00
  Q 233.81 76.00 234.02 75.10
  Q 234.19 74.34 233.46 73.98
  Q 232.99 73.74 232.99 73.22
  L 233.04 58.25
  A 0.33 0.32 4.1 0 0 232.76 57.93
  L 232.47 57.89
  A 0.41 0.41 0.0 0 0 232.01 58.30
  L 232.00 75.75
  A 0.25 0.24 0.0 0 1 231.75 75.99
  L 224.24 75.99
  Q 224.00 75.99 224.00 75.74
  L 224.00 34.63
  Q 224.00 34.00 224.62 34.00
  L 234.01 34.00
  Q 234.59 34.00 234.92 34.47
  Q 235.55 35.36 236.65 35.00
  A 1.03 1.02 -31.6 0 1 237.68 35.24
  L 239.63 37.18
  Q 239.99 37.54 240.00 38.05
  L 240.00 39.50
  Q 240.01 40.02 240.52 40.09
  Z
  M 235.81 53.50
  C 237.63 52.68 239.07 51.94 239.37 49.74
  Q 239.87 46.08 239.45 41.00
  C 238.86 33.77 230.22 35.17 225.46 35.51
  Q 225.14 35.53 225.14 35.84
  L 225.18 73.99
  Q 225.18 75.30 226.49 75.26
  L 229.49 75.16
  Q 230.56 75.13 230.55 74.06
  L 230.50 57.78
  Q 230.49 55.97 232.17 56.63
  Q 232.44 56.74 232.65 56.82
  Q 234.27 57.46 234.22 59.19
  Q 234.08 65.59 234.72 73.22
  Q 234.88 75.12 236.78 75.10
  L 239.01 75.08
  Q 240.77 75.06 240.49 73.32
  Q 239.49 67.21 239.72 60.20
  C 239.81 57.36 238.73 55.15 235.86 54.27
  Q 234.81 53.95 235.81 53.50
  Z"
/>
<path fill="#ffffff" d="
  M 442.76 70.01
  L 442.75 73.84
  A 0.63 0.63 0.0 0 1 442.13 74.47
  L 430.18 74.66
  A 0.63 0.63 0.0 0 1 429.54 74.04
  L 429.20 34.90
  A 0.63 0.63 0.0 0 1 429.82 34.26
  L 434.05 34.19
  A 0.63 0.63 0.0 0 1 434.69 34.82
  L 434.87 68.73
  A 0.63 0.63 0.0 0 0 435.49 69.35
  L 442.13 69.38
  A 0.63 0.63 0.0 0 1 442.76 70.01
  Z"
/>
<path fill="#ffffff" d="
  M 359.05 40.52
  L 359.82 73.64
  A 0.97 0.97 0.0 0 1 358.86 74.63
  L 355.07 74.68
  Q 354.26 74.69 354.25 73.87
  Q 354.14 62.59 354.02 50.85
  C 353.98 47.31 353.49 43.88 353.55 40.39
  Q 353.56 39.81 352.99 39.81
  L 349.68 39.77
  Q 348.60 39.76 348.56 38.68
  L 348.46 35.56
  Q 348.42 34.53 349.45 34.52
  L 363.07 34.39
  Q 364.01 34.38 364.03 35.32
  L 364.13 38.87
  Q 364.15 39.74 363.28 39.76
  L 359.73 39.81
  Q 359.04 39.82 359.05 40.52
  Z"
/>
<path fill="#ffffff" d="
  M 396.19 63.70
  L 393.11 63.70
  A 0.81 0.81 0.0 0 0 392.31 64.44
  L 391.51 73.89
  A 0.81 0.81 0.0 0 1 390.74 74.63
  L 387.45 74.79
  A 0.81 0.81 0.0 0 1 386.61 73.90
  L 390.25 35.07
  A 0.81 0.81 0.0 0 1 391.05 34.34
  L 397.57 34.30
  A 0.81 0.81 0.0 0 1 398.37 35.01
  L 403.51 73.78
  A 0.81 0.81 0.0 0 1 402.72 74.69
  L 398.86 74.74
  A 0.81 0.81 0.0 0 1 398.04 74.02
  L 397.00 64.42
  A 0.81 0.81 0.0 0 0 396.19 63.70
  Z
  M 396.27 57.55
  Q 395.01 49.19 394.82 44.28
  Q 394.81 44.10 394.72 43.94
  Q 394.63 43.79 394.50 43.72
  Q 394.24 43.59 394.21 43.88
  L 392.82 57.51
  A 0.73 0.72 -85.9 0 0 393.51 58.31
  L 395.50 58.41
  Q 396.41 58.45 396.27 57.55
  Z"
/>
<path fill="#ffffff" d="
  M 309.86 43.92
  Q 309.82 43.67 309.56 43.69
  L 309.25 43.72
  Q 309.19 43.73 309.19 43.79
  Q 309.63 58.65 309.80 73.41
  Q 309.81 74.71 308.51 74.72
  L 306.54 74.74
  A 1.21 1.21 0.0 0 1 305.32 73.54
  L 305.13 35.06
  Q 305.12 34.75 305.44 34.74
  L 312.63 34.62
  A 0.44 0.43 84.7 0 1 313.07 34.99
  L 318.10 66.21
  Q 318.23 67.01 318.23 66.20
  Q 318.31 51.18 318.09 35.63
  Q 318.07 34.53 319.17 34.54
  L 321.24 34.56
  Q 322.29 34.57 322.22 35.63
  Q 322.00 38.71 322.31 44.25
  Q 323.05 57.31 322.74 74.22
  Q 322.73 74.73 322.21 74.73
  L 315.34 74.66
  A 0.69 0.69 0.0 0 1 314.67 74.08
  L 309.86 43.92
  Z"
/>
<path fill="#ffffff" d="
  M 271.83 56.20
  L 272.05 68.89
  A 0.76 0.76 0.0 0 0 272.83 69.64
  L 278.34 69.47
  A 0.76 0.76 0.0 0 1 279.12 70.25
  L 279.04 74.00
  A 0.76 0.76 0.0 0 1 278.28 74.74
  L 267.30 74.79
  A 0.76 0.76 0.0 0 1 266.53 74.03
  L 266.24 35.83
  A 0.76 0.76 0.0 0 1 266.99 35.06
  L 277.90 34.93
  A 0.76 0.76 0.0 0 1 278.67 35.68
  L 278.70 39.23
  A 0.76 0.76 0.0 0 1 277.96 39.99
  L 272.48 40.09
  A 0.76 0.76 0.0 0 0 271.73 40.85
  L 271.75 49.61
  A 0.76 0.76 0.0 0 0 272.51 50.36
  L 278.24 50.32
  A 0.76 0.76 0.0 0 1 279.01 51.08
  L 278.99 54.62
  A 0.76 0.76 0.0 0 1 278.24 55.38
  L 272.59 55.42
  A 0.76 0.76 0.0 0 0 271.83 56.20
  Z"
/>
<path fill="#000000" d="
  M 160.44 40.07
  Q 160.62 40.04 160.73 40.16
  Q 160.91 40.36 160.94 40.63
  Q 161.09 41.87 160.92 43.20
  Q 160.86 43.70 161.31 43.92
  L 161.60 44.07
  Q 162.00 44.27 162.00 44.71
  L 162.00 53.41
  Q 162.00 53.77 161.67 53.91
  L 161.39 54.03
  Q 160.99 54.21 160.99 54.66
  L 161.00 57.24
  A 0.82 0.81 79.5 0 1 160.48 58.00
  Q 160.00 58.17 160.00 58.68
  A 2.39 2.39 0.0 0 1 157.06 60.96
  Q 156.39 60.81 156.05 61.40
  Q 155.71 62.00 155.02 62.00
  L 152.51 61.98
  Q 151.99 61.98 151.99 62.49
  L 152.00 76.75
  Q 152.00 77.00 151.75 76.99
  L 145.25 76.99
  A 0.25 0.24 0.0 0 1 145.00 76.75
  L 145.00 35.50
  A 0.50 0.50 0.0 0 1 145.50 35.00
  L 154.23 35.00
  Q 154.71 35.00 154.92 35.43
  Q 155.32 36.26 156.25 36.02
  Q 156.99 35.84 157.63 36.28
  Q 159.96 37.90 160.16 39.85
  Q 160.19 40.10 160.44 40.07
  Z
  M 150.87 62.00
  Q 150.86 60.62 152.24 60.74
  C 156.80 61.14 159.88 58.88 159.93 54.08
  C 159.97 49.68 160.43 44.92 159.47 40.76
  C 158.32 35.81 150.61 36.11 146.52 36.59
  Q 145.93 36.66 145.93 37.25
  L 146.07 74.80
  Q 146.08 76.02 147.30 75.97
  L 149.99 75.86
  A 1.08 1.08 0.0 0 0 151.03 74.76
  L 150.87 62.00
  Z"
/>
<path fill="#000000" d="
  M 199.41 61.03
  Q 199.62 61.07 199.77 61.23
  Q 199.99 61.48 199.99 61.81
  Q 200.01 66.47 199.98 71.29
  Q 199.98 71.86 200.50 72.07
  Q 200.65 72.13 200.77 72.24
  Q 200.99 72.45 201.00 72.75
  L 201.00 75.25
  Q 201.00 76.00 200.25 76.00
  L 193.50 76.00
  Q 193.00 76.00 193.00 75.50
  L 193.01 68.94
  Q 193.01 68.35 192.51 68.03
  Q 191.77 67.56 192.02 66.70
  Q 192.22 65.99 191.49 65.98
  L 190.53 65.95
  Q 189.99 65.94 189.99 66.47
  L 190.00 72.23
  Q 190.00 72.71 189.57 72.92
  Q 188.92 73.24 189.01 73.96
  A 2.69 2.20 85.0 0 1 186.97 76.95
  Q 184.74 77.04 182.53 76.97
  Q 181.93 76.96 181.96 76.35
  Q 182.07 74.26 181.96 72.01
  Q 181.94 71.43 182.37 71.08
  Q 182.47 70.99 182.59 70.93
  A 0.69 0.69 0.0 0 0 183.00 70.30
  L 183.00 59.89
  Q 183.00 59.48 183.27 59.16
  Q 183.41 58.99 183.60 58.91
  A 0.67 0.66 78.9 0 0 184.01 58.29
  L 183.99 52.71
  Q 183.99 52.26 184.39 52.06
  L 184.64 51.94
  Q 184.98 51.77 185.07 51.40
  Q 185.32 50.38 184.47 49.99
  A 0.86 0.84 5.6 0 1 184.01 49.44
  Q 183.73 48.42 184.55 47.95
  Q 184.95 47.72 184.96 47.26
  Q 185.04 44.51 184.97 41.75
  Q 184.96 41.19 185.55 40.93
  A 0.79 0.79 0.0 0 0 186.02 40.21
  L 186.00 37.39
  A 2.37 2.36 -0.4 0 1 188.36 35.01
  L 196.50 35.00
  A 0.50 0.50 0.0 0 1 197.00 35.50
  L 196.99 43.26
  Q 196.99 43.83 197.50 44.06
  Q 197.69 44.15 197.81 44.32
  Q 198.00 44.57 198.00 44.88
  L 198.00 54.27
  Q 197.99 54.75 198.39 55.01
  Q 199.08 55.48 199.03 56.41
  Q 198.93 58.50 199.05 60.62
  A 0.44 0.44 0.0 0 0 199.41 61.03
  Z
  M 192.67 64.79
  A 0.89 0.89 0.0 0 1 193.54 65.58
  L 194.52 74.75
  A 0.89 0.89 0.0 0 0 195.44 75.55
  L 198.72 75.43
  A 0.89 0.89 0.0 0 0 199.57 74.44
  L 195.30 36.54
  A 0.89 0.89 0.0 0 0 194.39 35.75
  L 188.29 35.94
  A 0.89 0.89 0.0 0 0 187.44 36.73
  L 183.27 74.67
  A 0.89 0.89 0.0 0 0 184.17 75.66
  L 187.10 75.60
  A 0.89 0.89 0.0 0 0 187.97 74.81
  L 188.95 65.54
  A 0.89 0.89 0.0 0 1 189.85 64.74
  L 192.67 64.79
  Z"
/>
<path fill="#ffffff" d="
  M 235.86 54.27
  C 238.73 55.15 239.81 57.36 239.72 60.20
  Q 239.49 67.21 240.49 73.32
  Q 240.77 75.06 239.01 75.08
  L 236.78 75.10
  Q 234.88 75.12 234.72 73.22
  Q 234.08 65.59 234.22 59.19
  Q 234.27 57.46 232.65 56.82
  Q 232.44 56.74 232.17 56.63
  Q 230.49 55.97 230.50 57.78
  L 230.55 74.06
  Q 230.56 75.13 229.49 75.16
  L 226.49 75.26
  Q 225.18 75.30 225.18 73.99
  L 225.14 35.84
  Q 225.14 35.53 225.46 35.51
  C 230.22 35.17 238.86 33.77 239.45 41.00
  Q 239.87 46.08 239.37 49.74
  C 239.07 51.94 237.63 52.68 235.81 53.50
  Q 234.81 53.95 235.86 54.27
  Z
  M 230.46 40.56
  L 230.46 51.12
  A 0.74 0.74 0.0 0 0 231.20 51.86
  L 231.34 51.86
  A 2.88 2.64 -0.0 0 0 234.22 49.22
  L 234.22 42.46
  A 2.88 2.64 0.0 0 0 231.34 39.82
  L 231.20 39.82
  A 0.74 0.74 0.0 0 0 230.46 40.56
  Z"
/>
<path fill="#ffffff" d="
  M 192.67 64.79
  L 189.85 64.74
  A 0.89 0.89 0.0 0 0 188.95 65.54
  L 187.97 74.81
  A 0.89 0.89 0.0 0 1 187.10 75.60
  L 184.17 75.66
  A 0.89 0.89 0.0 0 1 183.27 74.67
  L 187.44 36.73
  A 0.89 0.89 0.0 0 1 188.29 35.94
  L 194.39 35.75
  A 0.89 0.89 0.0 0 1 195.30 36.54
  L 199.57 74.44
  A 0.89 0.89 0.0 0 1 198.72 75.43
  L 195.44 75.55
  A 0.89 0.89 0.0 0 1 194.52 74.75
  L 193.54 65.58
  A 0.89 0.89 0.0 0 0 192.67 64.79
  Z
  M 192.64 58.12
  Q 192.43 50.76 191.27 43.85
  Q 191.26 43.79 191.20 43.79
  Q 191.15 43.79 191.10 43.79
  Q 190.94 43.79 190.93 43.96
  Q 190.58 51.56 189.43 58.87
  Q 189.32 59.57 190.02 59.55
  L 192.50 59.51
  Q 193.03 59.50 193.01 58.97
  Q 193.01 58.72 192.82 58.54
  A 0.67 0.64 23.1 0 1 192.64 58.12
  Z"
/>
<path fill="#ffffff" d="
  M 150.87 62.00
  L 151.03 74.76
  A 1.08 1.08 0.0 0 1 149.99 75.86
  L 147.30 75.97
  Q 146.08 76.02 146.07 74.80
  L 145.93 37.25
  Q 145.93 36.66 146.52 36.59
  C 150.61 36.11 158.32 35.81 159.47 40.76
  C 160.43 44.92 159.97 49.68 159.93 54.08
  C 159.88 58.88 156.80 61.14 152.24 60.74
  Q 150.86 60.62 150.87 62.00
  Z
  M 150.88 55.05
  A 1.37 1.37 0.0 0 0 152.74 56.32
  L 153.88 55.88
  A 1.37 1.37 0.0 0 0 154.76 54.60
  L 154.73 42.80
  A 1.37 1.37 0.0 0 0 153.77 41.50
  L 152.59 41.13
  A 1.37 1.37 0.0 0 0 150.81 42.44
  L 150.88 55.05
  Z"
/>
<path fill="#000000" d="
  M 230.46 40.56
  A 0.74 0.74 0.0 0 1 231.20 39.82
  L 231.34 39.82
  A 2.88 2.64 0.0 0 1 234.22 42.46
  L 234.22 49.22
  A 2.88 2.64 0.0 0 1 231.34 51.86
  L 231.20 51.86
  A 0.74 0.74 0.0 0 1 230.46 51.12
  L 230.46 40.56
  Z
  M 233.0263 42.3809
  A 0.48 0.48 0.0 0 0 232.5471 41.9001
  L 232.4871 41.9000
  A 0.48 0.48 0.0 0 0 232.0063 42.3791
  L 231.9937 49.5791
  A 0.48 0.48 0.0 0 0 232.4729 50.0599
  L 232.5329 50.0600
  A 0.48 0.48 0.0 0 0 233.0137 49.5809
  L 233.0263 42.3809
  Z"
/>
<path fill="#000000" d="
  M 150.88 55.05
  L 150.81 42.44
  A 1.37 1.37 0.0 0 1 152.59 41.13
  L 153.77 41.50
  A 1.37 1.37 0.0 0 1 154.73 42.80
  L 154.76 54.60
  A 1.37 1.37 0.0 0 1 153.88 55.88
  L 152.74 56.32
  A 1.37 1.37 0.0 0 1 150.88 55.05
  Z
  M 153.0298 43.3609
  A 0.35 0.35 0.0 0 0 152.6805 43.0103
  L 152.3605 43.0097
  A 0.35 0.35 0.0 0 0 152.0098 43.3591
  L 151.9902 54.6391
  A 0.35 0.35 0.0 0 0 152.3395 54.9897
  L 152.6595 54.9903
  A 0.35 0.35 0.0 0 0 153.0102 54.6409
  L 153.0298 43.3609
  Z"
/>
<path fill="#000000" d="
  M 396.27 57.55
  Q 396.41 58.45 395.50 58.41
  L 393.51 58.31
  A 0.73 0.72 -85.9 0 1 392.82 57.51
  L 394.21 43.88
  Q 394.24 43.59 394.50 43.72
  Q 394.63 43.79 394.72 43.94
  Q 394.81 44.10 394.82 44.28
  Q 395.01 49.19 396.27 57.55
  Z
  M 394.5271 57.1400
  A 1.68 0.59 90.1 0 0 395.1200 55.4610
  A 1.68 0.59 90.1 0 0 394.5329 53.7800
  A 1.68 0.59 90.1 0 0 393.9400 55.4590
  A 1.68 0.59 90.1 0 0 394.5271 57.1400
  Z"
/>
<path fill="#000000" d="
  M 192.82 58.54
  Q 193.01 58.72 193.01 58.97
  Q 193.03 59.50 192.50 59.51
  L 190.02 59.55
  Q 189.32 59.57 189.43 58.87
  Q 190.58 51.56 190.93 43.96
  Q 190.94 43.79 191.10 43.79
  Q 191.15 43.79 191.20 43.79
  Q 191.26 43.79 191.27 43.85
  Q 192.43 50.76 192.64 58.12
  A 0.67 0.64 23.1 0 0 192.82 58.54
  Z
  M 191.5505 58.0698
  A 1.07 0.60 88.9 0 0 192.1299 56.9885
  A 1.07 0.60 88.9 0 0 191.5095 55.9302
  A 1.07 0.60 88.9 0 0 190.9301 57.0115
  A 1.07 0.60 88.9 0 0 191.5505 58.0698
  Z"
/>
<path fill="#000000" d="
  M 307.85 99.21
  Q 306.06 97.59 304.93 99.42
  Q 304.35 100.36 304.22 101.41
  Q 303.12 110.46 304.91 120.07
  C 305.67 124.19 307.84 127.10 310.59 130.11
  Q 317.93 138.13 318.79 150.15
  Q 319.44 159.30 319.72 168.65
  C 319.81 171.91 318.87 174.12 318.12 177.10
  Q 317.63 179.07 316.07 180.36
  C 312.77 183.08 310.20 183.41 305.98 183.07
  Q 303.29 182.86 300.68 181.02
  Q 297.46 178.76 296.03 174.79
  Q 295.27 172.66 295.14 166.25
  Q 294.95 156.78 295.07 148.35
  Q 295.10 146.14 297.31 146.00
  Q 300.42 145.79 303.07 146.09
  Q 304.67 146.27 304.76 147.88
  Q 305.43 159.83 305.14 169.12
  Q 305.06 171.56 307.43 172.15
  Q 307.77 172.24 308.11 172.14
  Q 309.98 171.57 309.98 169.60
  Q 309.98 163.17 309.79 154.71
  C 309.70 150.69 307.99 147.11 306.65 143.47
  C 305.29 139.75 302.48 136.43 299.79 133.39
  C 296.73 129.93 295.42 124.82 295.18 120.41
  Q 294.50 107.86 295.14 98.18
  Q 295.55 92.16 301.79 88.72
  Q 303.43 87.82 305.38 87.96
  C 307.20 88.09 309.20 87.65 310.88 88.42
  Q 319.21 92.20 318.55 100.39
  Q 318.36 102.78 318.57 105.35
  Q 319.21 113.55 318.91 122.26
  A 0.97 0.97 0.0 0 1 317.77 123.18
  L 311.06 121.96
  Q 310.26 121.82 310.18 121.00
  Q 309.63 114.52 309.34 107.12
  Q 309.20 103.47 308.49 100.32
  A 2.18 2.12 -75.8 0 0 307.85 99.21
  Z"
/>
<path fill="#000000" d="
  M 340.98 89.80
  C 342.08 89.19 342.30 88.05 343.83 88.03
  C 346.31 87.99 351.59 87.36 353.46 88.89
  Q 360.07 94.29 359.99 103.25
  Q 359.84 120.94 360.50 141.24
  Q 360.57 143.15 360.48 145.19
  Q 360.40 146.96 360.54 148.83
  Q 361.43 160.56 360.75 169.91
  Q 360.53 172.88 359.05 176.77
  C 357.09 181.91 351.81 183.51 346.56 183.09
  C 342.47 182.77 340.12 180.01 338.28 176.63
  Q 336.97 174.25 336.93 169.94
  Q 336.82 160.44 336.27 150.00
  C 336.19 148.42 336.48 146.93 336.41 145.32
  Q 335.52 125.67 336.17 99.05
  Q 336.33 92.38 340.98 89.80
  Z
  M 351.59 168.82
  Q 351.83 168.00 351.81 167.14
  Q 351.23 134.84 350.77 103.03
  C 350.75 101.63 350.44 100.43 349.75 99.31
  A 1.91 1.90 50.3 0 0 346.72 99.03
  Q 344.91 101.00 345.05 104.51
  Q 346.15 132.65 346.24 168.25
  Q 346.25 169.90 348.57 172.03
  Q 348.99 172.41 349.45 172.07
  Q 350.98 170.92 351.59 168.82
  Z"
/>
<path fill="#000000" d="
  M 393.50 131.31
  A 0.37 0.37 0.0 0 0 393.42 131.97
  Q 396.41 133.82 398.98 135.99
  C 401.96 138.51 401.84 142.06 402.11 146.39
  Q 402.87 158.69 403.19 171.76
  Q 403.33 177.54 403.80 179.73
  Q 404.07 180.99 402.78 181.00
  L 396.20 181.04
  Q 394.98 181.04 394.86 179.84
  Q 393.04 162.44 392.86 143.26
  Q 392.84 140.40 390.19 138.30
  Q 389.68 137.89 388.92 137.93
  Q 386.13 138.05 386.01 140.84
  C 385.84 144.67 386.49 148.63 386.61 152.59
  Q 387.02 166.66 387.04 179.98
  A 0.99 0.98 -90.0 0 1 386.06 180.97
  L 378.97 181.01
  Q 377.90 181.01 377.93 179.94
  Q 378.35 163.62 377.40 147.51
  C 377.32 146.17 377.75 144.61 377.65 143.50
  Q 377.08 137.10 377.04 131.08
  Q 376.90 109.57 376.99 89.85
  A 0.73 0.72 -80.2 0 1 377.95 89.17
  Q 381.60 90.44 386.08 89.57
  Q 388.54 89.10 391.09 89.67
  C 396.80 90.95 400.18 93.22 400.98 99.36
  Q 402.54 111.37 401.84 121.58
  Q 401.58 125.39 398.67 129.40
  A 1.37 1.33 -79.6 0 1 397.97 129.90
  L 393.50 131.31
  Z
  M 389.58 100.12
  Q 389.33 100.07 389.09 100.01
  Q 385.94 99.22 385.93 102.11
  C 385.92 109.92 385.09 117.78 386.04 125.66
  C 386.32 128.00 389.19 129.07 390.89 127.28
  Q 392.58 125.48 392.73 123.53
  Q 393.43 114.52 392.46 103.38
  Q 392.22 100.68 389.58 100.12
  Z"
/>
<path fill="#000000" d="
  M 428.73 121.37
  Q 429.37 120.01 429.57 118.46
  Q 431.00 107.52 432.04 96.82
  C 432.24 94.76 432.85 92.85 432.92 90.80
  A 0.76 0.75 -0.4 0 1 433.63 90.08
  L 437.75 89.86
  Q 438.25 89.83 438.68 89.57
  Q 440.05 88.73 440.89 88.92
  Q 442.38 89.26 442.13 90.77
  Q 440.96 98.01 439.68 105.26
  C 438.10 114.20 437.21 123.93 435.56 133.26
  Q 434.46 139.41 433.73 145.60
  Q 433.48 147.66 433.65 149.41
  C 433.84 151.24 433.42 152.77 433.48 154.54
  Q 433.89 166.79 434.01 179.98
  A 1.01 1.01 0.0 0 1 433.00 181.00
  L 424.96 181.00
  Q 423.91 181.00 423.93 179.95
  C 424.24 164.42 424.63 147.41 421.44 131.96
  Q 418.09 115.66 417.12 109.75
  Q 415.54 99.99 413.41 90.13
  Q 413.37 89.93 413.57 89.93
  L 422.67 90.09
  Q 422.85 90.10 422.90 90.28
  C 424.65 97.68 426.02 104.89 427.00 112.28
  Q 427.59 116.77 428.26 121.30
  Q 428.38 122.09 428.73 121.37
  Z"
/>
<path fill="#000000" d="
  M 186.82 91.79
  A 1.80 1.80 0.0 0 1 188.61 89.98
  L 199.40 89.91
  A 14.65 11.35 89.6 0 1 210.85 104.48
  L 211.29 166.38
  A 14.65 11.35 89.6 0 1 200.04 181.10
  L 189.25 181.18
  A 1.80 1.80 0.0 0 1 187.44 179.39
  L 186.82 91.79
  Z
  M 201.45 103.61
  Q 200.40 101.42 198.56 100.97
  Q 195.79 100.30 195.84 103.15
  L 197.08 168.66
  Q 197.11 170.21 198.66 170.18
  L 199.59 170.16
  Q 202.09 170.11 202.08 167.60
  L 201.73 104.79
  A 2.83 2.81 31.8 0 0 201.45 103.61
  Z"
/>
<path fill="#000000" d="
  M 239.53 154.25
  Q 240.09 147.26 240.92 140.70
  Q 241.98 132.30 242.22 114.88
  C 242.23 113.85 242.61 112.91 242.60 111.83
  Q 242.55 101.42 243.63 91.44
  Q 243.79 90.00 245.24 90.00
  L 251.87 90.00
  Q 253.26 90.00 253.16 91.39
  L 246.82 180.50
  A 0.56 0.56 0.0 0 1 246.26 181.02
  L 233.91 181.00
  A 1.47 1.46 87.7 0 1 232.45 179.65
  L 224.87 91.38
  Q 224.75 90.00 226.14 90.00
  L 233.15 90.01
  Q 234.58 90.01 234.75 91.43
  Q 235.17 94.91 235.23 98.82
  Q 235.29 102.51 235.62 106.17
  Q 237.55 127.79 238.36 146.01
  Q 238.57 150.64 239.21 154.26
  Q 239.43 155.54 239.53 154.25
  Z"
/>
<path fill="#000000" d="
  M 268.44 179.00
  Q 268.23 178.78 268.12 178.50
  Q 268.01 178.23 268.01 177.94
  Q 267.98 134.23 268.02 90.24
  Q 268.02 90.01 268.24 90.01
  L 276.72 90.00
  Q 276.96 90.00 276.96 90.24
  Q 276.96 97.34 277.33 104.67
  Q 277.68 111.64 277.74 117.33
  Q 277.80 121.62 277.92 125.77
  Q 278.05 129.95 278.04 134.26
  Q 277.98 156.38 278.01 180.01
  Q 278.01 181.01 277.01 181.01
  L 268.60 181.00
  Q 267.85 181.00 268.27 180.37
  L 268.54 179.97
  A 0.78 0.77 -51.2 0 0 268.44 179.00
  Z"
/>
<path fill="#000000" d="
  M 161.93 157.05
  A 1.16 1.15 -1.9 0 0 160.80 156.00
  L 157.10 155.95
  Q 155.96 155.94 156.00 157.07
  C 156.14 161.07 155.34 164.95 155.23 168.96
  Q 155.08 174.06 154.94 178.81
  Q 154.88 180.95 152.74 180.97
  L 148.57 181.01
  Q 146.46 181.03 146.52 178.91
  Q 146.98 163.76 147.87 150.69
  Q 149.61 125.38 152.25 91.60
  A 1.47 1.47 0.0 0 1 154.17 90.31
  Q 157.71 91.45 161.56 90.38
  A 0.85 0.72 -41.8 0 1 161.89 90.37
  L 165.51 91.05
  Q 165.83 91.11 165.86 91.44
  Q 167.39 108.44 168.34 125.66
  Q 168.38 126.47 168.74 127.16
  Q 169.00 127.65 168.75 128.15
  C 168.22 129.22 168.97 130.18 169.06 131.30
  Q 169.93 142.17 171.05 153.50
  Q 172.32 166.53 173.06 179.35
  Q 173.16 181.00 171.51 180.99
  L 166.00 180.99
  A 2.19 2.18 87.4 0 1 163.83 179.00
  L 161.93 157.05
  Z
  M 161.33 143.23
  Q 159.64 128.42 159.81 113.23
  Q 159.82 112.49 159.22 112.05
  L 158.96 111.86
  A 0.40 0.40 0.0 0 0 158.33 112.17
  Q 157.85 126.85 157.13 141.06
  Q 157.07 142.24 157.32 143.37
  Q 157.48 144.08 158.20 144.04
  L 160.74 143.92
  Q 161.41 143.89 161.33 143.23
  Z"
/>
<path fill="#000000" d="
  M 152.75 205.99
  Q 151.99 205.98 151.99 206.75
  L 152.00 212.26
  Q 152.00 213.03 152.76 213.02
  L 155.12 213.00
  Q 156.00 212.99 156.00 213.87
  L 156.00 217.25
  Q 156.00 217.99 155.25 217.99
  L 148.50 218.00
  A 2.50 2.50 0.0 0 1 146.00 215.50
  L 146.00 192.37
  Q 146.00 191.00 147.38 191.00
  L 153.62 191.00
  Q 155.99 191.00 156.00 193.37
  L 156.00 196.50
  Q 156.00 197.00 155.50 197.02
  C 154.66 197.03 153.97 196.76 153.21 197.24
  Q 151.56 198.30 151.98 200.54
  Q 152.07 201.01 152.55 201.01
  L 155.50 201.00
  A 0.50 0.49 89.4 0 1 156.00 201.50
  L 156.00 205.25
  Q 156.00 206.00 155.25 205.99
  L 152.75 205.99
  Z
  M 150.99 195.52
  L 153.45 195.65
  A 1.24 1.24 0.0 0 0 154.75 194.33
  L 154.72 193.80
  Q 154.63 192.48 153.30 192.47
  L 148.03 192.42
  A 0.79 0.79 0.0 0 0 147.23 193.22
  L 147.33 215.67
  A 1.33 1.33 0.0 0 0 148.67 216.99
  L 153.77 216.96
  Q 155.00 216.95 154.94 215.73
  L 154.89 214.85
  A 1.17 1.17 0.0 0 0 153.73 213.74
  L 151.24 213.74
  Q 150.49 213.73 150.49 212.99
  L 150.50 205.96
  Q 150.51 205.00 151.44 205.22
  Q 152.79 205.53 154.13 205.03
  Q 154.80 204.78 154.87 204.07
  Q 154.96 203.21 154.56 202.49
  Q 154.31 202.04 153.80 202.06
  L 151.19 202.14
  Q 150.46 202.17 150.46 201.44
  L 150.48 196.01
  Q 150.48 195.49 150.99 195.52
  Z"
/>
<path fill="#000000" d="
  M 177.59 212.12
  Q 177.71 212.17 177.79 212.28
  Q 178.00 212.58 178.00 212.75
  L 178.00 217.50
  Q 178.00 218.00 177.50 218.00
  L 173.48 218.00
  Q 172.97 218.00 172.98 217.48
  L 173.06 215.43
  Q 173.07 215.04 172.68 215.03
  L 172.35 215.03
  Q 171.97 215.02 171.98 215.40
  L 172.01 217.49
  A 0.50 0.50 0.0 0 1 171.51 218.00
  L 166.73 218.00
  Q 166.17 218.00 166.02 217.46
  Q 165.59 215.79 166.64 214.86
  Q 167.05 214.50 167.03 213.95
  Q 166.97 211.99 166.99 210.12
  A 2.51 2.46 -35.1 0 1 167.13 209.36
  Q 167.24 209.04 167.54 208.93
  Q 168.00 208.76 168.00 208.27
  L 168.01 200.97
  Q 168.01 200.47 167.63 200.15
  Q 166.59 199.26 167.06 197.46
  A 1.01 0.91 53.4 0 0 167.09 197.15
  Q 167.06 196.30 166.54 195.99
  Q 166.01 195.66 166.00 195.04
  L 166.00 191.50
  Q 166.00 191.00 166.50 191.00
  L 169.97 191.00
  A 1.19 1.18 67.8 0 1 170.82 191.36
  L 172.26 192.82
  Q 172.86 193.43 173.01 192.60
  Q 173.09 192.17 172.97 191.74
  Q 172.76 191.00 173.53 191.00
  L 177.25 191.00
  Q 178.00 191.00 178.00 191.75
  L 178.00 196.50
  Q 178.00 196.98 177.52 197.00
  Q 177.36 197.00 177.25 197.10
  Q 177.01 197.32 177.00 197.65
  Q 176.97 198.99 177.02 200.22
  Q 177.05 200.84 176.45 201.00
  Q 176.28 201.04 176.16 201.19
  Q 175.99 201.43 175.99 201.71
  L 175.99 206.40
  Q 175.99 206.76 176.31 206.92
  L 176.61 207.07
  Q 177.01 207.28 177.01 207.73
  L 176.98 211.25
  Q 176.98 211.90 177.59 212.12
  Z
  M 171.79 200.69
  L 170.40 193.74
  Q 170.16 192.54 168.95 192.37
  Q 168.67 192.33 168.39 192.32
  Q 166.82 192.25 167.15 193.78
  C 168.19 198.62 170.44 203.27 169.06 208.29
  Q 167.99 212.17 167.37 216.00
  Q 167.16 217.31 168.49 217.24
  L 169.04 217.22
  A 1.72 1.72 0.0 0 0 170.65 215.79
  L 171.80 209.01
  Q 172.12 207.10 172.49 209.00
  L 173.82 215.87
  Q 174.11 217.36 175.62 217.26
  L 176.09 217.23
  Q 177.36 217.15 177.06 215.90
  L 174.71 206.06
  A 6.54 6.49 44.8 0 1 174.69 203.08
  L 176.84 193.67
  Q 177.14 192.33 175.78 192.42
  Q 175.48 192.44 175.20 192.46
  A 1.91 1.90 1.5 0 0 173.47 194.09
  Q 173.00 197.55 172.21 200.70
  Q 171.98 201.63 171.79 200.69
  Z"
/>
<path fill="#000000" d="
  M 199.50 195.07
  Q 199.79 195.11 199.91 195.36
  Q 199.98 195.51 199.98 195.68
  Q 199.97 200.68 200.03 205.93
  Q 200.03 206.43 199.68 206.78
  L 197.81 208.67
  Q 197.43 209.05 196.90 208.96
  Q 196.29 208.86 196.05 209.46
  Q 195.83 210.01 195.24 210.00
  L 194.63 209.99
  Q 193.99 209.99 193.99 210.62
  L 194.00 217.97
  Q 194.00 219.10 192.87 219.12
  Q 190.93 219.14 189.54 218.77
  Q 188.00 218.35 188.00 216.76
  L 188.00 193.25
  A 2.25 2.25 0.0 0 1 190.25 191.00
  L 194.27 191.00
  Q 194.82 191.00 194.97 191.54
  Q 195.02 191.73 195.18 191.84
  Q 195.48 192.07 195.86 191.99
  Q 196.63 191.82 196.94 192.52
  Q 197.17 193.02 197.72 193.01
  L 198.49 193.00
  Q 198.99 192.99 198.99 193.49
  L 198.98 194.48
  Q 198.98 195.01 199.50 195.07
  Z
  M 193.63 208.29
  C 196.38 208.38 198.56 206.97 198.62 204.06
  Q 198.71 200.16 198.44 196.88
  Q 198.20 193.99 195.41 193.21
  Q 193.53 192.68 191.38 192.62
  Q 189.45 192.56 189.47 194.48
  L 189.64 216.11
  Q 189.66 217.78 191.33 217.76
  L 191.76 217.76
  Q 193.03 217.75 193.01 216.48
  L 192.91 209.00
  A 0.70 0.70 0.0 0 1 193.63 208.29
  Z"
/>
<path fill="#000000" d="
  M 259.48 195.13
  Q 259.76 195.11 259.88 195.32
  Q 259.98 195.50 259.98 195.71
  Q 259.99 198.95 260.03 202.30
  Q 260.03 203.04 259.29 203.02
  L 255.34 202.94
  Q 254.99 202.93 254.99 203.28
  L 255.00 207.51
  Q 255.00 208.02 255.51 208.01
  L 259.12 208.00
  Q 260.00 207.99 260.00 208.87
  L 260.00 217.25
  Q 260.00 218.21 259.06 218.02
  Q 258.10 217.83 257.04 219.52
  Q 256.74 220.00 256.18 220.00
  L 252.76 219.99
  Q 252.12 219.99 251.96 219.38
  Q 251.85 218.98 251.41 218.99
  A 2.39 2.37 88.5 0 1 248.99 216.67
  Q 248.98 216.24 248.61 216.05
  Q 248.00 215.72 248.00 215.03
  L 248.00 195.81
  Q 248.00 195.43 248.24 195.15
  Q 248.37 194.99 248.58 194.95
  A 0.51 0.51 0.0 0 0 248.98 194.43
  Q 248.94 193.06 250.35 192.19
  Q 250.77 191.93 251.26 192.01
  Q 251.80 192.09 251.96 191.59
  Q 252.14 191.00 252.75 191.00
  L 255.25 191.00
  A 0.73 0.73 0.0 0 1 255.93 191.47
  Q 256.18 192.11 256.85 191.99
  A 1.04 1.02 -32.4 0 1 257.60 192.15
  Q 259.13 193.18 259.05 194.72
  A 0.40 0.39 -1.3 0 0 259.48 195.13
  Z
  M 254.33 215.20
  A 0.66 0.66 0.0 0 1 253.51 214.57
  L 253.36 196.37
  A 0.43 0.42 -84.5 0 1 253.86 195.95
  L 254.14 196.00
  Q 254.88 196.15 254.92 196.91
  L 255.16 201.47
  Q 255.20 202.25 255.97 202.14
  L 257.77 201.90
  A 1.04 1.03 84.6 0 0 258.66 200.82
  Q 258.58 199.27 258.60 197.71
  C 258.69 190.96 249.54 191.17 249.52 196.74
  Q 249.48 204.86 249.57 213.66
  C 249.63 219.90 258.63 220.08 258.70 214.52
  Q 258.73 211.95 258.62 209.60
  A 0.91 0.91 0.0 0 0 257.71 208.73
  L 255.84 208.72
  Q 255.14 208.71 255.13 209.41
  L 255.04 214.54
  Q 255.04 215.01 254.58 215.13
  L 254.33 215.20
  Z"
/>
<path fill="#000000" d="
  M 217.51 213.02
  L 220.12 213.00
  Q 221.00 212.99 221.00 213.87
  L 221.00 218.25
  Q 221.00 219.00 220.25 219.00
  L 211.62 219.00
  Q 211.00 219.00 211.00 218.37
  L 211.00 193.42
  Q 211.00 191.58 212.82 191.84
  Q 213.99 192.01 215.19 192.19
  Q 217.00 192.45 217.00 194.28
  L 217.00 212.51
  Q 217.00 213.02 217.51 213.02
  Z
  M 216.19 214.49
  A 0.66 0.66 0.0 0 1 215.53 213.85
  L 215.15 193.60
  A 0.66 0.66 0.0 0 0 214.46 192.95
  L 212.78 193.02
  A 0.66 0.66 0.0 0 0 212.15 193.69
  L 212.28 217.13
  A 0.66 0.66 0.0 0 0 212.94 217.78
  L 219.38 217.74
  A 0.66 0.66 0.0 0 0 220.04 217.04
  L 219.92 215.09
  A 0.66 0.66 0.0 0 0 219.25 214.47
  L 216.19 214.49
  Z"
/>
<path fill="#000000" d="
  M 237.00 218.63
  A 0.37 0.37 0.0 0 1 236.63 219.00
  L 232.37 219.00
  A 0.37 0.37 0.0 0 1 232.00 218.63
  L 232.00 192.37
  A 0.37 0.37 0.0 0 1 232.37 192.00
  L 236.63 192.00
  A 0.37 0.37 0.0 0 1 237.00 192.37
  L 237.00 218.63
  Z
  M 235.6719 194.2566
  A 1.21 1.21 0.0 0 0 234.4513 193.0572
  L 233.7114 193.0637
  A 1.21 1.21 0.0 0 0 232.5120 194.2842
  L 232.7081 216.7634
  A 1.21 1.21 0.0 0 0 233.9287 217.9628
  L 234.6686 217.9563
  A 1.21 1.21 0.0 0 0 235.8680 216.7358
  L 235.6719 194.2566
  Z"
/>
<path fill="#000000" d="
  M 271.54 193.94
  Q 270.72 193.47 270.97 192.45
  A 0.59 0.59 0.0 0 1 271.54 192.00
  L 274.62 192.00
  A 2.38 2.37 -0.0 0 1 277.00 194.37
  L 277.00 219.50
  Q 277.00 220.00 276.50 220.00
  L 272.50 220.00
  Q 272.00 220.00 272.00 219.50
  L 272.01 194.76
  Q 272.01 194.22 271.54 193.94
  Z
  M 275.6203 194.3392
  A 1.25 1.25 0.0 0 0 274.3616 193.0980
  L 273.7016 193.1026
  A 1.25 1.25 0.0 0 0 272.4604 194.3613
  L 272.6197 217.1808
  A 1.25 1.25 0.0 0 0 273.8784 218.4220
  L 274.5384 218.4174
  A 1.25 1.25 0.0 0 0 275.7796 217.1587
  L 275.6203 194.3392
  Z"
/>
<path fill="#000000" d="
  M 296.99 198.32
  L 297.00 219.66
  A 0.34 0.34 0.0 0 1 296.66 220.00
  L 291.34 220.00
  A 0.34 0.34 0.0 0 1 291.00 219.66
  L 291.01 198.34
  A 0.34 0.34 0.0 0 0 290.67 198.00
  L 288.34 198.00
  A 0.34 0.34 0.0 0 1 288.00 197.66
  L 288.00 192.34
  A 0.34 0.34 0.0 0 1 288.34 192.00
  L 299.66 192.00
  A 0.34 0.34 0.0 0 1 300.00 192.34
  L 300.00 197.67
  A 0.34 0.34 0.0 0 1 299.66 198.01
  L 297.33 197.98
  A 0.34 0.34 0.0 0 0 296.99 198.32
  Z
  M 296.27 196.67
  L 297.76 196.68
  Q 298.70 196.69 298.71 195.74
  L 298.74 194.36
  Q 298.76 193.21 297.61 193.22
  L 289.97 193.26
  A 0.88 0.88 0.0 0 0 289.12 193.92
  Q 288.89 194.82 289.21 195.85
  Q 289.40 196.49 290.05 196.58
  L 291.59 196.81
  A 0.79 0.79 0.0 0 1 292.26 197.59
  L 292.27 217.20
  Q 292.27 218.38 293.45 218.38
  L 294.43 218.38
  Q 295.74 218.38 295.72 217.07
  L 295.48 197.48
  Q 295.47 196.67 296.27 196.67
  Z"
/>
<path fill="#ffffff" d="
  M 172.21 200.70
  Q 173.00 197.55 173.47 194.09
  A 1.91 1.90 1.5 0 1 175.20 192.46
  Q 175.48 192.44 175.78 192.42
  Q 177.14 192.33 176.84 193.67
  L 174.69 203.08
  A 6.54 6.49 44.8 0 0 174.71 206.06
  L 177.06 215.90
  Q 177.36 217.15 176.09 217.23
  L 175.62 217.26
  Q 174.11 217.36 173.82 215.87
  L 172.49 209.00
  Q 172.12 207.10 171.80 209.01
  L 170.65 215.79
  A 1.72 1.72 0.0 0 1 169.04 217.22
  L 168.49 217.24
  Q 167.16 217.31 167.37 216.00
  Q 167.99 212.17 169.06 208.29
  C 170.44 203.27 168.19 198.62 167.15 193.78
  Q 166.82 192.25 168.39 192.32
  Q 168.67 192.33 168.95 192.37
  Q 170.16 192.54 170.40 193.74
  L 171.79 200.69
  Q 171.98 201.63 172.21 200.70
  Z"
/>
<path fill="#ffffff" d="
  M 150.99 195.52
  Q 150.48 195.49 150.48 196.01
  L 150.46 201.44
  Q 150.46 202.17 151.19 202.14
  L 153.80 202.06
  Q 154.31 202.04 154.56 202.49
  Q 154.96 203.21 154.87 204.07
  Q 154.80 204.78 154.13 205.03
  Q 152.79 205.53 151.44 205.22
  Q 150.51 205.00 150.50 205.96
  L 150.49 212.99
  Q 150.49 213.73 151.24 213.74
  L 153.73 213.74
  A 1.17 1.17 0.0 0 1 154.89 214.85
  L 154.94 215.73
  Q 155.00 216.95 153.77 216.96
  L 148.67 216.99
  A 1.33 1.33 0.0 0 1 147.33 215.67
  L 147.23 193.22
  A 0.79 0.79 0.0 0 1 148.03 192.42
  L 153.30 192.47
  Q 154.63 192.48 154.72 193.80
  L 154.75 194.33
  A 1.24 1.24 0.0 0 1 153.45 195.65
  L 150.99 195.52
  Z"
/>
<path fill="#ffffff" d="
  M 254.33 215.20
  L 254.58 215.13
  Q 255.04 215.01 255.04 214.54
  L 255.13 209.41
  Q 255.14 208.71 255.84 208.72
  L 257.71 208.73
  A 0.91 0.91 0.0 0 1 258.62 209.60
  Q 258.73 211.95 258.70 214.52
  C 258.63 220.08 249.63 219.90 249.57 213.66
  Q 249.48 204.86 249.52 196.74
  C 249.54 191.17 258.69 190.96 258.60 197.71
  Q 258.58 199.27 258.66 200.82
  A 1.04 1.03 84.6 0 1 257.77 201.90
  L 255.97 202.14
  Q 255.20 202.25 255.16 201.47
  L 254.92 196.91
  Q 254.88 196.15 254.14 196.00
  L 253.86 195.95
  A 0.43 0.42 -84.5 0 0 253.36 196.37
  L 253.51 214.57
  A 0.66 0.66 0.0 0 0 254.33 215.20
  Z"
/>
<path fill="#ffffff" d="
  M 192.91 209.00
  L 193.01 216.48
  Q 193.03 217.75 191.76 217.76
  L 191.33 217.76
  Q 189.66 217.78 189.64 216.11
  L 189.47 194.48
  Q 189.45 192.56 191.38 192.62
  Q 193.53 192.68 195.41 193.21
  Q 198.20 193.99 198.44 196.88
  Q 198.71 200.16 198.62 204.06
  C 198.56 206.97 196.38 208.38 193.63 208.29
  A 0.70 0.70 0.0 0 0 192.91 209.00
  Z
  M 195.1234 197.1074
  A 1.16 1.16 0.0 0 0 193.9413 195.9699
  L 193.8413 195.9718
  A 1.16 1.16 0.0 0 0 192.7038 197.1539
  L 192.8366 204.0726
  A 1.16 1.16 0.0 0 0 194.0187 205.2101
  L 194.1187 205.2082
  A 1.16 1.16 0.0 0 0 195.2562 204.0261
  L 195.1234 197.1074
  Z"
/>
<path fill="#ffffff" d="
  M 216.19 214.49
  L 219.25 214.47
  A 0.66 0.66 0.0 0 1 219.92 215.09
  L 220.04 217.04
  A 0.66 0.66 0.0 0 1 219.38 217.74
  L 212.94 217.78
  A 0.66 0.66 0.0 0 1 212.28 217.13
  L 212.15 193.69
  A 0.66 0.66 0.0 0 1 212.78 193.02
  L 214.46 192.95
  A 0.66 0.66 0.0 0 1 215.15 193.60
  L 215.53 213.85
  A 0.66 0.66 0.0 0 0 216.19 214.49
  Z"
/>
<rect fill="#ffffff" x="-1.58" y="-12.45" transform="translate(234.19,205.51) rotate(-0.5)" width="3.16" height="24.90" rx="1.21"/>
<rect fill="#ffffff" x="-1.58" y="-12.66" transform="translate(274.12,205.76) rotate(-0.4)" width="3.16" height="25.32" rx="1.25"/>
<ellipse fill="#000000" cx="0.00" cy="0.00" transform="translate(330.36,194.60) rotate(45.3)" rx="1.65" ry="1.36"/>
<path fill="#000000" d="
  M 346.28 197.70
  Q 348.11 199.77 345.84 201.72
  Q 345.47 202.03 344.99 201.96
  Q 344.34 201.87 344.03 202.45
  Q 343.83 202.83 343.42 202.94
  Q 343.01 203.06 342.57 203.00
  Q 341.99 202.93 342.00 202.34
  L 342.02 201.76
  Q 342.03 201.17 341.49 200.96
  Q 340.75 200.66 341.00 199.94
  Q 341.11 199.63 341.01 199.31
  Q 340.92 199.00 340.72 198.99
  Q 340.49 198.97 340.33 199.14
  Q 339.39 200.11 338.41 201.03
  Q 338.00 201.42 338.00 201.98
  L 337.99 209.26
  Q 337.99 209.84 338.54 210.07
  Q 338.69 210.14 338.78 210.30
  Q 338.89 210.47 338.90 210.68
  Q 339.01 211.88 340.17 212.80
  Q 340.48 213.05 340.80 212.81
  Q 341.91 211.98 342.19 210.87
  A 0.65 0.65 0.0 0 0 341.73 210.08
  Q 341.26 209.95 340.75 209.99
  Q 340.00 210.05 340.00 209.29
  L 340.00 204.50
  Q 340.00 204.00 340.50 204.00
  L 346.25 204.00
  Q 347.00 204.00 347.00 204.75
  L 347.00 214.94
  Q 347.00 215.45 346.64 215.81
  L 342.81 219.64
  Q 342.45 220.00 341.95 220.00
  L 339.17 219.99
  Q 338.59 219.99 338.17 219.58
  L 335.36 216.81
  Q 334.97 216.43 335.02 215.88
  Q 335.10 215.18 334.41 214.93
  Q 333.89 214.75 334.02 214.21
  Q 334.23 213.36 333.46 212.98
  Q 333.00 212.75 333.00 212.23
  L 333.00 200.23
  A 1.85 1.82 63.4 0 1 333.35 199.15
  Q 334.84 197.09 335.11 194.89
  A 2.14 2.14 0.0 0 1 337.31 193.01
  Q 339.31 193.08 341.57 192.92
  Q 343.38 192.80 344.62 193.92
  Q 346.20 195.36 346.07 197.08
  Q 346.05 197.43 346.28 197.70
  Z
  M 337.93 212.32
  C 336.79 209.05 335.92 201.54 338.82 198.44
  Q 339.18 198.05 339.70 198.01
  Q 342.08 197.80 342.74 200.53
  A 0.80 0.80 0.0 0 0 343.91 201.04
  L 344.37 200.78
  Q 345.63 200.08 345.30 198.67
  Q 344.41 194.94 341.94 194.03
  C 333.47 190.94 334.37 206.19 334.54 210.04
  C 334.73 214.48 337.57 221.29 343.28 217.33
  Q 345.66 215.69 345.70 213.18
  Q 345.77 209.75 345.71 206.21
  Q 345.69 205.24 344.73 205.24
  L 341.79 205.21
  A 1.09 1.08 -82.1 0 0 340.73 206.02
  Q 339.94 208.92 342.66 209.30
  Q 343.07 209.36 343.18 209.76
  Q 343.87 212.36 342.07 213.67
  C 340.51 214.81 338.53 214.06 337.93 212.32
  Z"
/>
<path fill="#000000" d="
  M 364.64 203.13
  Q 364.81 203.17 364.89 203.32
  Q 364.98 203.50 364.98 203.70
  Q 365.03 207.00 364.97 210.29
  Q 364.96 210.85 365.49 211.03
  Q 365.66 211.08 365.78 211.23
  Q 366.01 211.50 366.00 211.85
  L 365.98 214.03
  Q 365.97 214.51 366.30 214.87
  Q 367.63 216.33 366.86 218.34
  Q 365.95 220.71 362.49 219.90
  Q 361.99 219.78 362.00 219.27
  L 362.02 216.95
  Q 362.03 216.42 361.61 216.10
  Q 360.63 215.35 361.06 214.04
  A 0.86 0.86 0.0 0 0 360.24 212.92
  Q 359.24 212.93 358.49 213.87
  C 357.62 214.99 358.08 216.37 358.01 217.66
  A 2.54 2.52 -5.3 0 1 356.06 220.00
  Q 354.61 220.34 353.58 219.15
  C 352.59 218.01 353.06 216.35 352.97 214.96
  Q 352.94 214.45 353.30 214.10
  Q 353.43 213.97 353.59 213.91
  Q 354.02 213.73 354.02 213.27
  L 353.99 210.76
  Q 353.99 210.20 354.51 210.00
  Q 354.72 209.93 354.84 209.75
  Q 355.01 209.49 355.01 209.19
  L 355.00 203.94
  A 1.07 1.07 0.0 0 1 355.41 203.10
  L 355.69 202.88
  Q 356.16 202.51 356.03 201.92
  Q 355.62 200.06 356.65 198.64
  Q 357.01 198.16 357.01 197.56
  L 357.00 194.00
  Q 357.00 193.00 358.00 193.00
  L 362.00 193.00
  Q 363.00 193.00 363.00 194.00
  L 362.99 198.26
  Q 362.99 198.82 363.52 199.03
  Q 363.65 199.08 363.74 199.19
  A 1.06 0.97 27.6 0 1 364.00 199.91
  Q 363.93 201.03 364.03 202.40
  Q 364.07 202.99 364.64 203.13
  Z
  M 358.67 211.75
  L 361.24 211.74
  Q 361.97 211.74 362.09 212.47
  L 362.78 216.97
  A 1.55 1.54 -5.9 0 0 364.40 218.28
  Q 364.56 218.27 364.72 218.25
  A 0.82 0.82 0.0 0 0 365.42 217.30
  L 361.65 195.02
  A 1.61 1.61 0.0 0 0 360.42 193.72
  Q 358.45 193.27 358.11 195.35
  Q 356.27 206.85 354.38 217.08
  A 1.00 0.99 5.3 0 0 355.36 218.25
  L 355.77 218.25
  Q 356.81 218.25 356.98 217.23
  L 357.71 212.57
  Q 357.84 211.75 358.67 211.75
  Z"
/>
<path fill="#000000" d="
  M 379.46 197.08
  Q 380.23 197.53 380.00 198.38
  A 0.51 0.51 0.0 0 0 380.53 199.03
  Q 380.86 199.00 381.03 198.63
  A 0.20 0.17 -40.3 0 0 381.04 198.57
  L 381.00 195.35
  Q 380.97 193.33 382.97 193.11
  Q 384.26 192.96 385.83 192.89
  Q 387.00 192.84 387.00 194.01
  L 387.00 219.50
  Q 387.00 220.00 386.50 220.00
  L 383.48 220.00
  A 0.51 0.50 -89.4 0 1 382.98 219.48
  L 383.05 217.42
  Q 383.07 217.02 382.67 217.03
  L 382.23 217.05
  Q 382.02 217.05 382.02 217.27
  L 382.00 219.29
  Q 381.99 219.80 381.51 219.95
  Q 379.77 220.51 378.86 219.31
  Q 378.53 218.87 377.98 218.91
  Q 377.24 218.96 376.92 219.57
  A 0.88 0.86 8.7 0 1 376.28 220.03
  Q 374.39 220.34 373.27 218.81
  A 1.41 1.37 27.6 0 1 373.00 217.99
  L 373.00 193.87
  Q 373.00 193.00 373.88 193.00
  L 378.13 193.00
  Q 379.01 193.00 379.00 193.88
  L 378.98 196.23
  Q 378.98 196.79 379.46 197.08
  Z
  M 377.01 204.37
  Q 378.03 210.78 378.92 217.12
  Q 379.12 218.51 380.48 218.09
  A 1.14 1.14 0.0 0 0 381.28 217.19
  Q 382.39 210.49 383.11 203.79
  Q 383.13 203.63 383.29 203.63
  L 383.30 203.63
  Q 383.54 203.64 383.55 203.89
  Q 383.81 210.54 383.73 216.84
  Q 383.72 217.83 384.62 218.24
  Q 384.74 218.29 384.87 218.28
  Q 386.04 218.19 386.03 217.01
  L 386.01 195.21
  Q 386.01 193.90 384.71 193.79
  L 384.42 193.77
  Q 382.71 193.62 382.45 195.32
  L 380.31 209.24
  Q 380.15 210.28 379.99 209.24
  L 377.81 194.78
  A 1.11 1.10 -84.0 0 0 377.12 193.92
  Q 376.04 193.49 374.93 193.83
  Q 374.25 194.04 374.25 194.74
  L 374.26 217.21
  Q 374.26 218.31 375.35 218.26
  Q 375.57 218.25 375.79 218.25
  Q 376.69 218.25 376.68 217.35
  Q 376.57 210.63 376.82 204.38
  Q 376.85 203.41 377.01 204.37
  Z"
/>
<path fill="#000000" d="
  M 399.49 198.99
  Q 398.97 198.99 398.98 199.51
  L 399.00 202.51
  A 0.51 0.50 0.0 0 0 399.51 203.01
  L 404.75 203.00
  A 0.25 0.24 90.0 0 1 404.99 203.25
  L 405.00 208.75
  A 0.25 0.25 0.0 0 1 404.75 209.00
  L 399.49 208.99
  Q 398.98 208.99 398.98 209.51
  L 399.00 212.51
  Q 399.00 213.02 399.51 213.01
  L 405.00 213.00
  Q 406.00 213.00 406.00 214.00
  L 406.00 217.62
  Q 406.00 220.00 403.62 220.00
  L 396.50 220.00
  A 2.50 2.50 0.0 0 1 394.00 217.50
  L 394.00 193.50
  A 0.50 0.49 -0.0 0 1 394.50 193.01
  L 405.75 193.01
  Q 406.00 193.01 406.00 193.25
  L 406.00 198.75
  A 0.25 0.25 0.0 0 1 405.75 199.00
  L 399.49 198.99
  Z
  M 398.72 203.70
  A 0.92 0.92 0.0 0 1 397.81 202.76
  L 397.93 198.78
  A 0.92 0.92 0.0 0 1 398.87 197.89
  L 403.85 197.99
  A 0.92 0.92 0.0 0 0 404.78 196.99
  L 404.58 194.61
  A 0.92 0.92 0.0 0 0 403.65 193.77
  L 396.25 193.88
  A 0.92 0.92 0.0 0 0 395.34 194.80
  L 395.30 217.35
  A 0.92 0.92 0.0 0 0 396.22 218.27
  L 404.00 218.26
  A 0.92 0.92 0.0 0 0 404.92 217.34
  L 404.92 214.87
  A 0.92 0.92 0.0 0 0 403.96 213.95
  L 398.81 214.19
  A 0.92 0.92 0.0 0 1 397.85 213.24
  L 398.00 208.68
  A 0.92 0.92 0.0 0 1 398.91 207.79
  L 403.26 207.75
  A 0.92 0.92 0.0 0 0 404.17 206.79
  L 404.09 204.61
  A 0.92 0.92 0.0 0 0 403.17 203.73
  L 398.72 203.70
  Z"
/>
<path fill="#000000" d="
  M 414.01 194.50
  L 414.00 193.68
  Q 413.99 192.94 414.73 192.95
  Q 418.18 193.02 420.74 193.00
  A 2.50 2.20 87.3 0 1 422.98 195.31
  Q 423.02 195.84 423.51 196.05
  A 0.83 0.83 0.0 0 1 424.00 196.81
  L 424.00 200.49
  Q 424.00 200.99 423.51 200.99
  L 419.75 201.00
  Q 418.98 201.01 419.00 200.25
  L 419.01 199.61
  A 0.63 0.63 0.0 0 0 418.36 198.97
  L 417.56 198.99
  Q 417.00 199.00 416.95 199.55
  Q 416.82 200.93 418.25 201.77
  Q 418.73 202.04 419.27 202.01
  Q 419.73 201.99 419.91 202.42
  Q 420.11 202.91 420.65 202.95
  Q 421.97 203.06 422.80 204.34
  Q 423.07 204.76 422.99 205.25
  Q 422.90 205.85 423.49 206.04
  A 0.76 0.76 0.0 0 1 424.01 206.79
  L 423.97 208.03
  Q 423.96 208.52 424.30 208.86
  Q 425.54 210.12 424.87 212.55
  Q 424.81 212.78 424.60 212.92
  Q 423.62 213.58 424.03 214.84
  A 0.92 0.91 -20.7 0 1 423.51 215.97
  Q 422.90 216.22 423.00 216.87
  A 0.97 0.97 0.0 0 1 422.73 217.71
  L 420.84 219.63
  Q 420.48 219.99 419.97 219.99
  L 416.05 220.00
  Q 415.55 220.00 415.19 219.64
  L 413.35 217.80
  Q 412.95 217.40 413.01 216.84
  Q 413.08 216.26 412.56 215.98
  Q 412.00 215.68 412.00 215.04
  L 412.00 210.75
  Q 412.00 210.00 412.75 210.00
  L 416.26 210.00
  Q 417.02 210.00 417.01 210.76
  L 416.98 212.30
  Q 416.97 212.96 417.63 212.99
  Q 418.95 213.06 419.75 211.80
  Q 419.99 211.43 419.68 211.12
  L 417.74 209.19
  A 0.81 0.79 -23.6 0 0 417.13 208.96
  Q 416.96 208.97 416.79 209.00
  Q 416.58 209.04 416.43 208.89
  L 413.34 205.77
  Q 412.99 205.41 413.00 204.90
  L 413.01 203.15
  Q 413.02 202.62 412.66 202.22
  Q 411.54 200.97 412.08 198.61
  A 1.06 1.03 79.5 0 1 412.50 197.98
  Q 413.31 197.44 413.02 196.40
  Q 412.84 195.76 413.19 195.19
  Q 413.29 195.01 413.51 195.01
  Q 414.02 195.01 414.01 194.50
  Z
  M 416.44 198.36
  C 416.89 197.08 418.44 197.16 419.33 197.77
  Q 419.78 198.07 419.96 198.58
  L 420.48 200.00
  Q 420.69 200.57 421.24 200.31
  L 422.29 199.83
  Q 422.84 199.57 422.81 198.96
  C 422.64 195.27 420.17 192.45 416.40 194.08
  C 412.55 195.74 413.27 202.43 414.72 205.30
  C 416.33 208.48 422.08 207.67 420.47 213.01
  A 2.07 2.07 0.0 0 1 417.97 214.42
  Q 416.04 213.92 415.84 212.10
  Q 415.73 211.16 414.78 211.21
  L 414.24 211.24
  Q 413.25 211.30 413.20 212.30
  Q 413.09 214.82 414.84 217.00
  C 416.76 219.40 420.68 218.92 422.06 216.34
  Q 423.80 213.10 422.93 208.20
  C 422.41 205.30 420.21 203.96 417.69 203.01
  A 1.80 1.74 -9.5 0 1 416.95 202.50
  Q 415.54 200.92 416.44 198.36
  Z"
/>
<path fill="#ffffff" d="
  M 295.48 197.48
  L 295.72 217.07
  Q 295.74 218.38 294.43 218.38
  L 293.45 218.38
  Q 292.27 218.38 292.27 217.20
  L 292.26 197.59
  A 0.79 0.79 0.0 0 0 291.59 196.81
  L 290.05 196.58
  Q 289.40 196.49 289.21 195.85
  Q 288.89 194.82 289.12 193.92
  A 0.88 0.88 0.0 0 1 289.97 193.26
  L 297.61 193.22
  Q 298.76 193.21 298.74 194.36
  L 298.71 195.74
  Q 298.70 196.69 297.76 196.68
  L 296.27 196.67
  Q 295.47 196.67 295.48 197.48
  Z"
/>
<path fill="#ffffff" d="
  M 338.82 198.44
  C 335.92 201.54 336.79 209.05 337.93 212.32
  C 338.53 214.06 340.51 214.81 342.07 213.67
  Q 343.87 212.36 343.18 209.76
  Q 343.07 209.36 342.66 209.30
  Q 339.94 208.92 340.73 206.02
  A 1.09 1.08 -82.1 0 1 341.79 205.21
  L 344.73 205.24
  Q 345.69 205.24 345.71 206.21
  Q 345.77 209.75 345.70 213.18
  Q 345.66 215.69 343.28 217.33
  C 337.57 221.29 334.73 214.48 334.54 210.04
  C 334.37 206.19 333.47 190.94 341.94 194.03
  Q 344.41 194.94 345.30 198.67
  Q 345.63 200.08 344.37 200.78
  L 343.91 201.04
  A 0.80 0.80 0.0 0 1 342.74 200.53
  Q 342.08 197.80 339.70 198.01
  Q 339.18 198.05 338.82 198.44
  Z"
/>
<path fill="#ffffff" d="
  M 357.71 212.57
  L 356.98 217.23
  Q 356.81 218.25 355.77 218.25
  L 355.36 218.25
  A 1.00 0.99 5.3 0 1 354.38 217.08
  Q 356.27 206.85 358.11 195.35
  Q 358.45 193.27 360.42 193.72
  A 1.61 1.61 0.0 0 1 361.65 195.02
  L 365.42 217.30
  A 0.82 0.82 0.0 0 1 364.72 218.25
  Q 364.56 218.27 364.40 218.28
  A 1.55 1.54 -5.9 0 1 362.78 216.97
  L 362.09 212.47
  Q 361.97 211.74 361.24 211.74
  L 358.67 211.75
  Q 357.84 211.75 357.71 212.57
  Z
  M 361.25 207.04
  L 360.16 200.54
  Q 359.94 199.22 359.68 200.53
  Q 359.05 203.84 358.62 207.31
  A 0.64 0.64 0.0 0 0 359.27 208.03
  L 360.46 208.00
  Q 361.41 207.97 361.25 207.04
  Z"
/>
<path fill="#ffffff" d="
  M 376.82 204.38
  Q 376.57 210.63 376.68 217.35
  Q 376.69 218.25 375.79 218.25
  Q 375.57 218.25 375.35 218.26
  Q 374.26 218.31 374.26 217.21
  L 374.25 194.74
  Q 374.25 194.04 374.93 193.83
  Q 376.04 193.49 377.12 193.92
  A 1.11 1.10 -84.0 0 1 377.81 194.78
  L 379.99 209.24
  Q 380.15 210.28 380.31 209.24
  L 382.45 195.32
  Q 382.71 193.62 384.42 193.77
  L 384.71 193.79
  Q 386.01 193.90 386.01 195.21
  L 386.03 217.01
  Q 386.04 218.19 384.87 218.28
  Q 384.74 218.29 384.62 218.24
  Q 383.72 217.83 383.73 216.84
  Q 383.81 210.54 383.55 203.89
  Q 383.54 203.64 383.30 203.63
  L 383.29 203.63
  Q 383.13 203.63 383.11 203.79
  Q 382.39 210.49 381.28 217.19
  A 1.14 1.14 0.0 0 1 380.48 218.09
  Q 379.12 218.51 378.92 217.12
  Q 378.03 210.78 377.01 204.37
  Q 376.85 203.41 376.82 204.38
  Z"
/>
<path fill="#ffffff" d="
  M 398.72 203.70
  L 403.17 203.73
  A 0.92 0.92 0.0 0 1 404.09 204.61
  L 404.17 206.79
  A 0.92 0.92 0.0 0 1 403.26 207.75
  L 398.91 207.79
  A 0.92 0.92 0.0 0 0 398.00 208.68
  L 397.85 213.24
  A 0.92 0.92 0.0 0 0 398.81 214.19
  L 403.96 213.95
  A 0.92 0.92 0.0 0 1 404.92 214.87
  L 404.92 217.34
  A 0.92 0.92 0.0 0 1 404.00 218.26
  L 396.22 218.27
  A 0.92 0.92 0.0 0 1 395.30 217.35
  L 395.34 194.80
  A 0.92 0.92 0.0 0 1 396.25 193.88
  L 403.65 193.77
  A 0.92 0.92 0.0 0 1 404.58 194.61
  L 404.78 196.99
  A 0.92 0.92 0.0 0 1 403.85 197.99
  L 398.87 197.89
  A 0.92 0.92 0.0 0 0 397.93 198.78
  L 397.81 202.76
  A 0.92 0.92 0.0 0 0 398.72 203.70
  Z"
/>
<path fill="#ffffff" d="
  M 416.44 198.36
  Q 415.54 200.92 416.95 202.50
  A 1.80 1.74 -9.5 0 0 417.69 203.01
  C 420.21 203.96 422.41 205.30 422.93 208.20
  Q 423.80 213.10 422.06 216.34
  C 420.68 218.92 416.76 219.40 414.84 217.00
  Q 413.09 214.82 413.20 212.30
  Q 413.25 211.30 414.24 211.24
  L 414.78 211.21
  Q 415.73 211.16 415.84 212.10
  Q 416.04 213.92 417.97 214.42
  A 2.07 2.07 0.0 0 0 420.47 213.01
  C 422.08 207.67 416.33 208.48 414.72 205.30
  C 413.27 202.43 412.55 195.74 416.40 194.08
  C 420.17 192.45 422.64 195.27 422.81 198.96
  Q 422.84 199.57 422.29 199.83
  L 421.24 200.31
  Q 420.69 200.57 420.48 200.00
  L 419.96 198.58
  Q 419.78 198.07 419.33 197.77
  C 418.44 197.16 416.89 197.08 416.44 198.36
  Z"
/>
<rect fill="#000000" x="-1.21" y="-4.62" transform="translate(193.98,200.59) rotate(-1.1)" width="2.42" height="9.24" rx="1.16"/>
<path fill="#000000" d="
  M 361.25 207.04
  Q 361.41 207.97 360.46 208.00
  L 359.27 208.03
  A 0.64 0.64 0.0 0 1 358.62 207.31
  Q 359.05 203.84 359.68 200.53
  Q 359.94 199.22 360.16 200.54
  L 361.25 207.04
  Z"
/>
</svg>
