<?xml version="1.0" encoding="UTF-8" standalone="no"?>
<!DOCTYPE svg PUBLIC "-//W3C//DTD SVG 1.1//EN" "http://www.w3.org/Graphics/SVG/1.1/DTD/svg11.dtd">
<svg xmlns="http://www.w3.org/2000/svg" version="1.1" viewBox="0.00 0.00 590.00 255.00">
<g stroke-width="2.00" fill="none" stroke-linecap="butt">
<path stroke="#0d2405" vector-effect="non-scaling-stroke" d="
  M 356.89 93.25
  Q 355.80 91.16 353.83 89.67
  Q 353.30 89.27 353.15 89.91
  L 352.26 93.74
  A 2.18 2.15 -17.3 0 1 351.71 94.77
  Q 349.81 96.78 349.21 99.19
  Q 349.06 99.79 348.63 100.23
  Q 347.93 100.96 347.62 101.86
  Q 347.34 102.69 348.21 102.68
  Q 353.59 102.65 356.94 99.06"
/>
<path stroke="#0d4307" vector-effect="non-scaling-stroke" d="
  M 455.02 130.77
  Q 454.06 127.45 453.22 125.96
  Q 450.71 121.48 450.78 126.62
  Q 450.81 128.51 451.08 130.44
  A 2.06 2.03 59.3 0 1 450.71 131.94
  Q 450.00 132.91 450.28 134.05
  Q 450.50 134.98 450.52 135.93
  Q 450.55 136.91 449.70 137.49
  A 0.94 0.93 82.2 0 0 449.33 137.98
  Q 448.18 141.56 447.34 145.00
  Q 447.31 145.14 447.20 145.19
  A 0.55 0.33 -82.5 0 0 446.98 145.47
  L 445.03 150.97"
/>
<path stroke="#127e0b" vector-effect="non-scaling-stroke" d="
  M 445.03 150.97
  Q 432.76 167.61 412.67 165.95
  Q 410.11 165.73 412.13 167.31
  Q 413.20 168.15 414.77 169.78"
/>
<path stroke="#0d4307" vector-effect="non-scaling-stroke" d="
  M 414.77 169.78
  Q 419.62 172.88 426.64 171.39
  Q 427.86 171.14 429.14 170.05
  Q 429.51 169.73 429.99 169.62
  Q 437.19 167.98 442.61 163.14
  A 1.01 0.98 21.4 0 1 443.23 162.88
  Q 443.82 162.84 444.13 162.38
  Q 444.84 161.30 446.03 161.38"
/>
<path stroke="#0d2405" vector-effect="non-scaling-stroke" d="
  M 356.94 93.68
  L 357.31 97.99"
/>
<path stroke="#14ad0e" vector-effect="non-scaling-stroke" d="
  M 414.77 169.78
  Q 416.66 170.33 418.57 170.78
  Q 420.53 171.24 422.43 170.99
  Q 436.40 169.10 445.98 158.72
  Q 446.03 158.66 446.77 158.05
  Q 447.28 157.63 447.40 156.95
  Q 447.51 156.29 447.97 155.79
  Q 450.34 153.23 450.35 149.35
  A 1.67 1.66 70.2 0 0 447.62 148.06
  C 446.56 148.95 446.52 150.52 445.03 150.97"
/>
<path stroke="#0c5d09" vector-effect="non-scaling-stroke" d="
  M 260.85 94.86
  Q 257.75 90.52 252.51 87.84
  Q 249.64 86.37 250.60 89.45
  C 251.30 91.68 251.95 97.08 248.63 97.39
  Q 241.70 98.05 234.98 98.59
  Q 232.53 98.78 232.56 101.24
  L 232.57 101.90
  Q 232.61 104.32 235.01 104.05
  Q 242.16 103.25 249.60 103.29
  A 2.01 2.00 -0.9 0 1 251.60 105.22
  C 251.70 107.63 252.23 114.18 248.51 114.40
  Q 243.52 114.69 238.42 114.93
  Q 236.31 115.03 236.35 117.14
  L 236.43 121.51
  Q 236.48 123.93 238.82 123.32
  Q 245.56 121.58 251.88 121.16
  Q 252.37 121.13 252.47 120.65
  C 253.44 116.11 255.76 112.24 258.04 108.19
  Q 258.30 107.73 258.13 107.22
  Q 257.60 105.56 255.68 105.61
  Q 254.97 105.62 254.52 105.08
  Q 253.99 104.43 254.77 104.13
  Q 255.71 103.77 256.67 103.88
  Q 257.16 103.94 257.56 103.66
  Q 259.63 102.21 260.79 99.25"
/>
<path stroke="#850a02" vector-effect="non-scaling-stroke" d="
  M 323.48 107.02
  Q 323.18 105.18 323.57 103.40
  Q 325.13 96.41 327.36 88.64
  Q 327.97 86.52 328.07 84.38
  Q 328.14 82.86 326.63 82.65
  L 317.14 81.35
  A 2.23 2.23 0.0 0 0 314.71 82.87
  Q 312.94 88.31 312.08 92.77
  Q 306.00 124.24 302.58 154.82
  Q 302.20 158.23 305.76 159.34
  Q 310.22 160.74 314.51 161.50
  A 1.04 1.03 -81.1 0 0 315.71 160.62
  Q 316.94 151.44 318.06 141.37
  Q 318.18 140.32 318.61 139.50
  A 1.25 1.25 0.0 0 1 320.70 139.30
  C 323.46 142.77 326.26 146.20 328.69 149.91
  Q 332.65 155.91 337.54 161.81
  A 2.17 2.17 0.0 0 0 340.15 162.39
  Q 343.14 160.98 345.33 158.18
  Q 346.82 156.26 348.68 154.63
  A 2.59 2.58 -40.0 0 0 349.00 151.08
  L 331.60 129.11
  A 3.83 3.83 0.0 0 1 331.32 124.73
  Q 340.60 109.38 350.76 93.66
  Q 351.36 92.73 351.59 91.74
  Q 351.85 90.61 352.13 89.53
  Q 352.27 89.00 351.86 88.64
  Q 350.92 87.80 349.80 87.21
  Q 347.21 85.84 344.80 84.29
  C 340.41 81.45 337.76 85.70 335.97 89.02
  Q 331.99 96.34 327.83 104.17
  Q 326.56 106.56 324.27 107.46
  A 0.59 0.58 -15.5 0 1 323.48 107.02"
/>
<path stroke="#0d2405" vector-effect="non-scaling-stroke" d="
  M 325.47 105.71
  C 327.03 104.44 329.05 100.23 329.74 98.33
  C 330.75 95.54 332.41 93.04 333.99 90.53
  A 2.02 2.01 42.9 0 0 333.90 88.26
  L 331.72 85.29
  Q 329.19 81.85 328.67 86.08
  C 328.35 88.73 327.81 91.26 326.96 93.80
  Q 325.01 99.66 324.21 104.99
  Q 323.91 106.97 325.47 105.71"
/>
<path stroke="#850a02" vector-effect="non-scaling-stroke" d="
  M 356.05 157.86
  C 359.39 157.48 363.26 155.92 366.34 154.70
  A 3.00 2.99 74.7 0 0 368.20 151.44
  L 360.53 103.68
  A 2.25 2.25 0.0 0 0 357.68 101.87
  L 349.30 104.33
  A 2.09 2.09 0.0 0 0 347.80 106.46
  C 348.45 116.84 349.24 127.52 351.17 137.71
  Q 352.13 142.80 352.26 148.02
  Q 352.32 150.28 353.40 152.22
  Q 353.63 152.63 353.65 153.10
  Q 353.79 155.49 355.11 157.42
  A 1.02 1.01 70.0 0 0 356.05 157.86"
/>
<path stroke="#10650a" vector-effect="non-scaling-stroke" d="
  M 346.62 103.53
  L 346.38 103.44
  Q 346.09 103.33 345.96 103.62
  Q 344.21 107.69 341.42 111.09
  C 338.02 115.23 335.32 120.41 332.41 125.01
  Q 331.17 126.97 332.70 128.73
  L 334.88 131.22
  Q 336.30 132.86 337.22 130.89
  Q 339.53 125.93 343.17 121.35
  Q 344.80 119.31 345.73 116.79
  Q 346.71 114.16 346.23 112.00
  Q 345.25 107.51 346.66 103.61
  Q 346.68 103.55 346.62 103.53"
/>
<path stroke="#850a02" vector-effect="non-scaling-stroke" d="
  M 397.92 157.21
  C 402.04 154.01 405.25 149.34 406.51 144.25
  C 407.77 139.15 407.53 134.70 407.56 129.62
  C 407.61 122.52 401.78 117.91 396.00 114.76
  Q 393.82 113.57 391.20 113.60
  Q 383.23 113.71 376.68 114.03
  Q 375.40 114.10 375.16 115.36
  C 374.27 119.98 373.44 124.34 373.19 129.06
  Q 372.68 138.91 372.30 149.16
  C 372.13 153.62 371.52 158.06 371.81 162.51
  A 1.60 1.59 -89.8 0 0 373.28 164.00
  Q 387.76 165.11 397.92 157.21"
/>
<path stroke="#850a02" vector-effect="non-scaling-stroke" d="
  M 445.17 145.57
  Q 445.98 143.38 446.28 140.58
  Q 446.31 140.29 446.54 140.13
  Q 446.87 139.88 446.88 139.47
  Q 447.04 135.06 446.87 130.32
  Q 446.57 121.85 439.39 117.71
  Q 439.05 117.51 438.91 117.13
  Q 438.72 116.65 438.00 116.72
  Q 436.65 116.09 435.46 115.26
  C 434.24 114.41 432.55 114.02 431.08 113.97
  Q 423.70 113.73 416.57 113.90
  A 2.48 2.47 -85.9 0 0 414.19 115.97
  C 413.54 119.89 412.78 123.84 412.59 127.80
  Q 411.74 145.70 410.93 162.87
  Q 410.87 164.20 412.20 164.25
  Q 415.64 164.38 419.72 164.17
  Q 424.03 163.94 427.19 162.87
  Q 436.83 159.60 443.13 150.88
  C 444.22 149.36 444.52 147.32 445.17 145.57"
/>
<path stroke="#127e0b" vector-effect="non-scaling-stroke" d="
  M 355.85 160.43
  C 357.66 163.08 359.09 165.48 362.90 163.55
  Q 363.30 163.35 363.73 163.36
  Q 364.84 163.39 365.65 162.81
  C 366.78 161.99 368.10 161.55 369.35 160.93
  A 1.24 1.24 0.0 0 0 370.03 159.99
  Q 371.85 146.76 371.10 134.30
  Q 371.02 132.97 369.77 132.54
  Q 369.14 132.33 368.56 132.00
  Q 367.18 131.22 367.27 132.81
  Q 367.54 137.70 368.02 142.84
  C 368.36 146.49 369.43 149.84 369.07 153.60
  Q 368.92 155.17 367.43 155.71
  L 356.03 159.86
  Q 355.58 160.03 355.85 160.43"
/>
<path stroke="#127e0b" vector-effect="non-scaling-stroke" d="
  M 314.96 168.51
  Q 318.15 169.10 321.48 168.40
  Q 323.27 168.03 323.60 166.35
  Q 325.06 159.06 326.71 151.51
  A 4.46 4.45 32.6 0 0 325.90 147.86
  Q 325.10 146.81 320.75 141.12
  Q 319.74 139.80 319.51 141.45
  L 316.67 161.89
  Q 316.48 163.30 315.09 162.96
  L 302.69 159.89
  A 0.44 0.44 0.0 0 0 302.19 160.51
  Q 304.45 165.22 308.76 166.87
  Q 311.25 167.82 314.96 168.51"
/>
<path stroke="#127e0b" vector-effect="non-scaling-stroke" d="
  M 393.66 168.34
  Q 396.55 166.99 400.09 164.80
  Q 402.30 163.44 404.54 161.24
  Q 406.64 159.18 408.72 157.33
  A 2.54 2.54 0.0 0 0 409.56 155.61
  Q 409.98 149.38 410.02 143.83
  Q 410.08 136.48 408.32 143.62
  C 407.67 146.24 407.00 148.98 405.42 151.24
  Q 402.58 155.29 399.59 157.58
  Q 398.17 158.67 394.74 160.77
  Q 391.90 162.51 389.58 163.36
  Q 380.78 166.56 371.52 165.14
  A 0.41 0.41 0.0 0 0 371.11 165.77
  Q 373.82 169.85 377.83 171.08
  C 379.93 171.72 384.11 171.55 386.25 170.96
  Q 390.66 169.74 393.66 168.34"
/>
<path stroke="#127e0b" vector-effect="non-scaling-stroke" d="
  M 351.50 153.75
  L 340.60 164.20
  A 0.03 0.03 0.0 0 0 340.60 164.24
  L 340.66 164.30
  A 5.78 5.62 46.2 0 0 348.72 164.59
  L 351.55 161.87
  A 5.78 5.62 46.2 0 0 351.60 153.81
  L 351.54 153.75
  A 0.03 0.03 0.0 0 0 351.50 153.75"
/>
<path stroke="#810201" vector-effect="non-scaling-stroke" d="
  M 154.82 142.24
  A 4.67 4.66 8.9 0 1 159.49 138.84
  L 174.27 139.38
  Q 175.45 139.42 175.55 140.60
  Q 175.92 145.03 176.63 149.16
  Q 176.88 150.60 176.71 152.26
  Q 176.55 153.73 177.04 155.16
  C 178.00 157.98 177.57 161.08 177.80 163.99
  Q 177.87 164.88 178.76 164.88
  L 189.41 164.85
  Q 191.52 164.85 191.45 162.74
  Q 190.88 147.65 188.23 131.14
  Q 185.23 112.39 181.35 94.14
  C 180.63 90.74 178.75 87.39 174.97 87.12
  Q 169.67 86.73 164.71 87.33
  Q 164.03 87.41 163.52 87.87
  Q 160.58 90.57 159.33 93.90
  Q 156.78 100.75 154.50 108.59
  C 154.12 109.91 153.45 110.81 153.04 112.06
  Q 148.75 125.03 144.53 136.76
  Q 144.37 137.21 144.07 137.57
  Q 143.75 137.94 143.83 138.47
  Q 143.92 139.01 143.69 139.50
  L 142.05 143.10
  Q 141.87 143.49 141.87 143.91
  Q 141.88 144.92 141.42 145.80
  Q 140.91 146.77 140.59 147.77
  Q 138.66 153.75 136.58 160.29
  Q 136.28 161.23 137.20 161.59
  Q 141.58 163.32 146.90 164.00
  C 148.63 164.22 149.46 162.63 149.81 161.21
  Q 152.22 151.57 154.82 142.24"
/>
<path stroke="#0e760a" vector-effect="non-scaling-stroke" d="
  M 186.73 116.34
  Q 187.47 120.81 188.30 125.54
  Q 191.42 143.46 192.39 159.66
  C 192.52 161.85 193.15 165.28 190.04 165.74
  Q 184.07 166.61 179.27 166.45
  Q 176.63 166.36 178.64 168.08
  L 180.67 169.82
  Q 182.49 171.37 184.88 171.37
  L 195.27 171.37
  Q 195.78 171.37 196.21 171.08
  Q 198.17 169.75 198.57 167.61
  C 198.92 165.77 199.43 163.34 197.08 162.56
  A 2.90 2.89 11.6 0 1 195.11 159.59
  Q 195.66 152.46 196.94 145.46
  Q 197.57 141.99 197.39 138.35
  Q 197.19 134.10 196.40 131.21
  Q 195.49 127.88 195.25 124.79
  Q 195.07 122.49 194.53 120.55
  Q 193.93 118.41 193.58 116.32"
/>
<path stroke="#093b06" vector-effect="non-scaling-stroke" d="
  M 193.58 116.32
  Q 192.17 102.96 189.05 95.25
  Q 186.79 89.68 181.16 87.64
  Q 178.44 86.66 180.27 88.90
  Q 182.67 91.83 183.08 95.76
  Q 183.37 98.45 183.91 101.23
  Q 185.36 108.68 186.73 116.34"
/>
<path stroke="#14ad0e" vector-effect="non-scaling-stroke" d="
  M 193.58 116.32
  Q 190.32 114.32 186.73 116.34"
/>
<path stroke="#810201" vector-effect="non-scaling-stroke" d="
  M 231.85 102.62
  Q 231.84 101.98 231.83 100.53
  Q 231.80 97.99 234.32 97.69
  L 248.02 96.09
  Q 250.14 95.84 249.97 93.71
  L 249.63 89.50
  Q 249.45 87.34 247.29 87.40
  Q 235.18 87.70 223.84 90.26
  A 1.54 1.53 85.7 0 0 222.65 91.65
  C 222.30 96.75 223.06 101.63 223.40 106.61
  C 223.93 114.15 225.21 121.62 225.81 129.15
  C 225.96 130.95 226.45 132.59 226.63 134.42
  C 226.93 137.43 229.54 138.83 232.24 138.29
  Q 240.76 136.57 251.63 133.88
  C 256.24 132.74 254.71 128.08 253.89 124.91
  C 253.57 123.68 252.95 122.51 251.50 122.43
  C 247.36 122.19 242.46 123.70 238.49 124.41
  Q 235.50 124.95 235.30 122.10
  C 235.12 119.34 234.39 113.91 238.64 113.77
  Q 242.95 113.63 247.72 113.53
  Q 250.26 113.47 250.40 110.94
  L 250.68 106.25
  Q 250.80 104.19 248.74 104.29
  L 234.41 105.02
  Q 231.88 105.15 231.85 102.62"
/>
<path stroke="#810201" vector-effect="non-scaling-stroke" d="
  M 292.51 149.49
  C 293.38 148.89 293.65 147.95 293.03 147.00
  Q 292.37 145.99 291.48 145.15
  Q 290.44 144.17 289.67 143.09
  Q 285.54 137.29 280.91 131.49
  Q 277.48 127.18 279.85 122.18
  Q 285.05 111.24 289.66 101.28
  A 1.60 1.59 37.1 0 0 289.42 99.57
  Q 286.37 96.06 282.34 92.41
  Q 281.47 91.62 280.39 91.73
  A 1.62 1.62 0.0 0 0 279.06 92.72
  Q 274.69 103.16 270.30 112.54
  Q 269.73 113.76 268.87 114.78
  Q 267.80 116.06 266.56 114.94
  L 260.43 109.36
  A 1.18 1.17 -52.7 0 0 258.65 109.61
  Q 255.91 113.94 254.11 119.19
  Q 253.54 120.89 254.90 122.05
  C 257.46 124.21 260.63 128.76 260.14 132.25
  Q 259.82 134.53 258.57 137.05
  Q 254.02 146.19 248.09 154.27
  A 1.31 1.31 0.0 0 0 249.21 156.35
  L 260.23 155.80
  A 3.16 3.16 0.0 0 0 262.91 154.01
  L 268.78 141.75
  A 2.05 2.05 0.0 0 1 272.19 141.30
  C 276.32 146.11 279.20 151.58 282.99 156.68
  Q 283.67 157.59 284.51 156.82
  L 292.15 149.78
  Q 292.32 149.63 292.51 149.49"
/>
<path stroke="#0c5d09" vector-effect="non-scaling-stroke" d="
  M 291.13 101.06
  C 287.52 108.91 283.54 116.63 280.24 124.31
  A 4.89 4.89 0.0 0 0 280.55 128.75
  Q 282.38 131.81 282.61 132.19
  Q 283.88 134.31 284.96 132.08
  Q 289.35 122.99 294.99 113.02
  Q 295.90 111.42 296.24 109.63
  Q 296.52 108.23 295.76 106.76
  Q 294.18 103.65 291.78 100.97
  A 0.40 0.39 36.7 0 0 291.13 101.06"
/>
<path stroke="#810201" vector-effect="non-scaling-stroke" d="
  M 199.47 161.50
  Q 202.39 161.18 204.87 160.68
  Q 216.05 158.44 227.79 156.21
  A 2.36 2.35 -5.1 0 0 229.71 153.92
  L 229.81 142.03
  A 1.02 1.02 0.0 0 0 228.61 141.02
  Q 222.86 142.07 216.67 143.66
  Q 214.49 144.22 212.42 143.45
  Q 211.94 143.27 211.69 142.81
  Q 210.92 141.38 211.23 139.01
  Q 213.13 124.54 215.48 110.76
  Q 216.13 106.96 212.92 105.31
  Q 209.77 103.69 206.68 102.35
  Q 204.59 101.45 204.23 103.70
  Q 200.14 129.21 196.51 155.00
  C 196.18 157.36 195.31 161.96 199.47 161.50"
/>
<path stroke="#0c5d09" vector-effect="non-scaling-stroke" d="
  M 216.14 114.98
  Q 215.47 117.72 215.02 120.51
  Q 213.41 130.38 212.15 139.65
  Q 211.67 143.22 215.25 142.81
  Q 215.29 142.81 216.50 142.67
  Q 219.76 142.30 220.13 139.04
  Q 220.72 133.76 222.08 128.35
  C 222.77 125.58 223.17 122.30 223.34 119.46
  C 223.60 115.09 221.70 108.93 217.17 107.19
  Q 216.47 106.92 216.55 107.66
  Q 216.95 111.65 216.14 114.98"
/>
<path stroke="#0e760a" vector-effect="non-scaling-stroke" d="
  M 255.97 125.25
  Q 254.75 123.72 255.35 125.58
  C 256.44 128.93 257.43 133.46 252.74 134.63
  Q 241.73 137.39 232.13 139.47
  Q 228.87 140.17 231.91 141.56
  L 238.68 144.65
  Q 239.24 144.91 239.84 144.75
  Q 246.66 142.96 253.68 140.73
  C 256.77 139.75 257.22 137.01 258.06 134.42
  Q 258.68 132.48 258.45 131.03
  Q 257.92 127.68 255.97 125.25"
/>
<path stroke="#0e760a" vector-effect="non-scaling-stroke" d="
  M 141.78 168.93
  Q 144.48 171.72 147.78 171.56
  Q 151.49 171.38 155.32 171.71
  A 1.50 1.49 -72.1 0 0 156.73 170.98
  C 157.57 169.56 158.48 167.65 158.64 165.97
  Q 158.74 164.94 159.43 163.94
  Q 159.72 163.52 159.60 163.03
  Q 159.07 160.83 159.93 158.98
  C 161.18 156.27 161.10 153.38 162.45 150.75
  Q 162.74 150.21 162.60 149.61
  Q 162.32 148.39 162.94 147.39
  A 1.18 1.14 62.5 0 0 163.11 146.82
  L 163.27 141.38
  A 1.05 1.05 0.0 0 0 162.48 140.34
  Q 157.21 138.96 155.98 143.77
  Q 153.76 152.48 151.33 161.30
  Q 149.79 166.89 144.07 165.31
  Q 140.83 164.42 137.61 163.36
  A 0.64 0.64 0.0 0 0 136.84 164.25
  Q 138.17 166.92 140.94 168.31
  Q 141.42 168.55 141.78 168.93"
/>
<path stroke="#0e760a" vector-effect="non-scaling-stroke" d="
  M 271.62 152.61
  Q 272.74 150.77 273.89 148.95
  Q 275.16 146.94 273.77 145.02
  L 271.97 142.51
  Q 270.52 140.52 269.49 142.75
  L 263.68 155.27
  A 3.11 3.10 -78.6 0 1 260.98 157.07
  L 248.59 157.58
  Q 246.51 157.67 247.92 159.20
  L 249.63 161.05
  Q 250.94 162.47 252.88 162.40
  Q 257.51 162.25 262.25 162.16
  C 264.38 162.13 266.62 161.69 267.78 159.68
  C 269.14 157.33 270.21 154.92 271.62 152.61"
/>
<path stroke="#093b06" vector-effect="non-scaling-stroke" d="
  M 223.28 166.23
  Q 225.83 166.76 227.24 165.78"
/>
<path stroke="#0e760a" vector-effect="non-scaling-stroke" d="
  M 227.24 165.78
  Q 231.20 165.30 235.26 164.82
  Q 236.87 164.63 238.18 163.34
  A 0.85 0.82 -27.9 0 0 238.41 162.64
  Q 238.14 160.90 238.71 159.19
  C 239.28 157.47 239.17 155.74 239.35 153.98
  Q 239.49 152.65 239.04 151.38
  Q 238.20 149.04 238.49 146.79
  Q 238.66 145.44 237.44 144.84
  L 231.92 142.15
  Q 231.03 141.71 231.00 142.70
  L 230.69 154.17
  A 3.22 3.21 -4.7 0 1 228.08 157.24
  L 201.01 162.50
  Q 198.30 163.03 199.91 165.27
  Q 200.46 166.05 201.25 166.48
  Q 204.37 168.17 207.53 167.82
  Q 213.14 167.21 219.26 167.17
  C 220.73 167.16 221.87 166.55 223.28 166.23"
/>
<path stroke="#14ad0e" vector-effect="non-scaling-stroke" d="
  M 227.24 165.78
  Q 225.19 165.59 223.28 166.23"
/>
<path stroke="#0e760a" vector-effect="non-scaling-stroke" d="
  M 297.29 156.31
  A 1.74 1.74 0.0 0 0 297.72 154.52
  L 296.50 150.86
  A 1.74 1.74 0.0 0 0 293.65 150.14
  L 285.55 157.82
  A 1.74 1.74 0.0 0 0 285.72 160.49
  L 288.77 162.69
  A 1.74 1.74 0.0 0 0 291.01 162.52
  L 297.29 156.31"
/>
<path stroke="#810201" vector-effect="non-scaling-stroke" d="
  M 172.44 121.12
  C 172.70 116.99 172.57 112.48 171.35 108.47
  Q 170.95 107.17 169.66 107.53
  A 2.20 2.20 0.0 0 0 168.36 108.56
  Q 164.80 115.03 163.67 121.89
  Q 163.17 124.94 166.25 124.78
  L 168.88 124.64
  Q 172.22 124.46 172.44 121.12"
/>
<path stroke="#0e760a" vector-effect="non-scaling-stroke" d="
  M 170.45 110.20
  Q 170.35 109.68 170.15 109.18
  Q 169.82 108.39 169.42 109.15
  Q 166.23 115.07 164.83 121.84
  Q 164.40 123.90 166.51 123.74
  L 168.92 123.56
  Q 171.00 123.40 171.14 121.32
  Q 171.53 115.72 170.45 110.20"
/>
<path stroke="#871b03" vector-effect="non-scaling-stroke" d="
  M 383.68 146.81
  C 383.83 151.33 389.84 149.79 392.10 148.08
  Q 397.30 144.15 398.59 138.71
  Q 399.32 135.64 398.48 133.10
  C 396.65 127.54 391.93 127.87 387.20 127.63
  A 1.45 1.45 0.0 0 0 385.72 128.73
  Q 383.38 137.87 383.68 146.81"
/>
<path stroke="#871b03" vector-effect="non-scaling-stroke" d="
  M 437.99 134.82
  Q 437.47 133.27 436.78 131.77
  Q 436.16 130.42 434.66 129.69
  Q 434.26 129.50 434.05 129.11
  Q 433.71 128.46 432.97 128.34
  Q 429.52 127.74 426.01 128.11
  A 1.04 1.03 -78.6 0 0 425.22 128.64
  Q 424.67 129.65 424.47 130.78
  Q 422.92 139.55 423.03 147.55
  A 2.46 2.46 0.0 0 0 425.35 149.97
  C 431.23 150.28 434.89 145.91 437.58 140.82
  C 438.53 139.03 438.61 136.71 437.99 134.82"
/>
<path stroke="#148f0c" vector-effect="non-scaling-stroke" d="
  M 387.96 136.70
  Q 388.10 135.86 387.63 135.25
  A 0.88 0.87 -59.0 0 0 386.07 135.64
  Q 385.27 140.53 385.00 146.01
  Q 384.90 147.97 386.82 148.41
  Q 387.22 148.51 387.65 148.47
  Q 390.67 148.20 390.93 145.18
  L 391.52 138.39
  Q 391.57 137.83 391.17 137.43
  L 390.74 137.00
  Q 390.27 136.54 389.89 137.08
  Q 389.37 137.82 388.51 137.57
  A 0.79 0.79 0.0 0 1 387.96 136.70"
/>
<path stroke="#148f0c" vector-effect="non-scaling-stroke" d="
  M 427.21 136.45
  Q 426.75 136.27 426.40 136.65
  Q 424.92 138.31 424.73 139.93
  Q 424.41 142.74 424.29 146.21
  Q 424.19 149.08 427.05 148.84
  Q 427.45 148.81 427.84 148.68
  Q 429.90 147.97 430.11 145.80
  Q 430.32 143.63 430.99 141.30
  Q 431.69 138.88 431.68 136.38
  Q 431.67 135.91 431.21 135.85
  Q 429.28 135.56 427.76 136.41
  Q 427.49 136.56 427.21 136.45"
/>
</g>
<path fill="#0b1304" d="
  M 356.89 93.25
  Q 355.80 91.16 353.83 89.67
  Q 353.30 89.27 353.15 89.91
  L 352.26 93.74
  A 2.18 2.15 -17.3 0 1 351.71 94.77
  Q 349.81 96.78 349.21 99.19
  Q 349.06 99.79 348.63 100.23
  Q 347.93 100.96 347.62 101.86
  Q 347.34 102.69 348.21 102.68
  Q 353.59 102.65 356.94 99.06
  L 356.99 99.53
  Q 357.04 100.00 357.51 100.00
  L 360.05 100.00
  Q 360.58 100.00 360.89 100.42
  Q 361.58 101.33 362.87 101.00
  Q 363.49 100.83 363.86 101.37
  Q 364.51 102.31 365.77 102.03
  Q 366.36 101.90 366.78 102.32
  L 369.54 105.10
  Q 369.93 105.49 369.98 106.04
  Q 370.04 106.61 370.47 106.99
  Q 370.97 107.45 370.97 108.12
  Q 370.95 109.25 371.58 110.18
  Q 371.98 110.76 371.99 111.46
  L 372.04 114.45
  Q 372.05 115.23 372.68 114.79
  Q 373.07 114.52 372.98 114.05
  Q 372.76 112.92 373.92 113.02
  Q 374.53 113.08 374.85 112.60
  Q 375.26 112.00 375.99 112.00
  L 394.01 112.00
  Q 394.55 112.00 394.89 112.42
  Q 395.61 113.31 396.81 113.00
  A 1.11 1.11 0.0 0 1 397.95 113.37
  Q 398.79 114.39 400.35 113.97
  Q 400.90 113.82 401.39 114.12
  L 406.05 116.91
  A 0.48 0.46 60.6 0 0 406.31 116.99
  L 407.17 117.02
  A 1.06 1.04 74.2 0 1 408.01 117.50
  Q 408.75 118.66 409.86 119.04
  Q 410.51 119.25 410.94 118.73
  L 412.54 116.79
  Q 412.90 116.37 412.46 116.03
  Q 411.88 115.59 411.97 114.86
  C 412.05 114.17 412.92 113.52 413.19 112.68
  Q 413.37 112.10 413.88 112.43
  Q 414.02 112.52 414.19 112.52
  A 1.39 1.36 -65.1 0 0 415.09 112.18
  C 417.77 109.76 419.71 111.90 422.55 111.97
  Q 426.50 112.06 430.53 111.92
  C 431.61 111.88 432.40 110.95 433.46 111.35
  C 434.92 111.91 436.29 112.11 437.74 112.84
  Q 441.72 114.84 445.47 116.77
  C 447.70 117.91 448.91 119.72 450.98 120.93
  Q 452.81 121.99 453.33 124.08
  Q 453.45 124.56 453.90 124.77
  Q 454.71 125.16 454.83 125.99
  Q 454.99 127.12 455.02 130.77
  Q 454.06 127.45 453.22 125.96
  Q 450.71 121.48 450.78 126.62
  Q 450.81 128.51 451.08 130.44
  A 2.06 2.03 59.3 0 1 450.71 131.94
  Q 450.00 132.91 450.28 134.05
  Q 450.50 134.98 450.52 135.93
  Q 450.55 136.91 449.70 137.49
  A 0.94 0.93 82.2 0 0 449.33 137.98
  Q 448.18 141.56 447.34 145.00
  Q 447.31 145.14 447.20 145.19
  A 0.55 0.33 -82.5 0 0 446.98 145.47
  L 445.03 150.97
  Q 432.76 167.61 412.67 165.95
  Q 410.11 165.73 412.13 167.31
  Q 413.20 168.15 414.77 169.78
  Q 419.62 172.88 426.64 171.39
  Q 427.86 171.14 429.14 170.05
  Q 429.51 169.73 429.99 169.62
  Q 437.19 167.98 442.61 163.14
  A 1.01 0.98 21.4 0 1 443.23 162.88
  Q 443.82 162.84 444.13 162.38
  Q 444.84 161.30 446.03 161.38
  C 444.77 162.77 444.89 164.57 442.82 165.09
  Q 442.32 165.21 441.95 165.57
  L 439.81 167.65
  Q 439.48 167.97 439.02 167.94
  Q 438.33 167.89 438.02 168.50
  A 0.92 0.92 0.0 0 1 437.02 168.98
  Q 435.74 168.72 434.92 169.68
  Q 434.54 170.13 433.97 170.00
  Q 433.23 169.85 432.99 170.53
  A 0.86 0.86 0.0 0 1 431.90 171.06
  Q 430.68 170.64 429.97 171.56
  Q 429.56 172.09 428.91 171.99
  Q 428.25 171.89 427.99 172.50
  Q 427.77 173.00 427.23 173.00
  L 415.98 173.00
  Q 415.40 173.00 415.02 172.56
  Q 413.48 170.76 411.75 169.28
  Q 411.26 168.86 410.61 168.87
  Q 409.90 168.88 410.02 168.18
  Q 410.17 167.37 409.44 166.97
  A 0.87 0.86 15.0 0 1 409.00 166.22
  L 409.00 161.45
  A 0.40 0.39 20.9 0 0 408.86 161.15
  Q 408.61 160.94 408.39 161.04
  Q 408.24 161.11 408.20 161.26
  Q 407.93 162.07 407.10 161.98
  Q 406.53 161.91 406.12 162.32
  L 403.86 164.62
  Q 403.50 164.98 402.99 164.98
  Q 402.76 164.99 402.56 165.07
  Q 402.40 165.13 402.27 165.25
  Q 400.56 166.80 399.00 168.56
  A 1.29 1.27 20.0 0 1 398.03 169.00
  L 397.01 169.00
  Q 396.41 169.00 396.06 169.48
  Q 395.68 169.97 395.03 169.96
  A 1.08 1.07 24.0 0 0 394.27 170.25
  L 392.81 171.65
  Q 392.35 172.09 391.72 171.97
  Q 390.61 171.77 389.93 172.57
  Q 389.56 173.00 389.00 173.00
  L 375.79 173.00
  A 0.85 0.85 0.0 0 1 375.04 172.55
  Q 374.61 171.75 373.69 171.99
  Q 373.10 172.15 373.06 171.54
  Q 372.92 169.13 370.57 168.94
  Q 370.00 168.89 370.00 168.31
  L 370.01 166.77
  Q 370.01 166.26 369.55 166.02
  Q 368.81 165.65 368.99 164.85
  Q 369.15 164.16 368.47 163.98
  Q 367.33 163.67 366.89 164.67
  Q 366.69 165.12 366.21 165.00
  Q 364.78 164.64 363.92 165.59
  Q 363.55 165.99 363.00 165.99
  L 358.79 165.99
  A 0.90 0.88 74.7 0 1 358.02 165.54
  Q 357.59 164.78 356.73 164.99
  Q 356.09 165.14 356.05 164.49
  Q 355.95 162.40 353.87 161.93
  Q 353.08 161.75 353.05 162.55
  Q 353.00 164.15 351.39 164.78
  C 350.16 165.28 349.36 166.13 348.79 167.29
  Q 348.56 167.75 348.08 167.86
  Q 344.88 168.63 342.25 167.17
  Q 338.04 164.83 335.52 161.73
  Q 335.13 161.25 334.55 161.05
  Q 333.26 160.60 332.92 159.32
  Q 332.77 158.77 332.33 158.43
  Q 329.39 156.17 328.72 152.47
  Q 328.57 151.62 328.23 152.42
  Q 327.81 153.40 328.01 154.48
  A 1.27 1.24 60.2 0 1 327.74 155.52
  Q 326.65 156.81 327.00 158.73
  A 1.45 1.43 -28.6 0 1 326.62 160.00
  Q 325.66 160.99 325.99 162.54
  A 1.63 1.63 0.0 0 1 325.70 163.85
  Q 324.79 165.07 324.97 166.75
  A 1.35 1.34 62.6 0 1 324.64 167.80
  L 323.04 169.59
  Q 322.68 170.00 322.14 170.00
  L 313.69 169.99
  A 0.71 0.71 0.0 0 1 313.09 169.66
  L 312.94 169.42
  A 0.95 0.94 73.4 0 0 312.15 168.99
  L 308.98 169.00
  Q 308.34 169.00 307.97 168.49
  Q 307.56 167.92 306.87 167.97
  Q 306.36 168.00 306.05 167.59
  Q 304.67 165.78 302.70 164.79
  Q 302.23 164.55 302.00 164.07
  Q 301.02 162.05 300.89 159.98
  A 1.92 1.82 30.1 0 0 300.64 159.13
  Q 298.95 156.12 300.70 153.71
  Q 301.00 153.29 301.00 152.77
  L 301.00 148.33
  Q 301.00 147.77 301.29 147.31
  Q 302.63 145.17 301.41 142.72
  Q 301.18 142.27 301.30 141.79
  Q 301.50 141.02 302.23 140.73
  Q 302.87 140.48 302.60 139.84
  Q 301.72 137.74 302.37 135.71
  Q 302.52 135.25 302.90 134.95
  Q 304.37 133.77 303.43 131.96
  Q 303.19 131.49 303.27 130.96
  Q 303.46 129.82 304.45 129.32
  Q 304.68 129.20 304.44 129.11
  Q 303.59 128.76 303.76 127.87
  Q 304.76 122.32 305.75 117.65
  Q 305.85 117.16 305.70 116.69
  L 305.23 115.15
  Q 305.00 114.40 305.61 113.91
  Q 307.06 112.71 306.46 110.99
  Q 306.28 110.48 306.65 110.08
  Q 307.98 108.64 307.34 106.28
  Q 307.01 105.07 308.39 104.25
  Q 308.83 103.99 308.35 104.16
  Q 308.03 104.28 307.74 103.68
  A 0.62 0.59 -51.9 0 1 307.70 103.28
  L 310.52 91.53
  Q 310.61 91.15 310.41 90.81
  Q 310.31 90.66 310.32 90.47
  Q 310.34 90.29 310.47 90.17
  Q 312.19 88.59 311.28 86.54
  A 1.05 1.04 50.6 0 1 311.38 85.50
  Q 311.65 85.10 312.10 84.89
  Q 312.53 84.68 312.40 84.23
  Q 312.07 83.08 313.14 82.32
  Q 314.07 81.66 314.00 80.57
  Q 313.97 80.00 314.54 80.00
  L 323.33 80.00
  Q 323.75 80.00 323.97 80.37
  L 324.17 80.69
  Q 324.50 81.24 324.83 80.69
  L 325.05 80.31
  Q 325.43 79.67 325.82 80.31
  Q 326.48 81.43 327.91 80.98
  Q 328.57 80.76 328.88 81.39
  Q 329.21 82.09 330.03 82.04
  Q 330.48 82.02 330.79 82.33
  L 332.53 84.09
  Q 332.91 84.47 333.02 85.00
  Q 333.40 87.00 335.36 86.99
  Q 336.02 86.99 336.01 86.32
  L 336.00 85.81
  Q 335.98 85.16 336.56 84.86
  Q 338.14 84.02 338.05 82.51
  Q 338.01 81.72 338.76 81.97
  Q 340.27 82.45 341.13 81.37
  A 1.11 1.09 -70.4 0 1 342.02 80.94
  Q 342.74 80.95 343.02 81.60
  Q 343.25 82.11 343.80 82.00
  Q 344.67 81.81 344.96 82.51
  Q 345.20 83.09 345.81 82.99
  Q 345.99 82.96 346.16 82.99
  Q 346.48 83.04 346.70 83.26
  L 349.12 85.67
  Q 349.53 86.08 350.10 85.99
  Q 351.78 85.73 352.71 87.31
  Q 353.00 87.79 353.54 87.94
  Q 354.02 88.07 354.50 87.98
  A 0.43 0.43 0.0 0 1 355.00 88.51
  Q 354.88 89.02 355.07 89.50
  Q 355.24 89.94 355.64 90.19
  Q 357.45 91.37 356.89 93.25
  Z
  M 323.48 107.02
  Q 323.18 105.18 323.57 103.40
  Q 325.13 96.41 327.36 88.64
  Q 327.97 86.52 328.07 84.38
  Q 328.14 82.86 326.63 82.65
  L 317.14 81.35
  A 2.23 2.23 0.0 0 0 314.71 82.87
  Q 312.94 88.31 312.08 92.77
  Q 306.00 124.24 302.58 154.82
  Q 302.20 158.23 305.76 159.34
  Q 310.22 160.74 314.51 161.50
  A 1.04 1.03 -81.1 0 0 315.71 160.62
  Q 316.94 151.44 318.06 141.37
  Q 318.18 140.32 318.61 139.50
  A 1.25 1.25 0.0 0 1 320.70 139.30
  C 323.46 142.77 326.26 146.20 328.69 149.91
  Q 332.65 155.91 337.54 161.81
  A 2.17 2.17 0.0 0 0 340.15 162.39
  Q 343.14 160.98 345.33 158.18
  Q 346.82 156.26 348.68 154.63
  A 2.59 2.58 -40.0 0 0 349.00 151.08
  L 331.60 129.11
  A 3.83 3.83 0.0 0 1 331.32 124.73
  Q 340.60 109.38 350.76 93.66
  Q 351.36 92.73 351.59 91.74
  Q 351.85 90.61 352.13 89.53
  Q 352.27 89.00 351.86 88.64
  Q 350.92 87.80 349.80 87.21
  Q 347.21 85.84 344.80 84.29
  C 340.41 81.45 337.76 85.70 335.97 89.02
  Q 331.99 96.34 327.83 104.17
  Q 326.56 106.56 324.27 107.46
  A 0.59 0.58 -15.5 0 1 323.48 107.02
  Z
  M 325.47 105.71
  C 327.03 104.44 329.05 100.23 329.74 98.33
  C 330.75 95.54 332.41 93.04 333.99 90.53
  A 2.02 2.01 42.9 0 0 333.90 88.26
  L 331.72 85.29
  Q 329.19 81.85 328.67 86.08
  C 328.35 88.73 327.81 91.26 326.96 93.80
  Q 325.01 99.66 324.21 104.99
  Q 323.91 106.97 325.47 105.71
  Z
  M 356.05 157.86
  C 359.39 157.48 363.26 155.92 366.34 154.70
  A 3.00 2.99 74.7 0 0 368.20 151.44
  L 360.53 103.68
  A 2.25 2.25 0.0 0 0 357.68 101.87
  L 349.30 104.33
  A 2.09 2.09 0.0 0 0 347.80 106.46
  C 348.45 116.84 349.24 127.52 351.17 137.71
  Q 352.13 142.80 352.26 148.02
  Q 352.32 150.28 353.40 152.22
  Q 353.63 152.63 353.65 153.10
  Q 353.79 155.49 355.11 157.42
  A 1.02 1.01 70.0 0 0 356.05 157.86
  Z
  M 346.62 103.53
  L 346.38 103.44
  Q 346.09 103.33 345.96 103.62
  Q 344.21 107.69 341.42 111.09
  C 338.02 115.23 335.32 120.41 332.41 125.01
  Q 331.17 126.97 332.70 128.73
  L 334.88 131.22
  Q 336.30 132.86 337.22 130.89
  Q 339.53 125.93 343.17 121.35
  Q 344.80 119.31 345.73 116.79
  Q 346.71 114.16 346.23 112.00
  Q 345.25 107.51 346.66 103.61
  Q 346.68 103.55 346.62 103.53
  Z
  M 397.92 157.21
  C 402.04 154.01 405.25 149.34 406.51 144.25
  C 407.77 139.15 407.53 134.70 407.56 129.62
  C 407.61 122.52 401.78 117.91 396.00 114.76
  Q 393.82 113.57 391.20 113.60
  Q 383.23 113.71 376.68 114.03
  Q 375.40 114.10 375.16 115.36
  C 374.27 119.98 373.44 124.34 373.19 129.06
  Q 372.68 138.91 372.30 149.16
  C 372.13 153.62 371.52 158.06 371.81 162.51
  A 1.60 1.59 -89.8 0 0 373.28 164.00
  Q 387.76 165.11 397.92 157.21
  Z
  M 445.17 145.57
  Q 445.98 143.38 446.28 140.58
  Q 446.31 140.29 446.54 140.13
  Q 446.87 139.88 446.88 139.47
  Q 447.04 135.06 446.87 130.32
  Q 446.57 121.85 439.39 117.71
  Q 439.05 117.51 438.91 117.13
  Q 438.72 116.65 438.00 116.72
  Q 436.65 116.09 435.46 115.26
  C 434.24 114.41 432.55 114.02 431.08 113.97
  Q 423.70 113.73 416.57 113.90
  A 2.48 2.47 -85.9 0 0 414.19 115.97
  C 413.54 119.89 412.78 123.84 412.59 127.80
  Q 411.74 145.70 410.93 162.87
  Q 410.87 164.20 412.20 164.25
  Q 415.64 164.38 419.72 164.17
  Q 424.03 163.94 427.19 162.87
  Q 436.83 159.60 443.13 150.88
  C 444.22 149.36 444.52 147.32 445.17 145.57
  Z
  M 348.05 145.51
  L 348.26 145.82
  Q 348.43 146.06 348.72 145.97
  Q 348.89 145.92 348.96 145.77
  Q 349.08 145.49 349.00 145.21
  Q 348.77 144.34 349.56 143.98
  Q 349.83 143.85 349.90 143.56
  C 350.47 141.29 349.31 140.22 349.10 138.20
  Q 348.62 133.63 347.76 129.12
  Q 347.35 126.95 347.53 125.10
  Q 347.78 122.60 346.62 120.59
  Q 346.33 120.10 346.63 119.60
  Q 346.86 119.23 346.74 118.82
  Q 346.55 118.16 346.20 118.75
  L 338.14 132.43
  A 1.03 1.03 0.0 0 0 338.78 133.95
  C 341.16 134.56 338.78 137.73 341.82 138.20
  A 1.30 1.30 0.0 0 1 342.93 139.53
  Q 342.88 141.27 344.20 142.08
  A 1.66 1.66 0.0 0 1 344.89 142.92
  Q 345.64 144.90 347.28 145.07
  Q 347.77 145.12 348.05 145.51
  Z
  M 355.85 160.43
  C 357.66 163.08 359.09 165.48 362.90 163.55
  Q 363.30 163.35 363.73 163.36
  Q 364.84 163.39 365.65 162.81
  C 366.78 161.99 368.10 161.55 369.35 160.93
  A 1.24 1.24 0.0 0 0 370.03 159.99
  Q 371.85 146.76 371.10 134.30
  Q 371.02 132.97 369.77 132.54
  Q 369.14 132.33 368.56 132.00
  Q 367.18 131.22 367.27 132.81
  Q 367.54 137.70 368.02 142.84
  C 368.36 146.49 369.43 149.84 369.07 153.60
  Q 368.92 155.17 367.43 155.71
  L 356.03 159.86
  Q 355.58 160.03 355.85 160.43
  Z
  M 314.96 168.51
  Q 318.15 169.10 321.48 168.40
  Q 323.27 168.03 323.60 166.35
  Q 325.06 159.06 326.71 151.51
  A 4.46 4.45 32.6 0 0 325.90 147.86
  Q 325.10 146.81 320.75 141.12
  Q 319.74 139.80 319.51 141.45
  L 316.67 161.89
  Q 316.48 163.30 315.09 162.96
  L 302.69 159.89
  A 0.44 0.44 0.0 0 0 302.19 160.51
  Q 304.45 165.22 308.76 166.87
  Q 311.25 167.82 314.96 168.51
  Z
  M 393.66 168.34
  Q 396.55 166.99 400.09 164.80
  Q 402.30 163.44 404.54 161.24
  Q 406.64 159.18 408.72 157.33
  A 2.54 2.54 0.0 0 0 409.56 155.61
  Q 409.98 149.38 410.02 143.83
  Q 410.08 136.48 408.32 143.62
  C 407.67 146.24 407.00 148.98 405.42 151.24
  Q 402.58 155.29 399.59 157.58
  Q 398.17 158.67 394.74 160.77
  Q 391.90 162.51 389.58 163.36
  Q 380.78 166.56 371.52 165.14
  A 0.41 0.41 0.0 0 0 371.11 165.77
  Q 373.82 169.85 377.83 171.08
  C 379.93 171.72 384.11 171.55 386.25 170.96
  Q 390.66 169.74 393.66 168.34
  Z
  M 350.89 147.69
  A 0.97 0.97 0.0 0 0 350.28 146.00
  L 349.52 145.98
  Q 348.99 145.96 348.99 146.48
  L 349.00 148.45
  Q 349.01 149.37 349.69 148.76
  L 350.89 147.69
  Z
  M 351.50 153.75
  L 340.60 164.20
  A 0.03 0.03 0.0 0 0 340.60 164.24
  L 340.66 164.30
  A 5.78 5.62 46.2 0 0 348.72 164.59
  L 351.55 161.87
  A 5.78 5.62 46.2 0 0 351.60 153.81
  L 351.54 153.75
  A 0.03 0.03 0.0 0 0 351.50 153.75
  Z"
/>
<path fill="#ff0000" d="
  M 324.27 107.46
  Q 326.56 106.56 327.83 104.17
  Q 331.99 96.34 335.97 89.02
  C 337.76 85.70 340.41 81.45 344.80 84.29
  Q 347.21 85.84 349.80 87.21
  Q 350.92 87.80 351.86 88.64
  Q 352.27 89.00 352.13 89.53
  Q 351.85 90.61 351.59 91.74
  Q 351.36 92.73 350.76 93.66
  Q 340.60 109.38 331.32 124.73
  A 3.83 3.83 0.0 0 0 331.60 129.11
  L 349.00 151.08
  A 2.59 2.58 -40.0 0 1 348.68 154.63
  Q 346.82 156.26 345.33 158.18
  Q 343.14 160.98 340.15 162.39
  A 2.17 2.17 0.0 0 1 337.54 161.81
  Q 332.65 155.91 328.69 149.91
  C 326.26 146.20 323.46 142.77 320.70 139.30
  A 1.25 1.25 0.0 0 0 318.61 139.50
  Q 318.18 140.32 318.06 141.37
  Q 316.94 151.44 315.71 160.62
  A 1.04 1.03 -81.1 0 1 314.51 161.50
  Q 310.22 160.74 305.76 159.34
  Q 302.20 158.23 302.58 154.82
  Q 306.00 124.24 312.08 92.77
  Q 312.94 88.31 314.71 82.87
  A 2.23 2.23 0.0 0 1 317.14 81.35
  L 326.63 82.65
  Q 328.14 82.86 328.07 84.38
  Q 327.97 86.52 327.36 88.64
  Q 325.13 96.41 323.57 103.40
  Q 323.18 105.18 323.48 107.02
  A 0.59 0.58 -15.5 0 0 324.27 107.46
  Z"
/>
<path fill="#0f3506" d="
  M 329.74 98.33
  C 329.05 100.23 327.03 104.44 325.47 105.71
  Q 323.91 106.97 324.21 104.99
  Q 325.01 99.66 326.96 93.80
  C 327.81 91.26 328.35 88.73 328.67 86.08
  Q 329.19 81.85 331.72 85.29
  L 333.90 88.26
  A 2.02 2.01 42.9 0 1 333.99 90.53
  C 332.41 93.04 330.75 95.54 329.74 98.33
  Z"
/>
<path fill="#030301" d="
  M 260.85 94.86
  Q 257.75 90.52 252.51 87.84
  Q 249.64 86.37 250.60 89.45
  C 251.30 91.68 251.95 97.08 248.63 97.39
  Q 241.70 98.05 234.98 98.59
  Q 232.53 98.78 232.56 101.24
  L 232.57 101.90
  Q 232.61 104.32 235.01 104.05
  Q 242.16 103.25 249.60 103.29
  A 2.01 2.00 -0.9 0 1 251.60 105.22
  C 251.70 107.63 252.23 114.18 248.51 114.40
  Q 243.52 114.69 238.42 114.93
  Q 236.31 115.03 236.35 117.14
  L 236.43 121.51
  Q 236.48 123.93 238.82 123.32
  Q 245.56 121.58 251.88 121.16
  Q 252.37 121.13 252.47 120.65
  C 253.44 116.11 255.76 112.24 258.04 108.19
  Q 258.30 107.73 258.13 107.22
  Q 257.60 105.56 255.68 105.61
  Q 254.97 105.62 254.52 105.08
  Q 253.99 104.43 254.77 104.13
  Q 255.71 103.77 256.67 103.88
  Q 257.16 103.94 257.56 103.66
  Q 259.63 102.21 260.79 99.25
  Q 261.75 102.58 259.51 103.95
  A 1.13 1.13 0.0 0 0 259.02 104.60
  Q 258.91 105.01 258.97 105.46
  Q 259.07 106.15 259.75 106.01
  Q 260.04 105.95 260.33 106.03
  Q 260.68 106.14 260.79 106.49
  Q 261.98 110.24 265.38 110.01
  Q 266.02 109.97 265.99 110.61
  Q 265.92 112.00 267.42 112.88
  Q 268.03 113.24 268.02 112.53
  L 268.00 111.51
  Q 267.99 111.00 268.50 111.00
  L 269.49 111.00
  Q 270.26 111.00 270.01 110.28
  Q 269.91 109.99 269.96 109.65
  Q 270.05 109.10 270.57 108.90
  Q 270.80 108.82 270.91 108.60
  Q 271.11 108.19 270.67 108.07
  Q 269.87 107.83 269.94 106.94
  Q 269.99 106.28 270.56 105.93
  Q 271.86 105.14 272.03 103.78
  A 1.35 1.34 -12.8 0 1 272.64 102.82
  Q 274.52 101.57 273.98 99.34
  A 1.09 1.08 -31.0 0 1 274.23 98.35
  L 276.32 96.03
  Q 276.78 95.53 276.36 94.99
  Q 275.97 94.49 276.15 93.92
  Q 277.88 88.21 283.27 90.35
  Q 283.69 90.51 283.88 90.92
  Q 284.35 91.88 285.07 92.43
  Q 288.98 95.37 292.43 99.41
  C 293.15 100.25 293.16 101.23 293.96 101.95
  Q 296.98 104.73 297.14 107.65
  Q 297.40 112.47 294.75 116.43
  C 293.09 118.91 292.33 121.74 290.78 124.29
  C 288.76 127.62 287.95 131.25 285.40 134.27
  Q 284.98 134.77 285.61 134.92
  L 285.93 135.01
  Q 286.30 135.10 286.52 135.41
  C 288.85 138.83 290.87 142.54 294.22 145.04
  A 1.73 1.71 14.7 0 1 294.89 146.17
  Q 295.07 147.38 296.08 148.06
  Q 296.58 148.39 296.86 148.91
  Q 297.56 150.17 298.60 151.13
  Q 298.98 151.49 299.00 152.00
  L 299.16 155.66
  Q 299.18 156.22 298.78 156.61
  C 297.46 157.91 296.89 159.70 295.36 160.75
  Q 293.81 161.81 292.70 163.33
  Q 292.33 163.84 291.72 163.98
  C 285.90 165.34 284.50 160.07 281.13 157.02
  Q 278.69 154.80 277.44 151.79
  Q 275.87 148.01 274.11 151.70
  Q 273.46 153.07 273.03 154.44
  Q 272.61 155.82 271.66 156.90
  Q 270.00 158.80 268.75 161.44
  A 2.72 2.71 7.6 0 1 266.75 162.96
  C 265.30 163.21 264.57 164.03 263.00 164.02
  Q 256.98 163.97 251.07 164.01
  A 1.36 1.33 -22.1 0 1 250.12 163.62
  Q 248.84 162.34 247.30 161.24
  C 244.99 159.59 244.63 156.74 245.10 154.16
  Q 245.40 152.50 247.13 151.92
  Q 247.76 151.71 247.93 151.07
  L 248.04 150.67
  Q 248.16 150.22 248.62 150.12
  Q 250.44 149.74 249.94 147.97
  A 0.79 0.78 -2.5 0 1 250.84 146.99
  Q 252.19 147.24 252.02 145.88
  Q 251.95 145.31 252.45 145.04
  Q 253.24 144.61 253.06 143.64
  A 0.63 0.62 -17.2 0 1 253.42 142.97
  Q 253.69 142.85 253.78 142.60
  Q 254.15 141.57 253.36 142.33
  Q 252.64 143.02 251.79 142.97
  A 0.81 0.81 0.0 0 0 250.99 143.49
  Q 250.93 143.64 250.83 143.75
  Q 250.50 144.12 250.01 144.01
  Q 248.65 143.69 247.86 144.66
  Q 247.54 145.07 247.03 144.98
  Q 245.81 144.77 244.97 145.64
  Q 244.63 145.99 244.15 145.99
  L 240.70 146.00
  Q 240.16 146.00 240.05 146.52
  Q 239.53 148.84 240.67 150.27
  Q 241.02 150.71 241.01 151.27
  C 240.97 153.63 241.46 157.05 240.43 159.29
  Q 239.74 160.81 240.02 162.67
  A 2.52 2.52 0.0 0 1 238.16 165.50
  L 232.78 166.88
  Q 232.25 167.02 231.71 166.97
  Q 229.36 166.73 227.59 167.74
  A 1.84 1.74 -58.4 0 1 226.70 167.98
  L 223.03 168.02
  A 1.15 1.13 -68.0 0 0 222.20 168.38
  L 221.96 168.62
  Q 221.59 168.99 221.07 168.99
  L 210.25 168.99
  Q 209.64 168.99 209.15 169.36
  Q 206.93 171.01 204.74 169.25
  A 1.27 1.23 63.0 0 0 203.98 168.99
  L 200.53 168.99
  Q 199.76 169.00 199.97 169.73
  Q 200.43 171.41 198.90 172.66
  Q 198.49 172.99 197.97 172.99
  L 181.24 173.00
  Q 180.74 173.00 180.33 172.70
  Q 177.09 170.28 175.96 166.45
  C 175.38 164.50 174.11 162.66 175.66 160.77
  Q 176.01 160.34 176.01 159.78
  L 176.00 155.82
  Q 176.00 155.37 175.63 155.11
  Q 175.26 154.84 174.80 154.96
  Q 174.18 155.13 174.03 154.50
  Q 173.61 152.73 174.59 151.94
  Q 175.01 151.60 175.01 151.06
  L 175.01 145.77
  Q 175.01 145.28 174.56 145.08
  Q 174.06 144.85 174.03 144.32
  Q 173.96 143.01 174.02 141.76
  Q 174.06 140.99 173.30 140.99
  L 165.62 141.00
  Q 164.99 141.00 164.99 141.63
  L 165.00 147.35
  A 0.64 0.63 79.1 0 1 164.61 147.94
  L 164.28 148.07
  A 0.48 0.47 79.0 0 0 163.99 148.51
  L 164.00 151.27
  Q 164.00 151.75 163.57 151.96
  Q 163.42 152.03 163.27 152.10
  Q 163.00 152.22 163.00 152.53
  L 163.00 155.26
  Q 162.99 155.79 162.49 155.98
  Q 162.10 156.13 162.01 156.53
  Q 161.89 157.00 162.01 157.44
  Q 162.30 158.53 161.39 159.08
  Q 160.99 159.32 160.99 159.79
  L 161.00 164.33
  Q 161.00 164.77 160.60 164.94
  L 160.28 165.07
  Q 159.99 165.19 159.99 165.51
  L 160.00 168.25
  Q 160.00 168.82 159.46 168.98
  Q 159.30 169.03 159.19 169.15
  A 0.85 0.84 58.9 0 0 159.00 169.94
  Q 159.19 170.63 158.57 170.92
  Q 158.07 171.14 157.99 171.69
  Q 157.94 171.99 158.02 172.28
  Q 158.23 172.99 157.49 172.99
  L 145.98 173.00
  Q 145.42 173.00 145.07 172.55
  Q 144.40 171.69 143.26 171.99
  Q 142.42 172.21 141.96 171.47
  Q 141.22 170.26 139.92 169.95
  Q 139.40 169.82 139.01 169.44
  L 136.36 166.82
  Q 135.97 166.43 136.00 165.87
  Q 136.05 165.25 135.46 164.96
  Q 135.00 164.73 135.00 164.22
  L 135.00 159.74
  Q 135.00 159.14 135.56 158.95
  Q 135.72 158.90 135.85 158.78
  Q 136.01 158.63 136.01 158.41
  L 136.00 154.76
  Q 136.00 154.22 136.49 154.01
  Q 136.68 153.93 136.81 153.77
  A 1.21 1.20 56.1 0 0 137.01 152.70
  Q 136.67 151.54 137.59 150.90
  A 0.97 0.94 -18.1 0 0 138.00 150.12
  L 138.01 147.69
  Q 138.01 147.14 138.56 147.06
  L 139.39 146.94
  A 0.78 0.78 0.0 0 0 140.03 145.95
  Q 139.61 144.52 140.73 143.65
  Q 141.34 143.17 140.59 143.00
  Q 140.45 142.97 140.30 142.96
  Q 140.07 142.94 140.07 142.71
  Q 140.07 142.25 140.48 142.07
  Q 141.01 141.84 141.01 141.26
  L 141.00 138.62
  Q 141.00 137.84 141.46 137.21
  Q 142.02 136.46 142.03 135.55
  Q 142.04 134.82 142.60 134.35
  L 144.49 132.79
  Q 144.93 132.43 144.48 132.08
  Q 143.80 131.56 144.50 131.13
  Q 145.15 130.72 144.99 129.97
  Q 144.70 128.59 145.67 127.71
  Q 146.27 127.15 145.48 126.96
  Q 145.27 126.91 145.15 126.70
  A 0.39 0.39 0.0 0 1 145.41 126.11
  L 146.18 125.95
  Q 146.80 125.83 146.59 125.23
  Q 146.51 125.02 146.31 124.97
  Q 146.12 124.93 146.11 124.75
  Q 146.06 124.27 146.42 124.16
  Q 146.90 124.03 146.92 123.54
  Q 147.01 122.01 148.55 120.89
  Q 149.07 120.52 148.63 120.06
  Q 148.53 119.95 148.39 119.95
  Q 147.98 119.94 148.06 119.54
  Q 148.13 119.18 148.48 119.08
  Q 148.95 118.94 148.98 118.45
  Q 149.07 116.99 148.96 115.31
  Q 148.90 114.37 149.62 113.91
  A 0.82 0.80 -16.5 0 0 150.00 113.23
  L 150.01 111.71
  Q 150.01 111.08 150.64 111.07
  C 151.98 111.06 153.19 109.77 153.06 108.38
  Q 152.92 106.95 153.01 105.49
  A 0.61 0.60 -2.4 0 1 153.53 104.93
  Q 153.86 104.89 153.92 104.58
  Q 154.05 104.00 153.46 103.93
  Q 153.19 103.90 153.09 103.65
  Q 152.83 103.02 153.52 103.01
  L 154.21 103.00
  Q 154.83 102.98 154.62 102.40
  Q 154.55 102.23 154.39 102.15
  A 0.64 0.63 20.7 0 1 154.07 101.45
  Q 154.14 101.11 154.51 101.05
  Q 155.00 100.97 155.00 100.47
  L 155.00 98.98
  Q 155.00 98.31 155.58 97.98
  Q 156.07 97.70 155.98 97.14
  Q 155.87 96.43 156.43 95.97
  Q 157.15 95.37 157.02 94.45
  Q 156.95 93.87 157.30 93.40
  L 158.63 91.66
  Q 158.96 91.23 158.54 90.89
  Q 158.40 90.78 158.33 90.62
  Q 158.19 90.30 158.53 90.21
  Q 161.28 89.43 161.01 86.66
  A 0.57 0.57 0.0 0 1 161.58 86.03
  L 165.25 86.00
  Q 165.68 86.00 165.94 85.66
  Q 166.02 85.55 166.10 85.44
  Q 166.56 84.70 166.92 85.50
  Q 167.02 85.74 167.23 85.89
  Q 167.50 86.09 167.85 86.08
  Q 168.49 86.05 168.86 85.55
  Q 169.16 85.16 169.64 85.07
  Q 172.67 84.48 174.74 85.81
  A 0.79 0.78 -51.1 0 0 175.72 85.70
  Q 176.89 84.52 178.16 85.63
  Q 178.57 85.99 179.11 85.98
  C 182.73 85.92 185.14 88.58 187.79 90.52
  A 2.44 2.40 -83.7 0 1 188.58 91.52
  Q 192.23 100.25 193.64 109.12
  Q 194.12 112.19 195.53 116.79
  C 195.98 118.25 195.74 119.94 196.63 121.10
  Q 197.00 121.59 197.00 122.22
  L 197.00 128.44
  Q 197.00 129.30 197.73 128.84
  Q 198.99 128.04 199.04 126.81
  Q 199.07 126.32 198.63 126.09
  Q 197.80 125.64 197.92 124.60
  Q 197.99 124.02 198.57 124.01
  L 199.55 123.99
  Q 199.95 123.99 200.01 123.59
  Q 200.25 122.11 199.46 120.84
  Q 199.29 120.55 199.44 120.25
  Q 200.28 118.55 200.36 116.50
  Q 200.45 114.02 200.70 112.88
  Q 201.44 109.54 201.90 106.47
  Q 202.35 103.49 203.61 100.82
  A 0.85 0.85 0.0 0 1 204.62 100.37
  Q 205.84 100.74 207.12 100.52
  Q 207.72 100.41 208.27 100.70
  L 215.82 104.76
  Q 216.28 105.00 216.79 105.01
  Q 217.03 105.02 217.25 105.09
  Q 217.51 105.18 217.71 105.36
  Q 219.34 106.91 221.04 108.58
  A 0.55 0.55 0.0 0 0 221.97 108.27
  Q 222.07 107.60 221.54 107.18
  Q 221.00 106.74 221.00 106.03
  L 221.00 90.17
  Q 221.00 89.60 221.39 89.19
  Q 223.28 87.16 226.09 86.93
  Q 226.78 86.88 227.12 87.48
  Q 227.37 87.93 227.88 88.01
  Q 228.58 88.11 228.82 87.45
  L 229.13 86.56
  A 0.88 0.86 -77.5 0 1 230.01 85.99
  Q 230.48 86.02 230.76 86.41
  Q 231.04 86.78 231.47 86.93
  Q 233.10 87.48 234.17 86.36
  Q 234.50 86.00 234.98 86.00
  L 241.22 86.00
  Q 241.65 86.00 241.87 85.63
  L 242.02 85.37
  Q 242.24 85.00 242.67 85.00
  L 246.99 85.00
  Q 247.52 85.00 247.91 85.37
  Q 248.91 86.29 250.46 85.99
  Q 251.01 85.88 251.49 86.16
  L 258.43 90.14
  Q 258.74 90.32 259.00 90.57
  L 260.70 92.22
  Q 261.06 92.58 261.01 93.08
  L 260.85 94.86
  Z
  M 154.82 142.24
  A 4.67 4.66 8.9 0 1 159.49 138.84
  L 174.27 139.38
  Q 175.45 139.42 175.55 140.60
  Q 175.92 145.03 176.63 149.16
  Q 176.88 150.60 176.71 152.26
  Q 176.55 153.73 177.04 155.16
  C 178.00 157.98 177.57 161.08 177.80 163.99
  Q 177.87 164.88 178.76 164.88
  L 189.41 164.85
  Q 191.52 164.85 191.45 162.74
  Q 190.88 147.65 188.23 131.14
  Q 185.23 112.39 181.35 94.14
  C 180.63 90.74 178.75 87.39 174.97 87.12
  Q 169.67 86.73 164.71 87.33
  Q 164.03 87.41 163.52 87.87
  Q 160.58 90.57 159.33 93.90
  Q 156.78 100.75 154.50 108.59
  C 154.12 109.91 153.45 110.81 153.04 112.06
  Q 148.75 125.03 144.53 136.76
  Q 144.37 137.21 144.07 137.57
  Q 143.75 137.94 143.83 138.47
  Q 143.92 139.01 143.69 139.50
  L 142.05 143.10
  Q 141.87 143.49 141.87 143.91
  Q 141.88 144.92 141.42 145.80
  Q 140.91 146.77 140.59 147.77
  Q 138.66 153.75 136.58 160.29
  Q 136.28 161.23 137.20 161.59
  Q 141.58 163.32 146.90 164.00
  C 148.63 164.22 149.46 162.63 149.81 161.21
  Q 152.22 151.57 154.82 142.24
  Z
  M 186.73 116.34
  Q 187.47 120.81 188.30 125.54
  Q 191.42 143.46 192.39 159.66
  C 192.52 161.85 193.15 165.28 190.04 165.74
  Q 184.07 166.61 179.27 166.45
  Q 176.63 166.36 178.64 168.08
  L 180.67 169.82
  Q 182.49 171.37 184.88 171.37
  L 195.27 171.37
  Q 195.78 171.37 196.21 171.08
  Q 198.17 169.75 198.57 167.61
  C 198.92 165.77 199.43 163.34 197.08 162.56
  A 2.90 2.89 11.6 0 1 195.11 159.59
  Q 195.66 152.46 196.94 145.46
  Q 197.57 141.99 197.39 138.35
  Q 197.19 134.10 196.40 131.21
  Q 195.49 127.88 195.25 124.79
  Q 195.07 122.49 194.53 120.55
  Q 193.93 118.41 193.58 116.32
  Q 192.17 102.96 189.05 95.25
  Q 186.79 89.68 181.16 87.64
  Q 178.44 86.66 180.27 88.90
  Q 182.67 91.83 183.08 95.76
  Q 183.37 98.45 183.91 101.23
  Q 185.36 108.68 186.73 116.34
  Z
  M 231.85 102.62
  Q 231.84 101.98 231.83 100.53
  Q 231.80 97.99 234.32 97.69
  L 248.02 96.09
  Q 250.14 95.84 249.97 93.71
  L 249.63 89.50
  Q 249.45 87.34 247.29 87.40
  Q 235.18 87.70 223.84 90.26
  A 1.54 1.53 85.7 0 0 222.65 91.65
  C 222.30 96.75 223.06 101.63 223.40 106.61
  C 223.93 114.15 225.21 121.62 225.81 129.15
  C 225.96 130.95 226.45 132.59 226.63 134.42
  C 226.93 137.43 229.54 138.83 232.24 138.29
  Q 240.76 136.57 251.63 133.88
  C 256.24 132.74 254.71 128.08 253.89 124.91
  C 253.57 123.68 252.95 122.51 251.50 122.43
  C 247.36 122.19 242.46 123.70 238.49 124.41
  Q 235.50 124.95 235.30 122.10
  C 235.12 119.34 234.39 113.91 238.64 113.77
  Q 242.95 113.63 247.72 113.53
  Q 250.26 113.47 250.40 110.94
  L 250.68 106.25
  Q 250.80 104.19 248.74 104.29
  L 234.41 105.02
  Q 231.88 105.15 231.85 102.62
  Z
  M 292.51 149.49
  C 293.38 148.89 293.65 147.95 293.03 147.00
  Q 292.37 145.99 291.48 145.15
  Q 290.44 144.17 289.67 143.09
  Q 285.54 137.29 280.91 131.49
  Q 277.48 127.18 279.85 122.18
  Q 285.05 111.24 289.66 101.28
  A 1.60 1.59 37.1 0 0 289.42 99.57
  Q 286.37 96.06 282.34 92.41
  Q 281.47 91.62 280.39 91.73
  A 1.62 1.62 0.0 0 0 279.06 92.72
  Q 274.69 103.16 270.30 112.54
  Q 269.73 113.76 268.87 114.78
  Q 267.80 116.06 266.56 114.94
  L 260.43 109.36
  A 1.18 1.17 -52.7 0 0 258.65 109.61
  Q 255.91 113.94 254.11 119.19
  Q 253.54 120.89 254.90 122.05
  C 257.46 124.21 260.63 128.76 260.14 132.25
  Q 259.82 134.53 258.57 137.05
  Q 254.02 146.19 248.09 154.27
  A 1.31 1.31 0.0 0 0 249.21 156.35
  L 260.23 155.80
  A 3.16 3.16 0.0 0 0 262.91 154.01
  L 268.78 141.75
  A 2.05 2.05 0.0 0 1 272.19 141.30
  C 276.32 146.11 279.20 151.58 282.99 156.68
  Q 283.67 157.59 284.51 156.82
  L 292.15 149.78
  Q 292.32 149.63 292.51 149.49
  Z
  M 291.13 101.06
  C 287.52 108.91 283.54 116.63 280.24 124.31
  A 4.89 4.89 0.0 0 0 280.55 128.75
  Q 282.38 131.81 282.61 132.19
  Q 283.88 134.31 284.96 132.08
  Q 289.35 122.99 294.99 113.02
  Q 295.90 111.42 296.24 109.63
  Q 296.52 108.23 295.76 106.76
  Q 294.18 103.65 291.78 100.97
  A 0.40 0.39 36.7 0 0 291.13 101.06
  Z
  M 199.47 161.50
  Q 202.39 161.18 204.87 160.68
  Q 216.05 158.44 227.79 156.21
  A 2.36 2.35 -5.1 0 0 229.71 153.92
  L 229.81 142.03
  A 1.02 1.02 0.0 0 0 228.61 141.02
  Q 222.86 142.07 216.67 143.66
  Q 214.49 144.22 212.42 143.45
  Q 211.94 143.27 211.69 142.81
  Q 210.92 141.38 211.23 139.01
  Q 213.13 124.54 215.48 110.76
  Q 216.13 106.96 212.92 105.31
  Q 209.77 103.69 206.68 102.35
  Q 204.59 101.45 204.23 103.70
  Q 200.14 129.21 196.51 155.00
  C 196.18 157.36 195.31 161.96 199.47 161.50
  Z
  M 216.14 114.98
  Q 215.47 117.72 215.02 120.51
  Q 213.41 130.38 212.15 139.65
  Q 211.67 143.22 215.25 142.81
  Q 215.29 142.81 216.50 142.67
  Q 219.76 142.30 220.13 139.04
  Q 220.72 133.76 222.08 128.35
  C 222.77 125.58 223.17 122.30 223.34 119.46
  C 223.60 115.09 221.70 108.93 217.17 107.19
  Q 216.47 106.92 216.55 107.66
  Q 216.95 111.65 216.14 114.98
  Z
  M 255.97 125.25
  Q 254.75 123.72 255.35 125.58
  C 256.44 128.93 257.43 133.46 252.74 134.63
  Q 241.73 137.39 232.13 139.47
  Q 228.87 140.17 231.91 141.56
  L 238.68 144.65
  Q 239.24 144.91 239.84 144.75
  Q 246.66 142.96 253.68 140.73
  C 256.77 139.75 257.22 137.01 258.06 134.42
  Q 258.68 132.48 258.45 131.03
  Q 257.92 127.68 255.97 125.25
  Z
  M 223.68 130.04
  Q 223.53 130.06 223.43 130.17
  Q 223.19 130.46 223.14 130.81
  Q 222.98 132.04 222.99 133.40
  Q 223.00 133.66 222.77 133.80
  L 222.44 134.01
  Q 221.98 134.29 221.99 134.82
  L 222.00 137.24
  Q 222.00 137.72 221.57 137.94
  Q 220.77 138.36 220.91 139.39
  Q 220.99 139.99 221.60 140.00
  L 225.44 140.02
  Q 226.39 140.03 225.83 139.26
  Q 225.69 139.07 225.47 138.97
  Q 225.00 138.75 225.00 138.24
  L 225.00 135.22
  Q 225.00 134.69 224.67 134.28
  Q 223.44 132.69 224.09 130.53
  Q 224.24 130.05 224.62 129.73
  Q 225.11 129.31 224.91 128.63
  Q 224.71 127.96 224.31 128.52
  Q 224.00 128.95 224.09 129.52
  Q 224.16 130.00 223.68 130.04
  Z
  M 141.78 168.93
  Q 144.48 171.72 147.78 171.56
  Q 151.49 171.38 155.32 171.71
  A 1.50 1.49 -72.1 0 0 156.73 170.98
  C 157.57 169.56 158.48 167.65 158.64 165.97
  Q 158.74 164.94 159.43 163.94
  Q 159.72 163.52 159.60 163.03
  Q 159.07 160.83 159.93 158.98
  C 161.18 156.27 161.10 153.38 162.45 150.75
  Q 162.74 150.21 162.60 149.61
  Q 162.32 148.39 162.94 147.39
  A 1.18 1.14 62.5 0 0 163.11 146.82
  L 163.27 141.38
  A 1.05 1.05 0.0 0 0 162.48 140.34
  Q 157.21 138.96 155.98 143.77
  Q 153.76 152.48 151.33 161.30
  Q 149.79 166.89 144.07 165.31
  Q 140.83 164.42 137.61 163.36
  A 0.64 0.64 0.0 0 0 136.84 164.25
  Q 138.17 166.92 140.94 168.31
  Q 141.42 168.55 141.78 168.93
  Z
  M 271.62 152.61
  Q 272.74 150.77 273.89 148.95
  Q 275.16 146.94 273.77 145.02
  L 271.97 142.51
  Q 270.52 140.52 269.49 142.75
  L 263.68 155.27
  A 3.11 3.10 -78.6 0 1 260.98 157.07
  L 248.59 157.58
  Q 246.51 157.67 247.92 159.20
  L 249.63 161.05
  Q 250.94 162.47 252.88 162.40
  Q 257.51 162.25 262.25 162.16
  C 264.38 162.13 266.62 161.69 267.78 159.68
  C 269.14 157.33 270.21 154.92 271.62 152.61
  Z
  M 223.28 166.23
  Q 225.83 166.76 227.24 165.78
  Q 231.20 165.30 235.26 164.82
  Q 236.87 164.63 238.18 163.34
  A 0.85 0.82 -27.9 0 0 238.41 162.64
  Q 238.14 160.90 238.71 159.19
  C 239.28 157.47 239.17 155.74 239.35 153.98
  Q 239.49 152.65 239.04 151.38
  Q 238.20 149.04 238.49 146.79
  Q 238.66 145.44 237.44 144.84
  L 231.92 142.15
  Q 231.03 141.71 231.00 142.70
  L 230.69 154.17
  A 3.22 3.21 -4.7 0 1 228.08 157.24
  L 201.01 162.50
  Q 198.30 163.03 199.91 165.27
  Q 200.46 166.05 201.25 166.48
  Q 204.37 168.17 207.53 167.82
  Q 213.14 167.21 219.26 167.17
  C 220.73 167.16 221.87 166.55 223.28 166.23
  Z
  M 297.29 156.31
  A 1.74 1.74 0.0 0 0 297.72 154.52
  L 296.50 150.86
  A 1.74 1.74 0.0 0 0 293.65 150.14
  L 285.55 157.82
  A 1.74 1.74 0.0 0 0 285.72 160.49
  L 288.77 162.69
  A 1.74 1.74 0.0 0 0 291.01 162.52
  L 297.29 156.31
  Z"
/>
<path fill="#ff0000" d="
  M 154.82 142.24
  Q 152.22 151.57 149.81 161.21
  C 149.46 162.63 148.63 164.22 146.90 164.00
  Q 141.58 163.32 137.20 161.59
  Q 136.28 161.23 136.58 160.29
  Q 138.66 153.75 140.59 147.77
  Q 140.91 146.77 141.42 145.80
  Q 141.88 144.92 141.87 143.91
  Q 141.87 143.49 142.05 143.10
  L 143.69 139.50
  Q 143.92 139.01 143.83 138.47
  Q 143.75 137.94 144.07 137.57
  Q 144.37 137.21 144.53 136.76
  Q 148.75 125.03 153.04 112.06
  C 153.45 110.81 154.12 109.91 154.50 108.59
  Q 156.78 100.75 159.33 93.90
  Q 160.58 90.57 163.52 87.87
  Q 164.03 87.41 164.71 87.33
  Q 169.67 86.73 174.97 87.12
  C 178.75 87.39 180.63 90.74 181.35 94.14
  Q 185.23 112.39 188.23 131.14
  Q 190.88 147.65 191.45 162.74
  Q 191.52 164.85 189.41 164.85
  L 178.76 164.88
  Q 177.87 164.88 177.80 163.99
  C 177.57 161.08 178.00 157.98 177.04 155.16
  Q 176.55 153.73 176.71 152.26
  Q 176.88 150.60 176.63 149.16
  Q 175.92 145.03 175.55 140.60
  Q 175.45 139.42 174.27 139.38
  L 159.49 138.84
  A 4.67 4.66 8.9 0 0 154.82 142.24
  Z
  M 172.44 121.12
  C 172.70 116.99 172.57 112.48 171.35 108.47
  Q 170.95 107.17 169.66 107.53
  A 2.20 2.20 0.0 0 0 168.36 108.56
  Q 164.80 115.03 163.67 121.89
  Q 163.17 124.94 166.25 124.78
  L 168.88 124.64
  Q 172.22 124.46 172.44 121.12
  Z"
/>
<path fill="#0f720a" d="
  M 193.58 116.32
  Q 190.32 114.32 186.73 116.34
  Q 185.36 108.68 183.91 101.23
  Q 183.37 98.45 183.08 95.76
  Q 182.67 91.83 180.27 88.90
  Q 178.44 86.66 181.16 87.64
  Q 186.79 89.68 189.05 95.25
  Q 192.17 102.96 193.58 116.32
  Z"
/>
<path fill="#ff0000" d="
  M 231.85 102.62
  Q 231.88 105.15 234.41 105.02
  L 248.74 104.29
  Q 250.80 104.19 250.68 106.25
  L 250.40 110.94
  Q 250.26 113.47 247.72 113.53
  Q 242.95 113.63 238.64 113.77
  C 234.39 113.91 235.12 119.34 235.30 122.10
  Q 235.50 124.95 238.49 124.41
  C 242.46 123.70 247.36 122.19 251.50 122.43
  C 252.95 122.51 253.57 123.68 253.89 124.91
  C 254.71 128.08 256.24 132.74 251.63 133.88
  Q 240.76 136.57 232.24 138.29
  C 229.54 138.83 226.93 137.43 226.63 134.42
  C 226.45 132.59 225.96 130.95 225.81 129.15
  C 225.21 121.62 223.93 114.15 223.40 106.61
  C 223.06 101.63 222.30 96.75 222.65 91.65
  A 1.54 1.53 85.7 0 1 223.84 90.26
  Q 235.18 87.70 247.29 87.40
  Q 249.45 87.34 249.63 89.50
  L 249.97 93.71
  Q 250.14 95.84 248.02 96.09
  L 234.32 97.69
  Q 231.80 97.99 231.83 100.53
  Q 231.84 101.98 231.85 102.62
  Z"
/>
<path fill="#15b710" d="
  M 260.85 94.86
  L 260.79 99.25
  Q 259.63 102.21 257.56 103.66
  Q 257.16 103.94 256.67 103.88
  Q 255.71 103.77 254.77 104.13
  Q 253.99 104.43 254.52 105.08
  Q 254.97 105.62 255.68 105.61
  Q 257.60 105.56 258.13 107.22
  Q 258.30 107.73 258.04 108.19
  C 255.76 112.24 253.44 116.11 252.47 120.65
  Q 252.37 121.13 251.88 121.16
  Q 245.56 121.58 238.82 123.32
  Q 236.48 123.93 236.43 121.51
  L 236.35 117.14
  Q 236.31 115.03 238.42 114.93
  Q 243.52 114.69 248.51 114.40
  C 252.23 114.18 251.70 107.63 251.60 105.22
  A 2.01 2.00 -0.9 0 0 249.60 103.29
  Q 242.16 103.25 235.01 104.05
  Q 232.61 104.32 232.57 101.90
  L 232.56 101.24
  Q 232.53 98.78 234.98 98.59
  Q 241.70 98.05 248.63 97.39
  C 251.95 97.08 251.30 91.68 250.60 89.45
  Q 249.64 86.37 252.51 87.84
  Q 257.75 90.52 260.85 94.86
  Z"
/>
<path fill="#0f3506" d="
  M 356.89 93.25
  Q 357.09 93.56 356.94 93.68
  L 357.31 97.99
  Q 356.88 98.39 356.94 99.06
  Q 353.59 102.65 348.21 102.68
  Q 347.34 102.69 347.62 101.86
  Q 347.93 100.96 348.63 100.23
  Q 349.06 99.79 349.21 99.19
  Q 349.81 96.78 351.71 94.77
  A 2.18 2.15 -17.3 0 0 352.26 93.74
  L 353.15 89.91
  Q 353.30 89.27 353.83 89.67
  Q 355.80 91.16 356.89 93.25
  Z"
/>
<path fill="#ff0000" d="
  M 292.15 149.78
  L 284.51 156.82
  Q 283.67 157.59 282.99 156.68
  C 279.20 151.58 276.32 146.11 272.19 141.30
  A 2.05 2.05 0.0 0 0 268.78 141.75
  L 262.91 154.01
  A 3.16 3.16 0.0 0 1 260.23 155.80
  L 249.21 156.35
  A 1.31 1.31 0.0 0 1 248.09 154.27
  Q 254.02 146.19 258.57 137.05
  Q 259.82 134.53 260.14 132.25
  C 260.63 128.76 257.46 124.21 254.90 122.05
  Q 253.54 120.89 254.11 119.19
  Q 255.91 113.94 258.65 109.61
  A 1.18 1.17 -52.7 0 1 260.43 109.36
  L 266.56 114.94
  Q 267.80 116.06 268.87 114.78
  Q 269.73 113.76 270.30 112.54
  Q 274.69 103.16 279.06 92.72
  A 1.62 1.62 0.0 0 1 280.39 91.73
  Q 281.47 91.62 282.34 92.41
  Q 286.37 96.06 289.42 99.57
  A 1.60 1.59 37.1 0 1 289.66 101.28
  Q 285.05 111.24 279.85 122.18
  Q 277.48 127.18 280.91 131.49
  Q 285.54 137.29 289.67 143.09
  Q 290.44 144.17 291.48 145.15
  Q 292.37 145.99 293.03 147.00
  C 293.65 147.95 293.38 148.89 292.51 149.49
  Q 292.32 149.63 292.15 149.78
  Z"
/>
<path fill="#0b1304" d="
  M 356.94 93.68
  Q 358.50 94.54 358.00 97.41
  Q 357.94 97.77 357.61 97.92
  Q 357.45 97.99 357.31 97.99
  L 356.94 93.68
  Z"
/>
<path fill="#15b710" d="
  M 280.24 124.31
  C 283.54 116.63 287.52 108.91 291.13 101.06
  A 0.40 0.39 36.7 0 1 291.78 100.97
  Q 294.18 103.65 295.76 106.76
  Q 296.52 108.23 296.24 109.63
  Q 295.90 111.42 294.99 113.02
  Q 289.35 122.99 284.96 132.08
  Q 283.88 134.31 282.61 132.19
  Q 282.38 131.81 280.55 128.75
  A 4.89 4.89 0.0 0 1 280.24 124.31
  Z"
/>
<path fill="#ff0000" d="
  M 199.47 161.50
  C 195.31 161.96 196.18 157.36 196.51 155.00
  Q 200.14 129.21 204.23 103.70
  Q 204.59 101.45 206.68 102.35
  Q 209.77 103.69 212.92 105.31
  Q 216.13 106.96 215.48 110.76
  Q 213.13 124.54 211.23 139.01
  Q 210.92 141.38 211.69 142.81
  Q 211.94 143.27 212.42 143.45
  Q 214.49 144.22 216.67 143.66
  Q 222.86 142.07 228.61 141.02
  A 1.02 1.02 0.0 0 1 229.81 142.03
  L 229.71 153.92
  A 2.36 2.35 -5.1 0 1 227.79 156.21
  Q 216.05 158.44 204.87 160.68
  Q 202.39 161.18 199.47 161.50
  Z"
/>
<path fill="#ff0000" d="
  M 366.34 154.70
  C 363.26 155.92 359.39 157.48 356.05 157.86
  A 1.02 1.01 70.0 0 1 355.11 157.42
  Q 353.79 155.49 353.65 153.10
  Q 353.63 152.63 353.40 152.22
  Q 352.32 150.28 352.26 148.02
  Q 352.13 142.80 351.17 137.71
  C 349.24 127.52 348.45 116.84 347.80 106.46
  A 2.09 2.09 0.0 0 1 349.30 104.33
  L 357.68 101.87
  A 2.25 2.25 0.0 0 1 360.53 103.68
  L 368.20 151.44
  A 3.00 2.99 74.7 0 1 366.34 154.70
  Z"
/>
<path fill="#15b710" d="
  M 346.66 103.61
  Q 345.25 107.51 346.23 112.00
  Q 346.71 114.16 345.73 116.79
  Q 344.80 119.31 343.17 121.35
  Q 339.53 125.93 337.22 130.89
  Q 336.30 132.86 334.88 131.22
  L 332.70 128.73
  Q 331.17 126.97 332.41 125.01
  C 335.32 120.41 338.02 115.23 341.42 111.09
  Q 344.21 107.69 345.96 103.62
  Q 346.09 103.33 346.38 103.44
  L 346.62 103.53
  Q 346.68 103.55 346.66 103.61
  Z"
/>
<path fill="#15b710" d="
  M 216.14 114.98
  Q 216.95 111.65 216.55 107.66
  Q 216.47 106.92 217.17 107.19
  C 221.70 108.93 223.60 115.09 223.34 119.46
  C 223.17 122.30 222.77 125.58 222.08 128.35
  Q 220.72 133.76 220.13 139.04
  Q 219.76 142.30 216.50 142.67
  Q 215.29 142.81 215.25 142.81
  Q 211.67 143.22 212.15 139.65
  Q 213.41 130.38 215.02 120.51
  Q 215.47 117.72 216.14 114.98
  Z"
/>
<path fill="#030301" d="
  M 171.35 108.47
  C 172.57 112.48 172.70 116.99 172.44 121.12
  Q 172.22 124.46 168.88 124.64
  L 166.25 124.78
  Q 163.17 124.94 163.67 121.89
  Q 164.80 115.03 168.36 108.56
  A 2.20 2.20 0.0 0 1 169.66 107.53
  Q 170.95 107.17 171.35 108.47
  Z
  M 170.45 110.20
  Q 170.35 109.68 170.15 109.18
  Q 169.82 108.39 169.42 109.15
  Q 166.23 115.07 164.83 121.84
  Q 164.40 123.90 166.51 123.74
  L 168.92 123.56
  Q 171.00 123.40 171.14 121.32
  Q 171.53 115.72 170.45 110.20
  Z"
/>
<path fill="#19e812" d="
  M 170.45 110.20
  Q 171.53 115.72 171.14 121.32
  Q 171.00 123.40 168.92 123.56
  L 166.51 123.74
  Q 164.40 123.90 164.83 121.84
  Q 166.23 115.07 169.42 109.15
  Q 169.82 108.39 170.15 109.18
  Q 170.35 109.68 170.45 110.20
  Z"
/>
<path fill="#ff0000" d="
  M 406.51 144.25
  C 405.25 149.34 402.04 154.01 397.92 157.21
  Q 387.76 165.11 373.28 164.00
  A 1.60 1.59 -89.8 0 1 371.81 162.51
  C 371.52 158.06 372.13 153.62 372.30 149.16
  Q 372.68 138.91 373.19 129.06
  C 373.44 124.34 374.27 119.98 375.16 115.36
  Q 375.40 114.10 376.68 114.03
  Q 383.23 113.71 391.20 113.60
  Q 393.82 113.57 396.00 114.76
  C 401.78 117.91 407.61 122.52 407.56 129.62
  C 407.53 134.70 407.77 139.15 406.51 144.25
  Z
  M 383.68 146.81
  C 383.83 151.33 389.84 149.79 392.10 148.08
  Q 397.30 144.15 398.59 138.71
  Q 399.32 135.64 398.48 133.10
  C 396.65 127.54 391.93 127.87 387.20 127.63
  A 1.45 1.45 0.0 0 0 385.72 128.73
  Q 383.38 137.87 383.68 146.81
  Z"
/>
<path fill="#ff0000" d="
  M 445.17 145.57
  C 444.52 147.32 444.22 149.36 443.13 150.88
  Q 436.83 159.60 427.19 162.87
  Q 424.03 163.94 419.72 164.17
  Q 415.64 164.38 412.20 164.25
  Q 410.87 164.20 410.93 162.87
  Q 411.74 145.70 412.59 127.80
  C 412.78 123.84 413.54 119.89 414.19 115.97
  A 2.48 2.47 -85.9 0 1 416.57 113.90
  Q 423.70 113.73 431.08 113.97
  C 432.55 114.02 434.24 114.41 435.46 115.26
  Q 436.65 116.09 438.00 116.72
  Q 438.72 116.65 438.91 117.13
  Q 439.05 117.51 439.39 117.71
  Q 446.57 121.85 446.87 130.32
  Q 447.04 135.06 446.88 139.47
  Q 446.87 139.88 446.54 140.13
  Q 446.31 140.29 446.28 140.58
  Q 445.98 143.38 445.17 145.57
  Z
  M 437.99 134.82
  Q 437.47 133.27 436.78 131.77
  Q 436.16 130.42 434.66 129.69
  Q 434.26 129.50 434.05 129.11
  Q 433.71 128.46 432.97 128.34
  Q 429.52 127.74 426.01 128.11
  A 1.04 1.03 -78.6 0 0 425.22 128.64
  Q 424.67 129.65 424.47 130.78
  Q 422.92 139.55 423.03 147.55
  A 2.46 2.46 0.0 0 0 425.35 149.97
  C 431.23 150.28 434.89 145.91 437.58 140.82
  C 438.53 139.03 438.61 136.71 437.99 134.82
  Z"
/>
<path fill="#19e812" d="
  M 193.58 116.32
  Q 193.93 118.41 194.53 120.55
  Q 195.07 122.49 195.25 124.79
  Q 195.49 127.88 196.40 131.21
  Q 197.19 134.10 197.39 138.35
  Q 197.57 141.99 196.94 145.46
  Q 195.66 152.46 195.11 159.59
  A 2.90 2.89 11.6 0 0 197.08 162.56
  C 199.43 163.34 198.92 165.77 198.57 167.61
  Q 198.17 169.75 196.21 171.08
  Q 195.78 171.37 195.27 171.37
  L 184.88 171.37
  Q 182.49 171.37 180.67 169.82
  L 178.64 168.08
  Q 176.63 166.36 179.27 166.45
  Q 184.07 166.61 190.04 165.74
  C 193.15 165.28 192.52 161.85 192.39 159.66
  Q 191.42 143.46 188.30 125.54
  Q 187.47 120.81 186.73 116.34
  Q 190.32 114.32 193.58 116.32
  Z"
/>
<path fill="#0f720a" d="
  M 455.02 130.77
  Q 455.75 141.89 454.79 147.01
  Q 454.36 149.31 450.79 156.41
  A 1.29 1.27 3.6 0 1 450.09 157.02
  Q 448.87 157.45 448.93 158.83
  Q 448.95 159.36 448.62 159.77
  Q 447.63 161.02 446.03 161.38
  Q 444.84 161.30 444.13 162.38
  Q 443.82 162.84 443.23 162.88
  A 1.01 0.98 21.4 0 0 442.61 163.14
  Q 437.19 167.98 429.99 169.62
  Q 429.51 169.73 429.14 170.05
  Q 427.86 171.14 426.64 171.39
  Q 419.62 172.88 414.77 169.78
  Q 416.66 170.33 418.57 170.78
  Q 420.53 171.24 422.43 170.99
  Q 436.40 169.10 445.98 158.72
  Q 446.03 158.66 446.77 158.05
  Q 447.28 157.63 447.40 156.95
  Q 447.51 156.29 447.97 155.79
  Q 450.34 153.23 450.35 149.35
  A 1.67 1.66 70.2 0 0 447.62 148.06
  C 446.56 148.95 446.52 150.52 445.03 150.97
  L 446.98 145.47
  A 0.55 0.33 -82.5 0 1 447.20 145.19
  Q 447.31 145.14 447.34 145.00
  Q 448.18 141.56 449.33 137.98
  A 0.94 0.93 82.2 0 1 449.70 137.49
  Q 450.55 136.91 450.52 135.93
  Q 450.50 134.98 450.28 134.05
  Q 450.00 132.91 450.71 131.94
  A 2.06 2.03 59.3 0 0 451.08 130.44
  Q 450.81 128.51 450.78 126.62
  Q 450.71 121.48 453.22 125.96
  Q 454.06 127.45 455.02 130.77
  Z"
/>
<path fill="#19e812" d="
  M 255.97 125.25
  Q 257.92 127.68 258.45 131.03
  Q 258.68 132.48 258.06 134.42
  C 257.22 137.01 256.77 139.75 253.68 140.73
  Q 246.66 142.96 239.84 144.75
  Q 239.24 144.91 238.68 144.65
  L 231.91 141.56
  Q 228.87 140.17 232.13 139.47
  Q 241.73 137.39 252.74 134.63
  C 257.43 133.46 256.44 128.93 255.35 125.58
  Q 254.75 123.72 255.97 125.25
  Z"
/>
<path fill="#0f3506" d="
  M 383.68 146.81
  Q 383.38 137.87 385.72 128.73
  A 1.45 1.45 0.0 0 1 387.20 127.63
  C 391.93 127.87 396.65 127.54 398.48 133.10
  Q 399.32 135.64 398.59 138.71
  Q 397.30 144.15 392.10 148.08
  C 389.84 149.79 383.83 151.33 383.68 146.81
  Z
  M 393.72 139.86
  L 393.37 140.03
  A 0.66 0.66 0.0 0 0 393.00 140.62
  L 393.00 144.47
  Q 393.00 145.30 393.65 144.79
  Q 394.27 144.31 394.75 143.76
  Q 395.37 143.04 394.42 142.99
  Q 394.24 142.98 394.15 142.81
  Q 393.88 142.29 394.39 142.01
  Q 396.30 140.97 396.00 138.92
  Q 395.92 138.35 396.40 138.03
  L 396.65 137.86
  Q 397.01 137.62 397.01 137.19
  L 397.01 134.05
  Q 397.01 133.50 396.61 133.13
  Q 395.84 132.39 395.76 131.28
  Q 395.75 131.10 395.58 131.07
  Q 395.45 131.05 395.32 131.09
  Q 395.01 131.18 395.01 131.50
  L 394.99 134.26
  A 0.80 0.79 77.9 0 1 394.54 134.96
  L 394.31 135.07
  Q 393.99 135.23 393.99 135.59
  L 393.99 139.42
  Q 393.99 139.72 393.72 139.86
  Z
  M 387.96 136.70
  Q 388.10 135.86 387.63 135.25
  A 0.88 0.87 -59.0 0 0 386.07 135.64
  Q 385.27 140.53 385.00 146.01
  Q 384.90 147.97 386.82 148.41
  Q 387.22 148.51 387.65 148.47
  Q 390.67 148.20 390.93 145.18
  L 391.52 138.39
  Q 391.57 137.83 391.17 137.43
  L 390.74 137.00
  Q 390.27 136.54 389.89 137.08
  Q 389.37 137.82 388.51 137.57
  A 0.79 0.79 0.0 0 1 387.96 136.70
  Z"
/>
<path fill="#0f3506" d="
  M 437.99 134.82
  C 438.61 136.71 438.53 139.03 437.58 140.82
  C 434.89 145.91 431.23 150.28 425.35 149.97
  A 2.46 2.46 0.0 0 1 423.03 147.55
  Q 422.92 139.55 424.47 130.78
  Q 424.67 129.65 425.22 128.64
  A 1.04 1.03 -78.6 0 1 426.01 128.11
  Q 429.52 127.74 432.97 128.34
  Q 433.71 128.46 434.05 129.11
  Q 434.26 129.50 434.66 129.69
  Q 436.16 130.42 436.78 131.77
  Q 437.47 133.27 437.99 134.82
  Z
  M 435.50 140.01
  L 436.38 140.00
  A 0.63 0.63 0.0 0 0 437.01 139.37
  L 437.01 134.98
  Q 437.01 134.38 436.51 134.03
  Q 435.88 133.59 436.00 132.82
  Q 436.10 132.19 435.49 132.02
  Q 434.99 131.88 434.46 131.95
  A 0.63 0.63 0.0 0 0 433.94 132.76
  Q 434.40 134.22 433.36 135.17
  Q 432.99 135.50 432.99 136.00
  L 433.00 142.07
  Q 433.00 142.56 432.67 142.91
  L 432.30 143.31
  Q 431.80 143.86 432.52 144.00
  Q 433.05 144.10 433.57 143.90
  A 0.74 0.73 -16.7 0 0 434.03 143.06
  Q 433.89 142.40 434.47 142.02
  Q 434.96 141.70 435.02 141.13
  Q 435.05 140.93 434.98 140.73
  Q 434.73 140.01 435.50 140.01
  Z
  M 427.21 136.45
  Q 426.75 136.27 426.40 136.65
  Q 424.92 138.31 424.73 139.93
  Q 424.41 142.74 424.29 146.21
  Q 424.19 149.08 427.05 148.84
  Q 427.45 148.81 427.84 148.68
  Q 429.90 147.97 430.11 145.80
  Q 430.32 143.63 430.99 141.30
  Q 431.69 138.88 431.68 136.38
  Q 431.67 135.91 431.21 135.85
  Q 429.28 135.56 427.76 136.41
  Q 427.49 136.56 427.21 136.45
  Z"
/>
<path fill="#19e812" d="
  M 362.90 163.55
  C 359.09 165.48 357.66 163.08 355.85 160.43
  Q 355.58 160.03 356.03 159.86
  L 367.43 155.71
  Q 368.92 155.17 369.07 153.60
  C 369.43 149.84 368.36 146.49 368.02 142.84
  Q 367.54 137.70 367.27 132.81
  Q 367.18 131.22 368.56 132.00
  Q 369.14 132.33 369.77 132.54
  Q 371.02 132.97 371.10 134.30
  Q 371.85 146.76 370.03 159.99
  A 1.24 1.24 0.0 0 1 369.35 160.93
  C 368.10 161.55 366.78 161.99 365.65 162.81
  Q 364.84 163.39 363.73 163.36
  Q 363.30 163.35 362.90 163.55
  Z"
/>
<path fill="#19e812" d="
  M 388.51 137.57
  Q 389.37 137.82 389.89 137.08
  Q 390.27 136.54 390.74 137.00
  L 391.17 137.43
  Q 391.57 137.83 391.52 138.39
  L 390.93 145.18
  Q 390.67 148.20 387.65 148.47
  Q 387.22 148.51 386.82 148.41
  Q 384.90 147.97 385.00 146.01
  Q 385.27 140.53 386.07 135.64
  A 0.88 0.87 -59.0 0 1 387.63 135.25
  Q 388.10 135.86 387.96 136.70
  A 0.79 0.79 0.0 0 0 388.51 137.57
  Z"
/>
<path fill="#19e812" d="
  M 427.76 136.41
  Q 429.28 135.56 431.21 135.85
  Q 431.67 135.91 431.68 136.38
  Q 431.69 138.88 430.99 141.30
  Q 430.32 143.63 430.11 145.80
  Q 429.90 147.97 427.84 148.68
  Q 427.45 148.81 427.05 148.84
  Q 424.19 149.08 424.29 146.21
  Q 424.41 142.74 424.73 139.93
  Q 424.92 138.31 426.40 136.65
  Q 426.75 136.27 427.21 136.45
  Q 427.49 136.56 427.76 136.41
  Z"
/>
<path fill="#19e812" d="
  M 140.94 168.31
  Q 138.17 166.92 136.84 164.25
  A 0.64 0.64 0.0 0 1 137.61 163.36
  Q 140.83 164.42 144.07 165.31
  Q 149.79 166.89 151.33 161.30
  Q 153.76 152.48 155.98 143.77
  Q 157.21 138.96 162.48 140.34
  A 1.05 1.05 0.0 0 1 163.27 141.38
  L 163.11 146.82
  A 1.18 1.14 62.5 0 1 162.94 147.39
  Q 162.32 148.39 162.60 149.61
  Q 162.74 150.21 162.45 150.75
  C 161.10 153.38 161.18 156.27 159.93 158.98
  Q 159.07 160.83 159.60 163.03
  Q 159.72 163.52 159.43 163.94
  Q 158.74 164.94 158.64 165.97
  C 158.48 167.65 157.57 169.56 156.73 170.98
  A 1.50 1.49 -72.1 0 1 155.32 171.71
  Q 151.49 171.38 147.78 171.56
  Q 144.48 171.72 141.78 168.93
  Q 141.42 168.55 140.94 168.31
  Z"
/>
<path fill="#19e812" d="
  M 308.76 166.87
  Q 304.45 165.22 302.19 160.51
  A 0.44 0.44 0.0 0 1 302.69 159.89
  L 315.09 162.96
  Q 316.48 163.30 316.67 161.89
  L 319.51 141.45
  Q 319.74 139.80 320.75 141.12
  Q 325.10 146.81 325.90 147.86
  A 4.46 4.45 32.6 0 1 326.71 151.51
  Q 325.06 159.06 323.60 166.35
  Q 323.27 168.03 321.48 168.40
  Q 318.15 169.10 314.96 168.51
  Q 311.25 167.82 308.76 166.87
  Z"
/>
<path fill="#19e812" d="
  M 393.66 168.34
  Q 390.66 169.74 386.25 170.96
  C 384.11 171.55 379.93 171.72 377.83 171.08
  Q 373.82 169.85 371.11 165.77
  A 0.41 0.41 0.0 0 1 371.52 165.14
  Q 380.78 166.56 389.58 163.36
  Q 391.90 162.51 394.74 160.77
  Q 398.17 158.67 399.59 157.58
  Q 402.58 155.29 405.42 151.24
  C 407.00 148.98 407.67 146.24 408.32 143.62
  Q 410.08 136.48 410.02 143.83
  Q 409.98 149.38 409.56 155.61
  A 2.54 2.54 0.0 0 1 408.72 157.33
  Q 406.64 159.18 404.54 161.24
  Q 402.30 163.44 400.09 164.80
  Q 396.55 166.99 393.66 168.34
  Z"
/>
<path fill="#19e812" d="
  M 271.62 152.61
  C 270.21 154.92 269.14 157.33 267.78 159.68
  C 266.62 161.69 264.38 162.13 262.25 162.16
  Q 257.51 162.25 252.88 162.40
  Q 250.94 162.47 249.63 161.05
  L 247.92 159.20
  Q 246.51 157.67 248.59 157.58
  L 260.98 157.07
  A 3.11 3.10 -78.6 0 0 263.68 155.27
  L 269.49 142.75
  Q 270.52 140.52 271.97 142.51
  L 273.77 145.02
  Q 275.16 146.94 273.89 148.95
  Q 272.74 150.77 271.62 152.61
  Z"
/>
<path fill="#19e812" d="
  M 227.24 165.78
  Q 225.19 165.59 223.28 166.23
  C 221.87 166.55 220.73 167.16 219.26 167.17
  Q 213.14 167.21 207.53 167.82
  Q 204.37 168.17 201.25 166.48
  Q 200.46 166.05 199.91 165.27
  Q 198.30 163.03 201.01 162.50
  L 228.08 157.24
  A 3.22 3.21 -4.7 0 0 230.69 154.17
  L 231.00 142.70
  Q 231.03 141.71 231.92 142.15
  L 237.44 144.84
  Q 238.66 145.44 238.49 146.79
  Q 238.20 149.04 239.04 151.38
  Q 239.49 152.65 239.35 153.98
  C 239.17 155.74 239.28 157.47 238.71 159.19
  Q 238.14 160.90 238.41 162.64
  A 0.85 0.82 -27.9 0 1 238.18 163.34
  Q 236.87 164.63 235.26 164.82
  Q 231.20 165.30 227.24 165.78
  Z"
/>
<path fill="#19e812" d="
  M 414.77 169.78
  Q 413.20 168.15 412.13 167.31
  Q 410.11 165.73 412.67 165.95
  Q 432.76 167.61 445.03 150.97
  C 446.52 150.52 446.56 148.95 447.62 148.06
  A 1.67 1.66 70.2 0 1 450.35 149.35
  Q 450.34 153.23 447.97 155.79
  Q 447.51 156.29 447.40 156.95
  Q 447.28 157.63 446.77 158.05
  Q 446.03 158.66 445.98 158.72
  Q 436.40 169.10 422.43 170.99
  Q 420.53 171.24 418.57 170.78
  Q 416.66 170.33 414.77 169.78
  Z"
/>
<path fill="#19e812" d="
  M 297.29 156.31
  L 291.01 162.52
  A 1.74 1.74 0.0 0 1 288.77 162.69
  L 285.72 160.49
  A 1.74 1.74 0.0 0 1 285.55 157.82
  L 293.65 150.14
  A 1.74 1.74 0.0 0 1 296.50 150.86
  L 297.72 154.52
  A 1.74 1.74 0.0 0 1 297.29 156.31
  Z"
/>
<path fill="#19e812" d="
  M 351.50 153.75
  A 0.03 0.03 0.0 0 1 351.54 153.75
  L 351.60 153.81
  A 5.78 5.62 46.2 0 1 351.55 161.87
  L 348.72 164.59
  A 5.78 5.62 46.2 0 1 340.66 164.30
  L 340.60 164.24
  A 0.03 0.03 0.0 0 1 340.60 164.20
  L 351.50 153.75
  Z"
/>
<path fill="#0f720a" d="
  M 227.24 165.78
  Q 225.83 166.76 223.28 166.23
  Q 225.19 165.59 227.24 165.78
  Z"
/>
</svg>
