<?xml version="1.0" encoding="UTF-8" standalone="no"?>
<!DOCTYPE svg PUBLIC "-//W3C//DTD SVG 1.1//EN" "http://www.w3.org/Graphics/SVG/1.1/DTD/svg11.dtd">
<svg xmlns="http://www.w3.org/2000/svg" version="1.1" viewBox="0.00 0.00 600.00 300.00">
<g stroke-width="2.00" fill="none" stroke-linecap="butt">
<path stroke="#ff3e00" vector-effect="non-scaling-stroke" d="
  M 287.88 212.54
  Q 287.47 214.56 290.47 215.70"
/>
<path stroke="#febd00" vector-effect="non-scaling-stroke" d="
  M 452.97 212.92
  Q 452.61 213.98 453.06 214.50
  Q 453.28 214.75 452.98 214.91
  Q 452.70 215.06 452.71 215.27"
/>
<path stroke="#ff3e00" vector-effect="non-scaling-stroke" d="
  M 283.96 218.17
  L 283.04 218.24
  Q 282.60 218.27 282.85 218.63
  Q 282.97 218.80 283.17 218.79
  Q 283.60 218.76 283.68 219.19
  Q 283.78 219.82 283.31 220.15
  Q 282.78 220.51 283.31 220.87
  L 283.97 221.30"
/>
<path stroke="#ff9c00" vector-effect="non-scaling-stroke" d="
  M 424.04 218.53
  L 424.30 218.80
  Q 424.63 219.12 424.31 219.44
  L 423.99 219.76
  Q 423.86 219.89 424.03 219.93
  Q 425.22 220.24 425.30 221.01"
/>
<path stroke="#fede00" vector-effect="non-scaling-stroke" d="
  M 457.30 218.64
  Q 456.58 218.88 456.45 219.30
  A 0.51 0.51 0.0 0 0 456.77 219.94
  Q 457.46 220.17 457.80 221.01"
/>
<path stroke="#ff3e00" vector-effect="non-scaling-stroke" d="
  M 287.46 223.98
  Q 287.06 225.61 287.97 227.02"
/>
<path stroke="#ff9c00" vector-effect="non-scaling-stroke" d="
  M 438.28 224.32
  Q 437.94 224.43 438.10 224.84
  Q 438.28 225.32 437.77 225.36
  L 436.53 225.45
  Q 436.32 225.46 436.52 225.54
  Q 437.70 225.95 437.45 226.74"
/>
<path stroke="#fede00" vector-effect="non-scaling-stroke" d="
  M 464.23 224.38
  Q 463.13 225.73 464.31 226.73"
/>
<path stroke="#ff3e00" vector-effect="non-scaling-stroke" d="
  M 287.23 229.75
  L 287.75 232.94"
/>
<path stroke="#ff9c00" vector-effect="non-scaling-stroke" d="
  M 438.47 230.04
  Q 438.29 230.35 437.60 230.60
  Q 436.82 230.89 437.61 231.16
  Q 437.73 231.20 437.75 231.40
  Q 437.79 231.85 437.38 232.03
  Q 436.94 232.20 436.70 232.51"
/>
<path stroke="#fede00" vector-effect="non-scaling-stroke" d="
  M 474.73 230.16
  Q 470.18 230.97 472.74 232.44"
/>
<path stroke="#ff3e00" vector-effect="non-scaling-stroke" d="
  M 279.96 235.38
  Q 279.15 237.24 280.03 238.68"
/>
<path stroke="#ff9c00" vector-effect="non-scaling-stroke" d="
  M 439.71 235.78
  L 439.57 236.43
  Q 439.47 236.87 439.84 237.12
  Q 440.25 237.39 440.20 238.24"
/>
<path stroke="#fede00" vector-effect="non-scaling-stroke" d="
  M 460.55 235.85
  Q 460.53 237.09 461.08 238.20"
/>
</g>
<path fill="#000000" d="
  M 133.63 172.25
  Q 133.63 171.23 133.13 172.12
  L 111.96 210.23
  Q 111.65 210.80 111.00 210.80
  L 72.19 210.79
  Q 71.31 210.79 72.00 211.34
  L 99.52 233.25
  A 0.61 0.61 0.0 0 1 99.67 234.03
  L 66.93 290.74
  Q 66.79 291.00 66.49 291.00
  L 13.69 291.00
  A 0.26 0.26 0.0 0 1 13.47 290.59
  L 195.95 13.79
  Q 196.50 12.96 196.50 13.95
  L 196.50 210.52
  A 0.28 0.27 -90.0 0 1 196.23 210.80
  L 134.28 210.80
  Q 133.63 210.80 133.63 210.14
  L 133.63 172.25
  Z"
/>
<path fill="#000000" d="
  M 429.21 129.54
  C 427.87 128.76 424.47 128.24 424.09 130.54
  Q 423.77 132.56 423.77 134.74
  Q 423.77 163.01 423.86 188.64
  Q 423.87 192.04 427.24 191.60
  L 427.98 191.50
  Q 430.37 191.19 430.37 188.78
  L 430.36 167.37
  A 0.34 0.33 -0.0 0 1 430.70 167.04
  L 449.80 167.03
  Q 450.46 167.03 450.46 167.69
  Q 450.48 177.18 450.44 187.08
  C 450.42 193.37 450.47 202.34 443.82 205.45
  C 434.78 209.68 422.55 208.72 413.06 205.94
  Q 407.11 204.20 405.82 198.47
  Q 404.80 193.92 404.78 189.57
  Q 404.67 160.87 404.82 129.60
  C 404.83 126.33 405.53 119.32 408.40 117.05
  Q 410.82 115.13 414.50 114.22
  C 423.68 111.96 436.32 111.15 444.67 115.65
  C 448.77 117.85 449.91 122.79 450.16 127.05
  Q 450.67 135.81 450.41 145.33
  A 0.40 0.40 0.0 0 1 450.01 145.72
  L 430.82 145.71
  A 0.45 0.44 0.0 0 1 430.37 145.27
  L 430.35 131.50
  A 2.30 2.28 15.0 0 0 429.21 129.54
  Z"
/>
<path fill="#000000" d="
  M 228.25 155.44
  L 228.25 205.77
  Q 228.25 206.29 227.73 206.29
  L 210.66 206.29
  A 0.38 0.38 0.0 0 1 210.28 205.91
  L 210.29 114.48
  A 0.23 0.23 0.0 0 1 210.52 114.25
  L 234.02 114.25
  Q 234.56 114.25 234.65 114.77
  L 241.79 154.25
  Q 242.18 156.42 242.59 154.25
  L 250.06 114.79
  Q 250.16 114.25 250.71 114.25
  L 272.26 114.25
  A 0.38 0.38 0.0 0 1 272.64 114.63
  L 272.64 205.97
  A 0.32 0.32 0.0 0 1 272.32 206.29
  L 255.05 206.29
  Q 254.54 206.29 254.54 205.79
  Q 254.36 180.78 254.65 155.77
  Q 254.65 155.71 254.59 155.70
  L 254.28 155.68
  Q 254.18 155.67 254.16 155.77
  L 245.68 205.73
  Q 245.59 206.29 245.02 206.29
  L 238.03 206.29
  Q 237.45 206.29 237.36 205.73
  Q 232.92 179.52 228.48 155.42
  Q 228.25 154.20 228.25 155.44
  Z"
/>
<path fill="#000000" d="
  M 300.97 128.10
  L 300.97 149.28
  A 0.35 0.35 0.0 0 0 301.32 149.63
  L 311.65 149.62
  A 0.35 0.35 0.0 0 1 312.00 149.97
  L 312.00 162.95
  A 0.35 0.35 0.0 0 1 311.65 163.30
  L 301.32 163.28
  A 0.35 0.35 0.0 0 0 300.97 163.63
  L 300.96 192.65
  A 0.35 0.35 0.0 0 0 301.31 193.00
  L 312.45 193.00
  A 0.35 0.35 0.0 0 1 312.80 193.35
  L 312.80 205.94
  A 0.35 0.35 0.0 0 1 312.45 206.29
  L 281.38 206.29
  A 0.35 0.35 0.0 0 1 281.03 205.94
  L 281.04 114.60
  A 0.35 0.35 0.0 0 1 281.39 114.25
  L 312.45 114.25
  A 0.35 0.35 0.0 0 1 312.80 114.60
  L 312.80 127.40
  A 0.35 0.35 0.0 0 1 312.45 127.75
  L 301.32 127.75
  A 0.35 0.35 0.0 0 0 300.97 128.10
  Z"
/>
<path fill="#000000" d="
  M 354.97 161.75
  C 357.70 162.52 361.66 163.50 363.75 165.48
  C 366.18 167.77 366.49 173.30 366.49 176.45
  Q 366.50 191.39 366.51 205.74
  Q 366.51 206.29 365.97 206.29
  L 347.77 206.29
  A 0.52 0.52 0.0 0 1 347.25 205.77
  L 347.24 173.27
  Q 347.24 170.97 345.03 170.35
  Q 344.53 170.21 342.79 169.72
  Q 340.80 169.15 340.80 171.22
  L 340.80 205.75
  Q 340.80 206.29 340.25 206.29
  L 321.42 206.29
  Q 320.79 206.29 320.79 205.67
  L 320.79 114.70
  A 0.44 0.43 -0.0 0 1 321.23 114.27
  Q 333.73 114.20 346.43 114.28
  Q 351.55 114.31 357.22 115.36
  C 364.01 116.63 365.77 121.50 366.19 127.39
  Q 366.83 136.58 366.36 146.74
  C 366.20 150.11 365.99 155.96 362.71 157.80
  Q 359.55 159.58 354.96 161.03
  Q 353.75 161.41 354.97 161.75
  Z
  M 340.90 127.80
  L 340.86 152.32
  A 0.44 0.44 0.0 0 0 341.30 152.77
  L 343.93 152.77
  A 3.49 3.31 -89.9 0 0 347.24 149.29
  L 347.28 130.87
  A 3.49 3.31 -89.9 0 0 343.97 127.37
  L 341.34 127.37
  A 0.44 0.44 0.0 0 0 340.90 127.80
  Z"
/>
<rect fill="#000000" x="376.45" y="114.25" width="19.84" height="92.04" rx="0.36"/>
<path fill="#000000" d="
  M 483.86 190.04
  L 474.44 190.05
  A 0.41 0.41 0.0 0 0 474.04 190.42
  L 472.59 205.92
  A 0.41 0.41 0.0 0 1 472.19 206.29
  L 453.83 206.29
  A 0.41 0.41 0.0 0 1 453.43 205.81
  L 468.44 114.59
  A 0.41 0.41 0.0 0 1 468.85 114.25
  L 492.29 114.25
  A 0.41 0.41 0.0 0 1 492.69 114.61
  L 503.37 205.83
  A 0.41 0.41 0.0 0 1 502.96 206.29
  L 486.60 206.29
  A 0.41 0.41 0.0 0 1 486.20 205.93
  L 484.26 190.40
  A 0.41 0.41 0.0 0 0 483.86 190.04
  Z
  M 480.18 140.10
  Q 478.40 156.87 477.18 172.92
  Q 477.15 173.25 477.48 173.25
  L 483.02 173.24
  A 0.24 0.24 0.0 0 0 483.26 172.98
  L 480.45 140.57
  Q 480.43 140.42 480.54 140.32
  Q 480.76 140.08 480.45 139.94
  A 0.20 0.19 -74.8 0 0 480.18 140.10
  Z"
/>
<path fill="#000000" d="
  M 534.77 147.67
  Q 536.00 152.83 536.00 147.52
  L 536.00 114.75
  A 0.50 0.50 0.0 0 1 536.50 114.25
  L 552.77 114.25
  A 0.52 0.52 0.0 0 1 553.29 114.77
  L 553.29 205.75
  Q 553.29 206.29 552.75 206.29
  L 537.95 206.29
  A 0.80 0.80 0.0 0 1 537.18 205.70
  L 525.31 163.21
  Q 524.79 161.37 524.80 163.29
  L 524.80 205.74
  Q 524.80 206.29 524.25 206.29
  L 508.21 206.29
  Q 507.63 206.29 507.63 205.71
  L 507.63 114.94
  Q 507.63 114.25 508.32 114.25
  L 525.51 114.25
  Q 526.11 114.25 526.27 114.83
  Q 531.22 132.68 534.77 147.67
  Z"
/>
<path fill="#000000" d="
  M 560.93 117.02
  L 558.52 117.06
  A 0.34 0.34 0.0 0 1 558.18 116.75
  L 558.11 115.73
  A 0.34 0.34 0.0 0 1 558.44 115.37
  L 566.39 115.36
  A 0.34 0.34 0.0 0 1 566.73 115.72
  L 566.69 116.74
  A 0.34 0.34 0.0 0 1 566.34 117.07
  L 563.89 117.03
  A 0.34 0.34 0.0 0 0 563.55 117.37
  L 563.55 124.37
  A 0.34 0.34 0.0 0 1 563.22 124.71
  L 561.64 124.74
  A 0.34 0.34 0.0 0 1 561.29 124.40
  L 561.28 117.36
  A 0.34 0.34 0.0 0 0 560.93 117.02
  Z"
/>
<path fill="#000000" d="
  M 576.34 118.62
  Q 575.46 120.71 574.91 123.43
  Q 574.74 124.26 574.10 124.60
  Q 573.48 124.93 572.72 124.78
  Q 572.16 124.67 572.00 124.12
  L 570.66 119.69
  Q 570.20 118.15 570.10 119.76
  Q 569.98 122.01 570.07 124.15
  Q 570.09 124.73 569.50 124.73
  L 568.47 124.73
  Q 567.96 124.73 567.96 124.22
  L 567.96 116.08
  Q 567.96 115.37 568.67 115.37
  L 570.78 115.36
  Q 571.20 115.36 571.33 115.77
  L 572.96 121.22
  Q 573.29 122.32 573.62 121.22
  L 575.17 115.92
  Q 575.33 115.37 575.91 115.37
  L 578.07 115.37
  Q 578.71 115.37 578.71 116.01
  L 578.72 124.00
  Q 578.72 124.71 578.00 124.71
  L 577.23 124.71
  Q 576.49 124.72 576.51 123.98
  L 576.61 118.68
  Q 576.62 117.95 576.34 118.62
  Z"
/>
<path fill="#ff0100" d="
  M 287.88 212.54
  Q 287.47 214.56 290.47 215.70
  L 181.60 215.97
  Q 178.96 215.97 181.44 215.05
  Q 183.50 214.28 185.94 213.21
  Q 187.91 212.35 190.85 212.35
  Q 239.46 212.47 287.88 212.54
  Z"
/>
<path fill="#fe7b00" d="
  M 287.88 212.54
  L 452.97 212.92
  Q 452.61 213.98 453.06 214.50
  Q 453.28 214.75 452.98 214.91
  Q 452.70 215.06 452.71 215.27
  L 290.47 215.70
  Q 287.47 214.56 287.88 212.54
  Z"
/>
<path fill="#fdfe00" d="
  M 452.97 212.92
  L 587.69 213.25
  Q 588.40 213.25 588.36 213.95
  L 588.34 214.24
  Q 588.30 214.94 587.60 214.94
  L 452.71 215.27
  Q 452.70 215.06 452.98 214.91
  Q 453.28 214.75 453.06 214.50
  Q 452.61 213.98 452.97 212.92
  Z"
/>
<path fill="#ff0100" d="
  M 283.96 218.17
  L 283.04 218.24
  Q 282.60 218.27 282.85 218.63
  Q 282.97 218.80 283.17 218.79
  Q 283.60 218.76 283.68 219.19
  Q 283.78 219.82 283.31 220.15
  Q 282.78 220.51 283.31 220.87
  L 283.97 221.30
  L 167.27 221.53
  A 0.19 0.19 0.0 0 1 167.21 221.16
  Q 169.84 220.20 172.43 218.95
  Q 174.39 218.00 177.28 217.99
  Q 230.62 217.96 283.96 218.17
  Z"
/>
<path fill="#fe7b00" d="
  M 283.96 218.17
  L 424.04 218.53
  L 424.30 218.80
  Q 424.63 219.12 424.31 219.44
  L 423.99 219.76
  Q 423.86 219.89 424.03 219.93
  Q 425.22 220.24 425.30 221.01
  L 283.97 221.30
  L 283.31 220.87
  Q 282.78 220.51 283.31 220.15
  Q 283.78 219.82 283.68 219.19
  Q 283.60 218.76 283.17 218.79
  Q 282.97 218.80 282.85 218.63
  Q 282.60 218.27 283.04 218.24
  L 283.96 218.17
  Z"
/>
<path fill="#ffbd00" d="
  M 424.04 218.53
  L 457.30 218.64
  Q 456.58 218.88 456.45 219.30
  A 0.51 0.51 0.0 0 0 456.77 219.94
  Q 457.46 220.17 457.80 221.01
  L 425.30 221.01
  Q 425.22 220.24 424.03 219.93
  Q 423.86 219.89 423.99 219.76
  L 424.31 219.44
  Q 424.63 219.12 424.30 218.80
  L 424.04 218.53
  Z"
/>
<path fill="#fdfe00" d="
  M 457.30 218.64
  L 587.70 218.98
  Q 588.20 218.98 588.27 219.47
  L 588.37 220.11
  Q 588.46 220.68 587.88 220.68
  L 457.80 221.01
  Q 457.46 220.17 456.77 219.94
  A 0.51 0.51 0.0 0 1 456.45 219.30
  Q 456.58 218.88 457.30 218.64
  Z"
/>
<path fill="#ff0100" d="
  M 287.46 223.98
  Q 287.06 225.61 287.97 227.02
  L 154.24 227.22
  Q 153.73 227.22 154.17 226.97
  Q 159.71 223.80 162.00 223.81
  Q 224.73 223.96 287.46 223.98
  Z"
/>
<path fill="#fe7b00" d="
  M 287.46 223.98
  L 438.28 224.32
  Q 437.94 224.43 438.10 224.84
  Q 438.28 225.32 437.77 225.36
  L 436.53 225.45
  Q 436.32 225.46 436.52 225.54
  Q 437.70 225.95 437.45 226.74
  L 287.97 227.02
  Q 287.06 225.61 287.46 223.98
  Z"
/>
<path fill="#ffbd00" d="
  M 438.28 224.32
  L 464.23 224.38
  Q 463.13 225.73 464.31 226.73
  L 437.45 226.74
  Q 437.70 225.95 436.52 225.54
  Q 436.32 225.46 436.53 225.45
  L 437.77 225.36
  Q 438.28 225.32 438.10 224.84
  Q 437.94 224.43 438.28 224.32
  Z"
/>
<path fill="#fdfe00" d="
  M 464.23 224.38
  L 587.94 224.72
  Q 588.25 224.72 588.25 225.03
  L 588.28 226.03
  Q 588.30 226.41 587.92 226.41
  L 464.31 226.73
  Q 463.13 225.73 464.23 224.38
  Z"
/>
<path fill="#ff0100" d="
  M 287.23 229.75
  L 287.75 232.94
  L 139.95 233.03
  A 0.03 0.03 0.0 0 1 139.94 232.97
  Q 142.86 231.64 145.55 230.46
  Q 147.81 229.48 151.13 229.48
  Q 219.16 229.58 287.23 229.75
  Z"
/>
<path fill="#fe7b00" d="
  M 287.23 229.75
  L 438.47 230.04
  Q 438.29 230.35 437.60 230.60
  Q 436.82 230.89 437.61 231.16
  Q 437.73 231.20 437.75 231.40
  Q 437.79 231.85 437.38 232.03
  Q 436.94 232.20 436.70 232.51
  L 287.75 232.94
  L 287.23 229.75
  Z"
/>
<path fill="#ffbd00" d="
  M 438.47 230.04
  L 474.73 230.16
  Q 470.18 230.97 472.74 232.44
  L 436.70 232.51
  Q 436.94 232.20 437.38 232.03
  Q 437.79 231.85 437.75 231.40
  Q 437.73 231.20 437.61 231.16
  Q 436.82 230.89 437.60 230.60
  Q 438.29 230.35 438.47 230.04
  Z"
/>
<path fill="#fdfe00" d="
  M 472.74 232.44
  Q 470.18 230.97 474.73 230.16
  L 587.89 230.39
  A 0.37 0.37 0.0 0 1 588.26 230.76
  L 588.27 231.77
  Q 588.27 232.17 587.87 232.17
  L 472.74 232.44
  Z"
/>
<path fill="#ff0100" d="
  M 279.96 235.38
  Q 279.15 237.24 280.03 238.68
  L 135.74 239.04
  Q 134.45 239.04 134.28 237.77
  Q 134.18 237.01 134.07 236.26
  Q 133.90 234.98 135.19 234.98
  L 279.96 235.38
  Z"
/>
<path fill="#fe7b00" d="
  M 439.71 235.78
  L 439.57 236.43
  Q 439.47 236.87 439.84 237.12
  Q 440.25 237.39 440.20 238.24
  L 280.03 238.68
  Q 279.15 237.24 279.96 235.38
  L 439.71 235.78
  Z"
/>
<path fill="#ffbd00" d="
  M 439.71 235.78
  L 460.55 235.85
  Q 460.53 237.09 461.08 238.20
  L 440.20 238.24
  Q 440.25 237.39 439.84 237.12
  Q 439.47 236.87 439.57 236.43
  L 439.71 235.78
  Z"
/>
<path fill="#fdfe00" d="
  M 460.55 235.85
  L 587.69 236.14
  A 0.67 0.65 87.1 0 1 588.34 236.74
  L 588.38 237.06
  A 0.77 0.77 0.0 0 1 587.61 237.91
  L 461.08 238.20
  Q 460.53 237.09 460.55 235.85
  Z"
/>
<path fill="#000000" d="
  M 135.73 240.78
  L 196.13 240.80
  A 0.37 0.37 0.0 0 1 196.50 241.17
  L 196.50 276.84
  A 0.37 0.37 0.0 0 1 196.13 277.21
  L 147.73 277.21
  A 0.37 0.37 0.0 0 1 147.38 276.96
  L 135.38 241.27
  A 0.37 0.37 0.0 0 1 135.73 240.78
  Z"
/>
<path fill="#000000" d="
  M 215.17 277.50
  L 232.89 277.50
  A 0.42 0.42 0.0 0 1 233.31 277.93
  L 233.27 280.34
  A 0.42 0.42 0.0 0 1 232.85 280.75
  L 211.92 280.75
  A 0.42 0.42 0.0 0 1 211.50 280.33
  L 211.50 250.93
  A 0.42 0.42 0.0 0 1 211.92 250.51
  L 214.33 250.51
  A 0.42 0.42 0.0 0 1 214.75 250.93
  L 214.75 277.08
  A 0.42 0.42 0.0 0 0 215.17 277.50
  Z"
/>
<path fill="#000000" d="
  M 240.55 274.68
  L 237.75 280.59
  A 0.31 0.31 0.0 0 1 237.47 280.77
  L 234.56 280.74
  A 0.31 0.31 0.0 0 1 234.29 280.30
  L 248.19 250.67
  A 0.31 0.31 0.0 0 1 248.47 250.49
  L 251.98 250.50
  A 0.31 0.31 0.0 0 1 252.26 250.68
  L 266.14 280.32
  A 0.31 0.31 0.0 0 1 265.86 280.76
  L 262.94 280.75
  A 0.31 0.31 0.0 0 1 262.66 280.57
  L 259.88 274.68
  A 0.31 0.31 0.0 0 0 259.60 274.50
  L 240.83 274.50
  A 0.31 0.31 0.0 0 0 240.55 274.68
  Z
  M 242.35 270.81
  A 0.31 0.31 0.0 0 0 242.63 271.25
  L 257.79 271.25
  A 0.31 0.31 0.0 0 0 258.07 270.81
  L 250.49 254.64
  A 0.31 0.31 0.0 0 0 249.93 254.64
  L 242.35 270.81
  Z"
/>
<path fill="#000000" d="
  M 274.79 263.79
  Q 275.91 264.26 277.12 264.24
  Q 284.39 264.11 290.63 264.28
  C 294.41 264.38 297.36 267.10 297.03 271.08
  C 296.73 274.75 297.83 278.14 293.52 280.01
  Q 291.73 280.79 289.86 280.77
  Q 284.04 280.69 277.33 280.77
  C 271.73 280.84 268.83 277.81 269.79 271.80
  Q 269.88 271.25 270.43 271.25
  L 272.34 271.24
  Q 272.91 271.24 272.94 271.81
  C 273.09 274.50 272.57 277.45 276.49 277.48
  Q 283.18 277.53 290.18 277.49
  C 294.49 277.46 293.74 273.37 293.73 270.60
  C 293.72 268.06 291.13 267.36 289.05 267.41
  Q 282.06 267.56 276.05 267.40
  C 272.83 267.31 269.48 265.00 269.68 261.43
  C 269.82 258.86 269.05 255.17 270.77 253.11
  Q 272.95 250.48 276.36 250.52
  Q 281.63 250.58 287.73 250.43
  C 293.44 250.28 298.08 252.11 296.90 258.98
  Q 296.85 259.28 296.55 259.27
  L 293.84 259.22
  Q 293.63 259.22 293.67 259.00
  C 294.26 256.06 293.04 253.73 290.03 253.74
  Q 283.23 253.76 276.50 253.75
  C 274.49 253.75 272.78 255.12 272.91 257.29
  C 273.05 259.48 272.17 262.70 274.79 263.79
  Z"
/>
<path fill="#000000" d="
  M 306.25 277.50
  L 325.78 277.50
  A 0.36 0.36 0.0 0 1 326.14 277.86
  L 326.10 280.39
  A 0.36 0.36 0.0 0 1 325.74 280.75
  L 302.99 280.75
  A 0.36 0.36 0.0 0 1 302.63 280.39
  L 302.63 250.86
  A 0.36 0.36 0.0 0 1 302.99 250.50
  L 325.78 250.50
  A 0.36 0.36 0.0 0 1 326.14 250.86
  L 326.10 253.39
  A 0.36 0.36 0.0 0 1 325.74 253.75
  L 306.24 253.75
  A 0.36 0.36 0.0 0 0 305.88 254.11
  L 305.87 263.43
  A 0.36 0.36 0.0 0 0 306.23 263.79
  L 325.02 263.79
  A 0.36 0.36 0.0 0 1 325.38 264.15
  L 325.37 266.77
  A 0.36 0.36 0.0 0 1 325.01 267.13
  L 306.24 267.12
  A 0.36 0.36 0.0 0 0 305.88 267.48
  L 305.89 277.14
  A 0.36 0.36 0.0 0 0 306.25 277.50
  Z"
/>
<path fill="#000000" d="
  M 354.44 267.86
  C 356.78 268.81 358.34 270.72 358.29 273.33
  Q 358.20 277.02 358.26 280.30
  Q 358.27 280.74 357.83 280.74
  L 355.50 280.78
  Q 355.00 280.79 355.00 280.28
  C 355.01 277.21 356.20 269.01 350.97 269.03
  Q 343.14 269.06 335.02 269.03
  Q 334.37 269.03 334.37 269.69
  L 334.38 280.39
  Q 334.38 280.76 334.01 280.76
  L 331.50 280.75
  A 0.39 0.39 0.0 0 1 331.11 280.36
  L 331.11 251.05
  Q 331.11 250.48 331.68 250.49
  Q 341.10 250.51 351.11 250.49
  C 354.52 250.49 358.22 252.62 358.07 256.41
  C 357.91 260.58 359.33 265.18 354.44 267.30
  Q 353.77 267.59 354.44 267.86
  Z
  M 334.37 254.19
  L 334.37 265.15
  A 0.58 0.58 0.0 0 0 334.95 265.73
  L 351.05 265.73
  A 3.76 3.58 -0.0 0 0 354.81 262.15
  L 354.81 257.19
  A 3.76 3.58 -0.0 0 0 351.05 253.61
  L 334.95 253.61
  A 0.58 0.58 0.0 0 0 334.37 254.19
  Z"
/>
<path fill="#000000" d="
  M 404.26 269.00
  L 393.98 269.00
  Q 393.47 269.00 393.48 268.48
  L 393.50 266.25
  Q 393.51 265.75 394.01 265.75
  L 408.49 265.75
  Q 409.12 265.75 409.09 266.39
  Q 408.93 269.97 409.10 274.01
  C 409.28 278.16 406.31 280.70 402.36 280.73
  Q 394.20 280.79 386.25 280.70
  C 382.52 280.65 379.51 278.39 379.52 274.58
  Q 379.57 265.40 379.52 256.74
  C 379.50 252.14 383.36 250.39 387.42 250.45
  Q 394.62 250.55 401.13 250.49
  Q 410.10 250.40 408.98 259.05
  A 0.26 0.25 3.7 0 1 408.72 259.27
  L 405.88 259.21
  Q 405.67 259.21 405.71 258.99
  C 406.37 255.72 404.93 253.66 401.71 253.70
  Q 393.91 253.81 386.33 253.72
  A 3.49 3.49 0.0 0 0 382.80 257.21
  L 382.80 274.15
  A 3.35 3.35 0.0 0 0 386.15 277.50
  L 402.69 277.50
  Q 405.26 277.50 405.55 274.94
  Q 405.61 274.33 405.99 270.93
  Q 406.21 269.00 404.26 269.00
  Z"
/>
<path fill="#000000" d="
  M 418.78 275.26
  L 416.43 280.29
  Q 416.22 280.75 415.71 280.75
  L 413.19 280.75
  Q 412.59 280.75 412.84 280.21
  L 426.08 251.96
  A 2.93 2.93 0.0 0 1 431.38 251.96
  L 444.68 280.38
  Q 444.85 280.74 444.45 280.75
  L 441.69 280.77
  A 0.69 0.69 0.0 0 1 441.07 280.38
  L 438.59 275.07
  A 1.00 0.98 77.1 0 0 437.70 274.50
  L 419.98 274.50
  Q 419.13 274.50 418.78 275.26
  Z
  M 420.89 270.75
  A 0.35 0.35 0.0 0 0 421.21 271.25
  L 436.25 271.25
  A 0.35 0.35 0.0 0 0 436.57 270.75
  L 429.05 254.71
  A 0.35 0.35 0.0 0 0 428.41 254.71
  L 420.89 270.75
  Z"
/>
<path fill="#000000" d="
  M 483.28 255.02
  A 0.20 0.20 0.0 0 0 482.91 254.92
  L 469.20 279.79
  A 2.17 2.17 0.0 0 1 465.40 279.79
  L 451.82 255.14
  Q 451.29 254.18 451.29 255.27
  L 451.29 280.46
  Q 451.29 280.72 451.03 280.72
  L 448.50 280.72
  A 0.47 0.47 0.0 0 1 448.03 280.25
  L 448.03 251.24
  Q 448.03 250.50 448.77 250.50
  L 452.34 250.49
  Q 453.01 250.49 453.33 251.08
  L 467.01 275.92
  A 0.33 0.33 0.0 0 0 467.59 275.92
  L 481.37 250.91
  A 0.80 0.80 0.0 0 1 482.07 250.50
  L 486.02 250.50
  Q 486.54 250.50 486.54 251.02
  L 486.55 280.21
  Q 486.55 280.71 486.04 280.71
  L 484.00 280.72
  A 0.72 0.71 -90.0 0 1 483.29 280.00
  L 483.28 255.02
  Z"
/>
<path fill="#000000" d="
  M 497.97 254.11
  L 497.96 263.43
  A 0.36 0.36 0.0 0 0 498.32 263.79
  L 517.09 263.79
  A 0.36 0.36 0.0 0 1 517.45 264.15
  L 517.47 266.77
  A 0.36 0.36 0.0 0 1 517.11 267.13
  L 498.33 267.12
  A 0.36 0.36 0.0 0 0 497.97 267.48
  L 497.97 277.14
  A 0.36 0.36 0.0 0 0 498.33 277.50
  L 517.86 277.50
  A 0.36 0.36 0.0 0 1 518.22 277.86
  L 518.20 280.39
  A 0.36 0.36 0.0 0 1 517.84 280.75
  L 495.07 280.75
  A 0.36 0.36 0.0 0 1 494.71 280.39
  L 494.71 250.86
  A 0.36 0.36 0.0 0 1 495.07 250.50
  L 517.86 250.50
  A 0.36 0.36 0.0 0 1 518.22 250.86
  L 518.21 253.39
  A 0.36 0.36 0.0 0 1 517.85 253.75
  L 498.33 253.75
  A 0.36 0.36 0.0 0 0 497.97 254.11
  Z"
/>
<path fill="#000000" d="
  M 523.95 256.80
  C 523.97 260.59 522.95 264.29 528.45 264.23
  Q 535.41 264.14 541.47 264.25
  C 545.19 264.32 548.31 266.92 548.04 270.90
  C 547.89 273.11 548.45 275.66 547.27 277.62
  C 545.97 279.79 543.28 280.84 540.83 280.78
  Q 535.75 280.64 530.41 280.82
  C 524.02 281.03 519.62 279.27 520.79 271.80
  Q 520.88 271.25 521.44 271.25
  L 523.32 271.24
  Q 523.92 271.23 523.96 271.84
  C 524.04 273.13 523.64 274.90 524.41 275.95
  Q 525.53 277.47 527.49 277.48
  Q 534.19 277.52 541.21 277.49
  C 543.19 277.48 544.85 276.05 544.84 274.01
  C 544.81 270.86 545.26 267.44 540.68 267.46
  Q 533.28 267.50 527.11 267.40
  C 523.92 267.35 520.50 265.04 520.68 261.50
  C 520.82 258.83 520.01 255.06 521.89 252.95
  Q 524.06 250.51 527.13 250.54
  Q 532.43 250.59 538.39 250.43
  C 544.51 250.27 548.98 251.94 547.90 259.11
  Q 547.87 259.29 547.70 259.28
  L 544.78 259.18
  Q 544.59 259.17 544.63 258.98
  C 545.32 255.91 543.94 253.70 540.83 253.72
  Q 533.11 253.77 527.26 253.77
  C 525.63 253.78 523.94 255.05 523.95 256.80
  Z"
/>
<rect fill="#000000" x="562.54" y="268.99" width="1.46" height="13.30" rx="0.49"/>
<path fill="#000000" d="
  M 567.74 282.24
  L 566.93 282.26
  A 0.30 0.30 0.0 0 1 566.63 281.96
  L 566.62 269.30
  A 0.30 0.30 0.0 0 1 566.92 269.00
  L 569.06 269.00
  A 0.30 0.30 0.0 0 1 569.32 269.14
  L 576.07 280.01
  A 0.30 0.30 0.0 0 0 576.62 279.85
  L 576.63 269.30
  A 0.30 0.30 0.0 0 1 576.93 269.00
  L 577.74 269.00
  A 0.30 0.30 0.0 0 1 578.04 269.30
  L 578.04 281.95
  A 0.30 0.30 0.0 0 1 577.74 282.25
  L 575.90 282.25
  A 0.30 0.30 0.0 0 1 575.64 282.11
  L 568.60 270.81
  A 0.30 0.30 0.0 0 0 568.05 270.97
  L 568.04 281.94
  A 0.30 0.30 0.0 0 1 567.74 282.24
  Z"
/>
<path fill="#000000" d="
  M 581.81 271.58
  L 581.80 279.24
  Q 581.79 280.62 583.17 280.73
  Q 585.52 280.91 587.60 280.73
  Q 589.59 280.57 589.23 278.45
  A 0.76 0.76 0.0 0 1 589.80 277.58
  L 590.06 277.52
  A 0.40 0.40 0.0 0 1 590.55 277.81
  C 591.42 281.00 589.48 282.45 586.60 282.30
  C 584.19 282.17 580.17 282.97 580.24 279.10
  Q 580.32 275.17 580.28 271.74
  A 2.65 2.65 0.0 0 1 582.76 269.07
  Q 585.25 268.90 587.80 269.03
  Q 590.81 269.18 590.71 272.25
  Q 590.68 272.99 589.95 272.89
  L 589.70 272.86
  Q 589.22 272.80 589.24 272.32
  Q 589.28 271.61 588.95 270.98
  A 0.96 0.96 0.0 0 0 588.10 270.47
  L 582.92 270.48
  Q 581.81 270.48 581.81 271.58
  Z"
/>
<path fill="#000000" d="
  M 551.93 281.50
  L 550.98 281.51
  Q 550.44 281.51 550.44 280.98
  L 550.46 277.96
  Q 550.46 277.37 551.04 277.37
  L 553.28 277.37
  Q 553.85 277.37 553.87 277.94
  C 553.93 279.78 553.72 281.71 553.89 283.48
  C 554.10 285.74 551.81 286.35 550.03 286.23
  Q 549.26 286.17 549.70 285.54
  Q 550.32 284.66 551.48 284.76
  A 0.84 0.84 0.0 0 0 552.35 284.19
  Q 552.70 283.19 552.53 282.01
  Q 552.45 281.49 551.93 281.50
  Z"
/>
</svg>
