<?xml version="1.0" encoding="UTF-8" standalone="no"?>
<!DOCTYPE svg PUBLIC "-//W3C//DTD SVG 1.1//EN" "http://www.w3.org/Graphics/SVG/1.1/DTD/svg11.dtd">
<svg xmlns="http://www.w3.org/2000/svg" version="1.1" viewBox="0.00 0.00 590.00 255.00">
<g stroke-width="2.00" fill="none" stroke-linecap="butt">
<path stroke="#87b2df" vector-effect="non-scaling-stroke" d="
  M 271.65 148.87
  Q 272.16 148.90 272.16 148.39
  Q 272.18 135.15 273.19 122.78
  Q 274.12 111.44 272.63 96.05
  C 272.27 92.29 272.62 88.66 271.97 85.02
  A 0.52 0.49 64.5 0 0 271.15 84.70
  Q 270.93 84.90 270.66 84.79
  A 0.05 0.05 0.0 0 0 270.59 84.84
  Q 270.69 87.04 270.45 88.95
  C 268.85 101.92 267.67 113.82 269.18 126.71
  C 270.03 133.97 269.97 140.77 270.40 147.95
  Q 270.45 148.81 271.31 148.85
  L 271.65 148.87"
/>
<path stroke="#87b2df" vector-effect="non-scaling-stroke" d="
  M 169.26 128.74
  L 170.81 145.23
  Q 171.05 147.75 173.58 147.82
  Q 174.37 147.85 175.09 147.36
  A 1.77 1.76 68.9 0 0 175.85 145.64
  Q 174.29 135.08 173.20 123.76
  C 171.87 109.98 170.18 96.16 169.21 82.55
  Q 169.14 81.62 168.80 80.93
  C 167.87 79.01 164.63 78.97 163.57 80.46
  Q 162.99 81.28 162.69 83.60
  Q 161.64 91.65 160.84 99.73
  C 159.29 115.37 157.40 130.73 155.48 146.32
  A 1.50 1.50 0.0 0 0 156.25 147.83
  Q 157.18 148.35 158.09 148.00
  Q 160.35 147.11 160.57 144.70
  L 162.02 128.64
  Q 162.09 127.84 162.89 127.81
  L 167.99 127.63
  A 1.23 1.22 86.1 0 1 169.26 128.74"
/>
<path stroke="#87b2df" vector-effect="non-scaling-stroke" d="
  M 322.74 115.61
  Q 324.59 115.92 326.62 115.57
  Q 328.06 115.32 327.91 113.86
  L 327.75 112.31
  Q 327.62 111.02 326.32 111.10
  L 322.87 111.33
  Q 321.95 111.39 322.01 110.47
  Q 322.84 98.97 322.49 86.74
  A 1.49 1.48 2.4 0 1 324.14 85.23
  Q 325.96 85.44 327.58 85.16
  Q 329.47 84.83 329.56 82.91
  Q 329.58 82.44 329.42 82.01
  Q 328.79 80.30 326.98 80.34
  L 320.18 80.50
  A 2.38 2.38 0.0 0 0 317.85 82.82
  L 316.31 147.40
  A 1.34 1.33 -89.8 0 0 317.66 148.77
  L 326.59 148.64
  Q 328.54 148.61 328.53 146.66
  L 328.53 146.02
  Q 328.53 143.75 326.26 143.92
  L 322.18 144.24
  A 0.80 0.79 88.1 0 1 321.33 143.43
  L 321.74 116.45
  A 0.86 0.86 0.0 0 1 322.74 115.61"
/>
<path stroke="#87b2df" vector-effect="non-scaling-stroke" d="
  M 218.05 79.62
  Q 217.46 79.16 216.85 79.28
  Q 214.60 79.73 214.42 82.02
  Q 213.81 89.83 213.87 105.96
  Q 213.94 121.07 213.18 143.75
  Q 213.13 145.36 213.31 147.08
  A 1.94 1.93 -5.2 0 0 215.38 148.80
  L 223.30 148.18
  Q 225.37 148.02 225.37 145.95
  L 225.37 145.31
  Q 225.37 142.98 223.06 143.28
  L 219.50 143.74
  Q 218.09 143.92 218.12 142.50
  L 219.45 82.58
  Q 219.49 80.75 218.05 79.62"
/>
<path stroke="#87b2df" vector-effect="non-scaling-stroke" d="
  M 434.14 89.59
  C 433.24 78.37 419.96 79.65 419.61 89.98
  Q 419.36 97.27 419.60 104.44
  C 419.78 109.42 423.05 114.13 425.82 118.17
  C 428.12 121.50 428.82 124.81 428.74 128.76
  Q 428.58 136.45 428.38 143.77
  A 1.94 1.92 60.9 0 1 428.12 144.70
  Q 426.89 146.85 425.91 146.40
  Q 423.70 145.36 423.79 142.92
  Q 424.09 135.62 423.88 127.75
  Q 423.83 125.82 421.98 126.35
  L 421.47 126.49
  Q 419.45 127.07 419.34 129.16
  Q 419.06 134.44 418.83 140.25
  C 418.67 144.62 419.92 149.46 424.53 150.56
  C 430.26 151.93 433.17 146.99 433.44 141.89
  Q 433.86 134.11 433.68 126.90
  C 433.54 121.02 430.32 116.74 427.22 112.03
  Q 424.43 107.77 424.40 102.75
  Q 424.35 94.97 424.63 88.98
  Q 424.71 87.15 426.44 86.55
  Q 427.26 86.26 428.14 86.63
  A 1.82 1.81 -77.9 0 1 429.25 88.35
  L 429.01 100.46
  Q 428.97 102.68 430.97 101.71
  L 432.25 101.08
  A 2.97 2.95 -9.4 0 0 433.88 98.82
  Q 434.50 94.11 434.14 89.59"
/>
<path stroke="#87b2df" vector-effect="non-scaling-stroke" d="
  M 168.77 122.71
  C 167.80 115.79 167.09 108.81 166.87 101.76
  Q 166.81 99.54 166.05 96.82
  Q 165.80 95.93 165.45 96.79
  Q 165.27 97.25 165.24 97.73
  Q 164.37 110.23 162.75 122.68
  Q 162.64 123.53 163.49 123.54
  L 168.02 123.56
  Q 168.88 123.57 168.77 122.71"
/>
<path stroke="#87b2df" vector-effect="non-scaling-stroke" d="
  M 381.12 120.25
  Q 381.21 127.73 380.07 120.34
  Q 377.47 103.62 374.80 85.24
  Q 374.14 80.72 369.41 81.90
  Q 367.70 82.32 367.76 84.09
  Q 367.95 89.94 367.86 95.47
  Q 367.45 120.99 367.30 147.19
  Q 367.29 149.14 369.24 149.12
  L 369.73 149.11
  Q 372.07 149.08 372.06 146.75
  Q 372.03 127.28 372.00 106.56
  Q 372.00 103.90 372.42 101.35
  Q 372.52 100.74 372.62 101.35
  Q 376.31 123.03 379.31 143.49
  Q 379.60 145.48 380.29 147.32
  C 381.10 149.53 385.19 149.45 385.39 146.67
  Q 385.56 144.27 385.55 141.79
  Q 385.41 110.74 385.74 83.79
  Q 385.76 81.79 383.83 81.29
  Q 383.46 81.20 383.10 81.25
  Q 380.63 81.64 380.66 84.15
  L 381.12 120.25"
/>
</g>
<path fill="#0f64be" d="
  M 266.79 145.71
  Q 265.48 143.14 264.65 140.95
  Q 263.66 138.32 262.75 135.36
  Q 261.87 132.53 261.68 129.55
  Q 261.38 124.93 261.13 120.50
  Q 260.44 108.50 261.85 97.52
  Q 262.03 96.13 262.71 94.78
  Q 262.98 94.23 262.90 93.63
  Q 262.57 91.29 263.37 89.31
  Q 264.11 87.49 264.59 85.56
  Q 265.44 82.21 266.79 79.64
  Q 268.38 76.63 272.15 77.02
  Q 272.69 77.08 272.23 77.36
  Q 271.20 77.97 270.11 77.86
  Q 269.93 77.84 269.93 78.02
  L 269.93 78.02
  Q 269.94 78.17 270.08 78.15
  Q 271.97 77.90 274.19 78.36
  Q 274.81 78.49 274.26 78.80
  Q 272.50 79.80 270.48 79.32
  Q 270.42 79.31 270.38 79.36
  Q 270.35 79.40 270.35 79.45
  Q 270.36 79.52 270.43 79.51
  Q 272.75 79.32 275.04 79.16
  Q 275.55 79.13 275.68 79.62
  Q 276.10 81.24 276.53 83.09
  Q 276.62 83.52 276.86 83.84
  Q 276.98 84.01 277.12 84.17
  Q 277.37 84.47 277.43 84.87
  Q 277.82 87.48 278.40 90.26
  Q 278.43 90.38 278.54 90.34
  L 278.54 90.34
  Q 278.78 90.26 278.66 90.05
  Q 278.23 89.26 278.20 88.39
  Q 278.16 87.56 278.55 88.29
  Q 279.32 89.73 279.31 91.25
  Q 279.31 91.85 279.63 92.36
  A 2.30 2.23 28.5 0 1 279.99 93.51
  Q 280.15 97.28 280.89 101.35
  Q 282.37 109.51 281.73 119.08
  Q 281.41 123.96 280.86 129.26
  Q 280.81 129.72 280.91 130.18
  Q 281.00 130.60 280.70 130.96
  A 0.94 0.90 -24.3 0 0 280.49 131.48
  Q 280.16 137.81 277.45 143.41
  Q 277.29 143.74 276.97 143.57
  Q 276.83 143.50 276.83 143.38
  Q 276.85 142.79 276.56 143.30
  Q 275.63 144.90 275.12 146.77
  A 0.03 0.03 0.0 0 0 275.18 146.80
  L 276.65 144.40
  Q 276.77 144.19 276.97 144.32
  L 277.21 144.47
  Q 277.25 144.50 277.21 144.56
  L 273.90 150.14
  A 1.41 1.40 -67.8 0 1 272.37 150.79
  L 269.11 150.00
  Q 268.54 149.86 268.26 149.35
  L 266.35 145.95
  A 0.19 0.19 0.0 0 1 266.49 145.67
  Q 266.64 145.65 266.76 145.74
  Q 266.83 145.79 266.79 145.71
  Z
  M 271.65 148.87
  Q 272.16 148.90 272.16 148.39
  Q 272.18 135.15 273.19 122.78
  Q 274.12 111.44 272.63 96.05
  C 272.27 92.29 272.62 88.66 271.97 85.02
  A 0.52 0.49 64.5 0 0 271.15 84.70
  Q 270.93 84.90 270.66 84.79
  A 0.05 0.05 0.0 0 0 270.59 84.84
  Q 270.69 87.04 270.45 88.95
  C 268.85 101.92 267.67 113.82 269.18 126.71
  C 270.03 133.97 269.97 140.77 270.40 147.95
  Q 270.45 148.81 271.31 148.85
  L 271.65 148.87
  Z"
/>
<path fill="#0f64be" d="
  M 165.41 143.36
  Q 165.25 143.52 165.04 143.61
  Q 164.77 143.72 164.62 143.97
  C 163.55 145.77 162.29 148.46 159.96 148.80
  C 158.03 149.07 154.66 149.52 153.74 147.20
  C 152.28 143.51 152.09 140.74 152.55 136.54
  Q 154.94 114.59 157.48 92.27
  C 158.00 87.72 158.59 78.60 164.16 77.58
  Q 169.49 76.61 171.71 80.73
  Q 173.56 84.16 173.92 87.82
  Q 176.04 109.35 178.34 131.48
  C 178.84 136.24 179.33 140.47 178.09 145.19
  Q 177.06 149.11 172.79 148.98
  C 169.45 148.88 167.72 146.18 166.42 143.54
  A 0.63 0.63 0.0 0 0 165.41 143.36
  Z
  M 169.26 128.74
  L 170.81 145.23
  Q 171.05 147.75 173.58 147.82
  Q 174.37 147.85 175.09 147.36
  A 1.77 1.76 68.9 0 0 175.85 145.64
  Q 174.29 135.08 173.20 123.76
  C 171.87 109.98 170.18 96.16 169.21 82.55
  Q 169.14 81.62 168.80 80.93
  C 167.87 79.01 164.63 78.97 163.57 80.46
  Q 162.99 81.28 162.69 83.60
  Q 161.64 91.65 160.84 99.73
  C 159.29 115.37 157.40 130.73 155.48 146.32
  A 1.50 1.50 0.0 0 0 156.25 147.83
  Q 157.18 148.35 158.09 148.00
  Q 160.35 147.11 160.57 144.70
  L 162.02 128.64
  Q 162.09 127.84 162.89 127.81
  L 167.99 127.63
  A 1.23 1.22 86.1 0 1 169.26 128.74
  Z"
/>
<path fill="#0f64be" d="
  M 328.75 89.08
  C 326.23 93.33 325.72 98.87 326.74 103.57
  C 327.74 108.16 331.04 112.19 328.86 117.18
  C 327.71 119.80 326.21 122.48 325.93 125.35
  Q 325.42 130.66 325.85 135.27
  C 326.20 138.93 332.88 147.20 328.43 150.18
  Q 322.13 154.40 316.44 150.37
  C 313.64 148.38 312.69 143.97 312.76 140.84
  Q 313.36 112.55 314.04 88.21
  C 314.13 85.04 315.30 79.72 318.58 78.22
  Q 323.31 76.05 327.86 78.35
  C 332.49 80.68 330.84 85.54 328.75 89.08
  Z
  M 322.74 115.61
  Q 324.59 115.92 326.62 115.57
  Q 328.06 115.32 327.91 113.86
  L 327.75 112.31
  Q 327.62 111.02 326.32 111.10
  L 322.87 111.33
  Q 321.95 111.39 322.01 110.47
  Q 322.84 98.97 322.49 86.74
  A 1.49 1.48 2.4 0 1 324.14 85.23
  Q 325.96 85.44 327.58 85.16
  Q 329.47 84.83 329.56 82.91
  Q 329.58 82.44 329.42 82.01
  Q 328.79 80.30 326.98 80.34
  L 320.18 80.50
  A 2.38 2.38 0.0 0 0 317.85 82.82
  L 316.31 147.40
  A 1.34 1.33 -89.8 0 0 317.66 148.77
  L 326.59 148.64
  Q 328.54 148.61 328.53 146.66
  L 328.53 146.02
  Q 328.53 143.75 326.26 143.92
  L 322.18 144.24
  A 0.80 0.79 88.1 0 1 321.33 143.43
  L 321.74 116.45
  A 0.86 0.86 0.0 0 1 322.74 115.61
  Z"
/>
<path fill="#0f64be" d="
  M 224.31 139.37
  C 225.94 142.18 228.54 148.07 224.42 150.23
  Q 218.56 153.30 213.63 150.33
  C 210.36 148.36 209.57 143.80 209.60 140.39
  Q 209.81 114.78 210.26 89.05
  C 210.30 86.42 211.16 79.87 214.18 78.76
  Q 217.25 77.63 220.24 79.28
  Q 220.69 79.53 220.90 79.98
  Q 223.08 84.68 223.00 89.39
  Q 222.64 110.52 222.46 132.07
  Q 222.43 136.12 224.31 139.37
  Z
  M 218.05 79.62
  Q 217.46 79.16 216.85 79.28
  Q 214.60 79.73 214.42 82.02
  Q 213.81 89.83 213.87 105.96
  Q 213.94 121.07 213.18 143.75
  Q 213.13 145.36 213.31 147.08
  A 1.94 1.93 -5.2 0 0 215.38 148.80
  L 223.30 148.18
  Q 225.37 148.02 225.37 145.95
  L 225.37 145.31
  Q 225.37 142.98 223.06 143.28
  L 219.50 143.74
  Q 218.09 143.92 218.12 142.50
  L 219.45 82.58
  Q 219.49 80.75 218.05 79.62
  Z"
/>
<path fill="#0f64be" d="
  M 422.08 122.13
  C 421.27 118.34 419.10 114.86 417.69 111.29
  Q 416.54 108.41 416.17 104.94
  Q 415.06 94.64 416.65 87.87
  C 419.00 77.83 431.60 75.26 436.20 85.05
  Q 439.66 92.44 436.42 99.57
  Q 435.12 102.42 430.92 104.46
  Q 430.42 104.71 430.30 105.26
  Q 429.81 107.71 431.14 110.22
  C 433.80 115.22 436.78 120.30 437.20 126.00
  Q 437.69 132.59 436.97 141.08
  C 436.46 146.99 433.95 152.41 427.68 153.58
  C 422.58 154.54 418.22 150.98 416.47 146.51
  C 414.52 141.55 414.52 135.08 416.23 129.50
  C 417.11 126.64 419.66 125.15 421.73 123.25
  A 1.17 1.17 0.0 0 0 422.08 122.13
  Z
  M 434.14 89.59
  C 433.24 78.37 419.96 79.65 419.61 89.98
  Q 419.36 97.27 419.60 104.44
  C 419.78 109.42 423.05 114.13 425.82 118.17
  C 428.12 121.50 428.82 124.81 428.74 128.76
  Q 428.58 136.45 428.38 143.77
  A 1.94 1.92 60.9 0 1 428.12 144.70
  Q 426.89 146.85 425.91 146.40
  Q 423.70 145.36 423.79 142.92
  Q 424.09 135.62 423.88 127.75
  Q 423.83 125.82 421.98 126.35
  L 421.47 126.49
  Q 419.45 127.07 419.34 129.16
  Q 419.06 134.44 418.83 140.25
  C 418.67 144.62 419.92 149.46 424.53 150.56
  C 430.26 151.93 433.17 146.99 433.44 141.89
  Q 433.86 134.11 433.68 126.90
  C 433.54 121.02 430.32 116.74 427.22 112.03
  Q 424.43 107.77 424.40 102.75
  Q 424.35 94.97 424.63 88.98
  Q 424.71 87.15 426.44 86.55
  Q 427.26 86.26 428.14 86.63
  A 1.82 1.81 -77.9 0 1 429.25 88.35
  L 429.01 100.46
  Q 428.97 102.68 430.97 101.71
  L 432.25 101.08
  A 2.97 2.95 -9.4 0 0 433.88 98.82
  Q 434.50 94.11 434.14 89.59
  Z"
/>
<path fill="#ffffff" d="
  M 218.05 79.62
  Q 219.49 80.75 219.45 82.58
  L 218.12 142.50
  Q 218.09 143.92 219.50 143.74
  L 223.06 143.28
  Q 225.37 142.98 225.37 145.31
  L 225.37 145.95
  Q 225.37 148.02 223.30 148.18
  L 215.38 148.80
  A 1.94 1.93 -5.2 0 1 213.31 147.08
  Q 213.13 145.36 213.18 143.75
  Q 213.94 121.07 213.87 105.96
  Q 213.81 89.83 214.42 82.02
  Q 214.60 79.73 216.85 79.28
  Q 217.46 79.16 218.05 79.62
  Z"
/>
<path fill="#ffffff" d="
  M 169.26 128.74
  A 1.23 1.22 86.1 0 0 167.99 127.63
  L 162.89 127.81
  Q 162.09 127.84 162.02 128.64
  L 160.57 144.70
  Q 160.35 147.11 158.09 148.00
  Q 157.18 148.35 156.25 147.83
  A 1.50 1.50 0.0 0 1 155.48 146.32
  C 157.40 130.73 159.29 115.37 160.84 99.73
  Q 161.64 91.65 162.69 83.60
  Q 162.99 81.28 163.57 80.46
  C 164.63 78.97 167.87 79.01 168.80 80.93
  Q 169.14 81.62 169.21 82.55
  C 170.18 96.16 171.87 109.98 173.20 123.76
  Q 174.29 135.08 175.85 145.64
  A 1.77 1.76 68.9 0 1 175.09 147.36
  Q 174.37 147.85 173.58 147.82
  Q 171.05 147.75 170.81 145.23
  L 169.26 128.74
  Z
  M 168.77 122.71
  C 167.80 115.79 167.09 108.81 166.87 101.76
  Q 166.81 99.54 166.05 96.82
  Q 165.80 95.93 165.45 96.79
  Q 165.27 97.25 165.24 97.73
  Q 164.37 110.23 162.75 122.68
  Q 162.64 123.53 163.49 123.54
  L 168.02 123.56
  Q 168.88 123.57 168.77 122.71
  Z"
/>
<path fill="#0f64be" d="
  M 363.53 91.89
  C 363.57 88.22 364.26 80.95 368.63 79.94
  Q 371.19 79.35 374.14 79.82
  C 377.46 80.36 380.67 80.17 384.01 80.36
  Q 387.48 80.56 388.30 82.90
  C 389.51 86.34 390.04 89.36 390.03 92.84
  Q 389.95 122.09 389.80 140.19
  C 389.78 142.62 389.18 146.32 387.81 148.40
  C 385.38 152.08 380.00 150.62 376.38 149.02
  Q 375.73 148.74 375.10 149.07
  Q 371.29 151.07 367.31 150.00
  C 363.70 149.03 363.22 141.80 363.23 138.79
  Q 363.29 115.64 363.53 91.89
  Z
  M 381.12 120.25
  Q 381.21 127.73 380.07 120.34
  Q 377.47 103.62 374.80 85.24
  Q 374.14 80.72 369.41 81.90
  Q 367.70 82.32 367.76 84.09
  Q 367.95 89.94 367.86 95.47
  Q 367.45 120.99 367.30 147.19
  Q 367.29 149.14 369.24 149.12
  L 369.73 149.11
  Q 372.07 149.08 372.06 146.75
  Q 372.03 127.28 372.00 106.56
  Q 372.00 103.90 372.42 101.35
  Q 372.52 100.74 372.62 101.35
  Q 376.31 123.03 379.31 143.49
  Q 379.60 145.48 380.29 147.32
  C 381.10 149.53 385.19 149.45 385.39 146.67
  Q 385.56 144.27 385.55 141.79
  Q 385.41 110.74 385.74 83.79
  Q 385.76 81.79 383.83 81.29
  Q 383.46 81.20 383.10 81.25
  Q 380.63 81.64 380.66 84.15
  L 381.12 120.25
  Z"
/>
<path fill="#ffffff" d="
  M 322.74 115.61
  A 0.86 0.86 0.0 0 0 321.74 116.45
  L 321.33 143.43
  A 0.80 0.79 88.1 0 0 322.18 144.24
  L 326.26 143.92
  Q 328.53 143.75 328.53 146.02
  L 328.53 146.66
  Q 328.54 148.61 326.59 148.64
  L 317.66 148.77
  A 1.34 1.33 -89.8 0 1 316.31 147.40
  L 317.85 82.82
  A 2.38 2.38 0.0 0 1 320.18 80.50
  L 326.98 80.34
  Q 328.79 80.30 329.42 82.01
  Q 329.58 82.44 329.56 82.91
  Q 329.47 84.83 327.58 85.16
  Q 325.96 85.44 324.14 85.23
  A 1.49 1.48 2.4 0 0 322.49 86.74
  Q 322.84 98.97 322.01 110.47
  Q 321.95 111.39 322.87 111.33
  L 326.32 111.10
  Q 327.62 111.02 327.75 112.31
  L 327.91 113.86
  Q 328.06 115.32 326.62 115.57
  Q 324.59 115.92 322.74 115.61
  Z"
/>
<path fill="#ffffff" d="
  M 381.12 120.25
  L 380.66 84.15
  Q 380.63 81.64 383.10 81.25
  Q 383.46 81.20 383.83 81.29
  Q 385.76 81.79 385.74 83.79
  Q 385.41 110.74 385.55 141.79
  Q 385.56 144.27 385.39 146.67
  C 385.19 149.45 381.10 149.53 380.29 147.32
  Q 379.60 145.48 379.31 143.49
  Q 376.31 123.03 372.62 101.35
  Q 372.52 100.74 372.42 101.35
  Q 372.00 103.90 372.00 106.56
  Q 372.03 127.28 372.06 146.75
  Q 372.07 149.08 369.73 149.11
  L 369.24 149.12
  Q 367.29 149.14 367.30 147.19
  Q 367.45 120.99 367.86 95.47
  Q 367.95 89.94 367.76 84.09
  Q 367.70 82.32 369.41 81.90
  Q 374.14 80.72 374.80 85.24
  Q 377.47 103.62 380.07 120.34
  Q 381.21 127.73 381.12 120.25
  Z"
/>
<path fill="#ffffff" d="
  M 419.61 89.98
  C 419.96 79.65 433.24 78.37 434.14 89.59
  Q 434.50 94.11 433.88 98.82
  A 2.97 2.95 -9.4 0 1 432.25 101.08
  L 430.97 101.71
  Q 428.97 102.68 429.01 100.46
  L 429.25 88.35
  A 1.82 1.81 -77.9 0 0 428.14 86.63
  Q 427.26 86.26 426.44 86.55
  Q 424.71 87.15 424.63 88.98
  Q 424.35 94.97 424.40 102.75
  Q 424.43 107.77 427.22 112.03
  C 430.32 116.74 433.54 121.02 433.68 126.90
  Q 433.86 134.11 433.44 141.89
  C 433.17 146.99 430.26 151.93 424.53 150.56
  C 419.92 149.46 418.67 144.62 418.83 140.25
  Q 419.06 134.44 419.34 129.16
  Q 419.45 127.07 421.47 126.49
  L 421.98 126.35
  Q 423.83 125.82 423.88 127.75
  Q 424.09 135.62 423.79 142.92
  Q 423.70 145.36 425.91 146.40
  Q 426.89 146.85 428.12 144.70
  A 1.94 1.92 60.9 0 0 428.38 143.77
  Q 428.58 136.45 428.74 128.76
  C 428.82 124.81 428.12 121.50 425.82 118.17
  C 423.05 114.13 419.78 109.42 419.60 104.44
  Q 419.36 97.27 419.61 89.98
  Z"
/>
<path fill="#ffffff" d="
  M 271.65 148.87
  L 271.31 148.85
  Q 270.45 148.81 270.40 147.95
  C 269.97 140.77 270.03 133.97 269.18 126.71
  C 267.67 113.82 268.85 101.92 270.45 88.95
  Q 270.69 87.04 270.59 84.84
  A 0.05 0.05 0.0 0 1 270.66 84.79
  Q 270.93 84.90 271.15 84.70
  A 0.52 0.49 64.5 0 1 271.97 85.02
  C 272.62 88.66 272.27 92.29 272.63 96.05
  Q 274.12 111.44 273.19 122.78
  Q 272.18 135.15 272.16 148.39
  Q 272.16 148.90 271.65 148.87
  Z"
/>
<path fill="#0f64be" d="
  M 166.87 101.76
  C 167.09 108.81 167.80 115.79 168.77 122.71
  Q 168.88 123.57 168.02 123.56
  L 163.49 123.54
  Q 162.64 123.53 162.75 122.68
  Q 164.37 110.23 165.24 97.73
  Q 165.27 97.25 165.45 96.79
  Q 165.80 95.93 166.05 96.82
  Q 166.81 99.54 166.87 101.76
  Z"
/>
<path fill="#0f64be" d="
  M 260.42 118.51
  Q 260.37 115.24 260.45 111.95
  Q 260.45 111.82 260.58 111.82
  L 260.58 111.82
  Q 260.74 111.82 260.74 111.97
  Q 260.79 115.25 260.75 118.51
  Q 260.75 118.68 260.59 118.67
  L 260.58 118.67
  Q 260.42 118.67 260.42 118.51
  Z"
/>
<path fill="#ffffff" d="
  M 221.63 172.53
  A 9.49 9.49 0.0 0 1 212.14 182.02
  A 9.49 9.49 0.0 0 1 202.65 172.53
  A 9.49 9.49 0.0 0 1 212.14 163.04
  A 9.49 9.49 0.0 0 1 221.63 172.53
  Z
  M 219.39 172.52
  A 7.26 7.26 0.0 0 0 212.13 165.26
  A 7.26 7.26 0.0 0 0 204.87 172.52
  A 7.26 7.26 0.0 0 0 212.13 179.78
  A 7.26 7.26 0.0 0 0 219.39 172.52
  Z"
/>
<path fill="#ffffff" d="
  M 387.24 172.54
  A 9.49 9.49 0.0 0 1 377.75 182.03
  A 9.49 9.49 0.0 0 1 368.26 172.54
  A 9.49 9.49 0.0 0 1 377.75 163.05
  A 9.49 9.49 0.0 0 1 387.24 172.54
  Z
  M 385.00 172.54
  A 7.24 7.24 0.0 0 0 377.76 165.30
  A 7.24 7.24 0.0 0 0 370.52 172.54
  A 7.24 7.24 0.0 0 0 377.76 179.78
  A 7.24 7.24 0.0 0 0 385.00 172.54
  Z"
/>
<path fill="#ffffff" d="
  M 191.80 177.73
  Q 192.78 177.21 192.58 178.30
  Q 192.44 179.06 191.89 179.68
  Q 191.17 180.49 190.16 180.86
  Q 183.22 183.44 178.88 178.98
  C 175.81 175.84 175.40 171.04 177.85 167.38
  C 180.96 162.76 187.33 162.03 191.71 165.19
  Q 192.46 165.74 192.61 166.66
  Q 192.76 167.64 191.84 167.28
  C 189.91 166.51 188.15 165.45 186.01 165.45
  C 173.73 165.42 177.41 185.51 191.80 177.73
  Z"
/>
<path fill="#ffffff" d="
  M 281.21 174.22
  L 281.39 178.72
  A 0.44 0.44 0.0 0 0 281.83 179.14
  L 292.08 179.26
  A 0.44 0.44 0.0 0 1 292.52 179.74
  L 292.38 181.27
  A 0.44 0.44 0.0 0 1 291.94 181.67
  L 279.41 181.82
  A 0.44 0.44 0.0 0 1 278.96 181.38
  L 279.00 163.64
  A 0.44 0.44 0.0 0 1 279.45 163.20
  L 291.57 163.38
  A 0.44 0.44 0.0 0 1 291.99 163.73
  L 292.30 165.16
  A 0.44 0.44 0.0 0 1 291.87 165.69
  L 281.73 165.71
  A 0.44 0.44 0.0 0 0 281.29 166.15
  L 281.28 170.89
  A 0.44 0.44 0.0 0 0 281.72 171.33
  L 291.15 171.44
  A 0.44 0.44 0.0 0 1 291.58 171.80
  L 291.79 173.02
  A 0.44 0.44 0.0 0 1 291.37 173.53
  L 281.64 173.76
  A 0.44 0.44 0.0 0 0 281.21 174.22
  Z"
/>
<path fill="#ffffff" d="
  M 309.03 178.83
  C 312.37 180.42 315.31 179.33 318.29 177.61
  Q 318.88 177.27 319.08 177.92
  C 319.73 180.10 315.71 181.45 314.17 181.64
  Q 305.74 182.64 303.23 175.22
  C 301.86 171.16 303.80 166.56 307.59 164.47
  Q 311.84 162.13 316.75 164.17
  Q 318.33 164.82 318.97 166.17
  Q 319.83 167.98 318.01 167.15
  C 316.06 166.26 314.11 165.29 311.90 165.45
  Q 305.85 165.88 305.30 171.77
  Q 304.82 176.84 309.03 178.83
  Z"
/>
<path fill="#ffffff" d="
  M 334.45 165.46
  L 329.19 165.61
  A 0.46 0.46 0.0 0 1 328.72 165.10
  L 328.88 163.79
  A 0.46 0.46 0.0 0 1 329.33 163.39
  L 343.40 163.30
  A 0.46 0.46 0.0 0 1 343.86 163.74
  L 343.93 165.00
  A 0.46 0.46 0.0 0 1 343.49 165.48
  L 337.93 165.61
  A 0.46 0.46 0.0 0 0 337.48 166.07
  L 337.54 181.00
  A 0.46 0.46 0.0 0 1 337.17 181.45
  L 335.47 181.80
  A 0.46 0.46 0.0 0 1 334.92 181.35
  L 334.92 165.92
  A 0.46 0.46 0.0 0 0 334.45 165.46
  Z"
/>
<path fill="#ffffff" d="
  M 236.08 179.48
  L 244.73 179.34
  A 0.53 0.53 0.0 0 1 245.26 179.86
  L 245.28 181.14
  A 0.53 0.53 0.0 0 1 244.75 181.67
  L 233.51 181.78
  A 0.53 0.53 0.0 0 1 232.97 181.24
  L 233.02 164.13
  A 0.53 0.53 0.0 0 1 233.59 163.61
  L 235.18 163.74
  A 0.53 0.53 0.0 0 1 235.67 164.27
  L 235.54 178.95
  A 0.53 0.53 0.0 0 0 236.08 179.48
  Z"
/>
<path fill="#ffffff" d="
  M 268.15 179.68
  L 268.27 181.11
  A 0.57 0.57 0.0 0 1 267.71 181.73
  L 256.57 181.76
  A 0.57 0.57 0.0 0 1 256.00 181.19
  L 256.00 164.11
  A 0.57 0.57 0.0 0 1 256.60 163.54
  L 258.05 163.61
  A 0.57 0.57 0.0 0 1 258.59 164.18
  L 258.52 178.60
  A 0.57 0.57 0.0 0 0 259.09 179.17
  L 267.58 179.16
  A 0.57 0.57 0.0 0 1 268.15 179.68
  Z"
/>
<rect fill="#ffffff" x="354.35" y="163.68" width="2.42" height="17.84" rx="0.77"/>
<path fill="#ffffff" d="
  M 401.06 169.62
  Q 401.49 174.85 401.11 180.90
  Q 401.07 181.49 400.49 181.55
  L 399.45 181.66
  A 0.72 0.72 0.0 0 1 398.66 180.95
  L 398.53 164.26
  A 0.62 0.62 0.0 0 1 399.31 163.66
  Q 400.57 164.00 401.44 165.06
  Q 406.39 171.02 410.47 175.81
  Q 411.77 177.34 411.62 175.34
  Q 411.20 169.85 411.56 164.11
  Q 411.59 163.71 411.99 163.73
  L 413.07 163.76
  Q 413.60 163.78 413.61 164.32
  L 413.79 179.50
  Q 413.84 183.34 411.36 180.40
  L 401.95 169.25
  Q 400.93 168.04 401.06 169.62
  Z"
/>
</svg>
