<?xml version="1.0" encoding="UTF-8" standalone="no"?>
<!DOCTYPE svg PUBLIC "-//W3C//DTD SVG 1.1//EN" "http://www.w3.org/Graphics/SVG/1.1/DTD/svg11.dtd">
<svg xmlns="http://www.w3.org/2000/svg" version="1.1" viewBox="0.00 0.00 600.00 300.00">
<path stroke="#ff8081" stroke-width="2.00" fill="none" stroke-linecap="butt" vector-effect="non-scaling-stroke" d="
  M 177.99 201.12
  L 178.00 155.53
  A 0.74 0.73 79.6 0 0 177.01 154.84
  Q 176.05 155.20 175.12 156.12
  Q 152.99 178.26 130.85 200.38
  Q 130.50 200.73 130.52 201.23
  L 130.69 204.71"
/>
<path fill="#ffffff" d="
  M 177.99 201.12
  L 178.00 155.53
  A 0.74 0.73 79.6 0 0 177.01 154.84
  Q 176.05 155.20 175.12 156.12
  Q 152.99 178.26 130.85 200.38
  Q 130.50 200.73 130.52 201.23
  L 130.69 204.71
  L 130.82 208.52
  Q 130.83 208.97 131.28 208.97
  L 200.73 208.95
  Q 201.17 208.95 201.17 208.52
  L 201.16 84.69
  Q 201.16 83.94 200.64 84.47
  L 49.54 235.49
  A 1.72 1.70 22.0 0 1 48.32 236.00
  L 4.47 236.00
  A 0.31 0.30 -67.3 0 1 4.26 235.48
  L 230.77 9.14
  A 0.41 0.40 67.6 0 1 231.46 9.43
  L 231.50 235.50
  A 0.50 0.50 0.0 0 1 231.00 236.00
  L 59.58 236.00
  Q 58.85 236.00 59.36 235.48
  L 192.59 102.26
  Q 193.15 101.71 193.28 102.48
  Q 193.33 102.76 193.33 103.03
  Q 193.42 151.67 193.36 200.53
  A 0.68 0.68 0.0 0 1 192.68 201.21
  L 177.99 201.12
  Z"
/>
<path fill="#ffffff" d="
  M 265.88 207.30
  L 308.91 207.32
  A 0.45 0.45 0.0 0 1 309.36 207.77
  L 309.38 235.55
  A 0.45 0.45 0.0 0 1 308.93 236.00
  L 237.18 236.00
  A 0.45 0.45 0.0 0 1 236.73 235.55
  L 236.79 103.17
  A 0.45 0.45 0.0 0 1 237.24 102.72
  L 265.01 102.73
  A 0.45 0.45 0.0 0 1 265.46 103.18
  L 265.43 206.85
  A 0.45 0.45 0.0 0 0 265.88 207.30
  Z"
/>
<path fill="#ffffff" d="
  M 346.76 201.43
  L 346.77 235.49
  Q 346.77 236.00 346.26 236.00
  L 318.74 235.99
  A 0.50 0.50 0.0 0 1 318.24 235.49
  L 318.24 103.25
  A 0.56 0.56 0.0 0 1 318.81 102.69
  Q 339.43 102.81 362.55 102.64
  Q 368.84 102.60 373.03 103.84
  C 382.38 106.62 389.63 114.86 393.84 123.65
  Q 401.06 138.75 399.87 156.70
  C 398.84 172.10 392.37 188.88 379.10 197.11
  Q 373.44 200.62 367.58 200.71
  Q 357.60 200.88 347.41 200.79
  Q 346.76 200.79 346.76 201.43
  Z
  M 346.80 129.90
  L 346.72 174.32
  A 0.53 0.53 0.0 0 0 347.25 174.85
  L 354.19 174.86
  A 22.46 18.91 -89.9 0 0 373.14 152.43
  L 373.14 151.87
  A 22.46 18.91 -89.9 0 0 354.27 129.38
  L 347.33 129.37
  A 0.53 0.53 0.0 0 0 346.80 129.90
  Z"
/>
<path fill="#ffffff" d="
  M 435.88 183.89
  L 435.91 235.63
  A 0.37 0.37 0.0 0 1 435.54 236.00
  L 407.67 236.00
  A 0.37 0.37 0.0 0 1 407.30 235.63
  L 407.30 103.10
  A 0.37 0.37 0.0 0 1 407.67 102.73
  L 435.56 102.73
  A 0.37 0.37 0.0 0 1 435.93 103.10
  L 435.91 154.31
  A 0.37 0.37 0.0 0 0 436.28 154.68
  L 460.87 154.63
  A 0.37 0.37 0.0 0 0 461.24 154.26
  L 461.24 103.11
  A 0.37 0.37 0.0 0 1 461.61 102.74
  L 489.39 102.73
  A 0.37 0.37 0.0 0 1 489.76 103.10
  L 489.78 235.63
  A 0.37 0.37 0.0 0 1 489.41 236.00
  L 461.62 236.00
  A 0.37 0.37 0.0 0 1 461.25 235.63
  L 461.24 183.89
  A 0.37 0.37 0.0 0 0 460.87 183.52
  L 436.25 183.52
  A 0.37 0.37 0.0 0 0 435.88 183.89
  Z"
/>
<path fill="#ffffff" d="
  M 542.92 169.03
  L 520.38 235.70
  A 0.44 0.44 0.0 0 1 519.96 236.00
  L 497.54 235.99
  A 0.30 0.30 0.0 0 1 497.24 235.69
  Q 497.30 223.19 497.21 211.01
  Q 497.19 208.42 498.09 205.85
  Q 515.78 155.34 533.81 103.35
  Q 534.03 102.72 534.69 102.72
  L 549.69 102.72
  A 2.06 2.05 80.4 0 1 551.63 104.10
  L 596.73 234.40
  A 1.21 1.21 0.0 0 1 595.58 236.00
  L 531.08 236.00
  Q 530.66 236.00 530.79 235.60
  L 538.68 210.29
  Q 538.85 209.73 539.45 209.73
  L 556.29 209.73
  A 0.38 0.38 0.0 0 0 556.65 209.23
  L 543.48 169.03
  Q 543.20 168.19 542.92 169.03
  Z"
/>
<path fill="#ff0002" d="
  M 177.99 201.12
  L 131.16 201.10
  Q 130.71 201.10 130.70 201.56
  L 130.69 204.71
  L 130.52 201.23
  Q 130.50 200.73 130.85 200.38
  Q 152.99 178.26 175.12 156.12
  Q 176.05 155.20 177.01 154.84
  A 0.74 0.73 79.6 0 1 178.00 155.53
  L 177.99 201.12
  Z"
/>
<path fill="#ffffff" d="
  M 291.17 265.99
  C 284.82 264.72 278.26 262.38 279.01 254.41
  Q 279.47 249.53 283.84 247.23
  Q 286.67 245.74 290.73 245.95
  Q 298.77 246.36 300.80 253.47
  Q 301.09 254.48 301.00 255.53
  Q 300.96 256.00 300.49 256.00
  L 297.72 256.00
  Q 297.09 256.00 297.01 255.37
  Q 296.68 252.78 294.90 251.59
  Q 291.20 249.10 287.39 250.23
  Q 284.47 251.09 283.36 253.22
  C 280.37 258.96 288.91 260.50 292.22 261.32
  Q 295.45 262.11 297.75 263.66
  C 302.83 267.07 303.21 274.47 298.88 278.87
  Q 296.81 280.98 294.02 281.61
  C 285.64 283.49 277.94 279.47 277.91 270.30
  A 0.30 0.29 -0.9 0 1 278.21 270.00
  L 281.52 270.01
  A 0.30 0.29 -2.0 0 1 281.82 270.28
  Q 282.20 274.61 285.51 276.57
  Q 289.98 279.22 294.56 277.06
  C 298.65 275.12 298.88 269.73 294.99 267.39
  Q 294.23 266.93 293.36 266.85
  C 292.42 266.75 292.06 266.17 291.17 265.99
  Z"
/>
<path fill="#ffffff" d="
  M 383.98 251.09
  C 377.05 254.63 377.67 266.78 379.83 272.30
  Q 381.40 276.31 385.82 277.69
  Q 389.31 278.77 392.47 276.47
  Q 395.90 273.98 396.45 269.17
  Q 396.47 269.01 396.63 269.06
  L 400.71 270.34
  Q 400.87 270.39 400.83 270.55
  C 399.70 275.69 396.31 281.07 390.96 281.82
  Q 378.51 283.58 375.14 271.78
  Q 372.06 260.98 376.54 252.70
  Q 379.73 246.81 386.69 246.02
  C 393.64 245.23 398.50 249.36 400.07 255.96
  A 0.50 0.50 0.0 0 1 399.67 256.57
  L 396.87 257.03
  Q 396.37 257.11 396.12 256.67
  C 395.35 255.32 394.94 253.60 393.84 252.52
  Q 389.52 248.27 383.98 251.09
  Z"
/>
<path fill="#ffffff" d="
  M 421.5379 282.3096
  A 18.32 14.73 89.6 0 1 406.6804 264.0928
  A 18.32 14.73 89.6 0 1 421.2821 245.6704
  A 18.32 14.73 89.6 0 1 436.1396 263.8872
  A 18.32 14.73 89.6 0 1 421.5379 282.3096
  Z
  M 421.4440 278.1498
  A 14.14 10.28 89.7 0 0 431.6499 263.9562
  A 14.14 10.28 89.7 0 0 421.2960 249.8702
  A 14.14 10.28 89.7 0 0 411.0901 264.0638
  A 14.14 10.28 89.7 0 0 421.4440 278.1498
  Z"
/>
<path fill="#ffffff" d="
  M 27.68 270.99
  L 15.68 270.99
  A 0.39 0.39 0.0 0 0 15.31 271.26
  L 12.27 280.73
  A 0.39 0.39 0.0 0 1 11.89 281.00
  L 8.44 280.97
  A 0.39 0.39 0.0 0 1 8.08 280.46
  L 19.60 247.26
  A 0.39 0.39 0.0 0 1 19.97 247.00
  L 23.57 247.00
  A 0.39 0.39 0.0 0 1 23.93 247.26
  L 36.05 280.48
  A 0.39 0.39 0.0 0 1 35.68 281.00
  L 31.64 281.00
  A 0.39 0.39 0.0 0 1 31.27 280.74
  L 28.05 271.25
  A 0.39 0.39 0.0 0 0 27.68 270.99
  Z
  M 21.77 252.62
  A 0.34 0.34 0.0 0 0 21.12 252.62
  L 16.67 266.55
  A 0.34 0.34 0.0 0 0 16.99 266.99
  L 26.09 267.01
  A 0.34 0.34 0.0 0 0 26.41 266.56
  L 21.77 252.62
  Z"
/>
<path fill="#ffffff" d="
  M 62.00 277.94
  L 61.98 280.13
  A 0.91 0.91 0.0 0 1 61.07 281.04
  L 43.94 281.03
  A 0.91 0.91 0.0 0 1 43.03 280.12
  L 43.02 247.93
  A 0.91 0.91 0.0 0 1 43.91 247.02
  L 46.08 246.98
  A 0.91 0.91 0.0 0 1 47.01 247.89
  L 46.99 276.14
  A 0.91 0.91 0.0 0 0 47.90 277.05
  L 61.08 277.02
  A 0.91 0.91 0.0 0 1 62.00 277.94
  Z"
/>
<path fill="#ffffff" d="
  M 74.46 267.53
  L 74.47 280.51
  Q 74.47 280.99 73.99 281.00
  L 70.51 281.00
  Q 70.02 281.00 70.02 280.51
  L 70.02 247.69
  Q 70.02 247.10 70.62 247.08
  Q 81.76 246.79 85.49 247.05
  Q 87.95 247.22 90.10 248.91
  C 93.39 251.50 93.90 256.60 92.84 260.37
  C 90.44 268.88 81.45 266.89 74.98 267.00
  Q 74.46 267.01 74.46 267.53
  Z
  M 74.44 251.35
  L 74.48 262.65
  A 0.35 0.35 0.0 0 0 74.83 262.99
  L 83.29 262.96
  A 5.85 5.73 89.8 0 0 89.00 257.09
  L 89.00 256.79
  A 5.85 5.73 89.8 0 0 83.25 250.96
  L 74.79 250.99
  A 0.35 0.35 0.0 0 0 74.44 251.35
  Z"
/>
<path fill="#ffffff" d="
  M 106.19 261.00
  L 120.43 261.00
  A 0.57 0.57 0.0 0 0 121.00 260.43
  L 121.01 247.55
  A 0.57 0.57 0.0 0 1 121.58 246.98
  L 124.40 247.00
  A 0.57 0.57 0.0 0 1 124.97 247.57
  L 124.99 280.43
  A 0.57 0.57 0.0 0 1 124.42 281.00
  L 121.58 280.99
  A 0.57 0.57 0.0 0 1 121.01 280.42
  L 120.98 265.41
  A 0.57 0.57 0.0 0 0 120.40 264.84
  L 106.19 265.05
  A 0.57 0.57 0.0 0 0 105.63 265.62
  L 105.60 280.43
  A 0.57 0.57 0.0 0 1 105.03 281.00
  L 101.81 280.98
  A 0.57 0.57 0.0 0 1 101.24 280.41
  L 101.22 247.57
  A 0.57 0.57 0.0 0 1 101.79 247.00
  L 105.06 247.00
  A 0.57 0.57 0.0 0 1 105.63 247.57
  L 105.62 260.43
  A 0.57 0.57 0.0 0 0 106.19 261.00
  Z"
/>
<path fill="#ffffff" d="
  M 151.41 271.00
  Q 145.79 270.95 140.00 270.98
  Q 138.93 270.99 138.91 272.09
  Q 138.90 272.74 138.70 273.32
  Q 137.54 276.66 136.39 280.38
  Q 136.20 281.00 135.55 281.00
  L 132.45 281.00
  Q 131.89 280.99 132.08 280.47
  L 143.44 247.71
  Q 143.69 247.00 144.44 247.00
  L 147.04 247.00
  Q 147.84 247.00 148.12 247.75
  L 159.97 280.28
  Q 160.24 281.00 159.47 281.00
  L 155.83 281.00
  Q 155.36 281.00 155.21 280.55
  L 152.13 271.52
  Q 151.96 271.00 151.41 271.00
  Z
  M 145.19 252.63
  Q 143.77 259.13 140.93 266.09
  A 0.67 0.66 -79.1 0 0 141.54 267.00
  L 149.98 267.01
  Q 150.55 267.01 150.37 266.46
  L 145.70 252.35
  A 0.21 0.21 0.0 0 0 145.32 252.31
  Q 145.23 252.46 145.19 252.63
  Z"
/>
<path fill="#ffffff" d="
  M 179.02 247.31
  A 0.39 0.39 0.0 0 1 179.41 246.91
  L 191.30 246.85
  A 14.40 12.76 89.7 0 1 204.14 261.18
  L 204.16 266.58
  A 14.40 12.76 89.7 0 1 191.48 281.05
  L 179.59 281.11
  A 0.39 0.39 0.0 0 1 179.20 280.73
  L 179.02 247.31
  Z
  M 183.48 251.41
  L 183.44 276.57
  A 0.49 0.49 0.0 0 0 183.93 277.06
  L 190.71 277.07
  A 10.97 9.19 -89.9 0 0 199.92 266.11
  L 199.92 261.91
  A 10.97 9.19 -89.9 0 0 190.75 250.93
  L 183.97 250.92
  A 0.49 0.49 0.0 0 0 183.48 251.41
  Z"
/>
<path fill="#ffffff" d="
  M 217.96 277.01
  L 235.39 277.00
  A 0.48 0.48 0.0 0 1 235.87 277.48
  L 235.88 280.52
  A 0.48 0.48 0.0 0 1 235.40 281.00
  L 213.77 281.00
  A 0.48 0.48 0.0 0 1 213.29 280.52
  L 213.29 247.48
  A 0.48 0.48 0.0 0 1 213.77 247.00
  L 234.77 247.00
  A 0.48 0.48 0.0 0 1 235.25 247.48
  L 235.24 250.52
  A 0.48 0.48 0.0 0 1 234.76 251.00
  L 217.92 251.00
  A 0.48 0.48 0.0 0 0 217.44 251.48
  L 217.46 260.52
  A 0.48 0.48 0.0 0 0 217.94 261.00
  L 233.55 261.00
  A 0.48 0.48 0.0 0 1 234.03 261.48
  L 234.01 264.51
  A 0.48 0.48 0.0 0 1 233.53 264.99
  L 217.92 265.00
  A 0.48 0.48 0.0 0 0 217.44 265.48
  L 217.48 276.53
  A 0.48 0.48 0.0 0 0 217.96 277.01
  Z"
/>
<path fill="#ffffff" d="
  M 265.36 246.99
  L 268.63 247.03
  A 0.34 0.34 0.0 0 1 268.97 247.37
  L 268.99 280.66
  A 0.34 0.34 0.0 0 1 268.65 281.00
  L 264.85 281.00
  A 0.34 0.34 0.0 0 1 264.56 280.83
  L 249.63 255.46
  A 0.34 0.34 0.0 0 0 249.00 255.63
  L 248.99 280.63
  A 0.34 0.34 0.0 0 1 248.65 280.97
  L 245.47 281.01
  A 0.34 0.34 0.0 0 1 245.13 280.67
  L 245.12 247.34
  A 0.34 0.34 0.0 0 1 245.46 247.00
  L 249.21 247.00
  A 0.34 0.34 0.0 0 1 249.50 247.17
  L 264.39 272.44
  A 0.34 0.34 0.0 0 0 265.02 272.26
  L 265.02 247.33
  A 0.34 0.34 0.0 0 1 265.36 246.99
  Z"
/>
<path fill="#ffffff" d="
  M 315.20 261.01
  L 329.40 260.98
  A 0.57 0.57 0.0 0 0 329.97 260.41
  L 330.05 247.55
  A 0.57 0.57 0.0 0 1 330.63 246.98
  L 333.44 247.03
  A 0.57 0.57 0.0 0 1 334.00 247.60
  L 333.98 280.43
  A 0.57 0.57 0.0 0 1 333.41 281.00
  L 330.58 281.00
  A 0.57 0.57 0.0 0 1 330.01 280.43
  L 329.99 265.46
  A 0.57 0.57 0.0 0 0 329.41 264.89
  L 315.18 265.03
  A 0.57 0.57 0.0 0 0 314.62 265.60
  L 314.63 280.43
  A 0.57 0.57 0.0 0 1 314.06 281.00
  L 310.80 280.99
  A 0.57 0.57 0.0 0 1 310.23 280.42
  L 310.22 247.57
  A 0.57 0.57 0.0 0 1 310.79 247.00
  L 314.06 247.02
  A 0.57 0.57 0.0 0 1 314.63 247.59
  L 314.63 260.44
  A 0.57 0.57 0.0 0 0 315.20 261.01
  Z"
/>
<rect fill="#ffffff" x="344.76" y="247.00" width="4.22" height="34.00" rx="0.37"/>
<path fill="#ffffff" d="
  M 495.50 276.75
  Q 496.73 277.17 498.19 277.15
  Q 503.92 277.08 508.75 277.02
  Q 509.99 277.01 509.99 278.25
  L 509.99 279.76
  Q 509.99 281.00 508.74 281.00
  L 491.75 281.00
  Q 491.00 281.00 491.00 280.25
  L 491.08 247.90
  Q 491.08 247.01 491.97 247.01
  L 494.02 247.00
  Q 494.93 247.00 494.93 247.90
  L 495.02 276.10
  A 0.71 0.70 9.0 0 0 495.50 276.75
  Z"
/>
<path fill="#ffffff" d="
  M 521.14 250.99
  L 512.60 250.93
  A 0.61 0.61 0.0 0 1 511.99 250.33
  L 511.95 247.66
  A 0.61 0.61 0.0 0 1 512.56 247.04
  L 535.33 246.98
  A 0.61 0.61 0.0 0 1 535.94 247.61
  L 535.85 250.40
  A 0.61 0.61 0.0 0 1 535.24 250.99
  L 526.59 251.01
  A 0.61 0.61 0.0 0 0 525.98 251.62
  L 525.98 280.39
  A 0.61 0.61 0.0 0 1 525.37 281.00
  L 522.36 280.99
  A 0.61 0.61 0.0 0 1 521.75 280.38
  L 521.75 251.60
  A 0.61 0.61 0.0 0 0 521.14 250.99
  Z"
/>
<path fill="#ffffff" d="
  M 544.02 247.33
  A 0.39 0.39 0.0 0 1 544.41 246.93
  L 556.31 246.87
  A 14.39 12.75 89.7 0 1 569.14 261.19
  L 569.16 266.59
  A 14.39 12.75 89.7 0 1 556.49 281.05
  L 544.59 281.11
  A 0.39 0.39 0.0 0 1 544.20 280.73
  L 544.02 247.33
  Z
  M 548.48 251.32
  L 548.44 276.68
  A 0.42 0.42 0.0 0 0 548.86 277.10
  L 555.27 277.11
  A 10.77 9.63 -89.9 0 0 564.92 266.35
  L 564.92 261.69
  A 10.77 9.63 -89.9 0 0 555.31 250.91
  L 548.90 250.90
  A 0.42 0.42 0.0 0 0 548.48 251.32
  Z"
/>
<rect fill="#ffffff" x="-2.23" y="-1.99" transform="translate(447.75,279.00) rotate(0.1)" width="4.46" height="3.98" rx="0.72"/>
<path fill="#ffffff" d="
  M 462.03 281.00
  L 461.08 280.99
  Q 460.42 280.98 460.41 280.33
  L 460.39 277.94
  Q 460.38 277.00 461.31 277.00
  L 464.26 277.00
  Q 464.94 277.00 464.98 277.68
  C 465.19 281.31 465.47 285.45 462.31 287.77
  Q 461.93 288.05 461.52 287.82
  C 460.68 287.35 460.58 286.28 461.19 285.55
  Q 462.48 284.00 462.54 281.53
  Q 462.56 281.01 462.03 281.00
  Z"
/>
<rect fill="#ffffff" x="-2.24" y="-2.00" transform="translate(579.75,278.99) rotate(1.0)" width="4.48" height="4.00" rx="0.88"/>
</svg>
