<?xml version="1.0" encoding="UTF-8" standalone="no"?>
<!DOCTYPE svg PUBLIC "-//W3C//DTD SVG 1.1//EN" "http://www.w3.org/Graphics/SVG/1.1/DTD/svg11.dtd">
<svg xmlns="http://www.w3.org/2000/svg" version="1.1" viewBox="0.00 0.00 590.00 255.00">
<g stroke-width="2.00" fill="none" stroke-linecap="butt">
<path stroke="#ff8080" vector-effect="non-scaling-stroke" d="
  M 155.51 61.30
  L 143.43 63.91"
/>
<path stroke="#fdcbc5" vector-effect="non-scaling-stroke" d="
  M 143.43 63.91
  Q 141.68 64.03 141.16 64.45
  Q 139.25 66.03 141.72 66.24
  Q 143.84 66.41 145.66 67.38
  Q 146.20 67.67 145.74 68.08
  L 141.12 72.15"
/>
<path stroke="#feeae6" vector-effect="non-scaling-stroke" d="
  M 141.12 72.15
  Q 138.24 74.44 136.63 76.23
  Q 135.53 77.46 135.17 79.27"
/>
<path stroke="#fdcbc5" vector-effect="non-scaling-stroke" d="
  M 135.17 79.27
  Q 135.00 79.66 134.83 80.04"
/>
<path stroke="#fcf6f4" vector-effect="non-scaling-stroke" d="
  M 134.83 80.04
  Q 133.62 80.85 131.23 79.88
  Q 130.94 79.76 130.54 79.90
  Q 129.96 80.11 130.55 80.30
  L 131.16 80.51
  A 0.81 0.79 5.9 0 1 131.71 81.17
  Q 131.87 82.44 131.34 82.98
  Q 129.27 85.08 127.33 87.11
  Q 126.97 87.49 126.89 88.00
  Q 126.80 88.62 126.72 89.23
  Q 126.62 90.02 126.32 90.71
  Q 125.33 93.05 125.16 95.56
  Q 125.13 96.05 124.86 96.46
  Q 124.04 97.68 123.90 99.05
  A 0.94 0.93 -65.1 0 0 124.17 99.80
  Q 125.01 100.63 125.93 100.77"
/>
<path stroke="#feeae6" vector-effect="non-scaling-stroke" d="
  M 125.93 100.77
  Q 125.93 100.91 126.03 101.03
  Q 126.18 101.21 125.95 101.20
  Q 125.58 101.17 125.26 101.02
  Q 124.78 100.79 124.44 101.21
  Q 123.26 102.67 123.15 104.46"
/>
<path stroke="#fdcbc5" vector-effect="non-scaling-stroke" d="
  M 123.15 104.46
  Q 120.82 109.51 120.77 115.81"
/>
<path stroke="#fdafab" vector-effect="non-scaling-stroke" d="
  M 120.77 115.81
  L 120.19 120.51"
/>
<path stroke="#ff8080" vector-effect="non-scaling-stroke" d="
  M 120.19 120.51
  L 111.54 117.78"
/>
<path stroke="#feeae6" vector-effect="non-scaling-stroke" d="
  M 111.54 117.78
  Q 110.73 116.71 110.01 116.71"
/>
<path stroke="#ff8080" vector-effect="non-scaling-stroke" d="
  M 110.01 116.71
  L 110.01 107.11"
/>
<path stroke="#fdafab" vector-effect="non-scaling-stroke" d="
  M 110.01 107.11
  Q 110.64 105.66 110.80 103.70"
/>
<path stroke="#fdcbc5" vector-effect="non-scaling-stroke" d="
  M 110.80 103.70
  L 111.60 99.68"
/>
<path stroke="#ff8080" vector-effect="non-scaling-stroke" d="
  M 111.60 99.68
  L 112.33 97.00
  Q 112.48 96.46 111.95 96.27
  L 106.88 94.49"
/>
<path stroke="#fdafab" vector-effect="non-scaling-stroke" d="
  M 106.88 94.49
  Q 106.94 94.36 107.00 94.23"
/>
<path stroke="#fdafab" vector-effect="non-scaling-stroke" d="
  M 117.90 76.08
  Q 120.21 76.81 122.28 76.56
  C 124.00 76.35 125.17 74.99 126.28 73.83
  Q 127.51 72.54 128.98 71.40
  Q 133.00 68.30 137.58 66.31
  A 1.06 1.05 -10.2 0 0 138.21 65.41
  Q 138.25 64.79 137.87 64.74
  Q 137.07 64.65 137.62 64.08
  L 138.19 63.49"
/>
<path stroke="#fb7a71" vector-effect="non-scaling-stroke" d="
  M 111.21 99.67
  Q 110.40 101.60 110.80 103.70"
/>
<path stroke="#fd2f2c" vector-effect="non-scaling-stroke" d="
  M 106.88 94.49
  Q 110.62 96.65 109.34 99.94
  Q 108.74 101.48 109.32 102.92
  C 109.69 103.86 109.70 104.54 109.61 105.47
  Q 109.46 107.07 108.91 105.56
  Q 107.65 102.14 107.61 98.07
  Q 107.60 97.32 107.23 96.63
  Q 106.89 96.00 106.51 95.41"
/>
<path stroke="#fc9a91" vector-effect="non-scaling-stroke" d="
  M 163.58 90.89
  Q 163.87 91.22 162.96 91.15
  Q 162.63 91.12 162.33 90.98
  Q 160.56 90.10 158.51 90.41
  Q 158.06 90.48 157.86 90.89
  Q 156.42 93.87 156.20 97.18
  Q 156.16 97.80 155.77 98.27
  Q 155.07 99.14 155.14 100.19
  Q 155.17 100.78 154.80 101.24
  Q 149.96 107.28 153.69 109.34"
/>
<path stroke="#feeae6" vector-effect="non-scaling-stroke" d="
  M 153.69 109.34
  Q 150.79 108.88 147.60 107.57
  C 146.32 107.04 144.86 106.94 143.51 106.48
  Q 142.13 106.02 141.45 106.24
  Q 140.20 106.65 140.12 108.26
  Q 140.06 109.27 138.77 112.59"
/>
<path stroke="#fcb6ac" vector-effect="non-scaling-stroke" d="
  M 138.77 112.59
  Q 138.68 111.14 138.97 109.07
  Q 139.15 107.73 138.11 108.46
  Q 137.66 108.77 137.06 108.61
  Q 133.87 107.77 131.01 107.14
  Q 128.23 106.52 126.07 104.77
  Q 125.29 104.13 124.72 104.10
  Q 123.95 104.05 123.15 104.46"
/>
<path stroke="#fac2ba" vector-effect="non-scaling-stroke" d="
  M 156.88 71.52
  Q 155.95 72.28 155.61 72.87
  Q 152.32 78.70 148.73 84.39
  Q 148.47 84.81 147.99 84.91
  Q 147.44 85.03 147.08 84.58
  Q 146.66 84.07 146.01 83.94
  Q 140.01 82.75 134.83 80.04"
/>
<path stroke="#fcb6ac" vector-effect="non-scaling-stroke" d="
  M 135.17 79.27
  L 141.12 72.15"
/>
<path stroke="#fd4b46" vector-effect="non-scaling-stroke" d="
  M 111.60 99.68
  Q 111.37 99.89 111.21 99.67"
/>
<path stroke="#fd2f2c" vector-effect="non-scaling-stroke" d="
  M 111.21 99.67
  Q 110.83 100.29 110.44 100.57
  Q 110.04 100.87 110.04 101.37
  L 110.01 107.11"
/>
<path stroke="#fe6b67" vector-effect="non-scaling-stroke" d="
  M 110.01 116.71
  L 105.17 115.42"
/>
<path stroke="#fdcbc5" vector-effect="non-scaling-stroke" d="
  M 138.77 112.59
  L 136.90 119.79"
/>
<path stroke="#fb7a71" vector-effect="non-scaling-stroke" d="
  M 136.90 119.79
  Q 137.06 116.83 133.73 116.92
  Q 132.37 116.95 129.38 116.28
  C 126.98 115.75 125.00 114.33 122.63 113.64
  A 0.87 0.86 31.3 0 0 121.79 113.84
  Q 121.17 114.41 120.77 115.81"
/>
<path stroke="#fc7775" vector-effect="non-scaling-stroke" d="
  M 172.27 76.03
  Q 171.68 75.77 171.66 76.25
  Q 171.49 83.95 170.18 90.75"
/>
<path stroke="#faa6a0" vector-effect="non-scaling-stroke" d="
  M 170.18 90.75
  Q 170.95 94.05 163.58 90.89"
/>
<path stroke="#fbe1db" vector-effect="non-scaling-stroke" d="
  M 163.58 90.89
  Q 159.11 89.06 154.08 87.91
  Q 152.71 87.59 151.60 87.07
  Q 150.28 86.44 148.77 86.65
  Q 148.48 86.69 148.33 86.95
  Q 148.26 87.07 148.18 87.18
  Q 147.65 87.81 148.05 86.95
  Q 148.22 86.59 148.16 86.23
  Q 148.06 85.70 147.53 85.75
  Q 146.84 85.80 146.23 85.40
  Q 143.24 83.47 139.47 82.93
  Q 138.44 82.78 136.62 82.22
  Q 135.28 81.81 133.66 81.71"
/>
<path stroke="#fcf6f4" vector-effect="non-scaling-stroke" d="
  M 133.66 81.71
  L 128.79 87.13
  Q 128.46 87.50 128.37 88.00
  C 128.09 89.39 127.82 90.83 127.17 92.12
  Q 126.77 92.92 126.77 93.86
  Q 126.77 94.40 126.45 94.83
  Q 125.12 96.59 124.85 99.00
  Q 124.79 99.52 125.18 99.87
  Q 125.71 100.34 126.48 100.50"
/>
<path stroke="#fbe1db" vector-effect="non-scaling-stroke" d="
  M 126.48 100.50
  Q 126.65 100.71 125.93 100.77"
/>
<path stroke="#fc7775" vector-effect="non-scaling-stroke" d="
  M 120.42 125.78
  Q 121.00 132.38 123.04 138.92"
/>
<path stroke="#fe6b67" vector-effect="non-scaling-stroke" d="
  M 111.54 117.78
  L 110.89 117.71
  Q 110.33 117.65 110.39 118.20
  Q 111.38 127.99 115.88 136.24
  A 1.47 1.46 84.6 0 0 116.72 136.94
  L 123.04 138.92"
/>
<path stroke="#fbe1db" vector-effect="non-scaling-stroke" d="
  M 123.04 138.92
  Q 123.29 138.82 123.95 139.49"
/>
<path stroke="#dc6f6a" vector-effect="non-scaling-stroke" d="
  M 123.95 139.49
  Q 123.63 139.98 123.74 140.26
  Q 126.43 147.33 132.38 151.93
  Q 132.71 152.18 133.22 152.41
  Q 134.51 152.99 133.78 153.27"
/>
<path stroke="#dc6f6a" vector-effect="non-scaling-stroke" d="
  M 126.55 149.22
  Q 125.41 147.77 121.63 144.12
  Q 119.46 142.01 116.86 137.78
  Q 116.60 137.36 116.18 137.10
  L 112.15 134.62"
/>
<path stroke="#ff8080" vector-effect="non-scaling-stroke" d="
  M 164.50 62.69
  Q 158.06 62.71 152.29 64.53"
/>
<path stroke="#fd4b46" vector-effect="non-scaling-stroke" d="
  M 152.29 64.53
  Q 150.12 64.65 148.59 65.59
  Q 146.77 66.72 145.05 66.33
  A 0.05 0.05 0.0 0 1 145.03 66.24
  Q 145.27 66.05 145.04 65.85
  Q 144.74 65.59 144.26 65.62
  Q 143.51 65.68 142.80 65.58
  Q 142.03 65.47 142.55 64.88
  L 143.43 63.91"
/>
<path stroke="#faa6a0" vector-effect="non-scaling-stroke" d="
  M 135.52 126.56
  L 135.55 125.98
  Q 135.59 125.40 135.04 125.23
  L 121.25 120.80
  A 0.67 0.67 0.0 0 0 120.37 121.45
  L 120.42 125.78"
/>
<path stroke="#fd2f2c" vector-effect="non-scaling-stroke" d="
  M 120.42 125.78
  L 120.19 120.51"
/>
<path stroke="#faa6a0" vector-effect="non-scaling-stroke" d="
  M 171.84 93.48
  Q 171.25 93.48 171.03 93.32
  A 1.04 1.01 -65.9 0 0 169.48 93.94
  L 164.73 112.29"
/>
<path stroke="#fdafab" vector-effect="non-scaling-stroke" d="
  M 164.73 112.29
  Q 164.60 112.59 164.46 112.74
  Q 164.31 112.88 164.01 112.80
  Q 159.07 111.49 153.69 109.34"
/>
<path stroke="#ff8080" vector-effect="non-scaling-stroke" d="
  M 165.15 113.26
  Q 164.27 113.57 164.13 113.96
  Q 161.04 123.27 157.31 131.38
  A 1.15 1.14 19.1 0 1 155.99 132.01
  C 151.63 130.93 147.57 128.91 143.21 128.07
  Q 140.48 127.54 137.95 126.70
  Q 137.87 126.67 137.87 126.59
  Q 137.87 126.52 137.94 126.51
  Q 138.34 126.44 137.94 126.36
  Q 137.35 126.25 136.84 126.02"
/>
<path stroke="#fdafab" vector-effect="non-scaling-stroke" d="
  M 136.84 126.02
  L 136.24 125.53
  Q 135.85 125.21 135.95 124.72
  L 136.90 119.79"
/>
<path stroke="#feeae6" vector-effect="non-scaling-stroke" d="
  M 133.66 81.71
  Q 131.95 84.25 130.01 86.73
  Q 128.68 88.44 128.29 90.11
  Q 127.28 94.50 125.29 98.41
  A 0.93 0.92 -72.8 0 0 125.99 99.76
  Q 126.38 99.81 126.48 100.50"
/>
<path stroke="#ff8080" vector-effect="non-scaling-stroke" d="
  M 165.82 63.09
  Q 160.85 65.29 158.11 69.83
  Q 157.70 70.50 158.32 71.43"
/>
<path stroke="#fcf6f4" vector-effect="non-scaling-stroke" d="
  M 158.32 71.43
  Q 157.32 71.25 156.88 71.52"
/>
<path stroke="#fdcbc5" vector-effect="non-scaling-stroke" d="
  M 156.88 71.52
  C 156.68 71.11 156.41 70.80 155.93 70.65
  Q 151.41 69.25 147.91 68.03
  Q 145.80 67.29 147.91 66.57
  Q 150.08 65.83 152.29 64.53"
/>
<path stroke="#fe6b67" vector-effect="non-scaling-stroke" d="
  M 169.12 64.19
  Q 171.43 68.93 171.53 73.92"
/>
<path stroke="#fc7775" vector-effect="non-scaling-stroke" d="
  M 171.53 73.92
  Q 171.69 75.64 170.75 75.29
  Q 164.59 72.96 158.32 71.43"
/>
<path stroke="#dc6f6a" vector-effect="non-scaling-stroke" d="
  M 172.64 65.52
  Q 173.41 66.48 176.29 69.22
  Q 179.59 72.35 181.55 78.25
  Q 181.73 78.79 181.17 78.86
  Q 180.90 78.90 180.53 78.67"
/>
<path stroke="#fe6b67" vector-effect="non-scaling-stroke" d="
  M 180.53 78.67
  L 172.27 76.03"
/>
<path stroke="#fbe1db" vector-effect="non-scaling-stroke" d="
  M 172.27 76.03
  Q 171.68 75.45 171.53 73.92"
/>
<path stroke="#fc7775" vector-effect="non-scaling-stroke" d="
  M 184.79 96.02
  Q 185.02 96.70 184.83 97.10
  A 0.55 0.54 -67.7 0 1 184.17 97.38
  L 171.84 93.48"
/>
<path stroke="#fd2f2c" vector-effect="non-scaling-stroke" d="
  M 171.84 93.48
  Q 169.97 92.42 170.18 90.75"
/>
<path stroke="#d97b79" vector-effect="non-scaling-stroke" d="
  M 132.52 142.14
  L 123.95 139.49"
/>
<path stroke="#fd2f2c" vector-effect="non-scaling-stroke" d="
  M 180.15 118.09
  Q 180.88 118.74 181.04 119.47"
/>
<path stroke="#fe6b67" vector-effect="non-scaling-stroke" d="
  M 159.43 133.36
  Q 158.36 132.76 157.41 132.92
  Q 156.56 133.06 156.02 134.10
  Q 155.42 135.26 154.69 137.18"
/>
<path stroke="#dd0405" vector-effect="non-scaling-stroke" d="
  M 152.64 140.07
  Q 146.50 141.97 140.74 142.03
  Q 139.88 142.03 137.38 143.55"
/>
<path stroke="#fc7775" vector-effect="non-scaling-stroke" d="
  M 133.72 141.87
  L 135.52 126.56"
/>
<path stroke="#fd2f2c" vector-effect="non-scaling-stroke" d="
  M 135.52 126.56
  Q 135.93 126.02 136.84 126.02"
/>
<path stroke="#d97b79" vector-effect="non-scaling-stroke" d="
  M 185.77 98.23
  Q 185.60 98.13 185.44 98.11
  A 0.42 0.42 0.0 0 0 184.99 98.51
  Q 184.53 108.00 181.73 117.06"
/>
<path stroke="#faa6a0" vector-effect="non-scaling-stroke" d="
  M 181.73 117.06
  Q 181.47 117.87 180.15 118.09"
/>
<path stroke="#fc7775" vector-effect="non-scaling-stroke" d="
  M 180.15 118.09
  L 165.15 113.26"
/>
<path stroke="#fcf6f4" vector-effect="non-scaling-stroke" d="
  M 165.15 113.26
  Q 164.40 112.83 164.73 112.29"
/>
<path stroke="#b35859" vector-effect="non-scaling-stroke" d="
  M 179.78 69.73
  Q 184.12 74.20 187.68 78.82
  Q 188.31 79.64 188.40 80.38
  A 0.54 0.54 0.0 0 1 187.66 80.94
  Q 184.71 79.72 182.17 79.59"
/>
<path stroke="#dd0405" vector-effect="non-scaling-stroke" d="
  M 182.17 79.59
  Q 181.77 79.56 180.53 78.67"
/>
<path stroke="#b35859" vector-effect="non-scaling-stroke" d="
  M 192.10 81.79
  Q 191.63 82.29 191.17 82.11
  Q 189.39 81.37 190.26 83.10
  Q 194.37 91.22 195.08 100.47
  A 0.84 0.82 7.6 0 0 195.64 101.19
  L 200.30 102.85"
/>
<path stroke="#8d5f5f" vector-effect="non-scaling-stroke" d="
  M 198.55 123.42
  Q 195.71 123.45 193.47 122.37
  Q 192.75 122.03 192.49 122.77
  Q 188.74 133.25 182.94 139.79"
/>
<path stroke="#b35859" vector-effect="non-scaling-stroke" d="
  M 182.94 139.79
  Q 182.26 140.33 181.01 140.03
  Q 176.95 139.06 173.15 137.60
  A 1.29 1.28 29.8 0 0 171.67 138.00
  C 168.18 142.47 164.72 146.73 159.93 149.81
  A 0.77 0.76 66.4 0 0 159.60 150.66
  Q 159.72 151.13 160.20 151.26
  Q 161.74 151.70 163.53 152.12
  Q 166.72 152.87 163.60 153.89
  L 160.06 155.04"
/>
<path stroke="#8d5f5f" vector-effect="non-scaling-stroke" d="
  M 160.06 155.04
  L 154.05 156.25"
/>
<path stroke="#b35859" vector-effect="non-scaling-stroke" d="
  M 154.05 156.25
  L 147.46 156.83"
/>
<path stroke="#b35859" vector-effect="non-scaling-stroke" d="
  M 143.77 156.49
  L 143.88 155.99
  Q 143.98 155.51 144.47 155.50
  Q 151.45 155.31 157.65 151.54
  Q 158.02 151.31 158.12 150.89
  A 0.54 0.53 15.1 0 0 157.76 150.27
  L 148.80 147.46
  Q 148.30 147.30 148.02 147.75
  Q 143.80 154.50 137.56 154.75"
/>
<path stroke="#b35859" vector-effect="non-scaling-stroke" d="
  M 136.51 154.24
  Q 133.66 149.66 133.73 144.75
  Q 133.76 142.53 132.52 142.14"
/>
<path stroke="#d2cbc9" vector-effect="non-scaling-stroke" d="
  M 132.52 142.14
  Q 133.35 141.69 133.72 141.87"
/>
<path stroke="#d55455" vector-effect="non-scaling-stroke" d="
  M 133.72 141.87
  Q 134.61 143.23 137.38 143.55"
/>
<path stroke="#b35859" vector-effect="non-scaling-stroke" d="
  M 137.38 143.55
  L 147.51 146.90
  Q 147.99 147.06 148.36 146.70
  Q 150.82 144.31 152.64 140.07"
/>
<path stroke="#d55455" vector-effect="non-scaling-stroke" d="
  M 152.64 140.07
  L 154.69 137.18"
/>
<path stroke="#d4bfbb" vector-effect="non-scaling-stroke" d="
  M 154.69 137.18
  L 160.02 135.10
  Q 160.29 134.99 160.37 134.71
  Q 160.43 134.51 160.38 134.31
  A 0.49 0.47 84.0 0 0 159.95 133.95
  Q 159.05 133.90 159.43 133.36"
/>
<path stroke="#d55455" vector-effect="non-scaling-stroke" d="
  M 159.43 133.36
  L 170.96 136.87
  A 1.80 1.80 0.0 0 0 173.03 136.07
  Q 177.89 127.93 181.04 119.47"
/>
<path stroke="#d38380" vector-effect="non-scaling-stroke" d="
  M 181.04 119.47
  Q 181.50 118.88 182.27 118.73"
/>
<path stroke="#b35859" vector-effect="non-scaling-stroke" d="
  M 182.27 118.73
  L 191.65 121.79
  Q 192.71 122.13 193.04 121.07
  Q 195.59 112.93 195.31 104.32
  C 195.24 102.30 195.51 101.10 193.46 100.58
  Q 191.09 99.97 185.77 98.23"
/>
<path stroke="#d2cbc9" vector-effect="non-scaling-stroke" d="
  M 185.77 98.23
  Q 184.89 97.58 184.79 96.02"
/>
<path stroke="#d55455" vector-effect="non-scaling-stroke" d="
  M 184.79 96.02
  Q 185.01 87.98 182.17 79.59"
/>
<path stroke="#db332f" vector-effect="non-scaling-stroke" d="
  M 182.27 118.73
  Q 181.56 117.86 181.73 117.06"
/>
<path stroke="#b35859" vector-effect="non-scaling-stroke" d="
  M 183.19 141.02
  Q 182.54 140.96 182.25 141.25
  Q 175.53 148.01 167.15 152.43"
/>
<path stroke="#950f0f" vector-effect="non-scaling-stroke" d="
  M 167.15 152.43
  Q 165.80 154.32 168.69 154.64"
/>
<path stroke="#950f0f" vector-effect="non-scaling-stroke" d="
  M 154.05 156.25
  Q 157.74 156.97 160.06 155.04"
/>
<path stroke="#8d5f5f" vector-effect="non-scaling-stroke" d="
  M 187.17 142.55
  Q 185.66 141.41 183.19 141.02"
/>
<path stroke="#950f0f" vector-effect="non-scaling-stroke" d="
  M 183.19 141.02
  Q 182.71 140.44 182.94 139.79"
/>
<path stroke="#8d5f5f" vector-effect="non-scaling-stroke" d="
  M 169.35 154.34
  Q 168.80 153.90 168.12 153.86
  Q 167.37 153.81 167.24 153.57
  Q 167.02 153.20 167.15 152.43"
/>
<path stroke="#fdcbc5" vector-effect="non-scaling-stroke" d="
  M 121.47 79.68
  Q 115.96 86.43 113.09 94.80
  A 1.33 1.33 0.0 0 0 114.00 96.51
  L 116.88 97.28"
/>
<path stroke="#feeae6" vector-effect="non-scaling-stroke" d="
  M 116.88 97.28
  L 117.75 98.02"
/>
<path stroke="#fcf6f4" vector-effect="non-scaling-stroke" d="
  M 117.75 98.02
  Q 119.27 99.72 121.06 99.20"
/>
<path stroke="#feeae6" vector-effect="non-scaling-stroke" d="
  M 121.06 99.20
  Q 122.08 99.49 123.37 98.97
  Q 123.89 98.76 123.92 98.21
  Q 123.98 97.14 124.60 96.39
  Q 124.93 96.00 124.89 95.49
  Q 124.64 92.32 125.63 89.29
  A 2.01 2.00 77.9 0 1 126.15 88.48
  Q 126.79 87.86 126.84 87.07
  Q 126.89 86.41 127.37 85.94
  L 131.64 81.81
  A 0.34 0.34 0.0 0 0 131.60 81.28
  Q 129.67 79.95 126.89 79.20
  Q 126.09 78.99 126.72 79.52
  Q 127.68 80.33 128.77 80.91
  Q 129.39 81.23 128.86 81.70
  Q 128.09 82.38 127.70 83.24
  Q 127.50 83.70 126.99 83.64
  Q 126.69 83.61 126.50 83.84
  Q 125.50 85.01 124.46 86.12
  Q 124.08 86.52 124.02 87.07
  C 123.87 88.43 123.12 89.29 123.03 90.65
  Q 122.83 93.74 122.63 96.85
  Q 122.62 97.07 122.41 97.06
  L 122.40 97.06
  Q 122.17 97.06 122.17 96.84
  Q 122.07 93.66 122.13 90.48
  Q 122.18 87.50 123.15 85.70
  Q 124.36 83.47 126.51 81.80
  Q 128.00 80.63 126.38 79.65
  L 123.73 78.04
  Q 123.27 77.76 122.84 78.10
  Q 122.07 78.71 121.47 79.68"
/>
<path stroke="#fbe1db" vector-effect="non-scaling-stroke" d="
  M 121.06 99.20
  L 117.75 98.02"
/>
<path stroke="#fcb6ac" vector-effect="non-scaling-stroke" d="
  M 116.88 97.28
  Q 118.85 97.74 120.27 97.55
  Q 120.74 97.49 120.38 97.17
  Q 120.33 97.13 120.28 97.15
  Q 119.84 97.25 119.90 96.80
  Q 120.30 93.79 120.07 90.48
  C 119.91 88.04 120.66 86.29 122.02 84.34
  Q 123.49 82.24 125.32 80.11
  Q 125.65 79.73 125.26 79.41
  Q 123.53 78.05 121.47 79.68"
/>
</g>
<path fill="#ffffff" d="
  M 155.51 61.30
  L 143.43 63.91
  Q 141.68 64.03 141.16 64.45
  Q 139.25 66.03 141.72 66.24
  Q 143.84 66.41 145.66 67.38
  Q 146.20 67.67 145.74 68.08
  L 141.12 72.15
  Q 138.24 74.44 136.63 76.23
  Q 135.53 77.46 135.17 79.27
  Q 135.00 79.66 134.83 80.04
  Q 133.62 80.85 131.23 79.88
  Q 130.94 79.76 130.54 79.90
  Q 129.96 80.11 130.55 80.30
  L 131.16 80.51
  A 0.81 0.79 5.9 0 1 131.71 81.17
  Q 131.87 82.44 131.34 82.98
  Q 129.27 85.08 127.33 87.11
  Q 126.97 87.49 126.89 88.00
  Q 126.80 88.62 126.72 89.23
  Q 126.62 90.02 126.32 90.71
  Q 125.33 93.05 125.16 95.56
  Q 125.13 96.05 124.86 96.46
  Q 124.04 97.68 123.90 99.05
  A 0.94 0.93 -65.1 0 0 124.17 99.80
  Q 125.01 100.63 125.93 100.77
  Q 125.93 100.91 126.03 101.03
  Q 126.18 101.21 125.95 101.20
  Q 125.58 101.17 125.26 101.02
  Q 124.78 100.79 124.44 101.21
  Q 123.26 102.67 123.15 104.46
  Q 120.82 109.51 120.77 115.81
  L 120.19 120.51
  L 111.54 117.78
  Q 110.73 116.71 110.01 116.71
  L 110.01 107.11
  Q 110.64 105.66 110.80 103.70
  L 111.60 99.68
  L 112.33 97.00
  Q 112.48 96.46 111.95 96.27
  L 106.88 94.49
  Q 106.94 94.36 107.00 94.23
  Q 110.48 83.93 117.90 76.08
  Q 120.21 76.81 122.28 76.56
  C 124.00 76.35 125.17 74.99 126.28 73.83
  Q 127.51 72.54 128.98 71.40
  Q 133.00 68.30 137.58 66.31
  A 1.06 1.05 -10.2 0 0 138.21 65.41
  Q 138.25 64.79 137.87 64.74
  Q 137.07 64.65 137.62 64.08
  L 138.19 63.49
  Q 146.15 60.64 155.51 61.30
  Z
  M 121.47 79.68
  Q 115.96 86.43 113.09 94.80
  A 1.33 1.33 0.0 0 0 114.00 96.51
  L 116.88 97.28
  L 117.75 98.02
  Q 119.27 99.72 121.06 99.20
  Q 122.08 99.49 123.37 98.97
  Q 123.89 98.76 123.92 98.21
  Q 123.98 97.14 124.60 96.39
  Q 124.93 96.00 124.89 95.49
  Q 124.64 92.32 125.63 89.29
  A 2.01 2.00 77.9 0 1 126.15 88.48
  Q 126.79 87.86 126.84 87.07
  Q 126.89 86.41 127.37 85.94
  L 131.64 81.81
  A 0.34 0.34 0.0 0 0 131.60 81.28
  Q 129.67 79.95 126.89 79.20
  Q 126.09 78.99 126.72 79.52
  Q 127.68 80.33 128.77 80.91
  Q 129.39 81.23 128.86 81.70
  Q 128.09 82.38 127.70 83.24
  Q 127.50 83.70 126.99 83.64
  Q 126.69 83.61 126.50 83.84
  Q 125.50 85.01 124.46 86.12
  Q 124.08 86.52 124.02 87.07
  C 123.87 88.43 123.12 89.29 123.03 90.65
  Q 122.83 93.74 122.63 96.85
  Q 122.62 97.07 122.41 97.06
  L 122.40 97.06
  Q 122.17 97.06 122.17 96.84
  Q 122.07 93.66 122.13 90.48
  Q 122.18 87.50 123.15 85.70
  Q 124.36 83.47 126.51 81.80
  Q 128.00 80.63 126.38 79.65
  L 123.73 78.04
  Q 123.27 77.76 122.84 78.10
  Q 122.07 78.71 121.47 79.68
  Z"
/>
<path fill="#ff0001" d="
  M 155.51 61.30
  Q 159.28 61.03 164.50 62.69
  Q 158.06 62.71 152.29 64.53
  Q 150.12 64.65 148.59 65.59
  Q 146.77 66.72 145.05 66.33
  A 0.05 0.05 0.0 0 1 145.03 66.24
  Q 145.27 66.05 145.04 65.85
  Q 144.74 65.59 144.26 65.62
  Q 143.51 65.68 142.80 65.58
  Q 142.03 65.47 142.55 64.88
  L 143.43 63.91
  L 155.51 61.30
  Z"
/>
<rect fill="#ff0001" x="-8.48" y="-8.42" transform="translate(355.99,72.82) rotate(-15.7)" width="16.96" height="16.84" rx="0.78"/>
<path fill="#ffffff" d="
  M 164.50 62.69
  L 165.82 63.09
  Q 160.85 65.29 158.11 69.83
  Q 157.70 70.50 158.32 71.43
  Q 157.32 71.25 156.88 71.52
  C 156.68 71.11 156.41 70.80 155.93 70.65
  Q 151.41 69.25 147.91 68.03
  Q 145.80 67.29 147.91 66.57
  Q 150.08 65.83 152.29 64.53
  Q 158.06 62.71 164.50 62.69
  Z"
/>
<path fill="#ff0001" d="
  M 165.82 63.09
  Q 167.55 63.13 169.12 64.19
  Q 171.43 68.93 171.53 73.92
  Q 171.69 75.64 170.75 75.29
  Q 164.59 72.96 158.32 71.43
  Q 157.70 70.50 158.11 69.83
  Q 160.85 65.29 165.82 63.09
  Z"
/>
<path fill="#fb5e56" d="
  M 138.19 63.49
  L 137.62 64.08
  Q 137.07 64.65 137.87 64.74
  Q 138.25 64.79 138.21 65.41
  A 1.06 1.05 -10.2 0 1 137.58 66.31
  Q 133.00 68.30 128.98 71.40
  Q 127.51 72.54 126.28 73.83
  C 125.17 74.99 124.00 76.35 122.28 76.56
  Q 120.21 76.81 117.90 76.08
  Q 126.32 66.83 138.19 63.49
  Z"
/>
<path fill="#fb968b" d="
  M 143.43 63.91
  L 142.55 64.88
  Q 142.03 65.47 142.80 65.58
  Q 143.51 65.68 144.26 65.62
  Q 144.74 65.59 145.04 65.85
  Q 145.27 66.05 145.03 66.24
  A 0.05 0.05 0.0 0 0 145.05 66.33
  Q 146.77 66.72 148.59 65.59
  Q 150.12 64.65 152.29 64.53
  Q 150.08 65.83 147.91 66.57
  Q 145.80 67.29 147.91 68.03
  Q 151.41 69.25 155.93 70.65
  C 156.41 70.80 156.68 71.11 156.88 71.52
  Q 155.95 72.28 155.61 72.87
  Q 152.32 78.70 148.73 84.39
  Q 148.47 84.81 147.99 84.91
  Q 147.44 85.03 147.08 84.58
  Q 146.66 84.07 146.01 83.94
  Q 140.01 82.75 134.83 80.04
  Q 135.00 79.66 135.17 79.27
  L 141.12 72.15
  L 145.74 68.08
  Q 146.20 67.67 145.66 67.38
  Q 143.84 66.41 141.72 66.24
  Q 139.25 66.03 141.16 64.45
  Q 141.68 64.03 143.43 63.91
  Z"
/>
<path fill="#fdd5cc" d="
  M 169.12 64.19
  L 172.64 65.52
  Q 173.41 66.48 176.29 69.22
  Q 179.59 72.35 181.55 78.25
  Q 181.73 78.79 181.17 78.86
  Q 180.90 78.90 180.53 78.67
  L 172.27 76.03
  Q 171.68 75.45 171.53 73.92
  Q 171.43 68.93 169.12 64.19
  Z"
/>
<path fill="#ba0808" d="
  M 172.64 65.52
  L 179.78 69.73
  Q 184.12 74.20 187.68 78.82
  Q 188.31 79.64 188.40 80.38
  A 0.54 0.54 0.0 0 1 187.66 80.94
  Q 184.71 79.72 182.17 79.59
  Q 181.77 79.56 180.53 78.67
  Q 180.90 78.90 181.17 78.86
  Q 181.73 78.79 181.55 78.25
  Q 179.59 72.35 176.29 69.22
  Q 173.41 66.48 172.64 65.52
  Z"
/>
<path fill="#aba8a9" d="
  M 179.78 69.73
  Q 187.05 74.59 192.10 81.79
  Q 191.63 82.29 191.17 82.11
  Q 189.39 81.37 190.26 83.10
  Q 194.37 91.22 195.08 100.47
  A 0.84 0.82 7.6 0 0 195.64 101.19
  L 200.30 102.85
  Q 201.43 113.36 198.55 123.42
  Q 195.71 123.45 193.47 122.37
  Q 192.75 122.03 192.49 122.77
  Q 188.74 133.25 182.94 139.79
  Q 182.26 140.33 181.01 140.03
  Q 176.95 139.06 173.15 137.60
  A 1.29 1.28 29.8 0 0 171.67 138.00
  C 168.18 142.47 164.72 146.73 159.93 149.81
  A 0.77 0.76 66.4 0 0 159.60 150.66
  Q 159.72 151.13 160.20 151.26
  Q 161.74 151.70 163.53 152.12
  Q 166.72 152.87 163.60 153.89
  L 160.06 155.04
  L 154.05 156.25
  L 147.46 156.83
  L 143.77 156.49
  L 143.88 155.99
  Q 143.98 155.51 144.47 155.50
  Q 151.45 155.31 157.65 151.54
  Q 158.02 151.31 158.12 150.89
  A 0.54 0.53 15.1 0 0 157.76 150.27
  L 148.80 147.46
  Q 148.30 147.30 148.02 147.75
  Q 143.80 154.50 137.56 154.75
  L 136.51 154.24
  Q 133.66 149.66 133.73 144.75
  Q 133.76 142.53 132.52 142.14
  Q 133.35 141.69 133.72 141.87
  Q 134.61 143.23 137.38 143.55
  L 147.51 146.90
  Q 147.99 147.06 148.36 146.70
  Q 150.82 144.31 152.64 140.07
  L 154.69 137.18
  L 160.02 135.10
  Q 160.29 134.99 160.37 134.71
  Q 160.43 134.51 160.38 134.31
  A 0.49 0.47 84.0 0 0 159.95 133.95
  Q 159.05 133.90 159.43 133.36
  L 170.96 136.87
  A 1.80 1.80 0.0 0 0 173.03 136.07
  Q 177.89 127.93 181.04 119.47
  Q 181.50 118.88 182.27 118.73
  L 191.65 121.79
  Q 192.71 122.13 193.04 121.07
  Q 195.59 112.93 195.31 104.32
  C 195.24 102.30 195.51 101.10 193.46 100.58
  Q 191.09 99.97 185.77 98.23
  Q 184.89 97.58 184.79 96.02
  Q 185.01 87.98 182.17 79.59
  Q 184.71 79.72 187.66 80.94
  A 0.54 0.54 0.0 0 0 188.40 80.38
  Q 188.31 79.64 187.68 78.82
  Q 184.12 74.20 179.78 69.73
  Z"
/>
<path fill="#f8ede9" d="
  M 156.88 71.52
  Q 157.32 71.25 158.32 71.43
  Q 164.59 72.96 170.75 75.29
  Q 171.69 75.64 171.53 73.92
  Q 171.68 75.45 172.27 76.03
  Q 171.68 75.77 171.66 76.25
  Q 171.49 83.95 170.18 90.75
  Q 170.95 94.05 163.58 90.89
  Q 159.11 89.06 154.08 87.91
  Q 152.71 87.59 151.60 87.07
  Q 150.28 86.44 148.77 86.65
  Q 148.48 86.69 148.33 86.95
  Q 148.26 87.07 148.18 87.18
  Q 147.65 87.81 148.05 86.95
  Q 148.22 86.59 148.16 86.23
  Q 148.06 85.70 147.53 85.75
  Q 146.84 85.80 146.23 85.40
  Q 143.24 83.47 139.47 82.93
  Q 138.44 82.78 136.62 82.22
  Q 135.28 81.81 133.66 81.71
  L 128.79 87.13
  Q 128.46 87.50 128.37 88.00
  C 128.09 89.39 127.82 90.83 127.17 92.12
  Q 126.77 92.92 126.77 93.86
  Q 126.77 94.40 126.45 94.83
  Q 125.12 96.59 124.85 99.00
  Q 124.79 99.52 125.18 99.87
  Q 125.71 100.34 126.48 100.50
  Q 126.65 100.71 125.93 100.77
  Q 125.01 100.63 124.17 99.80
  A 0.94 0.93 -65.1 0 1 123.90 99.05
  Q 124.04 97.68 124.86 96.46
  Q 125.13 96.05 125.16 95.56
  Q 125.33 93.05 126.32 90.71
  Q 126.62 90.02 126.72 89.23
  Q 126.80 88.62 126.89 88.00
  Q 126.97 87.49 127.33 87.11
  Q 129.27 85.08 131.34 82.98
  Q 131.87 82.44 131.71 81.17
  A 0.81 0.79 5.9 0 0 131.16 80.51
  L 130.55 80.30
  Q 129.96 80.11 130.54 79.90
  Q 130.94 79.76 131.23 79.88
  Q 133.62 80.85 134.83 80.04
  Q 140.01 82.75 146.01 83.94
  Q 146.66 84.07 147.08 84.58
  Q 147.44 85.03 147.99 84.91
  Q 148.47 84.81 148.73 84.39
  Q 152.32 78.70 155.61 72.87
  Q 155.95 72.28 156.88 71.52
  Z"
/>
<path fill="#fdd5cc" d="
  M 141.12 72.15
  L 135.17 79.27
  Q 135.53 77.46 136.63 76.23
  Q 138.24 74.44 141.12 72.15
  Z"
/>
<path fill="#ff0001" d="
  M 172.27 76.03
  L 180.53 78.67
  Q 181.77 79.56 182.17 79.59
  Q 185.01 87.98 184.79 96.02
  Q 185.02 96.70 184.83 97.10
  A 0.55 0.54 -67.7 0 1 184.17 97.38
  L 171.84 93.48
  Q 169.97 92.42 170.18 90.75
  Q 171.49 83.95 171.66 76.25
  Q 171.68 75.77 172.27 76.03
  Z"
/>
<path fill="#fdd5cc" d="
  M 121.06 99.20
  L 117.75 98.02
  L 116.88 97.28
  Q 118.85 97.74 120.27 97.55
  Q 120.74 97.49 120.38 97.17
  Q 120.33 97.13 120.28 97.15
  Q 119.84 97.25 119.90 96.80
  Q 120.30 93.79 120.07 90.48
  C 119.91 88.04 120.66 86.29 122.02 84.34
  Q 123.49 82.24 125.32 80.11
  Q 125.65 79.73 125.26 79.41
  Q 123.53 78.05 121.47 79.68
  Q 122.07 78.71 122.84 78.10
  Q 123.27 77.76 123.73 78.04
  L 126.38 79.65
  Q 128.00 80.63 126.51 81.80
  Q 124.36 83.47 123.15 85.70
  Q 122.18 87.50 122.13 90.48
  Q 122.07 93.66 122.17 96.84
  Q 122.17 97.06 122.40 97.06
  L 122.41 97.06
  Q 122.62 97.07 122.63 96.85
  Q 122.83 93.74 123.03 90.65
  C 123.12 89.29 123.87 88.43 124.02 87.07
  Q 124.08 86.52 124.46 86.12
  Q 125.50 85.01 126.50 83.84
  Q 126.69 83.61 126.99 83.64
  Q 127.50 83.70 127.70 83.24
  Q 128.09 82.38 128.86 81.70
  Q 129.39 81.23 128.77 80.91
  Q 127.68 80.33 126.72 79.52
  Q 126.09 78.99 126.89 79.20
  Q 129.67 79.95 131.60 81.28
  A 0.34 0.34 0.0 0 1 131.64 81.81
  L 127.37 85.94
  Q 126.89 86.41 126.84 87.07
  Q 126.79 87.86 126.15 88.48
  A 2.01 2.00 77.9 0 0 125.63 89.29
  Q 124.64 92.32 124.89 95.49
  Q 124.93 96.00 124.60 96.39
  Q 123.98 97.14 123.92 98.21
  Q 123.89 98.76 123.37 98.97
  Q 122.08 99.49 121.06 99.20
  Z"
/>
<path fill="#fb968b" d="
  M 116.88 97.28
  L 114.00 96.51
  A 1.33 1.33 0.0 0 1 113.09 94.80
  Q 115.96 86.43 121.47 79.68
  Q 123.53 78.05 125.26 79.41
  Q 125.65 79.73 125.32 80.11
  Q 123.49 82.24 122.02 84.34
  C 120.66 86.29 119.91 88.04 120.07 90.48
  Q 120.30 93.79 119.90 96.80
  Q 119.84 97.25 120.28 97.15
  Q 120.33 97.13 120.38 97.17
  Q 120.74 97.49 120.27 97.55
  Q 118.85 97.74 116.88 97.28
  Z"
/>
<path fill="#ffffff" d="
  M 133.66 81.71
  Q 131.95 84.25 130.01 86.73
  Q 128.68 88.44 128.29 90.11
  Q 127.28 94.50 125.29 98.41
  A 0.93 0.92 -72.8 0 0 125.99 99.76
  Q 126.38 99.81 126.48 100.50
  Q 125.71 100.34 125.18 99.87
  Q 124.79 99.52 124.85 99.00
  Q 125.12 96.59 126.45 94.83
  Q 126.77 94.40 126.77 93.86
  Q 126.77 92.92 127.17 92.12
  C 127.82 90.83 128.09 89.39 128.37 88.00
  Q 128.46 87.50 128.79 87.13
  L 133.66 81.71
  Z"
/>
<path fill="#fdd5cc" d="
  M 133.66 81.71
  Q 135.28 81.81 136.62 82.22
  Q 138.44 82.78 139.47 82.93
  Q 143.24 83.47 146.23 85.40
  Q 146.84 85.80 147.53 85.75
  Q 148.06 85.70 148.16 86.23
  Q 148.22 86.59 148.05 86.95
  Q 147.65 87.81 148.18 87.18
  Q 148.26 87.07 148.33 86.95
  Q 148.48 86.69 148.77 86.65
  Q 150.28 86.44 151.60 87.07
  Q 152.71 87.59 154.08 87.91
  Q 159.11 89.06 163.58 90.89
  Q 163.87 91.22 162.96 91.15
  Q 162.63 91.12 162.33 90.98
  Q 160.56 90.10 158.51 90.41
  Q 158.06 90.48 157.86 90.89
  Q 156.42 93.87 156.20 97.18
  Q 156.16 97.80 155.77 98.27
  Q 155.07 99.14 155.14 100.19
  Q 155.17 100.78 154.80 101.24
  Q 149.96 107.28 153.69 109.34
  Q 150.79 108.88 147.60 107.57
  C 146.32 107.04 144.86 106.94 143.51 106.48
  Q 142.13 106.02 141.45 106.24
  Q 140.20 106.65 140.12 108.26
  Q 140.06 109.27 138.77 112.59
  Q 138.68 111.14 138.97 109.07
  Q 139.15 107.73 138.11 108.46
  Q 137.66 108.77 137.06 108.61
  Q 133.87 107.77 131.01 107.14
  Q 128.23 106.52 126.07 104.77
  Q 125.29 104.13 124.72 104.10
  Q 123.95 104.05 123.15 104.46
  Q 123.26 102.67 124.44 101.21
  Q 124.78 100.79 125.26 101.02
  Q 125.58 101.17 125.95 101.20
  Q 126.18 101.21 126.03 101.03
  Q 125.93 100.91 125.93 100.77
  Q 126.65 100.71 126.48 100.50
  Q 126.38 99.81 125.99 99.76
  A 0.93 0.92 -72.8 0 1 125.29 98.41
  Q 127.28 94.50 128.29 90.11
  Q 128.68 88.44 130.01 86.73
  Q 131.95 84.25 133.66 81.71
  Z"
/>
<path fill="#ba0808" d="
  M 192.10 81.79
  Q 198.95 91.29 200.30 102.85
  L 195.64 101.19
  A 0.84 0.82 7.6 0 1 195.08 100.47
  Q 194.37 91.22 190.26 83.10
  Q 189.39 81.37 191.17 82.11
  Q 191.63 82.29 192.10 81.79
  Z"
/>
<path fill="#ffffff" d="
  M 414.73 133.68
  L 406.43 133.78
  Q 405.54 133.79 405.80 132.93
  L 406.09 131.96
  A 1.23 1.22 8.4 0 1 407.28 131.08
  L 428.69 131.13
  Q 429.24 131.13 429.24 131.68
  Q 429.32 145.97 419.02 152.43
  C 411.19 157.34 399.23 157.22 391.04 152.88
  C 375.65 144.73 370.72 125.32 376.77 109.44
  Q 383.50 91.74 401.99 89.90
  C 412.13 88.89 417.93 92.60 424.90 98.71
  Q 425.26 99.03 425.26 99.51
  L 425.26 108.29
  Q 425.26 108.95 424.65 109.20
  Q 422.87 109.93 422.36 108.08
  C 420.29 100.57 415.65 93.47 407.50 92.64
  C 392.39 91.10 388.74 99.50 388.55 112.94
  Q 388.41 123.02 388.59 133.85
  Q 388.68 139.78 390.38 144.68
  C 393.08 152.44 401.59 154.94 408.95 152.64
  C 416.12 150.41 415.11 140.05 415.42 134.41
  Q 415.47 133.67 414.73 133.68
  Z"
/>
<path fill="#ffffff" d="
  M 220.43 136.51
  L 214.45 153.82
  A 1.86 1.85 -81.8 0 1 212.79 155.07
  Q 212.56 155.09 212.34 155.12
  Q 210.76 155.36 211.29 153.85
  L 233.11 91.63
  Q 233.58 90.30 235.00 90.17
  Q 236.99 89.99 237.53 91.51
  Q 248.33 121.89 258.97 151.56
  A 1.40 1.40 0.0 0 0 260.29 152.49
  L 266.00 152.48
  Q 267.01 152.48 267.10 153.50
  L 267.14 154.01
  A 0.92 0.91 87.4 0 1 266.24 155.00
  L 248.02 155.03
  Q 247.45 155.04 247.27 154.50
  L 241.16 136.48
  A 0.82 0.81 80.4 0 0 240.39 135.93
  L 221.24 135.94
  A 0.86 0.85 9.6 0 0 220.43 136.51
  Z
  M 221.74 132.66
  A 0.50 0.50 0.0 0 0 222.22 133.32
  L 239.37 133.29
  A 0.50 0.50 0.0 0 0 239.84 132.62
  L 231.22 107.84
  A 0.50 0.50 0.0 0 0 230.28 107.84
  L 221.74 132.66
  Z"
/>
<path fill="#ffffff" d="
  M 461.58 135.92
  L 442.34 135.94
  A 0.95 0.94 -80.4 0 0 441.45 136.58
  L 435.59 153.66
  Q 435.21 154.76 434.07 154.98
  L 432.81 155.22
  Q 431.76 155.43 432.12 154.42
  Q 443.21 122.92 454.09 91.80
  Q 454.63 90.25 456.32 90.11
  A 2.13 2.13 0.0 0 1 458.49 91.51
  L 480.08 151.70
  A 1.21 1.20 79.9 0 0 481.21 152.49
  L 487.34 152.48
  Q 487.95 152.48 487.97 153.09
  L 488.00 153.95
  Q 488.03 154.93 487.05 154.94
  L 469.07 155.06
  Q 468.53 155.06 468.36 154.55
  L 462.17 136.34
  Q 462.03 135.91 461.58 135.92
  Z
  M 442.75 132.73
  A 0.43 0.43 0.0 0 0 443.16 133.30
  L 460.50 133.30
  A 0.43 0.43 0.0 0 0 460.91 132.73
  L 452.24 107.71
  A 0.43 0.43 0.0 0 0 451.42 107.71
  L 442.75 132.73
  Z"
/>
<path fill="#fb5e56" d="
  M 163.58 90.89
  Q 170.95 94.05 170.18 90.75
  Q 169.97 92.42 171.84 93.48
  Q 171.25 93.48 171.03 93.32
  A 1.04 1.01 -65.9 0 0 169.48 93.94
  L 164.73 112.29
  Q 164.60 112.59 164.46 112.74
  Q 164.31 112.88 164.01 112.80
  Q 159.07 111.49 153.69 109.34
  Q 149.96 107.28 154.80 101.24
  Q 155.17 100.78 155.14 100.19
  Q 155.07 99.14 155.77 98.27
  Q 156.16 97.80 156.20 97.18
  Q 156.42 93.87 157.86 90.89
  Q 158.06 90.48 158.51 90.41
  Q 160.56 90.10 162.33 90.98
  Q 162.63 91.12 162.96 91.15
  Q 163.87 91.22 163.58 90.89
  Z"
/>
<path fill="#ffffff" d="
  M 314.20 96.46
  Q 314.24 93.52 313.36 96.32
  Q 304.70 123.80 296.11 152.06
  C 295.56 153.87 294.84 155.50 292.56 155.23
  A 1.28 1.28 0.0 0 1 291.49 154.33
  Q 283.02 127.01 273.77 95.51
  Q 273.66 95.14 273.29 95.13
  A 0.40 0.39 -89.3 0 0 272.89 95.53
  L 272.83 154.12
  Q 272.83 154.82 272.13 154.91
  L 270.81 155.09
  Q 269.91 155.21 269.91 154.30
  L 269.93 94.86
  Q 269.93 94.28 269.36 94.28
  L 261.35 94.27
  Q 260.43 94.27 260.49 93.35
  L 260.54 92.75
  A 1.22 1.21 -88.0 0 1 261.75 91.62
  L 284.37 91.58
  A 1.10 1.09 81.3 0 1 285.41 92.35
  Q 290.55 109.25 295.64 126.31
  Q 296.63 129.62 297.91 133.04
  Q 298.48 134.59 298.96 133.01
  L 311.34 92.68
  Q 311.68 91.57 312.84 91.57
  L 325.96 91.61
  A 0.59 0.59 0.0 0 1 326.54 92.20
  L 326.55 151.52
  A 0.97 0.96 89.7 0 0 327.52 152.49
  L 335.08 152.48
  Q 335.94 152.48 335.99 153.33
  L 336.01 153.70
  Q 336.08 154.99 334.80 154.99
  L 314.60 155.04
  Q 314.06 155.04 314.05 154.50
  Q 313.80 124.45 314.20 96.46
  Z"
/>
<path fill="#ffffff" d="
  M 360.25 94.90
  L 360.24 151.93
  A 0.57 0.57 0.0 0 0 360.81 152.50
  L 368.96 152.48
  A 0.57 0.57 0.0 0 1 369.53 153.06
  L 369.51 154.48
  A 0.57 0.57 0.0 0 1 368.94 155.04
  L 339.10 155.02
  A 0.57 0.57 0.0 0 1 338.54 154.34
  L 338.83 152.94
  A 0.57 0.57 0.0 0 1 339.38 152.49
  L 347.05 152.42
  A 0.57 0.57 0.0 0 0 347.62 151.85
  L 347.65 92.16
  A 0.57 0.57 0.0 0 1 348.22 91.59
  L 369.00 91.70
  A 0.57 0.57 0.0 0 1 369.57 92.29
  L 369.52 93.72
  A 0.57 0.57 0.0 0 1 368.95 94.27
  L 360.82 94.33
  A 0.57 0.57 0.0 0 0 360.25 94.90
  Z"
/>
<path fill="#f8ede9" d="
  M 171.84 93.48
  L 184.17 97.38
  A 0.55 0.54 -67.7 0 0 184.83 97.10
  Q 185.02 96.70 184.79 96.02
  Q 184.89 97.58 185.77 98.23
  Q 185.60 98.13 185.44 98.11
  A 0.42 0.42 0.0 0 0 184.99 98.51
  Q 184.53 108.00 181.73 117.06
  Q 181.47 117.87 180.15 118.09
  L 165.15 113.26
  Q 164.40 112.83 164.73 112.29
  L 169.48 93.94
  A 1.04 1.01 -65.9 0 1 171.03 93.32
  Q 171.25 93.48 171.84 93.48
  Z"
/>
<path fill="#fb5e56" d="
  M 107.00 94.23
  Q 106.94 94.36 106.88 94.49
  Q 110.62 96.65 109.34 99.94
  Q 108.74 101.48 109.32 102.92
  C 109.69 103.86 109.70 104.54 109.61 105.47
  Q 109.46 107.07 108.91 105.56
  Q 107.65 102.14 107.61 98.07
  Q 107.60 97.32 107.23 96.63
  Q 106.89 96.00 106.51 95.41
  Q 106.50 94.83 107.00 94.23
  Z"
/>
<path fill="#ff0001" d="
  M 106.88 94.49
  L 111.95 96.27
  Q 112.48 96.46 112.33 97.00
  L 111.60 99.68
  Q 111.37 99.89 111.21 99.67
  Q 110.83 100.29 110.44 100.57
  Q 110.04 100.87 110.04 101.37
  L 110.01 107.11
  L 110.01 116.71
  L 105.17 115.42
  Q 104.86 110.25 104.93 104.75
  Q 104.99 100.09 106.51 95.41
  Q 106.89 96.00 107.23 96.63
  Q 107.60 97.32 107.61 98.07
  Q 107.65 102.14 108.91 105.56
  Q 109.46 107.07 109.61 105.47
  C 109.70 104.54 109.69 103.86 109.32 102.92
  Q 108.74 101.48 109.34 99.94
  Q 110.62 96.65 106.88 94.49
  Z"
/>
<path fill="#f8ede9" d="
  M 117.75 98.02
  L 121.06 99.20
  Q 119.27 99.72 117.75 98.02
  Z"
/>
<path fill="#ba0808" d="
  M 185.77 98.23
  Q 191.09 99.97 193.46 100.58
  C 195.51 101.10 195.24 102.30 195.31 104.32
  Q 195.59 112.93 193.04 121.07
  Q 192.71 122.13 191.65 121.79
  L 182.27 118.73
  Q 181.56 117.86 181.73 117.06
  Q 184.53 108.00 184.99 98.51
  A 0.42 0.42 0.0 0 1 185.44 98.11
  Q 185.60 98.13 185.77 98.23
  Z"
/>
<path fill="#fb5e56" d="
  M 111.21 99.67
  Q 110.40 101.60 110.80 103.70
  Q 110.64 105.66 110.01 107.11
  L 110.04 101.37
  Q 110.04 100.87 110.44 100.57
  Q 110.83 100.29 111.21 99.67
  Z"
/>
<path fill="#fb968b" d="
  M 111.21 99.67
  Q 111.37 99.89 111.60 99.68
  L 110.80 103.70
  Q 110.40 101.60 111.21 99.67
  Z"
/>
<path fill="#fb968b" d="
  M 138.77 112.59
  L 136.90 119.79
  Q 137.06 116.83 133.73 116.92
  Q 132.37 116.95 129.38 116.28
  C 126.98 115.75 125.00 114.33 122.63 113.64
  A 0.87 0.86 31.3 0 0 121.79 113.84
  Q 121.17 114.41 120.77 115.81
  Q 120.82 109.51 123.15 104.46
  Q 123.95 104.05 124.72 104.10
  Q 125.29 104.13 126.07 104.77
  Q 128.23 106.52 131.01 107.14
  Q 133.87 107.77 137.06 108.61
  Q 137.66 108.77 138.11 108.46
  Q 139.15 107.73 138.97 109.07
  Q 138.68 111.14 138.77 112.59
  Z"
/>
<path fill="#ffffff" d="
  M 153.69 109.34
  Q 159.07 111.49 164.01 112.80
  Q 164.31 112.88 164.46 112.74
  Q 164.60 112.59 164.73 112.29
  Q 164.40 112.83 165.15 113.26
  Q 164.27 113.57 164.13 113.96
  Q 161.04 123.27 157.31 131.38
  A 1.15 1.14 19.1 0 1 155.99 132.01
  C 151.63 130.93 147.57 128.91 143.21 128.07
  Q 140.48 127.54 137.95 126.70
  Q 137.87 126.67 137.87 126.59
  Q 137.87 126.52 137.94 126.51
  Q 138.34 126.44 137.94 126.36
  Q 137.35 126.25 136.84 126.02
  L 136.24 125.53
  Q 135.85 125.21 135.95 124.72
  L 136.90 119.79
  L 138.77 112.59
  Q 140.06 109.27 140.12 108.26
  Q 140.20 106.65 141.45 106.24
  Q 142.13 106.02 143.51 106.48
  C 144.86 106.94 146.32 107.04 147.60 107.57
  Q 150.79 108.88 153.69 109.34
  Z"
/>
<path fill="#ff0001" d="
  M 165.15 113.26
  L 180.15 118.09
  Q 180.88 118.74 181.04 119.47
  Q 177.89 127.93 173.03 136.07
  A 1.80 1.80 0.0 0 1 170.96 136.87
  L 159.43 133.36
  Q 158.36 132.76 157.41 132.92
  Q 156.56 133.06 156.02 134.10
  Q 155.42 135.26 154.69 137.18
  L 152.64 140.07
  Q 146.50 141.97 140.74 142.03
  Q 139.88 142.03 137.38 143.55
  Q 134.61 143.23 133.72 141.87
  L 135.52 126.56
  Q 135.93 126.02 136.84 126.02
  Q 137.35 126.25 137.94 126.36
  Q 138.34 126.44 137.94 126.51
  Q 137.87 126.52 137.87 126.59
  Q 137.87 126.67 137.95 126.70
  Q 140.48 127.54 143.21 128.07
  C 147.57 128.91 151.63 130.93 155.99 132.01
  A 1.15 1.14 19.1 0 0 157.31 131.38
  Q 161.04 123.27 164.13 113.96
  Q 164.27 113.57 165.15 113.26
  Z"
/>
<path fill="#fb5e56" d="
  M 136.90 119.79
  L 135.95 124.72
  Q 135.85 125.21 136.24 125.53
  L 136.84 126.02
  Q 135.93 126.02 135.52 126.56
  L 135.55 125.98
  Q 135.59 125.40 135.04 125.23
  L 121.25 120.80
  A 0.67 0.67 0.0 0 0 120.37 121.45
  L 120.42 125.78
  L 120.19 120.51
  L 120.77 115.81
  Q 121.17 114.41 121.79 113.84
  A 0.87 0.86 31.3 0 1 122.63 113.64
  C 125.00 114.33 126.98 115.75 129.38 116.28
  Q 132.37 116.95 133.73 116.92
  Q 137.06 116.83 136.90 119.79
  Z"
/>
<path fill="#fdd5cc" d="
  M 105.17 115.42
  L 110.01 116.71
  Q 110.73 116.71 111.54 117.78
  L 110.89 117.71
  Q 110.33 117.65 110.39 118.20
  Q 111.38 127.99 115.88 136.24
  A 1.47 1.46 84.6 0 0 116.72 136.94
  L 123.04 138.92
  Q 123.29 138.82 123.95 139.49
  Q 123.63 139.98 123.74 140.26
  Q 126.43 147.33 132.38 151.93
  Q 132.71 152.18 133.22 152.41
  Q 134.51 152.99 133.78 153.27
  L 126.55 149.22
  Q 125.41 147.77 121.63 144.12
  Q 119.46 142.01 116.86 137.78
  Q 116.60 137.36 116.18 137.10
  L 112.15 134.62
  Q 106.62 125.97 105.17 115.42
  Z"
/>
<path fill="#fb5e56" d="
  M 181.73 117.06
  Q 181.56 117.86 182.27 118.73
  Q 181.50 118.88 181.04 119.47
  Q 180.88 118.74 180.15 118.09
  Q 181.47 117.87 181.73 117.06
  Z"
/>
<path fill="#ff0001" d="
  M 111.54 117.78
  L 120.19 120.51
  L 120.42 125.78
  Q 121.00 132.38 123.04 138.92
  L 116.72 136.94
  A 1.47 1.46 84.6 0 1 115.88 136.24
  Q 111.38 127.99 110.39 118.20
  Q 110.33 117.65 110.89 117.71
  L 111.54 117.78
  Z"
/>
<path fill="#f8ede9" d="
  M 135.52 126.56
  L 133.72 141.87
  Q 133.35 141.69 132.52 142.14
  L 123.95 139.49
  Q 123.29 138.82 123.04 138.92
  Q 121.00 132.38 120.42 125.78
  L 120.37 121.45
  A 0.67 0.67 0.0 0 1 121.25 120.80
  L 135.04 125.23
  Q 135.59 125.40 135.55 125.98
  L 135.52 126.56
  Z"
/>
<path fill="#6f1515" d="
  M 198.55 123.42
  Q 195.22 134.62 187.17 142.55
  Q 185.66 141.41 183.19 141.02
  Q 182.71 140.44 182.94 139.79
  Q 188.74 133.25 192.49 122.77
  Q 192.75 122.03 193.47 122.37
  Q 195.71 123.45 198.55 123.42
  Z"
/>
<path fill="#fdd5cc" d="
  M 159.43 133.36
  Q 159.05 133.90 159.95 133.95
  A 0.49 0.47 84.0 0 1 160.38 134.31
  Q 160.43 134.51 160.37 134.71
  Q 160.29 134.99 160.02 135.10
  L 154.69 137.18
  Q 155.42 135.26 156.02 134.10
  Q 156.56 133.06 157.41 132.92
  Q 158.36 132.76 159.43 133.36
  Z"
/>
<path fill="#ba0808" d="
  M 112.15 134.62
  L 116.18 137.10
  Q 116.60 137.36 116.86 137.78
  Q 119.46 142.01 121.63 144.12
  Q 125.41 147.77 126.55 149.22
  L 122.21 146.31
  Q 121.81 146.04 121.35 145.88
  Q 120.14 145.46 119.62 144.22
  Q 119.44 143.77 119.07 143.44
  Q 114.81 139.62 112.15 134.62
  Z"
/>
<path fill="#ba0808" d="
  M 182.94 139.79
  Q 182.71 140.44 183.19 141.02
  Q 182.54 140.96 182.25 141.25
  Q 175.53 148.01 167.15 152.43
  Q 165.80 154.32 168.69 154.64
  Q 163.62 156.63 160.75 156.91
  Q 156.54 157.32 147.46 156.83
  L 154.05 156.25
  Q 157.74 156.97 160.06 155.04
  L 163.60 153.89
  Q 166.72 152.87 163.53 152.12
  Q 161.74 151.70 160.20 151.26
  Q 159.72 151.13 159.60 150.66
  A 0.77 0.76 66.4 0 1 159.93 149.81
  C 164.72 146.73 168.18 142.47 171.67 138.00
  A 1.29 1.28 29.8 0 1 173.15 137.60
  Q 176.95 139.06 181.01 140.03
  Q 182.26 140.33 182.94 139.79
  Z"
/>
<path fill="#ba0808" d="
  M 123.95 139.49
  L 132.52 142.14
  Q 133.76 142.53 133.73 144.75
  Q 133.66 149.66 136.51 154.24
  L 133.78 153.27
  Q 134.51 152.99 133.22 152.41
  Q 132.71 152.18 132.38 151.93
  Q 126.43 147.33 123.74 140.26
  Q 123.63 139.98 123.95 139.49
  Z"
/>
<path fill="#ba0808" d="
  M 152.64 140.07
  Q 150.82 144.31 148.36 146.70
  Q 147.99 147.06 147.51 146.90
  L 137.38 143.55
  Q 139.88 142.03 140.74 142.03
  Q 146.50 141.97 152.64 140.07
  Z"
/>
<path fill="#aba8a9" d="
  M 183.19 141.02
  Q 185.66 141.41 187.17 142.55
  Q 179.13 150.65 169.35 154.34
  Q 168.80 153.90 168.12 153.86
  Q 167.37 153.81 167.24 153.57
  Q 167.02 153.20 167.15 152.43
  Q 175.53 148.01 182.25 141.25
  Q 182.54 140.96 183.19 141.02
  Z"
/>
<path fill="#ba0808" d="
  M 143.77 156.49
  L 137.56 154.75
  Q 143.80 154.50 148.02 147.75
  Q 148.30 147.30 148.80 147.46
  L 157.76 150.27
  A 0.54 0.53 15.1 0 1 158.12 150.89
  Q 158.02 151.31 157.65 151.54
  Q 151.45 155.31 144.47 155.50
  Q 143.98 155.51 143.88 155.99
  L 143.77 156.49
  Z"
/>
<path fill="#6f1515" d="
  M 167.15 152.43
  Q 167.02 153.20 167.24 153.57
  Q 167.37 153.81 168.12 153.86
  Q 168.80 153.90 169.35 154.34
  Q 168.99 154.40 168.69 154.64
  Q 165.80 154.32 167.15 152.43
  Z"
/>
<path fill="#6f1515" d="
  M 160.06 155.04
  Q 157.74 156.97 154.05 156.25
  L 160.06 155.04
  Z"
/>
<path fill="#ff0001" d="
  M 423.52 193.89
  L 432.54 168.06
  A 0.46 0.46 0.0 0 1 432.98 167.75
  L 436.54 167.75
  A 0.46 0.46 0.0 0 1 436.98 168.36
  L 427.91 194.19
  A 0.46 0.46 0.0 0 1 427.47 194.50
  L 423.96 194.50
  A 0.46 0.46 0.0 0 1 423.52 193.89
  Z"
/>
<path fill="#ff0001" d="
  M 386.45 181.13
  A 12.09 12.09 0.0 0 1 374.36 193.22
  A 12.09 12.09 0.0 0 1 362.27 181.13
  A 12.09 12.09 0.0 0 1 374.36 169.04
  A 12.09 12.09 0.0 0 1 386.45 181.13
  Z
  M 381.5099 181.0926
  A 7.14 6.92 -0.3 0 0 374.3338 174.2101
  A 7.14 6.92 -0.3 0 0 367.2301 181.1674
  A 7.14 6.92 -0.3 0 0 374.4062 188.0499
  A 7.14 6.92 -0.3 0 0 381.5099 181.0926
  Z"
/>
<path fill="#ff0001" d="
  M 407.09 189.43
  Q 400.64 196.12 392.36 191.13
  Q 388.73 188.95 387.31 184.12
  Q 386.12 180.07 388.02 176.17
  C 391.60 168.83 400.25 166.61 406.59 172.21
  Q 407.24 172.78 406.71 173.47
  L 404.66 176.16
  Q 404.21 176.75 403.66 176.25
  C 397.21 170.46 388.48 178.41 393.39 185.20
  C 395.27 187.78 399.14 189.10 402.02 187.11
  Q 402.93 186.48 403.78 185.80
  Q 404.36 185.35 404.76 185.96
  L 406.27 188.22
  Q 406.60 188.73 407.10 188.38
  L 410.52 185.97
  Q 410.97 185.65 411.31 186.09
  Q 413.82 189.28 418.02 187.38
  A 1.30 1.30 0.0 0 0 418.45 185.32
  C 415.12 181.60 406.42 181.27 408.58 173.90
  C 410.36 167.88 420.16 167.19 422.83 172.86
  Q 423.08 173.38 422.60 173.71
  L 419.97 175.52
  Q 419.32 175.97 418.90 175.31
  Q 418.18 174.18 416.48 174.03
  Q 416.25 174.01 416.02 174.01
  Q 414.41 174.00 413.58 175.08
  Q 412.62 176.36 414.06 177.04
  Q 416.86 178.36 419.62 179.78
  C 425.27 182.68 425.22 190.59 418.92 192.64
  C 415.49 193.76 409.67 193.30 407.80 189.54
  Q 407.53 188.98 407.09 189.43
  Z"
/>
<path fill="#ff0001" d="
  M 473.00 188.47
  L 476.59 185.91
  Q 476.97 185.63 477.26 186.01
  Q 479.81 189.34 484.02 187.36
  A 1.36 1.35 -37.2 0 0 484.33 185.11
  C 480.57 181.87 472.29 180.73 474.67 173.64
  C 476.59 167.93 486.15 167.25 488.77 172.77
  Q 489.04 173.34 488.53 173.70
  L 485.94 175.54
  Q 485.46 175.88 485.06 175.44
  Q 482.54 172.68 479.64 174.94
  A 1.21 1.20 -52.3 0 0 479.90 177.00
  Q 483.36 178.48 486.31 180.22
  C 491.50 183.30 490.66 190.53 485.09 192.49
  Q 477.94 195.02 473.40 189.25
  Q 472.92 188.64 472.94 189.41
  Q 472.94 189.54 472.92 189.67
  Q 472.92 189.71 472.88 189.74
  C 468.35 194.23 461.65 194.32 457.06 190.18
  C 445.57 179.82 460.08 161.76 472.60 172.16
  A 0.85 0.85 0.0 0 1 472.75 173.32
  L 470.69 176.16
  Q 470.27 176.74 469.73 176.29
  Q 464.64 172.12 460.10 176.22
  C 457.27 178.78 457.11 183.11 459.88 185.79
  Q 464.67 190.43 469.81 185.72
  Q 470.32 185.26 470.69 185.84
  L 472.31 188.34
  A 0.49 0.48 -33.9 0 0 473.00 188.47
  Z"
/>
<path fill="#ff0001" d="
  M 442.75 183.89
  L 442.74 187.37
  A 0.39 0.39 0.0 0 0 443.13 187.76
  L 451.61 187.75
  A 0.39 0.39 0.0 0 1 452.00 188.14
  L 451.99 192.36
  A 0.39 0.39 0.0 0 1 451.60 192.75
  L 438.40 192.75
  A 0.39 0.39 0.0 0 1 438.01 192.36
  L 438.00 169.89
  A 0.39 0.39 0.0 0 1 438.39 169.50
  L 451.61 169.50
  A 0.39 0.39 0.0 0 1 452.00 169.89
  L 451.99 174.11
  A 0.39 0.39 0.0 0 1 451.60 174.50
  L 443.14 174.49
  A 0.39 0.39 0.0 0 0 442.75 174.88
  L 442.75 178.11
  A 0.39 0.39 0.0 0 0 443.14 178.50
  L 450.35 178.50
  A 0.39 0.39 0.0 0 1 450.74 178.89
  L 450.75 183.11
  A 0.39 0.39 0.0 0 1 450.36 183.50
  L 443.14 183.50
  A 0.39 0.39 0.0 0 0 442.75 183.89
  Z"
/>
</svg>
