<?xml version="1.0" encoding="UTF-8" standalone="no"?>
<!DOCTYPE svg PUBLIC "-//W3C//DTD SVG 1.1//EN" "http://www.w3.org/Graphics/SVG/1.1/DTD/svg11.dtd">
<svg xmlns="http://www.w3.org/2000/svg" version="1.1" viewBox="0.00 0.00 590.00 255.00">
<g stroke-width="2.00" fill="none" stroke-linecap="butt">
<path stroke="#f61714" vector-effect="non-scaling-stroke" d="
  M 88.86 85.20
  Q 88.65 85.94 87.56 85.99"
/>
<path stroke="#ff9492" vector-effect="non-scaling-stroke" d="
  M 87.56 85.99
  Q 87.82 85.72 87.80 85.68
  A 0.65 0.65 0.0 0 0 87.18 85.22
  Q 82.35 85.26 78.65 85.99"
/>
<path stroke="#fd6b62" vector-effect="non-scaling-stroke" d="
  M 78.65 85.99
  L 72.05 88.48
  Q 71.55 88.67 71.01 88.60
  Q 69.64 88.40 68.61 87.76
  Q 66.82 86.64 68.93 86.59
  Q 69.41 86.58 70.02 85.90"
/>
<path stroke="#ff9492" vector-effect="non-scaling-stroke" d="
  M 70.02 85.90
  Q 71.17 84.77 73.50 85.04
  A 0.91 0.91 0.0 0 0 74.51 84.12
  Q 74.51 83.92 73.51 83.78"
/>
<path stroke="#ee6b6d" vector-effect="non-scaling-stroke" d="
  M 91.95 86.26
  Q 94.23 90.14 94.22 94.92"
/>
<path stroke="#f63d39" vector-effect="non-scaling-stroke" d="
  M 94.22 94.92
  Q 94.29 96.23 93.33 96.36"
/>
<path stroke="#fed6cf" vector-effect="non-scaling-stroke" d="
  M 70.02 85.90
  Q 68.03 85.72 67.10 86.15
  Q 64.44 87.37 67.24 88.25
  Q 68.46 88.64 69.76 88.84
  Q 72.53 89.26 70.04 90.55
  C 68.76 91.22 68.16 92.15 67.15 93.00
  Q 63.32 96.25 60.62 100.31
  A 0.72 0.72 0.0 0 0 61.04 101.41
  L 65.13 102.42
  Q 65.36 102.48 65.51 102.66
  Q 65.59 102.77 65.70 102.86
  A 1.90 1.89 67.8 0 0 66.60 103.24
  Q 67.96 103.45 69.64 104.22
  Q 70.97 104.83 73.19 105.15
  Q 73.69 105.22 73.93 104.78
  C 76.06 100.93 78.23 96.23 81.26 93.18
  A 0.48 0.48 0.0 0 0 81.04 92.37
  Q 76.85 91.28 73.48 89.84
  Q 72.09 89.25 73.44 88.57
  L 78.65 85.99"
/>
<path stroke="#f78281" vector-effect="non-scaling-stroke" d="
  M 87.56 85.99
  Q 84.54 88.09 82.32 91.03
  A 1.26 1.26 0.0 0 0 82.93 92.98
  L 93.33 96.36"
/>
<path stroke="#febbb7" vector-effect="non-scaling-stroke" d="
  M 93.33 96.36
  Q 94.40 97.52 94.24 100.63"
/>
<path stroke="#f78281" vector-effect="non-scaling-stroke" d="
  M 94.24 100.63
  L 92.96 110.78"
/>
<path stroke="#f1ece9" vector-effect="non-scaling-stroke" d="
  M 92.96 110.78
  Q 92.23 111.33 92.60 111.95"
/>
<path stroke="#febbb7" vector-effect="non-scaling-stroke" d="
  M 92.60 111.95
  L 76.39 107.39
  Q 75.63 107.18 75.25 107.86
  Q 74.49 109.20 74.57 110.67
  Q 74.59 110.92 74.76 111.11
  Q 74.80 111.16 74.86 111.16
  Q 75.51 111.17 75.31 111.78
  Q 74.76 113.44 74.94 115.25
  Q 74.98 115.74 74.62 116.09
  Q 73.82 116.84 73.58 118.02
  Q 72.97 121.08 70.92 122.74
  Q 70.20 123.33 71.03 123.74
  Q 71.66 124.05 72.06 124.62
  Q 72.35 125.04 72.84 125.20
  L 86.71 129.79"
/>
<path stroke="#f1ece9" vector-effect="non-scaling-stroke" d="
  M 86.71 129.79
  Q 87.04 131.04 86.87 131.50
  Q 84.88 136.68 83.45 142.07"
/>
<path stroke="#f78281" vector-effect="non-scaling-stroke" d="
  M 83.45 142.07
  L 81.56 146.53"
/>
<path stroke="#f6e8eb" vector-effect="non-scaling-stroke" d="
  M 81.56 146.53
  L 79.89 147.12"
/>
<path stroke="#f78281" vector-effect="non-scaling-stroke" d="
  M 79.89 147.12
  L 67.61 143.32"
/>
<path stroke="#f1ece9" vector-effect="non-scaling-stroke" d="
  M 67.61 143.32
  Q 67.91 142.06 65.74 142.17
  Q 65.25 142.19 64.83 141.92
  Q 63.96 141.37 62.99 141.01
  Q 62.57 140.86 62.44 139.74"
/>
<path stroke="#febbb7" vector-effect="non-scaling-stroke" d="
  M 62.44 139.74
  Q 62.96 137.66 63.42 135.51
  C 64.00 132.77 65.24 129.51 65.32 126.21
  A 1.93 1.93 0.0 0 0 63.36 124.23
  Q 59.90 124.27 55.60 122.81
  Q 54.49 122.43 53.99 121.46
  Q 53.76 121.03 53.31 120.84
  Q 52.51 120.52 51.83 120.74
  Q 51.41 120.88 51.25 121.30
  Q 48.43 128.74 48.32 136.04
  Q 48.31 136.60 47.75 136.61
  Q 47.30 136.63 47.11 136.77"
/>
<path stroke="#f78281" vector-effect="non-scaling-stroke" d="
  M 47.11 136.77
  L 39.80 134.40"
/>
<path stroke="#ff9492" vector-effect="non-scaling-stroke" d="
  M 39.80 134.40
  Q 37.68 125.67 41.07 115.52"
/>
<path stroke="#fed6cf" vector-effect="non-scaling-stroke" d="
  M 41.07 115.52
  L 50.69 117.69
  Q 51.60 117.90 51.72 116.97
  Q 52.49 111.17 55.63 104.94
  Q 55.82 104.56 56.18 104.31
  L 57.98 103.07
  A 1.04 1.04 0.0 0 0 57.91 101.31
  Q 55.15 99.72 52.28 99.23
  A 1.07 1.06 -64.2 0 1 51.67 97.47
  Q 55.28 93.44 60.55 89.93
  Q 61.52 89.29 62.62 88.93
  Q 63.37 88.69 63.94 88.15
  Q 64.41 87.71 64.08 87.16
  Q 63.73 86.57 64.06 85.76"
/>
<path stroke="#b67374" vector-effect="non-scaling-stroke" d="
  M 94.94 87.43
  Q 95.66 88.86 98.25 90.77
  Q 101.31 93.02 103.34 99.05"
/>
<path stroke="#ccbbbc" vector-effect="non-scaling-stroke" d="
  M 103.34 99.05
  Q 103.46 99.19 103.23 99.53"
/>
<path stroke="#ee6b6d" vector-effect="non-scaling-stroke" d="
  M 103.23 99.53
  L 95.56 97.11"
/>
<path stroke="#f5a4a3" vector-effect="non-scaling-stroke" d="
  M 95.56 97.11
  Q 94.83 96.49 94.22 94.92"
/>
<path stroke="#f63d39" vector-effect="non-scaling-stroke" d="
  M 95.56 97.11
  Q 94.61 97.40 94.24 100.63"
/>
<path stroke="#cd5552" vector-effect="non-scaling-stroke" d="
  M 104.03 135.45
  Q 103.54 135.29 103.19 135.41
  Q 102.91 135.52 102.76 136.00
  Q 100.33 143.39 95.31 151.27"
/>
<path stroke="#ee6b6d" vector-effect="non-scaling-stroke" d="
  M 93.74 151.77
  L 82.12 147.82
  Q 81.64 147.66 81.60 147.16
  L 81.56 146.53"
/>
<path stroke="#e96f6b" vector-effect="non-scaling-stroke" d="
  M 48.27 137.69
  Q 48.24 145.59 50.76 153.21
  A 0.33 0.33 0.0 0 1 50.33 153.63
  L 45.54 151.86"
/>
<path stroke="#f61714" vector-effect="non-scaling-stroke" d="
  M 45.54 151.86
  Q 44.23 151.54 43.98 150.72"
/>
<path stroke="#cd5552" vector-effect="non-scaling-stroke" d="
  M 103.23 99.53
  Q 104.07 100.60 104.46 101.98
  Q 106.29 108.62 106.19 115.50
  Q 106.18 116.27 105.64 116.34"
/>
<path stroke="#e96f6b" vector-effect="non-scaling-stroke" d="
  M 105.64 116.34
  Q 99.52 114.28 93.81 112.28
  Q 93.27 112.09 93.09 111.75
  Q 92.87 111.32 92.96 110.78"
/>
<path stroke="#e96f6b" vector-effect="non-scaling-stroke" d="
  M 67.61 143.32
  L 63.36 141.97
  A 1.03 1.03 0.0 0 0 62.04 142.71
  Q 60.47 149.36 60.34 156.45"
/>
<path stroke="#c7bfba" vector-effect="non-scaling-stroke" d="
  M 60.34 156.45
  Q 60.38 156.81 60.10 156.75"
/>
<path stroke="#c8beb9" stroke-opacity="0.573" vector-effect="non-scaling-stroke" d="
  M 56.83 164.95
  Q 56.23 164.29 55.61 164.04"
/>
<path stroke="#b17773" vector-effect="non-scaling-stroke" d="
  M 55.61 164.04
  Q 49.67 158.70 45.12 152.49"
/>
<path stroke="#f1817c" vector-effect="non-scaling-stroke" d="
  M 45.12 152.49
  Q 45.07 151.97 45.54 151.86"
/>
<path stroke="#f61714" vector-effect="non-scaling-stroke" d="
  M 39.80 134.40
  Q 39.62 134.44 39.50 136.24"
/>
<path stroke="#f1817c" vector-effect="non-scaling-stroke" d="
  M 39.50 136.24
  Q 38.25 131.59 34.57 133.40"
/>
<path stroke="#ee6b6d" vector-effect="non-scaling-stroke" d="
  M 79.89 147.12
  Q 81.23 148.06 80.22 149.96
  Q 77.29 155.44 73.64 160.88"
/>
<path stroke="#cd5552" vector-effect="non-scaling-stroke" d="
  M 72.72 160.84
  L 60.68 156.79
  Q 60.57 156.75 60.49 156.65
  Q 60.42 156.55 60.34 156.45"
/>
<path stroke="#fd6b62" vector-effect="non-scaling-stroke" d="
  M 41.07 115.52
  Q 40.96 115.71 40.74 115.06"
/>
<path stroke="#fed6cf" vector-effect="non-scaling-stroke" d="
  M 40.74 115.06
  Q 41.35 114.96 41.56 114.32
  Q 44.41 105.91 50.07 99.22
  A 0.72 0.71 -61.3 0 0 49.74 98.08
  L 46.17 96.96"
/>
<path stroke="#b17773" vector-effect="non-scaling-stroke" d="
  M 105.82 123.95
  L 103.43 134.28"
/>
<path stroke="#e96f6b" vector-effect="non-scaling-stroke" d="
  M 103.43 134.28
  Q 103.34 134.74 103.07 134.95
  Q 102.84 135.13 102.40 134.99
  Q 95.83 132.90 89.23 130.77
  A 1.19 1.19 0.0 0 0 87.77 131.46
  L 83.45 142.07"
/>
<path stroke="#f0a8a1" vector-effect="non-scaling-stroke" d="
  M 92.60 111.95
  L 88.13 129.32
  Q 87.99 129.84 87.46 129.88
  Q 87.11 129.90 86.71 129.79"
/>
<path stroke="#f0a8a1" vector-effect="non-scaling-stroke" d="
  M 62.44 139.74
  Q 62.32 140.51 62.01 140.91
  Q 61.69 141.32 61.19 141.15
  Q 55.46 139.15 49.71 137.31
  Q 48.76 137.00 48.27 137.69"
/>
<path stroke="#f63d39" vector-effect="non-scaling-stroke" d="
  M 48.27 137.69
  Q 47.92 137.24 47.11 136.77"
/>
<path stroke="#955d5a" vector-effect="non-scaling-stroke" d="
  M 100.83 90.74
  Q 102.81 93.17 105.06 95.25
  Q 106.27 96.36 107.96 98.75
  Q 109.94 101.53 112.95 102.50"
/>
<path stroke="#955d5a" vector-effect="non-scaling-stroke" d="
  M 120.22 121.57
  Q 118.95 120.30 116.56 119.79
  A 1.51 1.51 0.0 0 1 115.37 118.46
  Q 114.53 110.03 110.69 102.46
  Q 110.46 102.02 109.99 101.85
  Q 107.42 100.94 104.79 100.04
  C 104.23 99.85 103.83 99.39 103.34 99.05"
/>
<path stroke="#955d5a" vector-effect="non-scaling-stroke" d="
  M 118.58 139.48
  Q 115.91 139.54 114.05 138.64
  A 0.91 0.90 21.6 0 1 113.58 137.56
  Q 115.98 129.66 115.56 120.99
  Q 115.48 119.41 113.95 119.05
  Q 110.63 118.26 107.73 116.96
  Q 105.74 116.07 106.11 118.22
  Q 106.44 120.20 105.82 123.95"
/>
<path stroke="#c7bfba" vector-effect="non-scaling-stroke" d="
  M 105.82 123.95
  Q 105.53 122.70 105.96 121.00
  Q 106.63 118.34 105.64 116.34"
/>
<path stroke="#955d5a" vector-effect="non-scaling-stroke" d="
  M 108.53 156.67
  Q 106.69 155.79 104.60 155.60
  Q 103.95 155.55 103.48 155.99
  Q 101.55 157.82 99.51 159.67
  Q 96.12 162.73 91.08 165.37
  A 1.15 1.14 -53.8 0 0 91.41 167.51
  Q 91.58 167.53 91.76 167.55"
/>
<path stroke="#b17773" vector-effect="non-scaling-stroke" d="
  M 60.35 166.66
  Q 53.91 161.18 51.18 154.52
  A 0.46 0.46 0.0 0 1 51.75 153.91
  L 60.10 156.75"
/>
<path stroke="#955d5a" vector-effect="non-scaling-stroke" d="
  M 60.10 156.75
  C 60.66 159.67 60.36 162.26 61.72 165.23
  C 63.16 168.34 66.58 168.11 68.80 166.03
  Q 71.11 163.86 73.20 161.41
  Q 73.59 160.96 72.72 160.84"
/>
<path stroke="#b60d0b" vector-effect="non-scaling-stroke" d="
  M 72.72 160.84
  Q 73.50 160.45 73.64 160.88"
/>
<path stroke="#b67374" vector-effect="non-scaling-stroke" d="
  M 73.64 160.88
  L 82.41 162.99
  Q 82.93 163.11 83.38 162.83
  C 84.41 162.18 85.46 161.83 86.39 160.99
  Q 90.63 157.16 94.19 152.68
  Q 94.60 152.17 93.74 151.77"
/>
<path stroke="#b60d0b" vector-effect="non-scaling-stroke" d="
  M 93.74 151.77
  Q 95.16 151.57 95.31 151.27"
/>
<path stroke="#955d5a" vector-effect="non-scaling-stroke" d="
  M 95.31 151.27
  Q 97.70 153.57 103.38 154.64
  Q 104.01 154.75 104.43 154.28
  Q 110.10 148.05 113.03 139.29
  A 0.89 0.88 -72.1 0 0 112.46 138.17
  L 104.03 135.45"
/>
<path stroke="#b60d0b" vector-effect="non-scaling-stroke" d="
  M 104.03 135.45
  Q 103.19 135.20 103.43 134.28"
/>
<path stroke="#e96f6b" vector-effect="non-scaling-stroke" d="
  M 39.50 136.24
  Q 40.31 143.80 43.98 150.72"
/>
<path stroke="#f1817c" vector-effect="non-scaling-stroke" d="
  M 43.98 150.72
  Q 43.83 151.25 42.92 151.38"
/>
<path stroke="#b17773" vector-effect="non-scaling-stroke" d="
  M 42.92 151.38
  L 41.11 150.32"
/>
<path stroke="#c8beb9" stroke-opacity="0.573" vector-effect="non-scaling-stroke" d="
  M 41.11 150.32
  L 38.36 145.63"
/>
<path stroke="#701310" stroke-opacity="0.573" vector-effect="non-scaling-stroke" d="
  M 41.11 150.32
  Q 46.69 158.92 55.61 164.04"
/>
<path stroke="#be1f1b" vector-effect="non-scaling-stroke" d="
  M 42.92 151.38
  L 45.12 152.49"
/>
<path stroke="#ff9492" vector-effect="non-scaling-stroke" d="
  M 40.74 115.06
  L 36.13 113.34"
/>
<path stroke="#e02420" stroke-opacity="0.573" vector-effect="non-scaling-stroke" d="
  M 500.13 100.70
  Q 493.72 100.09 490.44 102.61
  C 487.83 104.61 487.98 107.33 487.96 110.24
  Q 487.96 111.25 488.98 111.26
  L 495.50 111.27
  Q 496.22 111.27 496.23 110.55
  Q 496.28 107.50 499.34 107.32
  Q 504.17 107.05 508.64 107.21
  A 1.99 1.93 -27.5 0 1 509.58 107.49
  Q 511.58 108.70 511.18 109.79
  Q 510.27 112.25 507.84 112.28
  Q 504.81 112.30 501.52 112.32
  Q 500.91 112.32 500.90 112.94
  L 500.82 117.04
  Q 500.81 117.63 501.41 117.63
  Q 505.01 117.61 508.64 117.64
  Q 511.01 117.67 511.96 120.00
  Q 512.07 120.28 512.07 120.57
  Q 512.01 122.64 509.93 122.69
  Q 504.82 122.79 499.67 122.75
  Q 496.44 122.73 496.14 119.43
  Q 496.07 118.71 495.35 118.71
  L 488.57 118.70
  A 0.39 0.39 0.0 0 0 488.19 119.02
  C 486.78 126.81 491.60 129.34 498.39 129.32
  Q 506.65 129.28 512.94 129.18
  C 516.44 129.12 519.33 126.60 519.50 123.01
  C 519.70 118.57 519.53 115.45 514.12 115.18
  Q 512.92 115.11 514.10 114.87
  C 516.04 114.46 517.75 113.72 518.39 111.63
  Q 519.01 109.58 518.21 104.26"
/>
<path stroke="#e02420" stroke-opacity="0.573" vector-effect="non-scaling-stroke" d="
  M 530.58 100.70
  Q 527.97 101.14 525.89 102.39
  C 522.86 104.22 523.03 107.16 522.96 110.22
  Q 522.93 111.30 524.01 111.27
  L 529.86 111.14
  Q 531.02 111.12 531.21 109.97
  Q 531.66 107.29 534.75 107.25
  Q 539.97 107.18 544.87 107.14
  A 2.64 2.60 68.0 0 1 546.84 107.99
  Q 548.18 109.45 547.93 110.71
  Q 547.44 113.22 544.88 113.24
  Q 538.48 113.29 531.60 113.25
  C 527.92 113.23 523.07 115.26 523.08 119.54
  Q 523.09 123.72 523.09 128.58
  Q 523.09 129.26 523.77 129.26
  L 554.74 129.23
  Q 555.14 129.23 555.31 128.86
  Q 555.42 128.61 555.41 128.25"
/>
<path stroke="#e02420" stroke-opacity="0.573" vector-effect="non-scaling-stroke" d="
  M 553.89 116.80
  Q 551.37 119.66 548.88 119.67
  Q 541.64 119.71 534.19 119.75
  Q 532.91 119.75 531.50 121.07
  Q 531.23 121.33 531.11 121.69
  Q 530.67 123.11 532.16 123.12
  L 555.18 123.22"
/>
<path stroke="#e1e0e0" stroke-opacity="0.573" vector-effect="non-scaling-stroke" d="
  M 430.39 117.94
  L 430.32 123.90
  Q 430.31 124.48 429.74 124.48
  L 420.81 124.58
  Q 419.91 124.59 419.94 123.69
  C 420.02 120.81 418.26 118.70 415.35 118.72
  Q 409.15 118.78 403.27 118.67
  Q 401.40 118.64 399.92 119.49
  Q 397.58 120.86 398.07 124.12"
/>
<path stroke="#e1e0e0" stroke-opacity="0.573" vector-effect="non-scaling-stroke" d="
  M 399.22 141.00
  Q 412.73 142.28 417.48 141.45
  Q 421.44 140.76 420.72 135.66"
/>
<path stroke="#e1e0e0" stroke-opacity="0.573" vector-effect="non-scaling-stroke" d="
  M 430.19 135.01
  Q 429.72 134.71 430.48 134.67"
/>
<path stroke="#e1e0e0" stroke-opacity="0.573" vector-effect="non-scaling-stroke" d="
  M 429.08 146.88
  Q 425.50 151.06 420.01 150.94
  Q 410.74 150.74 400.48 150.96
  C 395.46 151.07 391.94 150.05 389.24 145.79
  Q 387.76 143.45 387.74 137.36
  Q 387.70 128.40 387.79 119.76
  Q 387.87 112.47 394.30 108.70"
/>
<path stroke="#e1e0e0" stroke-opacity="0.573" vector-effect="non-scaling-stroke" d="
  M 480.78 144.37
  C 478.45 148.63 474.84 151.02 470.01 151.00
  Q 452.31 150.94 438.34 151.09
  A 0.91 0.91 0.0 0 1 437.42 150.19
  L 436.95 114.69"
/>
<path stroke="#e1e0e0" stroke-opacity="0.573" vector-effect="non-scaling-stroke" d="
  M 449.28 141.19
  Q 456.92 141.88 464.32 141.63
  C 468.28 141.49 471.47 140.05 471.48 135.65
  Q 471.49 130.69 471.58 124.60
  C 471.63 120.67 469.45 117.73 465.27 117.72
  Q 456.73 117.71 448.26 117.88
  Q 447.77 117.89 447.75 118.39
  L 447.68 120.26"
/>
<path stroke="#955d5a" vector-effect="non-scaling-stroke" d="
  M 81.63 165.37
  Q 77.29 167.62 72.83 168.28
  Q 72.42 168.34 72.48 168.76
  L 72.52 169.01
  Q 72.53 169.07 72.59 169.07
  Q 74.74 168.79 77.02 168.90
  A 1.90 1.90 0.0 0 0 77.97 168.71
  C 79.76 167.86 81.47 168.30 83.35 167.83
  Q 85.12 167.39 86.87 167.03
  Q 89.09 166.58 87.01 165.69
  Q 85.09 164.86 82.34 164.71
  Q 82.20 164.70 82.13 164.84
  Q 82.06 164.96 81.98 165.07
  Q 81.84 165.26 81.63 165.37"
/>
</g>
<path fill="#fe2924" d="
  M 88.86 85.20
  Q 88.65 85.94 87.56 85.99
  Q 87.82 85.72 87.80 85.68
  A 0.65 0.65 0.0 0 0 87.18 85.22
  Q 82.35 85.26 78.65 85.99
  L 72.05 88.48
  Q 71.55 88.67 71.01 88.60
  Q 69.64 88.40 68.61 87.76
  Q 66.82 86.64 68.93 86.59
  Q 69.41 86.58 70.02 85.90
  Q 71.17 84.77 73.50 85.04
  A 0.91 0.91 0.0 0 0 74.51 84.12
  Q 74.51 83.92 73.51 83.78
  Q 81.41 82.83 88.86 85.20
  Z"
/>
<path fill="#ffffff" d="
  M 73.51 83.78
  Q 74.51 83.92 74.51 84.12
  A 0.91 0.91 0.0 0 1 73.50 85.04
  Q 71.17 84.77 70.02 85.90
  Q 68.03 85.72 67.10 86.15
  Q 64.44 87.37 67.24 88.25
  Q 68.46 88.64 69.76 88.84
  Q 72.53 89.26 70.04 90.55
  C 68.76 91.22 68.16 92.15 67.15 93.00
  Q 63.32 96.25 60.62 100.31
  A 0.72 0.72 0.0 0 0 61.04 101.41
  L 65.13 102.42
  Q 65.36 102.48 65.51 102.66
  Q 65.59 102.77 65.70 102.86
  A 1.90 1.89 67.8 0 0 66.60 103.24
  Q 67.96 103.45 69.64 104.22
  Q 70.97 104.83 73.19 105.15
  Q 73.69 105.22 73.93 104.78
  C 76.06 100.93 78.23 96.23 81.26 93.18
  A 0.48 0.48 0.0 0 0 81.04 92.37
  Q 76.85 91.28 73.48 89.84
  Q 72.09 89.25 73.44 88.57
  L 78.65 85.99
  Q 82.35 85.26 87.18 85.22
  A 0.65 0.65 0.0 0 1 87.80 85.68
  Q 87.82 85.72 87.56 85.99
  Q 84.54 88.09 82.32 91.03
  A 1.26 1.26 0.0 0 0 82.93 92.98
  L 93.33 96.36
  Q 94.40 97.52 94.24 100.63
  L 92.96 110.78
  Q 92.23 111.33 92.60 111.95
  L 76.39 107.39
  Q 75.63 107.18 75.25 107.86
  Q 74.49 109.20 74.57 110.67
  Q 74.59 110.92 74.76 111.11
  Q 74.80 111.16 74.86 111.16
  Q 75.51 111.17 75.31 111.78
  Q 74.76 113.44 74.94 115.25
  Q 74.98 115.74 74.62 116.09
  Q 73.82 116.84 73.58 118.02
  Q 72.97 121.08 70.92 122.74
  Q 70.20 123.33 71.03 123.74
  Q 71.66 124.05 72.06 124.62
  Q 72.35 125.04 72.84 125.20
  L 86.71 129.79
  Q 87.04 131.04 86.87 131.50
  Q 84.88 136.68 83.45 142.07
  L 81.56 146.53
  L 79.89 147.12
  L 67.61 143.32
  Q 67.91 142.06 65.74 142.17
  Q 65.25 142.19 64.83 141.92
  Q 63.96 141.37 62.99 141.01
  Q 62.57 140.86 62.44 139.74
  Q 62.96 137.66 63.42 135.51
  C 64.00 132.77 65.24 129.51 65.32 126.21
  A 1.93 1.93 0.0 0 0 63.36 124.23
  Q 59.90 124.27 55.60 122.81
  Q 54.49 122.43 53.99 121.46
  Q 53.76 121.03 53.31 120.84
  Q 52.51 120.52 51.83 120.74
  Q 51.41 120.88 51.25 121.30
  Q 48.43 128.74 48.32 136.04
  Q 48.31 136.60 47.75 136.61
  Q 47.30 136.63 47.11 136.77
  L 39.80 134.40
  Q 37.68 125.67 41.07 115.52
  L 50.69 117.69
  Q 51.60 117.90 51.72 116.97
  Q 52.49 111.17 55.63 104.94
  Q 55.82 104.56 56.18 104.31
  L 57.98 103.07
  A 1.04 1.04 0.0 0 0 57.91 101.31
  Q 55.15 99.72 52.28 99.23
  A 1.07 1.06 -64.2 0 1 51.67 97.47
  Q 55.28 93.44 60.55 89.93
  Q 61.52 89.29 62.62 88.93
  Q 63.37 88.69 63.94 88.15
  Q 64.41 87.71 64.08 87.16
  Q 63.73 86.57 64.06 85.76
  L 73.51 83.78
  Z"
/>
<rect fill="#ee0403" x="-7.63" y="-7.57" transform="translate(259.94,94.11) rotate(-15.8)" width="15.26" height="15.14" rx="0.84"/>
<path fill="#ee0403" d="
  M 88.86 85.20
  Q 90.51 85.40 91.95 86.26
  Q 94.23 90.14 94.22 94.92
  Q 94.29 96.23 93.33 96.36
  L 82.93 92.98
  A 1.26 1.26 0.0 0 1 82.32 91.03
  Q 84.54 88.09 87.56 85.99
  Q 88.65 85.94 88.86 85.20
  Z"
/>
<path fill="#fcad9f" d="
  M 64.06 85.76
  Q 63.73 86.57 64.08 87.16
  Q 64.41 87.71 63.94 88.15
  Q 63.37 88.69 62.62 88.93
  Q 61.52 89.29 60.55 89.93
  Q 55.28 93.44 51.67 97.47
  A 1.07 1.06 -64.2 0 0 52.28 99.23
  Q 55.15 99.72 57.91 101.31
  A 1.04 1.04 0.0 0 1 57.98 103.07
  L 56.18 104.31
  Q 55.82 104.56 55.63 104.94
  Q 52.49 111.17 51.72 116.97
  Q 51.60 117.90 50.69 117.69
  L 41.07 115.52
  Q 40.96 115.71 40.74 115.06
  Q 41.35 114.96 41.56 114.32
  Q 44.41 105.91 50.07 99.22
  A 0.72 0.71 -61.3 0 0 49.74 98.08
  L 46.17 96.96
  Q 53.52 88.96 64.06 85.76
  Z"
/>
<path fill="#fcad9f" d="
  M 70.02 85.90
  Q 69.41 86.58 68.93 86.59
  Q 66.82 86.64 68.61 87.76
  Q 69.64 88.40 71.01 88.60
  Q 71.55 88.67 72.05 88.48
  L 78.65 85.99
  L 73.44 88.57
  Q 72.09 89.25 73.48 89.84
  Q 76.85 91.28 81.04 92.37
  A 0.48 0.48 0.0 0 1 81.26 93.18
  C 78.23 96.23 76.06 100.93 73.93 104.78
  Q 73.69 105.22 73.19 105.15
  Q 70.97 104.83 69.64 104.22
  Q 67.96 103.45 66.60 103.24
  A 1.90 1.89 67.8 0 1 65.70 102.86
  Q 65.59 102.77 65.51 102.66
  Q 65.36 102.48 65.13 102.42
  L 61.04 101.41
  A 0.72 0.72 0.0 0 1 60.62 100.31
  Q 63.32 96.25 67.15 93.00
  C 68.16 92.15 68.76 91.22 70.04 90.55
  Q 72.53 89.26 69.76 88.84
  Q 68.46 88.64 67.24 88.25
  Q 64.44 87.37 67.10 86.15
  Q 68.03 85.72 70.02 85.90
  Z"
/>
<path fill="#edd1d6" d="
  M 91.95 86.26
  L 94.94 87.43
  Q 95.66 88.86 98.25 90.77
  Q 101.31 93.02 103.34 99.05
  Q 103.46 99.19 103.23 99.53
  L 95.56 97.11
  Q 94.83 96.49 94.22 94.92
  Q 94.23 90.14 91.95 86.26
  Z"
/>
<path fill="#7e1512" d="
  M 94.94 87.43
  Q 98.39 88.66 100.83 90.74
  Q 102.81 93.17 105.06 95.25
  Q 106.27 96.36 107.96 98.75
  Q 109.94 101.53 112.95 102.50
  Q 119.00 110.81 120.22 121.57
  Q 118.95 120.30 116.56 119.79
  A 1.51 1.51 0.0 0 1 115.37 118.46
  Q 114.53 110.03 110.69 102.46
  Q 110.46 102.02 109.99 101.85
  Q 107.42 100.94 104.79 100.04
  C 104.23 99.85 103.83 99.39 103.34 99.05
  Q 101.31 93.02 98.25 90.77
  Q 95.66 88.86 94.94 87.43
  Z"
/>
<path fill="#aba5a1" d="
  M 100.83 90.74
  Q 107.94 95.17 112.95 102.50
  Q 109.94 101.53 107.96 98.75
  Q 106.27 96.36 105.06 95.25
  Q 102.81 93.17 100.83 90.74
  Z"
/>
<path fill="#fd766f" d="
  M 94.22 94.92
  Q 94.83 96.49 95.56 97.11
  Q 94.61 97.40 94.24 100.63
  Q 94.40 97.52 93.33 96.36
  Q 94.29 96.23 94.22 94.92
  Z"
/>
<path fill="#ffffff" d="
  M 46.17 96.96
  L 49.74 98.08
  A 0.72 0.71 -61.3 0 1 50.07 99.22
  Q 44.41 105.91 41.56 114.32
  Q 41.35 114.96 40.74 115.06
  L 36.13 113.34
  Q 39.57 103.96 46.17 96.96
  Z"
/>
<path fill="#ee0403" d="
  M 95.56 97.11
  L 103.23 99.53
  Q 104.07 100.60 104.46 101.98
  Q 106.29 108.62 106.19 115.50
  Q 106.18 116.27 105.64 116.34
  Q 99.52 114.28 93.81 112.28
  Q 93.27 112.09 93.09 111.75
  Q 92.87 111.32 92.96 110.78
  L 94.24 100.63
  Q 94.61 97.40 95.56 97.11
  Z"
/>
<path fill="#aba5a1" d="
  M 103.34 99.05
  C 103.83 99.39 104.23 99.85 104.79 100.04
  Q 107.42 100.94 109.99 101.85
  Q 110.46 102.02 110.69 102.46
  Q 114.53 110.03 115.37 118.46
  A 1.51 1.51 0.0 0 0 116.56 119.79
  Q 118.95 120.30 120.22 121.57
  Q 121.02 130.97 118.58 139.48
  Q 115.91 139.54 114.05 138.64
  A 0.91 0.90 21.6 0 1 113.58 137.56
  Q 115.98 129.66 115.56 120.99
  Q 115.48 119.41 113.95 119.05
  Q 110.63 118.26 107.73 116.96
  Q 105.74 116.07 106.11 118.22
  Q 106.44 120.20 105.82 123.95
  Q 105.53 122.70 105.96 121.00
  Q 106.63 118.34 105.64 116.34
  Q 106.18 116.27 106.19 115.50
  Q 106.29 108.62 104.46 101.98
  Q 104.07 100.60 103.23 99.53
  Q 103.46 99.19 103.34 99.05
  Z"
/>
<path fill="#0c0101" fill-opacity="0.141" d="
  M 500.13 100.70
  Q 493.72 100.09 490.44 102.61
  C 487.83 104.61 487.98 107.33 487.96 110.24
  Q 487.96 111.25 488.98 111.26
  L 495.50 111.27
  Q 496.22 111.27 496.23 110.55
  Q 496.28 107.50 499.34 107.32
  Q 504.17 107.05 508.64 107.21
  A 1.99 1.93 -27.5 0 1 509.58 107.49
  Q 511.58 108.70 511.18 109.79
  Q 510.27 112.25 507.84 112.28
  Q 504.81 112.30 501.52 112.32
  Q 500.91 112.32 500.90 112.94
  L 500.82 117.04
  Q 500.81 117.63 501.41 117.63
  Q 505.01 117.61 508.64 117.64
  Q 511.01 117.67 511.96 120.00
  Q 512.07 120.28 512.07 120.57
  Q 512.01 122.64 509.93 122.69
  Q 504.82 122.79 499.67 122.75
  Q 496.44 122.73 496.14 119.43
  Q 496.07 118.71 495.35 118.71
  L 488.57 118.70
  A 0.39 0.39 0.0 0 0 488.19 119.02
  C 486.78 126.81 491.60 129.34 498.39 129.32
  Q 506.65 129.28 512.94 129.18
  C 516.44 129.12 519.33 126.60 519.50 123.01
  C 519.70 118.57 519.53 115.45 514.12 115.18
  Q 512.92 115.11 514.10 114.87
  C 516.04 114.46 517.75 113.72 518.39 111.63
  Q 519.01 109.58 518.21 104.26
  Q 519.05 104.87 519.13 105.53
  Q 519.33 107.32 519.92 105.62
  Q 520.19 104.82 520.24 103.97
  A 1.53 1.53 0.0 0 1 520.76 102.89
  Q 522.50 101.33 525.26 100.49
  Q 525.61 100.39 525.91 100.59
  Q 527.02 101.34 527.90 100.44
  Q 528.23 100.10 528.70 100.04
  Q 530.13 99.87 530.58 100.70
  Q 527.97 101.14 525.89 102.39
  C 522.86 104.22 523.03 107.16 522.96 110.22
  Q 522.93 111.30 524.01 111.27
  L 529.86 111.14
  Q 531.02 111.12 531.21 109.97
  Q 531.66 107.29 534.75 107.25
  Q 539.97 107.18 544.87 107.14
  A 2.64 2.60 68.0 0 1 546.84 107.99
  Q 548.18 109.45 547.93 110.71
  Q 547.44 113.22 544.88 113.24
  Q 538.48 113.29 531.60 113.25
  C 527.92 113.23 523.07 115.26 523.08 119.54
  Q 523.09 123.72 523.09 128.58
  Q 523.09 129.26 523.77 129.26
  L 554.74 129.23
  Q 555.14 129.23 555.31 128.86
  Q 555.42 128.61 555.41 128.25
  Q 555.74 128.54 555.67 129.01
  Q 555.61 129.51 555.11 129.58
  Q 554.22 129.69 553.62 130.42
  Q 553.31 130.80 553.61 131.18
  Q 553.76 131.37 554.02 131.36
  Q 554.97 131.32 554.23 131.92
  Q 551.53 134.14 548.60 134.13
  Q 535.97 134.11 524.58 134.16
  C 522.32 134.17 520.53 133.19 518.59 132.28
  Q 518.20 132.09 517.77 132.12
  Q 515.46 132.28 513.40 133.22
  Q 511.88 133.93 510.15 133.91
  Q 501.97 133.85 494.13 133.89
  C 492.74 133.90 491.55 133.54 490.21 133.24
  Q 489.76 133.14 489.41 132.84
  Q 488.01 131.62 486.22 131.11
  Q 485.80 130.99 485.52 130.66
  Q 484.83 129.89 484.01 129.19
  A 1.76 1.75 -74.3 0 1 483.42 128.13
  Q 482.87 124.59 483.29 121.08
  Q 483.35 120.64 483.67 120.32
  L 486.62 117.40
  A 0.92 0.90 58.5 0 0 486.84 116.45
  Q 486.49 115.39 485.49 115.10
  Q 484.64 114.85 484.00 114.04
  Q 482.57 112.25 482.54 110.62
  Q 482.52 109.00 484.04 107.19
  Q 486.73 104.02 489.02 100.90
  A 0.81 0.81 0.0 0 1 489.79 100.58
  L 491.93 100.91
  Q 492.42 100.99 492.75 100.62
  Q 493.48 99.82 495.00 100.03
  Q 497.44 100.36 500.13 100.70
  Z"
/>
<path fill="#fe2924" d="
  M 500.13 100.70
  Q 506.08 100.69 512.25 100.83
  Q 516.34 100.93 518.21 104.26
  Q 519.01 109.58 518.39 111.63
  C 517.75 113.72 516.04 114.46 514.10 114.87
  Q 512.92 115.11 514.12 115.18
  C 519.53 115.45 519.70 118.57 519.50 123.01
  C 519.33 126.60 516.44 129.12 512.94 129.18
  Q 506.65 129.28 498.39 129.32
  C 491.60 129.34 486.78 126.81 488.19 119.02
  A 0.39 0.39 0.0 0 1 488.57 118.70
  L 495.35 118.71
  Q 496.07 118.71 496.14 119.43
  Q 496.44 122.73 499.67 122.75
  Q 504.82 122.79 509.93 122.69
  Q 512.01 122.64 512.07 120.57
  Q 512.07 120.28 511.96 120.00
  Q 511.01 117.67 508.64 117.64
  Q 505.01 117.61 501.41 117.63
  Q 500.81 117.63 500.82 117.04
  L 500.90 112.94
  Q 500.91 112.32 501.52 112.32
  Q 504.81 112.30 507.84 112.28
  Q 510.27 112.25 511.18 109.79
  Q 511.58 108.70 509.58 107.49
  A 1.99 1.93 -27.5 0 0 508.64 107.21
  Q 504.17 107.05 499.34 107.32
  Q 496.28 107.50 496.23 110.55
  Q 496.22 111.27 495.50 111.27
  L 488.98 111.26
  Q 487.96 111.25 487.96 110.24
  C 487.98 107.33 487.83 104.61 490.44 102.61
  Q 493.72 100.09 500.13 100.70
  Z"
/>
<path fill="#fe2924" d="
  M 530.58 100.70
  Q 538.10 100.69 545.68 100.71
  Q 549.78 100.72 551.60 101.77
  C 556.53 104.62 556.06 112.52 553.89 116.80
  Q 551.37 119.66 548.88 119.67
  Q 541.64 119.71 534.19 119.75
  Q 532.91 119.75 531.50 121.07
  Q 531.23 121.33 531.11 121.69
  Q 530.67 123.11 532.16 123.12
  L 555.18 123.22
  L 555.41 128.25
  Q 555.42 128.61 555.31 128.86
  Q 555.14 129.23 554.74 129.23
  L 523.77 129.26
  Q 523.09 129.26 523.09 128.58
  Q 523.09 123.72 523.08 119.54
  C 523.07 115.26 527.92 113.23 531.60 113.25
  Q 538.48 113.29 544.88 113.24
  Q 547.44 113.22 547.93 110.71
  Q 548.18 109.45 546.84 107.99
  A 2.64 2.60 68.0 0 0 544.87 107.14
  Q 539.97 107.18 534.75 107.25
  Q 531.66 107.29 531.21 109.97
  Q 531.02 111.12 529.86 111.14
  L 524.01 111.27
  Q 522.93 111.30 522.96 110.22
  C 523.03 107.16 522.86 104.22 525.89 102.39
  Q 527.97 101.14 530.58 100.70
  Z"
/>
<path fill="#fd766f" d="
  M 92.60 111.95
  L 88.13 129.32
  Q 87.99 129.84 87.46 129.88
  Q 87.11 129.90 86.71 129.79
  L 72.84 125.20
  Q 72.35 125.04 72.06 124.62
  Q 71.66 124.05 71.03 123.74
  Q 70.20 123.33 70.92 122.74
  Q 72.97 121.08 73.58 118.02
  Q 73.82 116.84 74.62 116.09
  Q 74.98 115.74 74.94 115.25
  Q 74.76 113.44 75.31 111.78
  Q 75.51 111.17 74.86 111.16
  Q 74.80 111.16 74.76 111.11
  Q 74.59 110.92 74.57 110.67
  Q 74.49 109.20 75.25 107.86
  Q 75.63 107.18 76.39 107.39
  L 92.60 111.95
  Z"
/>
<path fill="#ffffff" d="
  M 430.39 117.94
  L 430.32 123.90
  Q 430.31 124.48 429.74 124.48
  L 420.81 124.58
  Q 419.91 124.59 419.94 123.69
  C 420.02 120.81 418.26 118.70 415.35 118.72
  Q 409.15 118.78 403.27 118.67
  Q 401.40 118.64 399.92 119.49
  Q 397.58 120.86 398.07 124.12
  Q 396.78 133.91 399.22 141.00
  Q 412.73 142.28 417.48 141.45
  Q 421.44 140.76 420.72 135.66
  Q 423.71 133.91 430.19 135.01
  Q 429.72 134.71 430.48 134.67
  Q 430.62 134.77 430.75 134.83
  Q 431.01 134.94 431.05 135.22
  Q 432.15 141.75 429.08 146.88
  Q 425.50 151.06 420.01 150.94
  Q 410.74 150.74 400.48 150.96
  C 395.46 151.07 391.94 150.05 389.24 145.79
  Q 387.76 143.45 387.74 137.36
  Q 387.70 128.40 387.79 119.76
  Q 387.87 112.47 394.30 108.70
  Q 405.21 107.99 416.71 108.20
  Q 422.70 108.30 425.27 109.91
  Q 429.25 112.39 430.39 117.94
  Z"
/>
<path fill="#ffffff" d="
  M 480.78 144.37
  C 478.45 148.63 474.84 151.02 470.01 151.00
  Q 452.31 150.94 438.34 151.09
  A 0.91 0.91 0.0 0 1 437.42 150.19
  L 436.95 114.69
  L 437.17 108.69
  A 0.45 0.45 0.0 0 1 437.62 108.26
  Q 452.73 108.24 469.09 108.26
  Q 477.15 108.27 480.39 114.51
  Q 481.75 117.13 481.77 122.22
  Q 481.80 131.11 481.77 140.00
  Q 481.77 141.89 480.78 144.37
  Z
  M 447.68 120.26
  L 447.64 140.78
  Q 447.64 141.29 448.10 141.51
  Q 449.11 141.99 449.28 141.19
  Q 456.92 141.88 464.32 141.63
  C 468.28 141.49 471.47 140.05 471.48 135.65
  Q 471.49 130.69 471.58 124.60
  C 471.63 120.67 469.45 117.73 465.27 117.72
  Q 456.73 117.71 448.26 117.88
  Q 447.77 117.89 447.75 118.39
  L 447.68 120.26
  Z"
/>
<path fill="#0c0101" fill-opacity="0.141" d="
  M 394.30 108.70
  Q 387.87 112.47 387.79 119.76
  Q 387.70 128.40 387.74 137.36
  Q 387.76 143.45 389.24 145.79
  C 391.94 150.05 395.46 151.07 400.48 150.96
  Q 410.74 150.74 420.01 150.94
  Q 425.50 151.06 429.08 146.88
  Q 428.27 149.45 426.89 150.64
  Q 426.11 151.32 425.92 152.22
  Q 425.80 152.82 425.24 153.10
  L 423.09 154.15
  Q 422.59 154.39 422.04 154.35
  Q 421.47 154.32 421.09 154.75
  Q 420.72 155.18 420.15 155.20
  Q 408.07 155.54 394.76 155.31
  Q 392.01 155.27 388.93 153.16
  Q 386.23 151.31 384.19 147.59
  Q 382.69 144.86 382.64 141.45
  Q 382.48 129.71 382.86 118.09
  Q 382.90 116.58 383.78 115.24
  Q 384.66 113.88 385.23 112.32
  Q 385.43 111.78 385.94 111.53
  L 390.27 109.40
  Q 390.73 109.17 391.22 109.28
  Q 392.55 109.58 394.30 108.70
  Z"
/>
<path fill="#ffffff" d="
  M 312.79 148.78
  L 305.21 148.76
  A 0.51 0.51 0.0 0 1 304.71 148.17
  L 304.80 147.62
  Q 304.99 146.49 306.13 146.49
  L 325.05 146.49
  A 0.70 0.69 89.6 0 1 325.74 147.18
  C 325.82 158.87 319.17 167.24 307.48 168.66
  C 267.16 173.58 265.39 106.52 306.66 109.47
  C 312.77 109.90 317.37 113.33 321.84 117.39
  Q 322.25 117.77 322.25 118.32
  L 322.20 125.99
  Q 322.20 126.55 321.68 126.75
  Q 320.97 127.03 320.20 126.81
  Q 319.65 126.66 319.52 126.10
  C 317.34 116.83 311.44 110.79 301.07 111.83
  Q 290.54 112.88 289.61 124.75
  Q 288.79 135.32 289.27 149.52
  C 289.59 159.11 292.72 166.76 303.69 166.52
  C 313.90 166.29 313.17 156.66 313.38 149.39
  Q 313.39 148.79 312.79 148.78
  Z"
/>
<path fill="#ffffff" d="
  M 174.00 165.72
  L 179.32 165.72
  Q 179.87 165.72 180.09 166.23
  Q 180.21 166.50 180.19 166.79
  Q 180.13 167.90 179.02 167.91
  L 163.04 168.04
  Q 162.49 168.04 162.31 167.52
  L 156.82 151.28
  A 0.75 0.75 0.0 0 0 156.11 150.77
  L 138.94 150.77
  Q 138.37 150.77 138.19 151.30
  L 133.01 166.31
  Q 132.55 167.64 131.20 168.03
  L 130.76 168.16
  Q 129.41 168.55 129.87 167.22
  L 149.61 110.95
  A 2.15 2.14 8.4 0 1 151.55 109.52
  Q 152.94 109.47 153.45 110.89
  Q 164.77 142.38 172.85 164.91
  Q 173.14 165.72 174.00 165.72
  Z
  M 139.38 147.79
  A 0.53 0.53 0.0 0 0 139.88 148.49
  L 155.06 148.49
  A 0.53 0.53 0.0 0 0 155.56 147.79
  L 147.97 125.82
  A 0.53 0.53 0.0 0 0 146.97 125.82
  L 139.38 147.79
  Z"
/>
<path fill="#ffffff" d="
  M 354.57 150.77
  L 337.95 150.77
  A 1.53 1.52 -80.6 0 0 336.51 151.81
  L 331.61 166.27
  A 2.71 2.69 1.2 0 1 329.78 168.01
  L 329.25 168.15
  Q 327.99 168.51 328.42 167.28
  Q 338.07 139.66 347.89 111.73
  C 348.17 110.92 348.59 109.85 349.55 109.68
  Q 351.43 109.33 352.09 111.15
  Q 360.96 135.71 371.30 164.70
  A 1.58 1.58 0.0 0 0 372.80 165.74
  L 377.51 165.66
  Q 378.41 165.65 378.51 166.55
  Q 378.52 166.70 378.53 166.86
  Q 378.55 167.93 377.49 167.94
  L 361.56 168.02
  Q 361.04 168.03 360.87 167.53
  L 355.37 151.34
  Q 355.17 150.77 354.57 150.77
  Z
  M 337.91 147.85
  A 0.48 0.48 0.0 0 0 338.36 148.49
  L 353.68 148.49
  A 0.48 0.48 0.0 0 0 354.13 147.85
  L 346.47 125.69
  A 0.48 0.48 0.0 0 0 345.57 125.69
  L 337.91 147.85
  Z"
/>
<path fill="#e3d9d3" d="
  M 92.96 110.78
  Q 92.87 111.32 93.09 111.75
  Q 93.27 112.09 93.81 112.28
  Q 99.52 114.28 105.64 116.34
  Q 106.63 118.34 105.96 121.00
  Q 105.53 122.70 105.82 123.95
  L 103.43 134.28
  Q 103.34 134.74 103.07 134.95
  Q 102.84 135.13 102.40 134.99
  Q 95.83 132.90 89.23 130.77
  A 1.19 1.19 0.0 0 0 87.77 131.46
  L 83.45 142.07
  Q 84.88 136.68 86.87 131.50
  Q 87.04 131.04 86.71 129.79
  Q 87.11 129.90 87.46 129.88
  Q 87.99 129.84 88.13 129.32
  L 92.60 111.95
  Q 92.23 111.33 92.96 110.78
  Z"
/>
<path fill="#ffffff" d="
  M 208.05 148.51
  Q 208.60 148.69 208.77 148.14
  L 219.81 112.04
  Q 220.13 111.00 221.21 111.00
  L 233.00 110.99
  A 0.51 0.51 0.0 0 1 233.51 111.50
  L 233.52 165.00
  A 0.74 0.73 90.0 0 0 234.25 165.74
  L 241.12 165.68
  Q 242.07 165.67 241.99 166.62
  L 241.96 167.02
  A 0.98 0.98 0.0 0 1 240.98 167.92
  L 222.75 168.04
  Q 222.20 168.04 222.20 167.50
  L 222.36 114.62
  A 0.28 0.28 0.0 0 0 221.81 114.53
  Q 214.41 138.40 206.61 163.80
  C 206.03 165.68 205.87 167.60 203.73 168.20
  A 1.50 1.49 -16.1 0 1 201.91 167.20
  L 185.97 114.38
  Q 185.77 113.72 185.53 114.37
  Q 185.38 114.78 185.38 115.21
  Q 185.20 141.33 185.31 166.66
  Q 185.32 168.04 183.93 168.03
  L 183.48 168.02
  Q 182.69 168.02 182.69 167.23
  L 182.72 114.28
  A 0.92 0.92 0.0 0 0 181.78 113.36
  L 174.58 113.52
  Q 173.83 113.54 174.03 112.82
  L 174.36 111.64
  Q 174.54 110.98 175.22 110.98
  L 195.77 110.99
  A 0.82 0.82 0.0 0 1 196.56 111.58
  Q 201.80 129.10 207.49 147.75
  Q 207.69 148.40 208.05 148.51
  Z"
/>
<path fill="#ffffff" d="
  M 252.47 165.10
  L 252.48 111.76
  A 0.76 0.76 0.0 0 1 253.24 111.00
  L 271.34 110.99
  A 0.89 0.89 0.0 0 1 272.23 111.83
  L 272.26 112.26
  A 1.13 1.13 0.0 0 1 271.12 113.46
  L 264.40 113.45
  A 0.65 0.65 0.0 0 0 263.75 114.10
  L 263.75 164.86
  A 0.86 0.86 0.0 0 0 264.61 165.72
  L 271.24 165.71
  A 1.03 1.02 -9.6 0 1 272.21 166.39
  Q 272.30 166.63 272.27 166.87
  Q 272.12 168.00 270.98 167.99
  L 245.12 167.98
  Q 244.27 167.98 244.35 167.12
  L 244.39 166.61
  A 1.01 1.00 -87.2 0 1 245.39 165.70
  L 251.91 165.66
  A 0.56 0.56 0.0 0 0 252.47 165.10
  Z"
/>
<path fill="#fe2924" d="
  M 36.13 113.34
  L 40.74 115.06
  Q 40.96 115.71 41.07 115.52
  Q 37.68 125.67 39.80 134.40
  Q 39.62 134.44 39.50 136.24
  Q 38.25 131.59 34.57 133.40
  Q 34.17 129.00 34.25 123.75
  Q 34.33 118.20 36.13 113.34
  Z"
/>
<path fill="#0c0101" fill-opacity="0.141" d="
  M 436.95 114.69
  L 437.42 150.19
  A 0.91 0.91 0.0 0 0 438.34 151.09
  Q 452.31 150.94 470.01 151.00
  C 474.84 151.02 478.45 148.63 480.78 144.37
  Q 479.07 150.30 474.16 153.65
  Q 473.73 153.94 473.21 153.98
  Q 472.32 154.06 471.69 154.61
  Q 471.28 154.96 470.74 154.97
  Q 454.83 155.28 438.51 155.07
  Q 434.82 155.03 433.22 152.22
  C 432.25 150.52 432.93 148.79 431.77 147.08
  Q 431.53 146.72 431.74 146.34
  Q 432.48 145.03 432.39 143.57
  Q 432.35 143.05 432.62 142.61
  Q 432.93 142.07 432.99 141.47
  Q 433.23 138.81 433.16 135.78
  C 433.14 135.04 432.87 134.77 432.61 134.13
  Q 432.47 133.78 432.49 133.38
  Q 432.65 130.18 433.12 127.00
  Q 433.19 126.48 432.95 126.02
  Q 432.85 125.82 432.66 125.69
  A 0.57 0.57 0.0 0 1 432.41 125.22
  L 432.45 118.03
  Q 432.45 117.22 433.17 117.61
  Q 433.75 117.93 434.41 117.86
  Q 435.19 117.79 434.50 117.43
  Q 433.59 116.95 432.73 116.97
  Q 432.18 116.98 432.18 117.53
  L 432.19 124.24
  Q 432.19 124.67 431.91 125.00
  Q 431.72 125.23 431.67 125.50
  Q 431.59 125.97 431.92 126.31
  Q 432.42 126.80 432.58 127.52
  Q 432.68 128.00 432.55 128.45
  Q 431.87 130.70 432.23 133.26
  Q 432.31 133.82 431.80 134.05
  L 430.48 134.67
  Q 429.72 134.71 430.19 135.01
  Q 430.16 134.25 431.06 133.92
  A 0.42 0.42 0.0 0 0 431.30 133.36
  Q 430.35 131.22 431.16 129.25
  Q 432.13 126.88 429.65 127.51
  Q 424.00 128.96 418.63 127.22
  Q 417.79 126.95 416.90 127.11
  A 0.99 0.98 -25.9 0 1 416.01 126.81
  Q 413.37 123.91 410.26 123.60
  Q 404.78 123.03 398.07 124.12
  Q 397.58 120.86 399.92 119.49
  Q 401.40 118.64 403.27 118.67
  Q 409.15 118.78 415.35 118.72
  C 418.26 118.70 420.02 120.81 419.94 123.69
  Q 419.91 124.59 420.81 124.58
  L 429.74 124.48
  Q 430.31 124.48 430.32 123.90
  L 430.39 117.94
  Q 431.59 120.04 431.21 123.80
  Q 431.19 124.07 431.46 124.11
  Q 431.59 124.13 431.71 124.07
  Q 431.87 123.99 431.87 123.80
  L 431.87 117.31
  Q 431.87 116.90 431.47 116.86
  Q 431.31 116.85 431.18 116.74
  Q 431.06 116.64 431.18 116.55
  Q 432.38 115.62 433.27 116.41
  A 1.24 1.24 0.0 0 0 435.22 116.03
  Q 435.63 115.19 436.95 114.69
  Z"
/>
<path fill="#7e1512" d="
  M 118.58 139.48
  Q 115.71 149.44 108.53 156.67
  Q 106.69 155.79 104.60 155.60
  Q 103.95 155.55 103.48 155.99
  Q 101.55 157.82 99.51 159.67
  Q 96.12 162.73 91.08 165.37
  A 1.15 1.14 -53.8 0 0 91.41 167.51
  Q 91.58 167.53 91.76 167.55
  Q 87.64 169.15 85.00 169.52
  Q 71.37 171.44 60.35 166.66
  Q 53.91 161.18 51.18 154.52
  A 0.46 0.46 0.0 0 1 51.75 153.91
  L 60.10 156.75
  C 60.66 159.67 60.36 162.26 61.72 165.23
  C 63.16 168.34 66.58 168.11 68.80 166.03
  Q 71.11 163.86 73.20 161.41
  Q 73.59 160.96 72.72 160.84
  Q 73.50 160.45 73.64 160.88
  L 82.41 162.99
  Q 82.93 163.11 83.38 162.83
  C 84.41 162.18 85.46 161.83 86.39 160.99
  Q 90.63 157.16 94.19 152.68
  Q 94.60 152.17 93.74 151.77
  Q 95.16 151.57 95.31 151.27
  Q 97.70 153.57 103.38 154.64
  Q 104.01 154.75 104.43 154.28
  Q 110.10 148.05 113.03 139.29
  A 0.89 0.88 -72.1 0 0 112.46 138.17
  L 104.03 135.45
  Q 103.19 135.20 103.43 134.28
  L 105.82 123.95
  Q 106.44 120.20 106.11 118.22
  Q 105.74 116.07 107.73 116.96
  Q 110.63 118.26 113.95 119.05
  Q 115.48 119.41 115.56 120.99
  Q 115.98 129.66 113.58 137.56
  A 0.91 0.90 21.6 0 0 114.05 138.64
  Q 115.91 139.54 118.58 139.48
  Z
  M 81.63 165.37
  Q 77.29 167.62 72.83 168.28
  Q 72.42 168.34 72.48 168.76
  L 72.52 169.01
  Q 72.53 169.07 72.59 169.07
  Q 74.74 168.79 77.02 168.90
  A 1.90 1.90 0.0 0 0 77.97 168.71
  C 79.76 167.86 81.47 168.30 83.35 167.83
  Q 85.12 167.39 86.87 167.03
  Q 89.09 166.58 87.01 165.69
  Q 85.09 164.86 82.34 164.71
  Q 82.20 164.70 82.13 164.84
  Q 82.06 164.96 81.98 165.07
  Q 81.84 165.26 81.63 165.37
  Z"
/>
<path fill="#0c0101" fill-opacity="0.141" d="
  M 553.89 116.80
  Q 553.42 118.23 552.57 119.20
  Q 552.18 119.64 552.29 120.23
  Q 552.43 120.94 552.30 121.61
  Q 552.15 122.36 552.89 122.57
  L 555.18 123.22
  L 532.16 123.12
  Q 530.67 123.11 531.11 121.69
  Q 531.23 121.33 531.50 121.07
  Q 532.91 119.75 534.19 119.75
  Q 541.64 119.71 548.88 119.67
  Q 551.37 119.66 553.89 116.80
  Z"
/>
<path fill="#0c0101" fill-opacity="0.141" d="
  M 449.28 141.19
  L 463.94 140.60
  Q 464.41 140.58 464.63 140.16
  Q 465.03 139.42 465.80 138.91
  A 1.20 1.19 -14.3 0 0 466.31 138.06
  Q 466.97 131.73 466.52 126.61
  Q 466.18 122.62 462.35 121.97
  C 458.39 121.30 453.96 121.62 449.96 121.63
  Q 449.50 121.63 449.23 121.24
  Q 448.63 120.39 447.68 120.26
  L 447.75 118.39
  Q 447.77 117.89 448.26 117.88
  Q 456.73 117.71 465.27 117.72
  C 469.45 117.73 471.63 120.67 471.58 124.60
  Q 471.49 130.69 471.48 135.65
  C 471.47 140.05 468.28 141.49 464.32 141.63
  Q 456.92 141.88 449.28 141.19
  Z"
/>
<path fill="#fd766f" d="
  M 62.44 139.74
  Q 62.32 140.51 62.01 140.91
  Q 61.69 141.32 61.19 141.15
  Q 55.46 139.15 49.71 137.31
  Q 48.76 137.00 48.27 137.69
  Q 47.92 137.24 47.11 136.77
  Q 47.30 136.63 47.75 136.61
  Q 48.31 136.60 48.32 136.04
  Q 48.43 128.74 51.25 121.30
  Q 51.41 120.88 51.83 120.74
  Q 52.51 120.52 53.31 120.84
  Q 53.76 121.03 53.99 121.46
  Q 54.49 122.43 55.60 122.81
  Q 59.90 124.27 63.36 124.23
  A 1.93 1.93 0.0 0 1 65.32 126.21
  C 65.24 129.51 64.00 132.77 63.42 135.51
  Q 62.96 137.66 62.44 139.74
  Z"
/>
<path fill="#ee0403" d="
  M 103.43 134.28
  Q 103.19 135.20 104.03 135.45
  Q 103.54 135.29 103.19 135.41
  Q 102.91 135.52 102.76 136.00
  Q 100.33 143.39 95.31 151.27
  Q 95.16 151.57 93.74 151.77
  L 82.12 147.82
  Q 81.64 147.66 81.60 147.16
  L 81.56 146.53
  L 83.45 142.07
  L 87.77 131.46
  A 1.19 1.19 0.0 0 1 89.23 130.77
  Q 95.83 132.90 102.40 134.99
  Q 102.84 135.13 103.07 134.95
  Q 103.34 134.74 103.43 134.28
  Z"
/>
<path fill="#e3d9d3" d="
  M 39.50 136.24
  Q 40.31 143.80 43.98 150.72
  Q 43.83 151.25 42.92 151.38
  L 41.11 150.32
  L 38.36 145.63
  Q 35.59 140.20 34.57 133.40
  Q 38.25 131.59 39.50 136.24
  Z"
/>
<path fill="#ee0403" d="
  M 39.80 134.40
  L 47.11 136.77
  Q 47.92 137.24 48.27 137.69
  Q 48.24 145.59 50.76 153.21
  A 0.33 0.33 0.0 0 1 50.33 153.63
  L 45.54 151.86
  Q 44.23 151.54 43.98 150.72
  Q 40.31 143.80 39.50 136.24
  Q 39.62 134.44 39.80 134.40
  Z"
/>
<path fill="#aba5a1" d="
  M 104.03 135.45
  L 112.46 138.17
  A 0.89 0.88 -72.1 0 1 113.03 139.29
  Q 110.10 148.05 104.43 154.28
  Q 104.01 154.75 103.38 154.64
  Q 97.70 153.57 95.31 151.27
  Q 100.33 143.39 102.76 136.00
  Q 102.91 135.52 103.19 135.41
  Q 103.54 135.29 104.03 135.45
  Z"
/>
<path fill="#0c0101" fill-opacity="0.141" d="
  M 420.72 135.66
  Q 421.44 140.76 417.48 141.45
  Q 412.73 142.28 399.22 141.00
  L 412.94 140.63
  A 3.01 3.01 0.0 0 0 415.49 139.07
  Q 416.75 136.78 420.72 135.66
  Z"
/>
<path fill="#e3d9d3" d="
  M 62.44 139.74
  Q 62.57 140.86 62.99 141.01
  Q 63.96 141.37 64.83 141.92
  Q 65.25 142.19 65.74 142.17
  Q 67.91 142.06 67.61 143.32
  L 63.36 141.97
  A 1.03 1.03 0.0 0 0 62.04 142.71
  Q 60.47 149.36 60.34 156.45
  Q 60.38 156.81 60.10 156.75
  L 51.75 153.91
  A 0.46 0.46 0.0 0 0 51.18 154.52
  Q 53.91 161.18 60.35 166.66
  L 56.83 164.95
  Q 56.23 164.29 55.61 164.04
  Q 49.67 158.70 45.12 152.49
  Q 45.07 151.97 45.54 151.86
  L 50.33 153.63
  A 0.33 0.33 0.0 0 0 50.76 153.21
  Q 48.24 145.59 48.27 137.69
  Q 48.76 137.00 49.71 137.31
  Q 55.46 139.15 61.19 141.15
  Q 61.69 141.32 62.01 140.91
  Q 62.32 140.51 62.44 139.74
  Z"
/>
<path fill="#ee0403" d="
  M 67.61 143.32
  L 79.89 147.12
  Q 81.23 148.06 80.22 149.96
  Q 77.29 155.44 73.64 160.88
  Q 73.50 160.45 72.72 160.84
  L 60.68 156.79
  Q 60.57 156.75 60.49 156.65
  Q 60.42 156.55 60.34 156.45
  Q 60.47 149.36 62.04 142.71
  A 1.03 1.03 0.0 0 1 63.36 141.97
  L 67.61 143.32
  Z"
/>
<path fill="#0c0101" fill-opacity="0.141" d="
  M 38.36 145.63
  L 41.11 150.32
  Q 46.69 158.92 55.61 164.04
  Q 56.23 164.29 56.83 164.95
  Q 55.67 165.32 54.96 164.75
  Q 54.52 164.40 53.96 164.32
  Q 51.10 163.93 49.20 162.25
  Q 48.52 161.64 47.75 161.25
  Q 46.97 160.84 46.32 160.28
  Q 43.54 157.89 41.44 155.22
  Q 41.11 154.81 41.12 154.27
  Q 41.16 152.70 40.19 151.44
  Q 39.78 150.91 39.86 150.24
  Q 39.92 149.74 39.51 149.53
  Q 39.07 149.32 38.92 148.85
  L 38.57 147.75
  Q 38.48 147.45 38.20 147.29
  Q 37.68 146.98 37.77 146.19
  A 0.62 0.57 81.0 0 1 38.08 145.73
  Q 38.19 145.67 38.36 145.63
  Z"
/>
<path fill="#edd1d6" d="
  M 81.56 146.53
  L 81.60 147.16
  Q 81.64 147.66 82.12 147.82
  L 93.74 151.77
  Q 94.60 152.17 94.19 152.68
  Q 90.63 157.16 86.39 160.99
  C 85.46 161.83 84.41 162.18 83.38 162.83
  Q 82.93 163.11 82.41 162.99
  L 73.64 160.88
  Q 77.29 155.44 80.22 149.96
  Q 81.23 148.06 79.89 147.12
  L 81.56 146.53
  Z"
/>
<path fill="#7e1512" d="
  M 41.11 150.32
  L 42.92 151.38
  L 45.12 152.49
  Q 49.67 158.70 55.61 164.04
  Q 46.69 158.92 41.11 150.32
  Z"
/>
<path fill="#fe2924" d="
  M 43.98 150.72
  Q 44.23 151.54 45.54 151.86
  Q 45.07 151.97 45.12 152.49
  L 42.92 151.38
  Q 43.83 151.25 43.98 150.72
  Z"
/>
<path fill="#aba5a1" d="
  M 108.53 156.67
  Q 101.16 164.04 91.76 167.55
  Q 91.58 167.53 91.41 167.51
  A 1.15 1.14 -53.8 0 1 91.08 165.37
  Q 96.12 162.73 99.51 159.67
  Q 101.55 157.82 103.48 155.99
  Q 103.95 155.55 104.60 155.60
  Q 106.69 155.79 108.53 156.67
  Z"
/>
<path fill="#aba5a1" d="
  M 60.34 156.45
  Q 60.42 156.55 60.49 156.65
  Q 60.57 156.75 60.68 156.79
  L 72.72 160.84
  Q 73.59 160.96 73.20 161.41
  Q 71.11 163.86 68.80 166.03
  C 66.58 168.11 63.16 168.34 61.72 165.23
  C 60.36 162.26 60.66 159.67 60.10 156.75
  Q 60.38 156.81 60.34 156.45
  Z"
/>
<path fill="#aba5a1" d="
  M 81.98 165.07
  Q 82.06 164.96 82.13 164.84
  Q 82.20 164.70 82.34 164.71
  Q 85.09 164.86 87.01 165.69
  Q 89.09 166.58 86.87 167.03
  Q 85.12 167.39 83.35 167.83
  C 81.47 168.30 79.76 167.86 77.97 168.71
  A 1.90 1.90 0.0 0 1 77.02 168.90
  Q 74.74 168.79 72.59 169.07
  Q 72.53 169.07 72.52 169.01
  L 72.48 168.76
  Q 72.42 168.34 72.83 168.28
  Q 77.29 167.62 81.63 165.37
  Q 81.84 165.26 81.98 165.07
  Z"
/>
</svg>
