<?xml version="1.0" encoding="UTF-8" standalone="no"?>
<!DOCTYPE svg PUBLIC "-//W3C//DTD SVG 1.1//EN" "http://www.w3.org/Graphics/SVG/1.1/DTD/svg11.dtd">
<svg xmlns="http://www.w3.org/2000/svg" version="1.1" viewBox="0.00 0.00 590.00 255.00">
<g stroke-width="2.00" fill="none" stroke-linecap="butt">
<path stroke="#ff8080" vector-effect="non-scaling-stroke" d="
  M 155.76 61.23
  Q 147.70 62.41 140.97 64.76
  A 0.58 0.58 0.0 0 0 140.89 65.82
  Q 142.70 66.76 144.90 67.07
  Q 146.65 67.32 148.29 66.43
  Q 155.95 62.28 163.97 63.18
  Q 165.26 63.33 164.12 63.95
  Q 161.65 65.32 159.62 67.61"
/>
<path stroke="#feb6b1" vector-effect="non-scaling-stroke" d="
  M 159.62 67.61
  Q 158.34 68.42 157.56 69.42
  Q 156.45 70.83 154.74 70.29
  L 147.24 67.94
  Q 146.64 67.75 146.10 68.07
  Q 140.96 71.11 137.98 75.85
  Q 137.91 75.96 137.80 76.00
  Q 137.63 76.06 137.70 75.66
  A 0.04 0.04 0.0 0 0 137.63 75.62
  L 137.08 76.06"
/>
<path stroke="#ffe0da" vector-effect="non-scaling-stroke" d="
  M 137.08 76.06
  Q 135.38 77.35 134.99 79.46
  Q 134.92 79.85 134.59 80.05
  Q 134.30 80.22 134.19 80.55
  A 0.57 0.57 0.0 0 0 134.55 81.26
  L 140.42 83.19
  Q 140.64 83.26 140.56 83.48
  L 140.46 83.76
  A 0.07 0.06 -65.3 0 1 140.37 83.80
  Q 138.57 82.93 136.54 82.61
  Q 134.43 82.28 132.76 83.79
  Q 129.44 86.81 128.33 91.43
  Q 128.14 92.23 127.80 93.03
  Q 127.42 93.91 127.65 94.84
  A 0.74 0.73 67.2 0 1 127.33 95.63
  Q 126.44 96.21 126.15 97.34
  A 1.00 0.99 79.6 0 1 125.77 97.90
  Q 125.01 98.45 125.41 99.47
  Q 125.49 99.68 125.72 99.72
  Q 126.08 99.77 126.07 99.40
  Q 126.03 98.38 127.08 97.86
  Q 127.45 97.67 127.61 97.29
  Q 128.26 95.79 128.32 94.42
  C 128.41 92.71 129.10 91.14 129.40 89.46
  Q 129.48 88.99 129.81 88.61
  Q 130.15 88.22 130.54 87.86
  Q 130.88 87.54 130.94 87.08
  Q 131.01 86.50 131.60 86.24
  Q 131.72 86.19 131.79 86.29
  Q 131.87 86.41 131.85 86.53
  Q 131.74 87.14 132.12 86.66
  Q 132.90 85.69 133.99 85.13
  Q 135.22 84.50 135.93 83.45
  Q 136.23 82.99 136.77 83.10
  Q 139.52 83.66 142.08 83.90
  C 143.56 84.04 145.41 84.66 146.65 85.47
  Q 148.38 86.59 147.10 88.51
  Q 145.78 90.48 145.32 92.47
  Q 144.71 95.11 143.35 97.39
  Q 142.55 98.75 142.18 100.50
  Q 141.75 102.51 141.36 104.50
  Q 141.18 105.37 140.22 105.22"
/>
<path stroke="#feb6b1" vector-effect="non-scaling-stroke" d="
  M 140.22 105.22
  L 131.17 103.31
  A 1.00 0.94 -20.2 0 1 130.84 103.17
  Q 129.58 102.38 128.27 102.58
  Q 127.75 102.66 127.26 102.47
  L 124.52 101.40"
/>
<path stroke="#ffe0da" vector-effect="non-scaling-stroke" d="
  M 124.52 101.40
  Q 124.96 101.23 125.44 101.24
  Q 125.86 101.25 126.17 101.54
  Q 126.52 101.89 127.07 101.97
  Q 127.79 102.09 127.25 101.59
  Q 126.16 100.61 124.72 100.25
  Q 124.22 100.12 123.95 100.56
  Q 123.25 101.69 123.18 103.08"
/>
<path stroke="#feb6b1" vector-effect="non-scaling-stroke" d="
  M 123.18 103.08
  Q 123.26 103.20 123.35 103.31"
/>
<path stroke="#ffe0da" vector-effect="non-scaling-stroke" d="
  M 123.35 103.31
  Q 122.05 103.99 122.41 106.12"
/>
<path stroke="#feb6b1" vector-effect="non-scaling-stroke" d="
  M 122.41 106.12
  Q 120.81 112.15 120.39 119.69
  Q 120.34 120.51 119.70 120.50"
/>
<path stroke="#ff8080" vector-effect="non-scaling-stroke" d="
  M 119.70 120.50
  L 112.03 118.10"
/>
<path stroke="#feb6b1" vector-effect="non-scaling-stroke" d="
  M 112.03 118.10
  Q 112.15 117.47 110.95 117.42"
/>
<path stroke="#ffe0da" vector-effect="non-scaling-stroke" d="
  M 110.95 117.42
  L 110.07 116.46"
/>
<path stroke="#ff8080" vector-effect="non-scaling-stroke" d="
  M 110.07 116.46
  L 109.80 111.22"
/>
<path stroke="#feb6b1" vector-effect="non-scaling-stroke" d="
  M 109.80 111.22
  Q 110.37 104.65 111.95 98.26
  Q 112.47 96.12 115.74 97.09"
/>
<path stroke="#ffe0da" vector-effect="non-scaling-stroke" d="
  M 115.74 97.09
  L 122.00 99.42
  A 1.80 1.80 0.0 0 0 124.27 98.47
  Q 125.69 95.30 126.32 91.56
  Q 126.75 89.01 128.09 87.22
  Q 129.35 85.51 130.45 83.62
  Q 130.74 83.12 131.27 82.86
  Q 131.97 82.52 131.89 81.66
  Q 131.82 80.87 131.39 81.53
  L 130.83 82.35
  Q 130.81 82.39 130.77 82.39
  Q 130.64 82.37 130.52 82.39
  Q 129.78 82.49 130.42 82.10
  Q 130.63 81.97 130.71 81.76
  Q 130.88 81.29 130.48 80.99
  L 129.25 80.05"
/>
<path stroke="#feb6b1" vector-effect="non-scaling-stroke" d="
  M 129.25 80.05
  Q 128.71 79.15 127.75 78.88
  Q 126.12 78.43 124.60 77.88
  A 0.72 0.71 -64.7 0 1 124.23 76.83
  Q 126.04 73.87 128.59 72.15
  Q 129.95 71.23 131.26 70.07
  Q 132.50 68.96 133.95 68.17
  Q 136.25 66.94 138.62 65.94
  A 0.35 0.35 0.0 0 0 138.73 65.36
  Q 137.45 64.18 139.71 62.93"
/>
<path stroke="#fe3732" vector-effect="non-scaling-stroke" d="
  M 120.30 121.19
  Q 120.15 120.89 119.70 120.50"
/>
<path stroke="#fd978c" vector-effect="non-scaling-stroke" d="
  M 122.41 106.12
  Q 122.98 104.74 124.77 105.38
  Q 125.70 105.70 125.00 105.01
  Q 124.51 104.51 123.79 104.35
  Q 123.25 104.22 123.60 103.80
  Q 124.10 103.20 124.69 103.51
  Q 125.09 103.72 125.23 103.29
  Q 125.38 102.85 125.29 102.51
  Q 125.13 101.93 124.59 102.18
  Q 123.93 102.49 123.35 103.31"
/>
<path stroke="#ff605a" vector-effect="non-scaling-stroke" d="
  M 110.07 116.46
  Q 108.06 116.63 105.07 115.38"
/>
<path stroke="#fd978c" vector-effect="non-scaling-stroke" d="
  M 129.25 80.05
  L 124.59 78.26
  Q 123.88 77.98 124.38 78.56
  Q 124.75 78.98 125.31 79.11
  A 0.74 0.73 -59.0 0 1 125.62 80.37
  Q 124.32 81.56 123.11 82.68
  Q 121.65 84.01 121.24 85.94
  Q 120.18 90.88 121.19 96.25
  Q 121.26 96.59 120.96 96.77
  Q 119.90 97.42 118.50 97.44
  Q 118.00 97.44 117.57 97.19
  Q 116.69 96.66 115.74 97.09"
/>
<path stroke="#fe3732" vector-effect="non-scaling-stroke" d="
  M 109.80 111.22
  Q 109.55 107.19 109.66 103.14
  Q 109.66 103.12 109.65 103.11
  Q 109.65 103.09 109.64 103.10
  Q 109.62 103.12 109.62 103.14
  Q 109.63 107.40 109.63 111.80
  Q 109.63 111.97 109.47 112.01
  L 109.10 112.10
  Q 108.70 112.20 108.68 111.79
  Q 108.55 109.53 108.62 107.16
  Q 108.65 106.11 107.62 106.18
  Q 107.10 106.22 106.98 105.72
  Q 106.88 105.36 106.84 105.00
  Q 106.75 104.16 107.11 104.92
  L 107.33 105.39
  Q 107.50 105.76 107.91 105.74
  Q 108.19 105.72 108.38 105.92
  Q 108.83 106.40 108.62 105.78
  Q 108.47 105.32 108.07 105.06
  A 2.48 2.29 -67.2 0 1 107.13 102.48
  Q 107.31 101.76 107.10 101.13
  Q 106.70 99.96 106.34 101.14
  Q 106.14 101.78 105.89 102.37
  Q 105.34 103.66 105.50 102.27
  L 106.05 97.73"
/>
<path stroke="#feb6b1" vector-effect="non-scaling-stroke" d="
  M 107.15 93.91
  Q 109.31 95.59 112.19 95.68
  Q 112.75 95.70 112.93 95.17
  Q 115.91 86.40 122.52 78.43
  A 0.50 0.50 0.0 0 0 122.31 77.64
  L 117.96 76.00"
/>
<path stroke="#feb6b1" vector-effect="non-scaling-stroke" d="
  M 158.22 71.48
  Q 156.62 71.16 155.65 72.89
  Q 152.46 78.57 148.72 85.09"
/>
<path stroke="#fd978c" vector-effect="non-scaling-stroke" d="
  M 148.72 85.09
  Q 146.06 84.95 143.92 83.63
  Q 143.53 83.39 143.06 83.37
  C 141.39 83.32 141.11 81.64 139.15 81.83
  Q 138.59 81.88 138.11 81.60
  Q 137.10 81.00 135.95 80.93
  Q 135.21 80.88 135.48 80.19
  L 137.08 76.06"
/>
<path stroke="#fd978c" vector-effect="non-scaling-stroke" d="
  M 155.66 88.48
  L 152.94 88.68
  Q 152.33 88.72 152.33 89.33
  Q 152.32 90.26 152.67 91.10
  A 2.49 2.44 33.8 0 1 152.85 91.97
  C 152.90 93.36 153.05 94.95 152.47 96.25
  Q 151.18 99.15 149.65 101.92
  Q 149.55 102.12 149.39 102.27
  Q 147.25 104.39 146.15 107.06"
/>
<path stroke="#fd978c" vector-effect="non-scaling-stroke" d="
  M 140.26 106.29
  Q 139.98 105.84 140.22 105.22"
/>
<path stroke="#fe3732" vector-effect="non-scaling-stroke" d="
  M 112.03 118.10
  Q 110.41 117.77 110.48 118.81"
/>
<path stroke="#fd978c" vector-effect="non-scaling-stroke" d="
  M 110.95 117.42
  L 110.60 117.43
  Q 110.20 117.44 110.13 117.83
  Q 110.04 118.33 110.48 118.81"
/>
<path stroke="#ff605a" vector-effect="non-scaling-stroke" d="
  M 110.48 118.81
  Q 111.41 127.41 115.32 135.29"
/>
<path stroke="#b66a63" vector-effect="non-scaling-stroke" d="
  M 114.44 136.13
  L 113.78 135.91
  Q 113.34 135.76 113.16 135.33
  Q 112.90 134.76 112.02 134.71"
/>
<path stroke="#fd978c" vector-effect="non-scaling-stroke" d="
  M 124.52 101.40
  Q 124.05 102.43 123.18 103.08"
/>
<path stroke="#ff605a" vector-effect="non-scaling-stroke" d="
  M 169.16 64.04
  L 171.35 70.05"
/>
<path stroke="#ff8080" vector-effect="non-scaling-stroke" d="
  M 171.35 70.05
  L 171.53 74.77
  A 0.64 0.64 0.0 0 1 170.70 75.40
  L 158.22 71.48"
/>
<path stroke="#fe3732" vector-effect="non-scaling-stroke" d="
  M 158.22 71.48
  Q 157.73 69.81 159.62 67.61"
/>
<path stroke="#ff8080" vector-effect="non-scaling-stroke" d="
  M 171.94 75.90
  L 169.93 92.38
  A 0.62 0.62 0.0 0 0 170.37 93.06
  L 184.19 97.22"
/>
<path stroke="#de8482" vector-effect="non-scaling-stroke" d="
  M 184.19 97.22
  Q 184.85 98.13 184.83 98.75
  Q 184.57 108.13 181.68 117.05"
/>
<path stroke="#ff8080" vector-effect="non-scaling-stroke" d="
  M 181.68 117.05
  L 181.46 118.01
  Q 181.35 118.53 180.84 118.36
  L 166.07 113.45
  Q 164.43 112.91 163.88 114.55
  Q 160.91 123.45 157.35 131.23
  A 1.39 1.38 21.1 0 1 155.66 131.97
  L 136.60 125.88
  Q 135.87 125.64 135.70 126.39
  Q 133.99 133.94 133.74 141.85"
/>
<path stroke="#de8482" vector-effect="non-scaling-stroke" d="
  M 133.05 142.30
  L 124.45 139.51
  Q 123.33 139.14 123.74 140.26
  Q 126.33 147.28 132.23 151.77
  Q 133.11 152.43 134.16 152.85
  Q 134.54 153.01 134.85 152.93
  Q 135.48 152.78 135.30 152.28"
/>
<path stroke="#b78a88" vector-effect="non-scaling-stroke" d="
  M 136.78 153.99
  Q 136.57 153.95 136.37 154.34"
/>
<path stroke="#b78a88" vector-effect="non-scaling-stroke" d="
  M 127.83 150.27
  L 121.96 144.59"
/>
<path stroke="#de8482" vector-effect="non-scaling-stroke" d="
  M 121.96 144.59
  L 114.88 135.99"
/>
<path stroke="#b78a88" vector-effect="non-scaling-stroke" d="
  M 114.88 135.99
  Q 114.66 136.06 114.44 136.13"
/>
<path stroke="#ffe0da" vector-effect="non-scaling-stroke" d="
  M 114.44 136.13
  Q 114.77 136.17 115.03 136.09
  Q 115.28 136.02 115.35 135.80
  Q 115.43 135.56 115.32 135.29"
/>
<path stroke="#ff8080" vector-effect="non-scaling-stroke" d="
  M 115.32 135.29
  L 116.09 136.44
  Q 116.38 136.86 116.87 137.03
  L 122.43 138.90
  Q 123.18 139.15 122.94 138.40
  Q 120.29 130.14 120.30 121.19"
/>
<path stroke="#feb6b1" vector-effect="non-scaling-stroke" d="
  M 120.30 121.19
  Q 121.02 120.79 121.76 121.02
  Q 128.16 123.02 135.06 125.31
  A 0.55 0.54 -73.9 0 0 135.76 124.92
  L 140.26 106.29"
/>
<path stroke="#ffe0da" vector-effect="non-scaling-stroke" d="
  M 140.26 106.29
  L 140.47 106.05
  Q 140.80 105.67 141.29 105.79
  L 146.15 107.06"
/>
<path stroke="#feb6b1" vector-effect="non-scaling-stroke" d="
  M 146.15 107.06
  L 164.03 112.76
  Q 164.70 112.97 164.88 112.29
  L 169.75 93.65
  Q 169.95 92.87 169.18 92.64
  L 155.66 88.48"
/>
<path stroke="#ffe0da" vector-effect="non-scaling-stroke" d="
  M 155.66 88.48
  Q 151.09 87.06 148.72 85.09"
/>
<path stroke="#950f0b" vector-effect="non-scaling-stroke" d="
  M 114.88 135.99
  L 113.11 136.38"
/>
<path stroke="#dd655d" vector-effect="non-scaling-stroke" d="
  M 172.69 65.49
  Q 174.42 67.64 176.40 69.36
  Q 179.16 71.76 181.51 77.97
  Q 181.71 78.51 181.16 78.63
  Q 180.88 78.69 180.44 78.61"
/>
<path stroke="#ff605a" vector-effect="non-scaling-stroke" d="
  M 180.44 78.61
  L 171.94 75.90"
/>
<path stroke="#ffe0da" vector-effect="non-scaling-stroke" d="
  M 171.94 75.90
  L 171.35 70.05"
/>
<path stroke="#de0503" vector-effect="non-scaling-stroke" d="
  M 165.54 135.02
  Q 165.13 134.36 164.60 134.11
  Q 164.41 134.02 164.45 133.82
  Q 164.47 133.71 164.61 133.60
  Q 165.34 133.07 164.44 133.12
  Q 161.28 133.28 162.92 134.17"
/>
<path stroke="#ff605a" vector-effect="non-scaling-stroke" d="
  M 162.70 134.36
  Q 160.16 133.15 157.45 132.91
  Q 156.92 132.86 156.67 133.33
  L 153.33 139.59"
/>
<path stroke="#de0503" vector-effect="non-scaling-stroke" d="
  M 153.33 139.28
  Q 151.28 140.14 149.30 140.78
  Q 147.80 141.27 145.12 141.25
  Q 140.68 141.23 137.38 143.57"
/>
<path stroke="#950f0b" vector-effect="non-scaling-stroke" d="
  M 121.96 144.59
  Q 121.92 145.25 122.62 146.00
  A 0.07 0.07 0.0 0 1 122.60 146.11
  Q 120.32 147.30 122.43 146.09
  Q 122.47 146.07 122.45 146.02
  Q 121.59 144.63 120.42 144.75"
/>
<path stroke="#b35959" vector-effect="non-scaling-stroke" d="
  M 192.14 81.75
  Q 191.45 82.14 190.71 81.91
  A 0.56 0.56 0.0 0 0 190.05 82.69
  Q 194.23 91.03 195.09 100.22
  A 1.48 1.48 0.0 0 0 196.08 101.48
  L 200.33 102.95"
/>
<path stroke="#8c5e5f" vector-effect="non-scaling-stroke" d="
  M 198.52 123.58
  Q 196.03 123.73 194.21 122.59
  A 1.22 1.21 25.0 0 0 192.41 123.24
  Q 189.35 132.44 182.85 140.02
  Q 182.52 140.40 182.03 140.28
  L 177.50 139.22"
/>
<path stroke="#b35959" vector-effect="non-scaling-stroke" d="
  M 177.50 139.22
  L 172.73 137.56
  Q 172.15 137.36 171.78 137.85
  C 168.25 142.45 164.76 146.61 159.90 149.90
  A 0.75 0.75 0.0 0 0 159.90 151.14
  Q 160.43 151.51 160.99 151.55"
/>
<path stroke="#8c5e5f" vector-effect="non-scaling-stroke" d="
  M 160.99 151.55
  L 164.28 152.32
  Q 166.43 152.82 164.35 153.57
  Q 156.74 156.31 148.18 156.99"
/>
<path stroke="#b35959" vector-effect="non-scaling-stroke" d="
  M 143.56 156.33
  Q 143.36 155.47 144.51 155.44
  Q 151.55 155.30 157.73 151.45
  A 0.67 0.67 0.0 0 0 157.58 150.24
  L 148.90 147.43
  Q 148.27 147.22 147.90 147.78
  Q 144.67 152.70 139.55 154.97"
/>
<path stroke="#8c5e5f" vector-effect="non-scaling-stroke" d="
  M 139.55 154.97
  L 136.78 153.99"
/>
<path stroke="#d5d4d6" vector-effect="non-scaling-stroke" d="
  M 136.78 153.99
  Q 135.92 153.29 135.30 152.28"
/>
<path stroke="#b35959" vector-effect="non-scaling-stroke" d="
  M 135.30 152.28
  Q 133.57 147.74 133.58 142.75
  Q 133.58 142.52 133.05 142.30"
/>
<path stroke="#d5d4d6" vector-effect="non-scaling-stroke" d="
  M 133.05 142.30
  Q 133.36 142.31 133.74 141.85"
/>
<path stroke="#d55456" vector-effect="non-scaling-stroke" d="
  M 133.74 141.85
  Q 134.30 143.10 137.38 143.57"
/>
<path stroke="#b35959" vector-effect="non-scaling-stroke" d="
  M 137.38 143.57
  L 146.74 146.72
  Q 148.50 147.31 149.46 145.72
  L 153.33 139.28"
/>
<path stroke="#d55456" vector-effect="non-scaling-stroke" d="
  M 153.33 139.28
  Q 153.33 139.43 153.33 139.59"
/>
<path stroke="#d4b4b0" vector-effect="non-scaling-stroke" d="
  M 153.33 139.59
  Q 154.30 140.28 155.36 138.50
  A 1.48 1.45 -78.3 0 1 156.40 137.80
  Q 158.18 137.52 159.86 136.59
  A 2.11 2.04 33.2 0 1 161.11 136.35
  Q 162.03 136.45 162.95 136.09
  Q 163.57 135.85 163.24 135.28
  L 162.70 134.36"
/>
<path stroke="#d55456" vector-effect="non-scaling-stroke" d="
  M 162.70 134.36
  Q 162.81 134.26 162.92 134.17"
/>
<path stroke="#b35959" vector-effect="non-scaling-stroke" d="
  M 162.92 134.17
  Q 164.03 134.79 165.54 135.02"
/>
<path stroke="#d55456" vector-effect="non-scaling-stroke" d="
  M 165.54 135.02
  L 171.05 136.90
  A 1.58 1.56 -64.7 0 0 172.89 136.23
  Q 177.60 128.57 180.66 120.39
  Q 181.16 119.04 182.04 118.45"
/>
<path stroke="#b35959" vector-effect="non-scaling-stroke" d="
  M 182.04 118.45
  L 192.03 121.92
  A 0.70 0.70 0.0 0 0 192.93 121.46
  Q 195.87 111.86 195.25 102.51
  A 1.99 1.98 7.6 0 0 193.91 100.77
  Q 190.04 99.45 185.99 98.42
  Q 184.92 98.15 184.79 96.54"
/>
<path stroke="#d55456" vector-effect="non-scaling-stroke" d="
  M 184.79 96.54
  Q 184.99 88.25 182.16 79.56"
/>
<path stroke="#de0503" vector-effect="non-scaling-stroke" d="
  M 182.04 118.45
  Q 181.46 117.75 181.68 117.05"
/>
<path stroke="#de0503" vector-effect="non-scaling-stroke" d="
  M 184.79 96.54
  Q 184.92 97.22 184.19 97.22"
/>
<path stroke="#b35959" vector-effect="non-scaling-stroke" d="
  M 179.87 69.56
  L 188.01 79.46
  Q 189.66 81.47 187.20 80.63
  Q 185.16 79.93 182.16 79.56"
/>
<path stroke="#de0503" vector-effect="non-scaling-stroke" d="
  M 182.16 79.56
  Q 181.72 79.52 180.44 78.61"
/>
<path stroke="#950f0b" vector-effect="non-scaling-stroke" d="
  M 139.24 155.28
  Q 139.60 155.35 139.55 154.97"
/>
<path stroke="#8c5e5f" vector-effect="non-scaling-stroke" d="
  M 186.98 142.82
  Q 185.70 141.06 183.00 141.05
  A 1.86 1.85 -67.8 0 0 181.63 141.63
  C 177.48 145.96 173.35 149.15 167.63 152.22
  Q 167.35 152.37 167.16 152.62
  Q 166.89 152.99 167.13 153.34
  Q 167.41 153.74 167.90 153.79
  Q 168.72 153.86 169.29 154.25"
/>
<path stroke="#950f0b" vector-effect="non-scaling-stroke" d="
  M 160.99 151.55
  Q 161.91 151.43 162.67 151.01
  Q 163.11 150.77 163.58 150.93
  Q 163.72 150.98 163.80 151.11
  Q 164.20 151.71 164.64 151.13
  Q 165.31 150.23 166.32 149.82
  Q 166.79 149.62 166.63 149.13
  Q 166.59 148.99 166.69 148.87
  Q 166.97 148.54 167.38 148.43
  Q 170.27 147.69 172.99 146.10
  Q 173.81 145.61 174.15 144.73
  A 1.42 1.39 85.9 0 1 174.77 144.00
  Q 176.71 142.88 177.73 141.49
  Q 178.60 140.32 177.50 139.22"
/>
<path stroke="#fe3732" vector-effect="non-scaling-stroke" d="
  M 108.32 102.69
  Q 109.00 103.87 109.02 105.38
  Q 109.02 106.02 109.13 105.39
  Q 109.43 103.69 108.52 102.25
  A 1.30 1.29 -53.6 0 1 108.37 101.22
  Q 108.98 99.00 108.05 96.63
  Q 107.95 96.38 107.66 96.27
  Q 107.09 96.06 107.39 96.59
  Q 108.62 98.82 108.09 101.45
  Q 107.96 102.07 108.32 102.69"
/>
</g>
<path fill="#ffffff" d="
  M 155.76 61.23
  Q 147.70 62.41 140.97 64.76
  A 0.58 0.58 0.0 0 0 140.89 65.82
  Q 142.70 66.76 144.90 67.07
  Q 146.65 67.32 148.29 66.43
  Q 155.95 62.28 163.97 63.18
  Q 165.26 63.33 164.12 63.95
  Q 161.65 65.32 159.62 67.61
  Q 158.34 68.42 157.56 69.42
  Q 156.45 70.83 154.74 70.29
  L 147.24 67.94
  Q 146.64 67.75 146.10 68.07
  Q 140.96 71.11 137.98 75.85
  Q 137.91 75.96 137.80 76.00
  Q 137.63 76.06 137.70 75.66
  A 0.04 0.04 0.0 0 0 137.63 75.62
  L 137.08 76.06
  Q 135.38 77.35 134.99 79.46
  Q 134.92 79.85 134.59 80.05
  Q 134.30 80.22 134.19 80.55
  A 0.57 0.57 0.0 0 0 134.55 81.26
  L 140.42 83.19
  Q 140.64 83.26 140.56 83.48
  L 140.46 83.76
  A 0.07 0.06 -65.3 0 1 140.37 83.80
  Q 138.57 82.93 136.54 82.61
  Q 134.43 82.28 132.76 83.79
  Q 129.44 86.81 128.33 91.43
  Q 128.14 92.23 127.80 93.03
  Q 127.42 93.91 127.65 94.84
  A 0.74 0.73 67.2 0 1 127.33 95.63
  Q 126.44 96.21 126.15 97.34
  A 1.00 0.99 79.6 0 1 125.77 97.90
  Q 125.01 98.45 125.41 99.47
  Q 125.49 99.68 125.72 99.72
  Q 126.08 99.77 126.07 99.40
  Q 126.03 98.38 127.08 97.86
  Q 127.45 97.67 127.61 97.29
  Q 128.26 95.79 128.32 94.42
  C 128.41 92.71 129.10 91.14 129.40 89.46
  Q 129.48 88.99 129.81 88.61
  Q 130.15 88.22 130.54 87.86
  Q 130.88 87.54 130.94 87.08
  Q 131.01 86.50 131.60 86.24
  Q 131.72 86.19 131.79 86.29
  Q 131.87 86.41 131.85 86.53
  Q 131.74 87.14 132.12 86.66
  Q 132.90 85.69 133.99 85.13
  Q 135.22 84.50 135.93 83.45
  Q 136.23 82.99 136.77 83.10
  Q 139.52 83.66 142.08 83.90
  C 143.56 84.04 145.41 84.66 146.65 85.47
  Q 148.38 86.59 147.10 88.51
  Q 145.78 90.48 145.32 92.47
  Q 144.71 95.11 143.35 97.39
  Q 142.55 98.75 142.18 100.50
  Q 141.75 102.51 141.36 104.50
  Q 141.18 105.37 140.22 105.22
  L 131.17 103.31
  A 1.00 0.94 -20.2 0 1 130.84 103.17
  Q 129.58 102.38 128.27 102.58
  Q 127.75 102.66 127.26 102.47
  L 124.52 101.40
  Q 124.96 101.23 125.44 101.24
  Q 125.86 101.25 126.17 101.54
  Q 126.52 101.89 127.07 101.97
  Q 127.79 102.09 127.25 101.59
  Q 126.16 100.61 124.72 100.25
  Q 124.22 100.12 123.95 100.56
  Q 123.25 101.69 123.18 103.08
  Q 123.26 103.20 123.35 103.31
  Q 122.05 103.99 122.41 106.12
  Q 120.81 112.15 120.39 119.69
  Q 120.34 120.51 119.70 120.50
  L 112.03 118.10
  Q 112.15 117.47 110.95 117.42
  L 110.07 116.46
  L 109.80 111.22
  Q 110.37 104.65 111.95 98.26
  Q 112.47 96.12 115.74 97.09
  L 122.00 99.42
  A 1.80 1.80 0.0 0 0 124.27 98.47
  Q 125.69 95.30 126.32 91.56
  Q 126.75 89.01 128.09 87.22
  Q 129.35 85.51 130.45 83.62
  Q 130.74 83.12 131.27 82.86
  Q 131.97 82.52 131.89 81.66
  Q 131.82 80.87 131.39 81.53
  L 130.83 82.35
  Q 130.81 82.39 130.77 82.39
  Q 130.64 82.37 130.52 82.39
  Q 129.78 82.49 130.42 82.10
  Q 130.63 81.97 130.71 81.76
  Q 130.88 81.29 130.48 80.99
  L 129.25 80.05
  Q 128.71 79.15 127.75 78.88
  Q 126.12 78.43 124.60 77.88
  A 0.72 0.71 -64.7 0 1 124.23 76.83
  Q 126.04 73.87 128.59 72.15
  Q 129.95 71.23 131.26 70.07
  Q 132.50 68.96 133.95 68.17
  Q 136.25 66.94 138.62 65.94
  A 0.35 0.35 0.0 0 0 138.73 65.36
  Q 137.45 64.18 139.71 62.93
  A 47.96 47.95 -51.0 0 1 155.76 61.23
  Z"
/>
<path fill="#ff0000" d="
  M 155.76 61.23
  A 48.13 47.76 -32.9 0 1 169.16 64.04
  L 171.35 70.05
  L 171.53 74.77
  A 0.64 0.64 0.0 0 1 170.70 75.40
  L 158.22 71.48
  Q 157.73 69.81 159.62 67.61
  Q 161.65 65.32 164.12 63.95
  Q 165.26 63.33 163.97 63.18
  Q 155.95 62.28 148.29 66.43
  Q 146.65 67.32 144.90 67.07
  Q 142.70 66.76 140.89 65.82
  A 0.58 0.58 0.0 0 1 140.97 64.76
  Q 147.70 62.41 155.76 61.23
  Z"
/>
<rect fill="#ff0000" x="-8.49" y="-8.42" transform="translate(355.98,72.82) rotate(-15.7)" width="16.98" height="16.84" rx="0.78"/>
<path fill="#fc6d63" d="
  M 139.71 62.93
  Q 137.45 64.18 138.73 65.36
  A 0.35 0.35 0.0 0 1 138.62 65.94
  Q 136.25 66.94 133.95 68.17
  Q 132.50 68.96 131.26 70.07
  Q 129.95 71.23 128.59 72.15
  Q 126.04 73.87 124.23 76.83
  A 0.72 0.71 -64.7 0 0 124.60 77.88
  Q 126.12 78.43 127.75 78.88
  Q 128.71 79.15 129.25 80.05
  L 124.59 78.26
  Q 123.88 77.98 124.38 78.56
  Q 124.75 78.98 125.31 79.11
  A 0.74 0.73 -59.0 0 1 125.62 80.37
  Q 124.32 81.56 123.11 82.68
  Q 121.65 84.01 121.24 85.94
  Q 120.18 90.88 121.19 96.25
  Q 121.26 96.59 120.96 96.77
  Q 119.90 97.42 118.50 97.44
  Q 118.00 97.44 117.57 97.19
  Q 116.69 96.66 115.74 97.09
  Q 112.47 96.12 111.95 98.26
  Q 110.37 104.65 109.80 111.22
  Q 109.55 107.19 109.66 103.14
  Q 109.66 103.12 109.65 103.11
  Q 109.65 103.09 109.64 103.10
  Q 109.62 103.12 109.62 103.14
  Q 109.63 107.40 109.63 111.80
  Q 109.63 111.97 109.47 112.01
  L 109.10 112.10
  Q 108.70 112.20 108.68 111.79
  Q 108.55 109.53 108.62 107.16
  Q 108.65 106.11 107.62 106.18
  Q 107.10 106.22 106.98 105.72
  Q 106.88 105.36 106.84 105.00
  Q 106.75 104.16 107.11 104.92
  L 107.33 105.39
  Q 107.50 105.76 107.91 105.74
  Q 108.19 105.72 108.38 105.92
  Q 108.83 106.40 108.62 105.78
  Q 108.47 105.32 108.07 105.06
  A 2.48 2.29 -67.2 0 1 107.13 102.48
  Q 107.31 101.76 107.10 101.13
  Q 106.70 99.96 106.34 101.14
  Q 106.14 101.78 105.89 102.37
  Q 105.34 103.66 105.50 102.27
  L 106.05 97.73
  A 28.12 16.44 -72.9 0 1 107.15 93.91
  Q 109.31 95.59 112.19 95.68
  Q 112.75 95.70 112.93 95.17
  Q 115.91 86.40 122.52 78.43
  A 0.50 0.50 0.0 0 0 122.31 77.64
  L 117.96 76.00
  A 47.93 47.92 14.0 0 1 139.71 62.93
  Z
  M 108.32 102.69
  Q 109.00 103.87 109.02 105.38
  Q 109.02 106.02 109.13 105.39
  Q 109.43 103.69 108.52 102.25
  A 1.30 1.29 -53.6 0 1 108.37 101.22
  Q 108.98 99.00 108.05 96.63
  Q 107.95 96.38 107.66 96.27
  Q 107.09 96.06 107.39 96.59
  Q 108.62 98.82 108.09 101.45
  Q 107.96 102.07 108.32 102.69
  Z"
/>
<path fill="#fec0b4" d="
  M 169.16 64.04
  A 27.05 14.61 19.8 0 1 172.69 65.49
  Q 174.42 67.64 176.40 69.36
  Q 179.16 71.76 181.51 77.97
  Q 181.71 78.51 181.16 78.63
  Q 180.88 78.69 180.44 78.61
  L 171.94 75.90
  L 171.35 70.05
  L 169.16 64.04
  Z"
/>
<path fill="#bc0905" d="
  M 172.69 65.49
  A 48.68 47.84 -15.0 0 1 179.87 69.56
  L 188.01 79.46
  Q 189.66 81.47 187.20 80.63
  Q 185.16 79.93 182.16 79.56
  Q 181.72 79.52 180.44 78.61
  Q 180.88 78.69 181.16 78.63
  Q 181.71 78.51 181.51 77.97
  Q 179.16 71.76 176.40 69.36
  Q 174.42 67.64 172.69 65.49
  Z"
/>
<path fill="#fc6d63" d="
  M 159.62 67.61
  Q 157.73 69.81 158.22 71.48
  Q 156.62 71.16 155.65 72.89
  Q 152.46 78.57 148.72 85.09
  Q 146.06 84.95 143.92 83.63
  Q 143.53 83.39 143.06 83.37
  C 141.39 83.32 141.11 81.64 139.15 81.83
  Q 138.59 81.88 138.11 81.60
  Q 137.10 81.00 135.95 80.93
  Q 135.21 80.88 135.48 80.19
  L 137.08 76.06
  L 137.63 75.62
  A 0.04 0.04 0.0 0 1 137.70 75.66
  Q 137.63 76.06 137.80 76.00
  Q 137.91 75.96 137.98 75.85
  Q 140.96 71.11 146.10 68.07
  Q 146.64 67.75 147.24 67.94
  L 154.74 70.29
  Q 156.45 70.83 157.56 69.42
  Q 158.34 68.42 159.62 67.61
  Z"
/>
<path fill="#aaa8ac" d="
  M 179.87 69.56
  A 48.03 47.97 89.8 0 1 192.14 81.75
  Q 191.45 82.14 190.71 81.91
  A 0.56 0.56 0.0 0 0 190.05 82.69
  Q 194.23 91.03 195.09 100.22
  A 1.48 1.48 0.0 0 0 196.08 101.48
  L 200.33 102.95
  A 47.92 47.82 50.1 0 1 198.52 123.58
  Q 196.03 123.73 194.21 122.59
  A 1.22 1.21 25.0 0 0 192.41 123.24
  Q 189.35 132.44 182.85 140.02
  Q 182.52 140.40 182.03 140.28
  L 177.50 139.22
  L 172.73 137.56
  Q 172.15 137.36 171.78 137.85
  C 168.25 142.45 164.76 146.61 159.90 149.90
  A 0.75 0.75 0.0 0 0 159.90 151.14
  Q 160.43 151.51 160.99 151.55
  L 164.28 152.32
  Q 166.43 152.82 164.35 153.57
  Q 156.74 156.31 148.18 156.99
  A 33.03 21.98 10.5 0 1 143.56 156.33
  Q 143.36 155.47 144.51 155.44
  Q 151.55 155.30 157.73 151.45
  A 0.67 0.67 0.0 0 0 157.58 150.24
  L 148.90 147.43
  Q 148.27 147.22 147.90 147.78
  Q 144.67 152.70 139.55 154.97
  L 136.78 153.99
  Q 135.92 153.29 135.30 152.28
  Q 133.57 147.74 133.58 142.75
  Q 133.58 142.52 133.05 142.30
  Q 133.36 142.31 133.74 141.85
  Q 134.30 143.10 137.38 143.57
  L 146.74 146.72
  Q 148.50 147.31 149.46 145.72
  L 153.33 139.28
  Q 153.33 139.43 153.33 139.59
  Q 154.30 140.28 155.36 138.50
  A 1.48 1.45 -78.3 0 1 156.40 137.80
  Q 158.18 137.52 159.86 136.59
  A 2.11 2.04 33.2 0 1 161.11 136.35
  Q 162.03 136.45 162.95 136.09
  Q 163.57 135.85 163.24 135.28
  L 162.70 134.36
  Q 162.81 134.26 162.92 134.17
  Q 164.03 134.79 165.54 135.02
  L 171.05 136.90
  A 1.58 1.56 -64.7 0 0 172.89 136.23
  Q 177.60 128.57 180.66 120.39
  Q 181.16 119.04 182.04 118.45
  L 192.03 121.92
  A 0.70 0.70 0.0 0 0 192.93 121.46
  Q 195.87 111.86 195.25 102.51
  A 1.99 1.98 7.6 0 0 193.91 100.77
  Q 190.04 99.45 185.99 98.42
  Q 184.92 98.15 184.79 96.54
  Q 184.99 88.25 182.16 79.56
  Q 185.16 79.93 187.20 80.63
  Q 189.66 81.47 188.01 79.46
  L 179.87 69.56
  Z"
/>
<path fill="#ffffff" d="
  M 171.35 70.05
  L 171.94 75.90
  L 169.93 92.38
  A 0.62 0.62 0.0 0 0 170.37 93.06
  L 184.19 97.22
  Q 184.85 98.13 184.83 98.75
  Q 184.57 108.13 181.68 117.05
  L 181.46 118.01
  Q 181.35 118.53 180.84 118.36
  L 166.07 113.45
  Q 164.43 112.91 163.88 114.55
  Q 160.91 123.45 157.35 131.23
  A 1.39 1.38 21.1 0 1 155.66 131.97
  L 136.60 125.88
  Q 135.87 125.64 135.70 126.39
  Q 133.99 133.94 133.74 141.85
  Q 133.36 142.31 133.05 142.30
  L 124.45 139.51
  Q 123.33 139.14 123.74 140.26
  Q 126.33 147.28 132.23 151.77
  Q 133.11 152.43 134.16 152.85
  Q 134.54 153.01 134.85 152.93
  Q 135.48 152.78 135.30 152.28
  Q 135.92 153.29 136.78 153.99
  Q 136.57 153.95 136.37 154.34
  A 47.99 47.75 70.3 0 1 127.83 150.27
  L 121.96 144.59
  L 114.88 135.99
  Q 114.66 136.06 114.44 136.13
  Q 114.77 136.17 115.03 136.09
  Q 115.28 136.02 115.35 135.80
  Q 115.43 135.56 115.32 135.29
  L 116.09 136.44
  Q 116.38 136.86 116.87 137.03
  L 122.43 138.90
  Q 123.18 139.15 122.94 138.40
  Q 120.29 130.14 120.30 121.19
  Q 121.02 120.79 121.76 121.02
  Q 128.16 123.02 135.06 125.31
  A 0.55 0.54 -73.9 0 0 135.76 124.92
  L 140.26 106.29
  L 140.47 106.05
  Q 140.80 105.67 141.29 105.79
  L 146.15 107.06
  L 164.03 112.76
  Q 164.70 112.97 164.88 112.29
  L 169.75 93.65
  Q 169.95 92.87 169.18 92.64
  L 155.66 88.48
  Q 151.09 87.06 148.72 85.09
  Q 152.46 78.57 155.65 72.89
  Q 156.62 71.16 158.22 71.48
  L 170.70 75.40
  A 0.64 0.64 0.0 0 0 171.53 74.77
  L 171.35 70.05
  Z"
/>
<path fill="#ffffff" d="
  M 117.96 76.00
  L 122.31 77.64
  A 0.50 0.50 0.0 0 1 122.52 78.43
  Q 115.91 86.40 112.93 95.17
  Q 112.75 95.70 112.19 95.68
  Q 109.31 95.59 107.15 93.91
  A 48.10 48.09 76.1 0 1 117.96 76.00
  Z"
/>
<path fill="#fec0b4" d="
  M 137.08 76.06
  L 135.48 80.19
  Q 135.21 80.88 135.95 80.93
  Q 137.10 81.00 138.11 81.60
  Q 138.59 81.88 139.15 81.83
  C 141.11 81.64 141.39 83.32 143.06 83.37
  Q 143.53 83.39 143.92 83.63
  Q 146.06 84.95 148.72 85.09
  Q 151.09 87.06 155.66 88.48
  L 152.94 88.68
  Q 152.33 88.72 152.33 89.33
  Q 152.32 90.26 152.67 91.10
  A 2.49 2.44 33.8 0 1 152.85 91.97
  C 152.90 93.36 153.05 94.95 152.47 96.25
  Q 151.18 99.15 149.65 101.92
  Q 149.55 102.12 149.39 102.27
  Q 147.25 104.39 146.15 107.06
  L 141.29 105.79
  Q 140.80 105.67 140.47 106.05
  L 140.26 106.29
  Q 139.98 105.84 140.22 105.22
  Q 141.18 105.37 141.36 104.50
  Q 141.75 102.51 142.18 100.50
  Q 142.55 98.75 143.35 97.39
  Q 144.71 95.11 145.32 92.47
  Q 145.78 90.48 147.10 88.51
  Q 148.38 86.59 146.65 85.47
  C 145.41 84.66 143.56 84.04 142.08 83.90
  Q 139.52 83.66 136.77 83.10
  Q 136.23 82.99 135.93 83.45
  Q 135.22 84.50 133.99 85.13
  Q 132.90 85.69 132.12 86.66
  Q 131.74 87.14 131.85 86.53
  Q 131.87 86.41 131.79 86.29
  Q 131.72 86.19 131.60 86.24
  Q 131.01 86.50 130.94 87.08
  Q 130.88 87.54 130.54 87.86
  Q 130.15 88.22 129.81 88.61
  Q 129.48 88.99 129.40 89.46
  C 129.10 91.14 128.41 92.71 128.32 94.42
  Q 128.26 95.79 127.61 97.29
  Q 127.45 97.67 127.08 97.86
  Q 126.03 98.38 126.07 99.40
  Q 126.08 99.77 125.72 99.72
  Q 125.49 99.68 125.41 99.47
  Q 125.01 98.45 125.77 97.90
  A 1.00 0.99 79.6 0 0 126.15 97.34
  Q 126.44 96.21 127.33 95.63
  A 0.74 0.73 67.2 0 0 127.65 94.84
  Q 127.42 93.91 127.80 93.03
  Q 128.14 92.23 128.33 91.43
  Q 129.44 86.81 132.76 83.79
  Q 134.43 82.28 136.54 82.61
  Q 138.57 82.93 140.37 83.80
  A 0.07 0.06 -65.3 0 0 140.46 83.76
  L 140.56 83.48
  Q 140.64 83.26 140.42 83.19
  L 134.55 81.26
  A 0.57 0.57 0.0 0 1 134.19 80.55
  Q 134.30 80.22 134.59 80.05
  Q 134.92 79.85 134.99 79.46
  Q 135.38 77.35 137.08 76.06
  Z"
/>
<path fill="#ff0000" d="
  M 171.94 75.90
  L 180.44 78.61
  Q 181.72 79.52 182.16 79.56
  Q 184.99 88.25 184.79 96.54
  Q 184.92 97.22 184.19 97.22
  L 170.37 93.06
  A 0.62 0.62 0.0 0 1 169.93 92.38
  L 171.94 75.90
  Z"
/>
<path fill="#fec0b4" d="
  M 129.25 80.05
  L 130.48 80.99
  Q 130.88 81.29 130.71 81.76
  Q 130.63 81.97 130.42 82.10
  Q 129.78 82.49 130.52 82.39
  Q 130.64 82.37 130.77 82.39
  Q 130.81 82.39 130.83 82.35
  L 131.39 81.53
  Q 131.82 80.87 131.89 81.66
  Q 131.97 82.52 131.27 82.86
  Q 130.74 83.12 130.45 83.62
  Q 129.35 85.51 128.09 87.22
  Q 126.75 89.01 126.32 91.56
  Q 125.69 95.30 124.27 98.47
  A 1.80 1.80 0.0 0 1 122.00 99.42
  L 115.74 97.09
  Q 116.69 96.66 117.57 97.19
  Q 118.00 97.44 118.50 97.44
  Q 119.90 97.42 120.96 96.77
  Q 121.26 96.59 121.19 96.25
  Q 120.18 90.88 121.24 85.94
  Q 121.65 84.01 123.11 82.68
  Q 124.32 81.56 125.62 80.37
  A 0.74 0.73 -59.0 0 0 125.31 79.11
  Q 124.75 78.98 124.38 78.56
  Q 123.88 77.98 124.59 78.26
  L 129.25 80.05
  Z"
/>
<path fill="#bc0905" d="
  M 192.14 81.75
  A 48.08 47.94 24.0 0 1 200.33 102.95
  L 196.08 101.48
  A 1.48 1.48 0.0 0 1 195.09 100.22
  Q 194.23 91.03 190.05 82.69
  A 0.56 0.56 0.0 0 1 190.71 81.91
  Q 191.45 82.14 192.14 81.75
  Z"
/>
<path fill="#fc6d63" d="
  M 155.66 88.48
  L 169.18 92.64
  Q 169.95 92.87 169.75 93.65
  L 164.88 112.29
  Q 164.70 112.97 164.03 112.76
  L 146.15 107.06
  Q 147.25 104.39 149.39 102.27
  Q 149.55 102.12 149.65 101.92
  Q 151.18 99.15 152.47 96.25
  C 153.05 94.95 152.90 93.36 152.85 91.97
  A 2.49 2.44 33.8 0 0 152.67 91.10
  Q 152.32 90.26 152.33 89.33
  Q 152.33 88.72 152.94 88.68
  L 155.66 88.48
  Z"
/>
<path fill="#ffffff" d="
  M 414.75 133.68
  L 406.43 133.78
  Q 405.54 133.79 405.80 132.93
  L 406.09 131.96
  Q 406.35 131.07 407.29 131.08
  L 428.69 131.13
  Q 429.20 131.13 429.21 131.64
  C 429.46 144.87 421.81 154.38 408.84 155.83
  C 363.28 160.93 362.45 85.51 408.82 90.00
  C 415.21 90.62 420.13 94.57 424.88 98.69
  Q 425.26 99.02 425.26 99.52
  L 425.26 108.47
  A 0.78 0.78 0.0 0 1 424.77 109.18
  Q 424.03 109.46 423.30 109.30
  A 1.03 1.01 87.9 0 1 422.55 108.59
  C 419.44 98.40 414.26 91.64 402.47 92.43
  C 390.44 93.25 388.72 103.06 388.56 112.81
  Q 388.38 123.20 388.61 133.85
  C 388.82 143.59 391.41 152.98 403.19 153.43
  C 411.64 153.75 414.88 149.25 415.13 141.31
  Q 415.24 137.73 415.40 134.36
  Q 415.43 133.67 414.75 133.68
  Z"
/>
<path fill="#ffffff" d="
  M 220.52 136.27
  L 214.32 154.22
  A 1.33 1.32 -77.2 0 1 212.93 155.10
  Q 212.63 155.07 212.33 155.12
  Q 210.73 155.44 211.29 153.84
  Q 222.06 123.21 232.44 93.56
  C 233.09 91.69 233.34 90.02 235.73 90.07
  A 1.75 1.75 0.0 0 1 237.33 91.22
  L 258.93 151.44
  A 1.60 1.59 -9.9 0 0 260.43 152.49
  L 266.00 152.48
  Q 267.02 152.48 267.10 153.50
  L 267.14 154.01
  A 0.92 0.91 87.4 0 1 266.24 155.00
  L 247.77 155.03
  Q 247.44 155.03 247.34 154.73
  L 241.19 136.55
  A 0.94 0.94 0.0 0 0 240.30 135.92
  L 220.98 135.94
  Q 220.63 135.94 220.52 136.27
  Z
  M 221.74 132.65
  A 0.50 0.50 0.0 0 0 222.22 133.31
  L 239.39 133.28
  A 0.50 0.50 0.0 0 0 239.86 132.62
  L 231.23 107.82
  A 0.50 0.50 0.0 0 0 230.29 107.82
  L 221.74 132.65
  Z"
/>
<path fill="#ffffff" d="
  M 461.45 135.92
  L 442.35 135.94
  A 0.95 0.95 0.0 0 0 441.45 136.58
  L 435.60 153.63
  Q 435.23 154.71 434.11 154.95
  L 432.94 155.21
  Q 431.76 155.47 432.16 154.32
  Q 443.07 123.30 454.09 91.81
  Q 454.63 90.24 456.33 90.11
  A 2.12 2.11 -11.9 0 1 458.48 91.50
  L 480.15 151.88
  A 0.91 0.90 79.5 0 0 481.01 152.48
  L 487.33 152.47
  Q 487.94 152.47 487.97 153.08
  L 488.00 154.05
  Q 488.04 154.89 487.20 154.90
  L 469.14 155.08
  Q 468.58 155.09 468.40 154.56
  L 462.21 136.47
  Q 462.03 135.92 461.45 135.92
  Z
  M 442.75 132.74
  A 0.43 0.43 0.0 0 0 443.15 133.31
  L 460.51 133.31
  A 0.43 0.43 0.0 0 0 460.91 132.74
  L 452.24 107.73
  A 0.43 0.43 0.0 0 0 451.42 107.73
  L 442.75 132.74
  Z"
/>
<path fill="#ffffff" d="
  M 314.07 96.50
  Q 314.08 94.04 313.34 96.39
  Q 305.05 122.70 295.65 153.23
  Q 295.22 154.62 293.72 155.17
  Q 291.96 155.82 291.40 154.02
  Q 282.33 124.75 273.73 95.48
  Q 273.64 95.18 273.32 95.14
  A 0.39 0.38 3.3 0 0 272.89 95.52
  L 272.83 154.13
  A 0.80 0.79 86.7 0 1 272.14 154.91
  L 270.75 155.10
  Q 269.91 155.22 269.91 154.37
  L 269.92 94.85
  Q 269.92 94.28 269.35 94.28
  L 261.48 94.28
  Q 260.42 94.28 260.51 93.23
  L 260.55 92.74
  A 1.22 1.21 -87.7 0 1 261.76 91.62
  L 284.22 91.57
  Q 285.18 91.57 285.45 92.48
  L 297.49 132.26
  Q 298.34 135.07 299.20 132.26
  L 311.33 92.68
  Q 311.67 91.58 312.83 91.58
  L 325.83 91.61
  Q 326.54 91.61 326.54 92.32
  L 326.55 151.52
  A 0.97 0.97 0.0 0 0 327.52 152.49
  L 335.01 152.48
  Q 336.03 152.48 336.01 153.51
  L 336.00 153.88
  Q 335.97 154.99 334.86 154.99
  L 314.56 155.04
  Q 313.96 155.04 313.96 154.44
  L 314.07 96.50
  Z"
/>
<path fill="#ffffff" d="
  M 360.25 94.90
  L 360.24 151.93
  A 0.57 0.57 0.0 0 0 360.81 152.50
  L 368.95 152.49
  A 0.57 0.57 0.0 0 1 369.53 153.07
  L 369.51 154.49
  A 0.57 0.57 0.0 0 1 368.94 155.06
  L 339.09 155.02
  A 0.57 0.57 0.0 0 1 338.54 154.33
  L 338.83 152.94
  A 0.57 0.57 0.0 0 1 339.39 152.49
  L 347.05 152.42
  A 0.57 0.57 0.0 0 0 347.62 151.85
  L 347.65 92.16
  A 0.57 0.57 0.0 0 1 348.22 91.59
  L 369.00 91.70
  A 0.57 0.57 0.0 0 1 369.57 92.29
  L 369.51 93.73
  A 0.57 0.57 0.0 0 1 368.95 94.27
  L 360.82 94.33
  A 0.57 0.57 0.0 0 0 360.25 94.90
  Z"
/>
<path fill="#ff0000" d="
  M 108.32 102.69
  Q 107.96 102.07 108.09 101.45
  Q 108.62 98.82 107.39 96.59
  Q 107.09 96.06 107.66 96.27
  Q 107.95 96.38 108.05 96.63
  Q 108.98 99.00 108.37 101.22
  A 1.30 1.29 -53.6 0 0 108.52 102.25
  Q 109.43 103.69 109.13 105.39
  Q 109.02 106.02 109.02 105.38
  Q 109.00 103.87 108.32 102.69
  Z"
/>
<path fill="#bc0905" d="
  M 184.79 96.54
  Q 184.92 98.15 185.99 98.42
  Q 190.04 99.45 193.91 100.77
  A 1.99 1.98 7.6 0 1 195.25 102.51
  Q 195.87 111.86 192.93 121.46
  A 0.70 0.70 0.0 0 1 192.03 121.92
  L 182.04 118.45
  Q 181.46 117.75 181.68 117.05
  Q 184.57 108.13 184.83 98.75
  Q 184.85 98.13 184.19 97.22
  Q 184.92 97.22 184.79 96.54
  Z"
/>
<path fill="#ff0000" d="
  M 106.05 97.73
  L 105.50 102.27
  Q 105.34 103.66 105.89 102.37
  Q 106.14 101.78 106.34 101.14
  Q 106.70 99.96 107.10 101.13
  Q 107.31 101.76 107.13 102.48
  A 2.48 2.29 -67.2 0 0 108.07 105.06
  Q 108.47 105.32 108.62 105.78
  Q 108.83 106.40 108.38 105.92
  Q 108.19 105.72 107.91 105.74
  Q 107.50 105.76 107.33 105.39
  L 107.11 104.92
  Q 106.75 104.16 106.84 105.00
  Q 106.88 105.36 106.98 105.72
  Q 107.10 106.22 107.62 106.18
  Q 108.65 106.11 108.62 107.16
  Q 108.55 109.53 108.68 111.79
  Q 108.70 112.20 109.10 112.10
  L 109.47 112.01
  Q 109.63 111.97 109.63 111.80
  Q 109.63 107.40 109.62 103.14
  Q 109.62 103.12 109.64 103.10
  Q 109.65 103.09 109.65 103.11
  Q 109.66 103.12 109.66 103.14
  Q 109.55 107.19 109.80 111.22
  L 110.07 116.46
  Q 108.06 116.63 105.07 115.38
  A 48.32 48.23 44.0 0 1 104.87 104.74
  A 48.12 47.90 54.7 0 1 106.05 97.73
  Z"
/>
<path fill="#fec0b4" d="
  M 124.52 101.40
  Q 124.05 102.43 123.18 103.08
  Q 123.25 101.69 123.95 100.56
  Q 124.22 100.12 124.72 100.25
  Q 126.16 100.61 127.25 101.59
  Q 127.79 102.09 127.07 101.97
  Q 126.52 101.89 126.17 101.54
  Q 125.86 101.25 125.44 101.24
  Q 124.96 101.23 124.52 101.40
  Z"
/>
<path fill="#fc6d63" d="
  M 124.52 101.40
  L 127.26 102.47
  Q 127.75 102.66 128.27 102.58
  Q 129.58 102.38 130.84 103.17
  A 1.00 0.94 -20.2 0 0 131.17 103.31
  L 140.22 105.22
  Q 139.98 105.84 140.26 106.29
  L 135.76 124.92
  A 0.55 0.54 -73.9 0 1 135.06 125.31
  Q 128.16 123.02 121.76 121.02
  Q 121.02 120.79 120.30 121.19
  Q 120.15 120.89 119.70 120.50
  Q 120.34 120.51 120.39 119.69
  Q 120.81 112.15 122.41 106.12
  Q 122.98 104.74 124.77 105.38
  Q 125.70 105.70 125.00 105.01
  Q 124.51 104.51 123.79 104.35
  Q 123.25 104.22 123.60 103.80
  Q 124.10 103.20 124.69 103.51
  Q 125.09 103.72 125.23 103.29
  Q 125.38 102.85 125.29 102.51
  Q 125.13 101.93 124.59 102.18
  Q 123.93 102.49 123.35 103.31
  Q 123.26 103.20 123.18 103.08
  Q 124.05 102.43 124.52 101.40
  Z"
/>
<path fill="#fec0b4" d="
  M 122.41 106.12
  Q 122.05 103.99 123.35 103.31
  Q 123.93 102.49 124.59 102.18
  Q 125.13 101.93 125.29 102.51
  Q 125.38 102.85 125.23 103.29
  Q 125.09 103.72 124.69 103.51
  Q 124.10 103.20 123.60 103.80
  Q 123.25 104.22 123.79 104.35
  Q 124.51 104.51 125.00 105.01
  Q 125.70 105.70 124.77 105.38
  Q 122.98 104.74 122.41 106.12
  Z"
/>
<path fill="#ff0000" d="
  M 181.68 117.05
  Q 181.46 117.75 182.04 118.45
  Q 181.16 119.04 180.66 120.39
  Q 177.60 128.57 172.89 136.23
  A 1.58 1.56 -64.7 0 1 171.05 136.90
  L 165.54 135.02
  Q 165.13 134.36 164.60 134.11
  Q 164.41 134.02 164.45 133.82
  Q 164.47 133.71 164.61 133.60
  Q 165.34 133.07 164.44 133.12
  Q 161.28 133.28 162.92 134.17
  Q 162.81 134.26 162.70 134.36
  Q 160.16 133.15 157.45 132.91
  Q 156.92 132.86 156.67 133.33
  L 153.33 139.59
  Q 153.33 139.43 153.33 139.28
  Q 151.28 140.14 149.30 140.78
  Q 147.80 141.27 145.12 141.25
  Q 140.68 141.23 137.38 143.57
  Q 134.30 143.10 133.74 141.85
  Q 133.99 133.94 135.70 126.39
  Q 135.87 125.64 136.60 125.88
  L 155.66 131.97
  A 1.39 1.38 21.1 0 0 157.35 131.23
  Q 160.91 123.45 163.88 114.55
  Q 164.43 112.91 166.07 113.45
  L 180.84 118.36
  Q 181.35 118.53 181.46 118.01
  L 181.68 117.05
  Z"
/>
<path fill="#fec0b4" d="
  M 105.07 115.38
  Q 108.06 116.63 110.07 116.46
  L 110.95 117.42
  L 110.60 117.43
  Q 110.20 117.44 110.13 117.83
  Q 110.04 118.33 110.48 118.81
  Q 111.41 127.41 115.32 135.29
  Q 115.43 135.56 115.35 135.80
  Q 115.28 136.02 115.03 136.09
  Q 114.77 136.17 114.44 136.13
  L 113.78 135.91
  Q 113.34 135.76 113.16 135.33
  Q 112.90 134.76 112.02 134.71
  A 48.06 47.97 -64.8 0 1 105.07 115.38
  Z"
/>
<path fill="#fc6d63" d="
  M 110.95 117.42
  Q 112.15 117.47 112.03 118.10
  Q 110.41 117.77 110.48 118.81
  Q 110.04 118.33 110.13 117.83
  Q 110.20 117.44 110.60 117.43
  L 110.95 117.42
  Z"
/>
<path fill="#ff0000" d="
  M 112.03 118.10
  L 119.70 120.50
  Q 120.15 120.89 120.30 121.19
  Q 120.29 130.14 122.94 138.40
  Q 123.18 139.15 122.43 138.90
  L 116.87 137.03
  Q 116.38 136.86 116.09 136.44
  L 115.32 135.29
  Q 111.41 127.41 110.48 118.81
  Q 110.41 117.77 112.03 118.10
  Z"
/>
<path fill="#6e1411" d="
  M 198.52 123.58
  A 48.04 47.97 76.0 0 1 186.98 142.82
  Q 185.70 141.06 183.00 141.05
  A 1.86 1.85 -67.8 0 0 181.63 141.63
  C 177.48 145.96 173.35 149.15 167.63 152.22
  Q 167.35 152.37 167.16 152.62
  Q 166.89 152.99 167.13 153.34
  Q 167.41 153.74 167.90 153.79
  Q 168.72 153.86 169.29 154.25
  A 47.54 47.22 29.8 0 1 160.96 156.49
  A 48.11 47.75 42.5 0 1 148.18 156.99
  Q 156.74 156.31 164.35 153.57
  Q 166.43 152.82 164.28 152.32
  L 160.99 151.55
  Q 161.91 151.43 162.67 151.01
  Q 163.11 150.77 163.58 150.93
  Q 163.72 150.98 163.80 151.11
  Q 164.20 151.71 164.64 151.13
  Q 165.31 150.23 166.32 149.82
  Q 166.79 149.62 166.63 149.13
  Q 166.59 148.99 166.69 148.87
  Q 166.97 148.54 167.38 148.43
  Q 170.27 147.69 172.99 146.10
  Q 173.81 145.61 174.15 144.73
  A 1.42 1.39 85.9 0 1 174.77 144.00
  Q 176.71 142.88 177.73 141.49
  Q 178.60 140.32 177.50 139.22
  L 182.03 140.28
  Q 182.52 140.40 182.85 140.02
  Q 189.35 132.44 192.41 123.24
  A 1.22 1.21 25.0 0 1 194.21 122.59
  Q 196.03 123.73 198.52 123.58
  Z"
/>
<path fill="#fec0b4" d="
  M 162.70 134.36
  L 163.24 135.28
  Q 163.57 135.85 162.95 136.09
  Q 162.03 136.45 161.11 136.35
  A 2.11 2.04 33.2 0 0 159.86 136.59
  Q 158.18 137.52 156.40 137.80
  A 1.48 1.45 -78.3 0 0 155.36 138.50
  Q 154.30 140.28 153.33 139.59
  L 156.67 133.33
  Q 156.92 132.86 157.45 132.91
  Q 160.16 133.15 162.70 134.36
  Z"
/>
<path fill="#bc0905" d="
  M 165.54 135.02
  Q 164.03 134.79 162.92 134.17
  Q 161.28 133.28 164.44 133.12
  Q 165.34 133.07 164.61 133.60
  Q 164.47 133.71 164.45 133.82
  Q 164.41 134.02 164.60 134.11
  Q 165.13 134.36 165.54 135.02
  Z"
/>
<path fill="#6e1411" d="
  M 112.02 134.71
  Q 112.90 134.76 113.16 135.33
  Q 113.34 135.76 113.78 135.91
  L 114.44 136.13
  Q 114.66 136.06 114.88 135.99
  L 113.11 136.38
  A 14.13 4.13 58.0 0 1 112.02 134.71
  Z"
/>
<path fill="#bc0905" d="
  M 113.11 136.38
  L 114.88 135.99
  L 121.96 144.59
  Q 121.92 145.25 122.62 146.00
  A 0.07 0.07 0.0 0 1 122.60 146.11
  Q 120.32 147.30 122.43 146.09
  Q 122.47 146.07 122.45 146.02
  Q 121.59 144.63 120.42 144.75
  A 48.24 48.16 -86.2 0 1 113.11 136.38
  Z"
/>
<path fill="#bc0905" d="
  M 177.50 139.22
  Q 178.60 140.32 177.73 141.49
  Q 176.71 142.88 174.77 144.00
  A 1.42 1.39 85.9 0 0 174.15 144.73
  Q 173.81 145.61 172.99 146.10
  Q 170.27 147.69 167.38 148.43
  Q 166.97 148.54 166.69 148.87
  Q 166.59 148.99 166.63 149.13
  Q 166.79 149.62 166.32 149.82
  Q 165.31 150.23 164.64 151.13
  Q 164.20 151.71 163.80 151.11
  Q 163.72 150.98 163.58 150.93
  Q 163.11 150.77 162.67 151.01
  Q 161.91 151.43 160.99 151.55
  Q 160.43 151.51 159.90 151.14
  A 0.75 0.75 0.0 0 1 159.90 149.90
  C 164.76 146.61 168.25 142.45 171.78 137.85
  Q 172.15 137.36 172.73 137.56
  L 177.50 139.22
  Z"
/>
<path fill="#bc0905" d="
  M 153.33 139.28
  L 149.46 145.72
  Q 148.50 147.31 146.74 146.72
  L 137.38 143.57
  Q 140.68 141.23 145.12 141.25
  Q 147.80 141.27 149.30 140.78
  Q 151.28 140.14 153.33 139.28
  Z"
/>
<path fill="#bc0905" d="
  M 133.05 142.30
  Q 133.58 142.52 133.58 142.75
  Q 133.57 147.74 135.30 152.28
  Q 135.48 152.78 134.85 152.93
  Q 134.54 153.01 134.16 152.85
  Q 133.11 152.43 132.23 151.77
  Q 126.33 147.28 123.74 140.26
  Q 123.33 139.14 124.45 139.51
  L 133.05 142.30
  Z"
/>
<path fill="#aaa8ac" d="
  M 186.98 142.82
  A 48.09 48.04 12.1 0 1 169.29 154.25
  Q 168.72 153.86 167.90 153.79
  Q 167.41 153.74 167.13 153.34
  Q 166.89 152.99 167.16 152.62
  Q 167.35 152.37 167.63 152.22
  C 173.35 149.15 177.48 145.96 181.63 141.63
  A 1.86 1.85 -67.8 0 1 183.00 141.05
  Q 185.70 141.06 186.98 142.82
  Z"
/>
<path fill="#6e1411" d="
  M 121.96 144.59
  L 127.83 150.27
  A 48.11 47.83 81.5 0 1 120.42 144.75
  Q 121.59 144.63 122.45 146.02
  Q 122.47 146.07 122.43 146.09
  Q 120.32 147.30 122.60 146.11
  A 0.07 0.07 0.0 0 0 122.62 146.00
  Q 121.92 145.25 121.96 144.59
  Z"
/>
<path fill="#bc0905" d="
  M 143.56 156.33
  A 31.47 21.27 16.1 0 1 139.24 155.28
  Q 139.60 155.35 139.55 154.97
  Q 144.67 152.70 147.90 147.78
  Q 148.27 147.22 148.90 147.43
  L 157.58 150.24
  A 0.67 0.67 0.0 0 1 157.73 151.45
  Q 151.55 155.30 144.51 155.44
  Q 143.36 155.47 143.56 156.33
  Z"
/>
<path fill="#6e1411" d="
  M 136.78 153.99
  L 139.55 154.97
  Q 139.60 155.35 139.24 155.28
  A 21.36 10.41 18.6 0 1 136.37 154.34
  Q 136.57 153.95 136.78 153.99
  Z"
/>
<path fill="#ff0000" d="
  M 442.44 190.80
  L 435.91 190.79
  A 0.31 0.31 0.0 0 0 435.61 191.02
  L 434.67 194.68
  A 0.31 0.31 0.0 0 1 434.37 194.91
  L 430.57 194.93
  A 0.31 0.31 0.0 0 1 430.27 194.54
  L 438.80 161.24
  A 0.31 0.31 0.0 0 1 439.40 161.24
  L 447.84 194.50
  A 0.31 0.31 0.0 0 1 447.55 194.89
  L 443.69 194.94
  A 0.31 0.31 0.0 0 1 443.38 194.68
  L 442.75 191.06
  A 0.31 0.31 0.0 0 0 442.44 190.80
  Z
  M 439.44 176.27
  Q 439.40 176.07 439.32 175.88
  Q 438.98 175.08 438.80 175.93
  L 436.73 185.74
  Q 436.59 186.38 437.24 186.38
  L 440.99 186.37
  Q 441.71 186.37 441.54 185.67
  Q 440.38 181.01 439.44 176.27
  Z"
/>
<path fill="#ff0000" d="
  M 476.73 191.46
  L 476.06 194.55
  Q 475.98 194.91 475.61 194.92
  L 471.94 194.92
  Q 471.47 194.93 471.58 194.47
  L 480.08 161.27
  Q 480.39 160.09 480.68 161.27
  L 489.02 193.97
  A 0.78 0.78 0.0 0 1 488.26 194.94
  L 485.46 194.92
  Q 484.61 194.91 484.59 194.07
  Q 484.55 192.70 483.96 191.40
  Q 483.69 190.80 483.03 190.80
  L 477.55 190.80
  Q 476.87 190.80 476.73 191.46
  Z
  M 480.53 175.68
  A 0.30 0.30 0.0 0 0 479.94 175.69
  L 477.75 186.03
  A 0.30 0.30 0.0 0 0 478.04 186.39
  L 482.55 186.36
  A 0.30 0.30 0.0 0 0 482.84 186.00
  L 480.53 175.68
  Z"
/>
<path fill="#ff0000" d="
  M 467.98 183.85
  L 458.60 183.92
  Q 458.25 183.92 458.25 183.57
  L 458.23 180.13
  Q 458.23 179.75 458.62 179.75
  L 472.45 179.75
  Q 473.02 179.75 473.00 180.32
  Q 472.83 187.60 468.02 192.05
  Q 464.16 195.61 457.84 194.96
  Q 451.39 194.30 448.02 187.93
  C 443.76 179.86 447.43 168.90 456.75 166.56
  C 462.29 165.17 467.92 168.04 470.77 172.84
  Q 470.91 173.07 470.70 173.25
  L 467.98 175.56
  A 0.26 0.26 0.0 0 1 467.59 175.50
  C 464.17 169.91 457.17 168.74 452.80 173.86
  C 448.22 179.22 449.94 187.75 456.69 190.39
  C 461.61 192.32 466.45 189.10 468.36 184.41
  Q 468.59 183.84 467.98 183.85
  Z"
/>
</svg>
