<?xml version="1.0" encoding="UTF-8" standalone="no"?>
<!DOCTYPE svg PUBLIC "-//W3C//DTD SVG 1.1//EN" "http://www.w3.org/Graphics/SVG/1.1/DTD/svg11.dtd">
<svg xmlns="http://www.w3.org/2000/svg" version="1.1" viewBox="0.00 0.00 590.00 255.00">
<g stroke-width="2.00" fill="none" stroke-linecap="butt">
<path stroke="#f1eeef" vector-effect="non-scaling-stroke" d="
  M 153.45 79.11
  Q 153.69 79.32 153.53 79.78"
/>
<path stroke="#ff8080" vector-effect="non-scaling-stroke" d="
  M 153.53 79.78
  L 143.05 81.90"
/>
<path stroke="#fecdc8" vector-effect="non-scaling-stroke" d="
  M 143.05 81.90
  Q 141.06 82.14 140.49 82.75
  Q 139.60 83.70 140.86 84.02
  L 145.30 85.16
  A 0.56 0.55 34.4 0 1 145.49 86.15
  Q 138.83 90.92 134.50 97.92
  A 0.85 0.85 0.0 0 0 135.12 99.21
  Q 137.77 99.53 140.48 100.64
  C 142.09 101.30 143.42 101.28 145.02 101.66
  Q 145.47 101.77 145.82 102.07
  Q 146.86 102.98 148.22 102.65
  Q 148.67 102.54 148.91 102.14
  L 156.48 89.89
  A 1.04 1.04 0.0 0 0 155.81 88.32
  Q 151.34 87.40 147.69 85.86
  A 0.55 0.55 0.0 0 1 147.65 84.86
  L 151.31 82.98"
/>
<path stroke="#ff8080" vector-effect="non-scaling-stroke" d="
  M 151.31 82.98
  Q 157.21 80.53 163.03 80.92
  Q 165.53 81.09 163.36 82.33
  Q 159.73 84.42 157.74 88.49
  Q 157.44 89.10 158.06 89.40
  Q 159.93 90.30 161.92 90.66
  Q 165.94 91.39 170.26 93.19
  A 1.09 1.06 40.8 0 0 171.22 93.13
  Q 171.86 92.76 171.50 91.77"
/>
<path stroke="#f1eeef" vector-effect="non-scaling-stroke" d="
  M 171.50 91.77
  L 171.94 93.85"
/>
<path stroke="#ff8080" vector-effect="non-scaling-stroke" d="
  M 171.94 93.85
  L 170.15 109.00"
/>
<path stroke="#fdb9b5" vector-effect="non-scaling-stroke" d="
  M 170.15 109.00
  Q 168.40 111.35 161.18 108.13"
/>
<path stroke="#fecdc8" vector-effect="non-scaling-stroke" d="
  M 161.18 108.13
  L 149.45 104.34
  Q 148.80 104.12 148.60 104.78
  Q 148.35 105.66 147.75 106.32
  Q 147.11 107.01 146.74 108.19
  Q 145.70 111.52 144.69 114.83
  Q 144.08 116.82 143.23 118.58
  Q 142.31 120.47 141.51 122.31
  A 1.26 1.26 0.0 0 1 140.70 123.01
  Q 139.52 123.33 138.43 122.80
  Q 138.34 122.76 138.35 122.85
  Q 138.36 122.91 138.41 122.92
  Q 139.28 123.13 140.15 123.41
  Q 140.72 123.60 140.62 124.18
  L 140.01 127.52"
/>
<path stroke="#f1eeef" vector-effect="non-scaling-stroke" d="
  M 140.01 127.52
  Q 139.65 128.07 139.42 128.04"
/>
<path stroke="#fecdc8" vector-effect="non-scaling-stroke" d="
  M 139.42 128.04
  L 139.68 125.28
  Q 139.84 123.61 138.19 123.34
  Q 131.21 122.16 126.17 119.37
  A 1.66 1.65 26.1 0 0 123.85 120.16
  Q 121.27 126.15 120.88 131.76
  Q 120.77 133.31 120.25 134.72
  Q 119.70 136.16 119.93 137.78
  Q 119.98 138.14 119.61 138.16
  L 119.28 138.17"
/>
<path stroke="#ff8080" vector-effect="non-scaling-stroke" d="
  M 119.28 138.17
  L 115.34 137.03"
/>
<path stroke="#f1eeef" vector-effect="non-scaling-stroke" d="
  M 115.34 137.03
  Q 113.73 135.53 111.73 134.72
  Q 111.11 134.46 111.09 133.79
  L 110.71 122.53"
/>
<path stroke="#fdb9b5" vector-effect="non-scaling-stroke" d="
  M 110.71 122.53
  L 111.54 118.05"
/>
<path stroke="#fecdc8" vector-effect="non-scaling-stroke" d="
  M 111.54 118.05
  L 112.23 115.83
  Q 112.69 114.33 114.21 114.75
  L 122.52 117.05"
/>
<path stroke="#f1eeef" vector-effect="non-scaling-stroke" d="
  M 122.52 117.05
  Q 123.38 117.60 123.99 117.03
  Q 124.29 116.75 124.14 117.14
  Q 124.09 117.28 124.12 117.45
  Q 124.21 117.88 124.66 117.85
  Q 124.79 117.85 124.92 117.82
  Q 125.21 117.75 125.15 117.46
  Q 124.71 115.32 125.93 113.94
  Q 126.18 113.65 126.14 113.26
  Q 126.08 112.79 126.20 112.35
  Q 126.29 112.01 126.60 111.84
  Q 127.22 111.51 127.19 110.77
  Q 127.16 110.07 127.41 109.34
  Q 129.27 104.04 132.56 99.94
  A 0.79 0.79 0.0 0 0 132.18 98.69
  L 127.17 97.13"
/>
<path stroke="#fecdc8" vector-effect="non-scaling-stroke" d="
  M 127.17 97.13
  L 124.14 96.19"
/>
<path stroke="#fdb9b5" vector-effect="non-scaling-stroke" d="
  M 124.14 96.19
  Q 123.34 95.34 123.81 94.80
  Q 129.97 87.79 137.96 84.12
  Q 138.39 83.92 138.34 83.44
  Q 138.14 81.80 139.47 81.10"
/>
<path stroke="#efa8a4" vector-effect="non-scaling-stroke" d="
  M 170.67 111.23
  Q 169.65 110.76 169.01 113.88"
/>
<path stroke="#fd3a36" vector-effect="non-scaling-stroke" d="
  M 169.01 113.88
  Q 169.06 112.23 168.58 111.27
  Q 168.25 110.62 167.52 110.62
  L 165.00 110.62
  Q 164.16 110.62 164.17 111.45
  Q 164.19 115.73 162.05 120.34
  Q 161.41 121.71 161.16 123.23
  Q 160.89 124.89 159.86 126.12
  A 1.80 1.79 35.0 0 0 160.34 128.82
  Q 162.74 130.21 164.76 129.60"
/>
<path stroke="#efa8a4" vector-effect="non-scaling-stroke" d="
  M 164.76 129.60
  Q 164.89 130.04 164.73 130.62
  Q 164.54 131.28 163.99 130.89
  L 163.40 130.47
  Q 163.04 130.22 162.61 130.08
  L 152.83 127.00"
/>
<path stroke="#f06f70" vector-effect="non-scaling-stroke" d="
  M 115.34 137.03
  L 110.83 135.71
  Q 110.28 135.55 110.34 136.12
  Q 111.27 145.71 115.84 154.29
  A 1.20 1.20 0.0 0 0 116.58 154.89
  L 123.15 156.78"
/>
<path stroke="#d07372" vector-effect="non-scaling-stroke" d="
  M 125.30 157.74
  Q 124.31 157.46 123.95 157.75
  Q 123.64 157.99 123.94 158.75
  Q 126.64 165.63 132.56 169.89"
/>
<path stroke="#aa7978" vector-effect="non-scaling-stroke" d="
  M 132.56 169.89
  Q 134.34 170.89 133.70 171.25"
/>
<path stroke="#d07372" vector-effect="non-scaling-stroke" d="
  M 128.62 168.51
  Q 122.33 163.33 117.61 157.03
  Q 116.54 155.60 114.90 154.47
  Q 113.31 153.38 111.91 152.10"
/>
<path stroke="#fc867d" vector-effect="non-scaling-stroke" d="
  M 161.18 108.13
  L 157.33 108.40
  Q 156.82 108.44 156.70 108.94
  C 156.26 110.85 156.63 112.76 156.08 114.58
  Q 155.74 115.73 155.46 116.99
  Q 155.35 117.49 155.00 117.86
  C 154.20 118.68 154.13 119.79 153.47 120.73
  Q 152.60 121.97 151.63 123.12
  A 1.90 1.80 -53.7 0 0 151.98 125.91
  Q 152.25 126.08 152.83 127.00"
/>
<path stroke="#efbcb7" vector-effect="non-scaling-stroke" d="
  M 152.83 127.00
  Q 148.97 125.82 145.13 124.86
  Q 142.90 124.29 141.62 124.48
  Q 141.11 124.56 140.93 125.04
  L 140.01 127.52"
/>
<path stroke="#f06f70" vector-effect="non-scaling-stroke" d="
  M 169.29 82.13
  Q 171.33 86.84 171.50 91.77"
/>
<path stroke="#fd4e49" vector-effect="non-scaling-stroke" d="
  M 151.31 82.98
  Q 150.28 82.74 148.88 83.65
  Q 147.11 84.79 144.99 83.88
  C 144.21 83.56 143.71 83.61 142.92 83.65
  Q 142.56 83.67 142.40 83.36
  Q 142.33 83.22 142.33 83.06
  Q 142.31 82.60 142.76 82.50
  Q 144.25 82.15 143.05 81.90"
/>
<path stroke="#f06f70" vector-effect="non-scaling-stroke" d="
  M 180.14 136.22
  L 165.42 131.43
  A 0.98 0.98 0.0 0 0 164.18 132.07
  Q 161.38 140.74 157.38 149.46
  Q 156.96 150.38 156.00 150.08
  L 136.79 144.01
  Q 135.78 143.69 135.63 144.74
  L 134.02 156.02"
/>
<path stroke="#d07372" vector-effect="non-scaling-stroke" d="
  M 134.02 156.02
  L 133.86 159.53
  A 0.76 0.76 0.0 0 1 132.87 160.21
  L 125.30 157.74"
/>
<path stroke="#e2ddde" vector-effect="non-scaling-stroke" d="
  M 125.30 157.74
  L 123.15 156.78"
/>
<path stroke="#f06f70" vector-effect="non-scaling-stroke" d="
  M 123.15 156.78
  Q 120.90 150.44 120.53 144.53"
/>
<path stroke="#efbcb7" vector-effect="non-scaling-stroke" d="
  M 120.53 144.53
  Q 119.99 140.35 121.38 138.63"
/>
<path stroke="#f06f70" vector-effect="non-scaling-stroke" d="
  M 121.38 138.63
  L 135.79 143.20"
/>
<path stroke="#efbcb7" vector-effect="non-scaling-stroke" d="
  M 135.79 143.20
  L 139.42 128.04"
/>
<path stroke="#fd4e49" vector-effect="non-scaling-stroke" d="
  M 135.79 143.20
  L 135.82 137.66
  Q 135.83 136.43 134.62 136.22
  L 127.64 135.02
  Q 127.13 134.93 126.74 134.59
  L 123.93 132.13
  A 1.42 1.42 0.0 0 0 121.60 132.91
  Q 121.01 135.71 121.38 138.63"
/>
<path stroke="#fd4e49" vector-effect="non-scaling-stroke" d="
  M 120.53 144.53
  L 120.09 139.64
  Q 120.05 139.18 119.71 138.88
  Q 119.42 138.62 119.28 138.17"
/>
<path stroke="#fc867d" vector-effect="non-scaling-stroke" d="
  M 124.14 96.19
  Q 123.01 96.27 122.46 96.62
  Q 121.97 96.93 122.11 97.49
  Q 122.29 98.17 121.69 98.58
  Q 121.36 98.81 121.15 99.15
  Q 119.98 100.97 118.22 102.37"
/>
<path stroke="#fdb9b5" vector-effect="non-scaling-stroke" d="
  M 118.22 102.37
  L 122.31 96.26
  A 0.52 0.51 -62.6 0 0 122.07 95.49
  L 117.99 93.99"
/>
<path stroke="#d07372" vector-effect="non-scaling-stroke" d="
  M 171.89 83.24
  Q 174.12 85.50 176.40 87.35
  Q 178.85 89.34 181.17 95.04"
/>
<path stroke="#f06f70" vector-effect="non-scaling-stroke" d="
  M 181.17 95.04
  Q 181.58 95.77 181.62 96.29
  A 0.49 0.49 0.0 0 1 180.98 96.80
  L 171.94 93.85"
/>
<path stroke="#efbcb7" vector-effect="non-scaling-stroke" d="
  M 127.17 97.13
  Q 128.02 98.07 128.60 98.30
  A 2.13 2.02 -47.5 0 1 128.67 102.05
  Q 126.91 103.03 125.78 104.47
  Q 124.50 106.11 124.37 108.22
  Q 124.23 110.74 123.57 113.28
  Q 123.26 114.47 123.38 115.75
  Q 123.50 116.94 122.52 117.05"
/>
<path stroke="#fc867d" vector-effect="non-scaling-stroke" d="
  M 111.54 118.05
  Q 109.81 121.06 109.63 122.50
  Q 109.32 124.87 109.88 130.29"
/>
<path stroke="#efbcb7" vector-effect="non-scaling-stroke" d="
  M 109.88 130.29
  Q 110.49 132.58 109.91 134.62
  Q 109.78 135.09 109.31 134.95
  L 105.25 133.68"
/>
<path stroke="#fd4e49" vector-effect="non-scaling-stroke" d="
  M 105.08 126.28
  Q 105.45 126.92 105.58 127.93
  Q 105.62 128.28 105.96 128.37
  Q 106.07 128.39 106.21 128.30
  A 0.28 0.27 -16.0 0 1 106.63 128.53
  L 106.63 130.78
  Q 106.63 131.24 107.09 131.21
  Q 108.08 131.14 108.75 132.09
  Q 109.31 132.88 109.24 131.92
  Q 109.20 131.28 109.14 130.63
  Q 109.05 129.75 109.08 128.88
  Q 109.27 123.25 109.48 117.31
  A 0.43 0.41 -14.3 0 1 109.71 116.94
  Q 110.13 116.71 109.84 116.13
  Q 108.77 114.00 106.73 112.59"
/>
<path stroke="#f06f70" vector-effect="non-scaling-stroke" d="
  M 157.84 79.35
  Q 155.95 80.12 153.53 79.78"
/>
<path stroke="#de0503" vector-effect="non-scaling-stroke" d="
  M 185.71 116.30
  Q 185.71 116.08 184.92 116.48"
/>
<path stroke="#f06f70" vector-effect="non-scaling-stroke" d="
  M 184.92 116.48
  Q 185.29 116.46 184.87 115.98
  Q 184.73 115.81 184.50 115.73
  Q 177.75 113.15 170.67 111.23"
/>
<path stroke="#fd3a36" vector-effect="non-scaling-stroke" d="
  M 170.67 111.23
  L 170.15 109.00"
/>
<path stroke="#efa8a4" vector-effect="non-scaling-stroke" d="
  M 110.71 122.53
  L 109.88 130.29"
/>
<path stroke="#f06f70" vector-effect="non-scaling-stroke" d="
  M 169.01 113.88
  L 164.76 129.60"
/>
<path stroke="#d07372" vector-effect="non-scaling-stroke" d="
  M 134.83 160.74
  Q 133.36 162.01 134.19 166.04"
/>
<path stroke="#970f0c" vector-effect="non-scaling-stroke" d="
  M 134.36 167.50
  Q 134.48 170.18 132.56 169.89"
/>
<path stroke="#c06161" vector-effect="non-scaling-stroke" d="
  M 200.30 120.94
  Q 197.99 119.66 195.66 119.39
  Q 195.15 119.34 195.18 119.84
  Q 195.74 130.07 193.05 140.31"
/>
<path stroke="#970f0c" vector-effect="non-scaling-stroke" d="
  M 193.05 140.31
  Q 192.85 140.31 192.27 141.42"
/>
<path stroke="#c06161" vector-effect="non-scaling-stroke" d="
  M 192.27 141.42
  Q 192.42 140.95 192.35 140.45
  Q 192.29 139.94 191.80 139.78
  L 182.21 136.67
  A 0.82 0.81 30.0 0 0 181.36 136.89
  L 181.06 137.22"
/>
<path stroke="#de0503" vector-effect="non-scaling-stroke" d="
  M 181.06 137.22
  Q 180.67 136.64 180.14 136.22"
/>
<path stroke="#d07372" vector-effect="non-scaling-stroke" d="
  M 180.14 136.22
  Q 181.29 136.40 181.43 135.99
  Q 184.63 126.50 184.92 116.48"
/>
<path stroke="#e05d5f" vector-effect="non-scaling-stroke" d="
  M 181.06 137.22
  Q 178.32 145.23 174.02 152.52
  Q 173.21 153.90 171.93 154.88
  Q 171.53 155.19 171.06 155.02
  Q 167.98 153.89 159.26 151.12
  Q 156.54 150.26 155.70 152.96"
/>
<path stroke="#f06f70" vector-effect="non-scaling-stroke" d="
  M 155.70 152.96
  L 153.35 157.10"
/>
<path stroke="#de0503" vector-effect="non-scaling-stroke" d="
  M 153.35 157.10
  Q 151.57 157.76 150.60 159.21
  Q 150.35 159.58 149.91 159.61
  Q 148.73 159.69 148.00 160.73
  Q 147.69 161.18 147.15 161.14
  L 138.13 160.51
  Q 137.67 160.47 137.60 160.93
  L 137.49 161.58"
/>
<path stroke="#f06f70" vector-effect="non-scaling-stroke" d="
  M 137.49 161.58
  Q 136.39 161.48 134.83 160.74"
/>
<path stroke="#de0503" vector-effect="non-scaling-stroke" d="
  M 134.83 160.74
  Q 133.80 159.00 134.02 156.02"
/>
<path stroke="#fecdc8" vector-effect="non-scaling-stroke" d="
  M 118.22 102.37
  Q 115.22 106.60 113.23 112.69
  A 1.44 1.44 0.0 0 1 111.78 113.69
  Q 109.56 113.56 107.13 111.78"
/>
<path stroke="#c06161" vector-effect="non-scaling-stroke" d="
  M 180.12 88.00
  L 188.62 98.37
  A 0.37 0.37 0.0 0 1 188.30 98.98
  Q 185.94 98.78 182.31 97.13"
/>
<path stroke="#de0503" vector-effect="non-scaling-stroke" d="
  M 182.31 97.13
  Q 182.42 96.62 181.17 95.04"
/>
<path stroke="#c06161" vector-effect="non-scaling-stroke" d="
  M 192.09 99.79
  Q 191.81 100.45 190.73 99.92
  Q 190.42 99.77 190.16 99.93
  Q 189.74 100.19 189.97 100.62
  Q 194.29 108.68 195.01 118.04
  A 0.74 0.73 6.0 0 1 194.06 118.80
  L 185.71 116.30"
/>
<path stroke="#e05d5f" vector-effect="non-scaling-stroke" d="
  M 185.71 116.30
  L 185.33 115.78
  A 1.49 1.47 25.5 0 1 185.03 114.95
  Q 184.87 111.97 184.59 109.01
  Q 184.05 103.27 182.31 97.13"
/>
<path stroke="#9a6667" vector-effect="non-scaling-stroke" d="
  M 192.27 141.42
  Q 189.33 150.70 182.93 157.78
  Q 182.59 158.16 182.09 158.09
  L 178.74 157.61"
/>
<path stroke="#c06161" vector-effect="non-scaling-stroke" d="
  M 178.74 157.61
  L 172.65 155.69
  Q 172.16 155.53 171.83 155.92
  L 164.31 164.51"
/>
<path stroke="#9a6667" vector-effect="non-scaling-stroke" d="
  M 164.31 164.51
  L 159.63 168.46
  Q 159.12 168.89 159.75 169.08
  L 165.16 170.67
  A 0.31 0.31 0.0 0 1 165.16 171.27
  L 153.45 174.65"
/>
<path stroke="#c06161" vector-effect="non-scaling-stroke" d="
  M 141.41 173.76
  Q 151.17 173.81 158.17 169.05
  A 0.37 0.36 -53.8 0 0 158.07 168.40
  L 148.87 165.56
  Q 148.39 165.42 148.06 165.79
  C 145.17 169.16 142.31 173.29 137.35 172.77"
/>
<path stroke="#9a6667" vector-effect="non-scaling-stroke" d="
  M 137.10 172.54
  Q 135.17 170.50 134.36 167.50"
/>
<path stroke="#c06161" vector-effect="non-scaling-stroke" d="
  M 134.36 167.50
  L 134.19 166.04"
/>
<path stroke="#d2cbcd" vector-effect="non-scaling-stroke" d="
  M 134.19 166.04
  L 134.22 162.31
  Q 134.22 162.03 134.50 162.06
  Q 134.71 162.08 134.74 162.30
  A 0.36 0.36 0.0 0 0 135.07 162.61
  L 140.78 162.94"
/>
<path stroke="#c06161" vector-effect="non-scaling-stroke" d="
  M 140.78 162.94
  L 147.53 164.89
  A 1.10 1.10 0.0 0 0 148.76 164.44
  L 153.27 157.51"
/>
<path stroke="#d2cbcd" vector-effect="non-scaling-stroke" d="
  M 153.27 157.51
  Q 155.61 156.75 157.02 154.76
  Q 157.30 154.36 157.79 154.30
  Q 159.38 154.09 160.32 152.94
  A 0.44 0.44 0.0 0 0 159.95 152.23
  Q 158.46 152.33 156.87 152.88
  Q 156.75 152.92 156.63 152.91
  Q 156.56 152.91 156.56 152.85
  Q 156.51 152.30 156.31 152.81
  Q 156.03 153.48 155.70 152.96"
/>
<path stroke="#9a6667" vector-effect="non-scaling-stroke" d="
  M 187.10 160.64
  Q 185.23 159.09 182.66 159.11
  Q 182.17 159.12 181.83 159.48
  Q 175.44 166.34 167.24 170.41
  Q 166.78 170.64 166.97 171.12
  Q 167.10 171.47 167.42 171.67
  Q 167.56 171.76 168.40 171.85
  Q 168.94 171.90 169.34 172.33"
/>
<path stroke="#970f0c" vector-effect="non-scaling-stroke" d="
  M 164.31 164.51
  Q 165.23 164.58 165.37 165.02
  Q 165.50 165.44 165.92 165.56
  Q 166.98 165.88 167.98 165.44
  C 171.24 164.03 173.49 161.86 176.05 159.57
  Q 176.43 159.23 176.58 158.74
  Q 176.91 157.70 178.74 157.61"
/>
<path stroke="#9a6667" vector-effect="non-scaling-stroke" d="
  M 198.42 141.85
  L 193.05 140.31"
/>
<path stroke="#d07372" vector-effect="non-scaling-stroke" d="
  M 153.27 157.51
  Q 153.31 157.30 153.35 157.10"
/>
<path stroke="#d07372" vector-effect="non-scaling-stroke" d="
  M 140.78 162.94
  L 137.49 161.58"
/>
</g>
<path fill="#ffffff" d="
  M 153.45 79.11
  Q 153.69 79.32 153.53 79.78
  L 143.05 81.90
  Q 141.06 82.14 140.49 82.75
  Q 139.60 83.70 140.86 84.02
  L 145.30 85.16
  A 0.56 0.55 34.4 0 1 145.49 86.15
  Q 138.83 90.92 134.50 97.92
  A 0.85 0.85 0.0 0 0 135.12 99.21
  Q 137.77 99.53 140.48 100.64
  C 142.09 101.30 143.42 101.28 145.02 101.66
  Q 145.47 101.77 145.82 102.07
  Q 146.86 102.98 148.22 102.65
  Q 148.67 102.54 148.91 102.14
  L 156.48 89.89
  A 1.04 1.04 0.0 0 0 155.81 88.32
  Q 151.34 87.40 147.69 85.86
  A 0.55 0.55 0.0 0 1 147.65 84.86
  L 151.31 82.98
  Q 157.21 80.53 163.03 80.92
  Q 165.53 81.09 163.36 82.33
  Q 159.73 84.42 157.74 88.49
  Q 157.44 89.10 158.06 89.40
  Q 159.93 90.30 161.92 90.66
  Q 165.94 91.39 170.26 93.19
  A 1.09 1.06 40.8 0 0 171.22 93.13
  Q 171.86 92.76 171.50 91.77
  L 171.94 93.85
  L 170.15 109.00
  Q 168.40 111.35 161.18 108.13
  L 149.45 104.34
  Q 148.80 104.12 148.60 104.78
  Q 148.35 105.66 147.75 106.32
  Q 147.11 107.01 146.74 108.19
  Q 145.70 111.52 144.69 114.83
  Q 144.08 116.82 143.23 118.58
  Q 142.31 120.47 141.51 122.31
  A 1.26 1.26 0.0 0 1 140.70 123.01
  Q 139.52 123.33 138.43 122.80
  Q 138.34 122.76 138.35 122.85
  Q 138.36 122.91 138.41 122.92
  Q 139.28 123.13 140.15 123.41
  Q 140.72 123.60 140.62 124.18
  L 140.01 127.52
  Q 139.65 128.07 139.42 128.04
  L 139.68 125.28
  Q 139.84 123.61 138.19 123.34
  Q 131.21 122.16 126.17 119.37
  A 1.66 1.65 26.1 0 0 123.85 120.16
  Q 121.27 126.15 120.88 131.76
  Q 120.77 133.31 120.25 134.72
  Q 119.70 136.16 119.93 137.78
  Q 119.98 138.14 119.61 138.16
  L 119.28 138.17
  L 115.34 137.03
  Q 113.73 135.53 111.73 134.72
  Q 111.11 134.46 111.09 133.79
  L 110.71 122.53
  L 111.54 118.05
  L 112.23 115.83
  Q 112.69 114.33 114.21 114.75
  L 122.52 117.05
  Q 123.38 117.60 123.99 117.03
  Q 124.29 116.75 124.14 117.14
  Q 124.09 117.28 124.12 117.45
  Q 124.21 117.88 124.66 117.85
  Q 124.79 117.85 124.92 117.82
  Q 125.21 117.75 125.15 117.46
  Q 124.71 115.32 125.93 113.94
  Q 126.18 113.65 126.14 113.26
  Q 126.08 112.79 126.20 112.35
  Q 126.29 112.01 126.60 111.84
  Q 127.22 111.51 127.19 110.77
  Q 127.16 110.07 127.41 109.34
  Q 129.27 104.04 132.56 99.94
  A 0.79 0.79 0.0 0 0 132.18 98.69
  L 127.17 97.13
  L 124.14 96.19
  Q 123.34 95.34 123.81 94.80
  Q 129.97 87.79 137.96 84.12
  Q 138.39 83.92 138.34 83.44
  Q 138.14 81.80 139.47 81.10
  Q 146.31 78.99 153.45 79.11
  Z"
/>
<path fill="#e2ddde" d="
  M 153.45 79.11
  L 157.84 79.35
  Q 155.95 80.12 153.53 79.78
  Q 153.69 79.32 153.45 79.11
  Z"
/>
<path fill="#fe0101" d="
  M 157.84 79.35
  Q 163.89 79.99 169.29 82.13
  Q 171.33 86.84 171.50 91.77
  Q 171.86 92.76 171.22 93.13
  A 1.09 1.06 40.8 0 1 170.26 93.19
  Q 165.94 91.39 161.92 90.66
  Q 159.93 90.30 158.06 89.40
  Q 157.44 89.10 157.74 88.49
  Q 159.73 84.42 163.36 82.33
  Q 165.53 81.09 163.03 80.92
  Q 157.21 80.53 151.31 82.98
  Q 150.28 82.74 148.88 83.65
  Q 147.11 84.79 144.99 83.88
  C 144.21 83.56 143.71 83.61 142.92 83.65
  Q 142.56 83.67 142.40 83.36
  Q 142.33 83.22 142.33 83.06
  Q 142.31 82.60 142.76 82.50
  Q 144.25 82.15 143.05 81.90
  L 153.53 79.78
  Q 155.95 80.12 157.84 79.35
  Z"
/>
<rect fill="#fe0101" x="-8.49" y="-8.42" transform="translate(355.99,90.82) rotate(-15.7)" width="16.98" height="16.84" rx="0.79"/>
<path fill="#fb726a" d="
  M 139.47 81.10
  Q 138.14 81.80 138.34 83.44
  Q 138.39 83.92 137.96 84.12
  Q 129.97 87.79 123.81 94.80
  Q 123.34 95.34 124.14 96.19
  Q 123.01 96.27 122.46 96.62
  Q 121.97 96.93 122.11 97.49
  Q 122.29 98.17 121.69 98.58
  Q 121.36 98.81 121.15 99.15
  Q 119.98 100.97 118.22 102.37
  L 122.31 96.26
  A 0.52 0.51 -62.6 0 0 122.07 95.49
  L 117.99 93.99
  Q 126.84 84.38 139.47 81.10
  Z"
/>
<path fill="#fc9a90" d="
  M 143.05 81.90
  Q 144.25 82.15 142.76 82.50
  Q 142.31 82.60 142.33 83.06
  Q 142.33 83.22 142.40 83.36
  Q 142.56 83.67 142.92 83.65
  C 143.71 83.61 144.21 83.56 144.99 83.88
  Q 147.11 84.79 148.88 83.65
  Q 150.28 82.74 151.31 82.98
  L 147.65 84.86
  A 0.55 0.55 0.0 0 0 147.69 85.86
  Q 151.34 87.40 155.81 88.32
  A 1.04 1.04 0.0 0 1 156.48 89.89
  L 148.91 102.14
  Q 148.67 102.54 148.22 102.65
  Q 146.86 102.98 145.82 102.07
  Q 145.47 101.77 145.02 101.66
  C 143.42 101.28 142.09 101.30 140.48 100.64
  Q 137.77 99.53 135.12 99.21
  A 0.85 0.85 0.0 0 1 134.50 97.92
  Q 138.83 90.92 145.49 86.15
  A 0.56 0.55 34.4 0 0 145.30 85.16
  L 140.86 84.02
  Q 139.60 83.70 140.49 82.75
  Q 141.06 82.14 143.05 81.90
  Z"
/>
<path fill="#e2ddde" d="
  M 169.29 82.13
  L 171.89 83.24
  Q 174.12 85.50 176.40 87.35
  Q 178.85 89.34 181.17 95.04
  Q 181.58 95.77 181.62 96.29
  A 0.49 0.49 0.0 0 1 180.98 96.80
  L 171.94 93.85
  L 171.50 91.77
  Q 171.33 86.84 169.29 82.13
  Z"
/>
<path fill="#bd0905" d="
  M 171.89 83.24
  Q 176.65 84.99 180.12 88.00
  L 188.62 98.37
  A 0.37 0.37 0.0 0 1 188.30 98.98
  Q 185.94 98.78 182.31 97.13
  Q 182.42 96.62 181.17 95.04
  Q 178.85 89.34 176.40 87.35
  Q 174.12 85.50 171.89 83.24
  Z"
/>
<path fill="#c2b8bc" d="
  M 180.12 88.00
  Q 187.16 92.74 192.09 99.79
  Q 191.81 100.45 190.73 99.92
  Q 190.42 99.77 190.16 99.93
  Q 189.74 100.19 189.97 100.62
  Q 194.29 108.68 195.01 118.04
  A 0.74 0.73 6.0 0 1 194.06 118.80
  L 185.71 116.30
  L 185.33 115.78
  A 1.49 1.47 25.5 0 1 185.03 114.95
  Q 184.87 111.97 184.59 109.01
  Q 184.05 103.27 182.31 97.13
  Q 185.94 98.78 188.30 98.98
  A 0.37 0.37 0.0 0 0 188.62 98.37
  L 180.12 88.00
  Z"
/>
<path fill="#ffffff" d="
  M 117.99 93.99
  L 122.07 95.49
  A 0.52 0.51 -62.6 0 1 122.31 96.26
  L 118.22 102.37
  Q 115.22 106.60 113.23 112.69
  A 1.44 1.44 0.0 0 1 111.78 113.69
  Q 109.56 113.56 107.13 111.78
  Q 110.78 101.66 117.99 93.99
  Z"
/>
<path fill="#fe0101" d="
  M 171.94 93.85
  L 180.98 96.80
  A 0.49 0.49 0.0 0 0 181.62 96.29
  Q 181.58 95.77 181.17 95.04
  Q 182.42 96.62 182.31 97.13
  Q 184.05 103.27 184.59 109.01
  Q 184.87 111.97 185.03 114.95
  A 1.49 1.47 25.5 0 0 185.33 115.78
  L 185.71 116.30
  Q 185.71 116.08 184.92 116.48
  Q 185.29 116.46 184.87 115.98
  Q 184.73 115.81 184.50 115.73
  Q 177.75 113.15 170.67 111.23
  L 170.15 109.00
  L 171.94 93.85
  Z"
/>
<path fill="#fc9a90" d="
  M 124.14 96.19
  L 127.17 97.13
  Q 128.02 98.07 128.60 98.30
  A 2.13 2.02 -47.5 0 1 128.67 102.05
  Q 126.91 103.03 125.78 104.47
  Q 124.50 106.11 124.37 108.22
  Q 124.23 110.74 123.57 113.28
  Q 123.26 114.47 123.38 115.75
  Q 123.50 116.94 122.52 117.05
  L 114.21 114.75
  Q 112.69 114.33 112.23 115.83
  L 111.54 118.05
  Q 109.81 121.06 109.63 122.50
  Q 109.32 124.87 109.88 130.29
  Q 110.49 132.58 109.91 134.62
  Q 109.78 135.09 109.31 134.95
  L 105.25 133.68
  L 105.08 126.28
  Q 105.45 126.92 105.58 127.93
  Q 105.62 128.28 105.96 128.37
  Q 106.07 128.39 106.21 128.30
  A 0.28 0.27 -16.0 0 1 106.63 128.53
  L 106.63 130.78
  Q 106.63 131.24 107.09 131.21
  Q 108.08 131.14 108.75 132.09
  Q 109.31 132.88 109.24 131.92
  Q 109.20 131.28 109.14 130.63
  Q 109.05 129.75 109.08 128.88
  Q 109.27 123.25 109.48 117.31
  A 0.43 0.41 -14.3 0 1 109.71 116.94
  Q 110.13 116.71 109.84 116.13
  Q 108.77 114.00 106.73 112.59
  L 107.13 111.78
  Q 109.56 113.56 111.78 113.69
  A 1.44 1.44 0.0 0 0 113.23 112.69
  Q 115.22 106.60 118.22 102.37
  Q 119.98 100.97 121.15 99.15
  Q 121.36 98.81 121.69 98.58
  Q 122.29 98.17 122.11 97.49
  Q 121.97 96.93 122.46 96.62
  Q 123.01 96.27 124.14 96.19
  Z"
/>
<path fill="#e2ddde" d="
  M 127.17 97.13
  L 132.18 98.69
  A 0.79 0.79 0.0 0 1 132.56 99.94
  Q 129.27 104.04 127.41 109.34
  Q 127.16 110.07 127.19 110.77
  Q 127.22 111.51 126.60 111.84
  Q 126.29 112.01 126.20 112.35
  Q 126.08 112.79 126.14 113.26
  Q 126.18 113.65 125.93 113.94
  Q 124.71 115.32 125.15 117.46
  Q 125.21 117.75 124.92 117.82
  Q 124.79 117.85 124.66 117.85
  Q 124.21 117.88 124.12 117.45
  Q 124.09 117.28 124.14 117.14
  Q 124.29 116.75 123.99 117.03
  Q 123.38 117.60 122.52 117.05
  Q 123.50 116.94 123.38 115.75
  Q 123.26 114.47 123.57 113.28
  Q 124.23 110.74 124.37 108.22
  Q 124.50 106.11 125.78 104.47
  Q 126.91 103.03 128.67 102.05
  A 2.13 2.02 -47.5 0 0 128.60 98.30
  Q 128.02 98.07 127.17 97.13
  Z"
/>
<path fill="#bd0905" d="
  M 192.09 99.79
  Q 198.95 109.22 200.30 120.94
  Q 197.99 119.66 195.66 119.39
  Q 195.15 119.34 195.18 119.84
  Q 195.74 130.07 193.05 140.31
  Q 192.85 140.31 192.27 141.42
  Q 192.42 140.95 192.35 140.45
  Q 192.29 139.94 191.80 139.78
  L 182.21 136.67
  A 0.82 0.81 30.0 0 0 181.36 136.89
  L 181.06 137.22
  Q 180.67 136.64 180.14 136.22
  Q 181.29 136.40 181.43 135.99
  Q 184.63 126.50 184.92 116.48
  Q 185.71 116.08 185.71 116.30
  L 194.06 118.80
  A 0.74 0.73 6.0 0 0 195.01 118.04
  Q 194.29 108.68 189.97 100.62
  Q 189.74 100.19 190.16 99.93
  Q 190.42 99.77 190.73 99.92
  Q 191.81 100.45 192.09 99.79
  Z"
/>
<path fill="#fc9a90" d="
  M 161.18 108.13
  L 157.33 108.40
  Q 156.82 108.44 156.70 108.94
  C 156.26 110.85 156.63 112.76 156.08 114.58
  Q 155.74 115.73 155.46 116.99
  Q 155.35 117.49 155.00 117.86
  C 154.20 118.68 154.13 119.79 153.47 120.73
  Q 152.60 121.97 151.63 123.12
  A 1.90 1.80 -53.7 0 0 151.98 125.91
  Q 152.25 126.08 152.83 127.00
  Q 148.97 125.82 145.13 124.86
  Q 142.90 124.29 141.62 124.48
  Q 141.11 124.56 140.93 125.04
  L 140.01 127.52
  L 140.62 124.18
  Q 140.72 123.60 140.15 123.41
  Q 139.28 123.13 138.41 122.92
  Q 138.36 122.91 138.35 122.85
  Q 138.34 122.76 138.43 122.80
  Q 139.52 123.33 140.70 123.01
  A 1.26 1.26 0.0 0 0 141.51 122.31
  Q 142.31 120.47 143.23 118.58
  Q 144.08 116.82 144.69 114.83
  Q 145.70 111.52 146.74 108.19
  Q 147.11 107.01 147.75 106.32
  Q 148.35 105.66 148.60 104.78
  Q 148.80 104.12 149.45 104.34
  L 161.18 108.13
  Z"
/>
<path fill="#ffffff" d="
  M 414.73 151.68
  L 406.46 151.78
  Q 405.61 151.79 405.83 150.97
  L 406.09 149.98
  Q 406.33 149.08 407.27 149.08
  L 428.55 149.12
  A 0.69 0.69 0.0 0 1 429.23 149.80
  C 429.38 167.58 416.16 175.92 399.77 173.73
  C 386.44 171.94 377.36 161.17 374.99 148.06
  Q 373.11 137.59 376.55 128.06
  Q 383.12 109.83 402.02 107.89
  C 411.82 106.88 417.44 110.33 424.67 116.44
  Q 425.26 116.94 425.26 117.70
  L 425.26 126.33
  Q 425.26 127.03 424.59 127.25
  Q 423.97 127.45 423.34 127.33
  Q 422.82 127.24 422.65 126.74
  C 419.30 116.74 414.99 109.84 402.96 110.41
  C 390.24 111.01 388.66 121.31 388.54 131.46
  Q 388.43 141.01 388.56 150.53
  C 388.66 158.19 389.74 168.08 398.62 170.68
  Q 404.11 172.30 409.17 170.55
  C 416.15 168.15 415.07 158.11 415.42 152.41
  Q 415.47 151.67 414.73 151.68
  Z"
/>
<path fill="#ffffff" d="
  M 241.07 154.28
  A 0.54 0.53 -9.0 0 0 240.56 153.92
  L 221.21 153.97
  Q 220.62 153.97 220.42 154.54
  L 214.56 171.52
  A 2.26 2.25 5.5 0 1 212.73 173.02
  L 212.24 173.09
  Q 210.78 173.30 211.27 171.90
  Q 222.23 140.75 232.85 110.36
  Q 233.87 107.45 236.34 108.24
  Q 236.83 108.39 237.05 108.85
  Q 237.66 110.18 238.17 111.58
  Q 248.59 140.58 258.89 169.37
  A 1.69 1.69 0.0 0 0 260.48 170.49
  L 265.92 170.49
  A 1.18 1.17 -6.5 0 1 267.07 171.40
  L 267.16 171.78
  A 0.98 0.97 83.4 0 1 266.22 172.98
  L 248.02 173.05
  Q 247.46 173.05 247.28 172.52
  L 241.07 154.28
  Z
  M 221.76 150.57
  A 0.56 0.56 0.0 0 0 222.29 151.31
  L 239.25 151.31
  A 0.56 0.56 0.0 0 0 239.78 150.57
  L 231.30 125.99
  A 0.56 0.56 0.0 0 0 230.24 125.99
  L 221.76 150.57
  Z"
/>
<path fill="#ffffff" d="
  M 461.57 153.93
  L 442.33 153.95
  A 0.95 0.94 -80.4 0 0 441.44 154.59
  L 435.62 171.56
  A 2.19 2.17 -85.3 0 1 433.94 173.00
  L 432.99 173.17
  Q 431.80 173.38 432.20 172.24
  L 454.18 109.57
  Q 454.70 108.10 456.26 108.07
  Q 457.95 108.04 458.51 109.60
  Q 469.50 140.12 480.01 169.57
  A 1.38 1.38 0.0 0 0 481.31 170.48
  L 487.25 170.49
  A 0.76 0.75 90.0 0 1 488.00 171.25
  L 487.99 172.00
  A 1.00 0.99 -89.7 0 1 487.00 172.99
  L 469.04 173.03
  Q 468.52 173.03 468.35 172.53
  L 462.15 154.34
  Q 462.01 153.92 461.57 153.93
  Z
  M 442.78 150.62
  A 0.50 0.50 0.0 0 0 443.26 151.29
  L 460.37 151.32
  A 0.50 0.50 0.0 0 0 460.85 150.66
  L 452.33 125.84
  A 0.50 0.50 0.0 0 0 451.39 125.84
  L 442.78 150.62
  Z"
/>
<path fill="#fb726a" d="
  M 161.18 108.13
  Q 168.40 111.35 170.15 109.00
  L 170.67 111.23
  Q 169.65 110.76 169.01 113.88
  Q 169.06 112.23 168.58 111.27
  Q 168.25 110.62 167.52 110.62
  L 165.00 110.62
  Q 164.16 110.62 164.17 111.45
  Q 164.19 115.73 162.05 120.34
  Q 161.41 121.71 161.16 123.23
  Q 160.89 124.89 159.86 126.12
  A 1.80 1.79 35.0 0 0 160.34 128.82
  Q 162.74 130.21 164.76 129.60
  Q 164.89 130.04 164.73 130.62
  Q 164.54 131.28 163.99 130.89
  L 163.40 130.47
  Q 163.04 130.22 162.61 130.08
  L 152.83 127.00
  Q 152.25 126.08 151.98 125.91
  A 1.90 1.80 -53.7 0 1 151.63 123.12
  Q 152.60 121.97 153.47 120.73
  C 154.13 119.79 154.20 118.68 155.00 117.86
  Q 155.35 117.49 155.46 116.99
  Q 155.74 115.73 156.08 114.58
  C 156.63 112.76 156.26 110.85 156.70 108.94
  Q 156.82 108.44 157.33 108.40
  L 161.18 108.13
  Z"
/>
<path fill="#ffffff" d="
  M 273.34 113.17
  A 0.34 0.34 0.0 0 0 272.88 113.49
  L 272.84 171.89
  Q 272.83 172.86 271.87 172.97
  L 270.79 173.09
  A 0.80 0.80 0.0 0 1 269.90 172.29
  L 269.95 112.74
  Q 269.95 112.27 269.49 112.27
  L 261.46 112.27
  Q 260.39 112.27 260.52 111.21
  L 260.58 110.70
  Q 260.71 109.61 261.80 109.61
  L 284.30 109.58
  A 1.18 1.18 0.0 0 1 285.43 110.42
  L 297.49 150.26
  Q 298.33 153.06 299.19 150.26
  L 311.34 110.68
  Q 311.68 109.57 312.84 109.57
  L 325.82 109.60
  Q 326.54 109.60 326.54 110.32
  L 326.54 169.51
  A 0.98 0.97 90.0 0 0 327.51 170.49
  L 335.10 170.48
  Q 336.02 170.48 336.01 171.40
  L 336.01 171.87
  Q 336.00 172.98 334.88 172.99
  L 314.51 173.05
  Q 314.00 173.05 314.00 172.54
  Q 313.97 147.34 314.02 122.97
  Q 314.03 118.27 314.36 113.41
  A 0.25 0.25 0.0 0 0 313.94 113.20
  Q 313.61 113.49 313.48 113.91
  Q 304.46 142.66 295.75 171.20
  Q 295.19 173.03 293.29 173.26
  A 1.77 1.76 -12.1 0 1 291.40 172.04
  Q 282.19 142.38 273.81 113.69
  Q 273.70 113.31 273.34 113.17
  Z"
/>
<path fill="#ffffff" d="
  M 360.25 112.91
  L 360.24 169.93
  A 0.57 0.57 0.0 0 0 360.81 170.50
  L 368.96 170.48
  A 0.57 0.57 0.0 0 1 369.54 171.06
  L 369.52 172.47
  A 0.57 0.57 0.0 0 1 368.95 173.04
  L 339.04 173.02
  A 0.57 0.57 0.0 0 1 338.48 172.32
  L 338.81 170.92
  A 0.57 0.57 0.0 0 1 339.36 170.48
  L 347.05 170.45
  A 0.57 0.57 0.0 0 0 347.62 169.88
  L 347.64 110.16
  A 0.57 0.57 0.0 0 1 348.21 109.59
  L 369.00 109.69
  A 0.57 0.57 0.0 0 1 369.57 110.28
  L 369.51 111.75
  A 0.57 0.57 0.0 0 1 368.94 112.30
  L 360.82 112.34
  A 0.57 0.57 0.0 0 0 360.25 112.91
  Z"
/>
<path fill="#fe0101" d="
  M 169.01 113.88
  L 164.76 129.60
  Q 162.74 130.21 160.34 128.82
  A 1.80 1.79 35.0 0 1 159.86 126.12
  Q 160.89 124.89 161.16 123.23
  Q 161.41 121.71 162.05 120.34
  Q 164.19 115.73 164.17 111.45
  Q 164.16 110.62 165.00 110.62
  L 167.52 110.62
  Q 168.25 110.62 168.58 111.27
  Q 169.06 112.23 169.01 113.88
  Z"
/>
<path fill="#e2ddde" d="
  M 170.67 111.23
  Q 177.75 113.15 184.50 115.73
  Q 184.73 115.81 184.87 115.98
  Q 185.29 116.46 184.92 116.48
  Q 184.63 126.50 181.43 135.99
  Q 181.29 136.40 180.14 136.22
  L 165.42 131.43
  A 0.98 0.98 0.0 0 0 164.18 132.07
  Q 161.38 140.74 157.38 149.46
  Q 156.96 150.38 156.00 150.08
  L 136.79 144.01
  Q 135.78 143.69 135.63 144.74
  L 134.02 156.02
  L 133.86 159.53
  A 0.76 0.76 0.0 0 1 132.87 160.21
  L 125.30 157.74
  L 123.15 156.78
  Q 120.90 150.44 120.53 144.53
  Q 119.99 140.35 121.38 138.63
  L 135.79 143.20
  L 139.42 128.04
  Q 139.65 128.07 140.01 127.52
  L 140.93 125.04
  Q 141.11 124.56 141.62 124.48
  Q 142.90 124.29 145.13 124.86
  Q 148.97 125.82 152.83 127.00
  L 162.61 130.08
  Q 163.04 130.22 163.40 130.47
  L 163.99 130.89
  Q 164.54 131.28 164.73 130.62
  Q 164.89 130.04 164.76 129.60
  L 169.01 113.88
  Q 169.65 110.76 170.67 111.23
  Z"
/>
<path fill="#fe0101" d="
  M 106.73 112.59
  Q 108.77 114.00 109.84 116.13
  Q 110.13 116.71 109.71 116.94
  A 0.43 0.41 -14.3 0 0 109.48 117.31
  Q 109.27 123.25 109.08 128.88
  Q 109.05 129.75 109.14 130.63
  Q 109.20 131.28 109.24 131.92
  Q 109.31 132.88 108.75 132.09
  Q 108.08 131.14 107.09 131.21
  Q 106.63 131.24 106.63 130.78
  L 106.63 128.53
  A 0.28 0.27 -16.0 0 0 106.21 128.30
  Q 106.07 128.39 105.96 128.37
  Q 105.62 128.28 105.58 127.93
  Q 105.45 126.92 105.08 126.28
  Q 104.43 119.14 106.73 112.59
  Z"
/>
<path fill="#fb726a" d="
  M 111.54 118.05
  L 110.71 122.53
  L 109.88 130.29
  Q 109.32 124.87 109.63 122.50
  Q 109.81 121.06 111.54 118.05
  Z"
/>
<path fill="#fc9a90" d="
  M 139.42 128.04
  L 135.79 143.20
  L 135.82 137.66
  Q 135.83 136.43 134.62 136.22
  L 127.64 135.02
  Q 127.13 134.93 126.74 134.59
  L 123.93 132.13
  A 1.42 1.42 0.0 0 0 121.60 132.91
  Q 121.01 135.71 121.38 138.63
  Q 119.99 140.35 120.53 144.53
  L 120.09 139.64
  Q 120.05 139.18 119.71 138.88
  Q 119.42 138.62 119.28 138.17
  L 119.61 138.16
  Q 119.98 138.14 119.93 137.78
  Q 119.70 136.16 120.25 134.72
  Q 120.77 133.31 120.88 131.76
  Q 121.27 126.15 123.85 120.16
  A 1.66 1.65 26.1 0 1 126.17 119.37
  Q 131.21 122.16 138.19 123.34
  Q 139.84 123.61 139.68 125.28
  L 139.42 128.04
  Z"
/>
<path fill="#c2b8bc" d="
  M 200.30 120.94
  Q 201.35 131.90 198.42 141.85
  L 193.05 140.31
  Q 195.74 130.07 195.18 119.84
  Q 195.15 119.34 195.66 119.39
  Q 197.99 119.66 200.30 120.94
  Z"
/>
<path fill="#e2ddde" d="
  M 110.71 122.53
  L 111.09 133.79
  Q 111.11 134.46 111.73 134.72
  Q 113.73 135.53 115.34 137.03
  L 110.83 135.71
  Q 110.28 135.55 110.34 136.12
  Q 111.27 145.71 115.84 154.29
  A 1.20 1.20 0.0 0 0 116.58 154.89
  L 123.15 156.78
  L 125.30 157.74
  Q 124.31 157.46 123.95 157.75
  Q 123.64 157.99 123.94 158.75
  Q 126.64 165.63 132.56 169.89
  Q 134.34 170.89 133.70 171.25
  L 128.62 168.51
  Q 122.33 163.33 117.61 157.03
  Q 116.54 155.60 114.90 154.47
  Q 113.31 153.38 111.91 152.10
  Q 106.45 143.73 105.25 133.68
  L 109.31 134.95
  Q 109.78 135.09 109.91 134.62
  Q 110.49 132.58 109.88 130.29
  L 110.71 122.53
  Z"
/>
<path fill="#fe0101" d="
  M 180.14 136.22
  Q 180.67 136.64 181.06 137.22
  Q 178.32 145.23 174.02 152.52
  Q 173.21 153.90 171.93 154.88
  Q 171.53 155.19 171.06 155.02
  Q 167.98 153.89 159.26 151.12
  Q 156.54 150.26 155.70 152.96
  L 153.35 157.10
  Q 151.57 157.76 150.60 159.21
  Q 150.35 159.58 149.91 159.61
  Q 148.73 159.69 148.00 160.73
  Q 147.69 161.18 147.15 161.14
  L 138.13 160.51
  Q 137.67 160.47 137.60 160.93
  L 137.49 161.58
  Q 136.39 161.48 134.83 160.74
  Q 133.80 159.00 134.02 156.02
  L 135.63 144.74
  Q 135.78 143.69 136.79 144.01
  L 156.00 150.08
  Q 156.96 150.38 157.38 149.46
  Q 161.38 140.74 164.18 132.07
  A 0.98 0.98 0.0 0 1 165.42 131.43
  L 180.14 136.22
  Z"
/>
<path fill="#fe0101" d="
  M 135.79 143.20
  L 121.38 138.63
  Q 121.01 135.71 121.60 132.91
  A 1.42 1.42 0.0 0 1 123.93 132.13
  L 126.74 134.59
  Q 127.13 134.93 127.64 135.02
  L 134.62 136.22
  Q 135.83 136.43 135.82 137.66
  L 135.79 143.20
  Z"
/>
<path fill="#fe0101" d="
  M 115.34 137.03
  L 119.28 138.17
  Q 119.42 138.62 119.71 138.88
  Q 120.05 139.18 120.09 139.64
  L 120.53 144.53
  Q 120.90 150.44 123.15 156.78
  L 116.58 154.89
  A 1.20 1.20 0.0 0 1 115.84 154.29
  Q 111.27 145.71 110.34 136.12
  Q 110.28 135.55 110.83 135.71
  L 115.34 137.03
  Z"
/>
<path fill="#c2b8bc" d="
  M 192.27 141.42
  Q 189.33 150.70 182.93 157.78
  Q 182.59 158.16 182.09 158.09
  L 178.74 157.61
  L 172.65 155.69
  Q 172.16 155.53 171.83 155.92
  L 164.31 164.51
  L 159.63 168.46
  Q 159.12 168.89 159.75 169.08
  L 165.16 170.67
  A 0.31 0.31 0.0 0 1 165.16 171.27
  L 153.45 174.65
  Q 147.21 175.64 141.41 173.76
  Q 151.17 173.81 158.17 169.05
  A 0.37 0.36 -53.8 0 0 158.07 168.40
  L 148.87 165.56
  Q 148.39 165.42 148.06 165.79
  C 145.17 169.16 142.31 173.29 137.35 172.77
  Q 137.22 172.66 137.10 172.54
  Q 135.17 170.50 134.36 167.50
  L 134.19 166.04
  L 134.22 162.31
  Q 134.22 162.03 134.50 162.06
  Q 134.71 162.08 134.74 162.30
  A 0.36 0.36 0.0 0 0 135.07 162.61
  L 140.78 162.94
  L 147.53 164.89
  A 1.10 1.10 0.0 0 0 148.76 164.44
  L 153.27 157.51
  Q 155.61 156.75 157.02 154.76
  Q 157.30 154.36 157.79 154.30
  Q 159.38 154.09 160.32 152.94
  A 0.44 0.44 0.0 0 0 159.95 152.23
  Q 158.46 152.33 156.87 152.88
  Q 156.75 152.92 156.63 152.91
  Q 156.56 152.91 156.56 152.85
  Q 156.51 152.30 156.31 152.81
  Q 156.03 153.48 155.70 152.96
  Q 156.54 150.26 159.26 151.12
  Q 167.98 153.89 171.06 155.02
  Q 171.53 155.19 171.93 154.88
  Q 173.21 153.90 174.02 152.52
  Q 178.32 145.23 181.06 137.22
  L 181.36 136.89
  A 0.82 0.81 30.0 0 1 182.21 136.67
  L 191.80 139.78
  Q 192.29 139.94 192.35 140.45
  Q 192.42 140.95 192.27 141.42
  Z"
/>
<path fill="#711412" d="
  M 193.05 140.31
  L 198.42 141.85
  Q 194.93 153.11 187.10 160.64
  Q 185.23 159.09 182.66 159.11
  Q 182.17 159.12 181.83 159.48
  Q 175.44 166.34 167.24 170.41
  Q 166.78 170.64 166.97 171.12
  Q 167.10 171.47 167.42 171.67
  Q 167.56 171.76 168.40 171.85
  Q 168.94 171.90 169.34 172.33
  Q 161.50 175.85 153.45 174.65
  L 165.16 171.27
  A 0.31 0.31 0.0 0 0 165.16 170.67
  L 159.75 169.08
  Q 159.12 168.89 159.63 168.46
  L 164.31 164.51
  Q 165.23 164.58 165.37 165.02
  Q 165.50 165.44 165.92 165.56
  Q 166.98 165.88 167.98 165.44
  C 171.24 164.03 173.49 161.86 176.05 159.57
  Q 176.43 159.23 176.58 158.74
  Q 176.91 157.70 178.74 157.61
  L 182.09 158.09
  Q 182.59 158.16 182.93 157.78
  Q 189.33 150.70 192.27 141.42
  Q 192.85 140.31 193.05 140.31
  Z"
/>
<path fill="#bd0905" d="
  M 111.91 152.10
  Q 113.31 153.38 114.90 154.47
  Q 116.54 155.60 117.61 157.03
  Q 122.33 163.33 128.62 168.51
  Q 122.52 165.11 119.75 162.63
  Q 115.51 158.83 111.91 152.10
  Z"
/>
<path fill="#e2ddde" d="
  M 153.27 157.51
  Q 153.31 157.30 153.35 157.10
  L 155.70 152.96
  Q 156.03 153.48 156.31 152.81
  Q 156.51 152.30 156.56 152.85
  Q 156.56 152.91 156.63 152.91
  Q 156.75 152.92 156.87 152.88
  Q 158.46 152.33 159.95 152.23
  A 0.44 0.44 0.0 0 1 160.32 152.94
  Q 159.38 154.09 157.79 154.30
  Q 157.30 154.36 157.02 154.76
  Q 155.61 156.75 153.27 157.51
  Z"
/>
<path fill="#bd0905" d="
  M 178.74 157.61
  Q 176.91 157.70 176.58 158.74
  Q 176.43 159.23 176.05 159.57
  C 173.49 161.86 171.24 164.03 167.98 165.44
  Q 166.98 165.88 165.92 165.56
  Q 165.50 165.44 165.37 165.02
  Q 165.23 164.58 164.31 164.51
  L 171.83 155.92
  Q 172.16 155.53 172.65 155.69
  L 178.74 157.61
  Z"
/>
<path fill="#bd0905" d="
  M 134.02 156.02
  Q 133.80 159.00 134.83 160.74
  Q 133.36 162.01 134.19 166.04
  L 134.36 167.50
  Q 134.48 170.18 132.56 169.89
  Q 126.64 165.63 123.94 158.75
  Q 123.64 157.99 123.95 157.75
  Q 124.31 157.46 125.30 157.74
  L 132.87 160.21
  A 0.76 0.76 0.0 0 0 133.86 159.53
  L 134.02 156.02
  Z"
/>
<path fill="#bd0905" d="
  M 153.35 157.10
  Q 153.31 157.30 153.27 157.51
  L 148.76 164.44
  A 1.10 1.10 0.0 0 1 147.53 164.89
  L 140.78 162.94
  L 137.49 161.58
  L 137.60 160.93
  Q 137.67 160.47 138.13 160.51
  L 147.15 161.14
  Q 147.69 161.18 148.00 160.73
  Q 148.73 159.69 149.91 159.61
  Q 150.35 159.58 150.60 159.21
  Q 151.57 157.76 153.35 157.10
  Z"
/>
<path fill="#c2b8bc" d="
  M 187.10 160.64
  Q 179.06 168.54 169.34 172.33
  Q 168.94 171.90 168.40 171.85
  Q 167.56 171.76 167.42 171.67
  Q 167.10 171.47 166.97 171.12
  Q 166.78 170.64 167.24 170.41
  Q 175.44 166.34 181.83 159.48
  Q 182.17 159.12 182.66 159.11
  Q 185.23 159.09 187.10 160.64
  Z"
/>
<path fill="#e2ddde" d="
  M 134.83 160.74
  Q 136.39 161.48 137.49 161.58
  L 140.78 162.94
  L 135.07 162.61
  A 0.36 0.36 0.0 0 1 134.74 162.30
  Q 134.71 162.08 134.50 162.06
  Q 134.22 162.03 134.22 162.31
  L 134.19 166.04
  Q 133.36 162.01 134.83 160.74
  Z"
/>
<path fill="#bd0905" d="
  M 141.41 173.76
  Q 139.02 173.47 135.66 172.80
  Q 135.62 172.79 135.60 172.81
  Q 135.58 172.82 135.61 172.86
  Q 135.62 172.86 135.65 172.86
  Q 136.46 172.94 137.35 172.77
  C 142.31 173.29 145.17 169.16 148.06 165.79
  Q 148.39 165.42 148.87 165.56
  L 158.07 168.40
  A 0.37 0.36 -53.8 0 1 158.17 169.05
  Q 151.17 173.81 141.41 173.76
  Z"
/>
<path fill="#711412" d="
  M 134.36 167.50
  Q 135.17 170.50 137.10 172.54
  Q 135.31 172.18 133.70 171.25
  Q 134.34 170.89 132.56 169.89
  Q 134.48 170.18 134.36 167.50
  Z"
/>
</svg>
