<?xml version="1.0" encoding="UTF-8" standalone="no"?>
<!DOCTYPE svg PUBLIC "-//W3C//DTD SVG 1.1//EN" "http://www.w3.org/Graphics/SVG/1.1/DTD/svg11.dtd">
<svg xmlns="http://www.w3.org/2000/svg" version="1.1" viewBox="0.00 0.00 590.00 255.00">
<g stroke-width="2.00" fill="none" stroke-linecap="butt">
<path stroke="#f5988f" vector-effect="non-scaling-stroke" d="
  M 87.97 84.92
  Q 86.72 84.65 85.85 85.22
  Q 85.45 85.49 84.96 85.45
  Q 80.36 85.06 76.24 87.02"
/>
<path stroke="#fe837a" vector-effect="non-scaling-stroke" d="
  M 76.24 87.02
  L 71.03 89.03"
/>
<path stroke="#ffa8a1" vector-effect="non-scaling-stroke" d="
  M 71.03 89.03
  L 67.08 87.75
  A 0.63 0.63 0.0 0 1 67.03 86.57
  Q 70.32 85.18 73.38 84.91
  Q 75.51 84.72 73.56 83.85
  Q 73.19 83.68 71.78 83.97"
/>
<path stroke="#fedad8" vector-effect="non-scaling-stroke" d="
  M 71.03 89.03
  Q 71.34 89.88 70.90 90.14
  Q 66.28 92.83 63.54 97.47
  Q 62.52 99.21 64.26 100.23
  C 64.88 100.59 65.23 100.94 65.98 101.08
  C 67.64 101.38 68.79 102.42 70.43 102.74
  Q 71.88 103.02 73.18 103.71
  A 0.83 0.82 -58.6 0 0 74.25 103.45
  Q 77.60 98.59 79.88 94.63
  Q 80.13 94.21 81.32 93.26"
/>
<path stroke="#f5efee" vector-effect="non-scaling-stroke" d="
  M 81.32 93.26
  Q 81.90 93.42 82.48 93.18"
/>
<path stroke="#ff8080" vector-effect="non-scaling-stroke" d="
  M 82.48 93.18
  L 93.28 96.36
  Q 93.82 96.52 94.14 96.04
  Q 94.67 95.25 94.11 94.02"
/>
<path stroke="#f5efee" vector-effect="non-scaling-stroke" d="
  M 94.11 94.02
  Q 94.55 93.40 94.38 92.48
  A 0.01 0.01 0.0 0 0 94.36 92.48
  Q 93.98 95.44 95.06 96.94"
/>
<path stroke="#ff8080" vector-effect="non-scaling-stroke" d="
  M 95.06 96.94
  Q 94.43 97.02 94.38 98.00
  Q 93.98 105.04 92.94 110.83"
/>
<path stroke="#ffa8a1" vector-effect="non-scaling-stroke" d="
  M 92.94 110.83
  Q 92.35 112.75 87.02 110.35"
/>
<path stroke="#fedad8" vector-effect="non-scaling-stroke" d="
  M 87.02 110.35
  L 74.53 106.70
  A 0.97 0.97 0.0 0 0 73.32 107.39
  Q 72.60 110.23 71.88 113.18
  Q 70.77 117.74 67.12 122.69
  Q 66.77 123.17 66.19 123.02
  L 53.20 119.67
  A 1.86 1.86 0.0 0 0 50.94 121.02
  L 49.17 128.26"
/>
<path stroke="#ffa8a1" vector-effect="non-scaling-stroke" d="
  M 49.17 128.26
  Q 48.52 131.99 48.38 135.88
  Q 48.35 136.59 47.46 136.82"
/>
<path stroke="#ff8080" vector-effect="non-scaling-stroke" d="
  M 47.46 136.82
  L 41.48 134.70"
/>
<path stroke="#ffa8a1" vector-effect="non-scaling-stroke" d="
  M 41.48 134.70
  Q 39.23 134.34 39.12 133.13
  Q 38.42 124.84 40.91 115.73"
/>
<path stroke="#fedad8" vector-effect="non-scaling-stroke" d="
  M 40.91 115.73
  C 42.94 115.14 47.92 117.14 50.19 117.81
  A 1.20 1.20 0.0 0 0 51.72 116.80
  L 52.53 109.93
  A 0.81 0.71 70.9 0 1 52.66 109.61
  Q 53.42 108.55 53.60 107.31
  Q 53.74 106.30 54.69 105.82
  Q 56.85 104.71 58.22 102.71
  A 0.99 0.99 0.0 0 0 57.96 101.32
  Q 55.46 99.64 52.20 99.30
  A 1.09 1.09 0.0 0 1 51.58 97.41
  Q 55.13 94.15 58.68 91.20
  Q 59.63 90.41 60.90 89.72
  C 62.09 89.06 63.29 88.88 64.27 87.89
  Q 64.60 87.55 64.34 87.16
  Q 63.92 86.54 64.29 85.67"
/>
<path stroke="#f4706e" vector-effect="non-scaling-stroke" d="
  M 89.00 85.32
  Q 84.88 87.63 82.87 90.12
  Q 81.55 91.77 82.48 93.18"
/>
<path stroke="#f4cac7" vector-effect="non-scaling-stroke" d="
  M 81.32 93.26
  Q 81.32 92.12 80.25 91.94
  Q 76.79 91.36 73.51 89.86
  A 0.67 0.67 0.0 0 1 73.45 88.68
  L 76.24 87.02"
/>
<path stroke="#f4706e" vector-effect="non-scaling-stroke" d="
  M 91.94 86.27
  Q 94.19 89.95 94.11 94.02"
/>
<path stroke="#e50201" vector-effect="non-scaling-stroke" d="
  M 106.15 116.01
  Q 105.89 116.05 105.70 116.46"
/>
<path stroke="#f4706e" vector-effect="non-scaling-stroke" d="
  M 105.70 116.46
  L 93.28 112.28"
/>
<path stroke="#ff2821" vector-effect="non-scaling-stroke" d="
  M 93.28 112.28
  Q 93.68 112.30 92.94 110.83"
/>
<path stroke="#ca0605" vector-effect="non-scaling-stroke" d="
  M 47.80 156.02
  L 47.88 156.60
  Q 47.97 157.19 47.44 156.92
  L 45.52 155.93"
/>
<path stroke="#ff2821" vector-effect="non-scaling-stroke" d="
  M 41.48 134.70
  Q 40.09 134.32 39.85 135.51
  Q 39.56 136.98 39.65 138.53"
/>
<path stroke="#f5988f" vector-effect="non-scaling-stroke" d="
  M 39.65 138.53
  L 39.05 134.92
  Q 38.96 134.41 38.56 134.10
  Q 35.81 131.94 34.69 133.78"
/>
<path stroke="#fe837a" vector-effect="non-scaling-stroke" d="
  M 87.02 110.35
  L 82.60 110.30
  Q 82.00 110.30 82.03 110.90
  Q 82.14 112.77 82.76 114.61
  Q 83.43 116.60 82.92 118.30
  Q 82.43 119.93 81.77 121.59
  Q 81.57 122.11 81.02 122.10
  Q 80.33 122.08 79.68 122.35
  Q 78.88 122.67 78.50 123.29
  Q 77.98 124.15 76.92 123.83
  A 0.81 0.80 25.2 0 0 76.01 124.15
  Q 75.81 124.47 75.46 124.46
  Q 74.71 124.43 75.20 125.01
  Q 75.51 125.39 75.84 125.78"
/>
<path stroke="#f4cac7" vector-effect="non-scaling-stroke" d="
  M 75.84 125.78
  Q 72.58 125.09 69.45 124.19
  Q 65.67 123.10 65.65 126.77
  Q 65.65 127.70 65.30 128.20
  Q 65.08 128.52 64.97 128.89
  L 63.74 133.30"
/>
<path stroke="#fe837a" vector-effect="non-scaling-stroke" d="
  M 63.74 133.30
  L 63.37 129.70
  A 0.59 0.58 -2.7 0 0 62.78 129.17
  Q 60.16 129.15 58.02 128.04
  C 57.51 127.77 57.08 127.86 56.53 127.87
  Q 56.04 127.89 55.65 127.58
  Q 54.12 126.37 52.16 125.70
  A 1.54 1.43 9.6 0 0 50.13 127.03
  Q 50.14 127.49 49.17 128.26"
/>
<path stroke="#fe837a" vector-effect="non-scaling-stroke" d="
  M 40.91 115.73
  Q 40.88 115.38 40.69 115.01"
/>
<path stroke="#fedad8" vector-effect="non-scaling-stroke" d="
  M 40.69 115.01
  Q 41.27 114.58 41.48 113.99
  Q 44.49 105.87 49.96 99.35
  A 0.90 0.90 0.0 0 0 49.52 97.91
  L 46.16 96.95"
/>
<path stroke="#db726f" vector-effect="non-scaling-stroke" d="
  M 93.55 86.78
  Q 95.81 88.90 98.23 90.77
  Q 101.31 93.14 103.13 98.74
  Q 103.28 99.21 103.66 99.52
  Q 103.96 99.77 104.06 100.02"
/>
<path stroke="#cbc2c0" vector-effect="non-scaling-stroke" d="
  M 104.06 100.02
  Q 103.73 100.09 103.80 100.23"
/>
<path stroke="#f4706e" vector-effect="non-scaling-stroke" d="
  M 103.80 100.23
  L 95.06 96.94"
/>
<path stroke="#ff2821" vector-effect="non-scaling-stroke" d="
  M 48.30 137.28
  L 47.46 136.82"
/>
<path stroke="#f5988f" vector-effect="non-scaling-stroke" d="
  M 93.28 112.28
  Q 93.12 112.37 92.89 112.38
  Q 92.54 112.39 92.47 112.74
  Q 90.75 121.38 88.03 129.51
  A 0.49 0.49 0.0 0 1 87.40 129.82
  L 75.84 125.78"
/>
<path stroke="#bc5553" vector-effect="non-scaling-stroke" d="
  M 116.28 119.65
  Q 115.48 119.49 115.50 119.99
  Q 115.91 128.50 113.77 137.20
  A 1.22 1.21 -72.6 0 1 112.16 138.05
  Q 108.26 136.56 104.78 135.45
  Q 102.63 134.76 102.28 137.23"
/>
<path stroke="#e50201" vector-effect="non-scaling-stroke" d="
  M 102.28 137.23
  L 102.13 135.89
  Q 102.09 135.46 101.65 135.38
  Q 101.03 135.27 100.71 134.48"
/>
<path stroke="#db726f" vector-effect="non-scaling-stroke" d="
  M 105.70 116.46
  Q 105.73 116.16 106.05 116.51
  Q 106.26 116.74 106.25 117.05
  Q 106.00 125.48 103.52 133.99
  Q 103.38 134.46 102.91 134.57
  Q 102.00 134.78 100.71 134.48"
/>
<path stroke="#f4706e" vector-effect="non-scaling-stroke" d="
  M 100.71 134.48
  L 88.47 130.38
  Q 88.10 130.26 87.96 130.62
  L 81.93 146.25
  Q 81.42 147.56 80.08 147.15
  L 62.84 141.98
  A 0.57 0.57 0.0 0 0 62.11 142.44
  L 60.43 153.03"
/>
<path stroke="#cbc2c0" vector-effect="non-scaling-stroke" d="
  M 60.43 153.03
  Q 60.40 154.67 60.23 156.25
  Q 60.18 156.65 59.80 156.53"
/>
<path stroke="#db726f" vector-effect="non-scaling-stroke" d="
  M 59.80 156.53
  L 51.63 154.12
  A 0.31 0.31 0.0 0 0 51.25 154.52
  Q 53.50 160.41 57.94 164.31
  Q 58.30 164.62 58.14 165.06
  L 57.99 165.48"
/>
<path stroke="#c07673" vector-effect="non-scaling-stroke" d="
  M 57.12 164.98
  Q 51.64 161.07 47.80 156.02"
/>
<path stroke="#f4706e" vector-effect="non-scaling-stroke" d="
  M 47.80 156.02
  L 45.73 153.26
  Q 44.29 151.35 46.51 152.23
  L 49.77 153.51
  A 0.67 0.67 0.0 0 0 50.64 152.66
  Q 48.16 145.75 48.30 137.28"
/>
<path stroke="#f5988f" vector-effect="non-scaling-stroke" d="
  M 48.30 137.28
  L 60.78 140.87
  Q 62.10 141.25 62.38 139.90
  L 63.74 133.30"
/>
<path stroke="#a15957" vector-effect="non-scaling-stroke" d="
  M 112.80 102.25
  Q 109.47 101.52 112.56 106.94
  Q 114.21 109.83 114.98 115.12"
/>
<path stroke="#bc5553" vector-effect="non-scaling-stroke" d="
  M 114.98 115.12
  Q 115.34 117.32 114.98 118.65
  Q 114.84 119.14 114.35 119.01
  Q 110.58 118.02 107.00 116.90
  Q 106.39 116.70 106.15 116.01"
/>
<path stroke="#d55352" vector-effect="non-scaling-stroke" d="
  M 106.15 116.01
  Q 106.76 107.71 103.80 100.23"
/>
<path stroke="#f4706e" vector-effect="non-scaling-stroke" d="
  M 39.65 138.53
  Q 40.99 144.76 43.78 150.39
  A 0.51 0.50 -17.3 0 1 43.39 151.12
  Q 42.14 151.30 41.01 150.04"
/>
<path stroke="#cbc2c0" vector-effect="non-scaling-stroke" d="
  M 40.82 149.53
  L 38.28 143.69
  Q 38.20 143.50 38.01 143.57
  Q 37.82 143.63 37.88 143.79
  Q 38.07 144.31 37.80 143.82
  Q 37.70 143.65 37.48 143.72"
/>
<path stroke="#ffa8a1" vector-effect="non-scaling-stroke" d="
  M 40.69 115.01
  L 36.08 113.35"
/>
<path stroke="#bc5553" vector-effect="non-scaling-stroke" d="
  M 100.22 90.27
  C 102.45 92.69 105.31 94.72 107.19 97.33
  Q 108.20 98.73 109.21 100.38
  Q 109.85 101.43 108.63 101.40
  Q 106.85 101.35 104.90 100.12
  Q 104.29 99.73 104.06 100.02"
/>
<path stroke="#ca0605" vector-effect="non-scaling-stroke" d="
  M 96.37 149.62
  Q 95.96 148.55 95.21 150.82
  Q 95.06 151.29 94.57 151.34
  Q 93.95 151.41 93.77 151.66"
/>
<path stroke="#d55352" vector-effect="non-scaling-stroke" d="
  M 93.77 151.66
  L 81.72 147.82
  A 0.90 0.89 -70.3 0 0 80.61 148.35
  Q 78.12 154.60 73.74 160.28"
/>
<path stroke="#ca0605" vector-effect="non-scaling-stroke" d="
  M 73.74 160.28
  L 72.20 160.56"
/>
<path stroke="#d55352" vector-effect="non-scaling-stroke" d="
  M 72.20 160.56
  L 61.04 156.78
  Q 60.54 156.61 60.52 156.08
  L 60.43 153.03"
/>
<path stroke="#a15957" vector-effect="non-scaling-stroke" d="
  M 120.26 123.22
  C 120.09 120.41 118.55 120.26 116.28 119.65"
/>
<path stroke="#b10806" vector-effect="non-scaling-stroke" d="
  M 116.28 119.65
  Q 115.12 119.03 115.37 117.50
  Q 115.58 116.15 114.98 115.12"
/>
<path stroke="#a15957" vector-effect="non-scaling-stroke" d="
  M 118.47 139.74
  L 113.77 138.67
  Q 113.30 138.57 113.15 139.03
  Q 110.61 147.20 105.08 153.49
  A 2.58 2.57 -63.8 0 1 102.68 154.31
  Q 99.43 153.70 95.87 152.17
  Q 95.38 151.97 95.46 151.44
  Q 95.57 150.64 96.37 149.62"
/>
<path stroke="#d55352" vector-effect="non-scaling-stroke" d="
  M 96.37 149.62
  Q 100.01 143.96 102.28 137.23"
/>
<path stroke="#bc5553" vector-effect="non-scaling-stroke" d="
  M 63.98 167.38
  L 63.27 167.21
  Q 62.81 167.11 62.56 166.71
  C 60.81 163.92 60.32 160.98 60.40 157.77
  A 1.40 1.37 -65.6 0 0 60.06 156.83
  L 59.80 156.53"
/>
<path stroke="#a15957" vector-effect="non-scaling-stroke" d="
  M 108.37 156.77
  Q 106.36 155.34 104.05 155.69
  Q 103.58 155.77 103.25 156.11
  Q 97.62 161.96 90.46 165.68
  A 0.70 0.69 86.0 0 0 90.11 166.09
  Q 89.69 167.37 91.77 167.55"
/>
<path stroke="#b10806" vector-effect="non-scaling-stroke" d="
  M 63.26 167.76
  Q 64.55 167.60 63.98 167.38"
/>
<path stroke="#a15957" vector-effect="non-scaling-stroke" d="
  M 63.98 167.38
  C 67.74 168.47 70.99 164.14 72.95 161.73
  Q 73.29 161.30 72.91 160.91
  Q 72.68 160.67 72.20 160.56"
/>
<path stroke="#a15957" vector-effect="non-scaling-stroke" d="
  M 73.74 160.28
  Q 73.39 161.02 74.26 161.31
  Q 77.96 162.56 81.98 163.55
  A 0.50 0.49 32.1 0 1 82.18 164.41
  C 80.06 166.21 77.55 166.90 75.03 167.97
  Q 72.75 168.94 75.23 168.94
  Q 81.46 168.94 87.94 166.70
  A 0.34 0.34 0.0 0 0 88.11 166.18
  Q 87.62 165.51 86.80 165.37
  Q 85.22 165.08 83.73 164.46
  A 0.61 0.60 -51.2 0 1 83.62 163.40
  Q 89.49 159.27 94.10 152.96
  Q 94.41 152.54 94.10 152.12
  L 93.77 151.66"
/>
</g>
<path fill="#ff5042" d="
  M 87.97 84.92
  Q 86.72 84.65 85.85 85.22
  Q 85.45 85.49 84.96 85.45
  Q 80.36 85.06 76.24 87.02
  L 71.03 89.03
  L 67.08 87.75
  A 0.63 0.63 0.0 0 1 67.03 86.57
  Q 70.32 85.18 73.38 84.91
  Q 75.51 84.72 73.56 83.85
  Q 73.19 83.68 71.78 83.97
  Q 80.07 82.70 87.97 84.92
  Z"
/>
<path fill="#ffffff" d="
  M 71.78 83.97
  Q 73.19 83.68 73.56 83.85
  Q 75.51 84.72 73.38 84.91
  Q 70.32 85.18 67.03 86.57
  A 0.63 0.63 0.0 0 0 67.08 87.75
  L 71.03 89.03
  Q 71.34 89.88 70.90 90.14
  Q 66.28 92.83 63.54 97.47
  Q 62.52 99.21 64.26 100.23
  C 64.88 100.59 65.23 100.94 65.98 101.08
  C 67.64 101.38 68.79 102.42 70.43 102.74
  Q 71.88 103.02 73.18 103.71
  A 0.83 0.82 -58.6 0 0 74.25 103.45
  Q 77.60 98.59 79.88 94.63
  Q 80.13 94.21 81.32 93.26
  Q 81.90 93.42 82.48 93.18
  L 93.28 96.36
  Q 93.82 96.52 94.14 96.04
  Q 94.67 95.25 94.11 94.02
  Q 94.55 93.40 94.38 92.48
  A 0.01 0.01 0.0 0 0 94.36 92.48
  Q 93.98 95.44 95.06 96.94
  Q 94.43 97.02 94.38 98.00
  Q 93.98 105.04 92.94 110.83
  Q 92.35 112.75 87.02 110.35
  L 74.53 106.70
  A 0.97 0.97 0.0 0 0 73.32 107.39
  Q 72.60 110.23 71.88 113.18
  Q 70.77 117.74 67.12 122.69
  Q 66.77 123.17 66.19 123.02
  L 53.20 119.67
  A 1.86 1.86 0.0 0 0 50.94 121.02
  L 49.17 128.26
  Q 48.52 131.99 48.38 135.88
  Q 48.35 136.59 47.46 136.82
  L 41.48 134.70
  Q 39.23 134.34 39.12 133.13
  Q 38.42 124.84 40.91 115.73
  C 42.94 115.14 47.92 117.14 50.19 117.81
  A 1.20 1.20 0.0 0 0 51.72 116.80
  L 52.53 109.93
  A 0.81 0.71 70.9 0 1 52.66 109.61
  Q 53.42 108.55 53.60 107.31
  Q 53.74 106.30 54.69 105.82
  Q 56.85 104.71 58.22 102.71
  A 0.99 0.99 0.0 0 0 57.96 101.32
  Q 55.46 99.64 52.20 99.30
  A 1.09 1.09 0.0 0 1 51.58 97.41
  Q 55.13 94.15 58.68 91.20
  Q 59.63 90.41 60.90 89.72
  C 62.09 89.06 63.29 88.88 64.27 87.89
  Q 64.60 87.55 64.34 87.16
  Q 63.92 86.54 64.29 85.67
  L 71.78 83.97
  Z"
/>
<path fill="#eadfdc" d="
  M 87.97 84.92
  L 89.00 85.32
  Q 84.88 87.63 82.87 90.12
  Q 81.55 91.77 82.48 93.18
  Q 81.90 93.42 81.32 93.26
  Q 81.32 92.12 80.25 91.94
  Q 76.79 91.36 73.51 89.86
  A 0.67 0.67 0.0 0 1 73.45 88.68
  L 76.24 87.02
  Q 80.36 85.06 84.96 85.45
  Q 85.45 85.49 85.85 85.22
  Q 86.72 84.65 87.97 84.92
  Z"
/>
<rect fill="#fe0000" x="-7.62" y="-7.56" transform="translate(259.94,94.11) rotate(-15.8)" width="15.24" height="15.12" rx="0.82"/>
<path fill="#fe0000" d="
  M 89.00 85.32
  Q 90.70 85.38 91.94 86.27
  Q 94.19 89.95 94.11 94.02
  Q 94.67 95.25 94.14 96.04
  Q 93.82 96.52 93.28 96.36
  L 82.48 93.18
  Q 81.55 91.77 82.87 90.12
  Q 84.88 87.63 89.00 85.32
  Z"
/>
<path fill="#fdb5b1" d="
  M 64.29 85.67
  Q 63.92 86.54 64.34 87.16
  Q 64.60 87.55 64.27 87.89
  C 63.29 88.88 62.09 89.06 60.90 89.72
  Q 59.63 90.41 58.68 91.20
  Q 55.13 94.15 51.58 97.41
  A 1.09 1.09 0.0 0 0 52.20 99.30
  Q 55.46 99.64 57.96 101.32
  A 0.99 0.99 0.0 0 1 58.22 102.71
  Q 56.85 104.71 54.69 105.82
  Q 53.74 106.30 53.60 107.31
  Q 53.42 108.55 52.66 109.61
  A 0.81 0.71 70.9 0 0 52.53 109.93
  L 51.72 116.80
  A 1.20 1.20 0.0 0 1 50.19 117.81
  C 47.92 117.14 42.94 115.14 40.91 115.73
  Q 40.88 115.38 40.69 115.01
  Q 41.27 114.58 41.48 113.99
  Q 44.49 105.87 49.96 99.35
  A 0.90 0.90 0.0 0 0 49.52 97.91
  L 46.16 96.95
  Q 53.65 88.85 64.29 85.67
  Z"
/>
<path fill="#eadfdc" d="
  M 91.94 86.27
  L 93.55 86.78
  Q 95.81 88.90 98.23 90.77
  Q 101.31 93.14 103.13 98.74
  Q 103.28 99.21 103.66 99.52
  Q 103.96 99.77 104.06 100.02
  Q 103.73 100.09 103.80 100.23
  L 95.06 96.94
  Q 93.98 95.44 94.36 92.48
  A 0.01 0.01 0.0 0 1 94.38 92.48
  Q 94.55 93.40 94.11 94.02
  Q 94.19 89.95 91.94 86.27
  Z"
/>
<path fill="#cc0402" d="
  M 93.55 86.78
  L 100.22 90.27
  C 102.45 92.69 105.31 94.72 107.19 97.33
  Q 108.20 98.73 109.21 100.38
  Q 109.85 101.43 108.63 101.40
  Q 106.85 101.35 104.90 100.12
  Q 104.29 99.73 104.06 100.02
  Q 103.96 99.77 103.66 99.52
  Q 103.28 99.21 103.13 98.74
  Q 101.31 93.14 98.23 90.77
  Q 95.81 88.90 93.55 86.78
  Z"
/>
<path fill="#fdb5b1" d="
  M 76.24 87.02
  L 73.45 88.68
  A 0.67 0.67 0.0 0 0 73.51 89.86
  Q 76.79 91.36 80.25 91.94
  Q 81.32 92.12 81.32 93.26
  Q 80.13 94.21 79.88 94.63
  Q 77.60 98.59 74.25 103.45
  A 0.83 0.82 -58.6 0 1 73.18 103.71
  Q 71.88 103.02 70.43 102.74
  C 68.79 102.42 67.64 101.38 65.98 101.08
  C 65.23 100.94 64.88 100.59 64.26 100.23
  Q 62.52 99.21 63.54 97.47
  Q 66.28 92.83 70.90 90.14
  Q 71.34 89.88 71.03 89.03
  L 76.24 87.02
  Z"
/>
<path fill="#aca5a4" d="
  M 100.22 90.27
  Q 107.72 94.99 112.80 102.25
  Q 109.47 101.52 112.56 106.94
  Q 114.21 109.83 114.98 115.12
  Q 115.34 117.32 114.98 118.65
  Q 114.84 119.14 114.35 119.01
  Q 110.58 118.02 107.00 116.90
  Q 106.39 116.70 106.15 116.01
  Q 106.76 107.71 103.80 100.23
  Q 103.73 100.09 104.06 100.02
  Q 104.29 99.73 104.90 100.12
  Q 106.85 101.35 108.63 101.40
  Q 109.85 101.43 109.21 100.38
  Q 108.20 98.73 107.19 97.33
  C 105.31 94.72 102.45 92.69 100.22 90.27
  Z"
/>
<path fill="#ffffff" d="
  M 393.38 155.85
  Q 392.45 154.66 391.83 153.37
  Q 391.55 152.77 391.19 152.21
  Q 383.92 140.71 382.26 129.15
  C 379.39 109.03 391.95 91.20 413.17 91.37
  Q 420.88 91.43 427.75 93.69
  Q 443.07 98.71 454.39 110.57
  C 455.49 111.72 456.20 111.50 457.63 111.53
  C 462.44 111.65 467.92 113.58 469.94 118.32
  Q 470.98 120.77 470.85 124.79
  Q 470.69 129.99 470.75 135.05
  C 470.82 140.37 472.05 145.64 472.20 150.94
  C 472.61 165.23 464.38 177.21 450.48 181.35
  Q 439.60 184.58 427.13 180.50
  Q 407.75 174.17 393.38 155.85
  Z
  M 438.35 156.72
  L 438.42 112.78
  Q 438.42 111.49 439.72 111.48
  L 453.27 111.37
  A 0.23 0.23 0.0 0 0 453.43 110.97
  Q 439.71 97.21 423.12 93.15
  Q 414.80 91.10 406.19 93.04
  C 385.72 97.65 382.37 120.09 388.67 136.70
  Q 398.46 162.50 422.91 174.69
  C 440.84 183.64 463.55 181.93 470.18 160.07
  Q 470.97 157.47 471.50 147.96
  Q 471.51 147.75 471.40 147.58
  L 471.22 147.31
  A 0.21 0.21 0.0 0 0 470.84 147.37
  Q 468.21 157.03 458.26 157.11
  Q 448.43 157.19 438.84 157.20
  Q 438.35 157.21 438.35 156.72
  Z
  M 451.64 121.15
  L 451.64 147.67
  A 0.63 0.63 0.0 0 0 452.27 148.30
  L 454.96 148.30
  A 2.66 2.51 0.0 0 0 457.62 145.79
  L 457.62 123.03
  A 2.66 2.51 -0.0 0 0 454.96 120.52
  L 452.27 120.52
  A 0.63 0.63 0.0 0 0 451.64 121.15
  Z"
/>
<path fill="#ffffff" d="
  M 46.16 96.95
  L 49.52 97.91
  A 0.90 0.90 0.0 0 1 49.96 99.35
  Q 44.49 105.87 41.48 113.99
  Q 41.27 114.58 40.69 115.01
  L 36.08 113.35
  Q 39.70 103.88 46.16 96.95
  Z"
/>
<path fill="#fe0000" d="
  M 95.06 96.94
  L 103.80 100.23
  Q 106.76 107.71 106.15 116.01
  Q 105.89 116.05 105.70 116.46
  L 93.28 112.28
  Q 93.68 112.30 92.94 110.83
  Q 93.98 105.04 94.38 98.00
  Q 94.43 97.02 95.06 96.94
  Z"
/>
<path fill="#960c09" d="
  M 112.80 102.25
  Q 119.63 111.61 120.26 123.22
  C 120.09 120.41 118.55 120.26 116.28 119.65
  Q 115.12 119.03 115.37 117.50
  Q 115.58 116.15 114.98 115.12
  Q 114.21 109.83 112.56 106.94
  Q 109.47 101.52 112.80 102.25
  Z"
/>
<path fill="#fdb5b1" d="
  M 87.02 110.35
  L 82.60 110.30
  Q 82.00 110.30 82.03 110.90
  Q 82.14 112.77 82.76 114.61
  Q 83.43 116.60 82.92 118.30
  Q 82.43 119.93 81.77 121.59
  Q 81.57 122.11 81.02 122.10
  Q 80.33 122.08 79.68 122.35
  Q 78.88 122.67 78.50 123.29
  Q 77.98 124.15 76.92 123.83
  A 0.81 0.80 25.2 0 0 76.01 124.15
  Q 75.81 124.47 75.46 124.46
  Q 74.71 124.43 75.20 125.01
  Q 75.51 125.39 75.84 125.78
  Q 72.58 125.09 69.45 124.19
  Q 65.67 123.10 65.65 126.77
  Q 65.65 127.70 65.30 128.20
  Q 65.08 128.52 64.97 128.89
  L 63.74 133.30
  L 63.37 129.70
  A 0.59 0.58 -2.7 0 0 62.78 129.17
  Q 60.16 129.15 58.02 128.04
  C 57.51 127.77 57.08 127.86 56.53 127.87
  Q 56.04 127.89 55.65 127.58
  Q 54.12 126.37 52.16 125.70
  A 1.54 1.43 9.6 0 0 50.13 127.03
  Q 50.14 127.49 49.17 128.26
  L 50.94 121.02
  A 1.86 1.86 0.0 0 1 53.20 119.67
  L 66.19 123.02
  Q 66.77 123.17 67.12 122.69
  Q 70.77 117.74 71.88 113.18
  Q 72.60 110.23 73.32 107.39
  A 0.97 0.97 0.0 0 1 74.53 106.70
  L 87.02 110.35
  Z"
/>
<path fill="#ffffff" d="
  M 312.77 148.78
  L 305.11 148.76
  A 0.38 0.38 0.0 0 1 304.73 148.35
  L 304.76 147.82
  Q 304.84 146.49 306.18 146.49
  L 325.19 146.50
  A 0.48 0.48 0.0 0 1 325.67 146.96
  C 326.18 158.72 319.00 167.34 307.20 168.71
  C 290.65 170.63 278.30 159.23 276.67 143.13
  C 274.76 124.23 286.30 107.97 306.72 109.47
  C 312.76 109.91 317.48 113.37 321.88 117.45
  Q 322.25 117.79 322.25 118.30
  L 322.20 125.97
  Q 322.19 126.45 321.77 126.69
  Q 321.01 127.10 320.18 126.83
  Q 319.65 126.66 319.52 126.11
  C 317.70 118.64 313.38 112.45 305.27 111.81
  C 294.02 110.91 289.76 116.96 289.35 127.40
  Q 288.89 138.97 289.33 149.49
  C 289.74 159.42 292.88 167.49 305.00 166.40
  C 313.90 165.61 313.21 155.79 313.37 149.40
  Q 313.39 148.78 312.77 148.78
  Z"
/>
<path fill="#ffffff" d="
  M 174.03 165.73
  L 179.32 165.72
  Q 179.86 165.72 180.09 166.21
  Q 180.22 166.52 180.19 166.84
  Q 180.10 167.91 179.03 167.92
  L 163.03 168.04
  Q 162.49 168.04 162.31 167.52
  L 156.78 151.17
  Q 156.65 150.77 156.23 150.77
  L 139.02 150.77
  Q 138.36 150.77 138.14 151.39
  L 132.97 166.44
  Q 132.55 167.66 131.31 168.00
  L 130.76 168.16
  Q 129.41 168.53 129.87 167.21
  L 149.73 110.60
  A 1.64 1.64 0.0 0 1 151.17 109.51
  Q 152.91 109.40 153.48 111.00
  Q 163.15 137.81 172.82 164.87
  A 1.28 1.28 0.0 0 0 174.03 165.73
  Z
  M 139.38 147.78
  A 0.53 0.53 0.0 0 0 139.88 148.49
  L 155.06 148.49
  A 0.53 0.53 0.0 0 0 155.56 147.78
  L 147.97 125.83
  A 0.53 0.53 0.0 0 0 146.97 125.83
  L 139.38 147.78
  Z"
/>
<path fill="#ffffff" d="
  M 354.57 150.77
  L 338.07 150.77
  Q 336.85 150.77 336.46 151.92
  L 331.62 166.27
  Q 331.16 167.63 329.78 168.01
  L 329.27 168.15
  Q 327.98 168.50 328.42 167.24
  L 348.15 110.95
  A 2.00 1.98 11.1 0 1 350.14 109.62
  Q 351.57 109.70 352.07 111.08
  Q 361.59 137.50 371.31 164.72
  A 1.53 1.53 0.0 0 0 372.78 165.73
  L 377.65 165.66
  Q 378.40 165.65 378.49 166.40
  L 378.53 166.75
  Q 378.67 167.92 377.49 167.93
  L 361.56 168.02
  Q 361.03 168.03 360.86 167.53
  L 355.38 151.35
  Q 355.18 150.77 354.57 150.77
  Z
  M 337.91 147.85
  A 0.48 0.48 0.0 0 0 338.36 148.49
  L 353.68 148.49
  A 0.48 0.48 0.0 0 0 354.13 147.85
  L 346.47 125.69
  A 0.48 0.48 0.0 0 0 345.57 125.69
  L 337.91 147.85
  Z"
/>
<path fill="#ff5042" d="
  M 87.02 110.35
  Q 92.35 112.75 92.94 110.83
  Q 93.68 112.30 93.28 112.28
  Q 93.12 112.37 92.89 112.38
  Q 92.54 112.39 92.47 112.74
  Q 90.75 121.38 88.03 129.51
  A 0.49 0.49 0.0 0 1 87.40 129.82
  L 75.84 125.78
  Q 75.51 125.39 75.20 125.01
  Q 74.71 124.43 75.46 124.46
  Q 75.81 124.47 76.01 124.15
  A 0.81 0.80 25.2 0 1 76.92 123.83
  Q 77.98 124.15 78.50 123.29
  Q 78.88 122.67 79.68 122.35
  Q 80.33 122.08 81.02 122.10
  Q 81.57 122.11 81.77 121.59
  Q 82.43 119.93 82.92 118.30
  Q 83.43 116.60 82.76 114.61
  Q 82.14 112.77 82.03 110.90
  Q 82.00 110.30 82.60 110.30
  L 87.02 110.35
  Z"
/>
<path fill="#ffffff" d="
  M 417.66 119.77
  L 417.02 119.81
  Q 414.26 119.96 414.26 122.73
  L 414.26 145.84
  Q 414.26 148.68 417.09 148.74
  L 417.49 148.75
  Q 420.58 148.83 420.43 145.74
  Q 420.29 142.99 420.68 140.53
  A 0.61 0.61 0.0 0 1 421.28 140.01
  L 432.53 140.02
  Q 433.31 140.02 433.37 140.80
  C 434.02 149.37 432.44 156.07 422.88 157.57
  C 412.42 159.22 401.06 157.26 401.15 144.21
  Q 401.23 133.70 401.30 122.82
  C 401.33 117.05 404.51 113.02 410.01 111.56
  C 417.49 109.56 432.24 110.06 433.14 120.78
  Q 433.42 124.24 433.21 127.85
  A 0.76 0.76 0.0 0 1 432.46 128.57
  L 421.02 128.70
  Q 420.33 128.70 420.34 128.02
  L 420.42 122.41
  Q 420.45 119.62 417.66 119.77
  Z"
/>
<path fill="#ffffff" d="
  M 208.04 148.52
  Q 208.59 148.72 208.76 148.16
  L 219.81 112.03
  A 1.48 1.46 8.5 0 1 221.22 111.00
  L 232.75 110.99
  Q 233.51 110.99 233.51 111.75
  L 233.52 165.00
  A 0.74 0.73 90.0 0 0 234.25 165.74
  L 241.12 165.68
  Q 242.07 165.67 241.99 166.62
  L 241.96 167.01
  Q 241.89 167.91 240.99 167.91
  L 222.75 168.04
  Q 222.20 168.04 222.20 167.50
  L 222.36 114.61
  A 0.28 0.27 -36.3 0 0 221.82 114.53
  Q 214.35 138.51 205.96 165.98
  Q 205.34 168.02 203.33 168.24
  A 0.93 0.92 -17.9 0 1 202.42 167.78
  Q 201.87 166.81 201.54 165.74
  Q 193.11 138.53 186.06 114.35
  Q 185.82 113.55 185.55 114.34
  Q 185.38 114.82 185.38 115.29
  Q 185.22 140.93 185.30 166.80
  Q 185.30 167.99 184.11 168.02
  L 183.63 168.04
  Q 182.70 168.06 182.70 167.13
  L 182.72 114.15
  A 0.81 0.80 -0.4 0 0 181.90 113.35
  L 174.58 113.52
  Q 173.83 113.54 174.03 112.82
  L 174.36 111.64
  Q 174.54 110.98 175.22 110.98
  L 195.77 110.99
  Q 196.39 110.99 196.57 111.59
  Q 202.18 130.37 207.60 148.05
  Q 207.70 148.39 208.04 148.52
  Z"
/>
<path fill="#ffffff" d="
  M 252.46 165.10
  L 252.48 111.76
  A 0.76 0.76 0.0 0 1 253.24 111.00
  L 271.13 110.99
  Q 272.16 110.99 272.26 112.01
  Q 272.33 112.65 271.73 113.22
  A 0.84 0.82 -65.7 0 1 271.17 113.44
  L 264.39 113.47
  A 0.64 0.64 0.0 0 0 263.75 114.11
  L 263.75 164.74
  A 0.99 0.99 0.0 0 0 264.74 165.73
  L 271.27 165.71
  Q 272.02 165.70 272.22 166.43
  Q 272.38 166.99 271.97 167.55
  A 1.07 1.06 -71.8 0 1 271.11 167.99
  L 245.13 167.98
  Q 244.28 167.98 244.35 167.13
  L 244.39 166.61
  A 1.00 0.99 -87.5 0 1 245.38 165.70
  L 251.90 165.66
  A 0.56 0.56 0.0 0 0 252.46 165.10
  Z"
/>
<path fill="#ffffff" d="
  M 480.81 120.48
  L 472.70 120.59
  A 0.69 0.69 0.0 0 1 472.00 119.90
  L 471.97 112.16
  A 0.69 0.69 0.0 0 1 472.66 111.47
  L 503.60 111.45
  A 0.69 0.69 0.0 0 1 504.29 112.11
  L 504.59 119.79
  A 0.69 0.69 0.0 0 1 503.89 120.51
  L 495.38 120.40
  A 0.69 0.69 0.0 0 0 494.68 121.09
  L 494.66 156.37
  A 0.69 0.69 0.0 0 1 493.98 157.06
  L 482.19 157.25
  A 0.69 0.69 0.0 0 1 481.49 156.56
  L 481.51 121.17
  A 0.69 0.69 0.0 0 0 480.81 120.48
  Z"
/>
<path fill="#ffffff" d="
  M 523.04 144.42
  Q 524.76 128.72 527.23 112.31
  A 1.01 1.00 -85.7 0 1 528.22 111.45
  L 539.61 111.44
  Q 540.30 111.44 540.17 112.11
  L 531.67 155.97
  Q 531.45 157.12 530.28 157.12
  L 514.22 157.16
  Q 513.74 157.16 513.65 156.69
  L 505.47 112.32
  A 0.74 0.73 84.8 0 1 506.19 111.45
  L 517.52 111.47
  Q 518.07 111.47 518.15 112.02
  L 522.64 144.43
  Q 522.87 146.07 523.04 144.42
  Z"
/>
<path fill="#eadfdc" d="
  M 93.28 112.28
  L 105.70 116.46
  Q 105.73 116.16 106.05 116.51
  Q 106.26 116.74 106.25 117.05
  Q 106.00 125.48 103.52 133.99
  Q 103.38 134.46 102.91 134.57
  Q 102.00 134.78 100.71 134.48
  L 88.47 130.38
  Q 88.10 130.26 87.96 130.62
  L 81.93 146.25
  Q 81.42 147.56 80.08 147.15
  L 62.84 141.98
  A 0.57 0.57 0.0 0 0 62.11 142.44
  L 60.43 153.03
  Q 60.40 154.67 60.23 156.25
  Q 60.18 156.65 59.80 156.53
  L 51.63 154.12
  A 0.31 0.31 0.0 0 0 51.25 154.52
  Q 53.50 160.41 57.94 164.31
  Q 58.30 164.62 58.14 165.06
  L 57.99 165.48
  Q 57.24 165.22 57.12 164.98
  Q 51.64 161.07 47.80 156.02
  L 45.73 153.26
  Q 44.29 151.35 46.51 152.23
  L 49.77 153.51
  A 0.67 0.67 0.0 0 0 50.64 152.66
  Q 48.16 145.75 48.30 137.28
  L 60.78 140.87
  Q 62.10 141.25 62.38 139.90
  L 63.74 133.30
  L 64.97 128.89
  Q 65.08 128.52 65.30 128.20
  Q 65.65 127.70 65.65 126.77
  Q 65.67 123.10 69.45 124.19
  Q 72.58 125.09 75.84 125.78
  L 87.40 129.82
  A 0.49 0.49 0.0 0 0 88.03 129.51
  Q 90.75 121.38 92.47 112.74
  Q 92.54 112.39 92.89 112.38
  Q 93.12 112.37 93.28 112.28
  Z"
/>
<path fill="#ff5042" d="
  M 36.08 113.35
  L 40.69 115.01
  Q 40.88 115.38 40.91 115.73
  Q 38.42 124.84 39.12 133.13
  Q 39.23 134.34 41.48 134.70
  Q 40.09 134.32 39.85 135.51
  Q 39.56 136.98 39.65 138.53
  L 39.05 134.92
  Q 38.96 134.41 38.56 134.10
  Q 35.81 131.94 34.69 133.78
  Q 33.15 123.03 36.08 113.35
  Z"
/>
<path fill="#cc0402" d="
  M 116.28 119.65
  Q 115.48 119.49 115.50 119.99
  Q 115.91 128.50 113.77 137.20
  A 1.22 1.21 -72.6 0 1 112.16 138.05
  Q 108.26 136.56 104.78 135.45
  Q 102.63 134.76 102.28 137.23
  L 102.13 135.89
  Q 102.09 135.46 101.65 135.38
  Q 101.03 135.27 100.71 134.48
  Q 102.00 134.78 102.91 134.57
  Q 103.38 134.46 103.52 133.99
  Q 106.00 125.48 106.25 117.05
  Q 106.26 116.74 106.05 116.51
  Q 105.73 116.16 105.70 116.46
  Q 105.89 116.05 106.15 116.01
  Q 106.39 116.70 107.00 116.90
  Q 110.58 118.02 114.35 119.01
  Q 114.84 119.14 114.98 118.65
  Q 115.34 117.32 114.98 115.12
  Q 115.58 116.15 115.37 117.50
  Q 115.12 119.03 116.28 119.65
  Z"
/>
<path fill="#aca5a4" d="
  M 116.28 119.65
  C 118.55 120.26 120.09 120.41 120.26 123.22
  Q 120.92 131.60 118.47 139.74
  L 113.77 138.67
  Q 113.30 138.57 113.15 139.03
  Q 110.61 147.20 105.08 153.49
  A 2.58 2.57 -63.8 0 1 102.68 154.31
  Q 99.43 153.70 95.87 152.17
  Q 95.38 151.97 95.46 151.44
  Q 95.57 150.64 96.37 149.62
  Q 100.01 143.96 102.28 137.23
  Q 102.63 134.76 104.78 135.45
  Q 108.26 136.56 112.16 138.05
  A 1.22 1.21 -72.6 0 0 113.77 137.20
  Q 115.91 128.50 115.50 119.99
  Q 115.48 119.49 116.28 119.65
  Z"
/>
<path fill="#ff5042" d="
  M 63.74 133.30
  L 62.38 139.90
  Q 62.10 141.25 60.78 140.87
  L 48.30 137.28
  L 47.46 136.82
  Q 48.35 136.59 48.38 135.88
  Q 48.52 131.99 49.17 128.26
  Q 50.14 127.49 50.13 127.03
  A 1.54 1.43 9.6 0 1 52.16 125.70
  Q 54.12 126.37 55.65 127.58
  Q 56.04 127.89 56.53 127.87
  C 57.08 127.86 57.51 127.77 58.02 128.04
  Q 60.16 129.15 62.78 129.17
  A 0.59 0.58 -2.7 0 1 63.37 129.70
  L 63.74 133.30
  Z"
/>
<path fill="#fe0000" d="
  M 100.71 134.48
  Q 101.03 135.27 101.65 135.38
  Q 102.09 135.46 102.13 135.89
  L 102.28 137.23
  Q 100.01 143.96 96.37 149.62
  Q 95.96 148.55 95.21 150.82
  Q 95.06 151.29 94.57 151.34
  Q 93.95 151.41 93.77 151.66
  L 81.72 147.82
  A 0.90 0.89 -70.3 0 0 80.61 148.35
  Q 78.12 154.60 73.74 160.28
  L 72.20 160.56
  L 61.04 156.78
  Q 60.54 156.61 60.52 156.08
  L 60.43 153.03
  L 62.11 142.44
  A 0.57 0.57 0.0 0 1 62.84 141.98
  L 80.08 147.15
  Q 81.42 147.56 81.93 146.25
  L 87.96 130.62
  Q 88.10 130.26 88.47 130.38
  L 100.71 134.48
  Z"
/>
<path fill="#eadfdc" d="
  M 39.65 138.53
  Q 40.99 144.76 43.78 150.39
  A 0.51 0.50 -17.3 0 1 43.39 151.12
  Q 42.14 151.30 41.01 150.04
  Q 40.95 149.45 40.82 149.53
  L 38.28 143.69
  Q 38.20 143.50 38.01 143.57
  Q 37.82 143.63 37.88 143.79
  Q 38.07 144.31 37.80 143.82
  Q 37.70 143.65 37.48 143.72
  Q 35.45 139.14 34.69 133.78
  Q 35.81 131.94 38.56 134.10
  Q 38.96 134.41 39.05 134.92
  L 39.65 138.53
  Z"
/>
<path fill="#fe0000" d="
  M 41.48 134.70
  L 47.46 136.82
  L 48.30 137.28
  Q 48.16 145.75 50.64 152.66
  A 0.67 0.67 0.0 0 1 49.77 153.51
  L 46.51 152.23
  Q 44.29 151.35 45.73 153.26
  L 47.80 156.02
  L 47.88 156.60
  Q 47.97 157.19 47.44 156.92
  L 45.52 155.93
  Q 42.69 153.48 41.01 150.04
  Q 42.14 151.30 43.39 151.12
  A 0.51 0.50 -17.3 0 0 43.78 150.39
  Q 40.99 144.76 39.65 138.53
  Q 39.56 136.98 39.85 135.51
  Q 40.09 134.32 41.48 134.70
  Z"
/>
<path fill="#960c09" d="
  M 118.47 139.74
  Q 115.56 149.69 108.37 156.77
  Q 106.36 155.34 104.05 155.69
  Q 103.58 155.77 103.25 156.11
  Q 97.62 161.96 90.46 165.68
  A 0.70 0.69 86.0 0 0 90.11 166.09
  Q 89.69 167.37 91.77 167.55
  Q 86.46 169.53 84.25 169.72
  C 77.27 170.30 69.92 170.22 63.26 167.76
  Q 64.55 167.60 63.98 167.38
  C 67.74 168.47 70.99 164.14 72.95 161.73
  Q 73.29 161.30 72.91 160.91
  Q 72.68 160.67 72.20 160.56
  L 73.74 160.28
  Q 73.39 161.02 74.26 161.31
  Q 77.96 162.56 81.98 163.55
  A 0.50 0.49 32.1 0 1 82.18 164.41
  C 80.06 166.21 77.55 166.90 75.03 167.97
  Q 72.75 168.94 75.23 168.94
  Q 81.46 168.94 87.94 166.70
  A 0.34 0.34 0.0 0 0 88.11 166.18
  Q 87.62 165.51 86.80 165.37
  Q 85.22 165.08 83.73 164.46
  A 0.61 0.60 -51.2 0 1 83.62 163.40
  Q 89.49 159.27 94.10 152.96
  Q 94.41 152.54 94.10 152.12
  L 93.77 151.66
  Q 93.95 151.41 94.57 151.34
  Q 95.06 151.29 95.21 150.82
  Q 95.96 148.55 96.37 149.62
  Q 95.57 150.64 95.46 151.44
  Q 95.38 151.97 95.87 152.17
  Q 99.43 153.70 102.68 154.31
  A 2.58 2.57 -63.8 0 0 105.08 153.49
  Q 110.61 147.20 113.15 139.03
  Q 113.30 138.57 113.77 138.67
  L 118.47 139.74
  Z"
/>
<path fill="#aca5a4" d="
  M 40.82 149.53
  L 37.48 143.72
  Q 37.70 143.65 37.80 143.82
  Q 38.07 144.31 37.88 143.79
  Q 37.82 143.63 38.01 143.57
  Q 38.20 143.50 38.28 143.69
  L 40.82 149.53
  Z"
/>
<path fill="#aca5a4" d="
  M 93.77 151.66
  L 94.10 152.12
  Q 94.41 152.54 94.10 152.96
  Q 89.49 159.27 83.62 163.40
  A 0.61 0.60 -51.2 0 0 83.73 164.46
  Q 85.22 165.08 86.80 165.37
  Q 87.62 165.51 88.11 166.18
  A 0.34 0.34 0.0 0 1 87.94 166.70
  Q 81.46 168.94 75.23 168.94
  Q 72.75 168.94 75.03 167.97
  C 77.55 166.90 80.06 166.21 82.18 164.41
  A 0.50 0.49 32.1 0 0 81.98 163.55
  Q 77.96 162.56 74.26 161.31
  Q 73.39 161.02 73.74 160.28
  Q 78.12 154.60 80.61 148.35
  A 0.90 0.89 -70.3 0 1 81.72 147.82
  L 93.77 151.66
  Z"
/>
<path fill="#aca5a4" d="
  M 60.43 153.03
  L 60.52 156.08
  Q 60.54 156.61 61.04 156.78
  L 72.20 160.56
  Q 72.68 160.67 72.91 160.91
  Q 73.29 161.30 72.95 161.73
  C 70.99 164.14 67.74 168.47 63.98 167.38
  L 63.27 167.21
  Q 62.81 167.11 62.56 166.71
  C 60.81 163.92 60.32 160.98 60.40 157.77
  A 1.40 1.37 -65.6 0 0 60.06 156.83
  L 59.80 156.53
  Q 60.18 156.65 60.23 156.25
  Q 60.40 154.67 60.43 153.03
  Z"
/>
<path fill="#cc0402" d="
  M 59.80 156.53
  L 60.06 156.83
  A 1.40 1.37 -65.6 0 1 60.40 157.77
  C 60.32 160.98 60.81 163.92 62.56 166.71
  Q 62.81 167.11 63.27 167.21
  L 63.98 167.38
  Q 64.55 167.60 63.26 167.76
  Q 60.43 167.16 57.99 165.48
  L 58.14 165.06
  Q 58.30 164.62 57.94 164.31
  Q 53.50 160.41 51.25 154.52
  A 0.31 0.31 0.0 0 1 51.63 154.12
  L 59.80 156.53
  Z"
/>
<path fill="#aca5a4" d="
  M 108.37 156.77
  Q 100.99 164.05 91.77 167.55
  Q 89.69 167.37 90.11 166.09
  A 0.70 0.69 86.0 0 1 90.46 165.68
  Q 97.62 161.96 103.25 156.11
  Q 103.58 155.77 104.05 155.69
  Q 106.36 155.34 108.37 156.77
  Z"
/>
<path fill="#960c09" d="
  M 45.52 155.93
  L 47.44 156.92
  Q 47.97 157.19 47.88 156.60
  L 47.80 156.02
  Q 51.64 161.07 57.12 164.98
  Q 50.46 161.57 45.52 155.93
  Z"
/>
<path fill="#ffffff" d="
  M 530.49 165.92
  Q 528.49 167.19 529.52 170.20
  A 1.53 1.52 84.0 0 0 530.76 171.21
  Q 532.10 171.37 532.91 170.31
  A 1.03 1.02 -62.8 0 1 534.01 169.95
  L 534.37 170.06
  A 0.48 0.48 0.0 0 1 534.60 170.85
  Q 531.02 174.83 528.20 171.18
  C 525.19 167.28 529.77 161.86 534.10 165.60
  A 1.07 1.07 0.0 0 1 534.38 166.82
  L 534.27 167.06
  A 0.42 0.42 0.0 0 1 533.66 167.25
  L 531.46 165.91
  Q 530.98 165.61 530.49 165.92
  Z"
/>
<rect fill="#ffffff" x="-0.94" y="-3.99" transform="translate(489.21,168.61) rotate(0.6)" width="1.88" height="7.98" rx="0.74"/>
<path fill="#ffffff" d="
  M 496.68 168.70
  L 496.43 165.32
  Q 496.38 164.62 497.08 164.62
  L 497.53 164.62
  A 0.71 0.70 89.6 0 1 498.23 165.32
  L 498.23 170.96
  Q 498.23 174.42 496.12 171.68
  Q 494.94 170.14 494.05 168.33
  Q 493.67 167.55 493.47 168.40
  Q 493.21 169.55 493.62 170.78
  Q 494.19 172.51 492.46 172.71
  A 0.67 0.67 0.0 0 1 491.71 172.04
  L 491.84 165.31
  Q 491.85 164.87 492.24 164.67
  Q 492.67 164.44 493.12 164.69
  Q 493.60 164.95 493.86 165.43
  Q 494.89 167.35 496.17 168.91
  Q 496.75 169.63 496.68 168.70
  Z"
/>
<path fill="#ffffff" d="
  M 503.62 166.11
  A 0.67 0.66 89.1 0 0 502.98 166.78
  L 503.03 172.06
  Q 503.04 172.66 502.44 172.69
  L 501.70 172.73
  Q 501.14 172.77 501.14 172.20
  L 501.20 166.95
  Q 501.21 166.32 500.60 166.13
  Q 500.05 165.97 499.63 165.62
  Q 498.24 164.51 500.02 164.51
  L 504.65 164.52
  A 0.57 0.57 0.0 0 1 505.06 165.48
  Q 504.49 166.09 503.62 166.11
  Z"
/>
<path fill="#ffffff" d="
  M 508.02 167.75
  L 511.35 167.73
  A 0.31 0.31 0.0 0 1 511.66 168.07
  L 511.59 168.95
  A 0.31 0.31 0.0 0 1 511.27 169.24
  L 508.04 169.09
  A 0.31 0.31 0.0 0 0 507.72 169.40
  L 507.76 170.87
  A 0.31 0.31 0.0 0 0 508.08 171.17
  L 511.78 171.00
  A 0.31 0.31 0.0 0 1 512.08 171.43
  L 511.59 172.66
  A 0.31 0.31 0.0 0 1 511.29 172.86
  L 506.26 172.58
  A 0.31 0.31 0.0 0 1 505.97 172.26
  L 506.12 164.83
  A 0.31 0.31 0.0 0 1 506.43 164.53
  L 511.57 164.46
  A 0.31 0.31 0.0 0 1 511.88 164.77
  L 511.88 165.72
  A 0.31 0.31 0.0 0 1 511.56 166.03
  L 508.07 165.97
  A 0.31 0.31 0.0 0 0 507.76 166.26
  L 507.70 167.42
  A 0.31 0.31 0.0 0 0 508.02 167.75
  Z"
/>
<path fill="#ffffff" d="
  M 514.94 170.02
  L 515.10 171.86
  A 0.65 0.64 74.9 0 1 514.75 172.48
  Q 514.40 172.66 514.03 172.58
  Q 512.98 172.34 513.01 171.26
  L 513.13 165.95
  Q 513.17 164.55 514.56 164.46
  Q 519.08 164.15 519.29 167.24
  Q 519.34 167.86 518.92 168.32
  L 518.23 169.08
  A 0.83 0.81 -38.5 0 0 518.11 170.03
  L 519.17 171.98
  A 0.45 0.44 71.4 0 1 518.85 172.63
  L 518.48 172.69
  Q 517.73 172.81 517.38 172.15
  Q 516.86 171.16 516.30 170.21
  Q 516.04 169.75 515.52 169.57
  A 0.44 0.43 -82.4 0 0 514.94 170.02
  Z
  M 517.4838 166.7850
  A 1.39 1.22 -13.1 0 0 515.8535 165.9117
  A 1.39 1.22 -13.1 0 0 514.7762 167.4150
  A 1.39 1.22 -13.1 0 0 516.4065 168.2883
  A 1.39 1.22 -13.1 0 0 517.4838 166.7850
  Z"
/>
<path fill="#ffffff" d="
  M 521.90 171.96
  Q 521.41 172.79 520.46 172.70
  Q 519.78 172.64 519.96 171.99
  Q 521.02 168.04 522.28 165.11
  A 1.18 1.17 46.8 0 1 524.46 165.18
  L 527.00 172.16
  A 0.40 0.39 73.4 0 1 526.73 172.68
  Q 525.56 172.98 524.99 171.98
  A 1.79 1.78 45.3 0 0 521.90 171.96
  Z
  M 523.16 169.67
  A 0.68 0.68 0.0 0 0 524.22 168.92
  L 523.72 167.30
  Q 523.42 166.36 522.98 167.25
  Q 522.15 168.94 523.16 169.67
  Z"
/>
<path fill="#ffffff" d="
  M 536.72 166.18
  Q 535.95 165.78 535.06 165.65
  A 0.24 0.23 -80.9 0 1 534.86 165.37
  L 534.93 165.00
  Q 535.02 164.53 535.50 164.52
  L 540.00 164.50
  Q 541.36 164.49 540.56 165.59
  Q 540.16 166.13 539.60 166.15
  Q 538.83 166.18 538.85 166.95
  L 538.98 172.08
  A 0.54 0.54 0.0 0 1 538.45 172.63
  L 537.92 172.63
  Q 536.97 172.63 536.98 171.67
  L 537.05 166.72
  Q 537.05 166.35 536.72 166.18
  Z"
/>
<rect fill="#ffffff" x="-0.90" y="-3.89" transform="translate(542.81,168.57) rotate(-0.7)" width="1.80" height="7.78" rx="0.56"/>
<path fill="#ffffff" d="
  M 548.17 169.76
  Q 548.82 167.79 549.16 165.56
  Q 549.28 164.82 549.98 164.57
  Q 550.27 164.47 550.58 164.51
  Q 551.14 164.59 551.05 165.14
  Q 550.63 167.68 549.87 169.85
  Q 547.72 176.04 545.86 169.76
  Q 545.20 167.52 544.80 164.97
  A 0.39 0.39 0.0 0 1 545.25 164.52
  L 545.59 164.57
  Q 546.32 164.68 546.50 165.40
  L 547.58 169.74
  Q 547.84 170.76 548.17 169.76
  Z"
/>
<path fill="#ffffff" d="
  M 553.97 167.68
  L 557.36 167.80
  A 0.31 0.31 0.0 0 1 557.65 168.17
  L 557.47 168.99
  A 0.31 0.31 0.0 0 1 557.16 169.23
  L 553.96 169.15
  A 0.31 0.31 0.0 0 0 553.64 169.48
  L 553.72 170.84
  A 0.31 0.31 0.0 0 0 554.03 171.13
  L 557.66 171.11
  A 0.31 0.31 0.0 0 1 557.97 171.45
  L 557.89 172.40
  A 0.31 0.31 0.0 0 1 557.57 172.68
  L 552.34 172.57
  A 0.31 0.31 0.0 0 1 552.04 172.25
  L 552.23 164.79
  A 0.31 0.31 0.0 0 1 552.54 164.49
  L 557.52 164.50
  A 0.31 0.31 0.0 0 1 557.83 164.78
  L 557.90 165.67
  A 0.31 0.31 0.0 0 1 557.59 166.01
  L 554.03 165.98
  A 0.31 0.31 0.0 0 0 553.72 166.28
  L 553.67 167.36
  A 0.31 0.31 0.0 0 0 553.97 167.68
  Z"
/>
<path fill="#ffffff" d="
  M 493.87 178.26
  Q 493.26 179.68 493.23 181.38
  Q 493.22 182.17 492.44 182.05
  Q 491.57 181.92 491.22 180.42
  A 2.10 1.09 54.1 0 1 491.18 180.15
  Q 491.10 179.13 490.71 178.14
  Q 490.33 177.17 490.13 178.19
  Q 489.91 179.34 490.14 180.88
  Q 490.27 181.77 489.42 182.03
  L 489.08 182.14
  Q 488.13 182.43 488.17 181.45
  L 488.49 174.34
  Q 488.52 173.71 489.16 173.72
  L 490.26 173.74
  Q 490.88 173.75 491.00 174.37
  Q 491.27 175.75 491.68 177.04
  Q 492.28 178.94 492.91 177.05
  Q 493.27 175.98 493.52 174.79
  Q 493.69 173.95 494.36 173.53
  Q 494.87 173.21 495.41 173.42
  Q 495.96 173.63 495.98 174.22
  L 496.30 181.45
  Q 496.33 182.15 495.64 181.99
  L 495.23 181.89
  A 0.94 0.94 0.0 0 1 494.51 180.87
  Q 494.66 179.50 494.36 178.30
  Q 494.18 177.53 493.87 178.26
  Z"
/>
<path fill="#ffffff" d="
  M 515.32 176.42
  Q 515.56 179.03 515.30 181.21
  Q 515.20 181.99 514.38 182.17
  Q 513.81 182.29 513.73 181.72
  Q 513.30 178.95 513.71 176.23
  A 0.65 0.64 14.3 0 0 513.29 175.53
  Q 512.52 175.25 511.69 175.25
  Q 510.88 175.26 511.24 174.53
  L 511.49 174.05
  Q 511.85 173.32 512.63 173.54
  Q 514.27 174.00 515.94 173.38
  A 0.91 0.91 0.0 0 1 516.70 173.43
  Q 517.25 173.73 517.32 174.18
  Q 517.48 175.18 516.47 175.29
  Q 515.97 175.35 515.61 175.67
  Q 515.27 175.96 515.32 176.42
  Z"
/>
<path fill="#ffffff" d="
  M 501.33 180.58
  Q 501.50 180.62 501.67 180.58
  Q 502.84 180.32 502.87 179.13
  L 503.02 174.29
  Q 503.04 173.62 503.71 173.62
  L 504.19 173.62
  Q 504.75 173.62 504.75 174.19
  L 504.78 178.96
  Q 504.80 181.98 501.79 182.19
  L 501.21 182.23
  Q 498.57 182.41 498.20 179.79
  Q 497.75 176.61 498.10 174.03
  Q 498.16 173.53 498.65 173.64
  L 499.28 173.78
  Q 499.88 173.91 499.88 174.53
  L 499.88 178.79
  Q 499.88 180.27 501.33 180.58
  Z"
/>
<path fill="#ffffff" d="
  M 508.85 180.35
  Q 509.66 180.73 510.36 180.34
  Q 510.91 180.03 511.27 180.54
  Q 511.51 180.87 511.62 181.24
  Q 511.82 181.93 511.10 181.96
  L 507.15 182.13
  Q 506.66 182.15 506.67 181.66
  L 506.79 174.28
  Q 506.80 173.58 507.48 173.72
  L 507.78 173.78
  A 1.03 1.03 0.0 0 1 508.59 174.81
  L 508.43 179.65
  A 0.77 0.75 -76.7 0 0 508.85 180.35
  Z"
/>
<rect fill="#ffffff" x="-0.96" y="-4.28" transform="translate(519.66,177.89) rotate(1.2)" width="1.92" height="8.56" rx="0.90"/>
<path fill="#ffffff" d="
  M 527.96 178.29
  Q 527.32 179.72 527.21 181.56
  Q 527.17 182.18 526.55 182.12
  Q 525.75 182.04 525.55 181.24
  Q 525.12 179.52 524.83 177.83
  Q 524.82 177.77 524.75 177.78
  L 524.49 177.81
  Q 524.32 177.84 524.31 178.01
  L 524.17 181.34
  A 0.89 0.88 9.3 0 1 523.04 182.15
  L 522.66 182.04
  Q 522.37 181.96 522.38 181.66
  L 522.59 174.06
  Q 522.60 173.47 523.19 173.44
  C 525.57 173.29 525.12 175.53 525.73 177.01
  Q 526.71 179.39 527.14 176.85
  L 527.58 174.26
  Q 527.69 173.63 528.32 173.57
  Q 529.01 173.51 529.66 173.76
  Q 530.19 173.96 530.19 174.53
  L 530.23 181.57
  A 0.50 0.50 0.0 0 1 529.65 182.06
  L 529.36 182.01
  Q 528.74 181.91 528.68 181.28
  L 528.41 178.37
  Q 528.33 177.45 527.96 178.29
  Z"
/>
<path fill="#ffffff" d="
  M 534.69 180.46
  L 537.29 180.20
  Q 537.94 180.14 538.05 180.79
  L 538.17 181.53
  A 0.46 0.46 0.0 0 1 537.69 182.06
  Q 534.99 181.88 533.55 182.17
  Q 532.15 182.46 532.13 181.02
  L 532.04 174.87
  Q 532.02 173.76 533.13 173.73
  L 537.40 173.64
  Q 538.05 173.62 537.97 174.28
  L 537.92 174.70
  A 0.66 0.65 -84.4 0 1 537.23 175.27
  L 534.71 175.10
  Q 533.70 175.03 533.75 176.05
  L 533.77 176.54
  A 0.51 0.50 -1.7 0 0 534.29 177.02
  L 537.19 176.98
  A 0.54 0.54 0.0 0 1 537.71 177.70
  L 537.60 178.04
  Q 537.40 178.61 536.81 178.53
  L 534.57 178.25
  A 0.74 0.73 -84.0 0 0 533.75 178.92
  Q 533.71 179.41 533.83 179.87
  A 0.81 0.79 -10.0 0 0 534.69 180.46
  Z"
/>
<path fill="#ffffff" d="
  M 539.46 174.51
  A 0.91 0.91 0.0 0 1 540.37 173.60
  L 542.29 173.60
  A 4.25 4.08 0.0 0 1 546.54 177.68
  L 546.54 178.06
  A 4.25 4.08 0.0 0 1 542.29 182.14
  L 540.37 182.14
  A 0.91 0.91 0.0 0 1 539.46 181.23
  L 539.46 174.51
  Z
  M 541.30 175.95
  L 541.26 179.75
  A 0.73 0.73 0.0 0 0 541.98 180.49
  L 542.31 180.49
  A 2.50 2.38 -89.3 0 0 544.72 178.02
  L 544.72 177.76
  A 2.50 2.38 -89.3 0 0 542.37 175.23
  L 542.04 175.23
  A 0.73 0.73 0.0 0 0 541.30 175.95
  Z"
/>
<rect fill="#ffffff" x="-0.89" y="-4.15" transform="translate(548.88,177.95) rotate(0.1)" width="1.78" height="8.30" rx="0.55"/>
<path fill="#ffffff" d="
  M 553.14 181.11
  Q 552.69 182.04 551.67 182.12
  A 0.51 0.51 0.0 0 1 551.14 181.48
  Q 551.94 178.44 553.02 175.61
  Q 554.57 171.58 556.12 175.60
  Q 557.13 178.26 557.95 181.16
  A 0.67 0.66 83.0 0 1 557.29 182.01
  Q 556.48 181.98 556.17 181.26
  A 1.69 1.64 47.0 0 0 553.14 181.11
  Z
  M 554.24 176.40
  C 553.99 176.89 553.90 177.93 553.92 178.38
  Q 553.93 178.87 554.43 178.87
  L 555.02 178.87
  Q 555.68 178.87 555.49 178.24
  L 554.97 176.46
  Q 554.68 175.50 554.24 176.40
  Z"
/>
</svg>
