<?xml version="1.0" encoding="UTF-8" standalone="no"?>
<!DOCTYPE svg PUBLIC "-//W3C//DTD SVG 1.1//EN" "http://www.w3.org/Graphics/SVG/1.1/DTD/svg11.dtd">
<svg xmlns="http://www.w3.org/2000/svg" version="1.1" viewBox="0.00 0.00 590.00 255.00">
<g stroke-width="2.00" fill="none" stroke-linecap="butt">
<path stroke="#d8d8d8" stroke-opacity="0.561" vector-effect="non-scaling-stroke" d="
  M 146.21 43.02
  L 150.65 78.44
  Q 150.68 78.73 150.40 78.73
  L 143.03 78.74
  A 0.49 0.49 0.0 0 1 142.54 78.28
  L 142.12 71.97
  Q 142.05 70.89 140.97 70.89
  L 139.79 70.89
  Q 138.72 70.89 138.65 71.96
  L 138.26 78.00
  A 0.76 0.76 0.0 0 1 137.50 78.71
  L 130.92 78.74
  Q 130.27 78.74 130.31 78.10
  L 130.34 77.33"
/>
<path stroke="#c1c1c0" stroke-opacity="0.631" vector-effect="non-scaling-stroke" d="
  M 130.34 77.33
  L 134.77 41.92"
/>
<path stroke="#d8d8d8" stroke-opacity="0.561" vector-effect="non-scaling-stroke" d="
  M 134.77 41.92
  Q 135.22 41.03 135.02 39.53"
/>
<path stroke="#d8d8d8" stroke-opacity="0.561" vector-effect="non-scaling-stroke" d="
  M 179.18 74.78
  L 179.10 78.01
  Q 179.09 78.55 178.54 78.58
  L 170.96 78.98"
/>
<path stroke="#d8d8d8" stroke-opacity="0.561" vector-effect="non-scaling-stroke" d="
  M 160.54 78.76
  L 153.20 78.82
  Q 152.70 78.82 152.64 78.32
  Q 151.96 72.43 152.12 68.75
  Q 152.74 54.10 152.50 39.16"
/>
<path stroke="#d8d8d8" stroke-opacity="0.561" vector-effect="non-scaling-stroke" d="
  M 240.00 77.97
  Q 239.89 78.77 239.26 78.76
  Q 235.53 78.70 231.62 78.93
  A 0.53 0.52 88.0 0 1 231.06 78.40
  Q 231.00 71.44 231.02 64.77
  Q 231.03 63.98 230.50 63.28
  Q 230.25 62.94 229.86 62.82
  A 0.50 0.50 0.0 0 0 229.22 63.29
  L 229.09 77.96
  A 0.80 0.80 0.0 0 1 228.29 78.75
  L 221.18 78.74
  Q 220.43 78.74 220.41 77.99
  L 219.96 50.69"
/>
<path stroke="#d8d8d8" stroke-opacity="0.561" vector-effect="non-scaling-stroke" d="
  M 278.81 78.75
  L 264.29 78.66
  Q 263.74 78.65 263.69 78.10
  L 263.54 76.47"
/>
<path stroke="#d8d8d8" stroke-opacity="0.561" vector-effect="non-scaling-stroke" d="
  M 199.81 70.09
  Q 200.34 75.10 198.27 77.26
  Q 196.87 78.73 192.35 78.75
  C 187.88 78.77 181.63 80.09 180.30 74.17"
/>
<path stroke="#d8d8d8" stroke-opacity="0.561" vector-effect="non-scaling-stroke" d="
  M 214.02 70.44
  L 213.92 78.43
  Q 213.92 78.71 213.64 78.71
  L 205.78 78.74
  A 0.23 0.22 88.8 0 1 205.55 78.51
  L 204.97 51.96"
/>
<path stroke="#d8d8d8" stroke-opacity="0.561" vector-effect="non-scaling-stroke" d="
  M 262.07 77.02
  L 261.96 78.13
  Q 261.90 78.74 261.29 78.74
  L 254.39 78.76
  Q 253.76 78.76 253.69 78.13
  L 252.95 71.73
  Q 252.87 71.08 252.22 70.98
  Q 251.54 70.87 250.94 71.09
  Q 250.36 71.31 250.31 71.92
  L 249.77 78.01
  Q 249.71 78.73 248.99 78.74
  L 242.17 78.88
  Q 241.58 78.89 241.50 78.31
  L 241.42 77.70"
/>
<path stroke="#dfb300" stroke-opacity="0.561" vector-effect="non-scaling-stroke" d="
  M 330.94 92.73
  L 321.29 92.65"
/>
<path stroke="#dfb300" stroke-opacity="0.561" vector-effect="non-scaling-stroke" d="
  M 352.00 108.73
  L 353.18 111.46"
/>
<path stroke="#c7a000" stroke-opacity="0.631" vector-effect="non-scaling-stroke" d="
  M 353.18 111.46
  L 354.69 115.92
  Q 354.87 116.44 355.03 115.92
  Q 356.82 109.99 360.01 104.70"
/>
<path stroke="#dfb300" stroke-opacity="0.561" vector-effect="non-scaling-stroke" d="
  M 360.01 104.70
  Q 365.09 97.53 373.31 94.26"
/>
<path stroke="#dfb300" stroke-opacity="0.561" vector-effect="non-scaling-stroke" d="
  M 410.69 109.67
  Q 410.65 110.05 411.09 110.48"
/>
<path stroke="#c7a000" stroke-opacity="0.631" vector-effect="non-scaling-stroke" d="
  M 411.09 110.48
  L 413.11 116.40
  Q 413.29 116.95 413.41 116.39
  Q 414.87 109.54 419.06 103.55"
/>
<path stroke="#dfb300" stroke-opacity="0.561" vector-effect="non-scaling-stroke" d="
  M 419.06 103.55
  Q 423.33 98.21 430.14 94.65"
/>
<path stroke="#dfb300" stroke-opacity="0.561" vector-effect="non-scaling-stroke" d="
  M 463.30 155.52
  Q 457.97 160.78 450.22 163.46"
/>
<path stroke="#c7a000" stroke-opacity="0.631" vector-effect="non-scaling-stroke" d="
  M 450.22 163.46
  Q 444.09 164.17 440.00 163.96
  C 426.98 163.29 417.02 154.14 413.73 141.72
  Q 413.11 139.37 412.48 141.72
  Q 411.77 144.38 410.25 147.73"
/>
<path stroke="#dfb300" stroke-opacity="0.561" vector-effect="non-scaling-stroke" d="
  M 410.25 147.73
  Q 404.50 159.50 392.39 163.07"
/>
<path stroke="#c7a000" stroke-opacity="0.631" vector-effect="non-scaling-stroke" d="
  M 392.39 163.07
  C 376.88 166.65 362.93 160.52 356.77 145.45
  Q 355.76 142.96 355.04 140.66
  Q 354.70 139.57 354.40 140.68
  L 353.16 145.21"
/>
<path stroke="#dfb300" stroke-opacity="0.561" vector-effect="non-scaling-stroke" d="
  M 353.16 145.21
  L 352.07 147.68"
/>
<path stroke="#c7a000" stroke-opacity="0.631" vector-effect="non-scaling-stroke" d="
  M 352.07 147.68
  Q 351.59 148.30 351.47 148.89"
/>
<path stroke="#dfb300" stroke-opacity="0.561" vector-effect="non-scaling-stroke" d="
  M 351.47 148.89
  L 349.98 151.40"
/>
<path stroke="#dfb300" stroke-opacity="0.561" vector-effect="non-scaling-stroke" d="
  M 346.98 155.26
  Q 338.01 164.63 324.27 164.04"
/>
<path stroke="#c7a000" stroke-opacity="0.631" vector-effect="non-scaling-stroke" d="
  M 324.27 164.04
  Q 307.41 162.97 299.65 148.17
  Q 299.20 147.33 299.14 148.28
  L 299.02 150.06
  Q 298.98 150.60 298.44 150.62
  L 293.84 150.80"
/>
<path stroke="#dfb300" stroke-opacity="0.561" vector-effect="non-scaling-stroke" d="
  M 293.84 150.80
  Q 291.83 149.83 292.63 156.13"
/>
<path stroke="#dfb300" stroke-opacity="0.561" vector-effect="non-scaling-stroke" d="
  M 292.20 162.58
  L 276.08 162.79"
/>
<path stroke="#c7a000" stroke-opacity="0.631" vector-effect="non-scaling-stroke" d="
  M 276.08 162.79
  L 274.21 162.36
  Q 273.75 162.25 273.75 161.77
  L 273.75 151.50
  A 0.76 0.75 90.0 0 0 273.00 150.74
  L 238.05 150.75
  A 0.44 0.44 0.0 0 1 237.64 150.14
  L 259.07 96.85"
/>
<path stroke="#dfb300" stroke-opacity="0.561" vector-effect="non-scaling-stroke" d="
  M 259.07 96.85
  L 259.88 94.85"
/>
<path stroke="#dfb300" stroke-opacity="0.561" vector-effect="non-scaling-stroke" d="
  M 278.07 97.81
  L 274.95 105.72"
/>
<path stroke="#dfb300" stroke-opacity="0.561" vector-effect="non-scaling-stroke" d="
  M 273.94 108.10
  L 266.15 127.94"
/>
<path stroke="#dfb300" stroke-opacity="0.561" vector-effect="non-scaling-stroke" d="
  M 264.03 133.91
  L 273.12 133.90
  Q 273.73 133.90 273.73 133.30
  L 273.76 119.71
  Q 273.76 119.00 274.47 119.00
  L 289.86 118.98"
/>
<path stroke="#dfb300" stroke-opacity="0.561" vector-effect="non-scaling-stroke" d="
  M 291.92 118.96
  Q 292.17 118.99 292.48 119.22"
/>
<path stroke="#c7a000" stroke-opacity="0.631" vector-effect="non-scaling-stroke" d="
  M 292.48 119.22
  L 292.48 133.42
  Q 292.48 133.99 293.05 133.98
  L 295.21 133.96
  Q 295.79 133.95 295.73 133.37
  C 294.50 121.13 297.09 108.65 305.99 99.74"
/>
<path stroke="#dfb300" stroke-opacity="0.561" vector-effect="non-scaling-stroke" d="
  M 305.99 99.74
  Q 310.10 96.30 315.06 94.27"
/>
<path stroke="#dfb300" stroke-opacity="0.561" vector-effect="non-scaling-stroke" d="
  M 388.38 92.68
  L 378.79 92.65"
/>
<path stroke="#dfb300" stroke-opacity="0.561" vector-effect="non-scaling-stroke" d="
  M 444.13 92.43
  L 437.30 92.70"
/>
<path stroke="#dfb300" stroke-opacity="0.561" vector-effect="non-scaling-stroke" d="
  M 209.55 107.56
  Q 209.85 108.75 211.39 110.58
  Q 211.72 110.98 211.98 110.53
  L 220.74 95.43"
/>
<path stroke="#dfb300" stroke-opacity="0.561" vector-effect="non-scaling-stroke" d="
  M 229.90 115.35
  L 223.12 126.32
  A 1.10 1.09 51.5 0 0 223.02 127.23
  Q 223.54 128.73 224.68 130.11"
/>
<path stroke="#dfb300" stroke-opacity="0.561" vector-effect="non-scaling-stroke" d="
  M 234.09 145.54
  L 236.18 148.80"
/>
<path stroke="#c7a000" stroke-opacity="0.631" vector-effect="non-scaling-stroke" d="
  M 236.18 148.80
  Q 236.61 150.15 237.51 151.07"
/>
<path stroke="#dfb300" stroke-opacity="0.561" vector-effect="non-scaling-stroke" d="
  M 237.51 151.07
  L 240.71 156.41"
/>
<path stroke="#c7a000" stroke-opacity="0.631" vector-effect="non-scaling-stroke" d="
  M 238.95 162.66
  L 223.19 162.43
  Q 222.65 162.42 222.39 161.95
  L 212.01 143.73
  Q 211.66 143.13 211.32 143.73
  L 208.47 148.77"
/>
<path stroke="#dfb300" stroke-opacity="0.561" vector-effect="non-scaling-stroke" d="
  M 208.47 148.77
  Q 208.20 149.00 207.97 149.56"
/>
<path stroke="#c7a000" stroke-opacity="0.631" vector-effect="non-scaling-stroke" d="
  M 197.97 162.66
  L 181.12 162.57"
/>
<path stroke="#c7a000" stroke-opacity="0.631" vector-effect="non-scaling-stroke" d="
  M 179.02 162.36
  L 200.20 127.46
  A 1.03 1.03 0.0 0 0 200.19 126.39
  L 182.77 98.48"
/>
<path stroke="#dfb300" stroke-opacity="0.561" vector-effect="non-scaling-stroke" d="
  M 180.38 94.05
  L 182.77 98.48"
/>
<path stroke="#dfb300" stroke-opacity="0.561" vector-effect="non-scaling-stroke" d="
  M 179.02 162.36
  L 181.12 162.57"
/>
<path stroke="#dfb300" stroke-opacity="0.561" vector-effect="non-scaling-stroke" d="
  M 197.97 162.66
  Q 200.99 162.88 201.70 160.65"
/>
<path stroke="#dfb300" stroke-opacity="0.561" vector-effect="non-scaling-stroke" d="
  M 174.54 98.34
  L 178.56 101.37
  Q 178.99 101.70 178.70 102.15
  L 178.10 103.07"
/>
<path stroke="#dfb300" stroke-opacity="0.561" vector-effect="non-scaling-stroke" d="
  M 172.96 110.06
  L 168.86 115.38
  Q 168.56 115.77 168.13 115.51
  L 166.26 114.37"
/>
<path stroke="#c7a000" stroke-opacity="0.631" vector-effect="non-scaling-stroke" d="
  M 166.26 114.37
  Q 158.00 108.00 148.73 111.07"
/>
<path stroke="#dfb300" stroke-opacity="0.561" vector-effect="non-scaling-stroke" d="
  M 148.73 111.07
  Q 143.72 112.39 139.87 116.87
  Q 135.39 122.09 135.73 129.14"
/>
<path stroke="#dfb300" stroke-opacity="0.561" vector-effect="non-scaling-stroke" d="
  M 159.76 146.03
  Q 162.36 145.61 163.91 144.58"
/>
<path stroke="#c7a000" stroke-opacity="0.631" vector-effect="non-scaling-stroke" d="
  M 163.91 144.58
  Q 168.39 142.42 169.20 137.79
  A 0.67 0.66 5.0 0 0 168.54 137.01
  L 154.43 137.00
  Q 153.81 137.00 153.81 136.37
  L 153.72 123.71"
/>
<path stroke="#dfb300" stroke-opacity="0.561" vector-effect="non-scaling-stroke" d="
  M 153.72 123.71
  L 153.80 123.04"
/>
<path stroke="#dfb300" stroke-opacity="0.561" vector-effect="non-scaling-stroke" d="
  M 172.58 122.63
  L 184.45 122.57"
/>
<path stroke="#dfb300" stroke-opacity="0.561" vector-effect="non-scaling-stroke" d="
  M 189.72 134.40
  L 188.67 139.55"
/>
<path stroke="#c7a000" stroke-opacity="0.631" vector-effect="non-scaling-stroke" d="
  M 188.67 139.55
  Q 185.35 151.16 175.70 157.90"
/>
<path stroke="#dfb300" stroke-opacity="0.561" vector-effect="non-scaling-stroke" d="
  M 175.70 157.90
  L 167.10 162.19"
/>
<path stroke="#c7a000" stroke-opacity="0.631" vector-effect="non-scaling-stroke" d="
  M 167.10 162.19
  Q 148.98 167.13 134.68 158.78
  Q 125.66 153.51 120.81 144.76
  Q 113.43 131.44 119.02 115.26"
/>
<path stroke="#dfb300" stroke-opacity="0.561" vector-effect="non-scaling-stroke" d="
  M 119.02 115.26
  Q 125.86 99.76 142.20 94.28"
/>
<path stroke="#dfb300" stroke-opacity="0.561" vector-effect="non-scaling-stroke" d="
  M 143.97 93.72
  Q 144.93 93.72 145.91 93.27"
/>
<path stroke="#d8d8d8" stroke-opacity="0.561" vector-effect="non-scaling-stroke" d="
  M 139.79 64.41
  L 140.97 64.39
  A 0.25 0.25 0.0 0 0 141.22 64.14
  L 141.22 64.01
  A 12.86 0.84 89.1 0 0 140.18 51.16
  L 140.18 51.16
  A 12.86 0.84 89.1 0 0 139.54 64.03
  L 139.54 64.16
  A 0.25 0.25 0.0 0 0 139.79 64.41"
/>
<path stroke="#dfb300" stroke-opacity="0.561" vector-effect="non-scaling-stroke" d="
  M 320.84 111.92
  A 11.22 7.81 -70.3 0 0 319.75 112.79"
/>
<path stroke="#dfb300" stroke-opacity="0.561" vector-effect="non-scaling-stroke" d="
  M 326.46 146.22
  A 4.60 2.94 -13.7 0 0 327.10 146.13"
/>
<path stroke="#dfb300" stroke-opacity="0.561" vector-effect="non-scaling-stroke" d="
  M 329.90 145.06
  A 17.99 11.76 89.7 0 0 334.86 139.47"
/>
<path stroke="#c7a000" stroke-opacity="0.631" vector-effect="non-scaling-stroke" d="
  M 334.86 139.47
  A 17.98 11.70 89.9 0 0 335.27 117.96
  A 17.96 11.67 89.9 0 0 328.41 110.80
  A 17.93 11.65 -90.0 0 0 320.84 111.92"
/>
<path stroke="#dfb300" stroke-opacity="0.561" vector-effect="non-scaling-stroke" d="
  M 378.02 112.79
  A 18.00 11.72 89.8 0 0 374.33 118.11"
/>
<path stroke="#dfb300" stroke-opacity="0.561" vector-effect="non-scaling-stroke" d="
  M 384.31 146.27
  A 17.94 11.62 90.0 0 0 391.07 142.56"
/>
<path stroke="#c7a000" stroke-opacity="0.631" vector-effect="non-scaling-stroke" d="
  M 391.07 142.56
  A 17.99 11.66 89.9 0 0 394.40 120.29
  A 18.01 11.74 89.9 0 0 391.33 114.36
  A 17.98 11.65 89.8 0 0 381.73 110.62
  A 17.94 11.67 89.4 0 0 378.02 112.79"
/>
<path stroke="#dfb300" stroke-opacity="0.561" vector-effect="non-scaling-stroke" d="
  M 439.35 110.83
  A 18.02 11.71 89.9 0 0 432.06 119.37"
/>
<path stroke="#dfb300" stroke-opacity="0.561" vector-effect="non-scaling-stroke" d="
  M 441.19 146.21
  A 18.01 11.67 -89.9 0 0 449.80 141.97"
/>
<path stroke="#c7a000" stroke-opacity="0.631" vector-effect="non-scaling-stroke" d="
  M 449.80 141.97
  A 17.99 11.67 89.9 0 0 452.40 119.52
  A 17.97 11.71 90.0 0 0 448.69 113.33
  A 17.99 11.67 90.0 0 0 439.35 110.83"
/>
</g>
<path fill="#f2f2f2" d="
  M 146.21 43.02
  L 150.65 78.44
  Q 150.68 78.73 150.40 78.73
  L 143.03 78.74
  A 0.49 0.49 0.0 0 1 142.54 78.28
  L 142.12 71.97
  Q 142.05 70.89 140.97 70.89
  L 139.79 70.89
  Q 138.72 70.89 138.65 71.96
  L 138.26 78.00
  A 0.76 0.76 0.0 0 1 137.50 78.71
  L 130.92 78.74
  Q 130.27 78.74 130.31 78.10
  L 130.34 77.33
  L 134.77 41.92
  Q 135.22 41.03 135.02 39.53
  Q 134.92 39.96 135.25 39.36
  Q 135.35 39.18 135.56 39.18
  L 145.04 39.21
  Q 145.65 39.21 145.74 39.82
  L 146.21 43.02
  Z
  M 139.79 64.41
  L 140.97 64.39
  A 0.25 0.25 0.0 0 0 141.22 64.14
  L 141.22 64.01
  A 12.86 0.84 89.1 0 0 140.18 51.16
  L 140.18 51.16
  A 12.86 0.84 89.1 0 0 139.54 64.03
  L 139.54 64.16
  A 0.25 0.25 0.0 0 0 139.79 64.41
  Z"
/>
<path fill="#f2f2f2" d="
  M 179.18 74.78
  L 179.10 78.01
  Q 179.09 78.55 178.54 78.58
  L 170.96 78.98
  Q 171.11 75.90 171.21 73.01
  Q 171.43 66.53 171.23 57.87
  Q 171.22 57.77 171.14 57.74
  Q 171.09 57.72 171.04 57.74
  Q 170.99 57.76 170.99 57.81
  Q 170.16 68.21 168.83 77.78
  Q 168.66 78.95 167.49 78.95
  L 163.96 78.94
  A 0.90 0.90 0.0 0 1 163.07 78.19
  Q 161.74 70.33 161.07 62.10
  C 160.95 60.65 160.48 59.32 160.25 57.84
  Q 160.24 57.79 160.21 57.75
  Q 160.17 57.71 160.12 57.72
  Q 160.05 57.73 160.06 57.79
  Q 160.62 68.29 160.54 78.76
  L 153.20 78.82
  Q 152.70 78.82 152.64 78.32
  Q 151.96 72.43 152.12 68.75
  Q 152.74 54.10 152.50 39.16
  L 163.41 39.25
  Q 163.93 39.26 164.02 39.77
  C 164.95 45.24 165.00 50.10 165.69 55.05
  Q 165.73 55.28 165.95 55.33
  Q 166.02 55.35 166.06 55.30
  Q 166.15 55.21 166.15 55.09
  Q 166.33 47.68 167.56 39.59
  Q 167.64 39.04 168.20 39.04
  L 178.24 39.05
  Q 179.22 39.05 179.22 40.03
  L 179.18 74.78
  Z"
/>
<path fill="#f2f2f2" d="
  M 199.81 70.09
  Q 200.34 75.10 198.27 77.26
  Q 196.87 78.73 192.35 78.75
  C 187.88 78.77 181.63 80.09 180.30 74.17
  L 180.32 63.88
  Q 180.32 62.02 182.18 62.02
  L 187.37 62.01
  Q 189.24 62.01 189.21 63.87
  L 189.10 71.19
  Q 189.09 72.08 189.98 72.15
  L 190.46 72.19
  A 0.50 0.50 0.0 0 0 190.99 71.69
  L 191.02 64.03
  A 2.50 2.50 0.0 0 0 189.57 61.76
  C 185.45 59.85 180.25 57.99 180.24 52.52
  Q 180.23 48.48 180.28 44.57
  C 180.32 41.18 181.87 38.87 185.44 39.00
  Q 188.58 39.11 191.33 38.96
  C 195.29 38.75 199.21 38.94 199.73 43.39
  Q 200.06 46.24 200.00 51.54
  Q 199.99 52.73 198.79 52.76
  L 192.80 52.90
  Q 191.03 52.94 191.01 51.17
  L 190.96 46.03
  A 0.58 0.58 0.0 0 0 190.38 45.46
  L 190.00 45.46
  A 0.95 0.95 0.0 0 0 189.04 46.41
  L 189.01 51.12
  A 2.21 2.20 12.8 0 0 190.28 53.13
  C 193.87 54.81 199.26 57.36 199.90 61.62
  Q 200.32 64.45 199.81 70.09
  Z"
/>
<path fill="#f2f2f2" d="
  M 214.02 70.44
  L 213.92 78.43
  Q 213.92 78.71 213.64 78.71
  L 205.78 78.74
  A 0.23 0.22 88.8 0 1 205.55 78.51
  L 204.97 51.96
  L 205.26 46.11
  A 0.66 0.66 0.0 0 0 204.49 45.43
  L 202.40 45.79
  Q 201.04 46.03 201.03 44.65
  L 201.01 40.02
  Q 201.00 39.04 201.98 39.04
  L 217.26 39.03
  Q 218.25 39.03 218.26 40.01
  L 218.28 44.42
  Q 218.29 45.90 216.83 45.71
  L 214.79 45.44
  Q 214.07 45.34 214.07 46.07
  L 214.02 70.44
  Z"
/>
<path fill="#f2f2f2" d="
  M 240.00 77.97
  Q 239.89 78.77 239.26 78.76
  Q 235.53 78.70 231.62 78.93
  A 0.53 0.52 88.0 0 1 231.06 78.40
  Q 231.00 71.44 231.02 64.77
  Q 231.03 63.98 230.50 63.28
  Q 230.25 62.94 229.86 62.82
  A 0.50 0.50 0.0 0 0 229.22 63.29
  L 229.09 77.96
  A 0.80 0.80 0.0 0 1 228.29 78.75
  L 221.18 78.74
  Q 220.43 78.74 220.41 77.99
  L 219.96 50.69
  L 220.31 39.76
  Q 220.33 39.04 221.05 39.03
  Q 227.81 38.93 234.26 39.16
  Q 239.41 39.34 239.84 44.63
  C 240.12 48.13 240.28 52.20 239.61 55.61
  Q 239.20 57.70 237.03 58.77
  Q 236.32 59.12 237.00 59.53
  C 240.21 61.45 240.19 63.92 240.12 67.25
  Q 240.02 72.60 240.00 77.97
  Z
  M 231.0016 46.4450
  A 0.91 0.91 0.0 0 0 230.0964 45.5303
  L 230.0164 45.5299
  A 0.91 0.91 0.0 0 0 229.1016 46.4351
  L 229.0584 54.6950
  A 0.91 0.91 0.0 0 0 229.9636 55.6097
  L 230.0436 55.6101
  A 0.91 0.91 0.0 0 0 230.9584 54.7049
  L 231.0016 46.4450
  Z"
/>
<path fill="#f2f2f2" d="
  M 262.07 77.02
  L 261.96 78.13
  Q 261.90 78.74 261.29 78.74
  L 254.39 78.76
  Q 253.76 78.76 253.69 78.13
  L 252.95 71.73
  Q 252.87 71.08 252.22 70.98
  Q 251.54 70.87 250.94 71.09
  Q 250.36 71.31 250.31 71.92
  L 249.77 78.01
  Q 249.71 78.73 248.99 78.74
  L 242.17 78.88
  Q 241.58 78.89 241.50 78.31
  L 241.42 77.70
  L 246.33 39.60
  A 0.67 0.66 -85.6 0 1 247.00 39.02
  L 256.51 39.16
  Q 257.16 39.17 257.25 39.81
  L 262.07 77.02
  Z
  M 251.26 64.32
  L 252.14 64.33
  A 0.22 0.22 0.0 0 0 252.36 64.12
  L 252.36 63.98
  A 13.46 0.62 -89.3 0 0 251.90 50.51
  L 251.82 50.51
  A 13.46 0.62 -89.3 0 0 251.04 63.96
  L 251.04 64.10
  A 0.22 0.22 0.0 0 0 251.26 64.32
  Z"
/>
<path fill="#f2f2f2" d="
  M 278.81 78.75
  L 264.29 78.66
  Q 263.74 78.65 263.69 78.10
  L 263.54 76.47
  L 263.52 39.62
  Q 263.52 39.11 264.04 39.09
  Q 275.44 38.76 279.02 39.20
  Q 281.27 39.49 282.66 41.99
  Q 283.42 43.35 283.46 46.17
  Q 283.64 59.49 283.61 71.75
  Q 283.60 77.12 278.81 78.75
  Z
  M 274.37 46.22
  A 0.70 0.70 0.0 0 0 273.67 45.52
  L 273.27 45.52
  A 0.70 0.70 0.0 0 0 272.57 46.22
  L 272.57 71.54
  A 0.70 0.70 0.0 0 0 273.27 72.24
  L 273.67 72.24
  A 0.70 0.70 0.0 0 0 274.37 71.54
  L 274.37 46.22
  Z"
/>
<path fill="#000000" fill-opacity="0.122" d="
  M 152.50 39.16
  Q 152.74 54.10 152.12 68.75
  Q 151.96 72.43 152.64 78.32
  Q 152.70 78.82 153.20 78.82
  L 160.54 78.76
  Q 160.18 79.89 159.29 80.71
  A 0.76 0.74 17.4 0 1 158.91 80.90
  L 155.49 81.53
  Q 154.97 81.62 154.68 82.06
  Q 154.38 82.52 153.81 82.53
  Q 142.35 82.78 129.32 82.58
  Q 128.88 82.57 128.88 82.13
  L 128.88 81.81
  Q 128.88 81.53 128.69 81.33
  Q 125.75 78.33 126.44 74.20
  Q 126.84 71.75 126.94 69.29
  Q 127.07 66.11 127.56 63.32
  Q 128.12 60.18 128.43 57.16
  Q 128.76 53.98 128.99 50.90
  Q 129.15 48.73 129.64 46.65
  Q 130.40 43.44 130.85 42.51
  Q 131.86 40.45 135.02 39.53
  Q 135.22 41.03 134.77 41.92
  Q 133.87 42.84 133.87 44.12
  Q 133.88 44.31 133.78 44.47
  Q 133.67 44.63 133.50 44.63
  Q 132.95 44.62 132.87 45.17
  Q 132.76 45.96 132.44 46.77
  Q 132.11 47.59 132.06 48.29
  Q 131.70 53.57 130.75 58.78
  Q 130.43 60.55 130.30 62.26
  Q 130.17 64.02 129.88 65.68
  Q 129.08 70.27 128.79 76.06
  A 0.54 0.53 -74.1 0 0 129.05 76.54
  Q 129.54 76.84 129.65 76.62
  Q 129.87 76.21 130.04 76.62
  L 130.34 77.33
  L 130.31 78.10
  Q 130.27 78.74 130.92 78.74
  L 137.50 78.71
  A 0.76 0.76 0.0 0 0 138.26 78.00
  L 138.65 71.96
  Q 138.72 70.89 139.79 70.89
  L 140.97 70.89
  Q 142.05 70.89 142.12 71.97
  L 142.54 78.28
  A 0.49 0.49 0.0 0 0 143.03 78.74
  L 150.40 78.73
  Q 150.68 78.73 150.65 78.44
  L 146.21 43.02
  Q 148.31 42.27 150.11 40.27
  A 1.21 1.21 0.0 0 1 150.90 39.88
  Q 151.54 39.82 152.50 39.16
  Z"
/>
<path fill="#040200" fill-opacity="0.259" d="
  M 134.77 41.92
  L 130.34 77.33
  L 130.04 76.62
  Q 129.87 76.21 129.65 76.62
  Q 129.54 76.84 129.05 76.54
  A 0.54 0.53 -74.1 0 1 128.79 76.06
  Q 129.08 70.27 129.88 65.68
  Q 130.17 64.02 130.30 62.26
  Q 130.43 60.55 130.75 58.78
  Q 131.70 53.57 132.06 48.29
  Q 132.11 47.59 132.44 46.77
  Q 132.76 45.96 132.87 45.17
  Q 132.95 44.62 133.50 44.63
  Q 133.67 44.63 133.78 44.47
  Q 133.88 44.31 133.87 44.12
  Q 133.87 42.84 134.77 41.92
  Z"
/>
<path fill="#000000" fill-opacity="0.122" d="
  M 219.96 50.69
  L 220.41 77.99
  Q 220.43 78.74 221.18 78.74
  L 228.29 78.75
  A 0.80 0.80 0.0 0 0 229.09 77.96
  L 229.22 63.29
  A 0.50 0.50 0.0 0 1 229.86 62.82
  Q 230.25 62.94 230.50 63.28
  Q 231.03 63.98 231.02 64.77
  Q 231.00 71.44 231.06 78.40
  A 0.53 0.52 88.0 0 0 231.62 78.93
  Q 235.53 78.70 239.26 78.76
  Q 239.89 78.77 240.00 77.97
  Q 240.80 77.97 241.42 77.70
  L 241.50 78.31
  Q 241.58 78.89 242.17 78.88
  L 248.99 78.74
  Q 249.71 78.73 249.77 78.01
  L 250.31 71.92
  Q 250.36 71.31 250.94 71.09
  Q 251.54 70.87 252.22 70.98
  Q 252.87 71.08 252.95 71.73
  L 253.69 78.13
  Q 253.76 78.76 254.39 78.76
  L 261.29 78.74
  Q 261.90 78.74 261.96 78.13
  L 262.07 77.02
  Q 263.02 76.45 263.54 76.47
  L 263.69 78.10
  Q 263.74 78.65 264.29 78.66
  L 278.81 78.75
  Q 277.69 79.37 278.61 80.57
  A 0.33 0.33 0.0 0 1 278.47 81.08
  Q 278.28 81.15 278.19 81.30
  Q 277.87 81.89 278.53 81.99
  Q 278.76 82.03 278.99 82.09
  Q 279.81 82.31 278.96 82.36
  C 271.68 82.80 264.78 82.42 257.63 82.60
  Q 253.37 82.70 248.38 82.65
  Q 235.06 82.51 218.17 82.64
  C 216.90 82.65 215.61 82.20 214.36 82.33
  Q 207.52 83.02 201.62 82.48
  Q 201.29 82.45 201.02 82.25
  Q 200.10 81.56 199.06 82.08
  Q 198.63 82.30 198.14 82.33
  Q 189.95 82.95 184.02 82.69
  Q 177.62 82.41 173.28 82.63
  Q 172.74 82.66 172.50 82.17
  L 170.96 78.98
  L 178.54 78.58
  Q 179.09 78.55 179.10 78.01
  L 179.18 74.78
  Q 180.05 74.09 180.30 74.17
  C 181.63 80.09 187.88 78.77 192.35 78.75
  Q 196.87 78.73 198.27 77.26
  Q 200.34 75.10 199.81 70.09
  Q 201.90 70.19 203.00 69.15
  Q 203.80 68.39 203.96 66.36
  Q 204.41 60.74 204.12 58.75
  Q 203.44 53.99 204.97 51.96
  L 205.55 78.51
  A 0.23 0.22 88.8 0 0 205.78 78.74
  L 213.64 78.71
  Q 213.92 78.71 213.92 78.43
  L 214.02 70.44
  Q 214.34 71.33 215.06 70.14
  Q 215.32 69.72 215.82 69.70
  Q 218.24 69.62 218.53 66.80
  Q 218.87 63.54 218.89 60.08
  Q 218.89 59.35 219.33 58.73
  Q 219.64 58.31 219.66 57.80
  L 219.96 50.69
  Z"
/>
<path fill="#000000" fill-opacity="0.122" d="
  M 139.79 64.41
  A 0.25 0.25 0.0 0 1 139.54 64.16
  L 139.54 64.03
  A 12.86 0.84 89.1 0 1 140.18 51.16
  L 140.18 51.16
  A 12.86 0.84 89.1 0 1 141.22 64.01
  L 141.22 64.14
  A 0.25 0.25 0.0 0 1 140.97 64.39
  L 139.79 64.41
  Z"
/>
<path fill="#000000" fill-opacity="0.122" d="
  M 330.94 92.73
  L 321.29 92.65
  Q 326.52 90.69 330.94 92.73
  Z"
/>
<path fill="#000000" fill-opacity="0.122" d="
  M 388.38 92.68
  L 378.79 92.65
  Q 383.25 90.77 388.38 92.68
  Z"
/>
<path fill="#000000" fill-opacity="0.122" d="
  M 444.13 92.43
  L 437.30 92.70
  Q 440.62 90.92 444.13 92.43
  Z"
/>
<path fill="#fac900" d="
  M 174.54 98.34
  L 178.56 101.37
  Q 178.99 101.70 178.70 102.15
  L 178.10 103.07
  L 172.96 110.06
  L 168.86 115.38
  Q 168.56 115.77 168.13 115.51
  L 166.26 114.37
  Q 158.00 108.00 148.73 111.07
  Q 143.72 112.39 139.87 116.87
  Q 135.39 122.09 135.73 129.14
  Q 136.43 139.03 144.91 143.85
  Q 151.86 147.80 159.76 146.03
  Q 162.36 145.61 163.91 144.58
  Q 168.39 142.42 169.20 137.79
  A 0.67 0.66 5.0 0 0 168.54 137.01
  L 154.43 137.00
  Q 153.81 137.00 153.81 136.37
  L 153.72 123.71
  L 153.80 123.04
  L 172.58 122.63
  L 184.45 122.57
  L 188.79 122.82
  Q 189.41 122.85 189.43 123.47
  L 189.72 134.40
  L 188.67 139.55
  Q 185.35 151.16 175.70 157.90
  L 167.10 162.19
  Q 148.98 167.13 134.68 158.78
  Q 125.66 153.51 120.81 144.76
  Q 113.43 131.44 119.02 115.26
  Q 125.86 99.76 142.20 94.28
  L 143.97 93.72
  Q 144.93 93.72 145.91 93.27
  Q 160.99 90.45 174.54 98.34
  Z"
/>
<path fill="#fac900" d="
  M 330.94 92.73
  Q 345.36 95.54 352.00 108.73
  L 353.18 111.46
  L 354.69 115.92
  Q 354.87 116.44 355.03 115.92
  Q 356.82 109.99 360.01 104.70
  Q 365.09 97.53 373.31 94.26
  L 378.79 92.65
  L 388.38 92.68
  Q 403.83 95.09 410.69 109.67
  Q 410.65 110.05 411.09 110.48
  L 413.11 116.40
  Q 413.29 116.95 413.41 116.39
  Q 414.87 109.54 419.06 103.55
  Q 423.33 98.21 430.14 94.65
  L 437.30 92.70
  L 444.13 92.43
  C 467.70 94.46 474.98 116.78 471.74 136.99
  Q 470.00 147.82 463.30 155.52
  Q 457.97 160.78 450.22 163.46
  Q 444.09 164.17 440.00 163.96
  C 426.98 163.29 417.02 154.14 413.73 141.72
  Q 413.11 139.37 412.48 141.72
  Q 411.77 144.38 410.25 147.73
  Q 404.50 159.50 392.39 163.07
  C 376.88 166.65 362.93 160.52 356.77 145.45
  Q 355.76 142.96 355.04 140.66
  Q 354.70 139.57 354.40 140.68
  L 353.16 145.21
  L 352.07 147.68
  Q 351.59 148.30 351.47 148.89
  L 349.98 151.40
  L 346.98 155.26
  Q 338.01 164.63 324.27 164.04
  Q 307.41 162.97 299.65 148.17
  Q 299.20 147.33 299.14 148.28
  L 299.02 150.06
  Q 298.98 150.60 298.44 150.62
  L 293.84 150.80
  Q 291.83 149.83 292.63 156.13
  L 292.20 162.58
  L 276.08 162.79
  L 274.21 162.36
  Q 273.75 162.25 273.75 161.77
  L 273.75 151.50
  A 0.76 0.75 90.0 0 0 273.00 150.74
  L 238.05 150.75
  A 0.44 0.44 0.0 0 1 237.64 150.14
  L 259.07 96.85
  L 259.88 94.85
  L 260.40 93.94
  Q 260.67 93.48 261.20 93.48
  L 278.72 93.49
  A 0.68 0.68 0.0 0 1 279.35 94.41
  L 278.07 97.81
  L 274.95 105.72
  L 273.94 108.10
  L 266.15 127.94
  L 264.03 133.91
  L 273.12 133.90
  Q 273.73 133.90 273.73 133.30
  L 273.76 119.71
  Q 273.76 119.00 274.47 119.00
  L 289.86 118.98
  L 291.92 118.96
  Q 292.17 118.99 292.48 119.22
  L 292.48 133.42
  Q 292.48 133.99 293.05 133.98
  L 295.21 133.96
  Q 295.79 133.95 295.73 133.37
  C 294.50 121.13 297.09 108.65 305.99 99.74
  Q 310.10 96.30 315.06 94.27
  L 321.29 92.65
  L 330.94 92.73
  Z
  M 320.84 111.92
  A 11.22 7.81 -70.3 0 0 319.75 112.79
  A 18.10 11.73 -90.0 0 0 315.39 119.78
  A 17.97 11.69 89.9 0 0 314.80 134.75
  A 17.97 11.69 -90.0 0 0 318.42 142.34
  A 17.99 11.72 -89.9 0 0 326.46 146.22
  A 4.60 2.94 -13.7 0 0 327.10 146.13
  A 18.23 11.79 -89.1 0 0 329.90 145.06
  A 17.99 11.76 89.7 0 0 334.86 139.47
  A 17.98 11.70 89.9 0 0 335.27 117.96
  A 17.96 11.67 89.9 0 0 328.41 110.80
  A 17.93 11.65 -90.0 0 0 320.84 111.92
  Z
  M 378.02 112.79
  A 18.00 11.72 89.8 0 0 374.33 118.11
  A 18.00 11.67 89.9 0 0 373.43 136.01
  A 17.93 11.64 89.9 0 0 377.02 142.73
  A 17.97 11.65 89.8 0 0 384.31 146.27
  A 17.94 11.62 90.0 0 0 391.07 142.56
  A 17.99 11.66 89.9 0 0 394.40 120.29
  A 18.01 11.74 89.9 0 0 391.33 114.36
  A 17.98 11.65 89.8 0 0 381.73 110.62
  A 17.94 11.67 89.4 0 0 378.02 112.79
  Z
  M 439.35 110.83
  A 18.02 11.71 89.9 0 0 432.06 119.37
  A 18.00 11.68 89.9 0 0 431.46 135.26
  A 18.00 11.69 89.9 0 0 441.19 146.21
  A 18.01 11.67 -89.9 0 0 449.80 141.97
  A 17.99 11.67 89.9 0 0 452.40 119.52
  A 17.97 11.71 90.0 0 0 448.69 113.33
  A 17.99 11.67 90.0 0 0 439.35 110.83
  Z"
/>
<path fill="#000000" fill-opacity="0.122" d="
  M 145.91 93.27
  Q 144.93 93.72 143.97 93.72
  Q 143.66 93.07 144.26 92.94
  Q 145.47 92.67 145.91 93.27
  Z"
/>
<path fill="#000000" fill-opacity="0.122" d="
  M 142.20 94.28
  Q 125.86 99.76 119.02 115.26
  Q 117.17 116.53 116.44 118.77
  Q 114.71 124.14 114.87 132.80
  C 114.89 134.13 115.40 135.14 115.36 136.42
  Q 115.33 137.70 115.76 138.99
  Q 116.81 142.14 118.08 145.26
  Q 118.24 145.65 118.57 145.91
  Q 119.53 146.64 120.20 147.78
  Q 122.55 151.80 127.22 156.10
  Q 128.20 156.99 130.07 158.18
  Q 130.51 158.45 130.61 158.96
  Q 130.72 159.52 131.30 159.30
  A 0.72 0.71 -25.2 0 1 132.15 159.60
  Q 132.65 160.39 133.52 160.45
  A 1.40 1.33 68.7 0 1 134.43 160.88
  Q 134.94 161.42 135.59 161.68
  Q 142.28 164.33 147.01 164.73
  Q 152.38 165.19 161.22 164.50
  Q 161.91 164.44 162.51 164.10
  Q 163.17 163.73 163.90 163.85
  Q 164.24 163.91 164.12 163.59
  Q 164.09 163.49 164.18 163.42
  Q 164.49 163.19 164.89 163.23
  Q 166.67 163.38 167.10 162.19
  L 175.70 157.90
  Q 175.86 158.20 175.88 158.46
  Q 175.89 158.64 176.07 158.65
  Q 176.13 158.66 176.13 158.59
  Q 176.12 158.19 176.49 158.38
  Q 178.82 159.55 179.02 162.36
  L 181.12 162.57
  Q 182.09 163.68 183.75 163.89
  Q 191.05 164.85 197.97 162.66
  Q 200.99 162.88 201.70 160.65
  Q 201.88 161.87 201.11 162.95
  Q 200.82 163.35 200.32 163.36
  Q 198.83 163.40 197.77 164.23
  C 194.54 166.75 187.51 165.86 183.57 165.87
  Q 179.35 165.87 177.10 162.71
  A 3.21 3.20 -14.1 0 0 174.91 161.40
  Q 172.83 161.12 171.05 162.54
  Q 169.64 163.67 168.02 164.32
  Q 166.82 164.80 165.61 165.34
  Q 164.36 165.89 163.08 166.25
  Q 158.07 167.65 152.83 167.61
  Q 150.26 167.59 147.56 167.42
  Q 145.05 167.27 142.42 166.62
  Q 136.79 165.23 133.77 163.64
  Q 130.54 161.93 126.84 159.59
  Q 125.20 158.55 124.01 157.28
  C 122.63 155.81 120.74 154.45 119.73 152.75
  Q 119.09 151.68 118.11 150.86
  Q 117.73 150.54 117.59 150.07
  Q 117.30 149.12 116.59 148.44
  Q 116.18 148.05 116.14 147.49
  Q 116.05 146.35 115.19 145.47
  Q 114.75 145.02 114.57 144.42
  Q 113.69 141.50 112.87 138.60
  Q 110.88 131.63 112.14 125.00
  Q 112.52 123.06 112.70 121.21
  Q 112.74 120.74 113.02 120.35
  Q 114.06 118.90 114.53 117.16
  Q 115.15 114.92 115.72 113.93
  Q 117.45 110.89 119.12 108.12
  Q 119.29 107.84 119.60 107.75
  Q 120.09 107.62 120.39 107.21
  Q 123.34 103.19 128.07 100.54
  Q 128.34 100.39 128.54 100.16
  Q 128.68 99.98 128.79 99.78
  Q 128.93 99.51 129.18 99.34
  Q 132.20 97.32 135.47 95.64
  C 136.20 95.26 136.56 95.37 137.33 95.39
  Q 137.75 95.41 137.98 95.05
  Q 138.33 94.51 139.00 94.43
  Q 139.49 94.37 139.84 94.02
  Q 141.07 92.86 142.20 94.28
  Z"
/>
<path fill="#000000" fill-opacity="0.122" d="
  M 315.06 94.27
  Q 310.10 96.30 305.99 99.74
  Q 303.90 101.37 301.90 103.16
  Q 301.04 103.93 300.37 104.83
  Q 299.65 105.80 298.87 106.70
  Q 298.37 107.28 298.11 108.04
  C 297.63 109.43 296.61 110.58 296.16 111.81
  Q 295.02 114.95 293.60 117.96
  Q 293.40 118.39 293.04 118.71
  L 292.48 119.22
  Q 292.17 118.99 291.92 118.96
  L 296.00 108.50
  Q 296.17 108.07 296.55 107.81
  C 297.73 107.00 297.62 105.71 298.77 104.93
  Q 299.15 104.67 299.21 104.22
  Q 299.29 103.58 299.86 103.27
  Q 300.38 103.00 300.38 102.42
  L 300.38 102.07
  Q 300.38 101.67 300.71 101.45
  L 310.96 94.66
  Q 311.24 94.47 311.58 94.44
  C 312.59 94.38 313.41 93.55 314.22 93.60
  Q 314.93 93.64 315.06 94.27
  Z"
/>
<path fill="#000000" fill-opacity="0.122" d="
  M 180.38 94.05
  L 182.77 98.48
  Q 182.18 99.42 181.96 100.45
  Q 181.85 100.95 182.07 101.40
  C 182.50 102.33 182.62 103.39 183.19 104.20
  C 184.89 106.61 186.76 108.97 188.21 111.56
  Q 190.29 115.28 192.28 118.73
  Q 192.50 119.10 192.61 120.01
  Q 192.68 120.55 192.97 121.00
  C 194.64 123.57 196.95 126.80 196.23 130.00
  Q 195.63 132.71 194.34 135.70
  Q 194.15 136.15 193.75 136.44
  Q 192.43 137.41 191.71 138.81
  C 191.29 139.62 190.59 140.03 190.12 140.74
  Q 189.72 141.35 189.46 140.67
  Q 189.23 140.05 188.67 139.55
  L 189.72 134.40
  Q 190.64 137.08 193.01 132.76
  Q 195.01 129.09 193.53 125.79
  Q 193.50 125.74 191.15 121.59
  Q 189.96 119.48 188.30 117.62
  Q 187.99 117.27 187.89 116.81
  Q 187.63 115.52 186.51 114.70
  A 1.88 1.86 -85.0 0 1 185.89 113.95
  Q 185.19 112.47 184.29 111.00
  Q 183.43 109.59 182.62 108.12
  Q 180.93 105.08 178.10 103.07
  L 178.70 102.15
  Q 178.99 101.70 178.56 101.37
  L 174.54 98.34
  Q 176.44 97.93 177.54 95.79
  Q 177.76 95.36 178.20 95.14
  L 180.38 94.05
  Z"
/>
<path fill="#fac900" d="
  M 180.38 94.05
  L 201.15 94.09
  Q 201.64 94.09 201.89 94.51
  L 209.55 107.56
  Q 209.85 108.75 211.39 110.58
  Q 211.72 110.98 211.98 110.53
  L 220.74 95.43
  Q 221.02 94.80 221.51 94.36
  A 1.44 1.43 -65.9 0 1 222.47 93.99
  L 242.00 94.00
  Q 243.27 94.00 242.59 95.08
  L 229.90 115.35
  L 223.12 126.32
  A 1.10 1.09 51.5 0 0 223.02 127.23
  Q 223.54 128.73 224.68 130.11
  L 234.09 145.54
  L 236.18 148.80
  Q 236.61 150.15 237.51 151.07
  L 240.71 156.41
  L 243.96 161.81
  A 0.41 0.40 73.2 0 1 243.64 162.42
  L 238.95 162.66
  L 223.19 162.43
  Q 222.65 162.42 222.39 161.95
  L 212.01 143.73
  Q 211.66 143.13 211.32 143.73
  L 208.47 148.77
  Q 208.20 149.00 207.97 149.56
  L 201.70 160.65
  Q 200.99 162.88 197.97 162.66
  L 181.12 162.57
  L 179.02 162.36
  L 200.20 127.46
  A 1.03 1.03 0.0 0 0 200.19 126.39
  L 182.77 98.48
  L 180.38 94.05
  Z"
/>
<path fill="#000000" fill-opacity="0.122" d="
  M 373.31 94.26
  Q 365.09 97.53 360.01 104.70
  Q 357.56 105.96 356.69 108.81
  Q 356.54 109.34 356.13 109.70
  Q 355.12 110.59 354.95 111.82
  Q 354.85 112.52 354.33 112.05
  Q 353.81 111.58 353.18 111.46
  L 352.00 108.73
  Q 352.72 108.50 353.23 108.66
  Q 353.67 108.80 353.93 108.42
  Q 356.41 104.85 359.43 101.66
  Q 359.98 101.08 360.69 100.71
  Q 361.33 100.38 361.47 99.63
  A 0.80 0.79 81.4 0 1 361.88 99.07
  L 365.33 97.29
  Q 365.70 97.10 366.02 96.81
  Q 368.23 94.75 371.23 94.55
  Q 371.54 94.53 371.62 94.24
  Q 371.68 94.00 371.99 93.93
  Q 373.18 93.67 373.31 94.26
  Z"
/>
<path fill="#000000" fill-opacity="0.122" d="
  M 259.88 94.85
  L 259.07 96.85
  L 258.04 97.45
  Q 257.66 97.66 257.52 98.07
  Q 257.23 98.88 256.66 99.43
  Q 256.23 99.84 256.00 100.40
  Q 253.87 105.76 251.31 111.49
  C 250.58 113.14 250.25 114.85 249.19 116.33
  Q 248.90 116.73 248.80 117.21
  Q 248.67 117.78 248.27 118.83
  Q 244.51 128.91 240.74 138.20
  Q 239.69 140.78 238.97 143.03
  Q 238.57 144.28 237.89 145.43
  Q 237.16 146.67 237.41 148.00
  Q 237.53 148.59 236.93 148.69
  L 236.18 148.80
  L 234.09 145.54
  Q 237.06 143.00 237.39 141.26
  Q 237.79 139.21 238.83 137.43
  Q 239.09 137.00 239.10 136.50
  Q 239.13 135.02 239.99 133.91
  Q 240.29 133.52 240.36 133.03
  Q 240.60 131.10 241.67 129.16
  Q 242.58 127.52 242.97 125.64
  Q 243.41 123.52 244.60 121.76
  Q 244.87 121.37 244.94 120.89
  Q 245.19 119.13 246.29 117.86
  Q 246.64 117.46 246.62 116.93
  Q 246.60 116.25 246.98 115.66
  Q 247.39 115.05 247.66 114.35
  Q 249.15 110.48 250.51 106.72
  C 250.90 105.64 251.78 105.13 251.86 103.93
  Q 251.89 103.49 252.12 103.15
  Q 252.23 102.99 252.37 102.87
  Q 252.62 102.63 252.68 102.30
  Q 253.00 100.58 254.10 99.55
  A 1.79 1.72 78.2 0 0 254.57 98.80
  Q 255.84 94.80 259.88 94.85
  Z"
/>
<path fill="#000000" fill-opacity="0.122" d="
  M 430.14 94.65
  Q 423.33 98.21 419.06 103.55
  Q 416.20 104.93 414.48 108.56
  Q 414.26 109.02 413.78 109.20
  Q 413.23 109.41 413.16 109.99
  Q 413.09 110.54 412.54 110.61
  Q 411.77 110.72 411.09 110.48
  Q 410.65 110.05 410.69 109.67
  Q 411.81 109.38 413.05 108.37
  Q 413.43 108.05 413.50 107.56
  Q 413.79 105.29 415.33 103.61
  A 1.32 1.20 8.4 0 1 415.82 103.28
  Q 416.51 103.03 416.75 102.36
  Q 416.90 101.93 417.22 101.60
  Q 418.30 100.48 419.39 99.35
  Q 420.58 98.14 421.83 97.45
  Q 425.91 95.24 430.14 94.65
  Z"
/>
<path fill="#000000" fill-opacity="0.122" d="
  M 220.74 95.43
  L 211.98 110.53
  Q 211.72 110.98 211.39 110.58
  Q 209.85 108.75 209.55 107.56
  Q 214.16 99.85 217.53 96.29
  Q 218.60 95.16 220.74 95.43
  Z"
/>
<path fill="#040200" fill-opacity="0.259" d="
  M 259.07 96.85
  L 237.64 150.14
  A 0.44 0.44 0.0 0 0 238.05 150.75
  L 273.00 150.74
  A 0.76 0.75 90.0 0 1 273.75 151.50
  L 273.75 161.77
  Q 273.75 162.25 274.21 162.36
  L 276.08 162.79
  L 285.15 163.51
  Q 285.84 163.56 285.20 163.80
  Q 284.52 164.06 283.82 164.10
  Q 278.12 164.47 273.86 163.53
  Q 273.34 163.41 273.08 162.94
  Q 272.56 162.00 272.11 161.00
  Q 271.68 160.07 271.55 158.41
  Q 271.04 151.94 264.14 151.90
  Q 254.18 151.85 244.67 151.86
  Q 242.81 151.86 240.86 151.47
  Q 239.19 151.13 237.51 151.07
  Q 236.61 150.15 236.18 148.80
  L 236.93 148.69
  Q 237.53 148.59 237.41 148.00
  Q 237.16 146.67 237.89 145.43
  Q 238.57 144.28 238.97 143.03
  Q 239.69 140.78 240.74 138.20
  Q 244.51 128.91 248.27 118.83
  Q 248.67 117.78 248.80 117.21
  Q 248.90 116.73 249.19 116.33
  C 250.25 114.85 250.58 113.14 251.31 111.49
  Q 253.87 105.76 256.00 100.40
  Q 256.23 99.84 256.66 99.43
  Q 257.23 98.88 257.52 98.07
  Q 257.66 97.66 258.04 97.45
  L 259.07 96.85
  Z"
/>
<path fill="#000000" fill-opacity="0.122" d="
  M 278.07 97.81
  Q 278.92 99.83 277.93 102.63
  Q 277.87 102.79 277.72 102.87
  Q 277.59 102.93 277.44 102.97
  Q 277.26 103.01 277.18 103.17
  Q 276.21 105.23 275.61 107.27
  Q 275.47 107.74 275.10 108.06
  Q 274.09 108.96 274.31 110.52
  Q 274.38 111.01 274.17 111.45
  Q 273.53 112.77 273.10 114.13
  Q 272.69 115.41 273.09 116.29
  Q 273.77 117.75 275.61 117.52
  Q 280.54 116.88 285.32 117.41
  Q 285.67 117.45 285.70 117.80
  Q 285.72 117.99 285.92 118.04
  Q 288.16 118.60 289.73 117.13
  Q 291.11 115.84 291.70 113.98
  Q 292.54 111.28 294.05 108.74
  Q 295.61 106.10 297.11 103.60
  Q 298.51 101.28 301.05 99.46
  Q 301.25 99.31 301.41 99.50
  L 301.60 99.72
  Q 301.64 99.77 301.60 99.82
  Q 300.49 101.27 299.19 102.28
  Q 298.79 102.59 298.60 103.06
  Q 298.20 104.07 297.42 104.70
  Q 297.03 105.01 296.83 105.46
  Q 295.91 107.43 294.54 109.12
  Q 294.32 109.41 294.33 109.77
  Q 294.34 109.93 294.36 110.09
  Q 294.38 110.27 294.26 110.41
  Q 293.11 111.75 292.63 113.86
  Q 292.00 116.61 289.86 118.98
  L 274.47 119.00
  Q 273.76 119.00 273.76 119.71
  L 273.73 133.30
  Q 273.73 133.90 273.12 133.90
  L 264.03 133.91
  Q 266.69 133.44 267.88 133.63
  Q 267.66 133.64 267.55 133.54
  Q 267.39 133.41 267.53 133.25
  Q 270.43 130.03 267.96 126.72
  Q 267.52 126.14 267.38 126.86
  Q 267.34 127.08 267.41 127.31
  A 0.65 0.64 -20.4 0 1 267.04 128.11
  Q 266.70 128.25 266.15 127.94
  L 273.94 108.10
  L 274.67 107.90
  Q 275.21 107.75 275.21 107.20
  Q 275.21 106.41 274.95 105.72
  L 278.07 97.81
  Z"
/>
<path fill="#040200" fill-opacity="0.259" d="
  M 182.77 98.48
  L 200.19 126.39
  A 1.03 1.03 0.0 0 1 200.20 127.46
  L 179.02 162.36
  Q 178.82 159.55 176.49 158.38
  Q 176.12 158.19 176.13 158.59
  Q 176.13 158.66 176.07 158.65
  Q 175.89 158.64 175.88 158.46
  Q 175.86 158.20 175.70 157.90
  Q 185.35 151.16 188.67 139.55
  Q 189.23 140.05 189.46 140.67
  Q 189.72 141.35 190.12 140.74
  C 190.59 140.03 191.29 139.62 191.71 138.81
  Q 192.43 137.41 193.75 136.44
  Q 194.15 136.15 194.34 135.70
  Q 195.63 132.71 196.23 130.00
  C 196.95 126.80 194.64 123.57 192.97 121.00
  Q 192.68 120.55 192.61 120.01
  Q 192.50 119.10 192.28 118.73
  Q 190.29 115.28 188.21 111.56
  C 186.76 108.97 184.89 106.61 183.19 104.20
  C 182.62 103.39 182.50 102.33 182.07 101.40
  Q 181.85 100.95 181.96 100.45
  Q 182.18 99.42 182.77 98.48
  Z"
/>
<path fill="#040200" fill-opacity="0.259" d="
  M 305.99 99.74
  C 297.09 108.65 294.50 121.13 295.73 133.37
  Q 295.79 133.95 295.21 133.96
  L 293.05 133.98
  Q 292.48 133.99 292.48 133.42
  L 292.48 119.22
  L 293.04 118.71
  Q 293.40 118.39 293.60 117.96
  Q 295.02 114.95 296.16 111.81
  C 296.61 110.58 297.63 109.43 298.11 108.04
  Q 298.37 107.28 298.87 106.70
  Q 299.65 105.80 300.37 104.83
  Q 301.04 103.93 301.90 103.16
  Q 303.90 101.37 305.99 99.74
  Z"
/>
<path fill="#040200" fill-opacity="0.259" d="
  M 419.06 103.55
  Q 414.87 109.54 413.41 116.39
  Q 413.29 116.95 413.11 116.40
  L 411.09 110.48
  Q 411.77 110.72 412.54 110.61
  Q 413.09 110.54 413.16 109.99
  Q 413.23 109.41 413.78 109.20
  Q 414.26 109.02 414.48 108.56
  Q 416.20 104.93 419.06 103.55
  Z"
/>
<path fill="#040200" fill-opacity="0.259" d="
  M 360.01 104.70
  Q 356.82 109.99 355.03 115.92
  Q 354.87 116.44 354.69 115.92
  L 353.18 111.46
  Q 353.81 111.58 354.33 112.05
  Q 354.85 112.52 354.95 111.82
  Q 355.12 110.59 356.13 109.70
  Q 356.54 109.34 356.69 108.81
  Q 357.56 105.96 360.01 104.70
  Z"
/>
<path fill="#040200" fill-opacity="0.259" d="
  M 166.26 114.37
  Q 162.65 115.32 159.26 113.52
  Q 156.91 112.27 155.43 112.03
  Q 152.30 111.50 148.73 111.07
  Q 158.00 108.00 166.26 114.37
  Z"
/>
<path fill="#000000" fill-opacity="0.122" d="
  M 172.96 110.06
  Q 173.47 110.34 173.36 111.25
  Q 173.28 111.92 172.77 112.08
  Q 172.31 112.22 172.02 112.60
  L 169.29 116.17
  A 0.55 0.48 -79.6 0 1 169.10 116.32
  L 165.49 117.74
  Q 165.03 117.92 164.53 117.85
  Q 162.49 117.55 160.53 116.91
  Q 159.25 116.50 158.33 115.65
  Q 157.29 114.71 155.78 114.39
  Q 152.21 113.64 148.89 113.93
  Q 148.38 113.97 148.05 114.37
  A 1.02 1.00 -74.1 0 1 147.45 114.71
  Q 143.78 115.41 140.48 117.73
  Q 139.96 118.10 139.33 119.53
  A 0.57 0.55 88.9 0 1 139.08 119.80
  Q 138.82 119.94 138.52 119.88
  Q 138.21 119.81 138.22 120.13
  Q 138.26 120.88 137.72 121.37
  A 1.39 1.38 -30.1 0 0 137.34 122.78
  Q 137.68 123.85 136.81 124.31
  Q 136.30 124.58 136.39 125.14
  Q 136.73 127.50 135.73 129.14
  Q 135.39 122.09 139.87 116.87
  Q 143.72 112.39 148.73 111.07
  Q 152.30 111.50 155.43 112.03
  Q 156.91 112.27 159.26 113.52
  Q 162.65 115.32 166.26 114.37
  L 168.13 115.51
  Q 168.56 115.77 168.86 115.38
  L 172.96 110.06
  Z"
/>
<path fill="#040200" fill-opacity="0.259" d="
  M 334.86 139.47
  Q 335.63 132.76 335.19 126.59
  Q 334.94 122.98 333.73 120.11
  Q 332.19 116.45 330.10 114.40
  Q 326.82 111.19 320.84 111.92
  A 17.93 11.65 -90.0 0 1 328.41 110.80
  A 17.96 11.67 89.9 0 1 335.27 117.96
  A 17.98 11.70 89.9 0 1 334.86 139.47
  Z"
/>
<path fill="#040200" fill-opacity="0.259" d="
  M 391.07 142.56
  Q 390.28 141.50 391.79 139.73
  Q 392.12 139.35 392.24 138.86
  C 392.61 137.33 393.34 136.30 393.40 134.64
  Q 393.62 128.64 392.64 123.01
  Q 392.34 121.27 391.57 119.86
  Q 390.81 118.49 390.05 116.96
  Q 388.90 114.68 387.75 114.24
  Q 385.67 113.43 383.59 112.63
  Q 382.04 112.04 380.83 112.17
  Q 379.56 112.32 378.02 112.79
  A 17.94 11.67 89.4 0 1 381.73 110.62
  A 17.98 11.65 89.8 0 1 391.33 114.36
  A 18.01 11.74 89.9 0 1 394.40 120.29
  A 17.99 11.66 89.9 0 1 391.07 142.56
  Z"
/>
<path fill="#040200" fill-opacity="0.259" d="
  M 449.80 141.97
  Q 449.06 141.78 450.02 140.90
  Q 450.44 140.52 450.37 139.95
  Q 450.25 138.95 450.75 138.02
  Q 451.27 137.08 451.46 135.87
  Q 452.76 127.62 450.00 119.83
  C 449.81 119.31 449.98 118.92 449.84 118.48
  Q 449.68 117.97 449.20 117.52
  Q 448.49 116.87 448.25 115.99
  Q 448.13 115.58 447.76 115.36
  Q 447.28 115.08 447.02 114.53
  Q 446.80 114.06 446.34 113.80
  L 443.34 112.14
  Q 442.92 111.90 442.44 111.85
  Q 440.87 111.68 439.35 110.83
  A 17.99 11.67 90.0 0 1 448.69 113.33
  A 17.97 11.71 90.0 0 1 452.40 119.52
  A 17.99 11.67 89.9 0 1 449.80 141.97
  Z"
/>
<path fill="#000000" fill-opacity="0.122" d="
  M 439.35 110.83
  Q 440.87 111.68 442.44 111.85
  Q 442.92 111.90 443.34 112.14
  L 446.34 113.80
  Q 446.80 114.06 447.02 114.53
  Q 447.28 115.08 447.76 115.36
  Q 448.13 115.58 448.25 115.99
  Q 448.49 116.87 449.20 117.52
  Q 449.68 117.97 449.84 118.48
  C 449.98 118.92 449.81 119.31 450.00 119.83
  Q 452.76 127.62 451.46 135.87
  Q 451.27 137.08 450.75 138.02
  Q 450.25 138.95 450.37 139.95
  Q 450.44 140.52 450.02 140.90
  Q 449.06 141.78 449.80 141.97
  A 18.01 11.67 -89.9 0 1 441.19 146.21
  Q 446.41 142.57 447.39 138.50
  Q 449.04 131.64 448.06 124.79
  Q 447.37 119.96 444.33 116.83
  Q 442.10 114.53 438.11 114.89
  Q 436.80 115.01 435.66 115.89
  Q 434.65 116.67 433.52 117.58
  Q 433.29 117.76 433.36 118.05
  Q 433.39 118.19 433.40 118.33
  A 0.76 0.75 72.2 0 1 433.04 119.04
  Q 432.64 119.28 432.06 119.37
  A 18.02 11.71 89.9 0 1 439.35 110.83
  Z"
/>
<path fill="#000000" fill-opacity="0.122" d="
  M 334.86 139.47
  A 17.99 11.76 89.7 0 1 329.90 145.06
  Q 330.58 143.62 331.41 142.43
  Q 332.48 140.91 332.83 139.82
  Q 334.91 133.24 334.29 126.74
  Q 333.70 120.49 330.64 116.63
  Q 328.77 114.27 325.71 112.58
  A 2.10 2.07 -31.4 0 0 324.59 112.32
  Q 324.03 112.34 323.48 112.16
  Q 322.17 111.72 321.24 112.65
  A 0.94 0.92 26.3 0 1 320.47 112.90
  L 319.75 112.79
  A 11.22 7.81 -70.3 0 1 320.84 111.92
  Q 326.82 111.19 330.10 114.40
  Q 332.19 116.45 333.73 120.11
  Q 334.94 122.98 335.19 126.59
  Q 335.63 132.76 334.86 139.47
  Z"
/>
<path fill="#000000" fill-opacity="0.122" d="
  M 391.07 142.56
  A 17.94 11.62 90.0 0 1 384.31 146.27
  Q 386.02 144.05 387.36 142.28
  Q 388.14 141.26 388.48 140.24
  Q 388.84 139.17 389.37 138.10
  Q 390.11 136.58 390.47 134.79
  Q 392.27 125.74 387.36 118.08
  Q 386.05 116.03 383.97 115.23
  Q 380.60 113.92 376.97 115.39
  Q 376.64 115.52 376.61 115.89
  Q 376.54 116.68 375.79 116.84
  Q 375.37 116.93 375.26 117.34
  Q 374.95 118.39 374.33 118.11
  A 18.00 11.72 89.8 0 1 378.02 112.79
  Q 379.56 112.32 380.83 112.17
  Q 382.04 112.04 383.59 112.63
  Q 385.67 113.43 387.75 114.24
  Q 388.90 114.68 390.05 116.96
  Q 390.81 118.49 391.57 119.86
  Q 392.34 121.27 392.64 123.01
  Q 393.62 128.64 393.40 134.64
  C 393.34 136.30 392.61 137.33 392.24 138.86
  Q 392.12 139.35 391.79 139.73
  Q 390.28 141.50 391.07 142.56
  Z"
/>
<path fill="#000000" fill-opacity="0.122" d="
  M 327.10 146.13
  A 4.60 2.94 -13.7 0 1 326.46 146.22
  Q 327.49 144.09 329.22 142.55
  Q 329.60 142.21 329.69 141.71
  Q 329.78 141.10 330.22 140.65
  Q 330.49 140.38 330.64 140.00
  Q 332.04 136.67 332.31 133.42
  Q 332.84 126.87 331.41 121.96
  Q 330.68 119.45 328.54 117.02
  Q 326.77 115.02 324.16 114.69
  Q 320.66 114.26 318.09 116.19
  Q 317.88 116.35 317.69 116.54
  Q 317.51 116.73 317.32 116.54
  A 0.30 0.30 0.0 0 1 317.50 116.03
  Q 318.03 115.97 318.08 115.46
  Q 318.12 114.98 318.54 114.74
  Q 322.10 112.73 326.07 114.28
  Q 326.58 114.48 326.89 114.92
  Q 327.19 115.35 327.70 115.34
  Q 328.06 115.33 328.30 115.60
  Q 332.54 120.21 333.27 126.66
  Q 334.32 135.84 330.23 142.63
  C 329.78 143.38 328.95 143.81 328.58 144.55
  Q 328.34 145.04 327.80 144.86
  Q 327.18 144.65 327.14 145.31
  L 327.10 146.13
  Z"
/>
<path fill="#040200" fill-opacity="0.259" d="
  M 119.02 115.26
  Q 113.43 131.44 120.81 144.76
  Q 125.66 153.51 134.68 158.78
  Q 148.98 167.13 167.10 162.19
  Q 166.67 163.38 164.89 163.23
  Q 164.49 163.19 164.18 163.42
  Q 164.09 163.49 164.12 163.59
  Q 164.24 163.91 163.90 163.85
  Q 163.17 163.73 162.51 164.10
  Q 161.91 164.44 161.22 164.50
  Q 152.38 165.19 147.01 164.73
  Q 142.28 164.33 135.59 161.68
  Q 134.94 161.42 134.43 160.88
  A 1.40 1.33 68.7 0 0 133.52 160.45
  Q 132.65 160.39 132.15 159.60
  A 0.72 0.71 -25.2 0 0 131.30 159.30
  Q 130.72 159.52 130.61 158.96
  Q 130.51 158.45 130.07 158.18
  Q 128.20 156.99 127.22 156.10
  Q 122.55 151.80 120.20 147.78
  Q 119.53 146.64 118.57 145.91
  Q 118.24 145.65 118.08 145.26
  Q 116.81 142.14 115.76 138.99
  Q 115.33 137.70 115.36 136.42
  C 115.40 135.14 114.89 134.13 114.87 132.80
  Q 114.71 124.14 116.44 118.77
  Q 117.17 116.53 119.02 115.26
  Z"
/>
<path fill="#000000" fill-opacity="0.122" d="
  M 229.90 115.35
  Q 230.49 116.33 229.78 116.86
  Q 229.36 117.18 229.13 117.64
  Q 228.59 118.69 228.27 119.73
  Q 228.15 120.16 227.83 120.44
  Q 227.78 120.48 227.71 120.49
  Q 227.26 120.57 227.35 121.02
  Q 227.63 122.41 226.40 123.12
  Q 225.67 123.55 225.67 124.39
  Q 225.67 124.95 225.20 125.18
  A 1.94 1.93 -31.8 0 0 224.52 128.07
  Q 224.79 128.42 224.68 130.11
  Q 223.54 128.73 223.02 127.23
  A 1.10 1.09 51.5 0 1 223.12 126.32
  L 229.90 115.35
  Z"
/>
<path fill="#000000" fill-opacity="0.122" d="
  M 184.45 122.57
  L 172.58 122.63
  Q 178.41 121.42 184.45 122.57
  Z"
/>
<path fill="#000000" fill-opacity="0.122" d="
  M 153.80 123.04
  L 153.72 123.71
  Q 153.16 125.66 152.30 127.44
  Q 151.29 129.51 151.14 131.15
  Q 150.93 133.58 151.76 135.55
  Q 153.17 138.87 157.75 138.60
  Q 161.18 138.40 163.93 140.15
  Q 164.49 140.51 164.40 141.18
  L 163.91 144.58
  Q 162.36 145.61 159.76 146.03
  L 160.96 143.15
  A 1.81 1.81 0.0 0 0 159.18 140.65
  Q 155.88 140.83 153.02 139.62
  Q 150.20 138.42 149.62 134.76
  Q 149.02 131.03 150.19 127.19
  Q 150.37 126.62 150.75 126.14
  Q 151.18 125.60 151.38 124.95
  Q 151.52 124.48 152.00 124.36
  Q 152.63 124.21 152.58 123.56
  Q 152.55 123.15 152.87 122.94
  Q 153.19 122.72 153.80 123.04
  Z"
/>
<path fill="#040200" fill-opacity="0.259" d="
  M 153.72 123.71
  L 153.81 136.37
  Q 153.81 137.00 154.43 137.00
  L 168.54 137.01
  A 0.67 0.66 5.0 0 1 169.20 137.79
  Q 168.39 142.42 163.91 144.58
  L 164.40 141.18
  Q 164.49 140.51 163.93 140.15
  Q 161.18 138.40 157.75 138.60
  Q 153.17 138.87 151.76 135.55
  Q 150.93 133.58 151.14 131.15
  Q 151.29 129.51 152.30 127.44
  Q 153.16 125.66 153.72 123.71
  Z"
/>
<path fill="#040200" fill-opacity="0.259" d="
  M 392.39 163.07
  Q 391.42 164.61 388.93 165.24
  C 388.11 165.45 387.04 165.19 386.16 165.63
  Q 385.66 165.88 385.10 165.88
  Q 380.30 165.88 375.22 165.70
  Q 373.06 165.62 371.26 164.85
  Q 369.73 164.19 368.22 163.67
  Q 366.53 163.09 364.83 161.64
  Q 363.51 160.53 361.97 159.29
  Q 357.78 155.93 354.66 150.36
  Q 353.72 148.67 351.47 148.89
  Q 351.59 148.30 352.07 147.68
  Q 353.12 147.78 354.01 148.36
  A 2.53 2.45 -0.9 0 1 354.70 149.01
  Q 356.73 151.82 358.28 154.46
  Q 359.21 156.03 360.79 157.21
  Q 362.20 158.26 363.41 159.68
  C 364.81 161.32 368.73 163.46 370.79 163.96
  Q 376.09 165.25 381.78 165.21
  Q 383.12 165.20 386.02 164.69
  Q 388.19 164.31 390.26 164.38
  Q 390.61 164.39 390.38 164.39
  Q 385.22 164.30 380.19 164.63
  Q 378.81 164.73 377.37 164.35
  Q 376.01 163.99 374.63 163.54
  Q 373.92 163.31 373.18 163.01
  Q 372.39 162.70 371.50 162.79
  Q 371.02 162.84 370.59 162.63
  Q 364.13 159.50 359.17 153.48
  C 357.77 151.78 357.03 149.83 355.98 147.96
  C 355.52 147.13 354.66 146.64 354.00 145.98
  Q 354.02 145.27 353.16 145.21
  L 354.40 140.68
  Q 354.70 139.57 355.04 140.66
  Q 355.76 142.96 356.77 145.45
  C 362.93 160.52 376.88 166.65 392.39 163.07
  Z"
/>
<path fill="#040200" fill-opacity="0.259" d="
  M 450.22 163.46
  Q 443.44 165.16 435.75 164.67
  Q 434.94 164.61 434.29 164.22
  C 433.27 163.61 431.87 163.94 430.66 163.62
  Q 425.96 162.38 423.55 160.22
  Q 422.70 159.46 421.82 158.90
  C 419.90 157.69 418.02 155.30 416.54 153.61
  Q 416.46 153.51 416.42 153.38
  Q 416.37 153.21 416.39 153.03
  A 0.66 0.63 30.1 0 0 416.26 152.59
  Q 414.62 150.49 413.15 148.13
  Q 412.57 147.20 411.68 146.65
  A 0.17 0.17 0.0 0 0 411.43 146.73
  Q 410.92 148.08 410.25 147.73
  Q 411.77 144.38 412.48 141.72
  Q 413.11 139.37 413.73 141.72
  C 417.02 154.14 426.98 163.29 440.00 163.96
  Q 444.09 164.17 450.22 163.46
  Z"
/>
<path fill="#040200" fill-opacity="0.259" d="
  M 238.95 162.66
  Q 233.14 163.99 226.50 163.60
  Q 222.46 163.37 219.86 162.68
  Q 217.90 159.87 216.70 157.44
  Q 216.24 156.52 215.59 155.70
  Q 214.92 154.86 214.51 153.80
  Q 214.00 152.49 212.86 151.41
  Q 211.58 150.20 210.42 149.01
  Q 210.01 148.58 209.43 148.71
  Q 208.90 148.82 208.47 148.77
  L 211.32 143.73
  Q 211.66 143.13 212.01 143.73
  L 222.39 161.95
  Q 222.65 162.42 223.19 162.43
  L 238.95 162.66
  Z"
/>
<path fill="#000000" fill-opacity="0.122" d="
  M 353.16 145.21
  Q 354.02 145.27 354.00 145.98
  C 354.66 146.64 355.52 147.13 355.98 147.96
  C 357.03 149.83 357.77 151.78 359.17 153.48
  Q 364.13 159.50 370.59 162.63
  Q 371.02 162.84 371.50 162.79
  Q 372.39 162.70 373.18 163.01
  Q 373.92 163.31 374.63 163.54
  Q 376.01 163.99 377.37 164.35
  Q 378.81 164.73 380.19 164.63
  Q 385.22 164.30 390.38 164.39
  Q 390.61 164.39 390.26 164.38
  Q 388.19 164.31 386.02 164.69
  Q 383.12 165.20 381.78 165.21
  Q 376.09 165.25 370.79 163.96
  C 368.73 163.46 364.81 161.32 363.41 159.68
  Q 362.20 158.26 360.79 157.21
  Q 359.21 156.03 358.28 154.46
  Q 356.73 151.82 354.70 149.01
  A 2.53 2.45 -0.9 0 0 354.01 148.36
  Q 353.12 147.78 352.07 147.68
  L 353.16 145.21
  Z"
/>
<path fill="#000000" fill-opacity="0.122" d="
  M 450.22 163.46
  Q 457.97 160.78 463.30 155.52
  Q 463.37 157.07 462.07 157.72
  Q 461.60 157.95 461.41 158.44
  Q 460.98 159.47 459.78 159.32
  Q 459.37 159.27 459.33 159.68
  Q 459.31 159.94 459.09 160.08
  Q 457.29 161.25 455.57 162.64
  Q 454.30 163.66 453.00 164.32
  Q 452.08 164.79 451.18 165.26
  Q 450.28 165.73 449.30 165.95
  Q 444.29 167.03 439.11 167.13
  C 437.01 167.17 434.96 166.61 432.91 166.49
  C 431.34 166.39 430.13 165.63 428.59 165.61
  Q 427.74 165.60 426.94 165.23
  Q 423.21 163.50 419.51 160.83
  Q 418.45 160.07 417.71 159.13
  Q 416.91 158.14 415.90 157.30
  A 1.79 1.75 -81.3 0 1 415.36 156.55
  Q 415.08 155.82 414.58 155.24
  Q 414.03 154.61 413.71 154.04
  Q 412.42 151.73 409.59 151.35
  Q 409.38 151.32 409.35 151.53
  Q 409.35 151.58 409.37 151.63
  Q 409.43 151.76 409.29 151.82
  Q 407.52 152.56 406.88 154.31
  Q 406.73 154.75 406.29 154.89
  Q 405.25 155.23 405.40 156.32
  Q 405.47 156.79 405.05 157.02
  C 404.08 157.54 403.78 158.41 402.77 158.91
  Q 401.33 159.62 400.66 160.94
  Q 400.05 162.13 398.90 162.31
  Q 398.41 162.39 398.03 162.69
  Q 394.65 165.34 391.87 166.10
  Q 385.36 167.88 376.90 167.22
  Q 373.93 166.99 371.15 166.03
  Q 368.08 164.97 365.53 163.56
  Q 363.31 162.33 360.71 160.48
  C 359.72 159.78 359.57 158.84 358.76 158.10
  Q 357.68 157.13 356.76 155.99
  Q 356.03 155.08 355.13 154.44
  Q 354.26 153.83 354.02 152.88
  C 353.59 151.19 351.53 151.13 349.98 151.40
  L 351.47 148.89
  Q 353.72 148.67 354.66 150.36
  Q 357.78 155.93 361.97 159.29
  Q 363.51 160.53 364.83 161.64
  Q 366.53 163.09 368.22 163.67
  Q 369.73 164.19 371.26 164.85
  Q 373.06 165.62 375.22 165.70
  Q 380.30 165.88 385.10 165.88
  Q 385.66 165.88 386.16 165.63
  C 387.04 165.19 388.11 165.45 388.93 165.24
  Q 391.42 164.61 392.39 163.07
  Q 404.50 159.50 410.25 147.73
  Q 410.92 148.08 411.43 146.73
  A 0.17 0.17 0.0 0 1 411.68 146.65
  Q 412.57 147.20 413.15 148.13
  Q 414.62 150.49 416.26 152.59
  A 0.66 0.63 30.1 0 1 416.39 153.03
  Q 416.37 153.21 416.42 153.38
  Q 416.46 153.51 416.54 153.61
  C 418.02 155.30 419.90 157.69 421.82 158.90
  Q 422.70 159.46 423.55 160.22
  Q 425.96 162.38 430.66 163.62
  C 431.87 163.94 433.27 163.61 434.29 164.22
  Q 434.94 164.61 435.75 164.67
  Q 443.44 165.16 450.22 163.46
  Z"
/>
<path fill="#040200" fill-opacity="0.259" d="
  M 324.27 164.04
  L 319.53 164.39
  Q 318.98 164.43 318.56 164.07
  Q 317.89 163.48 317.15 163.52
  Q 316.90 163.54 316.65 163.50
  L 313.36 162.88
  Q 312.88 162.79 312.53 162.45
  Q 312.28 162.21 311.93 162.19
  Q 311.53 162.17 311.17 161.99
  Q 304.73 158.65 300.36 153.13
  Q 300.01 152.67 299.47 152.46
  Q 299.04 152.29 298.71 151.97
  Q 298.37 151.63 297.90 151.54
  L 293.84 150.80
  L 298.44 150.62
  Q 298.98 150.60 299.02 150.06
  L 299.14 148.28
  Q 299.20 147.33 299.65 148.17
  Q 307.41 162.97 324.27 164.04
  Z"
/>
<path fill="#000000" fill-opacity="0.122" d="
  M 219.86 162.68
  Q 225.68 164.81 233.34 164.25
  Q 234.11 164.20 236.07 163.56
  Q 237.44 163.12 238.98 163.20
  Q 239.13 163.21 239.02 163.31
  L 237.48 164.74
  Q 237.26 164.94 236.98 164.88
  Q 236.20 164.71 235.58 165.13
  Q 235.26 165.35 234.87 165.36
  C 230.25 165.46 225.23 165.85 220.94 164.36
  Q 218.83 163.63 217.92 162.23
  Q 217.06 160.92 216.03 159.84
  Q 215.68 159.48 215.85 158.99
  Q 215.92 158.81 215.83 158.64
  Q 214.03 155.17 212.11 152.38
  Q 210.67 150.29 207.97 149.56
  Q 208.20 149.00 208.47 148.77
  Q 208.90 148.82 209.43 148.71
  Q 210.01 148.58 210.42 149.01
  Q 211.58 150.20 212.86 151.41
  Q 214.00 152.49 214.51 153.80
  Q 214.92 154.86 215.59 155.70
  Q 216.24 156.52 216.70 157.44
  Q 217.90 159.87 219.86 162.68
  Z"
/>
<path fill="#000000" fill-opacity="0.122" d="
  M 293.84 150.80
  L 297.90 151.54
  Q 298.37 151.63 298.71 151.97
  Q 299.04 152.29 299.47 152.46
  Q 300.01 152.67 300.36 153.13
  Q 304.73 158.65 311.17 161.99
  Q 311.53 162.17 311.93 162.19
  Q 312.28 162.21 312.53 162.45
  Q 312.88 162.79 313.36 162.88
  L 316.65 163.50
  Q 316.90 163.54 317.15 163.52
  Q 317.89 163.48 318.56 164.07
  Q 318.98 164.43 319.53 164.39
  L 324.27 164.04
  Q 338.01 164.63 346.98 155.26
  Q 347.17 156.25 346.03 156.93
  Q 345.58 157.19 345.39 157.59
  Q 345.33 157.71 345.43 157.84
  Q 345.49 157.91 345.42 157.98
  Q 342.21 160.84 338.49 163.02
  Q 338.27 163.15 338.03 163.11
  Q 337.96 163.10 337.88 163.11
  Q 337.78 163.13 337.69 163.19
  Q 335.48 164.70 333.18 165.91
  Q 332.73 166.16 332.25 166.09
  Q 331.73 166.01 331.24 166.18
  Q 328.75 167.04 326.23 167.10
  C 323.81 167.15 320.08 167.54 317.80 166.69
  Q 316.77 166.30 315.73 166.37
  Q 315.22 166.40 314.75 166.17
  Q 312.89 165.26 310.90 164.85
  Q 309.05 164.47 307.40 163.51
  Q 306.22 162.83 304.98 162.24
  Q 303.82 161.70 302.83 160.60
  Q 301.06 158.64 299.16 156.81
  Q 297.63 155.33 296.27 154.89
  Q 293.63 154.03 292.63 156.13
  Q 291.83 149.83 293.84 150.80
  Z"
/>
<path fill="#000000" fill-opacity="0.122" d="
  M 237.51 151.07
  Q 239.19 151.13 240.86 151.47
  Q 242.81 151.86 244.67 151.86
  Q 254.18 151.85 264.14 151.90
  Q 271.04 151.94 271.55 158.41
  Q 271.68 160.07 272.11 161.00
  Q 272.56 162.00 273.08 162.94
  Q 273.34 163.41 273.86 163.53
  Q 278.12 164.47 283.82 164.10
  Q 284.52 164.06 285.20 163.80
  Q 285.84 163.56 285.15 163.51
  L 276.08 162.79
  L 292.20 162.58
  C 290.37 163.11 288.47 163.60 287.11 164.85
  Q 286.15 165.74 284.82 165.81
  Q 281.25 166.01 277.67 165.80
  Q 274.52 165.62 271.19 164.29
  Q 270.77 164.12 270.49 163.75
  Q 268.95 161.67 268.90 159.30
  Q 268.84 156.90 267.06 155.58
  Q 265.74 154.62 262.72 154.62
  Q 252.77 154.63 242.74 154.66
  Q 241.46 154.66 240.71 156.41
  L 237.51 151.07
  Z"
/>
<path fill="#040200" fill-opacity="0.259" d="
  M 181.12 162.57
  L 197.97 162.66
  Q 191.05 164.85 183.75 163.89
  Q 182.09 163.68 181.12 162.57
  Z"
/>
</svg>
