<?xml version="1.0" encoding="UTF-8" standalone="no"?>
<!DOCTYPE svg PUBLIC "-//W3C//DTD SVG 1.1//EN" "http://www.w3.org/Graphics/SVG/1.1/DTD/svg11.dtd">
<svg xmlns="http://www.w3.org/2000/svg" version="1.1" viewBox="0.00 0.00 590.00 255.00">
<g stroke-width="2.00" fill="none" stroke-linecap="butt">
<path stroke="#ad8438" vector-effect="non-scaling-stroke" d="
  M 94.61 111.29
  L 96.62 120.78"
/>
<path stroke="#36a457" vector-effect="non-scaling-stroke" d="
  M 96.62 120.78
  Q 96.57 121.95 97.11 123.13
  A 0.27 0.27 0.0 0 1 96.73 123.47
  Q 96.59 123.39 96.42 123.34
  Q 96.33 123.31 96.27 123.24
  Q 96.14 123.08 96.15 122.91
  Q 96.17 122.55 95.81 122.51
  Q 92.95 122.19 90.34 122.74
  Q 88.68 123.10 86.36 122.90
  Q 82.40 122.55 79.56 123.77"
/>
<path stroke="#ad8438" vector-effect="non-scaling-stroke" d="
  M 79.56 123.77
  L 72.27 94.30"
/>
<path stroke="#997b38" vector-effect="non-scaling-stroke" d="
  M 72.27 94.30
  Q 72.05 93.81 72.15 92.01"
/>
<path stroke="#e24a01" vector-effect="non-scaling-stroke" d="
  M 72.27 94.30
  Q 72.45 95.24 72.13 96.29
  Q 71.99 96.76 71.61 97.07
  Q 71.01 97.55 70.88 98.32
  Q 70.71 99.27 70.45 98.34
  Q 70.29 97.73 70.79 96.86"
/>
<path stroke="#ad8438" vector-effect="non-scaling-stroke" d="
  M 103.91 118.46
  L 106.18 128.45"
/>
<path stroke="#7f731f" vector-effect="non-scaling-stroke" d="
  M 106.18 128.45
  Q 107.61 132.63 107.36 135.85"
/>
<path stroke="#7f731f" vector-effect="non-scaling-stroke" d="
  M 103.87 148.86
  Q 102.41 146.01 101.84 143.03
  Q 100.98 138.58 100.97 138.52
  Q 100.06 134.94 99.10 131.37
  Q 98.71 129.91 98.01 126.05
  Q 97.52 123.36 96.62 120.78"
/>
<path stroke="#7f731f" vector-effect="non-scaling-stroke" d="
  M 79.56 123.77
  L 80.11 127.87"
/>
<path stroke="#7e2e02" stroke-opacity="0.996" vector-effect="non-scaling-stroke" d="
  M 80.11 127.87
  L 80.13 129.95"
/>
<path stroke="#7e2e02" stroke-opacity="0.996" vector-effect="non-scaling-stroke" d="
  M 58.10 146.25
  Q 61.13 137.22 63.23 127.94
  Q 64.07 124.25 65.86 117.75
  Q 67.26 112.66 68.11 107.44"
/>
<path stroke="#e24a01" vector-effect="non-scaling-stroke" d="
  M 69.18 104.56
  Q 70.68 102.75 70.22 100.38"
/>
<path stroke="#074e22" stroke-opacity="0.996" vector-effect="non-scaling-stroke" d="
  M 102.84 150.04
  L 87.10 149.44
  A 1.81 1.81 0.0 0 1 85.44 148.17
  L 82.83 139.67"
/>
<path stroke="#074e22" stroke-opacity="0.996" vector-effect="non-scaling-stroke" d="
  M 81.67 134.11
  Q 81.90 130.48 80.11 127.87"
/>
<path stroke="#e24a01" vector-effect="non-scaling-stroke" d="
  M 99.31 100.86
  Q 98.45 101.79 98.72 102.78
  Q 98.79 103.03 98.59 103.20
  Q 98.47 103.30 98.31 103.33
  Q 97.85 103.39 98.05 102.98
  Q 98.17 102.72 98.12 102.41
  Q 98.11 102.32 98.10 102.41
  Q 97.96 103.41 97.45 103.81"
/>
<path stroke="#c88e5a" vector-effect="non-scaling-stroke" d="
  M 118.29 108.06
  L 119.98 114.40"
/>
<path stroke="#93c891" vector-effect="non-scaling-stroke" d="
  M 119.98 114.40
  L 105.19 115.75
  A 1.12 1.10 15.3 0 0 104.37 116.21
  Q 103.70 117.13 103.91 118.46"
/>
<path stroke="#dc975a" vector-effect="non-scaling-stroke" d="
  M 103.91 118.46
  L 99.31 100.86"
/>
<path stroke="#c88e5a" vector-effect="non-scaling-stroke" d="
  M 99.31 100.86
  Q 99.06 100.34 99.18 99.09"
/>
<path stroke="#36a457" vector-effect="non-scaling-stroke" d="
  M 123.63 127.23
  Q 118.12 128.23 112.37 127.93
  Q 110.99 127.85 109.67 128.10
  Q 108.19 128.38 106.99 127.56
  Q 106.44 127.18 106.31 127.83
  L 106.18 128.45"
/>
<path stroke="#6b6a20" vector-effect="non-scaling-stroke" d="
  M 127.42 142.66
  L 123.63 127.23"
/>
<path stroke="#997b38" vector-effect="non-scaling-stroke" d="
  M 123.63 127.23
  L 119.98 114.40"
/>
<path stroke="#e7a080" vector-effect="non-scaling-stroke" d="
  M 175.76 143.48
  Q 171.98 142.85 168.04 143.59"
/>
<path stroke="#838482" stroke-opacity="0.996" vector-effect="non-scaling-stroke" d="
  M 194.63 143.34
  L 186.12 143.09"
/>
<path stroke="#838482" stroke-opacity="0.996" vector-effect="non-scaling-stroke" d="
  M 276.21 112.68
  Q 276.73 112.10 276.50 111.44
  Q 276.34 110.94 275.82 110.89
  Q 274.83 110.78 273.66 111.15"
/>
<path stroke="#838482" stroke-opacity="0.996" vector-effect="non-scaling-stroke" d="
  M 338.52 143.49
  L 326.19 143.55"
/>
<path stroke="#838482" stroke-opacity="0.996" vector-effect="non-scaling-stroke" d="
  M 456.27 143.37
  L 446.73 143.46"
/>
<path stroke="#838482" stroke-opacity="0.996" vector-effect="non-scaling-stroke" d="
  M 530.27 126.24
  C 526.62 125.71 522.76 126.01 520.00 125.98
  Q 516.40 125.95 512.76 126.17"
/>
<path stroke="#838482" stroke-opacity="0.996" vector-effect="non-scaling-stroke" d="
  M 162.96 121.71
  L 162.56 111.72
  Q 162.54 111.21 162.05 111.02
  Q 161.10 110.64 159.94 110.98"
/>
</g>
<path fill="#64b56f" d="
  M 94.61 111.29
  L 96.62 120.78
  Q 96.57 121.95 97.11 123.13
  A 0.27 0.27 0.0 0 1 96.73 123.47
  Q 96.59 123.39 96.42 123.34
  Q 96.33 123.31 96.27 123.24
  Q 96.14 123.08 96.15 122.91
  Q 96.17 122.55 95.81 122.51
  Q 92.95 122.19 90.34 122.74
  Q 88.68 123.10 86.36 122.90
  Q 82.40 122.55 79.56 123.77
  L 72.27 94.30
  Q 72.05 93.81 72.15 92.01
  L 89.30 91.87
  A 0.85 0.84 82.7 0 1 90.13 92.52
  L 94.61 111.29
  Z"
/>
<path fill="#ce4101" d="
  M 72.15 92.01
  Q 72.05 93.81 72.27 94.30
  Q 72.45 95.24 72.13 96.29
  Q 71.99 96.76 71.61 97.07
  Q 71.01 97.55 70.88 98.32
  Q 70.71 99.27 70.45 98.34
  Q 70.29 97.73 70.79 96.86
  Q 71.71 95.26 72.15 92.01
  Z"
/>
<path fill="#f65300" d="
  M 70.79 96.86
  Q 70.29 97.73 70.45 98.34
  Q 70.71 99.27 70.88 98.32
  Q 71.01 97.55 71.61 97.07
  Q 71.99 96.76 72.13 96.29
  Q 72.45 95.24 72.27 94.30
  L 79.56 123.77
  L 80.11 127.87
  L 80.13 129.95
  L 72.80 160.76
  A 1.38 1.38 0.0 0 1 71.46 161.82
  L 54.56 161.93
  A 0.40 0.40 0.0 0 1 54.17 161.43
  L 58.10 146.25
  Q 61.13 137.22 63.23 127.94
  Q 64.07 124.25 65.86 117.75
  Q 67.26 112.66 68.11 107.44
  L 69.18 104.56
  Q 70.68 102.75 70.22 100.38
  Q 70.38 97.48 70.68 94.40
  Q 70.68 94.38 70.66 94.38
  Q 70.64 94.38 70.64 94.37
  Q 70.64 94.37 70.63 94.39
  Q 70.50 95.59 70.79 96.86
  Z"
/>
<path fill="#c1dbb3" d="
  M 118.29 108.06
  L 119.98 114.40
  L 105.19 115.75
  A 1.12 1.10 15.3 0 0 104.37 116.21
  Q 103.70 117.13 103.91 118.46
  L 99.31 100.86
  Q 99.06 100.34 99.18 99.09
  L 115.12 99.00
  A 1.07 1.06 82.6 0 1 116.15 99.80
  L 118.29 108.06
  Z"
/>
<path fill="#ce4101" d="
  M 99.18 99.09
  Q 99.06 100.34 99.31 100.86
  Q 98.45 101.79 98.72 102.78
  Q 98.79 103.03 98.59 103.20
  Q 98.47 103.30 98.31 103.33
  Q 97.85 103.39 98.05 102.98
  Q 98.17 102.72 98.12 102.41
  Q 98.11 102.32 98.10 102.41
  Q 97.96 103.41 97.45 103.81
  Q 97.63 101.58 99.18 99.09
  Z"
/>
<path fill="#ce4101" d="
  M 70.22 100.38
  Q 70.68 102.75 69.18 104.56
  Q 69.23 102.12 70.22 100.38
  Z"
/>
<path fill="#f65300" d="
  M 99.31 100.86
  L 103.91 118.46
  L 106.18 128.45
  Q 107.61 132.63 107.36 135.85
  L 103.87 148.86
  Q 102.41 146.01 101.84 143.03
  Q 100.98 138.58 100.97 138.52
  Q 100.06 134.94 99.10 131.37
  Q 98.71 129.91 98.01 126.05
  Q 97.52 123.36 96.62 120.78
  L 94.61 111.29
  L 94.92 111.78
  Q 95.14 112.13 95.41 111.81
  Q 95.58 111.62 95.63 111.25
  Q 96.08 107.95 97.45 103.81
  Q 97.96 103.41 98.10 102.41
  Q 98.11 102.32 98.12 102.41
  Q 98.17 102.72 98.05 102.98
  Q 97.85 103.39 98.31 103.33
  Q 98.47 103.30 98.59 103.20
  Q 98.79 103.03 98.72 102.78
  Q 98.45 101.79 99.31 100.86
  Z"
/>
<path fill="#ce4101" d="
  M 127.42 142.66
  L 123.63 127.23
  L 119.98 114.40
  L 118.29 108.06
  Q 118.78 106.92 119.44 106.23
  Q 119.79 105.85 120.30 105.85
  L 135.71 105.83
  Q 136.36 105.82 136.21 106.46
  L 127.42 142.66
  Z"
/>
<path fill="#ffffff" d="
  M 175.76 143.48
  Q 171.98 142.85 168.04 143.59
  L 165.19 143.49
  A 0.56 0.56 0.0 0 1 164.65 142.95
  L 164.40 133.75
  Q 164.38 133.13 163.77 133.24
  Q 158.70 134.17 153.49 133.32
  Q 152.88 133.22 152.72 133.83
  L 150.50 142.26
  A 1.38 1.37 6.5 0 1 149.21 143.28
  L 137.74 143.61
  Q 136.78 143.64 137.03 142.71
  L 146.84 106.94
  A 1.63 1.63 0.0 0 1 148.41 105.74
  Q 158.67 105.77 170.74 105.72
  Q 174.71 105.71 175.14 109.66
  Q 176.84 124.94 178.55 142.65
  A 0.67 0.67 0.0 0 1 177.91 143.39
  L 175.76 143.48
  Z
  M 159.94 110.98
  Q 158.84 110.65 158.38 112.29
  Q 156.11 120.40 154.11 127.94
  A 0.46 0.46 0.0 0 0 154.57 128.52
  L 163.38 128.26
  A 0.59 0.59 0.0 0 0 163.95 127.57
  L 162.96 121.71
  L 162.56 111.72
  Q 162.54 111.21 162.05 111.02
  Q 161.10 110.64 159.94 110.98
  Z"
/>
<path fill="#ffffff" d="
  M 194.63 143.34
  L 186.12 143.09
  Q 183.32 140.99 184.20 137.64
  Q 187.62 124.52 191.39 111.68
  A 0.35 0.34 -85.5 0 0 191.02 111.24
  Q 184.76 112.05 179.72 111.58
  Q 178.93 111.50 178.76 110.73
  L 177.84 106.54
  Q 177.66 105.75 178.48 105.75
  L 217.20 105.75
  Q 218.45 105.75 218.08 106.95
  L 217.02 110.37
  Q 216.58 111.76 215.12 111.75
  L 205.20 111.68
  A 1.10 1.09 7.2 0 0 204.14 112.50
  Q 200.26 127.47 196.35 142.26
  Q 195.98 143.67 194.63 143.34
  Z"
/>
<path fill="#ffffff" d="
  M 253.91 110.63
  L 246.11 140.65
  A 3.90 3.90 0.0 0 1 242.32 143.57
  L 215.48 143.44
  A 3.90 3.90 0.0 0 1 211.74 138.50
  L 220.01 108.61
  A 3.90 3.90 0.0 0 1 223.77 105.75
  L 250.14 105.75
  A 3.90 3.90 0.0 0 1 253.91 110.63
  Z
  M 225.44 137.46
  A 0.31 0.31 0.0 0 0 225.74 137.85
  L 233.43 137.79
  A 0.31 0.31 0.0 0 0 233.73 137.56
  L 240.58 111.43
  A 0.31 0.31 0.0 0 0 240.27 111.04
  L 232.37 111.23
  A 0.31 0.31 0.0 0 0 232.08 111.47
  L 225.44 137.46
  Z"
/>
<path fill="#ffffff" d="
  M 276.21 112.68
  Q 276.73 112.10 276.50 111.44
  Q 276.34 110.94 275.82 110.89
  Q 274.83 110.78 273.66 111.15
  Q 272.80 110.79 272.63 110.79
  Q 271.33 110.77 271.00 112.02
  Q 267.09 126.71 263.37 142.22
  Q 263.06 143.53 261.70 143.55
  L 250.08 143.65
  A 0.48 0.48 0.0 0 1 249.61 143.04
  L 259.50 106.62
  Q 259.74 105.74 260.65 105.74
  Q 282.41 105.75 303.90 105.74
  C 307.13 105.74 308.91 108.17 308.07 111.37
  Q 304.07 126.64 299.85 142.42
  A 1.43 1.42 -82.9 0 1 298.50 143.48
  L 286.41 143.66
  Q 285.85 143.67 286.00 143.14
  L 294.79 111.71
  Q 294.97 111.05 294.28 111.03
  L 290.39 110.94
  A 0.97 0.96 -82.1 0 0 289.43 111.67
  L 281.46 141.90
  Q 281.03 143.52 279.35 143.54
  L 267.87 143.69
  A 0.21 0.21 0.0 0 1 267.66 143.42
  L 276.21 112.68
  Z"
/>
<path fill="#ffffff" d="
  M 316.12 143.46
  C 313.61 143.67 308.46 144.00 306.00 142.68
  Q 305.56 142.44 305.50 141.93
  C 305.36 140.75 305.23 139.35 305.52 138.21
  Q 309.51 122.27 314.04 106.54
  A 1.10 1.09 -81.9 0 1 315.09 105.75
  L 326.51 105.76
  A 0.70 0.70 0.0 0 1 327.18 106.65
  L 317.72 142.12
  Q 317.39 143.35 316.12 143.46
  Z"
/>
<path fill="#ffffff" d="
  M 338.52 143.49
  L 326.19 143.55
  L 322.82 143.66
  Q 322.12 143.68 322.32 143.01
  C 322.82 141.38 323.09 139.66 323.86 138.13
  Q 324.22 137.41 325.12 137.40
  Q 334.90 137.31 344.85 137.35
  Q 345.51 137.35 345.70 136.71
  L 348.88 125.88
  A 0.83 0.83 0.0 0 0 348.05 124.82
  Q 340.17 125.18 332.45 124.91
  Q 331.27 124.86 330.10 124.54
  A 1.39 1.34 79.7 0 1 329.32 123.98
  Q 327.98 121.97 328.63 119.37
  Q 330.26 112.86 332.46 106.47
  A 1.08 1.06 -80.4 0 1 333.47 105.74
  L 364.49 105.76
  Q 365.76 105.76 365.44 106.99
  L 364.58 110.31
  Q 364.21 111.78 362.69 111.78
  L 344.82 111.75
  Q 343.97 111.75 343.68 112.55
  Q 342.57 115.57 342.04 118.45
  Q 341.75 120.00 343.33 120.00
  L 358.30 119.99
  A 3.62 3.62 0.0 0 1 361.82 124.44
  Q 359.72 133.38 357.23 142.40
  A 1.53 1.52 -82.1 0 1 355.75 143.53
  L 338.52 143.49
  Z"
/>
<path fill="#ffffff" d="
  M 366.00 143.46
  C 363.31 143.43 361.96 140.60 362.52 138.26
  Q 366.01 123.75 370.82 106.68
  A 1.30 1.30 0.0 0 1 372.07 105.74
  L 383.80 105.76
  A 0.65 0.64 -82.2 0 1 384.42 106.58
  L 376.02 136.80
  A 1.04 1.03 7.0 0 0 377.05 138.11
  L 380.24 138.00
  Q 381.03 137.98 381.24 137.21
  L 389.38 106.53
  A 1.08 1.06 7.3 0 1 390.42 105.74
  L 402.22 105.76
  A 0.58 0.57 -82.3 0 1 402.77 106.49
  L 394.43 136.56
  A 1.18 1.18 0.0 0 0 395.57 138.05
  L 398.66 138.01
  Q 399.38 138.01 399.57 137.30
  L 407.53 106.25
  A 0.70 0.69 7.7 0 1 408.20 105.74
  L 420.28 105.76
  A 0.63 0.62 -82.5 0 1 420.88 106.55
  L 411.19 142.40
  A 1.59 1.58 7.2 0 1 409.67 143.57
  Q 388.00 143.71 366.00 143.46
  Z"
/>
<path fill="#ffffff" d="
  M 456.27 143.37
  L 446.73 143.46
  Q 443.94 144.25 443.91 142.29
  Q 443.83 137.96 443.44 133.88
  A 0.50 0.50 0.0 0 0 442.85 133.43
  Q 437.78 134.35 432.47 133.75
  Q 431.88 133.69 431.73 134.26
  L 429.59 142.47
  A 1.14 1.14 0.0 0 1 428.53 143.31
  L 416.29 143.68
  A 0.32 0.31 -83.1 0 1 415.98 143.28
  L 425.98 106.81
  A 1.47 1.45 -82.1 0 1 427.38 105.74
  Q 437.60 105.77 449.53 105.73
  Q 453.87 105.71 454.32 110.21
  Q 455.93 126.26 457.69 142.21
  A 1.24 1.24 0.0 0 1 457.03 143.44
  Q 456.77 143.58 456.27 143.37
  Z
  M 433.19 128.37
  A 0.33 0.33 0.0 0 0 433.52 128.78
  L 442.23 128.58
  A 0.33 0.33 0.0 0 0 442.55 128.23
  L 441.43 111.23
  A 0.33 0.33 0.0 0 0 441.09 110.92
  L 437.98 111.05
  A 0.33 0.33 0.0 0 0 437.68 111.30
  L 433.19 128.37
  Z"
/>
<path fill="#ffffff" d="
  M 465.52 143.46
  C 463.11 143.44 461.78 141.39 461.54 139.20
  Q 459.83 123.30 458.86 107.19
  Q 458.77 105.75 460.22 105.75
  L 471.00 105.75
  A 0.79 0.78 87.2 0 1 471.78 106.46
  Q 473.12 120.06 474.37 134.51
  Q 474.48 135.72 474.78 136.82
  Q 474.93 137.37 475.45 137.57
  Q 476.75 138.08 477.86 137.55
  Q 478.38 137.31 478.52 136.76
  L 486.11 106.88
  A 1.52 1.51 7.1 0 1 487.58 105.74
  L 498.96 105.75
  A 0.43 0.42 -85.9 0 1 499.38 106.24
  Q 499.11 108.02 498.67 109.70
  Q 494.35 125.93 489.88 142.54
  A 1.13 1.13 0.0 0 1 488.80 143.38
  Q 477.32 143.54 465.52 143.46
  Z"
/>
<path fill="#ffffff" d="
  M 530.27 126.24
  C 526.62 125.71 522.76 126.01 520.00 125.98
  Q 516.40 125.95 512.76 126.17
  L 510.00 136.92
  A 0.80 0.79 7.2 0 0 510.78 137.92
  L 529.75 137.85
  Q 530.71 137.84 530.45 138.77
  L 529.40 142.46
  Q 529.14 143.38 528.18 143.40
  Q 512.02 143.60 500.20 143.51
  Q 498.71 143.49 497.09 142.75
  Q 496.67 142.56 496.51 142.13
  Q 495.63 139.75 496.25 137.39
  Q 500.17 122.40 504.48 106.87
  A 1.54 1.53 7.7 0 1 505.96 105.75
  L 536.99 105.75
  Q 538.00 105.75 537.79 106.75
  L 536.88 110.88
  A 1.46 1.45 5.1 0 1 535.51 112.02
  Q 527.83 112.22 519.70 112.24
  Q 518.37 112.24 517.14 111.83
  A 0.69 0.69 0.0 0 0 516.26 112.29
  L 514.29 119.02
  Q 514.00 119.99 515.02 119.99
  L 531.56 119.98
  Q 532.17 119.98 532.14 120.59
  Q 531.94 124.65 530.27 126.24
  Z"
/>
<path fill="#060905" fill-opacity="0.992" d="
  M 68.11 107.44
  Q 67.26 112.66 65.86 117.75
  Q 64.07 124.25 63.23 127.94
  Q 61.13 137.22 58.10 146.25
  L 68.11 107.44
  Z"
/>
<path fill="#060905" fill-opacity="0.992" d="
  M 162.96 121.71
  L 162.03 111.72
  Q 161.99 111.26 161.53 111.20
  L 159.94 110.98
  Q 161.10 110.64 162.05 111.02
  Q 162.54 111.21 162.56 111.72
  L 162.96 121.71
  Z"
/>
<path fill="#060905" fill-opacity="0.992" d="
  M 276.21 112.68
  Q 276.63 111.13 273.66 111.15
  Q 274.83 110.78 275.82 110.89
  Q 276.34 110.94 276.50 111.44
  Q 276.73 112.10 276.21 112.68
  Z"
/>
<path fill="#64b56f" d="
  M 119.98 114.40
  L 123.63 127.23
  Q 118.12 128.23 112.37 127.93
  Q 110.99 127.85 109.67 128.10
  Q 108.19 128.38 106.99 127.56
  Q 106.44 127.18 106.31 127.83
  L 106.18 128.45
  L 103.91 118.46
  Q 103.70 117.13 104.37 116.21
  A 1.12 1.10 15.3 0 1 105.19 115.75
  L 119.98 114.40
  Z"
/>
<path fill="#07933e" d="
  M 96.62 120.78
  Q 97.52 123.36 98.01 126.05
  Q 98.71 129.91 99.10 131.37
  Q 100.06 134.94 100.97 138.52
  Q 100.98 138.58 101.84 143.03
  Q 102.41 146.01 103.87 148.86
  Q 103.89 149.65 102.84 150.04
  L 87.10 149.44
  A 1.81 1.81 0.0 0 1 85.44 148.17
  L 82.83 139.67
  L 81.67 134.11
  Q 81.90 130.48 80.11 127.87
  L 79.56 123.77
  Q 82.40 122.55 86.36 122.90
  Q 88.68 123.10 90.34 122.74
  Q 92.95 122.19 95.81 122.51
  Q 96.17 122.55 96.15 122.91
  Q 96.14 123.08 96.27 123.24
  Q 96.33 123.31 96.42 123.34
  Q 96.59 123.39 96.73 123.47
  A 0.27 0.27 0.0 0 0 97.11 123.13
  Q 96.57 121.95 96.62 120.78
  Z"
/>
<path fill="#060905" fill-opacity="0.992" d="
  M 530.27 126.24
  L 512.76 126.17
  Q 516.40 125.95 520.00 125.98
  C 522.76 126.01 526.62 125.71 530.27 126.24
  Z"
/>
<path fill="#07933e" d="
  M 123.63 127.23
  L 127.42 142.66
  Q 126.39 143.13 125.88 143.14
  Q 118.05 143.24 110.02 143.17
  Q 109.11 143.16 108.95 142.26
  L 107.90 135.99
  Q 107.85 135.71 107.57 135.75
  Q 107.36 135.77 107.36 135.85
  Q 107.61 132.63 106.18 128.45
  L 106.31 127.83
  Q 106.44 127.18 106.99 127.56
  Q 108.19 128.38 109.67 128.10
  Q 110.99 127.85 112.37 127.93
  Q 118.12 128.23 123.63 127.23
  Z"
/>
<path fill="#060905" fill-opacity="0.992" d="
  M 80.11 127.87
  Q 81.90 130.48 81.67 134.11
  Q 81.24 131.20 80.13 129.95
  L 80.11 127.87
  Z"
/>
<path fill="#060905" fill-opacity="0.992" d="
  M 82.83 139.67
  L 85.44 148.17
  A 1.81 1.81 0.0 0 0 87.10 149.44
  L 102.84 150.04
  L 85.87 150.41
  Q 85.35 150.42 85.23 149.91
  L 82.83 139.67
  Z"
/>
<path fill="#060905" fill-opacity="0.992" d="
  M 186.12 143.09
  L 194.63 143.34
  Q 190.24 144.39 186.12 143.09
  Z"
/>
<path fill="#ce4101" d="
  M 175.76 143.48
  L 168.04 143.59
  Q 171.98 142.85 175.76 143.48
  Z"
/>
<path fill="#060905" fill-opacity="0.992" d="
  M 338.52 143.49
  L 326.19 143.55
  L 338.52 143.49
  Z"
/>
<path fill="#060905" fill-opacity="0.992" d="
  M 456.27 143.37
  Q 451.52 144.19 446.73 143.46
  L 456.27 143.37
  Z"
/>
</svg>
