<?xml version="1.0" encoding="UTF-8" standalone="no"?>
<!DOCTYPE svg PUBLIC "-//W3C//DTD SVG 1.1//EN" "http://www.w3.org/Graphics/SVG/1.1/DTD/svg11.dtd">
<svg xmlns="http://www.w3.org/2000/svg" version="1.1" viewBox="0.00 0.00 590.00 255.00">
<g stroke-width="2.00" fill="none" stroke-linecap="butt">
<path stroke="#bfbfbf" stroke-opacity="0.671" vector-effect="non-scaling-stroke" d="
  M 235.87 135.87
  Q 238.46 127.23 239.05 121.01
  Q 239.39 117.49 237.68 114.55
  C 234.90 109.77 229.02 109.50 224.54 112.08"
/>
<path stroke="#bfbfbf" stroke-opacity="0.671" vector-effect="non-scaling-stroke" d="
  M 203.95 137.88
  Q 206.26 133.09 205.58 128.28
  Q 205.51 127.77 205.09 128.08
  Q 203.46 129.34 202.18 131.30"
/>
<path stroke="#bfbfbf" stroke-opacity="0.671" vector-effect="non-scaling-stroke" d="
  M 219.85 85.60
  Q 221.00 81.85 219.74 77.64"
/>
<path stroke="#bfbfbf" stroke-opacity="0.671" vector-effect="non-scaling-stroke" d="
  M 314.99 169.08
  L 317.09 162.02
  Q 317.27 161.38 316.61 161.31
  Q 305.77 160.27 295.09 161.50"
/>
<path stroke="#bfbfbf" stroke-opacity="0.671" vector-effect="non-scaling-stroke" d="
  M 114.60 179.24
  Q 104.26 178.37 94.25 176.18
  Q 90.53 175.37 87.21 173.17"
/>
<path stroke="#bfbfbf" stroke-opacity="0.671" vector-effect="non-scaling-stroke" d="
  M 310.91 84.38
  Q 312.78 80.10 310.77 79.54"
/>
<path stroke="#bfbfbf" stroke-opacity="0.671" vector-effect="non-scaling-stroke" d="
  M 196.15 97.43
  Q 195.91 92.92 195.41 89.00
  C 194.37 80.81 186.90 77.71 179.26 77.45
  Q 173.71 77.26 165.66 80.95"
/>
<path stroke="#bfbfbf" stroke-opacity="0.671" vector-effect="non-scaling-stroke" d="
  M 134.31 159.76
  Q 131.12 157.44 128.70 154.26
  C 126.55 151.42 123.99 148.72 122.65 145.56
  Q 119.87 139.02 119.74 131.71"
/>
<path stroke="#bfbfbf" stroke-opacity="0.671" vector-effect="non-scaling-stroke" d="
  M 409.00 120.35
  L 406.96 114.42
  Q 406.79 113.92 406.28 114.07
  Q 405.05 114.43 404.05 115.50"
/>
<path stroke="#bfbfbf" stroke-opacity="0.671" vector-effect="non-scaling-stroke" d="
  M 359.57 120.08
  Q 361.59 115.83 357.24 113.00"
/>
<path stroke="#bfbfbf" stroke-opacity="0.671" vector-effect="non-scaling-stroke" d="
  M 326.28 132.13
  Q 328.01 126.40 328.15 122.25
  C 328.26 118.87 327.70 111.98 323.51 110.98
  Q 317.92 109.65 313.70 112.57"
/>
<path stroke="#bfbfbf" stroke-opacity="0.671" vector-effect="non-scaling-stroke" d="
  M 463.84 131.86
  Q 465.78 125.33 464.75 118.15
  C 464.16 114.04 461.04 111.66 458.08 109.26
  A 1.37 1.36 60.7 0 0 457.06 108.97
  Q 451.34 109.64 446.26 112.18"
/>
</g>
<path fill="#ffffff" d="
  M 235.87 135.87
  Q 238.46 127.23 239.05 121.01
  Q 239.39 117.49 237.68 114.55
  C 234.90 109.77 229.02 109.50 224.54 112.08
  Q 221.49 113.34 220.85 116.12
  C 219.11 123.78 216.63 130.27 214.59 137.42
  C 212.96 143.14 210.92 148.00 210.78 154.12
  A 1.73 1.72 -1.7 0 1 209.20 155.79
  L 197.47 156.73
  A 0.60 0.59 -82.0 0 1 196.87 155.93
  Q 197.81 153.36 199.00 150.93
  Q 202.11 144.55 203.95 137.88
  Q 206.26 133.09 205.58 128.28
  Q 205.51 127.77 205.09 128.08
  Q 203.46 129.34 202.18 131.30
  C 199.63 134.81 196.94 138.87 193.38 141.28
  Q 192.23 142.06 192.86 140.82
  L 203.25 120.38
  Q 203.64 119.63 203.90 120.43
  L 204.84 123.28
  Q 205.04 123.89 205.59 123.54
  Q 209.32 121.14 210.31 117.50
  Q 214.62 101.62 219.75 85.99
  Q 219.84 85.70 219.85 85.60
  Q 221.00 81.85 219.74 77.64
  Q 220.04 76.98 220.51 76.81
  Q 227.24 74.32 233.36 70.92
  Q 234.02 70.55 234.11 71.30
  C 234.81 77.08 231.29 82.20 229.71 87.52
  Q 226.68 97.75 223.16 107.02
  Q 222.49 108.78 224.31 108.29
  Q 228.24 107.24 232.17 106.03
  C 234.95 105.17 240.22 104.36 242.86 105.43
  C 251.20 108.84 249.84 123.63 248.01 130.20
  Q 245.59 138.86 243.18 147.60
  Q 242.23 151.03 243.53 154.11
  A 0.63 0.63 0.0 0 1 242.95 154.98
  L 227.82 154.92
  A 0.40 0.39 -68.1 0 1 227.54 154.25
  Q 230.26 151.38 231.69 148.00
  Q 232.95 145.04 235.87 135.87
  Z"
/>
<path fill="#ffffff" d="
  M 314.99 169.08
  L 317.09 162.02
  Q 317.27 161.38 316.61 161.31
  Q 305.77 160.27 295.09 161.50
  Q 290.46 161.48 285.50 161.54
  Q 264.60 161.81 245.25 161.74
  C 240.11 161.72 234.49 162.22 229.27 162.91
  Q 223.58 163.65 218.83 163.47
  Q 206.12 162.99 195.25 164.17
  Q 188.32 164.93 181.41 165.11
  C 173.49 165.33 165.38 166.65 157.35 167.01
  C 148.53 167.40 139.62 168.97 131.37 170.03
  Q 122.28 171.19 114.35 173.92
  Q 112.37 174.60 113.63 176.28
  C 114.54 177.50 116.71 178.01 118.07 178.55
  Q 120.33 179.44 117.90 179.36
  L 114.60 179.24
  Q 104.26 178.37 94.25 176.18
  Q 90.53 175.37 87.21 173.17
  Q 86.81 172.95 86.62 172.73
  A 0.79 0.78 59.7 0 1 86.94 171.50
  Q 90.01 170.31 92.93 169.57
  C 109.74 165.30 128.32 163.91 146.53 161.64
  C 154.53 160.65 162.50 161.70 170.47 160.50
  Q 178.34 159.32 186.90 159.48
  C 194.98 159.63 202.92 158.47 211.07 158.27
  C 230.50 157.80 249.27 158.13 268.02 157.09
  Q 271.20 156.91 274.32 156.26
  Q 274.86 156.15 274.91 155.60
  Q 275.32 151.14 278.21 146.98
  C 281.63 142.06 285.53 137.43 288.46 132.30
  C 292.27 125.61 299.54 122.54 301.62 114.71
  Q 302.67 110.77 304.06 106.99
  Q 307.88 96.58 310.96 85.50
  Q 311.22 84.59 310.91 84.38
  Q 312.78 80.10 310.77 79.54
  L 308.78 78.07
  A 0.44 0.44 0.0 0 1 308.91 77.29
  Q 316.78 74.79 324.44 70.87
  Q 325.24 70.46 325.29 71.35
  C 325.36 72.68 325.19 73.91 324.72 75.17
  Q 320.18 87.39 316.68 100.02
  C 316.10 102.12 315.01 103.97 314.19 105.98
  A 0.72 0.72 0.0 0 0 314.46 106.86
  Q 314.80 107.08 315.21 106.99
  Q 322.81 105.33 329.23 105.05
  C 331.29 104.96 333.17 105.18 334.66 106.82
  C 339.90 112.57 339.16 118.32 338.17 125.33
  C 337.31 131.42 335.15 137.21 333.51 143.04
  Q 332.84 145.41 331.70 147.94
  Q 329.92 151.88 330.65 156.96
  A 0.81 0.81 0.0 0 0 331.58 157.64
  Q 343.92 155.59 356.42 156.99
  Q 364.01 157.85 369.35 157.91
  C 380.55 158.03 391.56 157.80 402.75 158.66
  C 411.33 159.32 419.46 159.48 427.95 159.57
  C 432.27 159.61 436.49 161.02 440.60 161.02
  Q 452.76 161.01 457.47 161.72
  Q 471.45 163.83 486.25 165.01
  C 492.34 165.50 499.39 166.97 503.67 171.44
  A 0.84 0.83 -34.1 0 1 503.41 172.78
  Q 496.54 175.89 489.45 176.83
  Q 479.40 178.16 468.22 179.34
  C 461.92 180.01 455.83 180.00 449.69 180.16
  C 446.25 180.25 442.85 181.05 439.42 181.23
  Q 431.31 181.63 422.93 181.83
  C 418.93 181.93 415.04 183.05 410.99 183.15
  C 403.58 183.34 396.36 183.17 388.68 183.90
  Q 376.06 185.10 362.08 185.12
  Q 335.24 185.17 308.67 184.97
  A 0.20 0.19 -73.6 0 1 308.51 184.67
  Q 312.98 177.44 314.99 169.08
  Z
  M 313.70 112.57
  Q 312.61 113.53 312.15 114.89
  Q 307.72 127.80 305.82 136.82
  C 304.77 141.79 302.01 146.54 302.21 152.11
  Q 302.27 153.95 300.43 153.92
  Q 293.69 153.80 287.26 153.82
  Q 284.21 153.82 281.72 155.39
  Q 280.91 155.89 281.86 155.98
  Q 295.56 157.31 303.76 156.84
  Q 310.33 156.46 316.33 156.33
  Q 318.92 156.27 319.63 153.74
  Q 320.97 149.04 323.23 143.22
  C 324.60 139.68 325.45 135.86 326.28 132.13
  Q 328.01 126.40 328.15 122.25
  C 328.26 118.87 327.70 111.98 323.51 110.98
  Q 317.92 109.65 313.70 112.57
  Z
  M 297.29 129.65
  C 297.45 128.62 297.82 127.63 297.94 126.65
  Q 298.16 124.93 296.99 126.21
  Q 286.04 138.19 279.40 150.60
  A 0.41 0.40 18.5 0 0 279.70 151.19
  C 283.44 151.78 287.70 148.54 290.88 146.33
  C 293.10 144.79 293.77 142.79 294.57 140.37
  Q 296.50 134.54 297.29 129.65
  Z
  M 376.87 162.67
  Q 370.94 161.78 364.98 161.78
  Q 347.90 161.79 330.82 161.75
  Q 329.50 161.74 328.06 161.67
  Q 327.75 161.65 327.63 161.93
  Q 323.45 171.61 321.88 180.80
  A 1.10 1.09 -86.6 0 0 323.01 182.08
  C 326.43 181.93 329.65 181.23 333.00 181.18
  Q 344.83 180.97 356.07 180.93
  C 362.12 180.90 368.49 179.80 374.77 179.62
  C 394.38 179.05 413.99 178.17 433.48 174.47
  Q 436.61 173.87 439.93 172.20
  Q 440.36 171.99 440.18 171.54
  Q 438.95 168.58 435.78 168.10
  Q 424.26 166.34 410.80 164.95
  C 409.02 164.77 407.25 164.25 405.45 164.11
  Q 394.46 163.29 382.65 163.16
  Q 379.92 163.13 376.87 162.67
  Z"
/>
<ellipse fill="#ffffff" cx="0.00" cy="0.00" transform="translate(377.71,77.30) rotate(-38.4)" rx="9.09" ry="4.63"/>
<path fill="#ffffff" d="
  M 281.56 78.44
  C 284.75 73.45 289.32 70.57 295.49 71.32
  Q 295.94 71.38 295.98 71.83
  C 296.43 76.84 291.86 80.70 288.01 83.19
  C 284.41 85.52 278.37 83.45 281.56 78.44
  Z"
/>
<path fill="#ffffff" d="
  M 196.15 97.43
  Q 195.91 92.92 195.41 89.00
  C 194.37 80.81 186.90 77.71 179.26 77.45
  Q 173.71 77.26 165.66 80.95
  Q 155.61 85.44 149.52 93.01
  Q 148.19 94.66 144.86 99.74
  C 139.55 107.82 136.33 116.04 134.32 125.84
  C 131.58 139.16 134.59 151.29 148.42 155.47
  C 156.19 157.81 168.07 152.12 174.73 147.68
  C 178.82 144.95 182.54 140.88 186.28 137.24
  Q 187.70 135.86 191.08 130.38
  Q 193.50 126.45 197.04 122.86
  Q 197.73 122.16 197.54 123.12
  Q 196.83 126.76 195.32 129.86
  Q 190.01 140.75 182.44 147.69
  Q 182.06 148.03 181.89 148.52
  Q 181.50 149.68 180.26 150.09
  A 2.02 1.98 -77.0 0 0 179.40 150.64
  C 175.94 154.28 171.90 157.64 166.75 157.91
  Q 155.33 158.49 145.63 159.91
  Q 143.06 160.28 134.31 159.76
  Q 131.12 157.44 128.70 154.26
  C 126.55 151.42 123.99 148.72 122.65 145.56
  Q 119.87 139.02 119.74 131.71
  Q 120.19 125.03 121.61 118.63
  Q 122.89 112.88 125.41 108.21
  C 128.63 102.23 132.11 95.66 137.23 91.15
  C 150.12 79.77 167.45 71.57 184.81 73.45
  C 189.29 73.94 192.85 76.23 196.88 77.88
  A 3.64 3.62 -51.7 0 0 200.36 77.46
  L 205.68 73.64
  Q 206.24 73.24 206.11 73.92
  Q 205.50 77.13 204.63 79.23
  Q 201.25 87.39 198.94 95.58
  Q 198.80 96.07 198.40 96.39
  Q 197.46 97.12 196.15 97.43
  Z"
/>
<path fill="#030302" fill-opacity="0.337" d="
  M 196.15 97.43
  Q 195.29 96.33 195.12 94.95
  Q 194.91 93.21 194.61 92.42
  Q 194.04 90.90 193.76 89.38
  Q 193.46 87.80 192.78 86.29
  Q 190.45 81.13 183.62 79.69
  Q 183.46 79.65 183.32 79.55
  Q 183.26 79.50 183.23 79.42
  Q 183.16 79.22 182.94 79.18
  Q 177.53 78.29 172.10 79.69
  Q 168.97 80.49 165.66 80.95
  Q 173.71 77.26 179.26 77.45
  C 186.90 77.71 194.37 80.81 195.41 89.00
  Q 195.91 92.92 196.15 97.43
  Z"
/>
<path fill="#030302" fill-opacity="0.337" d="
  M 219.74 77.64
  Q 221.00 81.85 219.85 85.60
  Q 218.92 81.45 219.74 77.64
  Z"
/>
<path fill="#030302" fill-opacity="0.337" d="
  M 310.77 79.54
  Q 312.78 80.10 310.91 84.38
  L 310.77 79.54
  Z"
/>
<path fill="#ffffff" d="
  M 428.43 116.77
  Q 434.52 110.63 440.07 107.34
  Q 449.35 101.81 461.21 103.91
  Q 465.46 104.67 468.61 107.61
  Q 472.61 111.33 473.60 115.03
  Q 478.17 132.08 467.03 145.41
  Q 463.32 149.85 458.31 154.16
  C 455.57 156.51 452.86 157.91 449.26 158.14
  Q 436.78 158.96 425.20 156.60
  C 420.97 155.73 418.67 150.18 418.19 146.51
  Q 417.16 138.59 418.79 133.02
  Q 421.50 123.75 428.43 116.77
  Z
  M 446.26 112.18
  Q 439.62 116.88 435.68 122.45
  Q 429.04 131.82 430.11 144.57
  C 430.41 148.20 432.31 152.32 436.17 153.09
  C 444.52 154.76 449.64 150.15 455.46 145.39
  Q 457.36 143.83 459.80 139.55
  Q 461.98 135.71 463.84 131.86
  Q 465.78 125.33 464.75 118.15
  C 464.16 114.04 461.04 111.66 458.08 109.26
  A 1.37 1.36 60.7 0 0 457.06 108.97
  Q 451.34 109.64 446.26 112.18
  Z"
/>
<path fill="#ffffff" d="
  M 409.00 120.35
  L 406.96 114.42
  Q 406.79 113.92 406.28 114.07
  Q 405.05 114.43 404.05 115.50
  Q 400.37 117.33 399.59 120.11
  Q 395.59 134.55 391.16 148.86
  C 390.55 150.85 390.72 152.57 391.75 154.32
  A 0.70 0.70 0.0 0 1 391.15 155.38
  Q 383.86 155.40 377.27 154.82
  A 0.40 0.39 -70.9 0 1 376.98 154.21
  C 379.52 150.29 381.48 145.81 382.83 141.30
  Q 386.66 128.44 390.06 116.58
  Q 390.45 115.24 389.09 114.93
  L 386.59 114.36
  A 0.56 0.55 29.1 0 1 386.32 113.43
  Q 388.36 111.42 391.17 110.36
  Q 397.10 108.13 402.45 105.32
  A 0.44 0.44 0.0 0 1 403.09 105.79
  L 401.84 112.81
  Q 401.68 113.67 402.46 113.27
  Q 407.79 110.54 412.73 107.58
  Q 415.96 105.64 420.62 104.82
  Q 421.10 104.73 421.31 105.18
  Q 423.31 109.36 421.21 112.61
  Q 417.89 117.78 414.40 119.66
  Q 412.82 120.51 409.00 120.35
  Z"
/>
<path fill="#ffffff" d="
  M 359.57 120.08
  Q 361.59 115.83 357.24 113.00
  Q 357.09 112.59 357.18 112.33
  Q 357.29 112.03 357.62 111.95
  C 363.15 110.56 368.18 107.55 373.21 105.01
  Q 373.85 104.68 373.99 105.39
  Q 374.27 106.75 373.87 108.16
  Q 371.37 116.91 368.57 125.14
  C 366.27 131.91 364.52 138.62 362.29 145.76
  Q 361.14 149.43 361.32 153.47
  Q 361.38 154.90 359.95 154.88
  L 349.28 154.75
  A 0.80 0.80 0.0 0 1 348.57 153.59
  Q 350.89 148.91 352.78 143.95
  Q 354.14 140.37 355.76 133.91
  Q 357.51 126.94 359.57 120.08
  Z"
/>
<path fill="#ffffff" d="
  M 259.88 151.41
  Q 263.86 143.85 265.69 136.47
  C 267.33 129.82 269.44 123.55 270.68 116.87
  A 1.23 1.22 27.2 0 0 270.32 115.76
  L 267.47 113.01
  A 0.29 0.29 0.0 0 1 267.55 112.54
  L 283.80 105.31
  A 0.45 0.45 0.0 0 1 284.43 105.73
  C 284.25 113.04 280.66 119.35 278.83 126.48
  Q 276.49 135.61 273.62 144.53
  C 272.79 147.10 272.49 149.90 272.14 152.59
  A 1.35 1.34 0.5 0 1 270.96 153.74
  L 258.79 155.05
  A 0.42 0.42 0.0 0 1 258.36 154.45
  Q 259.10 152.90 259.88 151.41
  Z"
/>
<path fill="#030302" fill-opacity="0.337" d="
  M 463.84 131.86
  Q 463.82 126.15 463.85 120.75
  Q 463.86 117.59 461.00 114.60
  Q 460.68 114.26 460.65 113.80
  Q 460.61 113.15 459.95 113.07
  Q 456.85 109.93 452.52 111.16
  Q 451.22 111.52 446.26 112.18
  Q 451.34 109.64 457.06 108.97
  A 1.37 1.36 60.7 0 1 458.08 109.26
  C 461.04 111.66 464.16 114.04 464.75 118.15
  Q 465.78 125.33 463.84 131.86
  Z"
/>
<path fill="#030302" fill-opacity="0.337" d="
  M 235.87 135.87
  Q 235.42 133.84 235.81 132.08
  Q 236.38 129.52 236.47 128.86
  C 236.67 127.38 237.48 125.95 237.43 124.48
  Q 237.36 122.28 237.14 120.02
  Q 236.08 109.48 224.54 112.08
  C 229.02 109.50 234.90 109.77 237.68 114.55
  Q 239.39 117.49 239.05 121.01
  Q 238.46 127.23 235.87 135.87
  Z"
/>
<path fill="#030302" fill-opacity="0.337" d="
  M 326.28 132.13
  Q 326.15 128.76 327.15 125.51
  Q 327.73 123.65 326.33 117.24
  Q 325.69 114.31 323.06 112.74
  C 321.41 111.75 318.99 112.08 317.09 112.13
  Q 316.59 112.15 316.16 112.40
  Q 315.19 112.98 313.70 112.57
  Q 317.92 109.65 323.51 110.98
  C 327.70 111.98 328.26 118.87 328.15 122.25
  Q 328.01 126.40 326.28 132.13
  Z"
/>
<path fill="#030302" fill-opacity="0.337" d="
  M 357.24 113.00
  Q 361.59 115.83 359.57 120.08
  Q 358.99 117.88 357.38 115.25
  Q 356.83 114.35 357.24 113.00
  Z"
/>
<path fill="#030302" fill-opacity="0.337" d="
  M 409.00 120.35
  Q 407.32 119.05 406.64 117.17
  Q 406.47 116.70 406.07 116.42
  Q 405.04 115.69 404.05 115.50
  Q 405.05 114.43 406.28 114.07
  Q 406.79 113.92 406.96 114.42
  L 409.00 120.35
  Z"
/>
<path fill="#030302" fill-opacity="0.337" d="
  M 203.95 137.88
  L 204.36 131.58
  Q 204.40 131.05 203.87 130.98
  Q 203.14 130.88 202.18 131.30
  Q 203.46 129.34 205.09 128.08
  Q 205.51 127.77 205.58 128.28
  Q 206.26 133.09 203.95 137.88
  Z"
/>
<path fill="#030302" fill-opacity="0.337" d="
  M 119.74 131.71
  Q 119.87 139.02 122.65 145.56
  C 123.99 148.72 126.55 151.42 128.70 154.26
  Q 131.12 157.44 134.31 159.76
  Q 132.65 159.97 131.47 159.13
  Q 130.30 158.31 130.16 158.23
  Q 128.39 157.17 127.19 155.46
  Q 124.52 151.66 121.46 148.06
  Q 121.12 147.66 121.03 147.14
  Q 120.77 145.70 120.28 144.34
  Q 119.68 142.72 119.61 141.56
  Q 119.27 136.54 119.74 131.71
  Z"
/>
<path fill="#030302" fill-opacity="0.337" d="
  M 314.99 169.08
  Q 315.03 167.30 315.44 165.51
  Q 315.79 164.00 314.50 162.51
  Q 314.17 162.13 313.67 162.11
  L 295.09 161.50
  Q 305.77 160.27 316.61 161.31
  Q 317.27 161.38 317.09 162.02
  L 314.99 169.08
  Z"
/>
<path fill="#030302" fill-opacity="0.337" d="
  M 87.21 173.17
  Q 90.53 175.37 94.25 176.18
  Q 104.26 178.37 114.60 179.24
  Q 112.13 180.17 109.99 179.85
  Q 105.89 179.24 102.74 179.37
  A 1.66 1.65 -31.5 0 1 101.86 179.16
  Q 101.05 178.72 100.05 178.86
  Q 99.53 178.93 99.04 178.74
  Q 97.61 178.21 96.14 178.09
  Q 93.62 177.90 90.62 176.94
  Q 89.41 176.56 88.62 175.48
  Q 87.84 174.44 87.21 173.17
  Z"
/>
</svg>
