<?xml version="1.0" encoding="UTF-8" standalone="no"?>
<!DOCTYPE svg PUBLIC "-//W3C//DTD SVG 1.1//EN" "http://www.w3.org/Graphics/SVG/1.1/DTD/svg11.dtd">
<svg xmlns="http://www.w3.org/2000/svg" version="1.1" viewBox="0.00 0.00 590.00 255.00">
<g stroke-width="2.00" fill="none" stroke-linecap="butt">
<path stroke="#b18d26" vector-effect="non-scaling-stroke" d="
  M 263.92 58.61
  Q 265.62 67.81 265.35 75.74
  Q 265.34 75.92 265.16 75.97
  A 0.31 0.30 87.3 0 0 264.94 76.22
  Q 263.67 87.35 255.17 94.37
  Q 246.79 101.28 236.48 103.38
  Q 235.16 103.65 231.01 103.93
  Q 228.44 104.11 225.54 104.64"
/>
<path stroke="#b18d26" vector-effect="non-scaling-stroke" d="
  M 226.26 68.54
  Q 225.69 62.93 223.00 64.29"
/>
<path stroke="#b18d26" vector-effect="non-scaling-stroke" d="
  M 333.63 66.73
  Q 333.74 66.60 333.82 67.46"
/>
<path stroke="#b18d26" vector-effect="non-scaling-stroke" d="
  M 333.50 68.44
  Q 333.00 68.37 332.53 68.80
  Q 327.40 73.50 320.86 75.85
  Q 315.28 77.85 311.45 78.41"
/>
<path stroke="#b18d26" vector-effect="non-scaling-stroke" d="
  M 322.88 69.81
  L 324.31 67.46
  Q 324.57 67.03 324.26 66.62
  C 320.43 61.56 313.36 63.73 309.50 67.52
  A 2.15 2.14 67.8 0 0 308.86 69.05
  L 308.99 97.83"
/>
<path stroke="#b18d26" vector-effect="non-scaling-stroke" d="
  M 310.97 101.12
  L 301.27 101.61"
/>
<path stroke="#b18d26" vector-effect="non-scaling-stroke" d="
  M 302.09 89.03
  Q 302.69 81.15 302.11 73.25
  Q 302.09 73.00 301.76 72.99"
/>
<path stroke="#b18d26" vector-effect="non-scaling-stroke" d="
  M 301.76 72.99
  Q 302.37 69.51 299.91 67.35"
/>
<path stroke="#b18d26" vector-effect="non-scaling-stroke" d="
  M 334.45 62.43
  C 336.23 64.10 337.45 65.58 337.53 68.17
  Q 337.82 77.25 336.88 86.34"
/>
<path stroke="#b18d26" vector-effect="non-scaling-stroke" d="
  M 345.45 62.85
  L 345.78 62.96
  Q 346.24 63.10 345.88 63.42
  Q 343.67 65.42 344.40 68.96"
/>
<path stroke="#b18d26" vector-effect="non-scaling-stroke" d="
  M 355.76 73.00
  Q 358.64 67.59 354.13 63.58"
/>
<path stroke="#b18d26" vector-effect="non-scaling-stroke" d="
  M 365.30 64.00
  Q 362.79 67.20 363.25 70.25"
/>
<path stroke="#b18d26" vector-effect="non-scaling-stroke" d="
  M 363.03 102.05
  L 353.98 101.94
  Q 353.82 101.94 353.79 101.79
  Q 353.77 101.67 353.72 101.53"
/>
<path stroke="#b18d26" vector-effect="non-scaling-stroke" d="
  M 354.29 100.77
  Q 356.16 99.60 356.13 96.99
  Q 356.05 89.87 356.50 76.45
  Q 356.53 75.70 355.78 75.70
  L 344.99 75.68
  A 0.93 0.93 0.0 0 0 344.05 76.60
  L 343.99 80.17"
/>
<path stroke="#b18d26" vector-effect="non-scaling-stroke" d="
  M 344.29 101.53
  Q 344.23 101.95 343.75 101.97
  Q 339.44 102.14 334.91 101.84"
/>
<path stroke="#b18d26" vector-effect="non-scaling-stroke" d="
  M 385.59 72.16
  L 389.20 75.85
  Q 389.51 76.17 389.55 75.72
  Q 389.99 70.63 387.90 66.00"
/>
<path stroke="#b18d26" vector-effect="non-scaling-stroke" d="
  M 393.79 66.63
  Q 391.57 67.49 391.99 69.81"
/>
<path stroke="#705e15" vector-effect="non-scaling-stroke" d="
  M 383.90 104.22
  Q 383.05 104.16 383.24 102.85"
/>
<path stroke="#b18d26" vector-effect="non-scaling-stroke" d="
  M 383.24 102.85
  Q 384.84 102.36 385.35 100.57
  Q 385.75 99.17 386.33 97.94
  C 388.02 94.34 388.42 88.86 387.83 85.57
  C 386.89 80.37 381.03 75.58 376.84 72.70
  Q 375.26 71.61 373.26 71.60
  Q 372.63 71.60 372.59 72.22
  L 371.66 85.75"
/>
<path stroke="#b18d26" vector-effect="non-scaling-stroke" d="
  M 371.93 101.93
  L 365.44 101.41"
/>
<path stroke="#b18d26" vector-effect="non-scaling-stroke" d="
  M 366.74 100.42
  Q 368.85 98.15 368.57 95.10
  C 368.31 92.33 369.65 90.11 369.54 87.36
  Q 369.21 79.29 369.95 70.99
  Q 369.99 70.48 369.70 70.06
  Q 369.02 69.05 367.88 68.28"
/>
<path stroke="#b18d26" vector-effect="non-scaling-stroke" d="
  M 297.23 63.08
  Q 295.81 64.72 295.71 66.01
  C 295.55 67.97 294.98 69.78 294.99 71.67
  Q 295.02 84.53 295.15 97.25
  Q 295.16 98.96 296.18 100.27"
/>
<path stroke="#b18d26" vector-effect="non-scaling-stroke" d="
  M 296.92 101.58
  L 287.02 101.85"
/>
<path stroke="#b18d26" vector-effect="non-scaling-stroke" d="
  M 288.97 80.50
  L 289.00 76.96
  A 0.82 0.82 0.0 0 0 288.15 76.14
  L 276.82 76.58
  Q 276.19 76.60 275.86 77.14
  Q 274.93 78.62 274.73 80.47
  Q 274.68 80.99 274.40 81.44
  Q 273.31 83.16 273.19 85.25
  Q 272.97 89.00 273.29 92.74
  Q 273.41 94.14 275.50 97.55"
/>
<path stroke="#b18d26" vector-effect="non-scaling-stroke" d="
  M 280.14 105.73
  Q 276.17 103.69 273.16 99.40"
/>
<path stroke="#b18d26" vector-effect="non-scaling-stroke" d="
  M 273.51 68.55
  Q 274.82 65.70 272.71 64.25"
/>
<path stroke="#b18d26" vector-effect="non-scaling-stroke" d="
  M 397.67 66.38
  Q 397.35 71.64 395.73 76.66
  Q 394.93 79.16 394.79 80.95
  Q 394.58 83.70 395.09 85.75
  Q 395.83 88.70 397.09 92.18
  C 397.75 94.01 398.93 95.23 400.01 96.75
  Q 405.08 103.95 413.27 105.56"
/>
<path stroke="#b18d26" vector-effect="non-scaling-stroke" d="
  M 416.62 73.95
  Q 409.52 64.09 402.68 74.76"
/>
<path stroke="#b18d26" vector-effect="non-scaling-stroke" d="
  M 412.20 77.50
  Q 412.69 77.38 413.02 78.27"
/>
<path stroke="#b18d26" vector-effect="non-scaling-stroke" d="
  M 410.79 80.54
  Q 406.64 78.07 401.89 78.87
  A 1.16 1.16 0.0 0 0 400.92 79.99
  L 400.86 83.42"
/>
<path stroke="#b18d26" vector-effect="non-scaling-stroke" d="
  M 235.16 98.13
  L 235.94 99.62"
/>
<path stroke="#705e15" vector-effect="non-scaling-stroke" d="
  M 235.94 99.62
  Q 235.95 100.87 236.75 100.71
  Q 237.65 100.54 238.53 100.45"
/>
<path stroke="#b18d26" vector-effect="non-scaling-stroke" d="
  M 255.28 65.06
  Q 253.88 59.23 248.08 58.36
  Q 244.34 57.80 241.11 58.42
  C 235.09 59.56 233.61 63.18 233.63 68.82
  Q 233.64 72.85 233.90 76.12
  Q 234.81 87.28 234.84 94.69"
/>
<path stroke="#433114" vector-effect="non-scaling-stroke" d="
  M 238.52 100.06
  Q 237.37 100.31 235.94 99.62"
/>
<path stroke="#b18d26" vector-effect="non-scaling-stroke" d="
  M 288.97 70.49
  Q 290.34 67.62 288.28 66.12
  A 2.22 2.21 -34.5 0 0 286.39 65.77
  Q 280.98 67.23 277.60 72.95
  Q 277.24 73.55 277.93 73.56
  L 282.75 73.68"
/>
<path stroke="#015102" vector-effect="non-scaling-stroke" d="
  M 147.16 105.78
  L 163.60 128.73"
/>
<path stroke="#186102" vector-effect="non-scaling-stroke" d="
  M 163.60 128.73
  C 173.27 142.37 182.88 156.06 191.20 170.54"
/>
<path stroke="#496e02" vector-effect="non-scaling-stroke" d="
  M 191.20 170.54
  Q 194.71 176.66 188.54 185.30"
/>
<path stroke="#647802" vector-effect="non-scaling-stroke" d="
  M 188.54 185.30
  Q 184.90 189.95 178.76 190.48
  C 169.69 191.25 160.29 188.47 155.09 180.21"
/>
<path stroke="#496e02" vector-effect="non-scaling-stroke" d="
  M 155.09 180.21
  Q 151.88 173.95 151.77 165.99
  Q 151.76 165.18 150.96 165.25
  C 149.53 165.36 148.57 164.97 147.36 166.06
  Q 143.02 169.99 138.24 173.49
  Q 137.32 174.16 136.28 174.56
  Q 135.52 174.85 135.65 175.65
  Q 136.10 178.63 137.17 180.72"
/>
<path stroke="#647802" vector-effect="non-scaling-stroke" d="
  M 137.17 180.72
  C 142.29 190.57 157.47 194.54 167.76 197.02
  Q 176.94 199.24 185.70 198.17
  Q 200.85 196.33 212.31 185.60"
/>
<path stroke="#496e02" vector-effect="non-scaling-stroke" d="
  M 212.31 185.60
  Q 215.04 182.80 217.16 179.72
  Q 218.38 177.94 218.35 176.36
  Q 218.29 174.25 216.91 172.81"
/>
<path stroke="#186102" vector-effect="non-scaling-stroke" d="
  M 216.91 172.81
  C 203.39 153.58 191.20 136.88 177.10 115.00"
/>
<path stroke="#015102" vector-effect="non-scaling-stroke" d="
  M 177.10 115.00
  L 173.85 108.69"
/>
<path stroke="#014902" vector-effect="non-scaling-stroke" d="
  M 173.85 108.69
  Q 173.93 105.92 173.95 103.10
  C 173.96 100.08 174.79 98.32 177.11 96.63
  Q 184.77 91.07 194.26 90.87
  Q 197.36 90.81 199.60 92.30
  Q 208.50 98.22 208.47 107.56
  A 1.06 1.06 0.0 0 0 209.98 108.52
  C 212.94 107.11 218.81 103.23 215.83 99.14
  Q 205.94 85.54 190.08 84.57
  Q 165.74 83.09 147.65 100.97
  C 146.36 102.24 146.36 104.25 147.16 105.78"
/>
<path stroke="#009900" vector-effect="non-scaling-stroke" d="
  M 173.85 108.69
  Q 173.99 105.13 173.31 102.51
  Q 172.96 101.13 172.68 102.53
  Q 172.10 105.40 172.36 108.39
  Q 172.39 108.77 172.62 109.08
  Q 173.31 110.01 172.77 111.04
  Q 172.56 111.44 172.11 111.42
  L 166.86 111.21
  Q 166.33 111.19 165.94 111.53
  Q 165.48 111.92 164.86 112.00
  Q 164.37 112.06 164.08 111.68
  Q 163.33 110.71 162.07 111.22
  Q 161.56 111.43 161.03 111.29
  L 155.50 109.88
  Q 154.76 109.69 154.10 110.07
  Q 153.37 110.50 152.62 109.99
  Q 149.98 108.18 148.75 105.32
  A 0.57 0.57 0.0 0 0 147.97 105.04
  Q 147.51 105.28 147.16 105.78"
/>
<path stroke="#17b100" vector-effect="non-scaling-stroke" d="
  M 177.10 115.00
  Q 176.47 116.24 177.92 118.25
  Q 179.08 119.86 179.10 119.90
  Q 186.34 131.01 194.02 141.99
  Q 194.21 142.27 194.17 142.59
  Q 194.14 142.78 194.03 142.90
  Q 193.67 143.30 193.18 143.08
  Q 191.12 142.15 188.75 142.14
  Q 183.96 142.12 179.36 142.11
  Q 178.67 142.11 178.26 141.57
  Q 177.20 140.17 175.18 140.67
  Q 174.36 140.87 174.13 140.07
  Q 174.04 139.73 173.68 139.85
  Q 173.00 140.07 172.55 139.52
  C 171.87 138.67 171.56 137.59 170.80 136.84
  Q 169.28 135.34 168.44 133.20
  Q 168.38 133.05 168.23 132.97
  L 167.98 132.84
  Q 167.63 132.65 167.46 132.28
  Q 166.81 130.90 165.47 130.18
  Q 165.05 129.96 165.03 129.49
  Q 164.97 128.05 163.60 128.73"
/>
<path stroke="#5fce00" vector-effect="non-scaling-stroke" d="
  M 216.91 172.81
  L 197.29 173.12
  Q 196.64 173.14 195.99 173.02
  Q 195.23 172.89 194.39 172.89
  Q 193.89 172.89 193.73 172.42
  Q 192.43 168.80 191.20 170.54"
/>
<path stroke="#aae400" vector-effect="non-scaling-stroke" d="
  M 212.31 185.60
  Q 212.39 184.88 211.91 184.69
  Q 211.59 184.57 211.12 184.79
  Q 210.40 185.14 209.81 185.70
  Q 209.42 186.06 208.90 186.08
  L 200.54 186.24
  Q 200.28 186.25 200.04 186.17
  Q 199.79 186.08 199.50 186.11
  Q 194.07 186.61 188.54 185.30"
/>
<path stroke="#aae400" vector-effect="non-scaling-stroke" d="
  M 155.09 180.21
  Q 153.27 181.63 151.72 181.61
  Q 150.30 181.59 150.25 181.59
  Q 145.11 182.12 139.92 181.82
  Q 139.43 181.79 139.17 181.37
  Q 139.07 181.22 139.04 181.04
  Q 138.93 180.40 138.37 180.20
  Q 137.77 179.97 137.17 180.72"
/>
<path stroke="#186102" vector-effect="non-scaling-stroke" d="
  M 411.28 123.17
  Q 394.01 132.09 391.64 150.73
  Q 390.50 159.66 392.98 168.90"
/>
<path stroke="#496e02" vector-effect="non-scaling-stroke" d="
  M 392.98 168.90
  L 397.20 176.98"
/>
<path stroke="#647802" vector-effect="non-scaling-stroke" d="
  M 397.20 176.98
  C 406.42 192.74 422.28 199.32 440.16 198.53
  C 442.28 198.44 444.39 197.49 445.29 195.52
  Q 447.25 191.17 448.96 183.55"
/>
<path stroke="#496e02" vector-effect="non-scaling-stroke" d="
  M 448.96 183.55
  L 452.57 167.91
  A 0.99 0.98 13.3 0 0 451.83 166.73
  Q 450.65 166.45 450.18 167.44
  C 446.97 174.21 443.64 180.57 438.14 185.80"
/>
<path stroke="#647802" vector-effect="non-scaling-stroke" d="
  M 438.14 185.80
  Q 434.15 187.34 429.99 186.53
  Q 425.72 185.71 419.96 182.42"
/>
<path stroke="#496e02" vector-effect="non-scaling-stroke" d="
  M 419.96 182.42
  Q 411.92 177.89 408.88 169.72"
/>
<path stroke="#186102" vector-effect="non-scaling-stroke" d="
  M 408.88 169.72
  L 407.52 162.08
  Q 407.39 161.37 408.11 161.38
  Q 423.78 161.52 435.95 161.46
  C 443.83 161.42 444.66 151.97 444.52 145.97
  Q 444.49 144.75 443.28 144.67
  A 0.90 0.89 -84.2 0 0 442.33 145.45
  C 441.72 150.14 435.99 151.72 432.00 151.73
  Q 419.94 151.76 408.17 151.77
  A 0.71 0.70 -87.4 0 1 407.47 151.00
  Q 408.36 140.88 413.55 132.47"
/>
<path stroke="#015102" vector-effect="non-scaling-stroke" d="
  M 413.55 132.47
  Q 417.34 127.44 422.25 126.02
  Q 434.01 122.62 441.12 132.01
  A 0.72 0.71 -57.7 0 0 442.39 131.72
  L 444.29 122.46
  A 1.64 1.62 -72.8 0 0 443.34 120.64
  Q 437.77 118.27 431.41 117.17
  Q 429.25 116.79 425.83 117.63
  Q 418.15 119.50 411.28 123.17"
/>
<path stroke="#17b100" vector-effect="non-scaling-stroke" d="
  M 413.55 132.47
  Q 411.89 132.03 410.48 134.49
  Q 410.23 134.93 409.72 134.92
  L 404.93 134.88
  Q 404.39 134.88 404.01 135.27
  Q 403.85 135.43 403.64 135.51
  Q 403.26 135.66 402.87 135.58
  L 400.65 135.08
  Q 400.10 134.96 400.18 134.40
  L 400.40 133.00
  Q 400.48 132.43 400.91 132.04
  Q 405.89 127.50 411.47 124.53
  Q 411.88 124.31 412.08 123.94
  Q 412.21 123.72 412.42 123.65
  Q 413.33 123.33 412.37 123.26
  Q 411.87 123.23 411.28 123.17"
/>
<path stroke="#5fce00" vector-effect="non-scaling-stroke" d="
  M 408.88 169.72
  Q 404.03 170.92 398.62 170.45
  Q 398.13 170.41 397.71 170.14
  Q 396.70 169.51 395.73 170.18
  Q 395.53 170.31 395.34 170.17
  Q 394.59 169.59 394.61 168.75
  Q 394.63 168.18 394.06 168.26
  Q 393.41 168.34 392.98 168.90"
/>
<path stroke="#aae400" vector-effect="non-scaling-stroke" d="
  M 419.96 182.42
  Q 418.59 184.64 416.86 183.43
  Q 416.45 183.14 415.94 183.16
  L 404.78 183.55
  Q 404.40 183.56 404.28 183.20
  Q 404.12 182.76 403.69 182.86
  Q 403.11 182.99 402.72 182.54
  Q 400.60 180.07 398.64 177.09
  Q 398.42 176.76 398.05 176.65
  Q 397.48 176.48 397.20 176.98"
/>
<path stroke="#aae400" vector-effect="non-scaling-stroke" d="
  M 448.96 183.55
  L 439.65 186.01
  Q 439.24 186.12 439.01 185.76
  Q 438.78 185.41 438.14 185.80"
/>
<path stroke="#186102" vector-effect="non-scaling-stroke" d="
  M 231.01 156.38
  L 230.89 169.20"
/>
<path stroke="#496e02" vector-effect="non-scaling-stroke" d="
  M 230.89 169.20
  Q 229.55 175.83 224.44 181.22
  Q 223.83 181.87 225.10 183.09"
/>
<path stroke="#647802" vector-effect="non-scaling-stroke" d="
  M 225.10 183.09
  L 242.53 198.52
  A 1.41 1.41 0.0 0 0 244.87 197.45
  L 244.76 182.41"
/>
<path stroke="#496e02" vector-effect="non-scaling-stroke" d="
  M 244.76 182.41
  L 244.73 167.86"
/>
<path stroke="#186102" vector-effect="non-scaling-stroke" d="
  M 244.73 167.86
  L 244.73 156.48"
/>
<path stroke="#015102" vector-effect="non-scaling-stroke" d="
  M 244.73 156.48
  L 244.83 126.04
  Q 244.83 125.40 245.20 124.87
  L 249.72 118.52
  A 0.88 0.88 0.0 0 0 249.00 117.13
  L 226.78 117.18
  A 0.83 0.83 0.0 0 0 226.16 118.56
  Q 230.67 123.62 230.78 130.50
  Q 230.98 143.33 231.01 156.38"
/>
<path stroke="#17b100" vector-effect="non-scaling-stroke" d="
  M 244.73 156.48
  L 231.01 156.38"
/>
<path stroke="#5fce00" vector-effect="non-scaling-stroke" d="
  M 244.73 167.86
  Q 243.23 168.48 241.01 168.78
  Q 238.53 169.12 236.02 169.15
  Q 235.87 169.15 233.52 168.78
  Q 232.16 168.57 230.89 169.20"
/>
<path stroke="#aae400" vector-effect="non-scaling-stroke" d="
  M 244.76 182.41
  Q 242.62 182.22 240.50 184.12
  Q 240.05 184.52 239.46 184.47
  Q 234.18 184.05 229.06 184.20
  A 1.29 1.29 0.0 0 1 227.80 183.33
  Q 227.26 181.75 225.10 183.09"
/>
<path stroke="#186102" vector-effect="non-scaling-stroke" d="
  M 302.29 156.12
  Q 301.76 156.95 300.58 156.15
  C 294.69 152.13 289.28 146.33 284.31 141.23"
/>
<path stroke="#015102" vector-effect="non-scaling-stroke" d="
  M 284.31 141.23
  L 262.19 118.12
  Q 261.10 116.99 260.04 118.14
  Q 259.06 119.21 259.05 120.75
  Q 259.00 133.62 259.07 146.57"
/>
<path stroke="#186102" vector-effect="non-scaling-stroke" d="
  M 259.07 146.57
  L 259.18 171.75"
/>
<path stroke="#496e02" vector-effect="non-scaling-stroke" d="
  M 259.18 171.75
  L 259.18 188.25"
/>
<path stroke="#647802" vector-effect="non-scaling-stroke" d="
  M 259.18 188.25
  Q 258.66 192.52 256.77 195.59
  A 1.92 1.92 0.0 0 0 258.30 198.52
  Q 262.61 198.75 267.59 198.38
  A 1.75 1.75 0.0 0 0 269.16 196.20
  L 266.96 187.72"
/>
<path stroke="#496e02" vector-effect="non-scaling-stroke" d="
  M 266.96 187.72
  L 266.82 170.32"
/>
<path stroke="#186102" vector-effect="non-scaling-stroke" d="
  M 266.82 170.32
  Q 266.83 166.64 266.59 162.01
  Q 266.46 159.44 268.49 158.59
  Q 270.95 157.54 272.75 159.49
  Q 277.45 164.54 282.15 169.17"
/>
<path stroke="#496e02" vector-effect="non-scaling-stroke" d="
  M 282.15 169.17
  L 289.18 176.64"
/>
<path stroke="#647802" vector-effect="non-scaling-stroke" d="
  M 289.18 176.64
  C 295.32 183.36 302.13 190.25 306.87 197.93
  Q 307.26 198.56 307.99 198.55
  L 310.33 198.54
  Q 311.07 198.54 311.06 197.80
  L 310.99 179.50"
/>
<path stroke="#496e02" vector-effect="non-scaling-stroke" d="
  M 310.99 179.50
  L 311.00 171.67"
/>
<path stroke="#186102" vector-effect="non-scaling-stroke" d="
  M 311.00 171.67
  L 310.97 155.93"
/>
<path stroke="#015102" vector-effect="non-scaling-stroke" d="
  M 310.97 155.93
  C 311.04 146.58 310.62 137.09 311.30 127.92
  Q 311.69 122.71 312.21 117.79
  A 0.69 0.69 0.0 0 0 311.52 117.03
  L 300.44 117.08
  A 1.25 1.24 -19.4 0 0 299.47 119.10
  Q 301.65 121.84 302.21 125.48
  Q 304.05 137.44 304.29 150.67
  Q 304.31 152.16 303.59 153.53
  Q 302.87 154.92 302.29 156.12"
/>
<path stroke="#17b100" vector-effect="non-scaling-stroke" d="
  M 310.97 155.93
  L 302.29 156.12"
/>
<path stroke="#5fce00" vector-effect="non-scaling-stroke" d="
  M 311.00 171.67
  Q 299.82 172.52 288.83 171.66
  Q 288.34 171.62 287.87 171.79
  Q 287.47 171.93 287.03 171.93
  Q 286.53 171.94 286.21 171.55
  Q 284.28 169.15 282.15 169.17"
/>
<path stroke="#5fce00" vector-effect="non-scaling-stroke" d="
  M 266.82 170.32
  Q 263.67 171.73 261.64 171.10
  Q 260.69 170.80 260.33 170.92
  Q 259.75 171.12 259.18 171.75"
/>
<path stroke="#aae400" vector-effect="non-scaling-stroke" d="
  M 310.99 179.50
  Q 302.95 180.74 295.01 179.71
  Q 294.51 179.64 294.12 179.32
  Q 291.83 177.40 289.18 176.64"
/>
<path stroke="#17b100" vector-effect="non-scaling-stroke" d="
  M 284.31 141.23
  Q 284.00 141.36 283.75 141.59
  Q 283.35 141.98 283.09 141.49
  Q 283.01 141.32 283.08 141.16
  Q 283.45 140.33 282.77 140.93
  Q 282.21 141.42 281.82 140.73
  Q 281.52 140.19 281.18 140.71
  Q 281.01 140.98 281.20 141.11
  Q 282.22 141.80 281.00 141.69
  Q 276.47 141.31 271.89 141.65
  Q 270.47 141.75 269.13 141.56
  Q 267.86 141.39 266.66 141.53
  Q 265.92 141.62 265.27 141.28
  Q 263.79 140.51 262.32 140.75
  A 0.47 0.46 -18.9 0 0 261.98 141.43
  Q 262.11 141.67 261.96 141.83
  Q 261.40 142.46 260.96 141.74
  L 260.49 140.98
  Q 260.00 140.19 259.87 141.11
  L 259.07 146.57"
/>
<path stroke="#aae400" vector-effect="non-scaling-stroke" d="
  M 266.96 187.72
  L 259.18 188.25"
/>
<path stroke="#496e02" vector-effect="non-scaling-stroke" d="
  M 319.71 168.89
  L 322.19 173.13"
/>
<path stroke="#647802" vector-effect="non-scaling-stroke" d="
  M 322.19 173.13
  Q 331.47 189.32 348.26 194.96
  Q 362.52 199.75 376.15 198.36
  Q 379.29 198.04 380.79 195.59
  Q 381.74 194.04 381.73 190.75
  Q 381.70 184.40 381.67 177.81"
/>
<path stroke="#496e02" vector-effect="non-scaling-stroke" d="
  M 381.67 177.81
  L 381.66 169.68"
/>
<path stroke="#186102" vector-effect="non-scaling-stroke" d="
  M 381.66 169.68
  L 383.66 156.32
  A 2.52 2.52 0.0 0 0 381.16 153.43
  L 360.81 153.46
  Q 356.33 153.47 359.51 156.62
  Q 363.77 160.83 366.91 166.34
  Q 368.49 169.12 368.80 172.43"
/>
<path stroke="#496e02" vector-effect="non-scaling-stroke" d="
  M 368.80 172.43
  L 368.83 182.43"
/>
<path stroke="#647802" vector-effect="non-scaling-stroke" d="
  M 368.83 182.43
  Q 368.51 185.31 366.50 186.36
  Q 365.11 187.09 362.45 186.55
  Q 351.43 184.27 343.48 177.65"
/>
<path stroke="#496e02" vector-effect="non-scaling-stroke" d="
  M 343.48 177.65
  Q 339.57 173.34 338.11 169.65"
/>
<path stroke="#186102" vector-effect="non-scaling-stroke" d="
  M 338.11 169.65
  C 336.37 164.03 336.74 159.23 336.71 153.36
  Q 336.69 149.26 337.60 146.24
  C 340.40 136.91 345.66 129.56 355.53 127.88
  C 363.03 126.61 369.58 127.86 375.87 132.76
  A 0.83 0.83 0.0 0 0 377.20 132.22
  Q 377.84 127.58 379.39 123.17
  A 1.00 0.99 26.6 0 0 379.00 122.01
  Q 377.77 121.20 376.25 120.75
  C 369.98 118.89 363.14 117.16 356.49 117.81
  C 339.62 119.45 324.08 125.68 319.68 143.81
  Q 316.58 156.58 319.71 168.89"
/>
<path stroke="#5fce00" vector-effect="non-scaling-stroke" d="
  M 338.11 169.65
  Q 331.88 170.80 325.47 169.87
  Q 323.76 169.62 322.20 169.62
  Q 322.01 169.63 321.83 169.55
  Q 321.61 169.46 321.61 169.27
  Q 321.62 168.71 321.06 168.63
  Q 320.44 168.54 319.71 168.89"
/>
<path stroke="#aae400" vector-effect="non-scaling-stroke" d="
  M 343.48 177.65
  Q 338.07 179.94 332.50 178.89
  Q 328.87 178.20 327.48 178.12
  Q 326.99 178.09 326.66 177.73
  Q 325.01 175.95 323.85 173.67
  Q 323.64 173.26 323.22 173.14
  Q 322.81 173.02 322.19 173.13"
/>
<path stroke="#aae400" vector-effect="non-scaling-stroke" d="
  M 381.67 177.81
  Q 380.05 177.88 379.90 180.73
  Q 379.88 181.25 379.36 181.31
  L 368.83 182.43"
/>
<path stroke="#5fce00" vector-effect="non-scaling-stroke" d="
  M 381.66 169.68
  Q 379.68 170.03 380.09 171.54
  A 0.61 0.61 0.0 0 1 379.51 172.31
  L 368.80 172.43"
/>
<path stroke="#17b100" vector-effect="non-scaling-stroke" d="
  M 342.60 121.86
  Q 337.97 123.06 334.02 125.52
  Q 327.99 129.28 325.09 134.40
  Q 324.83 134.85 325.04 135.32
  Q 325.17 135.61 325.00 135.88
  Q 324.63 136.48 325.30 136.69
  Q 328.87 137.85 332.23 136.73
  Q 332.73 136.56 333.26 136.65
  Q 334.76 136.89 336.32 136.55
  C 337.51 136.29 338.10 136.39 338.88 137.25
  Q 339.54 137.99 339.87 137.06
  Q 340.01 136.65 340.35 136.43
  Q 340.99 136.02 341.49 135.37
  Q 346.31 129.21 354.26 126.41
  Q 356.08 125.76 357.50 125.98
  Q 358.98 126.20 360.45 126.02
  Q 363.82 125.60 366.98 126.50
  Q 371.09 127.67 375.06 130.31
  Q 375.62 130.68 375.62 130.01
  L 375.62 129.24
  A 1.38 1.36 67.7 0 1 376.02 128.27
  Q 376.99 127.31 377.14 125.93
  Q 377.25 124.99 377.58 124.16
  A 1.46 1.45 15.8 0 0 376.48 122.19
  Q 372.05 121.40 368.47 119.98
  Q 367.94 119.77 367.37 119.85
  Q 364.72 120.26 363.00 119.14
  Q 362.54 118.84 362.00 118.84
  Q 359.76 118.86 357.36 119.52
  C 355.51 120.03 353.66 119.90 351.76 119.85
  Q 349.81 119.79 347.78 120.37
  Q 345.57 121.01 343.26 121.39
  Q 343.04 121.42 342.93 121.61
  Q 342.82 121.81 342.60 121.86"
/>
</g>
<path fill="#deba27" d="
  M 263.92 58.61
  Q 265.62 67.81 265.35 75.74
  Q 265.34 75.92 265.16 75.97
  A 0.31 0.30 87.3 0 0 264.94 76.22
  Q 263.67 87.35 255.17 94.37
  Q 246.79 101.28 236.48 103.38
  Q 235.16 103.65 231.01 103.93
  Q 228.44 104.11 225.54 104.64
  Q 228.20 101.97 228.09 99.25
  Q 227.47 84.46 226.85 69.67
  Q 226.83 69.13 226.26 68.54
  Q 225.69 62.93 223.00 64.29
  Q 222.96 63.60 223.31 63.33
  Q 228.82 58.90 235.95 56.38
  C 241.42 54.44 248.61 55.08 254.49 55.27
  Q 261.63 55.51 263.92 58.61
  Z
  M 234.84 94.69
  Q 234.71 97.04 235.16 98.13
  L 235.94 99.62
  Q 235.95 100.87 236.75 100.71
  Q 237.65 100.54 238.53 100.45
  Q 238.81 100.88 239.62 100.71
  Q 244.44 99.70 247.73 96.09
  C 253.26 89.99 257.08 83.55 257.05 75.20
  Q 257.03 69.92 255.28 65.06
  Q 253.88 59.23 248.08 58.36
  Q 244.34 57.80 241.11 58.42
  C 235.09 59.56 233.61 63.18 233.63 68.82
  Q 233.64 72.85 233.90 76.12
  Q 234.81 87.28 234.84 94.69
  Z"
/>
<path fill="#846025" d="
  M 255.28 65.06
  Q 252.86 63.21 249.50 63.12
  C 245.29 63.00 239.92 63.12 238.17 67.39
  Q 236.75 70.86 237.18 75.29
  C 237.60 79.55 237.45 83.68 237.87 87.91
  Q 238.47 93.96 238.52 100.06
  Q 237.37 100.31 235.94 99.62
  L 235.16 98.13
  Q 235.51 96.17 234.84 94.69
  Q 234.81 87.28 233.90 76.12
  Q 233.64 72.85 233.63 68.82
  C 233.61 63.18 235.09 59.56 241.11 58.42
  Q 244.34 57.80 248.08 58.36
  Q 253.88 59.23 255.28 65.06
  Z"
/>
<path fill="#846025" d="
  M 263.92 58.61
  Q 265.86 61.40 266.48 63.50
  C 266.68 64.16 266.60 64.89 266.00 65.31
  Q 265.50 65.66 265.67 66.25
  Q 266.31 68.38 267.39 70.20
  Q 267.65 70.63 267.65 71.12
  L 267.74 81.14
  Q 267.75 81.65 267.44 82.07
  Q 266.28 83.63 265.90 85.51
  Q 265.55 87.22 264.80 88.81
  Q 260.02 99.02 247.58 104.10
  Q 238.80 107.70 229.51 107.58
  Q 229.11 107.58 228.80 107.32
  L 225.54 104.64
  Q 228.44 104.11 231.01 103.93
  Q 235.16 103.65 236.48 103.38
  Q 246.79 101.28 255.17 94.37
  Q 263.67 87.35 264.94 76.22
  A 0.31 0.30 87.3 0 1 265.16 75.97
  Q 265.34 75.92 265.35 75.74
  Q 265.62 67.81 263.92 58.61
  Z"
/>
<path fill="#deba27" d="
  M 333.63 66.73
  Q 333.74 66.60 333.82 67.46
  Q 333.50 68.15 333.50 68.44
  Q 333.00 68.37 332.53 68.80
  Q 327.40 73.50 320.86 75.85
  Q 315.28 77.85 311.45 78.41
  Q 317.86 74.60 322.88 69.81
  L 324.31 67.46
  Q 324.57 67.03 324.26 66.62
  C 320.43 61.56 313.36 63.73 309.50 67.52
  A 2.15 2.14 67.8 0 0 308.86 69.05
  L 308.99 97.83
  Q 308.63 99.54 310.97 101.12
  L 301.27 101.61
  Q 302.91 95.97 302.09 89.03
  Q 302.69 81.15 302.11 73.25
  Q 302.09 73.00 301.76 72.99
  Q 302.37 69.51 299.91 67.35
  C 308.52 62.68 321.97 58.14 330.56 64.70
  Q 331.96 65.76 333.63 66.73
  Z"
/>
<path fill="#846025" d="
  M 334.45 62.43
  C 336.23 64.10 337.45 65.58 337.53 68.17
  Q 337.82 77.25 336.88 86.34
  Q 336.69 78.42 336.37 70.63
  Q 336.30 68.71 333.82 67.46
  Q 333.74 66.60 333.63 66.73
  Q 333.43 62.61 334.45 62.43
  Z"
/>
<path fill="#deba27" d="
  M 334.45 62.43
  L 345.45 62.85
  L 345.78 62.96
  Q 346.24 63.10 345.88 63.42
  Q 343.67 65.42 344.40 68.96
  Q 344.02 70.82 344.42 72.41
  Q 344.54 72.89 345.04 72.89
  L 355.76 73.00
  Q 358.64 67.59 354.13 63.58
  L 365.30 64.00
  Q 362.79 67.20 363.25 70.25
  Q 362.51 83.45 361.96 96.75
  Q 361.85 99.46 363.03 102.05
  L 353.98 101.94
  Q 353.82 101.94 353.79 101.79
  Q 353.77 101.67 353.72 101.53
  Q 354.36 101.29 354.29 100.77
  Q 356.16 99.60 356.13 96.99
  Q 356.05 89.87 356.50 76.45
  Q 356.53 75.70 355.78 75.70
  L 344.99 75.68
  A 0.93 0.93 0.0 0 0 344.05 76.60
  L 343.99 80.17
  Q 343.25 89.86 343.35 99.46
  Q 343.36 100.13 344.29 101.53
  Q 344.23 101.95 343.75 101.97
  Q 339.44 102.14 334.91 101.84
  C 337.07 99.32 336.45 95.32 336.34 91.00
  Q 336.32 90.04 336.88 86.34
  Q 337.82 77.25 337.53 68.17
  C 337.45 65.58 336.23 64.10 334.45 62.43
  Z"
/>
<path fill="#846025" d="
  M 345.45 62.85
  Q 346.11 62.75 346.78 62.89
  Q 347.38 63.02 347.26 63.61
  C 346.77 66.10 346.91 67.62 344.40 68.96
  Q 343.67 65.42 345.88 63.42
  Q 346.24 63.10 345.78 62.96
  L 345.45 62.85
  Z"
/>
<path fill="#deba27" d="
  M 297.23 63.08
  Q 295.81 64.72 295.71 66.01
  C 295.55 67.97 294.98 69.78 294.99 71.67
  Q 295.02 84.53 295.15 97.25
  Q 295.16 98.96 296.18 100.27
  L 296.92 101.58
  L 287.02 101.85
  Q 289.00 99.99 289.02 96.00
  Q 289.05 88.20 288.97 80.50
  L 289.00 76.96
  A 0.82 0.82 0.0 0 0 288.15 76.14
  L 276.82 76.58
  Q 276.19 76.60 275.86 77.14
  Q 274.93 78.62 274.73 80.47
  Q 274.68 80.99 274.40 81.44
  Q 273.31 83.16 273.19 85.25
  Q 272.97 89.00 273.29 92.74
  Q 273.41 94.14 275.50 97.55
  L 280.14 105.73
  Q 276.17 103.69 273.16 99.40
  Q 268.79 93.35 268.18 86.49
  Q 267.59 79.78 270.44 72.96
  Q 270.93 71.80 271.83 70.66
  Q 272.64 69.64 273.51 68.55
  Q 274.82 65.70 272.71 64.25
  L 297.23 63.08
  Z
  M 282.75 73.68
  L 287.86 73.44
  Q 288.39 73.41 288.68 72.97
  Q 289.32 72.03 288.97 70.49
  Q 290.34 67.62 288.28 66.12
  A 2.22 2.21 -34.5 0 0 286.39 65.77
  Q 280.98 67.23 277.60 72.95
  Q 277.24 73.55 277.93 73.56
  L 282.75 73.68
  Z"
/>
<path fill="#846025" d="
  M 297.23 63.08
  L 297.72 68.16
  A 1.17 1.16 -28.1 0 1 297.45 69.03
  Q 296.62 69.98 296.62 71.25
  Q 296.62 85.72 296.18 100.27
  Q 295.16 98.96 295.15 97.25
  Q 295.02 84.53 294.99 71.67
  C 294.98 69.78 295.55 67.97 295.71 66.01
  Q 295.81 64.72 297.23 63.08
  Z"
/>
<path fill="#846025" d="
  M 354.13 63.58
  Q 358.64 67.59 355.76 73.00
  Q 354.67 69.68 352.64 68.69
  Q 351.99 68.38 352.09 67.66
  Q 352.55 64.20 354.13 63.58
  Z"
/>
<path fill="#846025" d="
  M 322.88 69.81
  Q 315.10 66.40 309.64 72.89
  A 1.30 1.28 65.7 0 0 309.33 73.73
  L 308.99 97.83
  L 308.86 69.05
  A 2.15 2.14 67.8 0 1 309.50 67.52
  C 313.36 63.73 320.43 61.56 324.26 66.62
  Q 324.57 67.03 324.31 67.46
  L 322.88 69.81
  Z"
/>
<path fill="#deba27" d="
  M 385.59 72.16
  L 389.20 75.85
  Q 389.51 76.17 389.55 75.72
  Q 389.99 70.63 387.90 66.00
  L 393.72 66.07
  Q 394.06 66.08 393.95 66.40
  Q 393.91 66.53 393.79 66.63
  Q 391.57 67.49 391.99 69.81
  Q 391.86 75.68 391.83 81.60
  Q 391.81 85.13 391.13 87.96
  Q 390.64 89.98 390.32 92.03
  C 389.62 96.52 386.94 100.88 383.90 104.22
  Q 383.05 104.16 383.24 102.85
  Q 384.84 102.36 385.35 100.57
  Q 385.75 99.17 386.33 97.94
  C 388.02 94.34 388.42 88.86 387.83 85.57
  C 386.89 80.37 381.03 75.58 376.84 72.70
  Q 375.26 71.61 373.26 71.60
  Q 372.63 71.60 372.59 72.22
  L 371.66 85.75
  Q 370.58 94.32 371.93 101.93
  L 365.44 101.41
  L 366.74 100.42
  Q 368.85 98.15 368.57 95.10
  C 368.31 92.33 369.65 90.11 369.54 87.36
  Q 369.21 79.29 369.95 70.99
  Q 369.99 70.48 369.70 70.06
  Q 369.02 69.05 367.88 68.28
  L 370.79 64.81
  A 2.19 2.19 0.0 0 1 373.38 64.22
  Q 380.04 67.24 385.59 72.16
  Z"
/>
<path fill="#846025" d="
  M 223.00 64.29
  Q 225.69 62.93 226.26 68.54
  L 223.00 64.29
  Z"
/>
<path fill="#846025" d="
  M 272.71 64.25
  Q 274.82 65.70 273.51 68.55
  Q 271.09 64.17 272.71 64.25
  Z"
/>
<path fill="#846025" d="
  M 365.30 64.00
  Q 364.85 67.01 364.31 67.80
  Q 363.44 69.09 363.25 70.25
  Q 362.79 67.20 365.30 64.00
  Z"
/>
<path fill="#846025" d="
  M 288.97 70.49
  Q 284.65 70.57 282.75 73.68
  L 277.93 73.56
  Q 277.24 73.55 277.60 72.95
  Q 280.98 67.23 286.39 65.77
  A 2.22 2.21 -34.5 0 1 288.28 66.12
  Q 290.34 67.62 288.97 70.49
  Z"
/>
<path fill="#846025" d="
  M 387.90 66.00
  Q 389.99 70.63 389.55 75.72
  Q 389.51 76.17 389.20 75.85
  L 385.59 72.16
  Q 384.29 69.44 387.90 66.00
  Z"
/>
<path fill="#846025" d="
  M 397.67 66.38
  Q 397.35 71.64 395.73 76.66
  Q 394.93 79.16 394.79 80.95
  Q 394.58 83.70 395.09 85.75
  Q 395.83 88.70 397.09 92.18
  C 397.75 94.01 398.93 95.23 400.01 96.75
  Q 405.08 103.95 413.27 105.56
  Q 415.43 105.46 411.06 108.64
  Q 410.66 108.93 410.16 108.89
  Q 407.07 108.60 404.57 107.18
  C 397.14 102.99 392.15 95.69 392.20 87.04
  Q 392.25 80.11 394.21 76.29
  Q 395.44 73.89 394.42 71.47
  Q 394.27 71.12 394.38 70.76
  Q 395.12 68.24 397.67 66.38
  Z"
/>
<path fill="#deba27" d="
  M 397.67 66.38
  Q 407.30 67.55 417.02 68.22
  Q 418.27 68.31 418.61 68.19
  Q 420.57 67.54 419.47 69.29
  Q 417.86 71.83 416.62 73.95
  Q 409.52 64.09 402.68 74.76
  Q 402.28 75.69 402.38 76.22
  Q 402.48 76.74 403.42 76.78
  Q 407.62 76.99 412.20 77.50
  Q 412.69 77.38 413.02 78.27
  L 410.79 80.54
  Q 406.64 78.07 401.89 78.87
  A 1.16 1.16 0.0 0 0 400.92 79.99
  L 400.86 83.42
  Q 400.97 97.72 413.27 105.56
  Q 405.08 103.95 400.01 96.75
  C 398.93 95.23 397.75 94.01 397.09 92.18
  Q 395.83 88.70 395.09 85.75
  Q 394.58 83.70 394.79 80.95
  Q 394.93 79.16 395.73 76.66
  Q 397.35 71.64 397.67 66.38
  Z"
/>
<path fill="#846025" d="
  M 393.79 66.63
  L 391.99 69.81
  Q 391.57 67.49 393.79 66.63
  Z"
/>
<path fill="#846025" d="
  M 299.91 67.35
  Q 302.37 69.51 301.76 72.99
  Q 301.17 72.52 300.36 72.23
  Q 299.89 72.06 299.79 71.57
  Q 299.13 68.62 299.91 67.35
  Z"
/>
<path fill="#846025" d="
  M 367.88 68.28
  Q 369.02 69.05 369.70 70.06
  Q 369.99 70.48 369.95 70.99
  Q 369.21 79.29 369.54 87.36
  C 369.65 90.11 368.31 92.33 368.57 95.10
  Q 368.85 98.15 366.74 100.42
  Q 366.62 98.05 366.79 96.00
  Q 367.56 86.78 367.68 75.68
  Q 367.70 73.73 366.30 73.32
  Q 365.86 73.20 366.03 72.77
  L 367.88 68.28
  Z"
/>
<path fill="#846025" d="
  M 333.50 68.44
  Q 333.98 70.31 333.47 72.06
  Q 333.34 72.54 332.94 72.84
  C 330.37 74.85 327.98 77.04 325.04 78.48
  Q 319.15 81.39 311.73 82.77
  A 0.52 0.51 -12.0 0 1 311.12 82.38
  Q 310.39 79.30 311.45 78.41
  Q 315.28 77.85 320.86 75.85
  Q 327.40 73.50 332.53 68.80
  Q 333.00 68.37 333.50 68.44
  Z"
/>
<path fill="#846025" d="
  M 416.62 73.95
  L 413.02 78.27
  Q 412.69 77.38 412.20 77.50
  Q 409.34 72.28 402.68 74.76
  Q 409.52 64.09 416.62 73.95
  Z"
/>
<path fill="#846025" d="
  M 383.24 102.85
  C 385.59 98.15 387.12 91.07 384.04 86.47
  Q 379.74 80.05 373.10 76.48
  A 0.61 0.61 0.0 0 0 372.20 76.98
  L 371.66 85.75
  L 372.59 72.22
  Q 372.63 71.60 373.26 71.60
  Q 375.26 71.61 376.84 72.70
  C 381.03 75.58 386.89 80.37 387.83 85.57
  C 388.42 88.86 388.02 94.34 386.33 97.94
  Q 385.75 99.17 385.35 100.57
  Q 384.84 102.36 383.24 102.85
  Z"
/>
<path fill="#846025" d="
  M 301.76 72.99
  Q 302.09 73.00 302.11 73.25
  Q 302.69 81.15 302.09 89.03
  L 301.76 72.99
  Z"
/>
<path fill="#846025" d="
  M 354.29 100.77
  C 354.06 94.45 355.19 88.33 354.99 82.02
  Q 354.96 81.21 355.41 80.56
  Q 355.79 80.02 355.13 80.03
  L 343.99 80.17
  L 344.05 76.60
  A 0.93 0.93 0.0 0 1 344.99 75.68
  L 355.78 75.70
  Q 356.53 75.70 356.50 76.45
  Q 356.05 89.87 356.13 96.99
  Q 356.16 99.60 354.29 100.77
  Z"
/>
<path fill="#846025" d="
  M 288.97 80.50
  L 278.71 80.86
  A 1.32 1.31 8.8 0 0 277.51 81.73
  Q 276.65 84.13 275.88 86.57
  Q 275.28 88.52 275.27 91.37
  Q 275.25 94.47 275.50 97.55
  Q 273.41 94.14 273.29 92.74
  Q 272.97 89.00 273.19 85.25
  Q 273.31 83.16 274.40 81.44
  Q 274.68 80.99 274.73 80.47
  Q 274.93 78.62 275.86 77.14
  Q 276.19 76.60 276.82 76.58
  L 288.15 76.14
  A 0.82 0.82 0.0 0 1 289.00 76.96
  L 288.97 80.50
  Z"
/>
<path fill="#846025" d="
  M 410.79 80.54
  L 407.79 84.01
  Q 407.04 84.88 406.11 84.20
  Q 403.94 82.61 400.86 83.42
  L 400.92 79.99
  A 1.16 1.16 0.0 0 1 401.89 78.87
  Q 406.64 78.07 410.79 80.54
  Z"
/>
<path fill="#020103" d="
  M 168.58 198.69
  C 159.58 196.66 150.94 194.23 143.15 189.31
  C 138.39 186.30 133.41 180.24 134.27 174.64
  Q 134.35 174.13 134.78 173.85
  Q 141.18 169.72 147.08 164.24
  A 1.72 1.64 17.1 0 1 147.94 163.81
  Q 149.74 163.46 151.71 163.70
  A 1.94 1.94 0.0 0 1 153.41 165.64
  C 153.32 181.46 161.68 188.82 176.69 188.91
  C 185.68 188.97 189.68 183.28 191.14 175.11
  Q 191.21 174.69 191.08 174.28
  Q 190.63 172.87 189.92 171.59
  Q 183.84 160.73 174.28 146.84
  Q 160.30 126.54 146.21 107.17
  Q 145.06 105.59 145.13 103.63
  Q 145.22 101.21 147.06 99.42
  Q 164.01 82.92 186.23 82.94
  C 199.21 82.96 210.04 87.66 217.26 98.41
  C 220.56 103.31 215.18 107.68 211.24 109.62
  Q 209.24 110.60 207.44 109.25
  Q 206.89 108.84 206.91 108.15
  Q 207.16 99.20 198.80 93.59
  Q 197.14 92.48 194.71 92.43
  Q 191.81 92.39 189.48 92.86
  C 185.47 93.67 175.25 97.10 175.49 102.56
  C 175.61 105.38 175.00 107.99 176.52 110.61
  Q 181.26 118.77 186.74 126.85
  Q 202.58 150.20 218.79 172.75
  C 220.24 174.77 220.31 177.77 218.98 179.78
  C 210.14 193.13 195.14 200.05 179.29 200.02
  Q 174.47 200.01 168.58 198.69
  Z
  M 147.16 105.78
  L 163.60 128.73
  C 173.27 142.37 182.88 156.06 191.20 170.54
  Q 194.71 176.66 188.54 185.30
  Q 184.90 189.95 178.76 190.48
  C 169.69 191.25 160.29 188.47 155.09 180.21
  Q 151.88 173.95 151.77 165.99
  Q 151.76 165.18 150.96 165.25
  C 149.53 165.36 148.57 164.97 147.36 166.06
  Q 143.02 169.99 138.24 173.49
  Q 137.32 174.16 136.28 174.56
  Q 135.52 174.85 135.65 175.65
  Q 136.10 178.63 137.17 180.72
  C 142.29 190.57 157.47 194.54 167.76 197.02
  Q 176.94 199.24 185.70 198.17
  Q 200.85 196.33 212.31 185.60
  Q 215.04 182.80 217.16 179.72
  Q 218.38 177.94 218.35 176.36
  Q 218.29 174.25 216.91 172.81
  C 203.39 153.58 191.20 136.88 177.10 115.00
  L 173.85 108.69
  Q 173.93 105.92 173.95 103.10
  C 173.96 100.08 174.79 98.32 177.11 96.63
  Q 184.77 91.07 194.26 90.87
  Q 197.36 90.81 199.60 92.30
  Q 208.50 98.22 208.47 107.56
  A 1.06 1.06 0.0 0 0 209.98 108.52
  C 212.94 107.11 218.81 103.23 215.83 99.14
  Q 205.94 85.54 190.08 84.57
  Q 165.74 83.09 147.65 100.97
  C 146.36 102.24 146.36 104.25 147.16 105.78
  Z"
/>
<path fill="#009000" d="
  M 173.85 108.69
  Q 173.99 105.13 173.31 102.51
  Q 172.96 101.13 172.68 102.53
  Q 172.10 105.40 172.36 108.39
  Q 172.39 108.77 172.62 109.08
  Q 173.31 110.01 172.77 111.04
  Q 172.56 111.44 172.11 111.42
  L 166.86 111.21
  Q 166.33 111.19 165.94 111.53
  Q 165.48 111.92 164.86 112.00
  Q 164.37 112.06 164.08 111.68
  Q 163.33 110.71 162.07 111.22
  Q 161.56 111.43 161.03 111.29
  L 155.50 109.88
  Q 154.76 109.69 154.10 110.07
  Q 153.37 110.50 152.62 109.99
  Q 149.98 108.18 148.75 105.32
  A 0.57 0.57 0.0 0 0 147.97 105.04
  Q 147.51 105.28 147.16 105.78
  C 146.36 104.25 146.36 102.24 147.65 100.97
  Q 165.74 83.09 190.08 84.57
  Q 205.94 85.54 215.83 99.14
  C 218.81 103.23 212.94 107.11 209.98 108.52
  A 1.06 1.06 0.0 0 1 208.47 107.56
  Q 208.50 98.22 199.60 92.30
  Q 197.36 90.81 194.26 90.87
  Q 184.77 91.07 177.11 96.63
  C 174.79 98.32 173.96 100.08 173.95 103.10
  Q 173.93 105.92 173.85 108.69
  Z"
/>
<path fill="#020103" d="
  M 238.52 100.06
  Q 238.59 100.24 238.53 100.45
  Q 237.65 100.54 236.75 100.71
  Q 235.95 100.87 235.94 99.62
  Q 237.37 100.31 238.52 100.06
  Z"
/>
<path fill="#846025" d="
  M 273.16 99.40
  Q 276.17 103.69 280.14 105.73
  Q 281.10 106.61 281.15 107.46
  Q 281.21 108.57 280.27 107.97
  Q 275.76 105.05 273.16 99.40
  Z"
/>
<path fill="#846025" d="
  M 310.97 101.12
  Q 312.45 102.09 312.14 104.27
  Q 312.07 104.75 311.58 104.76
  L 301.40 104.78
  Q 300.89 104.79 300.71 104.31
  Q 299.52 101.22 301.27 101.61
  L 310.97 101.12
  Z"
/>
<path fill="#846025" d="
  M 365.44 101.41
  L 371.93 101.93
  Q 373.07 102.73 371.08 105.06
  Q 370.72 105.47 370.17 105.44
  Q 367.25 105.29 364.20 105.16
  Q 363.74 105.14 363.41 104.85
  Q 363.33 104.77 363.30 104.66
  Q 363.12 104.09 362.85 104.62
  Q 362.73 104.85 362.55 105.02
  Q 362.19 105.36 361.70 105.36
  L 351.72 105.26
  Q 351.24 105.26 351.24 104.78
  Q 351.21 101.98 353.72 101.53
  Q 353.77 101.67 353.79 101.79
  Q 353.82 101.94 353.98 101.94
  L 363.03 102.05
  L 365.44 101.41
  Z"
/>
<path fill="#846025" d="
  M 296.92 101.58
  Q 298.13 102.70 298.64 104.74
  Q 298.77 105.25 298.24 105.25
  L 288.77 105.25
  A 0.93 0.92 71.3 0 1 288.03 104.88
  Q 286.69 103.06 287.02 101.85
  L 296.92 101.58
  Z"
/>
<path fill="#846025" d="
  M 344.29 101.53
  Q 344.79 101.84 345.00 102.28
  Q 345.24 102.76 344.99 103.23
  Q 344.61 103.97 344.42 104.76
  Q 344.29 105.30 343.73 105.30
  L 334.21 105.28
  Q 333.60 105.28 333.57 104.67
  Q 333.45 102.40 334.91 101.84
  Q 339.44 102.14 343.75 101.97
  Q 344.23 101.95 344.29 101.53
  Z"
/>
<path fill="#00a100" d="
  M 173.85 108.69
  L 177.10 115.00
  Q 176.47 116.24 177.92 118.25
  Q 179.08 119.86 179.10 119.90
  Q 186.34 131.01 194.02 141.99
  Q 194.21 142.27 194.17 142.59
  Q 194.14 142.78 194.03 142.90
  Q 193.67 143.30 193.18 143.08
  Q 191.12 142.15 188.75 142.14
  Q 183.96 142.12 179.36 142.11
  Q 178.67 142.11 178.26 141.57
  Q 177.20 140.17 175.18 140.67
  Q 174.36 140.87 174.13 140.07
  Q 174.04 139.73 173.68 139.85
  Q 173.00 140.07 172.55 139.52
  C 171.87 138.67 171.56 137.59 170.80 136.84
  Q 169.28 135.34 168.44 133.20
  Q 168.38 133.05 168.23 132.97
  L 167.98 132.84
  Q 167.63 132.65 167.46 132.28
  Q 166.81 130.90 165.47 130.18
  Q 165.05 129.96 165.03 129.49
  Q 164.97 128.05 163.60 128.73
  L 147.16 105.78
  Q 147.51 105.28 147.97 105.04
  A 0.57 0.57 0.0 0 1 148.75 105.32
  Q 149.98 108.18 152.62 109.99
  Q 153.37 110.50 154.10 110.07
  Q 154.76 109.69 155.50 109.88
  L 161.03 111.29
  Q 161.56 111.43 162.07 111.22
  Q 163.33 110.71 164.08 111.68
  Q 164.37 112.06 164.86 112.00
  Q 165.48 111.92 165.94 111.53
  Q 166.33 111.19 166.86 111.21
  L 172.11 111.42
  Q 172.56 111.44 172.77 111.04
  Q 173.31 110.01 172.62 109.08
  Q 172.39 108.77 172.36 108.39
  Q 172.10 105.40 172.68 102.53
  Q 172.96 101.13 173.31 102.51
  Q 173.99 105.13 173.85 108.69
  Z"
/>
<path fill="#020103" d="
  M 383.24 102.85
  Q 383.05 104.16 383.90 104.22
  L 381.52 107.04
  Q 381.05 107.59 381.25 106.90
  Q 381.90 104.67 383.24 102.85
  Z"
/>
<path fill="#2ec100" d="
  M 177.10 115.00
  C 191.20 136.88 203.39 153.58 216.91 172.81
  L 197.29 173.12
  Q 196.64 173.14 195.99 173.02
  Q 195.23 172.89 194.39 172.89
  Q 193.89 172.89 193.73 172.42
  Q 192.43 168.80 191.20 170.54
  C 182.88 156.06 173.27 142.37 163.60 128.73
  Q 164.97 128.05 165.03 129.49
  Q 165.05 129.96 165.47 130.18
  Q 166.81 130.90 167.46 132.28
  Q 167.63 132.65 167.98 132.84
  L 168.23 132.97
  Q 168.38 133.05 168.44 133.20
  Q 169.28 135.34 170.80 136.84
  C 171.56 137.59 171.87 138.67 172.55 139.52
  Q 173.00 140.07 173.68 139.85
  Q 174.04 139.73 174.13 140.07
  Q 174.36 140.87 175.18 140.67
  Q 177.20 140.17 178.26 141.57
  Q 178.67 142.11 179.36 142.11
  Q 183.96 142.12 188.75 142.14
  Q 191.12 142.15 193.18 143.08
  Q 193.67 143.30 194.03 142.90
  Q 194.14 142.78 194.17 142.59
  Q 194.21 142.27 194.02 141.99
  Q 186.34 131.01 179.10 119.90
  Q 179.08 119.86 177.92 118.25
  Q 176.47 116.24 177.10 115.00
  Z"
/>
<path fill="#020103" d="
  M 409.89 150.22
  Q 420.78 150.22 431.49 150.21
  C 434.61 150.20 440.45 149.29 440.70 145.19
  Q 440.82 143.15 442.86 143.23
  L 444.06 143.28
  Q 446.04 143.36 446.13 145.33
  C 446.37 150.59 445.49 159.67 439.93 162.16
  Q 438.14 162.96 433.80 162.99
  Q 422.23 163.06 409.62 162.91
  A 0.36 0.35 89.2 0 0 409.26 163.29
  C 409.82 174.96 418.52 181.50 429.39 184.72
  Q 431.88 185.46 435.98 184.99
  Q 436.62 184.92 437.12 184.51
  C 442.38 180.24 446.14 172.61 448.79 166.46
  A 1.68 1.64 -86.2 0 1 449.83 165.53
  Q 452.12 164.80 453.71 165.88
  Q 454.43 166.37 454.45 167.24
  C 454.51 169.00 453.66 170.23 453.33 171.87
  Q 450.94 183.58 447.30 194.61
  Q 445.67 199.54 440.96 199.89
  C 427.02 200.93 412.48 196.98 402.84 186.92
  Q 394.11 177.79 391.10 167.48
  Q 389.14 160.75 389.98 151.83
  C 391.98 130.91 407.34 120.70 426.15 115.86
  Q 429.20 115.07 431.92 115.62
  C 435.70 116.38 444.26 118.00 445.97 121.19
  Q 446.22 121.67 446.08 122.19
  Q 444.78 126.79 444.22 131.25
  C 443.90 133.72 441.54 134.75 439.81 132.77
  C 437.62 130.27 434.85 127.62 431.56 127.05
  Q 424.57 125.86 419.70 128.86
  C 413.21 132.85 410.17 142.15 409.22 149.46
  Q 409.12 150.22 409.89 150.22
  Z
  M 411.28 123.17
  Q 394.01 132.09 391.64 150.73
  Q 390.50 159.66 392.98 168.90
  L 397.20 176.98
  C 406.42 192.74 422.28 199.32 440.16 198.53
  C 442.28 198.44 444.39 197.49 445.29 195.52
  Q 447.25 191.17 448.96 183.55
  L 452.57 167.91
  A 0.99 0.98 13.3 0 0 451.83 166.73
  Q 450.65 166.45 450.18 167.44
  C 446.97 174.21 443.64 180.57 438.14 185.80
  Q 434.15 187.34 429.99 186.53
  Q 425.72 185.71 419.96 182.42
  Q 411.92 177.89 408.88 169.72
  L 407.52 162.08
  Q 407.39 161.37 408.11 161.38
  Q 423.78 161.52 435.95 161.46
  C 443.83 161.42 444.66 151.97 444.52 145.97
  Q 444.49 144.75 443.28 144.67
  A 0.90 0.89 -84.2 0 0 442.33 145.45
  C 441.72 150.14 435.99 151.72 432.00 151.73
  Q 419.94 151.76 408.17 151.77
  A 0.71 0.70 -87.4 0 1 407.47 151.00
  Q 408.36 140.88 413.55 132.47
  Q 417.34 127.44 422.25 126.02
  Q 434.01 122.62 441.12 132.01
  A 0.72 0.71 -57.7 0 0 442.39 131.72
  L 444.29 122.46
  A 1.64 1.62 -72.8 0 0 443.34 120.64
  Q 437.77 118.27 431.41 117.17
  Q 429.25 116.79 425.83 117.63
  Q 418.15 119.50 411.28 123.17
  Z"
/>
<path fill="#020103" d="
  M 246.46 126.37
  Q 246.47 171.53 246.47 197.90
  Q 246.47 200.00 244.28 200.09
  Q 242.11 200.17 240.84 199.13
  Q 231.68 191.65 223.42 183.58
  A 2.45 2.44 43.7 0 1 223.34 180.17
  C 226.95 176.29 229.48 171.99 229.48 166.54
  Q 229.50 148.83 229.47 130.78
  Q 229.46 124.84 225.55 120.24
  C 224.05 118.48 224.01 115.49 227.07 115.51
  Q 237.95 115.59 248.90 115.50
  A 2.50 2.50 0.0 0 1 250.95 119.47
  L 246.87 125.10
  A 2.18 2.17 -27.3 0 0 246.46 126.37
  Z
  M 231.01 156.38
  L 230.89 169.20
  Q 229.55 175.83 224.44 181.22
  Q 223.83 181.87 225.10 183.09
  L 242.53 198.52
  A 1.41 1.41 0.0 0 0 244.87 197.45
  L 244.76 182.41
  L 244.73 167.86
  L 244.73 156.48
  L 244.83 126.04
  Q 244.83 125.40 245.20 124.87
  L 249.72 118.52
  A 0.88 0.88 0.0 0 0 249.00 117.13
  L 226.78 117.18
  A 0.83 0.83 0.0 0 0 226.16 118.56
  Q 230.67 123.62 230.78 130.50
  Q 230.98 143.33 231.01 156.38
  Z"
/>
<path fill="#020103" d="
  M 301.41 154.43
  C 302.07 153.41 302.78 152.12 302.76 150.87
  Q 302.60 137.46 300.47 124.64
  Q 300.11 122.42 298.76 120.93
  C 297.45 119.49 297.33 116.95 298.94 115.74
  A 1.39 1.37 -63.2 0 1 299.77 115.46
  L 311.80 115.47
  A 2.01 2.00 2.4 0 1 313.80 117.64
  C 313.26 124.27 312.54 130.65 312.54 137.30
  Q 312.55 167.93 312.55 198.15
  C 312.55 200.70 308.41 200.06 306.90 199.89
  Q 306.25 199.81 305.90 199.25
  Q 302.40 193.55 293.90 184.19
  Q 282.55 171.70 271.45 160.35
  A 1.90 1.90 0.0 0 0 270.51 159.81
  C 269.58 159.57 268.44 159.99 268.44 161.09
  Q 268.51 173.23 268.44 184.34
  C 268.41 188.69 269.63 192.76 270.88 196.82
  A 1.43 1.42 61.6 0 1 270.43 198.35
  C 267.46 200.85 262.63 199.96 258.88 200.03
  C 255.91 200.09 253.90 197.11 255.54 194.46
  Q 257.52 191.25 257.53 188.26
  Q 257.65 154.37 257.51 120.99
  C 257.50 118.32 259.02 115.88 262.06 116.28
  A 1.31 1.30 71.9 0 1 262.84 116.68
  Q 269.97 124.06 277.35 132.01
  Q 288.36 143.88 300.61 154.55
  Q 301.08 154.96 301.41 154.43
  Z
  M 302.29 156.12
  Q 301.76 156.95 300.58 156.15
  C 294.69 152.13 289.28 146.33 284.31 141.23
  L 262.19 118.12
  Q 261.10 116.99 260.04 118.14
  Q 259.06 119.21 259.05 120.75
  Q 259.00 133.62 259.07 146.57
  L 259.18 171.75
  L 259.18 188.25
  Q 258.66 192.52 256.77 195.59
  A 1.92 1.92 0.0 0 0 258.30 198.52
  Q 262.61 198.75 267.59 198.38
  A 1.75 1.75 0.0 0 0 269.16 196.20
  L 266.96 187.72
  L 266.82 170.32
  Q 266.83 166.64 266.59 162.01
  Q 266.46 159.44 268.49 158.59
  Q 270.95 157.54 272.75 159.49
  Q 277.45 164.54 282.15 169.17
  L 289.18 176.64
  C 295.32 183.36 302.13 190.25 306.87 197.93
  Q 307.26 198.56 307.99 198.55
  L 310.33 198.54
  Q 311.07 198.54 311.06 197.80
  L 310.99 179.50
  L 311.00 171.67
  L 310.97 155.93
  C 311.04 146.58 310.62 137.09 311.30 127.92
  Q 311.69 122.71 312.21 117.79
  A 0.69 0.69 0.0 0 0 311.52 117.03
  L 300.44 117.08
  A 1.25 1.24 -19.4 0 0 299.47 119.10
  Q 301.65 121.84 302.21 125.48
  Q 304.05 137.44 304.29 150.67
  Q 304.31 152.16 303.59 153.53
  Q 302.87 154.92 302.29 156.12
  Z"
/>
<path fill="#020103" d="
  M 363.40 185.36
  C 365.39 185.84 367.25 184.54 367.30 182.47
  Q 367.41 177.15 367.22 172.48
  C 367.00 166.71 361.02 160.13 356.93 155.93
  A 1.56 1.56 0.0 0 1 357.11 153.59
  C 358.43 152.58 359.84 151.83 361.60 151.81
  Q 370.38 151.73 379.65 151.78
  C 383.25 151.80 386.05 153.46 385.02 157.41
  Q 383.53 163.12 383.41 168.51
  Q 383.17 178.96 383.41 191.01
  C 383.51 195.72 380.89 199.38 376.09 199.79
  Q 363.43 200.87 351.42 197.54
  Q 330.76 191.83 320.21 173.00
  Q 317.38 167.94 316.83 162.83
  C 314.75 143.64 321.27 126.70 339.53 119.79
  Q 347.09 116.93 357.45 116.16
  Q 362.50 115.78 368.17 116.99
  C 371.42 117.69 379.44 119.05 380.88 121.98
  Q 381.13 122.47 380.97 122.99
  Q 379.60 127.42 378.82 132.33
  C 378.44 134.67 376.01 135.00 374.38 133.70
  Q 369.43 129.75 364.24 129.33
  C 359.73 128.96 354.72 129.02 350.60 131.09
  C 342.79 135.00 338.09 145.13 338.32 153.70
  C 338.49 160.45 337.51 166.16 341.30 172.39
  C 345.72 179.65 354.98 183.34 363.40 185.36
  Z
  M 319.71 168.89
  L 322.19 173.13
  Q 331.47 189.32 348.26 194.96
  Q 362.52 199.75 376.15 198.36
  Q 379.29 198.04 380.79 195.59
  Q 381.74 194.04 381.73 190.75
  Q 381.70 184.40 381.67 177.81
  L 381.66 169.68
  L 383.66 156.32
  A 2.52 2.52 0.0 0 0 381.16 153.43
  L 360.81 153.46
  Q 356.33 153.47 359.51 156.62
  Q 363.77 160.83 366.91 166.34
  Q 368.49 169.12 368.80 172.43
  L 368.83 182.43
  Q 368.51 185.31 366.50 186.36
  Q 365.11 187.09 362.45 186.55
  Q 351.43 184.27 343.48 177.65
  Q 339.57 173.34 338.11 169.65
  C 336.37 164.03 336.74 159.23 336.71 153.36
  Q 336.69 149.26 337.60 146.24
  C 340.40 136.91 345.66 129.56 355.53 127.88
  C 363.03 126.61 369.58 127.86 375.87 132.76
  A 0.83 0.83 0.0 0 0 377.20 132.22
  Q 377.84 127.58 379.39 123.17
  A 1.00 0.99 26.6 0 0 379.00 122.01
  Q 377.77 121.20 376.25 120.75
  C 369.98 118.89 363.14 117.16 356.49 117.81
  C 339.62 119.45 324.08 125.68 319.68 143.81
  Q 316.58 156.58 319.71 168.89
  Z"
/>
<path fill="#00a100" d="
  M 413.55 132.47
  Q 411.89 132.03 410.48 134.49
  Q 410.23 134.93 409.72 134.92
  L 404.93 134.88
  Q 404.39 134.88 404.01 135.27
  Q 403.85 135.43 403.64 135.51
  Q 403.26 135.66 402.87 135.58
  L 400.65 135.08
  Q 400.10 134.96 400.18 134.40
  L 400.40 133.00
  Q 400.48 132.43 400.91 132.04
  Q 405.89 127.50 411.47 124.53
  Q 411.88 124.31 412.08 123.94
  Q 412.21 123.72 412.42 123.65
  Q 413.33 123.33 412.37 123.26
  Q 411.87 123.23 411.28 123.17
  Q 418.15 119.50 425.83 117.63
  Q 429.25 116.79 431.41 117.17
  Q 437.77 118.27 443.34 120.64
  A 1.64 1.62 -72.8 0 1 444.29 122.46
  L 442.39 131.72
  A 0.72 0.71 -57.7 0 1 441.12 132.01
  Q 434.01 122.62 422.25 126.02
  Q 417.34 127.44 413.55 132.47
  Z"
/>
<path fill="#00a100" d="
  M 244.73 156.48
  L 231.01 156.38
  Q 230.98 143.33 230.78 130.50
  Q 230.67 123.62 226.16 118.56
  A 0.83 0.83 0.0 0 1 226.78 117.18
  L 249.00 117.13
  A 0.88 0.88 0.0 0 1 249.72 118.52
  L 245.20 124.87
  Q 244.83 125.40 244.83 126.04
  L 244.73 156.48
  Z"
/>
<path fill="#00a100" d="
  M 310.97 155.93
  L 302.29 156.12
  Q 302.87 154.92 303.59 153.53
  Q 304.31 152.16 304.29 150.67
  Q 304.05 137.44 302.21 125.48
  Q 301.65 121.84 299.47 119.10
  A 1.25 1.24 -19.4 0 1 300.44 117.08
  L 311.52 117.03
  A 0.69 0.69 0.0 0 1 312.21 117.79
  Q 311.69 122.71 311.30 127.92
  C 310.62 137.09 311.04 146.58 310.97 155.93
  Z"
/>
<path fill="#00a100" d="
  M 284.31 141.23
  Q 284.00 141.36 283.75 141.59
  Q 283.35 141.98 283.09 141.49
  Q 283.01 141.32 283.08 141.16
  Q 283.45 140.33 282.77 140.93
  Q 282.21 141.42 281.82 140.73
  Q 281.52 140.19 281.18 140.71
  Q 281.01 140.98 281.20 141.11
  Q 282.22 141.80 281.00 141.69
  Q 276.47 141.31 271.89 141.65
  Q 270.47 141.75 269.13 141.56
  Q 267.86 141.39 266.66 141.53
  Q 265.92 141.62 265.27 141.28
  Q 263.79 140.51 262.32 140.75
  A 0.47 0.46 -18.9 0 0 261.98 141.43
  Q 262.11 141.67 261.96 141.83
  Q 261.40 142.46 260.96 141.74
  L 260.49 140.98
  Q 260.00 140.19 259.87 141.11
  L 259.07 146.57
  Q 259.00 133.62 259.05 120.75
  Q 259.06 119.21 260.04 118.14
  Q 261.10 116.99 262.19 118.12
  L 284.31 141.23
  Z"
/>
<path fill="#2ec100" d="
  M 338.11 169.65
  Q 331.88 170.80 325.47 169.87
  Q 323.76 169.62 322.20 169.62
  Q 322.01 169.63 321.83 169.55
  Q 321.61 169.46 321.61 169.27
  Q 321.62 168.71 321.06 168.63
  Q 320.44 168.54 319.71 168.89
  Q 316.58 156.58 319.68 143.81
  C 324.08 125.68 339.62 119.45 356.49 117.81
  C 363.14 117.16 369.98 118.89 376.25 120.75
  Q 377.77 121.20 379.00 122.01
  A 1.00 0.99 26.6 0 1 379.39 123.17
  Q 377.84 127.58 377.20 132.22
  A 0.83 0.83 0.0 0 1 375.87 132.76
  C 369.58 127.86 363.03 126.61 355.53 127.88
  C 345.66 129.56 340.40 136.91 337.60 146.24
  Q 336.69 149.26 336.71 153.36
  C 336.74 159.23 336.37 164.03 338.11 169.65
  Z
  M 342.60 121.86
  Q 337.97 123.06 334.02 125.52
  Q 327.99 129.28 325.09 134.40
  Q 324.83 134.85 325.04 135.32
  Q 325.17 135.61 325.00 135.88
  Q 324.63 136.48 325.30 136.69
  Q 328.87 137.85 332.23 136.73
  Q 332.73 136.56 333.26 136.65
  Q 334.76 136.89 336.32 136.55
  C 337.51 136.29 338.10 136.39 338.88 137.25
  Q 339.54 137.99 339.87 137.06
  Q 340.01 136.65 340.35 136.43
  Q 340.99 136.02 341.49 135.37
  Q 346.31 129.21 354.26 126.41
  Q 356.08 125.76 357.50 125.98
  Q 358.98 126.20 360.45 126.02
  Q 363.82 125.60 366.98 126.50
  Q 371.09 127.67 375.06 130.31
  Q 375.62 130.68 375.62 130.01
  L 375.62 129.24
  A 1.38 1.36 67.7 0 1 376.02 128.27
  Q 376.99 127.31 377.14 125.93
  Q 377.25 124.99 377.58 124.16
  A 1.46 1.45 15.8 0 0 376.48 122.19
  Q 372.05 121.40 368.47 119.98
  Q 367.94 119.77 367.37 119.85
  Q 364.72 120.26 363.00 119.14
  Q 362.54 118.84 362.00 118.84
  Q 359.76 118.86 357.36 119.52
  C 355.51 120.03 353.66 119.90 351.76 119.85
  Q 349.81 119.79 347.78 120.37
  Q 345.57 121.01 343.26 121.39
  Q 343.04 121.42 342.93 121.61
  Q 342.82 121.81 342.60 121.86
  Z"
/>
<path fill="#00a100" d="
  M 342.93 121.61
  Q 343.04 121.42 343.26 121.39
  Q 345.57 121.01 347.78 120.37
  Q 349.81 119.79 351.76 119.85
  C 353.66 119.90 355.51 120.03 357.36 119.52
  Q 359.76 118.86 362.00 118.84
  Q 362.54 118.84 363.00 119.14
  Q 364.72 120.26 367.37 119.85
  Q 367.94 119.77 368.47 119.98
  Q 372.05 121.40 376.48 122.19
  A 1.46 1.45 15.8 0 1 377.58 124.16
  Q 377.25 124.99 377.14 125.93
  Q 376.99 127.31 376.02 128.27
  A 1.38 1.36 67.7 0 0 375.62 129.24
  L 375.62 130.01
  Q 375.62 130.68 375.06 130.31
  Q 371.09 127.67 366.98 126.50
  Q 363.82 125.60 360.45 126.02
  Q 358.98 126.20 357.50 125.98
  Q 356.08 125.76 354.26 126.41
  Q 346.31 129.21 341.49 135.37
  Q 340.99 136.02 340.35 136.43
  Q 340.01 136.65 339.87 137.06
  Q 339.54 137.99 338.88 137.25
  C 338.10 136.39 337.51 136.29 336.32 136.55
  Q 334.76 136.89 333.26 136.65
  Q 332.73 136.56 332.23 136.73
  Q 328.87 137.85 325.30 136.69
  Q 324.63 136.48 325.00 135.88
  Q 325.17 135.61 325.04 135.32
  Q 324.83 134.85 325.09 134.40
  Q 327.99 129.28 334.02 125.52
  Q 337.97 123.06 342.60 121.86
  Q 342.82 121.81 342.93 121.61
  Z"
/>
<path fill="#2ec100" d="
  M 413.55 132.47
  Q 408.36 140.88 407.47 151.00
  A 0.71 0.70 -87.4 0 0 408.17 151.77
  Q 419.94 151.76 432.00 151.73
  C 435.99 151.72 441.72 150.14 442.33 145.45
  A 0.90 0.89 -84.2 0 1 443.28 144.67
  Q 444.49 144.75 444.52 145.97
  C 444.66 151.97 443.83 161.42 435.95 161.46
  Q 423.78 161.52 408.11 161.38
  Q 407.39 161.37 407.52 162.08
  L 408.88 169.72
  Q 404.03 170.92 398.62 170.45
  Q 398.13 170.41 397.71 170.14
  Q 396.70 169.51 395.73 170.18
  Q 395.53 170.31 395.34 170.17
  Q 394.59 169.59 394.61 168.75
  Q 394.63 168.18 394.06 168.26
  Q 393.41 168.34 392.98 168.90
  Q 390.50 159.66 391.64 150.73
  Q 394.01 132.09 411.28 123.17
  Q 411.87 123.23 412.37 123.26
  Q 413.33 123.33 412.42 123.65
  Q 412.21 123.72 412.08 123.94
  Q 411.88 124.31 411.47 124.53
  Q 405.89 127.50 400.91 132.04
  Q 400.48 132.43 400.40 133.00
  L 400.18 134.40
  Q 400.10 134.96 400.65 135.08
  L 402.87 135.58
  Q 403.26 135.66 403.64 135.51
  Q 403.85 135.43 404.01 135.27
  Q 404.39 134.88 404.93 134.88
  L 409.72 134.92
  Q 410.23 134.93 410.48 134.49
  Q 411.89 132.03 413.55 132.47
  Z"
/>
<path fill="#2ec100" d="
  M 284.31 141.23
  C 289.28 146.33 294.69 152.13 300.58 156.15
  Q 301.76 156.95 302.29 156.12
  L 310.97 155.93
  L 311.00 171.67
  Q 299.82 172.52 288.83 171.66
  Q 288.34 171.62 287.87 171.79
  Q 287.47 171.93 287.03 171.93
  Q 286.53 171.94 286.21 171.55
  Q 284.28 169.15 282.15 169.17
  Q 277.45 164.54 272.75 159.49
  Q 270.95 157.54 268.49 158.59
  Q 266.46 159.44 266.59 162.01
  Q 266.83 166.64 266.82 170.32
  Q 263.67 171.73 261.64 171.10
  Q 260.69 170.80 260.33 170.92
  Q 259.75 171.12 259.18 171.75
  L 259.07 146.57
  L 259.87 141.11
  Q 260.00 140.19 260.49 140.98
  L 260.96 141.74
  Q 261.40 142.46 261.96 141.83
  Q 262.11 141.67 261.98 141.43
  A 0.47 0.46 -18.9 0 1 262.32 140.75
  Q 263.79 140.51 265.27 141.28
  Q 265.92 141.62 266.66 141.53
  Q 267.86 141.39 269.13 141.56
  Q 270.47 141.75 271.89 141.65
  Q 276.47 141.31 281.00 141.69
  Q 282.22 141.80 281.20 141.11
  Q 281.01 140.98 281.18 140.71
  Q 281.52 140.19 281.82 140.73
  Q 282.21 141.42 282.77 140.93
  Q 283.45 140.33 283.08 141.16
  Q 283.01 141.32 283.09 141.49
  Q 283.35 141.98 283.75 141.59
  Q 284.00 141.36 284.31 141.23
  Z"
/>
<path fill="#2ec100" d="
  M 381.66 169.68
  Q 379.68 170.03 380.09 171.54
  A 0.61 0.61 0.0 0 1 379.51 172.31
  L 368.80 172.43
  Q 368.49 169.12 366.91 166.34
  Q 363.77 160.83 359.51 156.62
  Q 356.33 153.47 360.81 153.46
  L 381.16 153.43
  A 2.52 2.52 0.0 0 1 383.66 156.32
  L 381.66 169.68
  Z"
/>
<path fill="#2ec100" d="
  M 244.73 156.48
  L 244.73 167.86
  Q 243.23 168.48 241.01 168.78
  Q 238.53 169.12 236.02 169.15
  Q 235.87 169.15 233.52 168.78
  Q 232.16 168.57 230.89 169.20
  L 231.01 156.38
  L 244.73 156.48
  Z"
/>
<path fill="#8fda00" d="
  M 155.09 180.21
  Q 153.27 181.63 151.72 181.61
  Q 150.30 181.59 150.25 181.59
  Q 145.11 182.12 139.92 181.82
  Q 139.43 181.79 139.17 181.37
  Q 139.07 181.22 139.04 181.04
  Q 138.93 180.40 138.37 180.20
  Q 137.77 179.97 137.17 180.72
  Q 136.10 178.63 135.65 175.65
  Q 135.52 174.85 136.28 174.56
  Q 137.32 174.16 138.24 173.49
  Q 143.02 169.99 147.36 166.06
  C 148.57 164.97 149.53 165.36 150.96 165.25
  Q 151.76 165.18 151.77 165.99
  Q 151.88 173.95 155.09 180.21
  Z"
/>
<path fill="#8fda00" d="
  M 448.96 183.55
  L 439.65 186.01
  Q 439.24 186.12 439.01 185.76
  Q 438.78 185.41 438.14 185.80
  C 443.64 180.57 446.97 174.21 450.18 167.44
  Q 450.65 166.45 451.83 166.73
  A 0.99 0.98 13.3 0 1 452.57 167.91
  L 448.96 183.55
  Z"
/>
<path fill="#8fda00" d="
  M 244.73 167.86
  L 244.76 182.41
  Q 242.62 182.22 240.50 184.12
  Q 240.05 184.52 239.46 184.47
  Q 234.18 184.05 229.06 184.20
  A 1.29 1.29 0.0 0 1 227.80 183.33
  Q 227.26 181.75 225.10 183.09
  Q 223.83 181.87 224.44 181.22
  Q 229.55 175.83 230.89 169.20
  Q 232.16 168.57 233.52 168.78
  Q 235.87 169.15 236.02 169.15
  Q 238.53 169.12 241.01 168.78
  Q 243.23 168.48 244.73 167.86
  Z"
/>
<path fill="#8fda00" d="
  M 408.88 169.72
  Q 411.92 177.89 419.96 182.42
  Q 418.59 184.64 416.86 183.43
  Q 416.45 183.14 415.94 183.16
  L 404.78 183.55
  Q 404.40 183.56 404.28 183.20
  Q 404.12 182.76 403.69 182.86
  Q 403.11 182.99 402.72 182.54
  Q 400.60 180.07 398.64 177.09
  Q 398.42 176.76 398.05 176.65
  Q 397.48 176.48 397.20 176.98
  L 392.98 168.90
  Q 393.41 168.34 394.06 168.26
  Q 394.63 168.18 394.61 168.75
  Q 394.59 169.59 395.34 170.17
  Q 395.53 170.31 395.73 170.18
  Q 396.70 169.51 397.71 170.14
  Q 398.13 170.41 398.62 170.45
  Q 404.03 170.92 408.88 169.72
  Z"
/>
<path fill="#8fda00" d="
  M 338.11 169.65
  Q 339.57 173.34 343.48 177.65
  Q 338.07 179.94 332.50 178.89
  Q 328.87 178.20 327.48 178.12
  Q 326.99 178.09 326.66 177.73
  Q 325.01 175.95 323.85 173.67
  Q 323.64 173.26 323.22 173.14
  Q 322.81 173.02 322.19 173.13
  L 319.71 168.89
  Q 320.44 168.54 321.06 168.63
  Q 321.62 168.71 321.61 169.27
  Q 321.61 169.46 321.83 169.55
  Q 322.01 169.63 322.20 169.62
  Q 323.76 169.62 325.47 169.87
  Q 331.88 170.80 338.11 169.65
  Z"
/>
<path fill="#8fda00" d="
  M 282.15 169.17
  Q 284.28 169.15 286.21 171.55
  Q 286.53 171.94 287.03 171.93
  Q 287.47 171.93 287.87 171.79
  Q 288.34 171.62 288.83 171.66
  Q 299.82 172.52 311.00 171.67
  L 310.99 179.50
  Q 302.95 180.74 295.01 179.71
  Q 294.51 179.64 294.12 179.32
  Q 291.83 177.40 289.18 176.64
  L 282.15 169.17
  Z"
/>
<path fill="#8fda00" d="
  M 381.66 169.68
  L 381.67 177.81
  Q 380.05 177.88 379.90 180.73
  Q 379.88 181.25 379.36 181.31
  L 368.83 182.43
  L 368.80 172.43
  L 379.51 172.31
  A 0.61 0.61 0.0 0 0 380.09 171.54
  Q 379.68 170.03 381.66 169.68
  Z"
/>
<path fill="#8fda00" d="
  M 216.91 172.81
  Q 218.29 174.25 218.35 176.36
  Q 218.38 177.94 217.16 179.72
  Q 215.04 182.80 212.31 185.60
  Q 212.39 184.88 211.91 184.69
  Q 211.59 184.57 211.12 184.79
  Q 210.40 185.14 209.81 185.70
  Q 209.42 186.06 208.90 186.08
  L 200.54 186.24
  Q 200.28 186.25 200.04 186.17
  Q 199.79 186.08 199.50 186.11
  Q 194.07 186.61 188.54 185.30
  Q 194.71 176.66 191.20 170.54
  Q 192.43 168.80 193.73 172.42
  Q 193.89 172.89 194.39 172.89
  Q 195.23 172.89 195.99 173.02
  Q 196.64 173.14 197.29 173.12
  L 216.91 172.81
  Z"
/>
<path fill="#8fda00" d="
  M 266.82 170.32
  L 266.96 187.72
  L 259.18 188.25
  L 259.18 171.75
  Q 259.75 171.12 260.33 170.92
  Q 260.69 170.80 261.64 171.10
  Q 263.67 171.73 266.82 170.32
  Z"
/>
<path fill="#c5ee00" d="
  M 322.19 173.13
  Q 322.81 173.02 323.22 173.14
  Q 323.64 173.26 323.85 173.67
  Q 325.01 175.95 326.66 177.73
  Q 326.99 178.09 327.48 178.12
  Q 328.87 178.20 332.50 178.89
  Q 338.07 179.94 343.48 177.65
  Q 351.43 184.27 362.45 186.55
  Q 365.11 187.09 366.50 186.36
  Q 368.51 185.31 368.83 182.43
  L 379.36 181.31
  Q 379.88 181.25 379.90 180.73
  Q 380.05 177.88 381.67 177.81
  Q 381.70 184.40 381.73 190.75
  Q 381.74 194.04 380.79 195.59
  Q 379.29 198.04 376.15 198.36
  Q 362.52 199.75 348.26 194.96
  Q 331.47 189.32 322.19 173.13
  Z"
/>
<path fill="#c5ee00" d="
  M 289.18 176.64
  Q 291.83 177.40 294.12 179.32
  Q 294.51 179.64 295.01 179.71
  Q 302.95 180.74 310.99 179.50
  L 311.06 197.80
  Q 311.07 198.54 310.33 198.54
  L 307.99 198.55
  Q 307.26 198.56 306.87 197.93
  C 302.13 190.25 295.32 183.36 289.18 176.64
  Z"
/>
<path fill="#c5ee00" d="
  M 419.96 182.42
  Q 425.72 185.71 429.99 186.53
  Q 434.15 187.34 438.14 185.80
  Q 438.78 185.41 439.01 185.76
  Q 439.24 186.12 439.65 186.01
  L 448.96 183.55
  Q 447.25 191.17 445.29 195.52
  C 444.39 197.49 442.28 198.44 440.16 198.53
  C 422.28 199.32 406.42 192.74 397.20 176.98
  Q 397.48 176.48 398.05 176.65
  Q 398.42 176.76 398.64 177.09
  Q 400.60 180.07 402.72 182.54
  Q 403.11 182.99 403.69 182.86
  Q 404.12 182.76 404.28 183.20
  Q 404.40 183.56 404.78 183.55
  L 415.94 183.16
  Q 416.45 183.14 416.86 183.43
  Q 418.59 184.64 419.96 182.42
  Z"
/>
<path fill="#c5ee00" d="
  M 155.09 180.21
  C 160.29 188.47 169.69 191.25 178.76 190.48
  Q 184.90 189.95 188.54 185.30
  Q 194.07 186.61 199.50 186.11
  Q 199.79 186.08 200.04 186.17
  Q 200.28 186.25 200.54 186.24
  L 208.90 186.08
  Q 209.42 186.06 209.81 185.70
  Q 210.40 185.14 211.12 184.79
  Q 211.59 184.57 211.91 184.69
  Q 212.39 184.88 212.31 185.60
  Q 200.85 196.33 185.70 198.17
  Q 176.94 199.24 167.76 197.02
  C 157.47 194.54 142.29 190.57 137.17 180.72
  Q 137.77 179.97 138.37 180.20
  Q 138.93 180.40 139.04 181.04
  Q 139.07 181.22 139.17 181.37
  Q 139.43 181.79 139.92 181.82
  Q 145.11 182.12 150.25 181.59
  Q 150.30 181.59 151.72 181.61
  Q 153.27 181.63 155.09 180.21
  Z"
/>
<path fill="#c5ee00" d="
  M 244.76 182.41
  L 244.87 197.45
  A 1.41 1.41 0.0 0 1 242.53 198.52
  L 225.10 183.09
  Q 227.26 181.75 227.80 183.33
  A 1.29 1.29 0.0 0 0 229.06 184.20
  Q 234.18 184.05 239.46 184.47
  Q 240.05 184.52 240.50 184.12
  Q 242.62 182.22 244.76 182.41
  Z"
/>
<path fill="#c5ee00" d="
  M 266.96 187.72
  L 269.16 196.20
  A 1.75 1.75 0.0 0 1 267.59 198.38
  Q 262.61 198.75 258.30 198.52
  A 1.92 1.92 0.0 0 1 256.77 195.59
  Q 258.66 192.52 259.18 188.25
  L 266.96 187.72
  Z"
/>
</svg>
