<?xml version="1.0" encoding="UTF-8" standalone="no"?>
<!DOCTYPE svg PUBLIC "-//W3C//DTD SVG 1.1//EN" "http://www.w3.org/Graphics/SVG/1.1/DTD/svg11.dtd">
<svg xmlns="http://www.w3.org/2000/svg" version="1.1" viewBox="0.00 0.00 590.00 255.00">
<g stroke-width="2.00" fill="none" stroke-linecap="butt">
<path stroke="#848484" stroke-opacity="0.992" vector-effect="non-scaling-stroke" d="
  M 368.19 114.81
  Q 368.00 111.21 365.79 108.96"
/>
<path stroke="#848484" stroke-opacity="0.992" vector-effect="non-scaling-stroke" d="
  M 362.84 107.05
  Q 359.11 105.28 358.22 106.92"
/>
<path stroke="#848484" stroke-opacity="0.992" vector-effect="non-scaling-stroke" d="
  M 419.09 103.32
  L 399.69 103.38"
/>
<path stroke="#848484" stroke-opacity="0.992" vector-effect="non-scaling-stroke" d="
  M 229.38 126.81
  Q 223.66 122.96 216.51 123.65"
/>
<path stroke="#848484" stroke-opacity="0.992" vector-effect="non-scaling-stroke" d="
  M 205.36 136.09
  L 193.99 135.98
  Q 193.49 135.97 193.22 135.53
  Q 192.35 134.09 192.13 132.22"
/>
<path stroke="#848484" stroke-opacity="0.992" vector-effect="non-scaling-stroke" d="
  M 280.55 136.44
  L 237.03 136.41"
/>
<path stroke="#848484" stroke-opacity="0.992" vector-effect="non-scaling-stroke" d="
  M 431.84 136.11
  L 421.35 136.10
  Q 420.82 136.10 420.54 135.65
  L 419.58 134.13"
/>
<path stroke="#848484" stroke-opacity="0.992" vector-effect="non-scaling-stroke" d="
  M 486.54 136.31
  L 463.62 136.40"
/>
<path stroke="#848484" stroke-opacity="0.992" vector-effect="non-scaling-stroke" d="
  M 187.52 136.47
  L 167.94 136.30
  Q 167.45 136.30 167.18 135.89
  L 166.94 135.52"
/>
<path stroke="#848484" stroke-opacity="0.992" vector-effect="non-scaling-stroke" d="
  M 166.94 135.52
  Q 168.21 129.55 165.03 127.75"
/>
<path stroke="#848484" stroke-opacity="0.992" vector-effect="non-scaling-stroke" d="
  M 164.82 127.76
  Q 163.62 126.80 162.19 127.70"
/>
<path stroke="#848484" stroke-opacity="0.992" vector-effect="non-scaling-stroke" d="
  M 414.05 136.41
  L 395.79 136.43"
/>
<path stroke="#848484" stroke-opacity="0.992" vector-effect="non-scaling-stroke" d="
  M 126.99 169.81
  Q 105.97 169.21 85.00 169.83
  Q 84.05 169.85 83.93 168.77"
/>
<path stroke="#848484" stroke-opacity="0.992" vector-effect="non-scaling-stroke" d="
  M 84.35 167.58
  L 88.00 144.23"
/>
<path stroke="#848484" stroke-opacity="0.992" vector-effect="non-scaling-stroke" d="
  M 212.45 149.35
  Q 211.83 148.08 211.05 147.69"
/>
<path stroke="#848484" stroke-opacity="0.992" vector-effect="non-scaling-stroke" d="
  M 409.23 169.70
  Q 399.22 169.41 389.25 169.78
  Q 387.49 169.85 388.29 168.44"
/>
<path stroke="#848484" stroke-opacity="0.992" vector-effect="non-scaling-stroke" d="
  M 439.34 152.39
  Q 441.27 148.89 437.07 146.87"
/>
<path stroke="#848484" stroke-opacity="0.992" vector-effect="non-scaling-stroke" d="
  M 270.07 128.45
  Q 270.42 128.52 270.68 128.36
  Q 270.90 128.23 270.95 127.87
  Q 271.30 125.35 270.30 123.18"
/>
</g>
<path fill="#ffffff" d="
  M 89.90 135.28
  L 98.03 84.37
  A 0.44 0.44 0.0 0 1 98.47 84.00
  L 122.04 84.00
  A 0.44 0.44 0.0 0 1 122.47 84.51
  L 113.89 135.39
  A 0.44 0.44 0.0 0 1 113.46 135.76
  L 90.34 135.79
  A 0.44 0.44 0.0 0 1 89.90 135.28
  Z"
/>
<path fill="#ffffff" d="
  M 368.19 114.81
  Q 368.00 111.21 365.79 108.96
  Q 364.46 107.65 362.84 107.05
  Q 359.11 105.28 358.22 106.92
  L 353.83 135.50
  A 0.76 0.75 88.3 0 1 353.25 136.12
  Q 351.81 136.45 350.50 136.40
  Q 340.14 136.00 330.73 136.35
  A 0.50 0.49 -84.3 0 1 330.23 135.73
  L 331.45 130.71
  Q 331.90 128.86 330.00 128.81
  Q 320.08 128.51 314.67 135.73
  Q 314.28 136.25 313.63 136.25
  L 292.66 136.43
  A 0.58 0.58 0.0 0 1 292.08 135.77
  Q 293.75 122.20 296.14 109.85
  A 1.08 1.07 -84.4 0 1 297.19 108.98
  L 316.55 108.98
  Q 317.13 108.98 317.08 109.56
  L 316.58 114.48
  Q 316.39 116.41 317.71 115.00
  C 322.30 110.09 327.63 108.42 334.04 107.22
  Q 334.62 107.11 334.70 106.54
  L 337.98 84.49
  Q 338.05 84.02 338.52 84.02
  Q 351.19 83.91 363.11 84.08
  C 376.82 84.28 388.52 91.18 391.63 105.10
  C 393.80 114.77 393.04 125.25 391.16 135.02
  A 1.89 1.88 5.6 0 1 389.31 136.54
  L 366.13 136.52
  Q 365.67 136.52 365.79 136.08
  C 367.50 129.83 369.20 121.45 368.19 114.81
  Z"
/>
<path fill="#ffffff" d="
  M 419.09 103.32
  L 399.69 103.38
  Q 398.79 103.63 398.32 103.36
  Q 397.95 103.15 398.01 102.73
  L 399.94 89.54
  A 1.52 1.52 0.0 0 1 401.44 88.24
  L 422.23 88.25
  A 0.63 0.63 0.0 0 1 422.85 88.97
  L 420.89 102.76
  Q 420.83 103.18 420.40 103.22
  L 419.09 103.32
  Z"
/>
<path fill="#ffffff" d="
  M 495.04 95.90
  L 494.43 95.87
  Q 493.36 95.83 494.37 95.50
  Q 495.81 95.03 497.68 95.42
  Q 498.19 95.52 497.74 95.78
  Q 497.09 96.16 497.12 96.96
  Q 497.20 99.02 497.02 100.78
  Q 496.98 101.25 496.50 101.21
  L 496.13 101.18
  Q 495.71 101.15 495.73 100.73
  L 495.87 96.79
  Q 495.90 95.93 495.04 95.90
  Z"
/>
<path fill="#ffffff" d="
  M 500.43 99.42
  Q 500.23 99.80 500.57 100.11
  A 0.61 0.61 0.0 0 1 500.41 101.11
  Q 498.81 101.86 498.95 100.62
  Q 499.20 98.25 498.98 95.89
  Q 498.96 95.67 499.18 95.63
  L 500.44 95.40
  A 0.31 0.30 -9.6 0 1 500.79 95.64
  C 501.17 97.70 503.06 98.68 502.93 100.81
  Q 502.90 101.42 502.38 101.08
  Q 501.47 100.48 501.07 99.46
  Q 500.79 98.76 500.43 99.42
  Z"
/>
<path fill="#ffffff" d="
  M 504.46 95.51
  A 0.16 0.16 0.0 0 1 504.65 95.64
  L 504.66 95.73
  A 5.17 0.71 81.3 0 1 504.74 100.95
  L 504.58 100.97
  A 5.17 0.71 81.3 0 1 503.10 95.97
  L 503.08 95.88
  A 0.16 0.16 0.0 0 1 503.22 95.70
  L 504.46 95.51
  Z"
/>
<path fill="#060607" fill-opacity="0.980" d="
  M 419.09 103.32
  L 399.69 103.38
  L 419.09 103.32
  Z"
/>
<path fill="#060607" fill-opacity="0.980" d="
  M 362.84 107.05
  L 358.22 106.92
  Q 359.11 105.28 362.84 107.05
  Z"
/>
<path fill="#ffffff" d="
  M 229.38 126.81
  Q 223.66 122.96 216.51 123.65
  Q 214.55 123.71 214.03 125.05
  Q 212.83 128.15 216.41 129.80
  Q 220.17 131.55 224.37 133.27
  Q 226.26 134.04 227.36 135.21
  Q 228.30 136.22 226.92 136.21
  L 205.36 136.09
  L 193.99 135.98
  Q 193.49 135.97 193.22 135.53
  Q 192.35 134.09 192.13 132.22
  C 190.29 116.29 200.84 107.88 215.49 106.60
  Q 225.74 105.70 234.07 110.84
  A 0.96 0.95 -70.0 0 1 234.51 111.79
  L 232.36 127.00
  Q 232.21 128.07 231.22 127.63
  L 229.38 126.81
  Z"
/>
<path fill="#ffffff" d="
  M 280.55 136.44
  L 237.03 136.41
  Q 236.73 136.57 236.47 136.52
  Q 236.00 136.41 236.07 135.94
  C 237.99 124.24 243.94 112.86 255.20 108.48
  C 262.82 105.52 273.57 105.60 280.74 109.96
  Q 289.97 115.55 290.69 127.81
  Q 290.95 132.13 290.28 135.71
  Q 290.17 136.33 289.54 136.34
  L 280.55 136.44
  Z
  M 270.07 128.45
  Q 270.42 128.52 270.68 128.36
  Q 270.90 128.23 270.95 127.87
  Q 271.30 125.35 270.30 123.18
  Q 269.29 120.42 266.34 120.76
  Q 263.67 121.08 262.42 123.45
  L 260.96 126.21
  Q 259.70 128.59 262.40 128.55
  L 270.07 128.45
  Z"
/>
<path fill="#ffffff" d="
  M 431.84 136.11
  L 421.35 136.10
  Q 420.82 136.10 420.54 135.65
  L 419.58 134.13
  Q 416.74 114.96 433.76 108.30
  Q 436.78 107.12 442.22 106.61
  Q 452.59 105.63 461.19 110.80
  Q 461.70 111.11 461.63 111.70
  Q 460.87 118.08 460.00 124.69
  Q 459.78 126.29 458.85 127.55
  Q 458.52 128.01 458.07 127.66
  Q 453.07 123.73 446.20 123.51
  C 444.41 123.45 442.31 123.37 441.08 124.99
  A 2.26 2.25 -46.4 0 0 441.14 127.81
  Q 442.84 129.84 445.20 130.62
  Q 449.91 132.19 454.33 134.95
  Q 455.57 135.72 454.13 135.97
  Q 453.47 136.09 452.75 136.08
  Q 442.23 135.93 431.84 136.11
  Z"
/>
<path fill="#ffffff" d="
  M 486.54 136.31
  L 463.62 136.40
  Q 463.96 131.88 467.11 124.11
  C 472.28 111.36 484.76 106.12 498.02 106.57
  Q 502.07 106.71 505.57 108.70
  Q 506.04 108.97 505.96 109.52
  L 503.59 125.47
  A 0.75 0.74 11.5 0 1 502.66 126.08
  C 495.18 124.10 490.55 128.02 488.65 135.23
  Q 488.51 135.74 488.04 135.95
  Q 487.37 136.26 486.54 136.31
  Z"
/>
<path fill="#ffffff" d="
  M 187.52 136.47
  L 167.94 136.30
  Q 167.45 136.30 167.18 135.89
  L 166.94 135.52
  Q 168.21 129.55 165.03 127.75
  Q 164.92 127.75 164.82 127.76
  Q 163.62 126.80 162.19 127.70
  C 158.45 129.85 158.51 132.74 156.81 135.70
  Q 156.55 136.15 156.03 136.14
  Q 145.53 135.83 134.88 136.39
  Q 133.46 136.46 133.86 135.09
  Q 136.29 126.83 139.97 120.01
  C 144.59 111.44 152.12 106.99 162.10 107.90
  Q 168.91 108.52 172.80 113.34
  Q 173.71 114.47 173.75 113.02
  Q 173.78 111.49 174.11 109.97
  Q 174.34 108.87 175.47 108.87
  Q 184.26 108.87 191.85 108.89
  A 0.67 0.66 4.7 0 1 192.51 109.66
  Q 191.29 116.59 190.71 123.76
  Q 190.30 128.82 187.52 136.47
  Z"
/>
<path fill="#060607" fill-opacity="0.980" d="
  M 365.79 108.96
  Q 368.00 111.21 368.19 114.81
  Q 366.71 113.75 366.87 111.77
  Q 366.91 111.29 366.70 110.90
  Q 366.67 110.83 366.60 110.86
  Q 365.94 111.11 365.96 110.40
  Q 365.99 109.71 365.79 108.96
  Z"
/>
<path fill="#ffffff" d="
  M 414.05 136.41
  L 395.79 136.43
  Q 394.53 136.74 393.72 136.52
  Q 393.21 136.37 393.29 135.85
  L 397.35 109.76
  A 0.91 0.91 0.0 0 1 398.25 108.99
  L 419.29 108.99
  Q 419.91 108.99 419.84 109.60
  Q 419.43 113.28 419.00 116.69
  Q 418.59 119.96 417.82 123.67
  Q 416.97 127.80 416.66 132.07
  C 416.58 133.19 416.10 134.39 415.92 135.51
  Q 415.82 136.14 415.20 136.23
  L 414.05 136.41
  Z"
/>
<path fill="#060607" fill-opacity="0.980" d="
  M 270.30 123.18
  Q 271.30 125.35 270.95 127.87
  Q 270.90 128.23 270.68 128.36
  Q 270.42 128.52 270.07 128.45
  Q 271.06 128.00 270.63 126.50
  Q 270.03 124.42 270.30 123.18
  Z"
/>
<path fill="#060607" fill-opacity="0.980" d="
  M 229.38 126.81
  Q 222.90 124.05 216.51 123.65
  Q 223.66 122.96 229.38 126.81
  Z"
/>
<path fill="#060607" fill-opacity="0.980" d="
  M 164.82 127.76
  Q 164.72 127.83 164.60 127.86
  Q 164.24 127.96 164.60 128.07
  Q 164.66 128.08 164.66 128.14
  Q 164.72 128.47 164.40 128.35
  Q 163.35 127.94 162.19 127.70
  Q 163.62 126.80 164.82 127.76
  Z"
/>
<path fill="#060607" fill-opacity="0.980" d="
  M 165.03 127.75
  Q 168.21 129.55 166.94 135.52
  Q 167.24 131.16 165.03 127.75
  Z"
/>
<path fill="#060607" fill-opacity="0.980" d="
  M 192.13 132.22
  Q 192.35 134.09 193.22 135.53
  Q 193.49 135.97 193.99 135.98
  L 205.36 136.09
  Q 199.27 136.99 193.06 136.47
  Q 192.56 136.42 192.43 135.93
  Q 191.93 134.07 192.13 132.22
  Z"
/>
<path fill="#060607" fill-opacity="0.980" d="
  M 419.58 134.13
  L 420.54 135.65
  Q 420.82 136.10 421.35 136.10
  L 431.84 136.11
  Q 425.42 137.24 420.25 136.25
  Q 419.27 136.07 419.58 134.13
  Z"
/>
<path fill="#060607" fill-opacity="0.980" d="
  M 166.94 135.52
  L 167.18 135.89
  Q 167.45 136.30 167.94 136.30
  L 187.52 136.47
  L 167.20 136.46
  Q 166.67 136.46 166.76 135.94
  Q 166.80 135.71 166.94 135.52
  Z"
/>
<path fill="#060607" fill-opacity="0.980" d="
  M 280.55 136.44
  L 237.03 136.41
  L 280.55 136.44
  Z"
/>
<path fill="#060607" fill-opacity="0.980" d="
  M 414.05 136.41
  L 395.79 136.43
  L 414.05 136.41
  Z"
/>
<path fill="#060607" fill-opacity="0.980" d="
  M 486.54 136.31
  L 463.62 136.40
  L 486.54 136.31
  Z"
/>
<path fill="#ffffff" d="
  M 164.62 165.31
  Q 161.41 169.76 156.10 170.72
  C 149.45 171.91 142.63 171.48 138.29 165.65
  Q 135.77 162.27 134.95 158.95
  Q 133.37 152.51 133.44 144.24
  Q 133.45 142.74 134.96 142.74
  L 155.50 142.74
  A 0.54 0.54 0.0 0 1 156.04 143.30
  Q 155.94 145.97 156.06 148.90
  C 156.18 151.66 158.33 153.92 161.18 152.42
  C 164.10 150.89 164.88 146.78 165.80 143.85
  A 1.76 1.75 8.5 0 1 167.48 142.61
  L 186.34 142.63
  Q 187.34 142.63 187.18 143.62
  L 183.05 169.01
  Q 182.94 169.70 182.24 169.69
  L 165.08 169.51
  A 0.68 0.68 0.0 0 1 164.43 168.68
  Q 164.80 167.04 165.04 165.49
  Q 165.19 164.52 164.62 165.31
  Z"
/>
<path fill="#ffffff" d="
  M 351.88 148.86
  A 0.79 0.79 0.0 0 0 352.70 149.78
  Q 358.71 149.46 362.00 143.76
  A 2.12 2.10 14.6 0 1 363.81 142.71
  L 387.52 142.68
  A 0.57 0.56 9.7 0 1 388.06 143.43
  C 383.09 157.80 371.91 167.58 356.68 169.17
  C 354.50 169.39 352.39 169.76 350.22 169.76
  Q 337.93 169.74 325.73 169.83
  A 0.74 0.73 4.2 0 1 324.99 168.98
  L 329.02 143.30
  A 0.69 0.69 0.0 0 1 329.70 142.72
  L 351.91 142.72
  A 0.81 0.80 -85.4 0 1 352.70 143.66
  L 351.88 148.86
  Z"
/>
<path fill="#ffffff" d="
  M 126.99 169.81
  Q 105.97 169.21 85.00 169.83
  Q 84.05 169.85 83.93 168.77
  L 84.35 167.58
  L 88.00 144.23
  Q 88.10 143.48 88.51 143.06
  Q 88.84 142.72 89.60 142.72
  Q 100.79 142.72 111.88 142.74
  A 0.64 0.64 0.0 0 1 112.51 143.46
  L 111.91 147.92
  A 0.52 0.52 0.0 0 0 112.43 148.51
  L 131.26 148.48
  A 0.85 0.85 0.0 0 1 132.09 149.51
  Q 130.12 158.71 129.33 168.28
  Q 129.19 170.09 126.99 169.81
  Z"
/>
<path fill="#ffffff" d="
  M 212.45 149.35
  Q 211.83 148.08 211.05 147.69
  Q 209.87 146.71 208.25 146.20
  Q 204.56 145.04 200.58 143.97
  Q 200.08 143.83 200.50 143.53
  Q 201.48 142.84 202.72 142.83
  Q 217.81 142.74 232.72 142.77
  A 0.80 0.78 78.9 0 1 233.45 143.28
  C 234.45 145.89 234.76 149.19 234.30 151.91
  Q 231.58 168.00 215.01 171.48
  C 212.29 172.05 208.04 171.87 204.70 171.90
  C 198.42 171.98 193.43 169.71 188.06 166.55
  Q 187.55 166.25 187.62 165.65
  L 187.80 164.24
  Q 187.85 163.79 187.43 163.63
  Q 187.24 163.56 187.12 163.68
  Q 187.03 163.76 186.99 163.88
  Q 186.37 165.51 186.81 167.28
  Q 186.94 167.80 187.41 168.06
  Q 187.75 168.24 188.04 168.51
  Q 188.76 169.19 187.90 168.71
  C 186.48 167.90 186.11 166.12 186.40 164.61
  Q 186.57 163.72 187.38 163.43
  Q 187.73 163.31 187.80 162.95
  L 190.67 148.29
  Q 190.81 147.58 191.33 148.08
  C 195.39 151.99 203.03 156.37 208.88 154.43
  Q 213.28 152.97 212.45 149.35
  Z"
/>
<path fill="#ffffff" d="
  M 235.64 151.32
  Q 234.66 147.21 235.16 143.03
  A 0.35 0.35 0.0 0 1 235.51 142.71
  L 256.75 142.74
  A 0.66 0.66 0.0 0 1 257.40 143.53
  Q 256.63 147.55 257.33 152.31
  C 258.38 159.41 265.19 157.59 267.02 152.52
  Q 267.63 150.84 268.21 149.12
  A 1.11 1.10 9.1 0 1 269.26 148.37
  L 286.98 148.38
  Q 288.35 148.38 288.16 149.74
  C 286.67 160.71 279.33 171.11 267.78 171.83
  C 262.49 172.16 255.52 172.70 250.55 170.81
  Q 241.78 167.49 238.19 159.06
  Q 236.58 155.29 235.64 151.32
  Z"
/>
<path fill="#ffffff" d="
  M 313.55 143.51
  L 309.52 169.33
  A 0.70 0.70 0.0 0 1 308.83 169.92
  L 287.36 169.85
  A 0.70 0.70 0.0 0 1 286.67 169.04
  L 291.04 143.35
  A 0.70 0.70 0.0 0 1 291.73 142.77
  L 312.86 142.70
  A 0.70 0.70 0.0 0 1 313.55 143.51
  Z"
/>
<path fill="#ffffff" d="
  M 409.23 169.70
  Q 399.22 169.41 389.25 169.78
  Q 387.49 169.85 388.29 168.44
  L 391.91 144.07
  Q 392.11 142.71 393.49 142.71
  L 414.12 142.74
  A 0.78 0.78 0.0 0 1 414.89 143.65
  L 410.83 168.73
  Q 410.74 169.31 410.30 169.42
  L 409.23 169.70
  Z"
/>
<path fill="#ffffff" d="
  M 439.34 152.39
  Q 441.27 148.89 437.07 146.87
  L 428.11 144.17
  Q 427.59 144.02 427.84 143.54
  Q 428.19 142.87 429.25 142.86
  Q 444.47 142.69 459.77 142.81
  A 1.21 1.20 83.3 0 1 460.94 143.74
  C 462.25 149.49 461.50 155.53 458.38 160.69
  Q 452.44 170.51 439.98 171.76
  Q 436.82 172.08 431.68 171.92
  C 425.48 171.73 420.65 169.78 415.49 166.70
  A 1.26 1.24 18.4 0 1 414.88 165.50
  Q 415.71 156.64 417.58 148.30
  A 0.61 0.61 0.0 0 1 418.62 148.01
  Q 422.54 152.18 428.38 154.05
  Q 434.89 156.13 439.34 152.39
  Z"
/>
<path fill="#ffffff" d="
  M 496.29 169.73
  C 486.45 172.00 473.93 171.12 467.71 162.28
  Q 462.03 154.20 462.81 143.37
  Q 462.86 142.72 463.51 142.72
  L 486.78 142.73
  Q 487.48 142.73 487.68 143.40
  C 488.76 146.87 490.73 150.56 495.04 150.29
  Q 497.25 150.15 499.26 150.09
  A 0.34 0.33 -87.0 0 1 499.60 150.47
  Q 498.57 157.93 497.62 165.75
  Q 497.42 167.39 496.96 169.09
  Q 496.82 169.61 496.29 169.73
  Z"
/>
<path fill="#060607" fill-opacity="0.980" d="
  M 88.00 144.23
  L 84.35 167.58
  L 88.00 144.23
  Z"
/>
<path fill="#060607" fill-opacity="0.980" d="
  M 437.07 146.87
  Q 441.27 148.89 439.34 152.39
  L 438.84 149.43
  Q 438.75 148.90 438.24 148.74
  Q 437.67 148.57 437.69 147.96
  Q 437.71 147.43 437.26 147.70
  Q 437.21 147.73 437.17 147.74
  Q 437.00 147.81 436.88 147.67
  Q 436.70 147.43 437.07 146.87
  Z"
/>
<path fill="#060607" fill-opacity="0.980" d="
  M 211.05 147.69
  Q 211.83 148.08 212.45 149.35
  L 211.36 149.05
  Q 210.88 148.92 210.89 148.41
  Q 210.90 148.08 211.05 147.69
  Z"
/>
<path fill="#060607" fill-opacity="0.980" d="
  M 388.29 168.44
  Q 387.49 169.85 389.25 169.78
  Q 399.22 169.41 409.23 169.70
  Q 398.98 170.15 388.71 170.08
  Q 387.92 170.07 387.83 169.67
  Q 387.72 169.23 388.29 168.44
  Z"
/>
<path fill="#060607" fill-opacity="0.980" d="
  M 83.93 168.77
  Q 84.05 169.85 85.00 169.83
  Q 105.97 169.21 126.99 169.81
  L 84.28 169.99
  Q 83.72 170.00 83.74 169.43
  Q 83.75 169.15 83.93 168.77
  Z"
/>
</svg>
