<?xml version="1.0" encoding="UTF-8" standalone="no"?>
<!DOCTYPE svg PUBLIC "-//W3C//DTD SVG 1.1//EN" "http://www.w3.org/Graphics/SVG/1.1/DTD/svg11.dtd">
<svg xmlns="http://www.w3.org/2000/svg" version="1.1" viewBox="0.00 0.00 590.00 255.00">
<g stroke-width="2.00" fill="none" stroke-linecap="butt">
<path stroke="#013981" stroke-opacity="0.596" vector-effect="non-scaling-stroke" d="
  M 420.21 62.51
  C 411.47 53.81 396.43 53.81 388.74 63.25
  Q 386.16 66.43 383.28 75.09
  Q 374.41 101.82 364.92 128.41"
/>
<path stroke="#013981" stroke-opacity="0.596" vector-effect="non-scaling-stroke" d="
  M 451.79 151.10
  L 399.62 151.13
  A 0.46 0.46 0.0 0 1 399.16 150.67
  L 399.18 140.63"
/>
<path stroke="#013981" stroke-opacity="0.596" vector-effect="non-scaling-stroke" d="
  M 372.40 147.97
  L 371.21 150.69
  Q 370.97 151.23 370.39 151.23
  Q 347.68 151.06 321.06 151.22
  Q 314.18 151.27 309.99 150.01
  C 300.77 147.25 294.19 139.42 291.48 130.20"
/>
<path stroke="#013981" stroke-opacity="0.596" vector-effect="non-scaling-stroke" d="
  M 232.17 127.11
  C 233.80 131.33 236.70 135.04 241.56 135.05
  Q 263.29 135.09 286.01 134.97
  Q 286.49 134.96 286.67 134.51
  Q 286.85 134.02 286.79 133.44"
/>
<path stroke="#013981" stroke-opacity="0.596" vector-effect="non-scaling-stroke" d="
  M 385.36 151.40
  L 389.44 151.14
  A 0.77 0.76 -81.8 0 0 390.11 150.63
  L 394.47 137.82"
/>
<path stroke="#013981" stroke-opacity="0.596" vector-effect="non-scaling-stroke" d="
  M 207.43 133.64
  Q 212.93 121.12 207.89 108.57"
/>
<path stroke="#013981" stroke-opacity="0.596" vector-effect="non-scaling-stroke" d="
  M 195.25 94.03
  L 190.36 91.57"
/>
<path stroke="#013981" stroke-opacity="0.596" vector-effect="non-scaling-stroke" d="
  M 191.44 87.26
  L 209.35 86.76
  A 0.92 0.92 0.0 0 0 210.24 85.85
  L 210.28 73.56"
/>
<path stroke="#013981" stroke-opacity="0.596" vector-effect="non-scaling-stroke" d="
  M 398.96 133.72
  Q 399.45 131.19 398.98 128.55"
/>
<path stroke="#013981" stroke-opacity="0.596" vector-effect="non-scaling-stroke" d="
  M 229.93 127.95
  Q 231.60 134.32 236.77 136.77
  Q 239.90 138.26 245.32 138.22
  Q 265.06 138.08 285.97 138.23
  Q 286.50 138.23 286.50 138.76
  L 286.51 150.52
  Q 286.51 151.22 285.81 151.21
  Q 265.67 151.05 246.94 151.22
  Q 239.11 151.29 234.96 150.07
  C 226.67 147.62 219.79 140.71 217.44 132.48
  Q 216.39 128.82 216.36 123.21
  Q 216.27 104.24 216.20 88.74
  Q 216.16 80.04 217.48 75.49
  Q 219.97 66.92 228.90 61.26"
/>
<path stroke="#013981" stroke-opacity="0.596" vector-effect="non-scaling-stroke" d="
  M 206.06 136.36
  C 198.96 147.17 189.17 151.44 176.55 151.29
  Q 156.13 151.04 138.65 151.38
  Q 138.11 151.39 138.12 150.84
  L 138.28 138.06"
/>
<path stroke="#013981" stroke-opacity="0.596" vector-effect="non-scaling-stroke" d="
  M 138.08 134.08
  L 138.08 125.66"
/>
<path stroke="#013981" stroke-opacity="0.596" vector-effect="non-scaling-stroke" d="
  M 138.13 124.77
  L 138.22 122.03"
/>
<path stroke="#013981" stroke-opacity="0.596" vector-effect="non-scaling-stroke" d="
  M 153.19 122.02
  L 179.54 121.83
  Q 180.51 121.82 181.02 120.99
  Q 181.41 120.34 180.18 119.39
  A 1.81 1.79 61.6 0 0 178.94 119.01
  Q 167.14 119.72 162.16 118.49
  Q 152.83 116.20 146.44 109.21
  C 134.72 96.42 135.50 77.22 148.38 65.29"
/>
<path stroke="#013981" stroke-opacity="0.596" vector-effect="non-scaling-stroke" d="
  M 152.91 61.88
  L 156.60 60.00"
/>
<path stroke="#013981" stroke-opacity="0.596" vector-effect="non-scaling-stroke" d="
  M 267.42 166.84
  L 261.05 167.12
  Q 260.47 167.14 260.47 167.72
  L 260.46 197.04
  Q 260.46 197.58 261.00 197.59
  L 267.97 197.77"
/>
<path stroke="#013981" stroke-opacity="0.596" vector-effect="non-scaling-stroke" d="
  M 219.82 191.83
  L 219.75 187.06
  Q 219.73 185.63 221.16 185.63
  L 228.79 185.64
  Q 229.94 185.65 229.93 186.79
  L 229.91 196.96
  Q 229.91 197.76 230.71 197.76
  L 237.98 197.75
  Q 238.71 197.75 238.71 197.02
  L 238.72 167.74
  Q 238.72 167.17 238.15 167.15
  L 230.63 166.84"
/>
<path stroke="#013981" stroke-opacity="0.596" vector-effect="non-scaling-stroke" d="
  M 219.85 175.00
  L 219.86 168.17"
/>
<path stroke="#013981" stroke-opacity="0.596" vector-effect="non-scaling-stroke" d="
  M 269.30 169.14
  L 269.24 176.78
  Q 269.24 177.98 269.95 177.01
  L 276.83 167.76"
/>
<path stroke="#013981" stroke-opacity="0.596" vector-effect="non-scaling-stroke" d="
  M 286.37 193.37
  L 289.19 196.76
  Q 289.80 197.48 290.14 196.60
  L 301.57 166.99"
/>
<path stroke="#013981" stroke-opacity="0.596" vector-effect="non-scaling-stroke" d="
  M 320.11 191.24
  L 322.26 197.22
  Q 322.45 197.76 321.88 197.79
  L 320.60 197.87"
/>
<path stroke="#013981" stroke-opacity="0.596" vector-effect="non-scaling-stroke" d="
  M 319.58 197.81
  L 313.50 197.77
  A 0.76 0.75 80.1 0 1 312.79 197.27
  L 306.59 180.00
  Q 306.15 178.78 305.70 179.99
  L 302.79 187.91"
/>
<path stroke="#013981" stroke-opacity="0.596" vector-effect="non-scaling-stroke" d="
  M 298.68 197.79
  L 278.76 197.74
  Q 278.22 197.74 277.90 197.31
  L 270.03 187.16
  Q 269.27 186.19 269.27 187.42
  L 269.24 197.76"
/>
<path stroke="#013981" stroke-opacity="0.596" vector-effect="non-scaling-stroke" d="
  M 221.82 178.10
  L 229.21 178.20
  A 0.75 0.75 0.0 0 0 229.97 177.45
  L 229.99 167.25"
/>
<path stroke="#013981" stroke-opacity="0.596" vector-effect="non-scaling-stroke" d="
  M 219.86 197.84
  L 211.45 197.99
  Q 210.96 198.00 210.96 197.51
  L 211.04 167.25"
/>
<path stroke="#013981" stroke-opacity="0.596" vector-effect="non-scaling-stroke" d="
  M 347.79 197.83
  L 341.41 197.66
  Q 340.93 197.65 340.66 197.25
  L 335.33 189.19
  Q 334.60 188.08 334.59 189.41
  L 334.58 197.76"
/>
<path stroke="#013981" stroke-opacity="0.596" vector-effect="non-scaling-stroke" d="
  M 334.58 197.76
  L 326.39 197.82
  A 0.57 0.56 0.0 0 1 325.82 197.26
  L 325.80 167.10"
/>
<path stroke="#013981" stroke-opacity="0.596" vector-effect="non-scaling-stroke" d="
  M 365.45 189.52
  C 368.14 191.12 372.20 190.60 372.95 187.16
  Q 373.02 186.82 373.04 183.34
  Q 373.08 175.32 373.09 167.12"
/>
<path stroke="#013981" stroke-opacity="0.596" vector-effect="non-scaling-stroke" d="
  M 377.82 196.31
  Q 371.54 200.01 364.27 198.44
  Q 358.87 197.28 356.49 193.14
  Q 354.99 190.53 354.97 184.60
  Q 354.95 176.39 355.06 167.50"
/>
<path stroke="#013981" stroke-opacity="0.596" vector-effect="non-scaling-stroke" d="
  M 400.54 119.27
  Q 399.89 120.76 401.51 120.72
  L 408.73 120.54
  A 0.48 0.48 0.0 0 0 409.16 119.87
  Q 406.91 114.73 405.47 109.20
  Q 404.78 106.52 404.07 109.19
  Q 402.72 114.27 400.54 119.27"
/>
<path stroke="#013981" stroke-opacity="0.596" vector-effect="non-scaling-stroke" d="
  M 253.77 167.59
  A 0.54 0.54 0.0 0 0 253.23 167.05
  L 245.57 167.05
  A 0.54 0.54 0.0 0 0 245.03 167.59
  L 245.03 197.21
  A 0.54 0.54 0.0 0 0 245.57 197.75
  L 253.23 197.75
  A 0.54 0.54 0.0 0 0 253.77 197.21
  L 253.77 167.59"
/>
<path stroke="#013981" stroke-opacity="0.596" vector-effect="non-scaling-stroke" d="
  M 334.62 174.76
  L 334.58 179.28
  A 0.67 0.67 0.0 0 0 335.25 179.96
  L 336.77 179.97
  A 2.79 2.77 0.4 0 0 339.58 177.22
  L 339.58 176.90
  A 2.79 2.77 0.4 0 0 336.81 174.11
  L 335.29 174.10
  A 0.67 0.67 0.0 0 0 334.62 174.76"
/>
</g>
<path fill="#01050b" fill-opacity="0.188" d="
  M 420.21 62.51
  C 411.47 53.81 396.43 53.81 388.74 63.25
  Q 386.16 66.43 383.28 75.09
  Q 374.41 101.82 364.92 128.41
  Q 364.58 126.18 365.16 124.23
  Q 365.30 123.76 365.19 123.27
  Q 364.78 121.47 365.15 120.76
  C 366.67 117.89 366.37 113.29 366.60 110.03
  Q 366.83 106.78 368.07 103.72
  Q 369.83 99.39 371.17 95.61
  Q 371.44 94.84 371.74 94.08
  Q 372.97 90.99 373.65 87.76
  Q 373.75 87.27 374.06 86.88
  Q 374.44 86.38 374.42 85.73
  Q 374.40 85.30 374.53 84.89
  L 376.10 79.75
  A 0.26 0.25 6.4 0 1 376.33 79.57
  Q 376.56 79.56 376.63 79.36
  Q 377.35 77.18 378.05 74.65
  Q 378.68 72.34 379.83 69.97
  Q 381.21 67.12 382.85 64.75
  Q 384.89 61.78 387.21 60.47
  Q 389.42 59.22 391.32 57.77
  Q 391.59 57.56 391.91 57.66
  L 392.18 57.75
  Q 392.27 57.78 392.32 57.70
  C 393.14 56.51 394.37 56.99 395.56 56.71
  Q 396.71 56.43 397.85 56.12
  Q 399.05 55.79 400.20 55.81
  Q 405.49 55.92 410.83 55.84
  Q 411.41 55.83 411.75 56.30
  Q 412.34 57.12 413.30 56.85
  A 0.73 0.73 0.0 0 1 414.16 57.23
  Q 414.35 57.64 414.82 57.61
  A 2.92 2.33 73.0 0 1 417.32 59.32
  Q 417.66 60.03 418.43 59.90
  Q 418.96 59.80 419.31 60.21
  Q 420.21 61.27 420.21 62.51
  Z
  M 389.49 59.50
  Q 382.95 63.49 381.74 68.47
  A 0.74 0.73 88.7 0 1 381.24 69.00
  Q 380.80 69.13 380.75 69.54
  C 380.48 71.89 379.09 73.70 378.35 75.86
  Q 374.18 88.14 370.32 100.52
  Q 370.22 100.84 370.25 101.18
  Q 370.30 101.71 370.11 102.22
  Q 368.18 107.38 366.88 112.27
  Q 366.64 113.20 366.54 114.16
  Q 366.53 114.22 366.47 114.25
  Q 366.47 114.25 366.68 114.42
  Q 366.78 114.51 366.80 114.38
  Q 367.14 111.36 368.18 108.83
  Q 369.24 106.23 370.09 103.59
  Q 370.83 101.27 371.61 99.15
  Q 372.37 97.07 372.90 94.61
  Q 373.64 91.21 375.61 87.50
  Q 376.10 86.57 376.29 85.45
  Q 376.48 84.38 376.90 83.39
  Q 377.75 81.38 377.96 80.44
  Q 379.29 74.49 381.72 68.91
  C 382.17 67.87 383.66 65.72 384.58 65.08
  C 385.60 64.37 385.65 63.22 386.84 62.39
  Q 388.53 61.21 390.35 60.61
  A 0.89 0.89 0.0 0 0 390.95 59.97
  Q 391.05 59.56 391.46 59.43
  Q 392.79 59.01 393.90 58.28
  Q 394.50 57.88 393.78 57.89
  Q 392.44 57.91 391.56 58.91
  Q 391.44 59.04 391.26 59.04
  Q 390.33 58.99 389.49 59.50
  Z"
/>
<path fill="#014397" d="
  M 420.21 62.51
  Q 423.03 65.53 424.16 68.85
  Q 430.51 87.45 451.79 151.10
  L 399.62 151.13
  A 0.46 0.46 0.0 0 1 399.16 150.67
  L 399.18 140.63
  Q 398.93 139.55 399.25 138.65
  Q 399.42 138.17 399.94 138.16
  L 432.74 138.06
  A 0.70 0.70 0.0 0 0 433.38 137.07
  Q 431.24 132.21 429.54 127.20
  Q 420.43 100.24 411.05 72.52
  C 409.49 67.91 403.16 66.67 399.98 69.98
  Q 398.36 71.65 397.37 74.71
  Q 385.38 111.52 372.40 147.97
  L 371.21 150.69
  Q 370.97 151.23 370.39 151.23
  Q 347.68 151.06 321.06 151.22
  Q 314.18 151.27 309.99 150.01
  C 300.77 147.25 294.19 139.42 291.48 130.20
  Q 290.88 127.29 290.86 125.88
  Q 290.64 109.30 290.70 90.39
  Q 290.73 80.40 292.12 76.16
  C 294.86 67.82 301.45 61.17 309.82 58.64
  Q 314.07 57.35 320.14 57.40
  Q 340.28 57.56 359.77 57.47
  A 0.75 0.74 -0.4 0 1 360.53 58.21
  L 360.57 70.19
  A 0.47 0.46 88.0 0 1 360.14 70.66
  Q 356.05 70.97 352.03 71.00
  Q 337.18 71.10 322.02 70.95
  Q 314.97 70.89 311.82 72.45
  C 306.41 75.13 304.87 80.16 304.97 86.06
  Q 305.27 104.64 305.03 123.36
  C 304.90 133.16 310.73 137.97 319.78 137.86
  Q 335.20 137.68 346.64 137.87
  A 0.63 0.63 0.0 0 0 347.28 137.31
  C 347.35 136.61 347.02 135.98 347.01 135.28
  Q 346.90 117.69 347.06 103.46
  A 0.15 0.15 0.0 0 0 346.91 103.31
  L 324.09 103.23
  Q 323.19 103.23 323.20 102.33
  L 323.26 89.75
  Q 323.27 89.39 323.63 89.39
  Q 338.74 89.38 354.00 89.44
  Q 357.16 89.45 360.07 89.73
  A 0.56 0.56 0.0 0 1 360.58 90.30
  Q 360.37 113.21 360.81 134.25
  Q 360.84 135.63 360.22 139.33
  C 360.16 139.67 360.29 140.13 360.41 140.45
  Q 360.91 141.78 361.32 140.42
  L 364.92 128.41
  Q 374.41 101.82 383.28 75.09
  Q 386.16 66.43 388.74 63.25
  C 396.43 53.81 411.47 53.81 420.21 62.51
  Z"
/>
<path fill="#014397" d="
  M 229.93 127.95
  Q 231.60 134.32 236.77 136.77
  Q 239.90 138.26 245.32 138.22
  Q 265.06 138.08 285.97 138.23
  Q 286.50 138.23 286.50 138.76
  L 286.51 150.52
  Q 286.51 151.22 285.81 151.21
  Q 265.67 151.05 246.94 151.22
  Q 239.11 151.29 234.96 150.07
  C 226.67 147.62 219.79 140.71 217.44 132.48
  Q 216.39 128.82 216.36 123.21
  Q 216.27 104.24 216.20 88.74
  Q 216.16 80.04 217.48 75.49
  Q 219.97 66.92 228.90 61.26
  Q 235.13 57.50 240.50 57.49
  Q 265.19 57.41 285.82 57.52
  Q 286.75 57.52 286.75 58.45
  L 286.78 70.02
  A 0.68 0.68 0.0 0 1 286.15 70.70
  Q 282.22 70.97 278.20 71.00
  Q 263.19 71.11 246.74 70.93
  C 239.69 70.85 233.87 71.82 230.93 78.20
  Q 229.92 80.39 229.88 85.58
  Q 229.72 106.79 229.93 127.95
  Z"
/>
<path fill="#014397" d="
  M 138.08 134.08
  L 138.08 125.66
  Q 138.22 125.34 138.13 124.77
  L 138.22 122.03
  L 153.19 122.02
  L 179.54 121.83
  Q 180.51 121.82 181.02 120.99
  Q 181.41 120.34 180.18 119.39
  A 1.81 1.79 61.6 0 0 178.94 119.01
  Q 167.14 119.72 162.16 118.49
  Q 152.83 116.20 146.44 109.21
  C 134.72 96.42 135.50 77.22 148.38 65.29
  L 152.91 61.88
  L 156.60 60.00
  Q 162.67 57.52 165.75 57.51
  Q 187.79 57.41 209.69 57.52
  A 0.56 0.55 0.0 0 1 210.25 58.07
  L 210.32 70.03
  A 0.69 0.69 0.0 0 1 209.65 70.72
  C 198.38 71.16 186.71 71.14 174.42 70.94
  Q 166.63 70.82 162.84 72.13
  C 155.59 74.64 150.83 82.20 151.70 89.86
  C 152.80 99.52 160.00 105.38 169.46 105.44
  Q 174.04 105.47 178.27 105.43
  C 185.63 105.36 191.68 109.11 193.99 116.28
  Q 195.56 121.14 193.43 125.99
  Q 190.01 133.78 182.17 135.03
  Q 180.21 135.34 168.96 135.14
  Q 153.79 134.87 138.82 135.14
  Q 138.45 135.14 138.22 134.85
  Q 138.01 134.58 138.08 134.08
  Z"
/>
<path fill="#01050b" fill-opacity="0.188" d="
  M 156.60 60.00
  L 152.91 61.88
  Q 153.48 59.99 156.60 60.00
  Z"
/>
<path fill="#01050b" fill-opacity="0.188" d="
  M 228.90 61.26
  Q 219.97 66.92 217.48 75.49
  Q 216.16 80.04 216.20 88.74
  Q 216.27 104.24 216.36 123.21
  Q 216.39 128.82 217.44 132.48
  C 219.79 140.71 226.67 147.62 234.96 150.07
  Q 239.11 151.29 246.94 151.22
  Q 265.67 151.05 285.81 151.21
  Q 286.51 151.22 286.51 150.52
  L 286.50 138.76
  Q 286.50 138.23 285.97 138.23
  Q 265.06 138.08 245.32 138.22
  Q 239.90 138.26 236.77 136.77
  Q 231.60 134.32 229.93 127.95
  Q 232.08 128.54 232.17 127.11
  C 233.80 131.33 236.70 135.04 241.56 135.05
  Q 263.29 135.09 286.01 134.97
  Q 286.49 134.96 286.67 134.51
  Q 286.85 134.02 286.79 133.44
  Q 287.55 134.01 287.48 135.58
  Q 287.45 136.21 288.08 136.17
  Q 288.98 136.11 289.55 135.20
  Q 289.96 134.55 289.90 133.76
  Q 289.84 132.92 290.65 132.61
  Q 291.18 132.41 291.09 131.85
  Q 290.91 130.68 291.48 130.20
  C 294.19 139.42 300.77 147.25 309.99 150.01
  Q 314.18 151.27 321.06 151.22
  Q 347.68 151.06 370.39 151.23
  Q 370.97 151.23 371.21 150.69
  L 372.40 147.97
  Q 372.70 148.59 373.48 148.61
  Q 374.12 148.62 374.12 149.27
  L 374.12 150.88
  Q 374.12 151.50 374.72 151.68
  Q 380.40 153.35 385.36 151.40
  L 389.44 151.14
  A 0.77 0.76 -81.8 0 0 390.11 150.63
  L 394.47 137.82
  Q 396.98 137.93 396.26 141.08
  Q 395.63 143.87 395.62 143.92
  Q 395.16 147.63 396.29 150.49
  Q 397.15 152.66 399.43 153.42
  Q 400.82 153.89 402.22 153.88
  Q 419.74 153.86 438.21 153.90
  C 440.36 153.90 442.37 153.59 444.49 153.33
  Q 445.77 153.18 446.87 152.53
  Q 449.11 151.21 451.60 151.76
  Q 452.17 151.88 452.05 151.31
  Q 451.94 150.81 452.03 150.39
  A 0.04 0.04 0.0 0 1 452.10 150.39
  Q 452.26 151.01 452.12 151.69
  A 0.73 0.72 -81.2 0 1 451.34 152.27
  Q 450.07 152.14 449.41 153.06
  A 1.79 1.77 -74.9 0 1 448.14 153.80
  Q 446.96 153.93 445.83 154.45
  Q 444.81 154.92 443.63 154.99
  Q 441.99 155.09 440.38 155.38
  Q 438.73 155.69 437.14 155.67
  Q 418.78 155.53 398.03 155.01
  Q 396.81 154.98 396.10 153.99
  L 392.71 149.27
  A 0.61 0.61 0.0 0 0 391.71 149.28
  Q 390.61 150.83 389.38 152.43
  Q 388.04 154.16 386.28 154.77
  Q 384.10 155.53 381.25 155.63
  Q 375.89 155.82 371.23 154.30
  Q 370.76 154.15 370.28 154.26
  Q 364.35 155.62 358.25 155.63
  Q 336.41 155.65 314.56 155.62
  Q 314.08 155.62 313.66 155.37
  Q 313.07 155.00 312.32 155.06
  Q 311.66 155.12 310.98 155.01
  Q 304.89 154.01 301.29 152.10
  Q 298.09 150.39 294.25 147.09
  Q 293.90 146.78 293.79 146.33
  Q 293.63 145.68 293.02 145.31
  Q 292.62 145.05 292.39 144.63
  Q 291.18 142.43 289.49 140.68
  C 289.05 140.23 288.66 139.38 288.29 138.80
  Q 287.08 136.89 286.97 139.15
  Q 286.66 145.26 286.82 151.03
  Q 286.85 151.80 286.08 151.94
  Q 284.87 152.15 284.23 153.19
  Q 283.53 154.33 282.26 154.70
  Q 279.24 155.58 276.42 155.60
  Q 259.66 155.67 243.49 155.62
  Q 241.02 155.61 238.36 155.32
  Q 236.12 155.08 233.63 154.92
  Q 232.17 154.82 228.97 153.56
  Q 226.97 152.78 224.84 151.25
  Q 223.46 150.27 222.02 149.34
  Q 220.58 148.40 219.40 147.20
  Q 216.82 144.56 215.04 141.39
  Q 214.27 139.99 213.45 138.77
  Q 213.23 138.42 213.15 138.02
  C 212.87 136.63 212.12 133.81 211.11 132.79
  Q 210.80 132.48 210.86 132.06
  Q 210.98 131.20 210.24 131.63
  Q 210.15 131.68 210.08 131.60
  Q 209.80 131.23 209.58 131.65
  Q 208.89 132.96 207.43 133.64
  Q 212.93 121.12 207.89 108.57
  L 208.66 108.62
  Q 209.24 108.66 209.20 109.25
  Q 209.17 109.74 209.40 110.20
  Q 209.74 110.87 209.86 110.13
  Q 210.09 108.75 210.16 107.48
  Q 210.17 107.15 209.86 107.00
  A 0.53 0.52 -72.3 0 1 209.57 106.42
  Q 209.92 104.60 209.85 102.94
  Q 209.79 101.63 210.97 101.08
  A 2.02 2.02 0.0 0 0 212.01 99.90
  Q 213.20 96.22 213.78 92.78
  Q 214.21 90.26 213.21 87.79
  A 1.56 1.55 62.7 0 0 210.93 87.06
  Q 209.31 88.09 207.67 89.08
  Q 207.10 89.42 207.16 90.09
  A 0.91 0.90 86.1 0 1 206.30 91.08
  Q 201.55 91.26 196.47 91.55
  Q 195.41 91.61 194.56 92.10
  Q 194.07 92.38 194.51 92.74
  Q 195.12 93.23 195.25 94.03
  L 190.36 91.57
  Q 191.54 90.21 192.55 89.18
  Q 193.40 88.32 191.44 87.26
  L 209.35 86.76
  A 0.92 0.92 0.0 0 0 210.24 85.85
  L 210.28 73.56
  L 211.24 76.19
  Q 211.44 76.72 211.98 76.56
  Q 215.02 75.71 217.08 72.84
  Q 219.25 69.82 220.99 65.91
  Q 221.23 65.37 221.76 65.11
  Q 223.97 64.05 225.21 61.75
  Q 225.48 61.24 226.04 61.09
  Q 227.74 60.61 228.90 61.26
  Z"
/>
<path fill="#01050b" fill-opacity="0.188" d="
  M 148.38 65.29
  C 135.50 77.22 134.72 96.42 146.44 109.21
  Q 152.83 116.20 162.16 118.49
  Q 167.14 119.72 178.94 119.01
  A 1.81 1.79 61.6 0 1 180.18 119.39
  Q 181.41 120.34 181.02 120.99
  Q 180.51 121.82 179.54 121.83
  L 153.19 122.02
  Q 153.77 121.11 153.95 120.94
  A 0.99 0.98 37.8 0 0 153.74 119.36
  Q 149.44 116.99 146.38 114.15
  Q 146.14 113.92 145.81 113.89
  Q 145.66 113.87 145.55 113.76
  Q 142.29 110.53 139.77 106.96
  A 23.33 23.25 16.1 0 1 137.30 102.51
  Q 136.36 100.26 135.62 97.92
  Q 134.78 95.23 134.84 92.52
  C 134.93 89.36 134.48 85.85 135.64 82.90
  Q 136.31 81.22 136.85 79.48
  Q 137.91 76.07 139.78 73.01
  C 140.37 72.03 141.40 71.63 141.74 70.71
  Q 141.92 70.21 142.34 69.88
  Q 143.69 68.83 144.90 67.73
  Q 145.24 67.41 146.12 66.36
  Q 146.93 65.38 148.38 65.29
  Z"
/>
<path fill="#014397" d="
  M 398.96 133.72
  Q 399.45 131.19 398.98 128.55
  Q 399.31 126.90 399.08 125.12
  Q 399.00 124.56 398.82 125.09
  L 394.47 137.82
  L 390.11 150.63
  A 0.77 0.76 -81.8 0 1 389.44 151.14
  L 385.36 151.40
  L 375.04 151.13
  Q 374.42 151.12 374.63 150.54
  C 376.99 144.07 378.66 137.41 380.88 130.84
  Q 390.33 102.85 399.85 74.86
  C 400.90 71.77 403.07 68.88 406.78 70.58
  Q 408.53 71.39 409.17 73.26
  Q 419.81 104.50 429.72 134.41
  A 0.57 0.57 0.0 0 1 429.19 135.16
  L 400.00 135.25
  Q 398.90 135.26 399.15 134.19
  Q 399.27 133.72 398.96 133.72
  Z
  M 400.54 119.27
  Q 399.89 120.76 401.51 120.72
  L 408.73 120.54
  A 0.48 0.48 0.0 0 0 409.16 119.87
  Q 406.91 114.73 405.47 109.20
  Q 404.78 106.52 404.07 109.19
  Q 402.72 114.27 400.54 119.27
  Z"
/>
<path fill="#014397" d="
  M 210.28 73.56
  L 210.24 85.85
  A 0.92 0.92 0.0 0 1 209.35 86.76
  L 191.44 87.26
  L 169.18 87.09
  Q 168.08 87.08 167.53 88.04
  Q 167.27 88.48 167.66 88.88
  Q 168.10 89.33 168.74 89.33
  C 176.24 89.37 183.24 88.69 190.36 91.57
  L 195.25 94.03
  Q 203.90 99.26 207.89 108.57
  Q 212.93 121.12 207.43 133.64
  L 206.06 136.36
  C 198.96 147.17 189.17 151.44 176.55 151.29
  Q 156.13 151.04 138.65 151.38
  Q 138.11 151.39 138.12 150.84
  L 138.28 138.06
  Q 155.37 138.26 171.86 138.04
  Q 182.87 137.89 186.19 136.49
  C 193.88 133.25 198.92 124.45 196.24 116.06
  C 193.27 106.75 186.38 103.24 177.08 103.31
  C 168.99 103.37 160.82 104.14 156.08 95.92
  Q 150.85 86.84 157.54 78.58
  Q 161.48 73.72 168.50 73.35
  Q 178.19 72.84 210.28 73.56
  Z"
/>
<path fill="#014397" d="
  M 246.30 87.97
  L 245.66 88.66
  Q 244.94 89.42 245.99 89.42
  L 276.13 89.38
  Q 277.38 89.38 277.38 90.63
  L 277.36 101.88
  A 0.99 0.98 88.8 0 1 276.43 102.86
  Q 272.82 103.08 269.60 103.12
  Q 251.55 103.35 233.04 103.22
  A 1.04 1.04 0.0 0 1 232.01 102.16
  Q 232.10 95.30 231.94 87.93
  Q 231.81 81.96 233.13 79.26
  C 235.77 73.88 240.02 73.29 245.81 73.27
  Q 265.57 73.21 285.54 73.43
  A 1.46 1.46 0.0 0 1 286.98 74.89
  L 286.96 86.64
  A 0.47 0.46 -0.0 0 1 286.49 87.10
  L 248.15 87.17
  A 2.54 2.53 21.5 0 0 246.30 87.97
  Z"
/>
<path fill="#014397" d="
  M 331.46 120.82
  Q 331.49 120.60 331.47 120.39
  A 1.01 1.00 -2.3 0 0 330.49 119.49
  L 324.13 119.40
  A 0.95 0.95 0.0 0 1 323.19 118.44
  L 323.33 106.06
  Q 323.34 105.47 323.93 105.47
  L 344.74 105.35
  A 0.27 0.27 0.0 0 1 345.01 105.62
  L 344.79 135.03
  Q 344.78 135.60 344.21 135.60
  Q 331.95 135.50 319.78 135.68
  C 312.38 135.78 307.25 131.94 307.24 124.70
  Q 307.24 104.21 307.19 84.67
  C 307.18 80.21 309.48 75.56 313.82 74.13
  Q 316.23 73.34 320.70 73.31
  Q 340.78 73.18 359.56 73.45
  A 1.04 1.04 0.0 0 1 360.58 74.49
  L 360.61 85.56
  Q 360.61 86.98 359.19 86.98
  L 323.41 87.09
  A 2.38 2.37 90.0 0 0 321.04 89.47
  L 321.09 119.28
  A 2.38 2.38 0.0 0 0 323.53 121.65
  L 330.73 121.47
  Q 331.36 121.45 331.46 120.82
  Z"
/>
<path fill="#014397" d="
  M 286.79 133.44
  Q 286.85 134.02 286.67 134.51
  Q 286.49 134.96 286.01 134.97
  Q 263.29 135.09 241.56 135.05
  C 236.70 135.04 233.80 131.33 232.17 127.11
  L 232.26 105.99
  Q 232.26 105.50 232.75 105.50
  Q 258.35 105.43 272.00 105.63
  Q 274.28 105.67 276.73 105.92
  A 0.60 0.60 0.0 0 1 277.28 106.53
  L 277.24 118.28
  A 0.63 0.63 0.0 0 1 276.62 118.91
  L 246.19 119.32
  Q 245.42 119.33 245.73 120.04
  Q 245.96 120.58 246.46 120.95
  A 3.97 3.28 59.5 0 0 248.53 121.70
  Q 267.31 122.21 286.19 121.87
  Q 286.69 121.86 286.69 122.36
  L 286.79 133.44
  Z"
/>
<path fill="#01050b" fill-opacity="0.188" d="
  M 400.54 119.27
  Q 402.72 114.27 404.07 109.19
  Q 404.78 106.52 405.47 109.20
  Q 406.91 114.73 409.16 119.87
  A 0.48 0.48 0.0 0 1 408.73 120.54
  L 401.51 120.72
  Q 399.89 120.76 400.54 119.27
  Z"
/>
<path fill="#01050b" fill-opacity="0.188" d="
  M 138.22 122.03
  L 138.13 124.77
  Q 137.98 125.83 137.47 126.62
  Q 136.66 127.87 136.53 128.26
  Q 135.90 130.13 136.24 131.62
  Q 136.79 133.97 138.76 135.98
  Q 139.22 136.45 139.09 137.05
  Q 138.97 137.64 138.28 138.06
  L 138.12 150.84
  Q 138.11 151.39 138.65 151.38
  Q 156.13 151.04 176.55 151.29
  C 189.17 151.44 198.96 147.17 206.06 136.36
  Q 204.15 141.20 199.86 144.88
  Q 199.31 145.34 198.71 145.43
  Q 198.23 145.49 197.94 145.88
  Q 197.08 147.01 195.84 147.34
  Q 195.30 147.48 194.99 147.94
  Q 194.27 149.02 193.11 149.42
  C 191.96 149.82 191.24 150.74 189.95 151.23
  Q 185.05 153.06 181.02 153.89
  Q 178.80 154.35 176.47 154.36
  Q 167.50 154.40 158.55 154.37
  Q 153.64 154.36 148.45 153.81
  Q 143.54 153.29 138.13 152.83
  Q 137.66 152.80 137.37 152.43
  Q 134.56 148.97 134.57 145.10
  C 134.57 142.99 135.20 140.85 135.55 138.75
  C 135.99 136.09 133.92 134.55 133.80 132.01
  Q 133.49 125.44 138.22 122.03
  Z"
/>
<path fill="#01050b" fill-opacity="0.188" d="
  M 138.08 125.66
  L 138.08 134.08
  Q 137.05 129.73 138.08 125.66
  Z"
/>
<path fill="#01050b" fill-opacity="0.188" d="
  M 398.98 128.55
  Q 399.45 131.19 398.96 133.72
  Q 398.12 131.07 398.98 128.55
  Z"
/>
<path fill="#01050b" fill-opacity="0.188" d="
  M 399.18 140.63
  L 399.16 150.67
  A 0.46 0.46 0.0 0 0 399.62 151.13
  L 451.79 151.10
  Q 448.73 151.44 446.23 151.96
  Q 443.02 152.62 440.70 152.62
  Q 421.99 152.64 402.25 152.60
  Q 399.84 152.60 398.72 151.19
  Q 397.86 150.10 397.32 148.85
  Q 396.29 146.49 397.37 144.07
  Q 398.13 142.37 399.18 140.63
  Z"
/>
<path fill="#01050b" fill-opacity="0.188" d="
  M 267.42 166.84
  L 261.05 167.12
  Q 260.47 167.14 260.47 167.72
  L 260.46 197.04
  Q 260.46 197.58 261.00 197.59
  L 267.97 197.77
  Q 266.82 198.70 265.93 199.61
  Q 264.74 200.83 263.73 201.10
  Q 261.95 201.58 260.22 200.62
  Q 258.43 199.64 256.63 198.39
  A 2.18 2.15 -86.6 0 1 255.93 197.59
  Q 255.55 196.87 254.85 196.38
  Q 254.36 196.05 254.41 196.64
  Q 254.46 197.21 254.21 197.72
  Q 253.97 198.24 253.39 198.21
  Q 251.87 198.11 250.96 199.27
  A 1.64 1.62 -73.3 0 1 249.81 199.90
  Q 245.83 200.23 241.60 198.27
  Q 240.55 197.78 239.77 196.81
  Q 239.54 196.52 239.48 196.89
  Q 239.41 197.37 239.11 197.77
  A 0.98 0.98 0.0 0 1 238.29 198.16
  C 236.14 198.09 235.73 200.52 233.24 199.99
  Q 231.00 199.51 228.74 199.19
  Q 228.19 199.11 227.80 198.72
  Q 227.02 197.96 225.93 197.71
  Q 225.41 197.59 225.20 197.10
  C 224.69 195.90 225.02 194.78 224.65 193.55
  Q 224.26 192.27 223.59 191.24
  A 1.71 1.57 45.8 0 0 220.83 191.09
  Q 220.61 191.43 219.82 191.83
  L 219.75 187.06
  Q 219.73 185.63 221.16 185.63
  L 228.79 185.64
  Q 229.94 185.65 229.93 186.79
  L 229.91 196.96
  Q 229.91 197.76 230.71 197.76
  L 237.98 197.75
  Q 238.71 197.75 238.71 197.02
  L 238.72 167.74
  Q 238.72 167.17 238.15 167.15
  L 230.63 166.84
  Q 227.55 166.83 225.17 170.11
  Q 224.85 170.54 224.82 171.08
  Q 224.69 173.65 223.53 175.72
  A 1.64 1.50 -49.4 0 1 220.90 176.04
  Q 220.65 175.69 219.85 175.00
  L 219.86 168.17
  Q 220.90 168.85 221.44 169.87
  A 0.54 0.54 0.0 0 0 222.40 169.85
  C 222.83 168.97 223.54 168.40 223.87 167.46
  Q 224.41 165.96 225.98 165.49
  Q 226.92 165.21 227.76 164.67
  A 0.78 0.77 -60.4 0 1 228.22 164.54
  L 235.15 164.85
  Q 235.66 164.87 236.02 165.23
  Q 237.45 166.67 239.78 166.01
  Q 243.26 165.02 246.41 164.66
  Q 248.97 164.37 250.85 165.70
  Q 251.71 166.31 253.08 166.47
  Q 253.91 166.56 255.24 165.90
  Q 261.70 162.66 267.42 166.84
  Z
  M 253.77 167.59
  A 0.54 0.54 0.0 0 0 253.23 167.05
  L 245.57 167.05
  A 0.54 0.54 0.0 0 0 245.03 167.59
  L 245.03 197.21
  A 0.54 0.54 0.0 0 0 245.57 197.75
  L 253.23 197.75
  A 0.54 0.54 0.0 0 0 253.77 197.21
  L 253.77 167.59
  Z"
/>
<path fill="#014397" d="
  M 219.86 168.17
  L 219.85 175.00
  Q 219.65 176.47 219.93 177.68
  Q 220.04 178.19 220.55 178.23
  Q 221.32 178.29 221.82 178.10
  L 229.21 178.20
  A 0.75 0.75 0.0 0 0 229.97 177.45
  L 229.99 167.25
  L 230.63 166.84
  L 238.15 167.15
  Q 238.72 167.17 238.72 167.74
  L 238.71 197.02
  Q 238.71 197.75 237.98 197.75
  L 230.71 197.76
  Q 229.91 197.76 229.91 196.96
  L 229.93 186.79
  Q 229.94 185.65 228.79 185.64
  L 221.16 185.63
  Q 219.73 185.63 219.75 187.06
  L 219.82 191.83
  L 219.86 197.84
  L 211.45 197.99
  Q 210.96 198.00 210.96 197.51
  L 211.04 167.25
  L 219.25 167.07
  Q 219.82 167.05 219.84 167.62
  L 219.86 168.17
  Z"
/>
<rect fill="#014397" x="245.03" y="167.05" width="8.74" height="30.70" rx="0.54"/>
<path fill="#014397" d="
  M 267.42 166.84
  Q 267.72 167.05 268.66 167.12
  Q 269.19 167.16 269.22 167.68
  L 269.30 169.14
  L 269.24 176.78
  Q 269.24 177.98 269.95 177.01
  L 276.83 167.76
  Q 281.75 166.56 288.11 167.00
  Q 288.85 167.05 288.37 167.62
  L 276.99 181.22
  Q 276.63 181.65 276.99 182.08
  L 286.37 193.37
  L 289.19 196.76
  Q 289.80 197.48 290.14 196.60
  L 301.57 166.99
  L 310.40 167.08
  Q 310.98 167.09 311.19 167.63
  L 320.11 191.24
  L 322.26 197.22
  Q 322.45 197.76 321.88 197.79
  L 320.60 197.87
  Q 320.18 197.72 319.58 197.81
  L 313.50 197.77
  A 0.76 0.75 80.1 0 1 312.79 197.27
  L 306.59 180.00
  Q 306.15 178.78 305.70 179.99
  L 302.79 187.91
  Q 300.95 194.73 298.68 197.79
  L 278.76 197.74
  Q 278.22 197.74 277.90 197.31
  L 270.03 187.16
  Q 269.27 186.19 269.27 187.42
  L 269.24 197.76
  L 267.97 197.77
  L 261.00 197.59
  Q 260.46 197.58 260.46 197.04
  L 260.47 167.72
  Q 260.47 167.14 261.05 167.12
  L 267.42 166.84
  Z"
/>
<path fill="#01050b" fill-opacity="0.188" d="
  M 301.57 166.99
  L 290.14 196.60
  Q 289.80 197.48 289.19 196.76
  L 286.37 193.37
  Q 290.47 189.12 291.53 182.78
  Q 291.64 182.13 292.33 181.04
  Q 292.84 180.23 293.05 179.30
  Q 293.53 177.19 294.48 175.54
  Q 295.35 174.03 295.99 172.50
  Q 296.98 170.16 298.90 168.99
  Q 300.31 168.12 301.38 166.91
  Q 301.45 166.84 301.51 166.91
  Q 301.54 166.95 301.57 166.99
  Z"
/>
<path fill="#014397" d="
  M 347.79 197.83
  L 341.41 197.66
  Q 340.93 197.65 340.66 197.25
  L 335.33 189.19
  Q 334.60 188.08 334.59 189.41
  L 334.58 197.76
  L 326.39 197.82
  A 0.57 0.56 0.0 0 1 325.82 197.26
  L 325.80 167.10
  Q 332.62 166.93 339.48 167.14
  Q 344.94 167.30 347.54 171.14
  C 350.77 175.91 349.03 182.93 343.55 185.29
  Q 342.92 185.56 343.34 186.11
  L 352.22 197.49
  A 0.24 0.24 0.0 0 1 352.03 197.88
  L 347.79 197.83
  Z
  M 334.62 174.76
  L 334.58 179.28
  A 0.67 0.67 0.0 0 0 335.25 179.96
  L 336.77 179.97
  A 2.79 2.77 0.4 0 0 339.58 177.22
  L 339.58 176.90
  A 2.79 2.77 0.4 0 0 336.81 174.11
  L 335.29 174.10
  A 0.67 0.67 0.0 0 0 334.62 174.76
  Z"
/>
<path fill="#014397" d="
  M 365.45 189.52
  C 368.14 191.12 372.20 190.60 372.95 187.16
  Q 373.02 186.82 373.04 183.34
  Q 373.08 175.32 373.09 167.12
  L 381.29 167.19
  Q 381.88 167.20 381.87 167.79
  Q 381.75 177.28 381.84 187.69
  Q 381.86 190.16 380.81 192.25
  Q 379.70 194.48 377.82 196.31
  Q 371.54 200.01 364.27 198.44
  Q 358.87 197.28 356.49 193.14
  Q 354.99 190.53 354.97 184.60
  Q 354.95 176.39 355.06 167.50
  Q 358.64 166.62 363.27 167.14
  Q 363.77 167.20 363.77 167.70
  Q 363.71 177.40 363.88 186.99
  Q 363.91 188.76 365.45 189.52
  Z"
/>
<path fill="#01050b" fill-opacity="0.188" d="
  M 229.99 167.25
  L 229.97 177.45
  A 0.75 0.75 0.0 0 1 229.21 178.20
  L 221.82 178.10
  Q 224.02 177.61 224.63 175.73
  Q 225.80 172.13 226.63 170.39
  Q 227.30 168.98 228.75 168.25
  Q 229.15 168.04 229.24 167.60
  Q 229.29 167.36 229.48 167.22
  Q 229.76 167.00 229.99 167.25
  Z"
/>
<path fill="#01050b" fill-opacity="0.188" d="
  M 325.80 167.10
  L 325.82 197.26
  A 0.57 0.56 -0.0 0 0 326.39 197.82
  L 334.58 197.76
  Q 334.79 197.67 335.02 197.88
  L 331.52 198.45
  A 1.44 1.40 16.0 0 0 330.70 198.89
  Q 329.26 200.43 327.23 200.14
  Q 324.49 199.76 320.60 197.87
  L 321.88 197.79
  Q 322.45 197.76 322.26 197.22
  L 320.11 191.24
  L 320.94 191.11
  Q 321.44 191.03 321.46 190.52
  Q 321.76 182.44 321.59 174.58
  Q 321.57 173.47 322.02 172.46
  Q 322.43 171.53 322.53 170.49
  A 1.02 1.00 -19.7 0 1 322.85 169.83
  L 324.20 168.53
  Q 324.54 168.20 324.77 167.79
  Q 325.21 166.99 325.80 167.10
  Z"
/>
<path fill="#01050b" fill-opacity="0.188" d="
  M 373.09 167.12
  Q 373.08 175.32 373.04 183.34
  Q 373.02 186.82 372.95 187.16
  C 372.20 190.60 368.14 191.12 365.45 189.52
  Q 368.67 188.09 368.66 186.00
  Q 368.61 178.09 368.81 172.00
  Q 368.83 171.51 369.14 171.12
  L 371.30 168.46
  A 1.49 1.43 -86.1 0 1 371.65 168.14
  L 373.09 167.12
  Z"
/>
<path fill="#01050b" fill-opacity="0.188" d="
  M 211.04 167.25
  L 210.96 197.51
  Q 210.96 198.00 211.45 197.99
  L 219.86 197.84
  Q 215.67 199.96 210.44 199.08
  A 0.73 0.71 82.3 0 1 209.89 198.65
  L 209.35 197.42
  Q 209.15 196.95 208.65 196.87
  C 207.60 196.71 206.61 195.76 206.61 194.63
  Q 206.67 184.75 206.60 174.82
  Q 206.59 173.40 207.16 172.14
  Q 207.80 170.73 208.38 169.38
  Q 208.54 169.01 208.95 168.91
  Q 209.29 168.83 209.44 168.50
  Q 209.73 167.82 211.04 167.25
  Z"
/>
<path fill="#01050b" fill-opacity="0.188" d="
  M 355.06 167.50
  Q 354.95 176.39 354.97 184.60
  Q 354.99 190.53 356.49 193.14
  Q 358.87 197.28 364.27 198.44
  Q 371.54 200.01 377.82 196.31
  Q 373.02 200.78 368.25 201.63
  Q 365.86 202.06 361.70 201.16
  Q 358.07 200.39 355.70 198.41
  Q 351.31 194.74 351.21 188.24
  Q 351.11 182.38 351.07 176.50
  Q 351.03 171.76 355.06 167.50
  Z"
/>
<path fill="#01050b" fill-opacity="0.188" d="
  M 276.83 167.76
  L 269.95 177.01
  Q 269.24 177.98 269.24 176.78
  L 269.30 169.14
  Q 269.89 169.84 270.01 170.40
  Q 270.20 171.35 270.94 170.72
  Q 273.05 168.90 276.83 167.76
  Z"
/>
<path fill="#01050b" fill-opacity="0.188" d="
  M 334.62 174.76
  A 0.67 0.67 0.0 0 1 335.29 174.10
  L 336.81 174.11
  A 2.79 2.77 0.4 0 1 339.58 176.90
  L 339.58 177.22
  A 2.79 2.77 0.4 0 1 336.77 179.97
  L 335.25 179.96
  A 0.67 0.67 0.0 0 1 334.58 179.28
  L 334.62 174.76
  Z"
/>
<path fill="#01050b" fill-opacity="0.188" d="
  M 319.58 197.81
  Q 319.07 198.65 318.01 198.82
  Q 317.72 198.87 317.50 199.05
  Q 317.34 199.18 317.29 199.37
  Q 317.27 199.47 317.18 199.50
  Q 314.85 200.36 312.49 200.00
  Q 310.10 199.63 308.89 197.62
  Q 307.33 195.03 306.14 191.49
  Q 305.23 188.79 302.79 187.91
  L 305.70 179.99
  Q 306.15 178.78 306.59 180.00
  L 312.79 197.27
  A 0.76 0.75 80.1 0 0 313.50 197.77
  L 319.58 197.81
  Z"
/>
<path fill="#01050b" fill-opacity="0.188" d="
  M 298.68 197.79
  Q 293.72 202.38 288.74 200.60
  C 287.56 200.18 285.91 200.30 284.69 200.53
  Q 281.20 201.20 277.89 201.08
  Q 276.06 201.02 274.45 199.84
  Q 272.83 198.66 271.29 197.64
  Q 270.88 197.37 270.44 197.56
  Q 269.74 197.86 269.24 197.76
  L 269.27 187.42
  Q 269.27 186.19 270.03 187.16
  L 277.90 197.31
  Q 278.22 197.74 278.76 197.74
  L 298.68 197.79
  Z"
/>
<path fill="#01050b" fill-opacity="0.188" d="
  M 347.79 197.83
  Q 346.64 198.83 345.47 199.62
  Q 344.16 200.50 342.78 200.54
  Q 339.49 200.66 336.78 198.46
  Q 335.58 197.48 335.02 197.88
  Q 334.79 197.67 334.58 197.76
  L 334.59 189.41
  Q 334.60 188.08 335.33 189.19
  L 340.66 197.25
  Q 340.93 197.65 341.41 197.66
  L 347.79 197.83
  Z"
/>
</svg>
