<?xml version="1.0" encoding="UTF-8" standalone="no"?>
<!DOCTYPE svg PUBLIC "-//W3C//DTD SVG 1.1//EN" "http://www.w3.org/Graphics/SVG/1.1/DTD/svg11.dtd">
<svg xmlns="http://www.w3.org/2000/svg" version="1.1" viewBox="0.00 0.00 590.00 255.00">
<path fill="#fb0000" d="
  M 108.50 106.50
  L 108.50 145.75
  Q 108.50 146.25 108.00 146.25
  L 91.25 146.25
  Q 90.75 146.25 90.75 145.75
  L 90.75 88.55
  Q 90.75 88.00 91.29 88.00
  Q 118.53 87.98 143.47 88.03
  Q 151.64 88.04 156.64 93.52
  Q 159.01 96.13 160.79 100.25
  Q 162.03 103.14 162.02 106.11
  Q 161.98 127.56 162.01 145.96
  Q 162.01 146.25 161.71 146.25
  L 144.75 146.25
  Q 144.25 146.25 144.25 145.75
  L 144.25 106.25
  Q 144.25 105.75 143.75 105.75
  L 109.25 105.75
  Q 108.50 105.75 108.50 106.50
  Z"
/>
<path fill="#fb0000" d="
  M 221.23 110.49
  Q 221.50 110.49 221.50 110.22
  L 221.50 102.00
  A 0.25 0.25 0.0 0 0 221.25 101.75
  L 168.00 101.75
  Q 167.75 101.75 167.75 101.50
  L 167.75 88.53
  Q 167.75 87.97 168.32 87.97
  Q 191.93 88.08 218.82 87.93
  Q 223.30 87.91 226.37 88.93
  C 229.63 90.02 234.06 92.54 235.77 95.79
  C 237.13 98.39 238.84 100.23 239.06 103.36
  Q 239.22 105.75 239.23 108.20
  Q 239.28 126.10 239.23 145.70
  Q 239.23 146.25 238.69 146.25
  Q 212.95 146.26 186.73 146.24
  Q 178.84 146.24 172.90 140.85
  Q 171.36 139.47 168.96 134.37
  Q 166.92 130.04 168.12 124.98
  C 169.20 120.44 171.13 116.74 175.07 114.32
  Q 177.14 113.05 179.54 111.75
  Q 181.62 110.62 186.25 110.60
  Q 203.73 110.52 221.23 110.49
  Z
  M 221.50 124.01
  A 0.27 0.27 0.0 0 0 221.23 123.74
  L 185.77 123.74
  A 0.27 0.27 0.0 0 0 185.50 124.01
  L 185.50 132.23
  A 0.27 0.27 0.0 0 0 185.77 132.50
  L 221.23 132.50
  A 0.27 0.27 0.0 0 0 221.50 132.23
  L 221.50 124.01
  Z"
/>
<path fill="#fb0000" d="
  M 262.25 106.50
  L 262.25 145.75
  Q 262.25 146.25 261.75 146.25
  L 244.75 146.25
  Q 244.50 146.25 244.50 146.00
  L 244.50 88.28
  Q 244.50 88.00 244.78 88.00
  Q 284.22 88.03 322.70 87.97
  C 328.76 87.96 334.56 89.74 337.98 94.75
  C 339.59 97.11 341.75 100.20 342.10 103.13
  C 342.33 104.96 342.74 106.64 342.74 108.48
  Q 342.76 127.28 342.74 145.72
  Q 342.74 146.25 342.21 146.25
  L 325.25 146.25
  Q 324.75 146.25 324.75 145.75
  L 324.75 106.50
  Q 324.75 106.00 324.25 106.00
  L 303.25 106.00
  Q 302.50 106.00 302.50 106.75
  L 302.50 145.75
  Q 302.50 146.25 302.00 146.25
  L 285.00 146.25
  Q 284.50 146.25 284.50 145.75
  L 284.50 106.50
  Q 284.50 106.00 284.00 106.00
  L 262.75 106.00
  Q 262.25 106.00 262.25 106.50
  Z"
/>
<path fill="#fb0000" d="
  M 366.00 106.37
  L 366.00 127.50
  Q 366.00 128.00 366.50 128.00
  L 419.50 128.00
  Q 419.75 128.00 419.75 128.25
  L 419.75 145.71
  Q 419.75 146.26 419.19 146.26
  Q 392.48 146.22 366.38 146.27
  Q 360.76 146.28 355.48 142.37
  C 352.90 140.47 351.17 137.08 349.42 134.25
  C 348.57 132.88 348.25 128.80 348.25 126.79
  Q 348.27 116.67 348.23 106.87
  Q 348.21 100.69 351.77 95.55
  C 353.34 93.29 355.76 92.23 357.92 90.68
  C 360.13 89.10 362.18 88.93 364.69 88.36
  Q 366.27 88.00 367.84 88.00
  Q 394.01 88.00 419.20 88.00
  Q 419.75 88.00 419.75 88.54
  L 419.75 105.25
  Q 419.75 105.75 419.25 105.75
  L 366.63 105.75
  Q 366.00 105.75 366.00 106.37
  Z"
/>
<path fill="#fb0000" d="
  M 496.2491 127.1892
  A 18.76 18.76 0.0 0 1 477.6536 146.1122
  L 444.0348 146.4056
  A 18.76 18.76 0.0 0 1 425.1118 127.8100
  L 424.9309 107.0708
  A 18.76 18.76 0.0 0 1 443.5264 88.1478
  L 477.1452 87.8544
  A 18.76 18.76 0.0 0 1 496.0682 106.4500
  L 496.2491 127.1892
  Z
  M 478.25 106.26
  A 0.26 0.26 0.0 0 0 477.99 106.00
  L 443.01 106.00
  A 0.26 0.26 0.0 0 0 442.75 106.26
  L 442.75 127.74
  A 0.26 0.26 0.0 0 0 443.01 128.00
  L 477.99 128.00
  A 0.26 0.26 0.0 0 0 478.25 127.74
  L 478.25 106.26
  Z"
/>
<path fill="#fb0000" d="
  M 253.33 170.54
  Q 248.77 170.37 244.05 170.56
  C 238.56 170.78 233.94 169.43 234.75 162.69
  C 235.19 158.97 238.89 157.67 242.21 157.70
  Q 251.34 157.80 259.93 157.74
  Q 260.25 157.73 260.25 158.06
  L 260.24 162.25
  Q 260.24 162.50 260.00 162.50
  L 241.38 162.50
  Q 241.02 162.50 241.01 162.87
  L 241.00 165.44
  Q 241.00 165.75 241.30 165.75
  Q 246.25 165.81 252.53 165.70
  C 257.71 165.60 260.90 167.87 260.24 173.64
  C 259.85 177.14 255.63 178.54 252.68 178.53
  Q 243.63 178.49 235.04 178.50
  Q 234.75 178.50 234.75 178.21
  L 234.76 174.00
  Q 234.76 173.75 235.00 173.75
  L 253.27 173.75
  Q 253.79 173.75 253.78 173.23
  L 253.74 170.96
  Q 253.73 170.55 253.33 170.54
  Z"
/>
<path fill="#fb0000" d="
  M 278.25 172.53
  L 278.25 178.25
  Q 278.25 178.50 278.00 178.50
  L 272.00 178.50
  Q 271.75 178.50 271.75 178.25
  L 271.76 172.51
  Q 271.76 171.97 271.23 171.98
  C 269.47 171.99 267.56 172.27 265.96 171.41
  C 260.92 168.72 262.34 162.57 262.25 158.06
  Q 262.25 157.76 262.55 157.76
  L 268.25 157.75
  Q 268.50 157.75 268.50 158.00
  L 268.50 165.25
  Q 268.50 165.75 269.00 165.75
  L 281.00 165.75
  Q 281.50 165.75 281.50 165.25
  L 281.50 158.00
  A 0.25 0.25 0.0 0 1 281.75 157.75
  L 287.49 157.76
  A 0.26 0.26 0.0 0 1 287.75 158.02
  C 287.66 163.02 289.28 169.10 283.31 171.62
  C 281.92 172.21 280.33 172.01 278.84 171.96
  Q 278.25 171.94 278.25 172.53
  Z"
/>
<path fill="#fb0000" d="
  M 308.43 170.49
  Q 302.83 170.51 297.07 170.50
  Q 289.40 170.48 289.65 163.57
  C 289.78 159.92 292.66 157.80 296.00 157.78
  Q 305.63 157.72 314.97 157.76
  Q 315.25 157.76 315.25 158.04
  L 315.24 162.25
  A 0.25 0.24 -90.0 0 1 315.00 162.50
  L 296.50 162.50
  Q 296.00 162.50 296.00 163.00
  L 296.00 165.29
  Q 296.00 165.75 296.46 165.75
  Q 302.04 165.80 307.92 165.70
  C 312.82 165.62 315.78 168.05 315.27 173.44
  C 314.94 177.04 310.87 178.52 307.80 178.51
  Q 299.01 178.49 290.06 178.50
  Q 289.75 178.50 289.75 178.19
  L 289.76 174.00
  Q 289.76 173.75 290.00 173.75
  L 308.52 173.75
  Q 308.79 173.75 308.78 173.48
  L 308.74 170.79
  Q 308.74 170.49 308.43 170.49
  Z"
/>
<path fill="#fb0000" d="
  M 333.25 164.32
  L 333.25 178.18
  A 0.32 0.32 0.0 0 1 332.93 178.50
  L 327.07 178.49
  A 0.32 0.32 0.0 0 1 326.75 178.17
  L 326.75 164.33
  A 0.32 0.32 0.0 0 0 326.43 164.01
  L 317.57 163.99
  A 0.32 0.32 0.0 0 1 317.25 163.67
  L 317.27 158.07
  A 0.32 0.32 0.0 0 1 317.59 157.75
  L 342.42 157.75
  A 0.32 0.32 0.0 0 1 342.74 158.07
  L 342.76 163.67
  A 0.32 0.32 0.0 0 1 342.44 163.99
  L 333.57 164.00
  A 0.32 0.32 0.0 0 0 333.25 164.32
  Z"
/>
<path fill="#fb0000" d="
  M 351.50 173.76
  L 370.00 173.75
  Q 370.25 173.75 370.25 174.00
  L 370.24 178.19
  Q 370.24 178.52 369.92 178.52
  Q 361.27 178.44 352.61 178.54
  C 348.12 178.59 344.51 176.24 344.72 171.42
  Q 344.84 168.50 344.70 165.46
  C 344.50 161.22 347.37 157.70 351.79 157.74
  Q 357.19 157.78 362.98 157.71
  C 370.47 157.62 370.56 164.57 370.22 170.01
  Q 370.19 170.50 369.70 170.50
  L 351.50 170.50
  A 0.50 0.50 0.0 0 0 351.00 171.00
  L 351.00 173.25
  Q 351.00 173.76 351.50 173.76
  Z
  M 363.75 162.87
  A 0.37 0.37 0.0 0 0 363.38 162.50
  L 351.38 162.50
  A 0.37 0.37 0.0 0 0 351.01 162.87
  L 351.01 165.13
  A 0.37 0.37 0.0 0 0 351.38 165.50
  L 363.38 165.50
  A 0.37 0.37 0.0 0 0 363.75 165.13
  L 363.75 162.87
  Z"
/>
<path fill="#fb0000" d="
  M 393.00 164.25
  L 393.00 178.00
  Q 393.00 178.50 392.50 178.50
  L 387.00 178.50
  Q 386.50 178.50 386.50 178.00
  L 386.51 164.50
  Q 386.51 164.00 386.00 164.00
  L 379.00 164.00
  Q 378.50 164.00 378.50 164.50
  L 378.50 178.25
  Q 378.50 178.49 378.25 178.49
  L 372.75 178.50
  Q 372.26 178.50 372.26 178.00
  L 372.25 158.44
  Q 372.25 157.72 372.97 157.73
  Q 386.17 157.86 398.76 157.65
  C 403.92 157.57 407.13 159.98 407.19 165.27
  Q 407.27 171.77 407.24 178.21
  Q 407.24 178.50 406.96 178.50
  L 401.00 178.50
  Q 400.75 178.50 400.75 178.25
  L 400.76 164.26
  A 0.26 0.26 0.0 0 0 400.50 164.00
  L 393.25 164.00
  A 0.25 0.25 0.0 0 0 393.00 164.25
  Z"
/>
<path fill="#fb0000" d="
  M 438.25 170.50
  L 426.25 170.50
  Q 425.75 170.50 425.75 170.00
  L 425.75 166.25
  Q 425.75 165.75 426.25 165.75
  L 438.26 165.75
  Q 438.53 165.75 438.53 165.48
  L 438.50 162.75
  Q 438.49 162.50 438.25 162.50
  L 419.75 162.50
  Q 419.50 162.50 419.50 162.25
  L 419.51 158.05
  Q 419.51 157.74 419.81 157.74
  Q 427.31 157.79 437.84 157.73
  C 442.47 157.70 445.52 160.21 445.01 165.20
  C 444.86 166.69 443.88 167.48 444.44 169.04
  C 446.89 175.96 442.05 178.72 436.09 178.59
  Q 427.62 178.39 420.01 178.53
  A 0.50 0.50 0.0 0 1 419.50 178.03
  L 419.50 174.00
  Q 419.50 173.50 420.00 173.50
  L 438.26 173.50
  Q 438.52 173.50 438.52 173.24
  L 438.49 170.75
  Q 438.49 170.50 438.25 170.50
  Z"
/>
<path fill="#fb0000" d="
  M 465.75 173.50
  Q 466.00 173.50 466.00 173.25
  L 465.99 170.78
  Q 465.99 170.44 465.65 170.45
  Q 458.51 170.63 452.74 170.39
  C 449.52 170.25 446.75 167.91 446.94 164.38
  Q 447.10 161.21 446.96 158.35
  Q 446.93 157.75 447.54 157.75
  L 472.25 157.75
  Q 472.50 157.75 472.50 158.00
  L 472.49 162.26
  Q 472.49 162.50 472.24 162.50
  L 453.76 162.50
  Q 453.26 162.50 453.26 162.99
  L 453.23 165.29
  Q 453.22 165.75 453.68 165.75
  Q 459.36 165.78 465.90 165.73
  C 469.37 165.70 472.16 167.49 472.54 171.17
  C 473.11 176.66 469.06 178.61 464.42 178.55
  Q 455.27 178.43 447.52 178.53
  Q 447.00 178.54 447.00 178.01
  L 447.01 174.00
  Q 447.01 173.50 447.50 173.50
  L 465.75 173.50
  Z"
/>
<path fill="#fb0000" d="
  M 481.00 164.87
  L 481.00 168.25
  Q 481.00 169.00 480.25 169.00
  L 475.50 169.00
  Q 474.50 169.00 474.50 168.00
  L 474.50 158.44
  Q 474.50 157.73 475.21 157.74
  Q 483.27 157.80 492.86 157.71
  C 497.41 157.67 500.07 161.02 500.03 165.37
  Q 499.97 171.78 500.01 178.00
  A 0.50 0.50 0.0 0 1 499.51 178.50
  L 494.00 178.50
  Q 493.50 178.50 493.50 178.00
  L 493.50 164.75
  A 0.50 0.50 0.0 0 0 493.00 164.25
  L 481.63 164.25
  Q 481.00 164.25 481.00 164.87
  Z"
/>
</svg>
