<?xml version="1.0" encoding="UTF-8" standalone="no"?>
<!DOCTYPE svg PUBLIC "-//W3C//DTD SVG 1.1//EN" "http://www.w3.org/Graphics/SVG/1.1/DTD/svg11.dtd">
<svg xmlns="http://www.w3.org/2000/svg" version="1.1" viewBox="0.00 0.00 590.00 255.00">
<path fill="#fb0000" d="
  M 108.50 106.50
  L 108.50 145.75
  Q 108.50 146.25 108.00 146.25
  L 91.25 146.25
  Q 90.75 146.25 90.75 145.75
  L 90.75 88.55
  Q 90.75 88.00 91.29 88.00
  Q 118.53 87.98 143.47 88.03
  Q 151.64 88.04 156.64 93.52
  Q 159.01 96.13 160.79 100.25
  Q 162.03 103.14 162.02 106.11
  Q 161.98 127.56 162.01 145.96
  Q 162.01 146.25 161.71 146.25
  L 144.75 146.25
  Q 144.25 146.25 144.25 145.75
  L 144.25 106.25
  Q 144.25 105.75 143.75 105.75
  L 109.25 105.75
  Q 108.50 105.75 108.50 106.50
  Z"
/>
<path fill="#fb0000" d="
  M 221.24 110.49
  A 0.26 0.26 0.0 0 0 221.50 110.23
  L 221.50 102.00
  A 0.25 0.25 0.0 0 0 221.25 101.75
  L 168.00 101.75
  Q 167.75 101.75 167.75 101.50
  L 167.75 88.53
  Q 167.75 87.97 168.32 87.97
  Q 191.94 88.08 218.81 87.93
  Q 223.31 87.91 226.37 88.93
  C 229.59 90.00 234.11 92.55 235.76 95.80
  C 237.12 98.49 238.87 100.18 239.07 103.45
  Q 239.22 105.76 239.22 108.12
  Q 239.27 126.14 239.24 145.67
  Q 239.24 146.25 238.67 146.25
  Q 213.77 146.26 186.74 146.24
  Q 178.83 146.24 172.90 140.85
  Q 171.49 139.58 168.99 134.32
  Q 166.84 129.83 168.19 125.02
  Q 169.60 120.00 171.24 117.74
  C 173.11 115.16 176.55 113.38 179.42 111.79
  Q 181.56 110.61 186.25 110.59
  Q 202.96 110.52 221.24 110.49
  Z
  M 221.50 124.01
  A 0.27 0.27 0.0 0 0 221.23 123.74
  L 185.77 123.74
  A 0.27 0.27 0.0 0 0 185.50 124.01
  L 185.50 132.23
  A 0.27 0.27 0.0 0 0 185.77 132.50
  L 221.23 132.50
  A 0.27 0.27 0.0 0 0 221.50 132.23
  L 221.50 124.01
  Z"
/>
<path fill="#fb0000" d="
  M 262.25 106.50
  L 262.25 145.75
  Q 262.25 146.25 261.75 146.25
  L 244.75 146.25
  Q 244.50 146.25 244.50 146.00
  L 244.50 88.29
  Q 244.50 88.01 244.77 88.01
  Q 284.77 87.97 324.62 88.04
  Q 331.49 88.05 336.73 93.21
  C 338.42 94.88 341.84 100.22 342.15 103.30
  C 342.34 105.12 342.75 106.74 342.75 108.60
  Q 342.77 128.50 342.72 145.74
  Q 342.72 146.25 342.20 146.25
  L 325.25 146.25
  Q 324.75 146.25 324.75 145.75
  L 324.75 106.50
  Q 324.75 106.00 324.25 106.00
  L 303.00 106.00
  Q 302.50 106.00 302.50 106.50
  L 302.50 145.75
  Q 302.50 146.25 302.00 146.25
  L 285.00 146.25
  Q 284.50 146.25 284.50 145.75
  L 284.50 106.50
  Q 284.50 106.00 284.00 106.00
  L 262.75 106.00
  Q 262.25 106.00 262.25 106.50
  Z"
/>
<path fill="#fb0000" d="
  M 366.00 106.50
  L 366.00 127.50
  Q 366.00 128.00 366.50 128.00
  L 419.50 128.00
  Q 419.75 128.00 419.75 128.25
  L 419.75 145.71
  A 0.56 0.56 0.0 0 1 419.19 146.27
  Q 393.41 146.23 365.92 146.25
  Q 360.72 146.25 355.47 142.37
  C 352.96 140.52 351.27 137.32 349.78 134.71
  C 348.56 132.57 348.24 129.52 348.25 127.00
  Q 348.27 116.57 348.23 106.89
  Q 348.21 100.71 351.79 95.56
  C 353.37 93.27 355.75 92.24 357.92 90.68
  Q 359.77 89.36 361.81 88.97
  C 363.82 88.58 365.82 88.00 367.87 88.00
  Q 393.97 88.00 419.21 88.00
  A 0.54 0.54 0.0 0 1 419.75 88.54
  L 419.75 105.25
  Q 419.75 105.75 419.25 105.75
  L 366.75 105.75
  Q 366.00 105.75 366.00 106.50
  Z"
/>
<path fill="#fb0000" d="
  M 496.2491 127.1892
  A 18.76 18.76 0.0 0 1 477.6536 146.1122
  L 444.0348 146.4056
  A 18.76 18.76 0.0 0 1 425.1118 127.8100
  L 424.9309 107.0708
  A 18.76 18.76 0.0 0 1 443.5264 88.1478
  L 477.1452 87.8544
  A 18.76 18.76 0.0 0 1 496.0682 106.4500
  L 496.2491 127.1892
  Z
  M 478.25 106.26
  A 0.26 0.26 0.0 0 0 477.99 106.00
  L 443.01 106.00
  A 0.26 0.26 0.0 0 0 442.75 106.26
  L 442.75 127.74
  A 0.26 0.26 0.0 0 0 443.01 128.00
  L 477.99 128.00
  A 0.26 0.26 0.0 0 0 478.25 127.74
  L 478.25 106.26
  Z"
/>
<path fill="#fb0000" d="
  M 248.00 162.50
  Q 247.75 162.50 247.75 162.75
  L 247.74 165.49
  Q 247.74 165.70 247.96 165.71
  Q 253.13 165.85 258.89 165.67
  C 263.54 165.53 267.14 167.13 267.11 172.51
  C 267.09 176.43 263.61 178.43 260.22 178.46
  Q 251.70 178.54 241.79 178.49
  Q 241.50 178.48 241.50 178.19
  L 241.51 174.00
  Q 241.51 173.75 241.75 173.75
  L 260.02 173.75
  Q 260.54 173.75 260.53 173.23
  L 260.50 170.93
  A 0.40 0.40 0.0 0 0 260.11 170.54
  Q 255.59 170.39 250.23 170.56
  C 244.92 170.73 240.67 169.05 241.50 162.65
  C 241.96 159.07 245.50 157.70 248.73 157.72
  Q 258.14 157.77 266.54 157.73
  Q 267.01 157.72 267.01 158.20
  L 266.98 162.14
  Q 266.98 162.50 266.61 162.50
  L 248.00 162.50
  Z"
/>
<path fill="#fb0000" d="
  M 285.00 172.55
  L 284.99 178.25
  Q 284.99 178.49 284.75 178.49
  L 278.75 178.50
  Q 278.50 178.50 278.50 178.25
  L 278.51 172.54
  Q 278.51 171.98 277.95 171.97
  C 276.42 171.96 274.76 172.24 273.31 171.66
  C 267.54 169.35 269.16 162.72 269.00 158.05
  Q 268.98 157.75 269.28 157.75
  L 275.00 157.75
  Q 275.26 157.75 275.25 158.01
  L 275.23 165.24
  Q 275.23 165.75 275.74 165.75
  L 287.75 165.75
  Q 288.25 165.75 288.25 165.25
  L 288.26 158.00
  A 0.25 0.24 -90.0 0 1 288.50 157.75
  L 294.22 157.76
  Q 294.53 157.76 294.52 158.06
  C 294.30 163.12 296.14 169.56 289.67 171.73
  C 288.42 172.15 287.00 172.04 285.69 171.92
  Q 285.01 171.86 285.00 172.55
  Z"
/>
<path fill="#fb0000" d="
  M 303.00 162.50
  Q 302.75 162.50 302.75 162.75
  L 302.74 165.49
  Q 302.74 165.72 302.98 165.73
  Q 308.06 165.87 312.85 165.68
  C 318.20 165.46 322.61 166.78 322.05 173.33
  C 321.75 176.82 317.98 178.47 314.98 178.48
  Q 306.01 178.52 296.80 178.49
  Q 296.50 178.49 296.50 178.20
  L 296.50 174.00
  A 0.25 0.25 0.0 0 1 296.75 173.75
  L 315.14 173.75
  Q 315.54 173.75 315.53 173.36
  L 315.50 170.96
  Q 315.49 170.45 314.98 170.46
  Q 307.93 170.62 302.39 170.40
  Q 299.26 170.27 297.47 167.97
  Q 296.21 166.32 296.41 163.23
  C 296.66 159.31 300.15 157.68 303.64 157.71
  Q 312.79 157.79 321.53 157.74
  A 0.47 0.47 0.0 0 1 322.01 158.21
  L 321.98 162.14
  Q 321.97 162.50 321.61 162.50
  L 303.00 162.50
  Z"
/>
<path fill="#fb0000" d="
  M 332.87 164.00
  L 324.13 164.00
  A 0.38 0.38 0.0 0 1 323.75 163.62
  L 323.76 158.13
  A 0.38 0.38 0.0 0 1 324.14 157.75
  L 348.87 157.75
  A 0.38 0.38 0.0 0 1 349.25 158.13
  L 349.25 163.62
  A 0.38 0.38 0.0 0 1 348.87 164.00
  L 340.12 164.00
  A 0.38 0.38 0.0 0 0 339.74 164.38
  L 339.75 178.11
  A 0.38 0.38 0.0 0 1 339.37 178.49
  L 333.63 178.50
  A 0.38 0.38 0.0 0 1 333.25 178.12
  L 333.25 164.38
  A 0.38 0.38 0.0 0 0 332.87 164.00
  Z"
/>
<path fill="#fb0000" d="
  M 357.75 170.50
  A 0.25 0.25 0.0 0 0 357.50 170.75
  L 357.50 173.50
  A 0.25 0.25 0.0 0 0 357.75 173.75
  L 376.25 173.75
  Q 376.75 173.75 376.75 174.25
  L 376.74 178.04
  Q 376.74 178.52 376.27 178.51
  Q 367.49 178.46 358.64 178.53
  Q 356.37 178.54 354.55 177.60
  C 350.05 175.27 351.40 169.68 351.19 165.65
  C 350.95 160.86 354.12 157.52 358.96 157.70
  Q 363.45 157.87 368.51 157.68
  C 376.68 157.38 377.26 163.66 376.67 170.07
  A 0.47 0.47 0.0 0 1 376.20 170.50
  L 357.75 170.50
  Z
  M 370.26 162.82
  A 0.32 0.32 0.0 0 0 369.94 162.50
  L 357.82 162.50
  A 0.32 0.32 0.0 0 0 357.50 162.82
  L 357.50 165.18
  A 0.32 0.32 0.0 0 0 357.82 165.50
  L 369.94 165.50
  A 0.32 0.32 0.0 0 0 370.26 165.18
  L 370.26 162.82
  Z"
/>
<path fill="#fb0000" d="
  M 393.00 164.25
  A 0.25 0.25 0.0 0 0 392.75 164.00
  L 385.25 164.00
  Q 385.00 164.00 385.00 164.25
  L 385.00 178.00
  Q 385.00 178.50 384.50 178.50
  L 379.25 178.50
  A 0.50 0.50 0.0 0 1 378.75 178.00
  L 378.75 158.30
  Q 378.75 157.73 379.33 157.73
  Q 392.89 157.81 406.42 157.74
  C 410.96 157.71 413.68 160.82 413.72 165.25
  Q 413.78 171.39 413.74 178.03
  Q 413.73 178.50 413.27 178.50
  L 407.75 178.50
  A 0.50 0.50 0.0 0 1 407.25 178.00
  L 407.26 164.50
  A 0.51 0.50 0.0 0 0 406.75 164.00
  L 400.00 164.00
  Q 399.50 164.00 399.50 164.50
  L 399.50 178.00
  A 0.50 0.50 0.0 0 1 399.00 178.50
  L 393.50 178.50
  Q 393.00 178.50 393.00 178.00
  L 393.00 164.25
  Z"
/>
<path fill="#fb0000" d="
  M 432.99 170.50
  Q 432.75 170.51 432.75 170.74
  L 432.75 173.50
  A 0.25 0.25 0.0 0 0 433.00 173.76
  L 451.24 173.75
  Q 451.73 173.75 451.73 174.24
  L 451.75 178.00
  Q 451.75 178.50 451.25 178.50
  L 426.76 178.50
  Q 426.19 178.50 426.21 177.93
  Q 426.35 174.75 426.20 171.50
  C 426.04 167.99 429.49 165.72 432.65 165.73
  Q 438.69 165.77 445.00 165.75
  A 0.26 0.26 0.0 0 0 445.26 165.49
  L 445.25 162.75
  Q 445.25 162.50 445.00 162.50
  L 426.75 162.50
  Q 426.26 162.50 426.26 162.00
  L 426.25 158.20
  Q 426.25 157.77 426.68 157.76
  Q 433.61 157.72 440.14 157.75
  C 445.77 157.78 451.29 157.23 451.80 163.48
  C 452.16 167.76 449.23 170.54 445.06 170.51
  Q 438.99 170.47 432.99 170.50
  Z"
/>
<path fill="#fb0000" d="
  M 481.37 162.47
  Q 486.17 162.59 491.89 162.44
  C 496.95 162.30 499.94 165.21 500.04 170.28
  C 500.15 175.46 497.16 178.65 492.20 178.54
  Q 486.89 178.43 482.16 178.54
  C 477.86 178.64 474.41 175.97 474.47 171.43
  Q 474.55 165.03 474.48 158.68
  Q 474.47 157.75 475.40 157.75
  L 479.75 157.75
  Q 480.75 157.75 480.75 158.75
  L 480.75 161.83
  Q 480.75 162.46 481.37 162.47
  Z
  M 493.53 169.32
  A 0.32 0.32 0.0 0 0 493.21 169.00
  L 481.05 169.00
  A 0.32 0.32 0.0 0 0 480.73 169.32
  L 480.73 171.68
  A 0.32 0.32 0.0 0 0 481.05 172.00
  L 493.21 172.00
  A 0.32 0.32 0.0 0 0 493.53 171.68
  L 493.53 169.32
  Z"
/>
<path fill="#fb0000" d="
  M 464.04 165.11
  L 467.77 161.35
  A 0.31 0.31 0.0 0 1 467.99 161.26
  L 473.44 161.23
  A 0.31 0.31 0.0 0 1 473.66 161.77
  L 467.22 167.95
  A 0.31 0.31 0.0 0 0 467.22 168.39
  L 474.37 175.46
  A 0.31 0.31 0.0 0 1 474.15 175.99
  L 468.18 176.01
  A 0.31 0.31 0.0 0 1 467.96 175.91
  L 463.45 171.12
  A 0.31 0.31 0.0 0 0 463.00 171.12
  L 458.19 175.92
  A 0.31 0.31 0.0 0 1 457.97 176.01
  L 452.37 175.99
  A 0.31 0.31 0.0 0 1 452.16 175.45
  L 459.85 168.41
  A 0.31 0.31 0.0 0 0 459.86 167.97
  L 453.99 161.77
  A 0.31 0.31 0.0 0 1 454.21 161.25
  L 460.10 161.25
  A 0.31 0.31 0.0 0 1 460.33 161.36
  L 463.59 165.10
  A 0.31 0.31 0.0 0 0 464.04 165.11
  Z"
/>
</svg>
