<?xml version="1.0" encoding="UTF-8" standalone="no"?>
<!DOCTYPE svg PUBLIC "-//W3C//DTD SVG 1.1//EN" "http://www.w3.org/Graphics/SVG/1.1/DTD/svg11.dtd">
<svg xmlns="http://www.w3.org/2000/svg" version="1.1" viewBox="0.00 0.00 590.00 255.00">
<g stroke-width="2.00" fill="none" stroke-linecap="butt">
<path stroke="#d1d1d1" stroke-opacity="0.612" vector-effect="non-scaling-stroke" d="
  M 493.44 163.80
  L 493.82 86.22"
/>
<path stroke="#d1d1d1" stroke-opacity="0.612" vector-effect="non-scaling-stroke" d="
  M 158.87 166.67
  L 95.16 114.84
  A 0.28 0.28 0.0 0 0 94.70 115.06
  L 94.69 121.53"
/>
<path stroke="#d1d1d1" stroke-opacity="0.612" vector-effect="non-scaling-stroke" d="
  M 81.98 149.38
  L 82.23 90.16"
/>
<path stroke="#d1d1d1" stroke-opacity="0.612" vector-effect="non-scaling-stroke" d="
  M 140.94 132.87
  L 146.83 137.64
  Q 147.24 137.98 147.24 137.44
  L 147.05 85.45"
/>
<path stroke="#d1d1d1" stroke-opacity="0.612" vector-effect="non-scaling-stroke" d="
  M 452.58 170.44
  Q 452.41 170.40 452.24 170.39
  Q 451.89 170.36 451.89 170.02
  L 451.74 124.73
  Q 451.74 123.63 451.04 124.47
  L 443.61 133.43"
/>
<path stroke="#d1d1d1" stroke-opacity="0.612" vector-effect="non-scaling-stroke" d="
  M 433.79 145.21
  L 422.73 158.52"
/>
<path stroke="#d1d1d1" stroke-opacity="0.612" vector-effect="non-scaling-stroke" d="
  M 417.93 161.91
  L 386.23 124.27
  Q 385.87 123.84 385.87 124.40
  L 385.86 134.54"
/>
<path stroke="#d1d1d1" stroke-opacity="0.612" vector-effect="non-scaling-stroke" d="
  M 371.91 170.02
  L 371.81 92.80"
/>
<path stroke="#d1d1d1" stroke-opacity="0.612" vector-effect="non-scaling-stroke" d="
  M 416.57 136.30
  L 418.95 139.17
  A 0.24 0.24 0.0 0 0 419.32 139.17
  L 462.76 88.00"
/>
<path stroke="#d1d1d1" stroke-opacity="0.612" vector-effect="non-scaling-stroke" d="
  M 260.31 170.22
  L 248.66 169.90
  Q 248.19 169.89 247.97 169.47
  L 238.73 151.87
  Q 238.52 151.47 238.07 151.47
  L 196.74 151.47
  A 0.83 0.82 -76.6 0 0 196.00 151.93
  L 194.97 153.98"
/>
<path stroke="#d1d1d1" stroke-opacity="0.612" vector-effect="non-scaling-stroke" d="
  M 186.47 169.76
  L 170.68 170.08
  Q 170.21 170.09 170.44 169.68
  L 180.79 152.05
  Q 181.11 151.51 180.49 151.50
  L 171.78 151.41
  Q 171.32 151.41 171.32 150.94
  L 171.26 139.94"
/>
<path stroke="#d1d1d1" stroke-opacity="0.612" vector-effect="non-scaling-stroke" d="
  M 180.50 138.34
  L 187.09 138.42
  Q 187.60 138.43 187.84 137.98
  L 215.03 88.57"
/>
<path stroke="#d1d1d1" stroke-opacity="0.612" vector-effect="non-scaling-stroke" d="
  M 224.32 138.16
  L 231.93 138.19
  Q 232.45 138.19 232.20 137.73
  L 217.62 110.92
  Q 217.23 110.21 216.85 110.93
  L 213.12 117.91"
/>
</g>
<path fill="#c92329" fill-opacity="0.988" d="
  M 319.24 82.21
  L 327.06 84.31
  Q 339.88 89.07 347.64 99.13
  C 357.47 111.91 360.78 129.61 354.39 145.04
  Q 353.53 147.11 352.79 149.17
  Q 351.60 150.82 350.54 152.53
  Q 345.92 160.02 339.61 164.86
  C 313.34 185.03 275.38 172.33 266.38 140.47
  Q 263.67 130.88 265.27 120.99
  C 268.41 101.60 282.27 87.05 301.51 82.48
  Q 310.09 80.84 319.24 82.21
  Z
  M 280.58 138.85
  A 32.52 32.50 0.9 0 0 299.68 158.53
  A 32.50 32.49 49.7 0 0 317.75 160.02
  A 32.49 32.48 4.0 0 0 341.93 139.00
  A 32.52 32.47 -44.6 0 0 342.08 117.78
  A 32.49 32.48 -81.7 0 0 330.07 101.65
  A 32.49 32.46 59.5 0 0 307.76 95.86
  A 32.51 32.49 3.9 0 0 279.76 120.26
  A 32.59 32.56 -47.6 0 0 280.58 138.85
  Z"
/>
<path fill="#020101" fill-opacity="0.224" d="
  M 327.06 84.31
  L 319.24 82.21
  Q 318.44 81.51 319.79 81.98
  Q 320.30 82.16 320.83 82.02
  Q 322.33 81.62 323.33 82.54
  Q 323.70 82.88 324.20 82.83
  Q 325.95 82.68 327.06 84.31
  Z"
/>
<path fill="#020101" fill-opacity="0.224" d="
  M 301.51 82.48
  C 282.27 87.05 268.41 101.60 265.27 120.99
  Q 263.67 130.88 266.38 140.47
  C 275.38 172.33 313.34 185.03 339.61 164.86
  Q 345.92 160.02 350.54 152.53
  Q 351.60 150.82 352.79 149.17
  Q 351.46 153.14 350.12 154.76
  Q 345.11 160.82 341.36 164.76
  Q 340.25 165.93 338.51 166.48
  A 2.35 2.33 -77.5 0 0 337.50 167.13
  Q 336.86 167.86 335.96 168.22
  Q 335.50 168.41 335.17 168.78
  Q 334.24 169.84 333.05 170.40
  Q 331.98 170.92 331.01 171.62
  Q 329.74 172.54 328.41 172.61
  Q 327.96 172.64 327.62 172.95
  Q 327.05 173.47 326.31 173.54
  Q 325.94 173.57 325.59 173.70
  Q 319.61 175.90 312.30 176.37
  Q 299.41 177.20 289.72 171.79
  Q 289.29 171.54 288.79 171.54
  Q 288.49 171.54 288.22 171.42
  Q 283.52 169.43 279.74 166.19
  Q 279.60 166.08 279.63 165.87
  A 0.37 0.36 -65.6 0 0 279.51 165.54
  Q 276.98 163.29 274.48 160.88
  Q 274.11 160.53 274.05 159.98
  A 0.84 0.83 7.1 0 0 273.51 159.30
  Q 272.29 158.86 271.89 157.69
  Q 271.73 157.23 271.38 156.88
  Q 268.99 154.43 266.86 150.31
  Q 261.00 138.95 261.95 126.83
  Q 262.20 123.73 262.48 120.56
  Q 262.76 117.45 263.78 114.47
  Q 265.92 108.19 270.24 101.74
  Q 272.68 98.08 275.15 95.88
  Q 276.33 94.84 277.39 93.72
  Q 278.45 92.60 279.60 91.50
  Q 280.62 90.54 281.84 89.89
  Q 283.22 89.17 284.45 88.35
  Q 286.80 86.77 290.05 85.95
  Q 290.56 85.82 290.89 85.42
  Q 292.34 83.66 295.09 83.42
  Q 295.54 83.38 295.94 83.16
  Q 299.03 81.40 301.51 82.48
  Z"
/>
<path fill="#ffffff" d="
  M 493.44 163.80
  L 493.82 86.22
  L 493.76 82.73
  Q 493.75 82.15 494.33 82.15
  L 507.25 82.24
  Q 508.01 82.25 508.01 83.00
  L 507.87 169.55
  Q 507.87 170.22 507.20 170.23
  L 493.78 170.52
  Q 493.23 170.53 493.25 169.98
  L 493.44 163.80
  Z"
/>
<path fill="#ffffff" d="
  M 158.87 166.67
  L 95.16 114.84
  A 0.28 0.28 0.0 0 0 94.70 115.06
  L 94.69 121.53
  L 94.82 169.13
  Q 94.82 169.68 94.27 169.70
  L 82.27 170.14
  A 0.45 0.45 0.0 0 1 81.80 169.68
  L 81.98 149.38
  L 82.23 90.16
  L 82.27 84.90
  A 0.26 0.26 0.0 0 1 82.70 84.71
  L 140.94 132.87
  L 146.83 137.64
  Q 147.24 137.98 147.24 137.44
  L 147.05 85.45
  Q 146.83 84.55 146.95 83.80
  Q 147.03 83.31 147.52 83.32
  L 160.52 83.48
  A 1.03 1.03 0.0 0 1 161.54 84.52
  L 161.32 167.97
  Q 161.32 168.51 160.89 168.19
  L 158.87 166.67
  Z"
/>
<path fill="#ffffff" d="
  M 452.58 170.44
  Q 452.41 170.40 452.24 170.39
  Q 451.89 170.36 451.89 170.02
  L 451.74 124.73
  Q 451.74 123.63 451.04 124.47
  L 443.61 133.43
  L 433.79 145.21
  L 422.73 158.52
  Q 418.59 164.35 417.93 161.91
  L 386.23 124.27
  Q 385.87 123.84 385.87 124.40
  L 385.86 134.54
  L 385.91 169.43
  Q 385.91 169.93 385.42 169.99
  Q 378.70 170.74 371.91 170.02
  L 371.81 92.80
  L 372.02 85.44
  Q 372.05 84.53 372.64 85.22
  L 416.57 136.30
  L 418.95 139.17
  A 0.24 0.24 0.0 0 0 419.32 139.17
  L 462.76 88.00
  L 466.11 84.21
  Q 466.99 83.22 466.99 84.54
  L 467.01 169.52
  Q 467.01 170.07 466.46 170.09
  L 452.58 170.44
  Z"
/>
<path fill="#ffffff" d="
  M 260.31 170.22
  L 248.66 169.90
  Q 248.19 169.89 247.97 169.47
  L 238.73 151.87
  Q 238.52 151.47 238.07 151.47
  L 196.74 151.47
  A 0.83 0.82 -76.6 0 0 196.00 151.93
  L 194.97 153.98
  L 186.47 169.76
  L 170.68 170.08
  Q 170.21 170.09 170.44 169.68
  L 180.79 152.05
  Q 181.11 151.51 180.49 151.50
  L 171.78 151.41
  Q 171.32 151.41 171.32 150.94
  L 171.26 139.94
  L 171.25 139.13
  Q 171.24 138.60 171.77 138.58
  L 180.50 138.34
  L 187.09 138.42
  Q 187.60 138.43 187.84 137.98
  L 215.03 88.57
  L 217.20 84.77
  A 0.33 0.33 0.0 0 1 217.77 84.78
  L 264.57 168.94
  Q 265.07 169.84 264.05 169.92
  L 260.31 170.22
  Z
  M 213.12 117.91
  L 202.42 137.57
  Q 202.18 138.02 202.69 138.02
  L 224.32 138.16
  L 231.93 138.19
  Q 232.45 138.19 232.20 137.73
  L 217.62 110.92
  Q 217.23 110.21 216.85 110.93
  L 213.12 117.91
  Z"
/>
<path fill="#020101" fill-opacity="0.224" d="
  M 147.05 85.45
  L 147.24 137.44
  Q 147.24 137.98 146.83 137.64
  L 140.94 132.87
  Q 144.06 131.96 143.84 128.44
  Q 143.78 127.49 143.77 126.52
  Q 143.59 109.02 143.71 91.51
  Q 143.72 90.12 144.05 88.73
  Q 144.17 88.24 144.53 87.90
  L 147.05 85.45
  Z"
/>
<path fill="#020101" fill-opacity="0.224" d="
  M 493.82 86.22
  L 493.44 163.80
  Q 492.92 163.55 493.09 162.83
  Q 493.12 162.69 493.12 162.83
  L 493.12 166.66
  Q 493.12 167.51 492.64 166.82
  Q 492.21 166.21 492.16 165.45
  Q 492.13 164.95 491.65 165.13
  Q 491.43 165.21 491.23 165.08
  Q 490.88 164.83 490.88 164.39
  Q 490.89 140.17 490.88 116.12
  Q 490.88 115.87 490.95 115.63
  Q 491.04 115.34 491.05 115.03
  L 491.34 88.79
  A 1.22 1.18 64.8 0 1 491.57 88.11
  Q 492.38 86.99 493.82 86.22
  Z"
/>
<path fill="#020101" fill-opacity="0.224" d="
  M 462.76 88.00
  L 419.32 139.17
  A 0.24 0.24 0.0 0 1 418.95 139.17
  L 416.57 136.30
  L 418.01 136.67
  Q 418.18 136.71 418.33 136.63
  Q 420.06 135.71 421.52 134.52
  Q 422.01 134.12 422.32 133.62
  Q 424.08 130.70 426.43 128.57
  Q 427.79 127.34 428.48 125.70
  Q 429.35 123.60 431.01 122.02
  Q 433.38 119.76 435.89 116.95
  Q 436.28 116.51 436.66 116.06
  Q 440.21 111.84 443.58 107.47
  Q 445.32 105.20 447.58 102.71
  Q 449.70 100.37 451.66 98.02
  Q 454.81 94.24 458.51 90.42
  Q 458.71 90.21 458.96 90.37
  Q 459.08 90.44 459.24 90.40
  Q 459.47 90.35 459.39 90.12
  Q 459.17 89.49 459.81 89.48
  Q 460.37 89.48 460.50 88.92
  Q 460.60 88.45 461.12 88.63
  Q 461.54 88.76 461.71 88.36
  Q 462.02 87.66 462.76 88.00
  Z"
/>
<path fill="#020101" fill-opacity="0.224" d="
  M 215.03 88.57
  L 187.84 137.98
  Q 187.60 138.43 187.09 138.42
  L 180.50 138.34
  Q 184.98 137.41 186.87 134.61
  Q 189.40 130.86 192.05 125.37
  Q 193.73 121.87 195.90 118.42
  Q 198.02 115.03 199.82 111.50
  Q 202.49 106.27 205.17 101.03
  Q 205.40 100.57 205.89 100.43
  Q 206.02 100.39 206.15 100.35
  Q 206.59 100.21 206.74 99.77
  Q 209.31 92.47 215.03 88.57
  Z"
/>
<path fill="#020101" fill-opacity="0.224" d="
  M 371.39 89.91
  Q 371.46 89.79 371.55 89.70
  A 0.07 0.07 0.0 0 1 371.67 89.71
  Q 372.08 90.44 371.69 91.17
  Q 371.48 91.57 371.03 91.64
  Q 370.74 91.69 370.52 91.90
  Q 370.32 92.09 370.36 92.37
  C 370.49 93.36 370.12 94.19 370.12 95.19
  Q 370.11 130.53 370.13 166.02
  A 1.29 1.27 29.7 0 0 370.32 166.69
  Q 370.61 167.18 370.51 167.70
  Q 370.38 168.42 370.03 167.78
  Q 369.19 166.25 369.19 164.50
  Q 369.12 129.50 369.14 94.50
  Q 369.14 92.18 371.25 90.09
  Q 371.34 90.01 371.39 89.91
  Z"
/>
<path fill="#020101" fill-opacity="0.224" d="
  M 82.23 90.16
  L 81.98 149.38
  Q 80.98 145.80 81.34 141.72
  Q 81.41 141.01 81.25 141.71
  Q 81.22 141.84 81.04 141.87
  Q 80.87 141.90 80.81 141.75
  Q 80.41 140.80 80.73 139.61
  A 1.91 1.89 44.7 0 0 80.72 138.65
  C 80.35 137.34 79.88 136.15 79.88 134.75
  Q 79.87 114.25 79.89 93.76
  Q 79.89 91.10 82.23 90.16
  Z"
/>
<path fill="#020101" fill-opacity="0.224" d="
  M 371.81 92.80
  L 371.91 170.02
  L 371.36 166.10
  Q 371.34 165.95 371.19 165.98
  Q 371.03 166.01 370.92 165.93
  Q 370.69 165.76 370.68 165.48
  C 370.65 164.42 370.38 163.54 370.38 162.48
  Q 370.41 142.61 370.36 124.51
  Q 370.36 122.76 370.55 120.50
  Q 370.78 117.81 370.68 116.50
  Q 369.75 104.38 371.81 92.80
  Z"
/>
<path fill="#020101" fill-opacity="0.224" d="
  M 299.68 158.53
  Q 300.19 157.84 300.82 158.33
  Q 301.20 158.63 301.69 158.67
  C 302.49 158.73 303.35 158.72 304.07 159.12
  Q 305.44 159.88 307.26 159.91
  Q 320.20 160.13 327.75 153.35
  Q 328.71 152.48 329.84 151.72
  Q 330.96 150.97 331.85 149.93
  Q 342.20 137.85 339.47 123.05
  Q 338.35 116.98 333.42 110.96
  Q 333.16 110.63 333.10 110.21
  Q 333.06 109.91 332.83 109.64
  Q 326.34 102.08 317.28 99.55
  Q 306.54 96.55 295.63 101.57
  Q 294.98 101.87 294.93 102.57
  Q 294.89 103.02 294.37 102.93
  Q 293.81 102.82 293.31 103.12
  C 290.74 104.68 286.96 107.68 285.63 110.62
  Q 285.49 110.93 285.16 111.00
  Q 284.47 111.15 284.17 111.79
  Q 282.88 114.58 281.20 117.32
  Q 280.96 117.72 281.07 118.18
  C 281.23 118.87 281.12 119.52 280.67 120.08
  Q 279.68 121.32 280.09 123.04
  Q 280.25 123.71 280.02 124.36
  C 279.44 125.98 278.90 128.13 279.46 129.82
  Q 280.25 132.18 279.92 134.99
  Q 279.86 135.48 280.16 135.88
  Q 281.25 137.37 280.58 138.85
  A 32.59 32.56 -47.6 0 1 279.76 120.26
  A 32.51 32.49 3.9 0 1 307.76 95.86
  A 32.49 32.46 59.5 0 1 330.07 101.65
  A 32.49 32.48 -81.7 0 1 342.08 117.78
  A 32.52 32.47 -44.6 0 1 341.93 139.00
  A 32.49 32.48 4.0 0 1 317.75 160.02
  A 32.50 32.49 49.7 0 1 299.68 158.53
  Z"
/>
<path fill="#020101" fill-opacity="0.224" d="
  M 224.32 138.16
  Q 226.36 134.75 225.64 132.74
  Q 225.08 131.20 223.61 129.84
  A 1.81 1.73 -78.0 0 1 223.11 129.03
  Q 222.38 126.53 220.99 124.24
  Q 220.03 122.67 219.21 121.04
  Q 218.98 120.59 218.50 120.40
  Q 218.08 120.24 217.95 119.81
  A 2.33 1.93 77.2 0 0 215.78 118.14
  Q 214.73 118.26 213.12 117.91
  L 216.85 110.93
  Q 217.23 110.21 217.62 110.92
  L 232.20 137.73
  Q 232.45 138.19 231.93 138.19
  L 224.32 138.16
  Z"
/>
<path fill="#020101" fill-opacity="0.224" d="
  M 158.87 166.67
  Q 154.31 166.82 152.97 165.62
  Q 151.02 163.86 149.08 162.58
  C 148.03 161.88 147.59 160.97 146.53 160.24
  Q 142.93 157.80 139.80 154.77
  Q 138.66 153.66 137.26 152.92
  Q 136.09 152.30 135.38 151.35
  Q 134.79 150.56 133.94 150.09
  Q 132.22 149.14 130.68 147.66
  C 129.92 146.93 129.80 145.97 128.78 145.55
  C 127.99 145.22 127.33 144.42 126.77 143.79
  C 125.93 142.84 124.86 142.85 124.19 141.76
  Q 123.83 141.19 123.20 140.99
  Q 122.43 140.74 121.87 140.23
  Q 118.65 137.32 116.94 135.99
  Q 116.26 135.45 115.69 134.89
  Q 114.93 134.13 114.10 133.54
  Q 111.67 131.80 109.46 130.01
  C 108.39 129.14 108.13 127.83 106.52 127.66
  Q 106.00 127.61 105.64 127.24
  C 104.71 126.30 103.84 125.23 102.68 124.57
  Q 101.34 123.82 100.44 122.67
  Q 99.61 121.62 98.38 121.36
  Q 97.02 121.06 95.74 120.86
  Q 95.40 120.81 95.35 121.15
  Q 95.33 121.32 95.22 121.47
  Q 95.06 121.68 94.69 121.53
  L 94.70 115.06
  A 0.28 0.28 0.0 0 1 95.16 114.84
  L 158.87 166.67
  Z"
/>
<path fill="#020101" fill-opacity="0.224" d="
  M 417.93 161.91
  Q 412.52 162.74 410.61 158.28
  Q 410.42 157.85 410.00 157.62
  L 409.49 157.33
  A 1.67 1.64 -0.5 0 1 408.86 156.72
  Q 407.79 154.96 406.47 153.44
  Q 399.00 144.83 391.36 135.98
  Q 390.07 134.48 388.04 133.68
  Q 387.68 133.54 387.47 133.86
  Q 387.27 134.18 386.88 134.26
  Q 386.54 134.33 386.64 133.99
  Q 386.70 133.79 386.45 133.86
  Q 386.37 133.88 386.38 133.96
  Q 386.45 134.63 385.86 134.54
  L 385.87 124.40
  Q 385.87 123.84 386.23 124.27
  L 417.93 161.91
  Z"
/>
<path fill="#020101" fill-opacity="0.224" d="
  M 452.58 170.44
  Q 452.18 170.89 451.40 170.75
  Q 450.90 170.66 450.71 170.19
  Q 448.90 165.74 448.89 162.56
  Q 448.85 150.08 448.89 136.15
  Q 448.89 134.51 448.17 133.10
  Q 447.23 131.25 443.61 133.43
  L 451.04 124.47
  Q 451.74 123.63 451.74 124.73
  L 451.89 170.02
  Q 451.89 170.36 452.24 170.39
  Q 452.41 170.40 452.58 170.44
  Z"
/>
<path fill="#020101" fill-opacity="0.224" d="
  M 171.26 139.94
  L 171.32 150.94
  Q 171.32 151.41 171.78 151.41
  L 180.49 151.50
  Q 181.11 151.51 180.79 152.05
  L 170.44 169.68
  Q 170.21 170.09 170.68 170.08
  L 186.47 169.76
  Q 179.09 174.87 170.55 170.75
  A 1.24 1.23 18.0 0 1 169.86 169.41
  C 170.23 167.39 169.70 165.25 171.03 163.52
  Q 173.17 160.73 173.91 156.90
  A 2.00 1.99 -65.4 0 0 173.20 154.96
  Q 172.49 154.38 172.10 153.56
  Q 171.95 153.23 171.60 153.11
  Q 170.41 152.71 169.67 151.34
  Q 167.19 146.80 168.85 142.25
  Q 169.48 140.52 171.26 139.94
  Z"
/>
<path fill="#020101" fill-opacity="0.224" d="
  M 433.79 145.21
  Q 434.03 145.04 434.15 145.15
  A 0.59 0.59 0.0 0 1 434.07 146.05
  Q 432.68 147.04 432.18 148.53
  Q 432.03 148.98 431.68 149.29
  Q 430.55 150.29 429.54 151.48
  Q 428.89 152.23 428.15 152.84
  Q 427.50 153.38 427.33 154.11
  Q 427.17 154.80 426.70 155.38
  Q 424.98 157.49 422.73 158.52
  L 433.79 145.21
  Z"
/>
<path fill="#020101" fill-opacity="0.224" d="
  M 260.31 170.22
  Q 255.37 171.74 250.00 171.10
  Q 248.12 170.88 246.46 170.02
  Q 244.91 169.20 243.84 167.55
  Q 241.54 164.04 239.46 159.70
  Q 238.49 157.68 236.64 155.41
  Q 234.60 152.88 230.83 152.87
  Q 213.60 152.82 197.01 152.95
  Q 196.43 152.96 196.60 153.50
  Q 196.66 153.73 196.46 153.92
  Q 196.27 154.10 196.02 154.13
  Q 195.49 154.20 194.97 153.98
  L 196.00 151.93
  A 0.83 0.82 -76.6 0 1 196.74 151.47
  L 238.07 151.47
  Q 238.52 151.47 238.73 151.87
  L 247.97 169.47
  Q 248.19 169.89 248.66 169.90
  L 260.31 170.22
  Z"
/>
</svg>
