<?xml version="1.0" encoding="UTF-8" standalone="no"?>
<!DOCTYPE svg PUBLIC "-//W3C//DTD SVG 1.1//EN" "http://www.w3.org/Graphics/SVG/1.1/DTD/svg11.dtd">
<svg xmlns="http://www.w3.org/2000/svg" version="1.1" viewBox="0.00 0.00 590.00 255.00">
<g stroke-width="2.00" fill="none" stroke-linecap="butt">
<path stroke="#ca4f01" stroke-opacity="0.631" vector-effect="non-scaling-stroke" d="
  M 273.74 82.78
  L 267.66 82.11"
/>
<path stroke="#ca4f01" stroke-opacity="0.631" vector-effect="non-scaling-stroke" d="
  M 309.53 136.28
  L 306.95 144.95"
/>
<path stroke="#ca4f01" stroke-opacity="0.631" vector-effect="non-scaling-stroke" d="
  M 306.95 144.95
  L 305.95 147.15"
/>
<path stroke="#ca4f01" stroke-opacity="0.631" vector-effect="non-scaling-stroke" d="
  M 304.96 149.20
  Q 294.46 167.41 275.28 171.98
  Q 265.11 174.40 255.83 172.34
  C 241.44 169.14 229.23 159.79 223.51 146.70
  C 212.36 121.18 224.37 94.01 250.36 84.23"
/>
<path stroke="#ca4f01" stroke-opacity="0.631" vector-effect="non-scaling-stroke" d="
  M 253.92 83.23
  L 258.82 82.32"
/>
<path stroke="#ca4f01" stroke-opacity="0.631" vector-effect="non-scaling-stroke" d="
  M 513.11 82.31
  Q 504.11 84.48 497.78 89.29
  Q 496.53 90.24 497.20 91.66
  L 499.82 97.32
  Q 500.37 98.50 501.38 97.67
  Q 503.50 95.93 505.84 94.60
  C 516.29 88.66 533.28 89.31 535.14 104.57
  C 536.75 117.80 527.43 128.74 518.30 138.32
  C 510.85 146.13 502.91 153.72 494.79 161.23
  A 1.28 1.26 -21.4 0 0 494.37 162.17
  L 494.37 168.01
  Q 494.37 168.70 495.06 168.70
  L 547.04 168.88"
/>
<path stroke="#ca4f01" stroke-opacity="0.631" vector-effect="non-scaling-stroke" d="
  M 544.91 117.64
  L 543.70 120.72"
/>
<path stroke="#ca4f01" stroke-opacity="0.631" vector-effect="non-scaling-stroke" d="
  M 537.74 130.68
  Q 530.38 139.98 521.95 148.22"
/>
<path stroke="#ca4f01" stroke-opacity="0.631" vector-effect="non-scaling-stroke" d="
  M 524.78 159.24
  L 534.83 159.13"
/>
<path stroke="#cacaca" stroke-opacity="0.631" vector-effect="non-scaling-stroke" d="
  M 455.08 168.89
  L 443.78 168.71
  A 0.43 0.43 0.0 0 1 443.36 168.28
  L 443.07 83.52"
/>
<path stroke="#cacaca" stroke-opacity="0.631" vector-effect="non-scaling-stroke" d="
  M 118.16 87.11
  L 118.15 97.06"
/>
<path stroke="#cacaca" stroke-opacity="0.631" vector-effect="non-scaling-stroke" d="
  M 115.95 165.58
  L 53.25 114.54
  A 0.26 0.26 0.0 0 0 52.83 114.74
  L 52.85 167.54
  Q 52.86 168.19 52.21 168.22
  L 41.45 168.70
  A 0.51 0.51 0.0 0 1 40.91 168.19
  L 40.97 89.71"
/>
<path stroke="#cacaca" stroke-opacity="0.631" vector-effect="non-scaling-stroke" d="
  M 98.51 132.57
  L 104.12 137.27
  A 0.20 0.19 19.7 0 0 104.44 137.12
  L 104.34 84.50"
/>
<path stroke="#cacaca" stroke-opacity="0.631" vector-effect="non-scaling-stroke" d="
  M 414.81 168.78
  L 403.07 168.72
  A 0.48 0.48 0.0 0 1 402.59 168.24
  L 402.43 124.01
  Q 402.43 123.28 401.96 123.84
  L 379.68 150.59"
/>
<path stroke="#cacaca" stroke-opacity="0.631" vector-effect="non-scaling-stroke" d="
  M 370.07 161.64
  L 338.36 123.94
  Q 337.86 123.36 337.86 124.12
  L 337.83 134.14"
/>
<path stroke="#cacaca" stroke-opacity="0.631" vector-effect="non-scaling-stroke" d="
  M 334.27 168.94
  L 325.09 168.76
  A 0.77 0.77 0.0 0 1 324.34 167.99
  L 324.33 84.98"
/>
<path stroke="#cacaca" stroke-opacity="0.631" vector-effect="non-scaling-stroke" d="
  M 367.74 135.53
  L 370.13 138.15
  Q 370.48 138.53 370.82 138.14
  L 414.59 86.68"
/>
<path stroke="#cacaca" stroke-opacity="0.631" vector-effect="non-scaling-stroke" d="
  M 215.49 168.74
  L 204.19 168.75
  A 1.53 1.52 76.1 0 1 202.84 167.93
  L 194.02 151.07
  Q 193.73 150.51 193.09 150.51
  L 152.99 150.51
  Q 152.50 150.51 152.25 150.93
  L 150.31 154.19"
/>
<path stroke="#cacaca" stroke-opacity="0.631" vector-effect="non-scaling-stroke" d="
  M 140.01 168.78
  L 127.54 168.74
  A 0.37 0.36 -74.7 0 1 127.23 168.19
  L 137.19 151.24
  Q 137.61 150.53 136.78 150.52
  L 128.29 150.50
  Q 127.81 150.50 127.80 150.02
  L 127.59 139.74"
/>
<path stroke="#cacaca" stroke-opacity="0.631" vector-effect="non-scaling-stroke" d="
  M 139.87 137.72
  L 143.40 137.72
  Q 143.91 137.72 144.16 137.27
  L 171.14 88.27"
/>
<path stroke="#ca4f01" stroke-opacity="0.631" vector-effect="non-scaling-stroke" d="
  M 255.94 158.30
  A 28.35 24.44 15.3 0 0 259.85 159.18"
/>
<path stroke="#ca4f01" stroke-opacity="0.631" vector-effect="non-scaling-stroke" d="
  M 260.89 159.33
  A 31.97 31.88 -49.3 0 0 273.60 158.36"
/>
<path stroke="#ca4f01" stroke-opacity="0.631" vector-effect="non-scaling-stroke" d="
  M 274.19 158.19
  A 31.86 31.85 83.8 0 0 296.65 130.23
  A 31.86 31.86 0.0 0 0 278.54 98.93
  A 31.86 31.86 0.0 0 0 246.62 101.61
  A 31.85 31.85 0.0 0 0 234.81 117.20"
/>
<path stroke="#cacaca" stroke-opacity="0.631" vector-effect="non-scaling-stroke" d="
  M 162.16 137.42
  L 187.15 137.57
  A 0.41 0.40 76.1 0 0 187.51 136.97
  L 173.15 110.58
  A 0.25 0.24 44.6 0 0 172.72 110.58
  L 168.20 118.87"
/>
</g>
<path fill="#010100" fill-opacity="0.263" d="
  M 273.74 82.78
  L 267.66 82.11
  Q 271.54 81.22 273.74 82.78
  Z"
/>
<path fill="#010100" fill-opacity="0.263" d="
  M 513.11 82.31
  Q 504.11 84.48 497.78 89.29
  Q 496.53 90.24 497.20 91.66
  L 499.82 97.32
  Q 500.37 98.50 501.38 97.67
  Q 503.50 95.93 505.84 94.60
  C 516.29 88.66 533.28 89.31 535.14 104.57
  C 536.75 117.80 527.43 128.74 518.30 138.32
  C 510.85 146.13 502.91 153.72 494.79 161.23
  A 1.28 1.26 -21.4 0 0 494.37 162.17
  L 494.37 168.01
  Q 494.37 168.70 495.06 168.70
  L 547.04 168.88
  Q 546.09 169.32 545.32 170.16
  Q 544.95 170.58 544.39 170.62
  Q 542.96 170.72 541.69 171.28
  Q 540.33 171.89 538.65 171.89
  Q 519.45 171.97 501.44 171.78
  Q 498.50 171.75 495.11 171.56
  Q 493.93 171.49 493.01 170.80
  Q 492.28 170.24 491.57 169.67
  Q 491.17 169.34 491.07 168.83
  Q 490.55 165.97 491.10 163.23
  A 1.31 1.30 -10.6 0 1 491.69 162.38
  Q 492.37 161.96 492.32 161.15
  Q 492.29 160.57 492.76 160.21
  Q 492.86 160.13 492.99 160.11
  Q 493.20 160.07 493.36 159.92
  Q 503.79 149.53 513.62 139.72
  Q 515.66 137.68 517.34 135.47
  Q 519.01 133.26 521.01 131.40
  Q 521.26 131.18 521.33 130.85
  Q 521.43 130.32 521.87 129.99
  Q 522.60 129.44 523.00 128.55
  Q 523.55 127.32 524.44 126.56
  Q 525.34 125.79 525.80 124.79
  Q 526.87 122.49 528.17 120.08
  Q 529.51 117.57 529.98 115.22
  Q 531.48 107.57 528.37 101.69
  Q 527.05 99.19 524.12 97.03
  Q 521.84 95.34 519.23 95.03
  Q 514.06 94.43 509.58 95.81
  Q 505.78 96.99 502.06 98.84
  C 500.64 99.55 499.41 99.31 497.92 99.41
  Q 497.38 99.44 497.05 99.02
  Q 495.61 97.23 494.84 95.37
  C 493.67 92.56 494.39 89.73 497.08 88.29
  Q 498.92 87.29 500.43 85.96
  Q 500.78 85.64 501.24 85.52
  Q 503.25 85.01 504.63 83.83
  Q 505.02 83.50 505.50 83.63
  Q 506.44 83.88 506.88 83.10
  Q 506.98 82.92 507.19 82.89
  Q 508.35 82.76 509.73 82.10
  Q 511.44 81.28 513.11 82.31
  Z"
/>
<path fill="#ff6401" d="
  M 267.66 82.11
  L 273.74 82.78
  Q 284.84 85.21 292.81 91.68
  Q 313.64 108.61 309.53 136.28
  L 306.95 144.95
  L 305.95 147.15
  L 304.96 149.20
  Q 294.46 167.41 275.28 171.98
  Q 265.11 174.40 255.83 172.34
  C 241.44 169.14 229.23 159.79 223.51 146.70
  C 212.36 121.18 224.37 94.01 250.36 84.23
  L 253.92 83.23
  L 258.82 82.32
  L 267.66 82.11
  Z
  M 234.81 117.20
  A 31.87 31.85 -51.0 0 0 237.67 144.30
  A 31.92 31.86 -7.5 0 0 255.94 158.30
  A 28.35 24.44 15.3 0 0 259.85 159.18
  A 7.43 0.99 8.4 0 0 260.89 159.33
  A 31.97 31.88 -49.3 0 0 273.60 158.36
  A 4.52 0.66 -18.5 0 0 274.19 158.19
  A 31.86 31.85 83.8 0 0 296.65 130.23
  A 31.86 31.86 0.0 0 0 278.54 98.93
  A 31.86 31.86 0.0 0 0 246.62 101.61
  A 31.85 31.85 0.0 0 0 234.81 117.20
  Z"
/>
<path fill="#ff6401" d="
  M 544.91 117.64
  L 543.70 120.72
  L 537.74 130.68
  Q 530.38 139.98 521.95 148.22
  L 511.16 158.82
  Q 510.78 159.19 511.31 159.19
  L 524.78 159.24
  L 534.83 159.13
  L 548.46 159.28
  A 0.44 0.43 90.0 0 1 548.89 159.72
  L 548.88 168.23
  Q 548.88 168.61 548.51 168.66
  L 547.04 168.88
  L 495.06 168.70
  Q 494.37 168.70 494.37 168.01
  L 494.37 162.17
  A 1.28 1.26 -21.4 0 1 494.79 161.23
  C 502.91 153.72 510.85 146.13 518.30 138.32
  C 527.43 128.74 536.75 117.80 535.14 104.57
  C 533.28 89.31 516.29 88.66 505.84 94.60
  Q 503.50 95.93 501.38 97.67
  Q 500.37 98.50 499.82 97.32
  L 497.20 91.66
  Q 496.53 90.24 497.78 89.29
  Q 504.11 84.48 513.11 82.31
  Q 523.61 81.34 527.51 82.20
  C 544.77 85.99 550.23 102.19 544.91 117.64
  Z"
/>
<path fill="#010100" fill-opacity="0.263" d="
  M 258.82 82.32
  L 253.92 83.23
  Q 256.10 81.58 258.82 82.32
  Z"
/>
<path fill="#ffffff" d="
  M 455.08 168.89
  L 443.78 168.71
  A 0.43 0.43 0.0 0 1 443.36 168.28
  L 443.07 83.52
  L 443.35 83.16
  Q 443.61 82.82 444.03 82.82
  L 456.48 82.95
  A 0.79 0.78 0.4 0 1 457.26 83.73
  L 457.25 168.01
  Q 457.25 168.53 456.74 168.62
  L 455.08 168.89
  Z"
/>
<path fill="#010100" fill-opacity="0.263" d="
  M 443.07 83.52
  L 443.36 168.28
  A 0.43 0.43 0.0 0 0 443.78 168.71
  L 455.08 168.89
  Q 450.59 173.33 443.60 171.49
  Q 441.43 170.92 440.36 169.28
  Q 439.13 167.37 439.12 164.93
  Q 439.10 127.87 439.12 90.20
  Q 439.12 87.34 440.87 85.11
  Q 441.17 84.72 441.66 84.69
  Q 442.77 84.63 443.07 83.52
  Z"
/>
<path fill="#ffffff" d="
  M 118.16 87.11
  L 118.15 97.06
  L 118.18 161.67
  L 118.03 166.57
  Q 118.01 167.18 117.52 166.81
  L 115.95 165.58
  L 53.25 114.54
  A 0.26 0.26 0.0 0 0 52.83 114.74
  L 52.85 167.54
  Q 52.86 168.19 52.21 168.22
  L 41.45 168.70
  A 0.51 0.51 0.0 0 1 40.91 168.19
  L 40.97 89.71
  L 41.08 85.49
  A 0.24 0.24 0.0 0 1 41.47 85.31
  L 98.51 132.57
  L 104.12 137.27
  A 0.20 0.19 19.7 0 0 104.44 137.12
  L 104.34 84.50
  Q 110.39 83.58 117.46 84.04
  Q 117.98 84.08 118.01 84.60
  L 118.16 87.11
  Z"
/>
<path fill="#010100" fill-opacity="0.263" d="
  M 250.36 84.23
  C 224.37 94.01 212.36 121.18 223.51 146.70
  C 229.23 159.79 241.44 169.14 255.83 172.34
  Q 265.11 174.40 275.28 171.98
  Q 294.46 167.41 304.96 149.20
  Q 305.13 150.32 304.45 150.96
  Q 304.10 151.30 303.98 151.78
  L 303.83 152.37
  Q 303.70 152.89 303.33 153.28
  Q 302.35 154.30 301.63 155.66
  Q 300.78 157.25 299.98 158.15
  Q 298.24 160.10 296.74 162.03
  Q 295.83 163.19 294.57 164.26
  Q 293.26 165.37 292.05 166.49
  Q 286.47 171.65 279.21 173.58
  Q 277.19 174.12 275.38 175.07
  Q 273.04 176.30 270.33 176.39
  C 268.84 176.44 267.65 177.14 266.19 177.13
  C 262.61 177.11 258.47 177.58 255.04 176.64
  Q 253.01 176.09 251.01 175.64
  Q 241.10 173.47 232.71 166.57
  Q 229.66 164.07 226.54 161.19
  Q 225.29 160.04 224.56 158.63
  Q 223.82 157.22 222.80 156.02
  Q 222.41 155.56 222.37 154.95
  C 222.27 153.46 220.57 152.39 219.96 150.89
  Q 218.48 147.26 216.94 143.68
  C 216.26 142.08 216.46 140.30 215.74 138.77
  Q 215.24 137.73 215.15 136.59
  Q 214.30 126.53 215.57 120.52
  Q 216.43 116.45 218.53 110.93
  Q 220.13 106.74 222.91 103.32
  Q 226.60 98.75 230.36 94.51
  C 231.22 93.54 232.60 92.30 233.81 91.74
  Q 234.47 91.43 234.82 90.79
  Q 235.06 90.36 235.54 90.22
  Q 237.94 89.53 239.67 87.94
  Q 240.02 87.62 240.50 87.62
  L 240.89 87.62
  Q 241.23 87.62 241.43 87.34
  Q 242.09 86.49 243.07 86.64
  Q 243.60 86.72 243.88 86.26
  Q 244.11 85.89 244.48 85.72
  Q 246.94 84.64 250.36 84.23
  Z"
/>
<path fill="#ffffff" d="
  M 414.81 168.78
  L 403.07 168.72
  A 0.48 0.48 0.0 0 1 402.59 168.24
  L 402.43 124.01
  Q 402.43 123.28 401.96 123.84
  L 379.68 150.59
  L 370.07 161.64
  L 338.36 123.94
  Q 337.86 123.36 337.86 124.12
  L 337.83 134.14
  L 337.93 168.03
  Q 337.93 168.55 337.41 168.61
  L 334.27 168.94
  L 325.09 168.76
  A 0.77 0.77 0.0 0 1 324.34 167.99
  L 324.33 84.98
  L 367.74 135.53
  L 370.13 138.15
  Q 370.48 138.53 370.82 138.14
  L 414.59 86.68
  L 416.77 84.41
  Q 417.06 84.10 417.06 84.53
  L 417.13 168.02
  Q 417.13 168.46 416.71 168.58
  Q 415.79 168.83 414.81 168.78
  Z"
/>
<path fill="#ffffff" d="
  M 215.49 168.74
  L 204.19 168.75
  A 1.53 1.52 76.1 0 1 202.84 167.93
  L 194.02 151.07
  Q 193.73 150.51 193.09 150.51
  L 152.99 150.51
  Q 152.50 150.51 152.25 150.93
  L 150.31 154.19
  L 142.68 168.02
  Q 142.44 168.46 141.95 168.59
  Q 140.94 168.86 140.01 168.78
  L 127.54 168.74
  A 0.37 0.36 -74.7 0 1 127.23 168.19
  L 137.19 151.24
  Q 137.61 150.53 136.78 150.52
  L 128.29 150.50
  Q 127.81 150.50 127.80 150.02
  L 127.59 139.74
  L 127.93 138.33
  Q 128.05 137.83 128.56 137.83
  L 139.87 137.72
  L 143.40 137.72
  Q 143.91 137.72 144.16 137.27
  L 171.14 88.27
  L 172.77 85.28
  A 0.38 0.38 0.0 0 1 173.43 85.28
  L 219.26 167.80
  A 0.60 0.60 0.0 0 1 218.74 168.70
  L 215.49 168.74
  Z
  M 168.20 118.87
  L 158.48 136.81
  Q 158.24 137.27 158.73 137.42
  Q 160.32 137.89 162.16 137.42
  L 187.15 137.57
  A 0.41 0.40 76.1 0 0 187.51 136.97
  L 173.15 110.58
  A 0.25 0.24 44.6 0 0 172.72 110.58
  L 168.20 118.87
  Z"
/>
<path fill="#010100" fill-opacity="0.263" d="
  M 104.34 84.50
  L 104.44 137.12
  A 0.20 0.19 19.7 0 1 104.12 137.27
  L 98.51 132.57
  Q 99.28 132.90 99.92 131.34
  Q 100.18 130.70 100.19 130.03
  Q 100.53 111.20 100.29 91.38
  Q 100.27 89.45 101.44 87.86
  Q 102.47 86.45 104.34 84.50
  Z"
/>
<path fill="#010100" fill-opacity="0.263" d="
  M 324.33 84.98
  L 324.34 167.99
  A 0.77 0.77 0.0 0 0 325.09 168.76
  L 334.27 168.94
  L 332.42 171.49
  Q 332.12 171.90 331.62 171.97
  Q 327.60 172.54 323.75 171.49
  Q 322.54 171.16 321.78 170.32
  C 321.00 169.47 320.46 168.81 320.31 167.58
  C 320.13 166.08 319.87 164.63 319.86 163.13
  Q 319.86 131.04 320.00 95.75
  Q 320.01 92.79 320.88 91.13
  Q 321.53 89.87 323.06 89.77
  A 0.67 0.66 2.1 0 0 323.67 89.21
  L 324.33 84.98
  Z"
/>
<path fill="#010100" fill-opacity="0.263" d="
  M 414.59 86.68
  L 370.82 138.14
  Q 370.48 138.53 370.13 138.15
  L 367.74 135.53
  Q 369.44 136.95 370.68 135.23
  Q 372.29 133.01 374.02 131.26
  Q 374.32 130.95 374.46 130.54
  Q 374.61 130.11 374.97 129.84
  C 376.59 128.62 377.30 126.92 378.66 125.48
  Q 380.26 123.81 381.91 121.94
  Q 382.79 120.96 383.49 119.80
  Q 383.73 119.41 384.09 119.12
  Q 385.23 118.20 386.08 116.99
  Q 386.94 115.77 387.87 114.70
  Q 388.81 113.61 389.87 112.53
  Q 392.68 109.63 394.70 106.27
  Q 395.46 105.00 396.44 103.85
  Q 397.35 102.77 398.38 101.81
  Q 400.91 99.48 402.86 96.12
  Q 403.07 95.75 403.46 95.60
  Q 404.41 95.23 404.78 94.12
  Q 404.94 93.66 405.31 93.33
  Q 406.61 92.16 407.95 90.83
  Q 409.16 89.63 410.81 88.75
  Q 412.65 87.78 414.59 86.68
  Z"
/>
<path fill="#010100" fill-opacity="0.263" d="
  M 118.16 87.11
  Q 119.23 92.04 118.15 97.06
  L 118.16 87.11
  Z"
/>
<path fill="#010100" fill-opacity="0.263" d="
  M 171.14 88.27
  L 144.16 137.27
  Q 143.91 137.72 143.40 137.72
  L 139.87 137.72
  Q 143.42 134.48 145.11 130.98
  Q 147.22 126.63 148.98 123.86
  Q 149.93 122.37 150.49 120.98
  Q 151.15 119.35 151.91 118.13
  Q 153.92 114.87 155.54 111.40
  Q 156.18 110.02 157.37 108.31
  Q 158.39 106.84 159.09 105.09
  Q 159.25 104.68 159.63 104.52
  Q 159.96 104.37 159.90 104.02
  Q 159.72 103.14 160.41 102.65
  Q 160.82 102.35 161.05 101.90
  Q 163.26 97.41 165.74 92.74
  Q 166.88 90.60 171.14 88.27
  Z"
/>
<path fill="#010100" fill-opacity="0.263" d="
  M 40.97 89.71
  L 40.91 168.19
  A 0.51 0.51 0.0 0 0 41.45 168.70
  L 52.21 168.22
  Q 52.86 168.19 52.85 167.54
  L 52.83 114.74
  A 0.26 0.26 0.0 0 1 53.25 114.54
  L 115.95 165.58
  Q 112.13 168.01 109.75 166.12
  Q 96.68 155.67 90.62 150.63
  Q 90.39 150.44 90.18 150.41
  Q 89.92 150.38 89.72 150.21
  Q 78.72 141.12 67.71 132.06
  Q 66.01 130.66 62.88 128.42
  C 60.56 126.76 58.27 124.03 55.36 122.92
  Q 54.99 122.78 54.63 122.95
  Q 53.80 123.35 54.69 123.60
  Q 56.55 124.10 57.85 125.32
  Q 59.49 126.86 60.64 127.22
  Q 60.73 127.25 60.80 127.29
  Q 60.96 127.38 60.86 127.55
  A 0.32 0.32 0.0 0 0 60.93 127.95
  Q 62.25 129.07 63.50 130.33
  Q 64.67 131.51 66.21 132.54
  Q 67.88 133.66 69.17 135.03
  Q 69.26 135.13 69.40 135.12
  Q 69.54 135.10 69.69 135.10
  Q 69.79 135.11 69.86 135.17
  Q 71.82 136.96 74.07 138.53
  Q 74.73 138.98 75.21 139.64
  Q 75.74 140.35 76.48 140.72
  Q 77.51 141.23 78.36 142.01
  Q 80.00 143.50 81.48 145.04
  Q 81.69 145.25 81.98 145.29
  Q 82.45 145.34 82.77 145.69
  Q 85.42 148.62 88.48 150.85
  Q 89.56 151.64 90.77 152.24
  Q 91.23 152.47 91.46 152.92
  Q 91.74 153.46 92.32 153.61
  Q 92.94 153.77 92.93 154.41
  Q 92.92 154.74 93.23 154.85
  Q 94.72 155.39 94.64 156.11
  Q 92.06 154.10 89.49 152.17
  Q 86.65 150.04 84.21 147.61
  Q 82.84 146.25 81.24 145.54
  Q 80.83 145.35 80.55 145.00
  Q 79.71 143.97 78.66 143.29
  Q 77.61 142.62 76.65 141.81
  Q 71.53 137.51 65.98 133.38
  Q 65.73 133.20 65.67 132.91
  Q 65.59 132.47 65.22 132.22
  Q 62.92 130.67 60.90 128.86
  Q 58.52 126.72 55.83 124.50
  A 0.93 0.92 30.0 0 0 54.37 124.89
  Q 53.02 128.58 53.48 132.18
  Q 53.86 135.13 53.86 137.97
  Q 53.90 151.22 53.87 166.80
  Q 53.87 167.93 53.04 168.71
  Q 52.15 169.55 50.63 169.58
  Q 50.26 169.59 50.03 169.87
  C 48.62 171.53 44.96 171.06 43.49 170.17
  Q 42.68 169.68 41.70 169.91
  A 1.34 1.34 0.0 0 1 40.14 169.08
  Q 39.41 167.11 38.69 165.20
  Q 37.93 163.16 37.70 161.31
  Q 37.29 157.96 37.03 154.89
  C 36.83 152.43 36.12 150.19 36.12 147.60
  Q 36.14 125.53 36.09 103.33
  Q 36.08 100.40 36.86 97.85
  Q 38.03 94.01 38.73 90.30
  Q 38.87 89.54 39.57 89.13
  Q 39.88 88.95 39.86 89.31
  Q 39.85 89.48 39.93 89.62
  Q 40.13 89.93 40.43 89.73
  Q 40.74 89.53 40.97 89.71
  Z"
/>
<path fill="#010100" fill-opacity="0.263" d="
  M 274.19 158.19
  Q 274.55 157.08 276.24 156.71
  A 0.93 0.92 -79.8 0 0 276.84 156.29
  Q 277.20 155.73 277.83 155.84
  Q 279.08 156.06 279.34 154.86
  Q 279.42 154.50 279.79 154.54
  Q 280.16 154.58 280.43 154.33
  Q 285.30 149.98 288.36 144.31
  Q 288.88 143.34 289.15 142.30
  Q 289.44 141.20 290.02 140.25
  Q 290.89 138.85 291.31 137.26
  Q 292.60 132.35 292.08 127.76
  Q 291.75 124.86 290.56 119.60
  A 1.18 1.16 -73.6 0 0 290.24 119.00
  L 290.00 118.76
  Q 289.63 118.38 289.58 117.85
  Q 289.43 116.09 288.88 115.14
  Q 287.22 112.28 284.04 108.90
  Q 283.39 108.22 281.90 107.20
  Q 280.74 106.40 279.91 105.26
  A 1.57 1.53 80.9 0 0 279.12 104.67
  Q 278.44 104.43 277.92 103.93
  Q 277.24 103.27 276.29 102.83
  Q 272.61 101.13 269.94 100.34
  Q 263.59 98.45 257.76 99.59
  C 256.42 99.86 255.06 99.76 253.81 100.17
  Q 247.68 102.21 242.70 106.21
  Q 241.99 106.78 241.62 107.56
  Q 241.45 107.92 241.20 108.23
  L 237.59 112.67
  Q 237.19 113.16 237.23 113.79
  Q 237.29 114.70 236.60 115.07
  Q 236.20 115.28 236.22 115.74
  Q 236.28 116.77 235.55 117.38
  Q 235.14 117.72 235.22 118.24
  Q 235.38 119.39 234.73 120.21
  Q 234.04 121.07 234.43 120.04
  Q 235.01 118.52 234.81 117.20
  A 31.85 31.85 0.0 0 1 246.62 101.61
  A 31.86 31.86 0.0 0 1 278.54 98.93
  A 31.86 31.86 0.0 0 1 296.65 130.23
  A 31.86 31.85 83.8 0 1 274.19 158.19
  Z"
/>
<path fill="#010100" fill-opacity="0.263" d="
  M 162.16 137.42
  L 177.86 136.86
  A 1.86 1.85 75.4 0 0 179.44 134.16
  Q 178.90 133.10 178.58 131.95
  A 2.94 2.80 -70.1 0 0 178.26 131.22
  Q 177.51 130.03 176.91 128.69
  Q 175.42 125.41 173.13 121.51
  Q 171.37 118.51 168.20 118.87
  L 172.72 110.58
  A 0.25 0.24 44.6 0 1 173.15 110.58
  L 187.51 136.97
  A 0.41 0.40 76.1 0 1 187.15 137.57
  L 162.16 137.42
  Z"
/>
<path fill="#010100" fill-opacity="0.263" d="
  M 544.91 117.64
  L 544.97 118.98
  Q 544.99 119.50 544.60 119.84
  Q 543.98 120.38 544.12 121.16
  Q 544.21 121.66 543.83 121.99
  Q 543.67 122.13 543.48 122.17
  A 0.08 0.08 0.0 0 1 543.40 122.03
  Q 543.92 121.51 543.70 120.72
  L 544.91 117.64
  Z"
/>
<path fill="#010100" fill-opacity="0.263" d="
  M 414.81 168.78
  L 412.56 170.96
  Q 412.16 171.35 411.61 171.40
  Q 411.02 171.45 410.55 171.83
  Q 410.20 172.12 409.74 172.13
  Q 406.94 172.23 404.41 172.05
  Q 402.49 171.91 400.35 170.55
  Q 399.17 169.81 398.80 168.62
  Q 398.13 166.52 398.13 164.34
  Q 398.11 150.59 398.11 137.51
  C 398.11 136.50 397.84 135.69 397.83 134.70
  A 1.38 1.37 -66.5 0 0 397.48 133.81
  C 396.55 132.79 394.76 132.92 393.90 133.98
  Q 389.45 139.41 384.60 145.22
  Q 383.64 146.36 383.10 147.89
  Q 382.99 148.20 382.65 148.14
  Q 382.48 148.11 382.31 148.13
  Q 381.89 148.16 381.88 148.59
  L 381.88 149.03
  A 0.11 0.10 -87.6 0 1 381.77 149.14
  Q 381.04 149.06 380.98 149.78
  Q 380.94 150.29 380.44 150.41
  L 379.68 150.59
  L 401.96 123.84
  Q 402.43 123.28 402.43 124.01
  L 402.59 168.24
  A 0.48 0.48 0.0 0 0 403.07 168.72
  L 414.81 168.78
  Z"
/>
<path fill="#010100" fill-opacity="0.263" d="
  M 370.07 161.64
  Q 367.91 161.28 366.49 160.93
  Q 364.71 160.50 363.60 159.27
  Q 360.72 156.09 358.18 153.25
  Q 357.96 153.00 357.92 152.67
  Q 357.89 152.45 357.73 152.27
  Q 349.64 143.66 341.63 133.53
  Q 341.25 133.05 340.68 132.84
  Q 340.18 132.66 339.91 132.22
  Q 339.49 131.54 338.93 132.10
  Q 338.82 132.20 338.66 132.22
  Q 338.35 132.24 338.40 132.55
  Q 338.58 133.88 337.83 134.14
  L 337.86 124.12
  Q 337.86 123.36 338.36 123.94
  L 370.07 161.64
  Z"
/>
<path fill="#010100" fill-opacity="0.263" d="
  M 537.74 130.68
  Q 537.67 132.11 536.61 132.94
  Q 536.24 133.23 536.24 133.71
  Q 536.24 134.06 535.95 134.23
  A 2.51 2.51 0.0 0 0 535.24 134.89
  Q 534.11 136.49 532.71 138.02
  Q 531.39 139.46 530.21 141.14
  Q 528.70 143.32 526.52 145.26
  Q 522.77 148.59 519.29 152.23
  Q 518.81 152.73 518.99 152.06
  Q 519.14 151.48 519.60 151.27
  Q 520.05 151.08 520.33 150.66
  L 521.95 148.22
  Q 530.38 139.98 537.74 130.68
  Z"
/>
<path fill="#010100" fill-opacity="0.263" d="
  M 309.53 136.28
  Q 309.84 137.49 309.34 138.60
  Q 309.13 139.05 309.13 139.55
  L 309.13 141.32
  Q 309.13 141.85 308.63 142.03
  Q 307.93 142.28 307.86 143.00
  Q 307.71 144.51 306.95 144.95
  L 309.53 136.28
  Z"
/>
<path fill="#010100" fill-opacity="0.263" d="
  M 127.59 139.74
  L 127.80 150.02
  Q 127.81 150.50 128.29 150.50
  L 136.78 150.52
  Q 137.61 150.53 137.19 151.24
  L 127.23 168.19
  A 0.37 0.36 -74.7 0 0 127.54 168.74
  L 140.01 168.78
  Q 138.18 171.12 133.23 171.28
  Q 128.04 171.46 126.22 169.15
  Q 125.94 168.79 125.97 168.35
  Q 126.18 165.28 127.53 163.11
  Q 129.11 160.58 130.18 158.01
  C 130.84 156.43 130.42 154.66 128.89 153.65
  Q 127.33 152.63 125.89 151.76
  Q 125.46 151.50 125.23 151.06
  Q 121.43 143.63 127.59 139.74
  Z"
/>
<path fill="#010100" fill-opacity="0.263" d="
  M 306.95 144.95
  Q 307.18 147.31 305.95 147.15
  L 306.95 144.95
  Z"
/>
<path fill="#010100" fill-opacity="0.263" d="
  M 215.49 168.74
  Q 214.10 170.90 211.75 171.41
  Q 211.56 171.45 211.46 171.58
  Q 211.27 171.84 210.94 171.86
  Q 206.13 172.16 203.28 171.56
  Q 199.05 170.67 196.54 166.40
  Q 194.69 163.23 193.22 159.73
  Q 192.25 157.45 190.37 155.93
  Q 187.95 153.99 185.75 153.89
  Q 175.17 153.44 150.31 154.19
  L 152.25 150.93
  Q 152.50 150.51 152.99 150.51
  L 193.09 150.51
  Q 193.73 150.51 194.02 151.07
  L 202.84 167.93
  A 1.53 1.52 76.1 0 0 204.19 168.75
  L 215.49 168.74
  Z"
/>
<path fill="#010100" fill-opacity="0.263" d="
  M 255.94 158.30
  Q 258.27 157.93 259.85 159.18
  A 28.35 24.44 15.3 0 1 255.94 158.30
  Z"
/>
<path fill="#010100" fill-opacity="0.263" d="
  M 273.60 158.36
  A 31.97 31.88 -49.3 0 1 260.89 159.33
  Q 265.36 159.32 269.55 158.76
  Q 269.61 158.76 271.37 158.22
  Q 272.42 157.90 273.60 158.36
  Z"
/>
<path fill="#010100" fill-opacity="0.263" d="
  M 534.83 159.13
  L 524.78 159.24
  L 534.83 159.13
  Z"
/>
</svg>
