<?xml version="1.0" encoding="UTF-8" standalone="no"?>
<!DOCTYPE svg PUBLIC "-//W3C//DTD SVG 1.1//EN" "http://www.w3.org/Graphics/SVG/1.1/DTD/svg11.dtd">
<svg xmlns="http://www.w3.org/2000/svg" version="1.1" viewBox="0.00 0.00 590.00 255.00">
<g stroke-width="2.00" fill="none" stroke-linecap="butt">
<path stroke="#858483" vector-effect="non-scaling-stroke" d="
  M 468.31 141.34
  Q 469.09 141.35 468.79 142.07
  L 460.77 161.49
  Q 460.48 162.20 461.24 162.21
  L 478.44 162.42
  A 0.28 0.27 -78.4 0 0 478.71 162.24
  L 506.56 87.51
  Q 506.75 87.01 506.22 87.01
  L 490.60 86.97
  A 0.56 0.56 0.0 0 0 490.08 87.32
  L 477.07 119.80
  Q 476.86 120.33 476.30 120.33
  L 465.95 120.28
  A 0.74 0.74 0.0 0 1 465.31 119.18
  L 482.90 87.65
  Q 483.27 86.98 482.51 86.98
  L 467.50 86.99
  Q 467.01 86.99 466.76 87.42
  Q 455.55 107.45 445.46 126.99
  Q 443.61 130.57 442.86 133.77
  C 441.74 138.55 445.45 141.57 449.97 141.49
  Q 459.98 141.31 468.31 141.34"
/>
<path stroke="#858483" vector-effect="non-scaling-stroke" d="
  M 125.52 100.14
  A 0.31 0.31 0.0 0 1 125.24 99.71
  L 130.47 87.58
  A 0.31 0.31 0.0 0 0 130.19 87.15
  L 113.93 87.21
  A 0.31 0.31 0.0 0 0 113.66 87.38
  L 97.68 120.37
  A 0.31 0.31 0.0 0 0 97.94 120.81
  L 113.64 121.50
  A 0.31 0.31 0.0 0 0 113.93 121.33
  L 120.46 107.97
  A 0.31 0.31 0.0 0 1 120.73 107.80
  L 138.58 107.76
  A 0.31 0.31 0.0 0 1 138.87 108.20
  L 132.92 121.05
  A 0.31 0.31 0.0 0 0 133.20 121.49
  L 149.42 121.49
  A 0.31 0.31 0.0 0 0 149.69 121.32
  L 165.99 87.65
  A 0.31 0.31 0.0 0 0 165.71 87.21
  L 149.54 87.17
  A 0.31 0.31 0.0 0 0 149.26 87.35
  L 143.61 100.03
  A 0.31 0.31 0.0 0 1 143.33 100.21
  L 125.52 100.14"
/>
<path stroke="#858483" vector-effect="non-scaling-stroke" d="
  M 198.73 99.92
  A 0.33 0.33 0.0 0 1 198.21 99.77
  L 194.24 87.45
  A 0.33 0.33 0.0 0 0 193.93 87.22
  L 176.02 87.17
  A 0.33 0.33 0.0 0 0 175.72 87.64
  L 185.31 109.00
  A 0.33 0.33 0.0 0 1 185.30 109.28
  L 179.64 121.03
  A 0.33 0.33 0.0 0 0 179.94 121.50
  L 196.19 121.50
  A 0.33 0.33 0.0 0 0 196.48 121.32
  L 202.80 108.66
  A 0.33 0.33 0.0 0 1 202.91 108.54
  L 232.27 87.77
  A 0.33 0.33 0.0 0 0 232.08 87.17
  L 214.44 87.21
  A 0.33 0.33 0.0 0 0 214.23 87.28
  L 198.73 99.92"
/>
<path stroke="#858483" vector-effect="non-scaling-stroke" d="
  M 245.35 110.62
  A 0.56 0.55 -77.3 0 1 245.85 110.30
  Q 258.54 110.15 272.24 110.31
  C 277.15 110.37 280.78 107.49 282.91 103.19
  Q 285.07 98.80 287.55 93.56
  C 289.78 88.81 286.58 87.15 282.29 87.10
  Q 260.53 86.80 240.83 87.27
  Q 240.32 87.28 240.09 87.74
  L 223.69 121.08
  A 0.29 0.29 0.0 0 0 223.95 121.50
  L 239.85 121.50
  Q 240.29 121.50 240.48 121.10
  L 245.35 110.62"
/>
<path stroke="#858483" vector-effect="non-scaling-stroke" d="
  M 308.03 99.68
  C 307.35 96.89 310.95 95.50 313.07 95.53
  Q 326.31 95.76 338.27 95.76
  Q 339.44 95.76 340.01 94.74
  L 343.28 88.74
  A 1.22 1.21 14.1 0 0 342.20 86.94
  Q 325.65 87.10 306.38 86.92
  C 297.78 86.84 296.15 90.17 292.40 97.75
  Q 288.19 106.27 284.45 115.00
  Q 283.35 117.56 284.46 119.70
  C 285.47 121.66 288.84 121.63 290.84 121.67
  Q 308.34 121.95 325.63 121.47
  A 1.38 1.37 -76.3 0 0 326.80 120.75
  L 330.49 113.83
  A 0.77 0.77 0.0 0 0 329.81 112.70
  L 304.45 112.74
  Q 301.98 112.75 301.86 110.29
  Q 301.85 109.93 301.94 109.58
  Q 302.47 107.67 304.45 107.67
  L 332.80 107.57
  Q 333.60 107.57 334.00 106.88
  Q 335.37 104.56 336.45 101.75
  Q 337.10 100.03 335.27 100.04
  L 308.58 100.11
  A 0.57 0.56 -6.4 0 1 308.03 99.68"
/>
<path stroke="#858483" vector-effect="non-scaling-stroke" d="
  M 377.18 110.24
  C 388.29 112.16 394.46 102.75 397.49 93.23
  C 398.73 89.36 394.65 87.07 391.40 87.05
  Q 369.21 86.89 349.53 87.01
  A 0.51 0.50 13.4 0 0 349.08 87.28
  L 332.53 121.06
  A 0.30 0.29 12.6 0 0 332.80 121.48
  L 348.22 121.48
  Q 348.76 121.48 349.01 121.01
  L 354.69 110.61
  A 0.39 0.39 0.0 0 1 355.30 110.51
  L 366.59 121.14
  Q 366.97 121.50 367.49 121.50
  L 386.50 121.50
  Q 389.61 121.50 387.23 119.51
  L 376.90 110.86
  Q 375.90 110.02 377.18 110.24"
/>
<path stroke="#858483" vector-effect="non-scaling-stroke" d="
  M 418.11 112.60
  L 419.36 109.29
  A 3.95 3.95 0.0 0 1 423.05 106.75
  L 445.02 106.75
  A 0.84 0.82 11.0 0 0 445.79 106.24
  L 453.15 88.33
  A 1.00 1.00 0.0 0 0 452.22 86.95
  Q 439.84 87.08 425.97 86.91
  C 420.00 86.84 415.54 87.67 411.37 91.80
  Q 408.54 94.60 406.52 99.95
  Q 397.01 125.06 388.19 147.63
  C 386.32 152.41 386.70 158.70 391.68 161.30
  Q 393.48 162.23 395.28 162.23
  Q 404.92 162.18 415.36 162.25
  C 425.31 162.31 432.06 152.21 435.28 144.02
  Q 437.85 137.48 440.12 129.98
  C 442.69 121.48 439.77 114.19 429.87 114.53
  Q 424.52 114.71 419.40 114.55
  Q 417.39 114.49 418.11 112.60"
/>
<path stroke="#858483" vector-effect="non-scaling-stroke" d="
  M 164.62 120.97
  A 0.36 0.36 0.0 0 0 164.95 121.49
  L 172.19 121.48
  A 0.36 0.36 0.0 0 0 172.51 121.29
  L 178.95 109.12
  A 0.36 0.36 0.0 0 0 178.95 108.78
  L 175.08 101.49
  A 0.36 0.36 0.0 0 0 174.44 101.50
  L 164.62 120.97"
/>
<path stroke="#858483" vector-effect="non-scaling-stroke" d="
  M 219.45 114.86
  A 0.30 0.30 0.0 0 0 219.02 114.49
  L 214.11 117.54
  A 0.30 0.30 0.0 0 0 214.01 117.64
  L 211.89 121.03
  A 0.30 0.30 0.0 0 0 212.14 121.49
  L 216.39 121.50
  A 0.30 0.30 0.0 0 0 216.67 121.32
  L 219.45 114.86"
/>
<path stroke="#858483" vector-effect="non-scaling-stroke" d="
  M 102.34 144.42
  Q 104.91 150.48 107.98 156.54
  Q 109.37 159.27 111.35 160.40
  C 116.81 163.50 125.67 162.81 128.48 156.12
  Q 134.43 141.93 140.25 127.73
  A 0.52 0.52 0.0 0 0 139.77 127.01
  L 127.36 127.00
  A 0.98 0.97 3.1 0 0 126.46 127.60
  L 119.55 144.23
  A 0.36 0.36 0.0 0 1 118.89 144.24
  Q 115.56 136.88 111.80 130.00
  C 110.00 126.71 106.45 127.11 103.24 127.01
  C 98.94 126.89 95.14 127.17 93.05 131.61
  Q 86.09 146.36 78.80 161.61
  Q 78.50 162.24 79.20 162.24
  L 93.00 162.22
  Q 93.62 162.22 93.85 161.65
  L 100.74 144.44
  Q 101.52 142.50 102.34 144.42"
/>
<path stroke="#858483" vector-effect="non-scaling-stroke" d="
  M 305.40 138.33
  Q 305.77 137.44 306.70 136.83
  Q 308.37 135.71 310.39 135.72
  L 333.84 135.83
  A 1.16 1.15 13.4 0 0 334.87 135.20
  L 338.21 128.59
  A 1.07 1.07 0.0 0 0 337.26 127.04
  Q 319.86 126.93 302.48 127.08
  Q 296.52 127.14 294.18 131.45
  Q 290.02 139.10 283.92 154.43
  C 283.10 156.50 282.50 161.37 285.59 161.66
  C 297.39 162.79 309.40 162.04 321.53 161.80
  A 1.62 1.60 12.3 0 0 322.95 160.90
  L 326.20 154.09
  A 0.81 0.81 0.0 0 0 325.47 152.93
  L 301.88 152.99
  Q 299.75 153.00 299.76 150.88
  L 299.77 150.44
  Q 299.78 147.91 302.31 147.90
  L 328.48 147.76
  A 1.34 1.34 0.0 0 0 329.71 146.95
  Q 330.85 144.26 331.94 141.72
  Q 332.08 141.40 332.01 141.06
  A 1.00 0.99 -5.2 0 0 331.03 140.25
  L 306.68 140.25
  Q 304.60 140.25 305.40 138.33"
/>
<path stroke="#858483" vector-effect="non-scaling-stroke" d="
  M 153.10 138.66
  Q 153.36 137.90 153.95 137.33
  Q 155.61 135.73 157.91 135.76
  L 181.48 136.05
  A 1.25 1.24 13.9 0 0 182.58 135.39
  Q 184.35 132.00 185.98 128.75
  Q 186.28 128.16 185.82 127.57
  A 0.93 0.92 70.8 0 0 185.09 127.21
  Q 167.74 127.17 151.79 127.21
  C 147.44 127.22 144.05 127.93 141.88 131.54
  Q 139.41 135.66 133.28 150.60
  C 132.21 153.19 128.34 161.08 133.79 161.66
  C 145.37 162.90 157.77 162.12 169.27 161.82
  A 1.61 1.61 0.0 0 0 170.69 160.91
  L 173.92 154.31
  A 0.95 0.95 0.0 0 0 173.06 152.95
  L 150.07 153.01
  Q 147.62 153.02 147.44 150.57
  Q 147.41 150.06 147.70 149.50
  Q 148.48 147.96 150.21 147.97
  Q 163.01 147.99 175.00 148.05
  Q 176.95 148.06 177.68 146.48
  Q 178.66 144.39 179.53 142.13
  Q 179.81 141.41 179.40 140.78
  A 1.14 1.13 72.7 0 0 178.46 140.28
  L 154.32 140.36
  Q 152.52 140.36 153.10 138.66"
/>
<path stroke="#858483" vector-effect="non-scaling-stroke" d="
  M 226.29 151.32
  Q 229.89 143.59 233.13 136.87
  C 235.36 132.24 232.98 127.17 227.39 127.20
  Q 214.09 127.28 200.28 127.17
  C 195.67 127.13 191.23 128.41 188.99 132.60
  Q 183.99 141.97 178.59 152.76
  C 177.46 155.02 175.85 158.74 177.94 160.79
  Q 179.34 162.16 181.41 162.23
  Q 195.86 162.68 211.94 162.20
  C 218.96 161.99 223.43 157.43 226.29 151.32"
/>
<path stroke="#858483" vector-effect="non-scaling-stroke" d="
  M 247.03 152.29
  Q 246.41 150.97 247.02 149.63
  Q 249.51 144.16 253.41 138.57
  A 2.14 2.14 0.0 0 1 255.17 137.65
  L 285.95 137.70
  A 0.94 0.94 0.0 0 0 286.79 137.18
  Q 288.74 133.37 290.81 129.05
  Q 291.17 128.28 290.62 127.68
  A 1.38 1.38 0.0 0 0 289.60 127.23
  Q 271.38 127.10 253.62 127.24
  C 249.33 127.27 245.11 128.00 242.88 131.20
  Q 239.06 136.68 230.60 153.38
  C 229.58 155.40 228.09 158.51 229.92 160.49
  Q 231.50 162.20 234.11 162.26
  Q 246.96 162.53 262.77 162.37
  Q 268.10 162.31 270.92 161.30
  Q 276.55 159.27 279.87 153.28
  Q 282.56 148.41 285.19 142.91
  A 0.33 0.33 0.0 0 0 284.89 142.44
  L 270.01 142.46
  Q 269.36 142.47 269.09 143.06
  L 265.03 151.95
  A 1.57 1.57 0.0 0 1 263.60 152.87
  L 247.76 152.75
  A 0.81 0.81 0.0 0 1 247.03 152.29"
/>
<path stroke="#858483" vector-effect="non-scaling-stroke" d="
  M 331.71 154.39
  C 329.84 158.30 330.57 162.10 335.64 162.25
  Q 346.73 162.57 363.76 162.31
  Q 369.13 162.23 371.86 160.70
  Q 376.80 157.95 379.25 152.83
  Q 382.58 145.89 386.24 138.46
  C 387.81 135.27 388.53 131.05 385.57 128.48
  Q 384.00 127.12 380.14 127.17
  Q 367.06 127.33 353.97 127.17
  C 349.92 127.12 345.65 128.23 343.56 131.54
  Q 339.75 137.60 331.71 154.39"
/>
<path stroke="#858483" vector-effect="non-scaling-stroke" d="
  M 250.38 101.13
  A 0.07 0.07 0.0 0 0 250.44 101.23
  Q 258.13 101.28 265.13 101.25
  Q 267.40 101.24 268.94 99.07
  Q 269.09 98.86 269.17 98.60
  Q 269.91 96.12 267.32 96.12
  L 253.31 96.12
  A 0.52 0.51 16.2 0 0 252.88 96.35
  Q 251.41 98.68 250.38 101.13"
/>
<path stroke="#858483" vector-effect="non-scaling-stroke" d="
  M 358.20 100.52
  A 0.49 0.49 0.0 0 0 358.63 101.25
  Q 365.85 101.24 372.69 101.25
  Q 375.04 101.25 376.60 99.10
  Q 376.81 98.82 376.87 98.46
  Q 377.28 96.11 374.90 96.11
  L 361.46 96.08
  Q 360.66 96.08 360.28 96.78
  L 358.20 100.52"
/>
<path stroke="#858483" vector-effect="non-scaling-stroke" d="
  M 419.86 140.75
  A 1.28 1.28 0.0 0 0 421.01 140.03
  L 423.77 134.38
  A 1.28 1.28 0.0 0 0 422.62 132.54
  L 411.33 132.56
  A 1.28 1.28 0.0 0 0 410.16 133.31
  L 407.62 138.95
  A 1.28 1.28 0.0 0 0 408.78 140.76
  L 419.86 140.75"
/>
<path stroke="#858483" vector-effect="non-scaling-stroke" d="
  M 195.09 152.27
  A 0.79 0.79 0.0 0 0 195.78 153.44
  L 207.13 153.48
  A 0.79 0.79 0.0 0 0 207.82 153.06
  L 216.25 137.44
  A 0.79 0.79 0.0 0 0 215.55 136.28
  L 204.37 136.32
  A 0.79 0.79 0.0 0 0 203.69 136.73
  L 195.09 152.27"
/>
<path stroke="#858483" vector-effect="non-scaling-stroke" d="
  M 348.73 152.20
  A 0.85 0.85 0.0 0 0 349.48 153.46
  L 360.81 153.47
  A 0.85 0.85 0.0 0 0 361.56 153.02
  L 369.80 137.55
  A 0.85 0.85 0.0 0 0 369.05 136.30
  L 358.12 136.27
  A 0.85 0.85 0.0 0 0 357.38 136.71
  L 348.73 152.20"
/>
</g>
<path fill="#0b0907" d="
  M 395.33 173.89
  Q 390.94 170.81 388.39 166.79
  Q 388.12 166.37 387.77 166.74
  L 384.82 169.86
  C 382.36 172.08 379.61 174.05 376.18 174.05
  Q 357.26 174.02 338.34 174.04
  C 336.61 174.04 335.20 172.73 334.14 171.51
  A 0.56 0.56 0.0 0 0 333.17 171.72
  L 332.68 173.41
  A 0.85 0.84 8.3 0 1 331.87 174.01
  L 290.35 173.93
  L 285.43 171.29
  Q 284.98 171.05 284.52 171.26
  Q 282.72 172.07 280.90 173.83
  L 234.70 173.71
  L 230.62 171.14
  Q 230.22 170.89 229.81 171.14
  L 225.59 173.84
  Q 205.49 174.19 185.06 174.03
  C 183.91 174.03 182.88 173.53 181.92 172.94
  Q 181.45 172.65 181.31 173.19
  Q 181.11 173.99 180.28 173.99
  Q 160.37 174.06 139.86 174.02
  C 138.53 174.02 137.27 173.52 136.29 172.61
  C 135.48 171.86 134.67 171.64 133.61 172.11
  Q 130.17 173.67 127.41 173.84
  Q 117.92 174.42 115.50 173.90
  Q 109.90 172.70 108.32 167.34
  Q 107.46 164.40 106.27 167.23
  L 103.72 173.29
  Q 103.43 173.99 102.68 173.99
  L 76.73 174.02
  A 0.66 0.66 0.0 0 1 76.12 173.11
  L 77.97 168.52
  Q 78.24 167.83 77.50 167.84
  L 69.78 167.94
  Q 69.31 167.95 69.51 167.52
  Q 78.71 148.14 87.91 128.75
  Q 88.27 127.99 88.16 126.65
  Q 88.13 126.16 88.34 125.73
  L 110.00 81.32
  A 0.51 0.51 0.0 0 1 110.46 81.03
  L 139.49 81.05
  A 0.40 0.40 0.0 0 1 139.86 81.61
  L 137.66 86.50
  A 0.22 0.22 0.0 0 0 137.86 86.81
  L 142.54 86.70
  Q 142.84 86.70 142.98 86.43
  L 145.21 81.99
  A 1.74 1.73 13.3 0 1 146.76 81.04
  L 198.43 81.04
  Q 198.85 81.04 198.96 81.44
  L 200.39 86.24
  Q 200.57 86.86 201.22 86.85
  L 204.85 86.80
  Q 205.61 86.78 206.20 86.31
  L 212.06 81.57
  Q 212.71 81.05 213.53 81.05
  Q 246.32 81.13 282.06 81.10
  Q 288.65 81.09 292.46 85.13
  Q 292.85 85.54 293.30 85.19
  Q 298.46 81.07 305.06 81.07
  Q 348.18 81.10 392.97 81.15
  Q 400.66 81.16 403.65 87.74
  A 2.15 2.15 0.0 0 0 406.98 88.50
  C 413.01 83.47 419.93 81.09 428.19 81.11
  Q 469.10 81.21 515.42 81.14
  A 0.40 0.40 0.0 0 1 515.79 81.68
  L 514.04 86.31
  Q 513.77 87.03 514.54 87.01
  L 520.52 86.88
  A 0.29 0.29 0.0 0 1 520.79 87.27
  L 488.69 173.69
  A 0.49 0.47 -79.0 0 1 488.25 174.00
  L 458.06 174.04
  Q 457.29 174.04 457.58 173.33
  L 459.19 169.22
  Q 459.45 168.56 458.73 168.56
  L 452.26 168.58
  Q 451.13 168.58 451.56 167.54
  L 456.75 155.01
  Q 457.06 154.27 456.25 154.26
  Q 451.29 154.21 447.30 151.68
  A 0.71 0.71 0.0 0 0 446.24 152.08
  C 443.79 160.32 438.62 170.49 430.15 173.53
  Q 428.77 174.02 426.79 174.03
  Q 410.91 174.12 395.33 173.89
  Z
  M 468.31 141.34
  Q 469.09 141.35 468.79 142.07
  L 460.77 161.49
  Q 460.48 162.20 461.24 162.21
  L 478.44 162.42
  A 0.28 0.27 -78.4 0 0 478.71 162.24
  L 506.56 87.51
  Q 506.75 87.01 506.22 87.01
  L 490.60 86.97
  A 0.56 0.56 0.0 0 0 490.08 87.32
  L 477.07 119.80
  Q 476.86 120.33 476.30 120.33
  L 465.95 120.28
  A 0.74 0.74 0.0 0 1 465.31 119.18
  L 482.90 87.65
  Q 483.27 86.98 482.51 86.98
  L 467.50 86.99
  Q 467.01 86.99 466.76 87.42
  Q 455.55 107.45 445.46 126.99
  Q 443.61 130.57 442.86 133.77
  C 441.74 138.55 445.45 141.57 449.97 141.49
  Q 459.98 141.31 468.31 141.34
  Z
  M 125.52 100.14
  A 0.31 0.31 0.0 0 1 125.24 99.71
  L 130.47 87.58
  A 0.31 0.31 0.0 0 0 130.19 87.15
  L 113.93 87.21
  A 0.31 0.31 0.0 0 0 113.66 87.38
  L 97.68 120.37
  A 0.31 0.31 0.0 0 0 97.94 120.81
  L 113.64 121.50
  A 0.31 0.31 0.0 0 0 113.93 121.33
  L 120.46 107.97
  A 0.31 0.31 0.0 0 1 120.73 107.80
  L 138.58 107.76
  A 0.31 0.31 0.0 0 1 138.87 108.20
  L 132.92 121.05
  A 0.31 0.31 0.0 0 0 133.20 121.49
  L 149.42 121.49
  A 0.31 0.31 0.0 0 0 149.69 121.32
  L 165.99 87.65
  A 0.31 0.31 0.0 0 0 165.71 87.21
  L 149.54 87.17
  A 0.31 0.31 0.0 0 0 149.26 87.35
  L 143.61 100.03
  A 0.31 0.31 0.0 0 1 143.33 100.21
  L 125.52 100.14
  Z
  M 198.73 99.92
  A 0.33 0.33 0.0 0 1 198.21 99.77
  L 194.24 87.45
  A 0.33 0.33 0.0 0 0 193.93 87.22
  L 176.02 87.17
  A 0.33 0.33 0.0 0 0 175.72 87.64
  L 185.31 109.00
  A 0.33 0.33 0.0 0 1 185.30 109.28
  L 179.64 121.03
  A 0.33 0.33 0.0 0 0 179.94 121.50
  L 196.19 121.50
  A 0.33 0.33 0.0 0 0 196.48 121.32
  L 202.80 108.66
  A 0.33 0.33 0.0 0 1 202.91 108.54
  L 232.27 87.77
  A 0.33 0.33 0.0 0 0 232.08 87.17
  L 214.44 87.21
  A 0.33 0.33 0.0 0 0 214.23 87.28
  L 198.73 99.92
  Z
  M 245.35 110.62
  A 0.56 0.55 -77.3 0 1 245.85 110.30
  Q 258.54 110.15 272.24 110.31
  C 277.15 110.37 280.78 107.49 282.91 103.19
  Q 285.07 98.80 287.55 93.56
  C 289.78 88.81 286.58 87.15 282.29 87.10
  Q 260.53 86.80 240.83 87.27
  Q 240.32 87.28 240.09 87.74
  L 223.69 121.08
  A 0.29 0.29 0.0 0 0 223.95 121.50
  L 239.85 121.50
  Q 240.29 121.50 240.48 121.10
  L 245.35 110.62
  Z
  M 308.03 99.68
  C 307.35 96.89 310.95 95.50 313.07 95.53
  Q 326.31 95.76 338.27 95.76
  Q 339.44 95.76 340.01 94.74
  L 343.28 88.74
  A 1.22 1.21 14.1 0 0 342.20 86.94
  Q 325.65 87.10 306.38 86.92
  C 297.78 86.84 296.15 90.17 292.40 97.75
  Q 288.19 106.27 284.45 115.00
  Q 283.35 117.56 284.46 119.70
  C 285.47 121.66 288.84 121.63 290.84 121.67
  Q 308.34 121.95 325.63 121.47
  A 1.38 1.37 -76.3 0 0 326.80 120.75
  L 330.49 113.83
  A 0.77 0.77 0.0 0 0 329.81 112.70
  L 304.45 112.74
  Q 301.98 112.75 301.86 110.29
  Q 301.85 109.93 301.94 109.58
  Q 302.47 107.67 304.45 107.67
  L 332.80 107.57
  Q 333.60 107.57 334.00 106.88
  Q 335.37 104.56 336.45 101.75
  Q 337.10 100.03 335.27 100.04
  L 308.58 100.11
  A 0.57 0.56 -6.4 0 1 308.03 99.68
  Z
  M 377.18 110.24
  C 388.29 112.16 394.46 102.75 397.49 93.23
  C 398.73 89.36 394.65 87.07 391.40 87.05
  Q 369.21 86.89 349.53 87.01
  A 0.51 0.50 13.4 0 0 349.08 87.28
  L 332.53 121.06
  A 0.30 0.29 12.6 0 0 332.80 121.48
  L 348.22 121.48
  Q 348.76 121.48 349.01 121.01
  L 354.69 110.61
  A 0.39 0.39 0.0 0 1 355.30 110.51
  L 366.59 121.14
  Q 366.97 121.50 367.49 121.50
  L 386.50 121.50
  Q 389.61 121.50 387.23 119.51
  L 376.90 110.86
  Q 375.90 110.02 377.18 110.24
  Z
  M 418.11 112.60
  L 419.36 109.29
  A 3.95 3.95 0.0 0 1 423.05 106.75
  L 445.02 106.75
  A 0.84 0.82 11.0 0 0 445.79 106.24
  L 453.15 88.33
  A 1.00 1.00 0.0 0 0 452.22 86.95
  Q 439.84 87.08 425.97 86.91
  C 420.00 86.84 415.54 87.67 411.37 91.80
  Q 408.54 94.60 406.52 99.95
  Q 397.01 125.06 388.19 147.63
  C 386.32 152.41 386.70 158.70 391.68 161.30
  Q 393.48 162.23 395.28 162.23
  Q 404.92 162.18 415.36 162.25
  C 425.31 162.31 432.06 152.21 435.28 144.02
  Q 437.85 137.48 440.12 129.98
  C 442.69 121.48 439.77 114.19 429.87 114.53
  Q 424.52 114.71 419.40 114.55
  Q 417.39 114.49 418.11 112.60
  Z
  M 164.62 120.97
  A 0.36 0.36 0.0 0 0 164.95 121.49
  L 172.19 121.48
  A 0.36 0.36 0.0 0 0 172.51 121.29
  L 178.95 109.12
  A 0.36 0.36 0.0 0 0 178.95 108.78
  L 175.08 101.49
  A 0.36 0.36 0.0 0 0 174.44 101.50
  L 164.62 120.97
  Z
  M 219.45 114.86
  A 0.30 0.30 0.0 0 0 219.02 114.49
  L 214.11 117.54
  A 0.30 0.30 0.0 0 0 214.01 117.64
  L 211.89 121.03
  A 0.30 0.30 0.0 0 0 212.14 121.49
  L 216.39 121.50
  A 0.30 0.30 0.0 0 0 216.67 121.32
  L 219.45 114.86
  Z
  M 102.34 144.42
  Q 104.91 150.48 107.98 156.54
  Q 109.37 159.27 111.35 160.40
  C 116.81 163.50 125.67 162.81 128.48 156.12
  Q 134.43 141.93 140.25 127.73
  A 0.52 0.52 0.0 0 0 139.77 127.01
  L 127.36 127.00
  A 0.98 0.97 3.1 0 0 126.46 127.60
  L 119.55 144.23
  A 0.36 0.36 0.0 0 1 118.89 144.24
  Q 115.56 136.88 111.80 130.00
  C 110.00 126.71 106.45 127.11 103.24 127.01
  C 98.94 126.89 95.14 127.17 93.05 131.61
  Q 86.09 146.36 78.80 161.61
  Q 78.50 162.24 79.20 162.24
  L 93.00 162.22
  Q 93.62 162.22 93.85 161.65
  L 100.74 144.44
  Q 101.52 142.50 102.34 144.42
  Z
  M 305.40 138.33
  Q 305.77 137.44 306.70 136.83
  Q 308.37 135.71 310.39 135.72
  L 333.84 135.83
  A 1.16 1.15 13.4 0 0 334.87 135.20
  L 338.21 128.59
  A 1.07 1.07 0.0 0 0 337.26 127.04
  Q 319.86 126.93 302.48 127.08
  Q 296.52 127.14 294.18 131.45
  Q 290.02 139.10 283.92 154.43
  C 283.10 156.50 282.50 161.37 285.59 161.66
  C 297.39 162.79 309.40 162.04 321.53 161.80
  A 1.62 1.60 12.3 0 0 322.95 160.90
  L 326.20 154.09
  A 0.81 0.81 0.0 0 0 325.47 152.93
  L 301.88 152.99
  Q 299.75 153.00 299.76 150.88
  L 299.77 150.44
  Q 299.78 147.91 302.31 147.90
  L 328.48 147.76
  A 1.34 1.34 0.0 0 0 329.71 146.95
  Q 330.85 144.26 331.94 141.72
  Q 332.08 141.40 332.01 141.06
  A 1.00 0.99 -5.2 0 0 331.03 140.25
  L 306.68 140.25
  Q 304.60 140.25 305.40 138.33
  Z
  M 153.10 138.66
  Q 153.36 137.90 153.95 137.33
  Q 155.61 135.73 157.91 135.76
  L 181.48 136.05
  A 1.25 1.24 13.9 0 0 182.58 135.39
  Q 184.35 132.00 185.98 128.75
  Q 186.28 128.16 185.82 127.57
  A 0.93 0.92 70.8 0 0 185.09 127.21
  Q 167.74 127.17 151.79 127.21
  C 147.44 127.22 144.05 127.93 141.88 131.54
  Q 139.41 135.66 133.28 150.60
  C 132.21 153.19 128.34 161.08 133.79 161.66
  C 145.37 162.90 157.77 162.12 169.27 161.82
  A 1.61 1.61 0.0 0 0 170.69 160.91
  L 173.92 154.31
  A 0.95 0.95 0.0 0 0 173.06 152.95
  L 150.07 153.01
  Q 147.62 153.02 147.44 150.57
  Q 147.41 150.06 147.70 149.50
  Q 148.48 147.96 150.21 147.97
  Q 163.01 147.99 175.00 148.05
  Q 176.95 148.06 177.68 146.48
  Q 178.66 144.39 179.53 142.13
  Q 179.81 141.41 179.40 140.78
  A 1.14 1.13 72.7 0 0 178.46 140.28
  L 154.32 140.36
  Q 152.52 140.36 153.10 138.66
  Z
  M 226.29 151.32
  Q 229.89 143.59 233.13 136.87
  C 235.36 132.24 232.98 127.17 227.39 127.20
  Q 214.09 127.28 200.28 127.17
  C 195.67 127.13 191.23 128.41 188.99 132.60
  Q 183.99 141.97 178.59 152.76
  C 177.46 155.02 175.85 158.74 177.94 160.79
  Q 179.34 162.16 181.41 162.23
  Q 195.86 162.68 211.94 162.20
  C 218.96 161.99 223.43 157.43 226.29 151.32
  Z
  M 247.03 152.29
  Q 246.41 150.97 247.02 149.63
  Q 249.51 144.16 253.41 138.57
  A 2.14 2.14 0.0 0 1 255.17 137.65
  L 285.95 137.70
  A 0.94 0.94 0.0 0 0 286.79 137.18
  Q 288.74 133.37 290.81 129.05
  Q 291.17 128.28 290.62 127.68
  A 1.38 1.38 0.0 0 0 289.60 127.23
  Q 271.38 127.10 253.62 127.24
  C 249.33 127.27 245.11 128.00 242.88 131.20
  Q 239.06 136.68 230.60 153.38
  C 229.58 155.40 228.09 158.51 229.92 160.49
  Q 231.50 162.20 234.11 162.26
  Q 246.96 162.53 262.77 162.37
  Q 268.10 162.31 270.92 161.30
  Q 276.55 159.27 279.87 153.28
  Q 282.56 148.41 285.19 142.91
  A 0.33 0.33 0.0 0 0 284.89 142.44
  L 270.01 142.46
  Q 269.36 142.47 269.09 143.06
  L 265.03 151.95
  A 1.57 1.57 0.0 0 1 263.60 152.87
  L 247.76 152.75
  A 0.81 0.81 0.0 0 1 247.03 152.29
  Z
  M 331.71 154.39
  C 329.84 158.30 330.57 162.10 335.64 162.25
  Q 346.73 162.57 363.76 162.31
  Q 369.13 162.23 371.86 160.70
  Q 376.80 157.95 379.25 152.83
  Q 382.58 145.89 386.24 138.46
  C 387.81 135.27 388.53 131.05 385.57 128.48
  Q 384.00 127.12 380.14 127.17
  Q 367.06 127.33 353.97 127.17
  C 349.92 127.12 345.65 128.23 343.56 131.54
  Q 339.75 137.60 331.71 154.39
  Z"
/>
<path fill="#ffffff" d="
  M 468.31 141.34
  Q 459.98 141.31 449.97 141.49
  C 445.45 141.57 441.74 138.55 442.86 133.77
  Q 443.61 130.57 445.46 126.99
  Q 455.55 107.45 466.76 87.42
  Q 467.01 86.99 467.50 86.99
  L 482.51 86.98
  Q 483.27 86.98 482.90 87.65
  L 465.31 119.18
  A 0.74 0.74 0.0 0 0 465.95 120.28
  L 476.30 120.33
  Q 476.86 120.33 477.07 119.80
  L 490.08 87.32
  A 0.56 0.56 0.0 0 1 490.60 86.97
  L 506.22 87.01
  Q 506.75 87.01 506.56 87.51
  L 478.71 162.24
  A 0.28 0.27 -78.4 0 1 478.44 162.42
  L 461.24 162.21
  Q 460.48 162.20 460.77 161.49
  L 468.79 142.07
  Q 469.09 141.35 468.31 141.34
  Z"
/>
<path fill="#ffffff" d="
  M 125.52 100.14
  L 143.33 100.21
  A 0.31 0.31 0.0 0 0 143.61 100.03
  L 149.26 87.35
  A 0.31 0.31 0.0 0 1 149.54 87.17
  L 165.71 87.21
  A 0.31 0.31 0.0 0 1 165.99 87.65
  L 149.69 121.32
  A 0.31 0.31 0.0 0 1 149.42 121.49
  L 133.20 121.49
  A 0.31 0.31 0.0 0 1 132.92 121.05
  L 138.87 108.20
  A 0.31 0.31 0.0 0 0 138.58 107.76
  L 120.73 107.80
  A 0.31 0.31 0.0 0 0 120.46 107.97
  L 113.93 121.33
  A 0.31 0.31 0.0 0 1 113.64 121.50
  L 97.94 120.81
  A 0.31 0.31 0.0 0 1 97.68 120.37
  L 113.66 87.38
  A 0.31 0.31 0.0 0 1 113.93 87.21
  L 130.19 87.15
  A 0.31 0.31 0.0 0 1 130.47 87.58
  L 125.24 99.71
  A 0.31 0.31 0.0 0 0 125.52 100.14
  Z"
/>
<path fill="#ffffff" d="
  M 198.73 99.92
  L 214.23 87.28
  A 0.33 0.33 0.0 0 1 214.44 87.21
  L 232.08 87.17
  A 0.33 0.33 0.0 0 1 232.27 87.77
  L 202.91 108.54
  A 0.33 0.33 0.0 0 0 202.80 108.66
  L 196.48 121.32
  A 0.33 0.33 0.0 0 1 196.19 121.50
  L 179.94 121.50
  A 0.33 0.33 0.0 0 1 179.64 121.03
  L 185.30 109.28
  A 0.33 0.33 0.0 0 0 185.31 109.00
  L 175.72 87.64
  A 0.33 0.33 0.0 0 1 176.02 87.17
  L 193.93 87.22
  A 0.33 0.33 0.0 0 1 194.24 87.45
  L 198.21 99.77
  A 0.33 0.33 0.0 0 0 198.73 99.92
  Z"
/>
<path fill="#ffffff" d="
  M 245.35 110.62
  L 240.48 121.10
  Q 240.29 121.50 239.85 121.50
  L 223.95 121.50
  A 0.29 0.29 0.0 0 1 223.69 121.08
  L 240.09 87.74
  Q 240.32 87.28 240.83 87.27
  Q 260.53 86.80 282.29 87.10
  C 286.58 87.15 289.78 88.81 287.55 93.56
  Q 285.07 98.80 282.91 103.19
  C 280.78 107.49 277.15 110.37 272.24 110.31
  Q 258.54 110.15 245.85 110.30
  A 0.56 0.55 -77.3 0 0 245.35 110.62
  Z
  M 250.38 101.13
  A 0.07 0.07 0.0 0 0 250.44 101.23
  Q 258.13 101.28 265.13 101.25
  Q 267.40 101.24 268.94 99.07
  Q 269.09 98.86 269.17 98.60
  Q 269.91 96.12 267.32 96.12
  L 253.31 96.12
  A 0.52 0.51 16.2 0 0 252.88 96.35
  Q 251.41 98.68 250.38 101.13
  Z"
/>
<path fill="#ffffff" d="
  M 308.03 99.68
  A 0.57 0.56 -6.4 0 0 308.58 100.11
  L 335.27 100.04
  Q 337.10 100.03 336.45 101.75
  Q 335.37 104.56 334.00 106.88
  Q 333.60 107.57 332.80 107.57
  L 304.45 107.67
  Q 302.47 107.67 301.94 109.58
  Q 301.85 109.93 301.86 110.29
  Q 301.98 112.75 304.45 112.74
  L 329.81 112.70
  A 0.77 0.77 0.0 0 1 330.49 113.83
  L 326.80 120.75
  A 1.38 1.37 -76.3 0 1 325.63 121.47
  Q 308.34 121.95 290.84 121.67
  C 288.84 121.63 285.47 121.66 284.46 119.70
  Q 283.35 117.56 284.45 115.00
  Q 288.19 106.27 292.40 97.75
  C 296.15 90.17 297.78 86.84 306.38 86.92
  Q 325.65 87.10 342.20 86.94
  A 1.22 1.21 14.1 0 1 343.28 88.74
  L 340.01 94.74
  Q 339.44 95.76 338.27 95.76
  Q 326.31 95.76 313.07 95.53
  C 310.95 95.50 307.35 96.89 308.03 99.68
  Z"
/>
<path fill="#ffffff" d="
  M 377.18 110.24
  Q 375.90 110.02 376.90 110.86
  L 387.23 119.51
  Q 389.61 121.50 386.50 121.50
  L 367.49 121.50
  Q 366.97 121.50 366.59 121.14
  L 355.30 110.51
  A 0.39 0.39 0.0 0 0 354.69 110.61
  L 349.01 121.01
  Q 348.76 121.48 348.22 121.48
  L 332.80 121.48
  A 0.30 0.29 12.6 0 1 332.53 121.06
  L 349.08 87.28
  A 0.51 0.50 13.4 0 1 349.53 87.01
  Q 369.21 86.89 391.40 87.05
  C 394.65 87.07 398.73 89.36 397.49 93.23
  C 394.46 102.75 388.29 112.16 377.18 110.24
  Z
  M 358.20 100.52
  A 0.49 0.49 0.0 0 0 358.63 101.25
  Q 365.85 101.24 372.69 101.25
  Q 375.04 101.25 376.60 99.10
  Q 376.81 98.82 376.87 98.46
  Q 377.28 96.11 374.90 96.11
  L 361.46 96.08
  Q 360.66 96.08 360.28 96.78
  L 358.20 100.52
  Z"
/>
<path fill="#ffffff" d="
  M 418.11 112.60
  Q 417.39 114.49 419.40 114.55
  Q 424.52 114.71 429.87 114.53
  C 439.77 114.19 442.69 121.48 440.12 129.98
  Q 437.85 137.48 435.28 144.02
  C 432.06 152.21 425.31 162.31 415.36 162.25
  Q 404.92 162.18 395.28 162.23
  Q 393.48 162.23 391.68 161.30
  C 386.70 158.70 386.32 152.41 388.19 147.63
  Q 397.01 125.06 406.52 99.95
  Q 408.54 94.60 411.37 91.80
  C 415.54 87.67 420.00 86.84 425.97 86.91
  Q 439.84 87.08 452.22 86.95
  A 1.00 1.00 0.0 0 1 453.15 88.33
  L 445.79 106.24
  A 0.84 0.82 11.0 0 1 445.02 106.75
  L 423.05 106.75
  A 3.95 3.95 0.0 0 0 419.36 109.29
  L 418.11 112.60
  Z
  M 419.86 140.75
  A 1.28 1.28 0.0 0 0 421.01 140.03
  L 423.77 134.38
  A 1.28 1.28 0.0 0 0 422.62 132.54
  L 411.33 132.56
  A 1.28 1.28 0.0 0 0 410.16 133.31
  L 407.62 138.95
  A 1.28 1.28 0.0 0 0 408.78 140.76
  L 419.86 140.75
  Z"
/>
<path fill="#0b0907" d="
  M 250.38 101.13
  Q 251.41 98.68 252.88 96.35
  A 0.52 0.51 16.2 0 1 253.31 96.12
  L 267.32 96.12
  Q 269.91 96.12 269.17 98.60
  Q 269.09 98.86 268.94 99.07
  Q 267.40 101.24 265.13 101.25
  Q 258.13 101.28 250.44 101.23
  A 0.07 0.07 0.0 0 1 250.38 101.13
  Z"
/>
<path fill="#0b0907" d="
  M 358.20 100.52
  L 360.28 96.78
  Q 360.66 96.08 361.46 96.08
  L 374.90 96.11
  Q 377.28 96.11 376.87 98.46
  Q 376.81 98.82 376.60 99.10
  Q 375.04 101.25 372.69 101.25
  Q 365.85 101.24 358.63 101.25
  A 0.49 0.49 0.0 0 1 358.20 100.52
  Z"
/>
<path fill="#ffffff" d="
  M 164.62 120.97
  L 174.44 101.50
  A 0.36 0.36 0.0 0 1 175.08 101.49
  L 178.95 108.78
  A 0.36 0.36 0.0 0 1 178.95 109.12
  L 172.51 121.29
  A 0.36 0.36 0.0 0 1 172.19 121.48
  L 164.95 121.49
  A 0.36 0.36 0.0 0 1 164.62 120.97
  Z"
/>
<path fill="#ffffff" d="
  M 219.45 114.86
  L 216.67 121.32
  A 0.30 0.30 0.0 0 1 216.39 121.50
  L 212.14 121.49
  A 0.30 0.30 0.0 0 1 211.89 121.03
  L 214.01 117.64
  A 0.30 0.30 0.0 0 1 214.11 117.54
  L 219.02 114.49
  A 0.30 0.30 0.0 0 1 219.45 114.86
  Z"
/>
<path fill="#ffffff" d="
  M 102.34 144.42
  Q 101.52 142.50 100.74 144.44
  L 93.85 161.65
  Q 93.62 162.22 93.00 162.22
  L 79.20 162.24
  Q 78.50 162.24 78.80 161.61
  Q 86.09 146.36 93.05 131.61
  C 95.14 127.17 98.94 126.89 103.24 127.01
  C 106.45 127.11 110.00 126.71 111.80 130.00
  Q 115.56 136.88 118.89 144.24
  A 0.36 0.36 0.0 0 0 119.55 144.23
  L 126.46 127.60
  A 0.98 0.97 42.9 0 1 127.36 127.00
  L 139.77 127.01
  A 0.52 0.52 0.0 0 1 140.25 127.73
  Q 134.43 141.93 128.48 156.12
  C 125.67 162.81 116.81 163.50 111.35 160.40
  Q 109.37 159.27 107.98 156.54
  Q 104.91 150.48 102.34 144.42
  Z"
/>
<path fill="#ffffff" d="
  M 305.40 138.33
  Q 304.60 140.25 306.68 140.25
  L 331.03 140.25
  A 1.00 0.99 -5.2 0 1 332.01 141.06
  Q 332.08 141.40 331.94 141.72
  Q 330.85 144.26 329.71 146.95
  A 1.34 1.34 0.0 0 1 328.48 147.76
  L 302.31 147.90
  Q 299.78 147.91 299.77 150.44
  L 299.76 150.88
  Q 299.75 153.00 301.88 152.99
  L 325.47 152.93
  A 0.81 0.81 0.0 0 1 326.20 154.09
  L 322.95 160.90
  A 1.62 1.60 12.3 0 1 321.53 161.80
  C 309.40 162.04 297.39 162.79 285.59 161.66
  C 282.50 161.37 283.10 156.50 283.92 154.43
  Q 290.02 139.10 294.18 131.45
  Q 296.52 127.14 302.48 127.08
  Q 319.86 126.93 337.26 127.04
  A 1.07 1.07 0.0 0 1 338.21 128.59
  L 334.87 135.20
  A 1.16 1.15 13.4 0 1 333.84 135.83
  L 310.39 135.72
  Q 308.37 135.71 306.70 136.83
  Q 305.77 137.44 305.40 138.33
  Z"
/>
<path fill="#ffffff" d="
  M 154.32 140.36
  L 178.46 140.28
  A 1.14 1.13 72.7 0 1 179.40 140.78
  Q 179.81 141.41 179.53 142.13
  Q 178.66 144.39 177.68 146.48
  Q 176.95 148.06 175.00 148.05
  Q 163.01 147.99 150.21 147.97
  Q 148.48 147.96 147.70 149.50
  Q 147.41 150.06 147.44 150.57
  Q 147.62 153.02 150.07 153.01
  L 173.06 152.95
  A 0.95 0.95 0.0 0 1 173.92 154.31
  L 170.69 160.91
  A 1.61 1.61 0.0 0 1 169.27 161.82
  C 157.77 162.12 145.37 162.90 133.79 161.66
  C 128.34 161.08 132.21 153.19 133.28 150.60
  Q 139.41 135.66 141.88 131.54
  C 144.05 127.93 147.44 127.22 151.79 127.21
  Q 167.74 127.17 185.09 127.21
  A 0.93 0.92 70.8 0 1 185.82 127.57
  Q 186.28 128.16 185.98 128.75
  Q 184.35 132.00 182.58 135.39
  A 1.25 1.24 13.9 0 1 181.48 136.05
  L 157.91 135.76
  Q 155.61 135.73 153.95 137.33
  Q 153.36 137.90 153.10 138.66
  Q 152.52 140.36 154.32 140.36
  Z"
/>
<path fill="#ffffff" d="
  M 226.29 151.32
  C 223.43 157.43 218.96 161.99 211.94 162.20
  Q 195.86 162.68 181.41 162.23
  Q 179.34 162.16 177.94 160.79
  C 175.85 158.74 177.46 155.02 178.59 152.76
  Q 183.99 141.97 188.99 132.60
  C 191.23 128.41 195.67 127.13 200.28 127.17
  Q 214.09 127.28 227.39 127.20
  C 232.98 127.17 235.36 132.24 233.13 136.87
  Q 229.89 143.59 226.29 151.32
  Z
  M 195.09 152.27
  A 0.79 0.79 0.0 0 0 195.78 153.44
  L 207.13 153.48
  A 0.79 0.79 0.0 0 0 207.82 153.06
  L 216.25 137.44
  A 0.79 0.79 0.0 0 0 215.55 136.28
  L 204.37 136.32
  A 0.79 0.79 0.0 0 0 203.69 136.73
  L 195.09 152.27
  Z"
/>
<path fill="#ffffff" d="
  M 247.03 152.29
  A 0.81 0.81 0.0 0 0 247.76 152.75
  L 263.60 152.87
  A 1.57 1.57 0.0 0 0 265.03 151.95
  L 269.09 143.06
  Q 269.36 142.47 270.01 142.46
  L 284.89 142.44
  A 0.33 0.33 0.0 0 1 285.19 142.91
  Q 282.56 148.41 279.87 153.28
  Q 276.55 159.27 270.92 161.30
  Q 268.10 162.31 262.77 162.37
  Q 246.96 162.53 234.11 162.26
  Q 231.50 162.20 229.92 160.49
  C 228.09 158.51 229.58 155.40 230.60 153.38
  Q 239.06 136.68 242.88 131.20
  C 245.11 128.00 249.33 127.27 253.62 127.24
  Q 271.38 127.10 289.60 127.23
  A 1.38 1.38 0.0 0 1 290.62 127.68
  Q 291.17 128.28 290.81 129.05
  Q 288.74 133.37 286.79 137.18
  A 0.94 0.94 0.0 0 1 285.95 137.70
  L 255.17 137.65
  A 2.14 2.14 0.0 0 0 253.41 138.57
  Q 249.51 144.16 247.02 149.63
  Q 246.41 150.97 247.03 152.29
  Z"
/>
<path fill="#ffffff" d="
  M 331.71 154.39
  Q 339.75 137.60 343.56 131.54
  C 345.65 128.23 349.92 127.12 353.97 127.17
  Q 367.06 127.33 380.14 127.17
  Q 384.00 127.12 385.57 128.48
  C 388.53 131.05 387.81 135.27 386.24 138.46
  Q 382.58 145.89 379.25 152.83
  Q 376.80 157.95 371.86 160.70
  Q 369.13 162.23 363.76 162.31
  Q 346.73 162.57 335.64 162.25
  C 330.57 162.10 329.84 158.30 331.71 154.39
  Z
  M 348.73 152.20
  A 0.85 0.85 0.0 0 0 349.48 153.46
  L 360.81 153.47
  A 0.85 0.85 0.0 0 0 361.56 153.02
  L 369.80 137.55
  A 0.85 0.85 0.0 0 0 369.05 136.30
  L 358.12 136.27
  A 0.85 0.85 0.0 0 0 357.38 136.71
  L 348.73 152.20
  Z"
/>
<path fill="#0b0907" d="
  M 419.86 140.75
  L 408.78 140.76
  A 1.28 1.28 0.0 0 1 407.62 138.95
  L 410.16 133.31
  A 1.28 1.28 0.0 0 1 411.33 132.56
  L 422.62 132.54
  A 1.28 1.28 0.0 0 1 423.77 134.38
  L 421.01 140.03
  A 1.28 1.28 0.0 0 1 419.86 140.75
  Z"
/>
<path fill="#0b0907" d="
  M 195.09 152.27
  L 203.69 136.73
  A 0.79 0.79 0.0 0 1 204.37 136.32
  L 215.55 136.28
  A 0.79 0.79 0.0 0 1 216.25 137.44
  L 207.82 153.06
  A 0.79 0.79 0.0 0 1 207.13 153.48
  L 195.78 153.44
  A 0.79 0.79 0.0 0 1 195.09 152.27
  Z"
/>
<path fill="#0b0907" d="
  M 348.73 152.20
  L 357.38 136.71
  A 0.85 0.85 0.0 0 1 358.12 136.27
  L 369.05 136.30
  A 0.85 0.85 0.0 0 1 369.80 137.55
  L 361.56 153.02
  A 0.85 0.85 0.0 0 1 360.81 153.47
  L 349.48 153.46
  A 0.85 0.85 0.0 0 1 348.73 152.20
  Z"
/>
</svg>
