<?xml version="1.0" encoding="UTF-8" standalone="no"?>
<!DOCTYPE svg PUBLIC "-//W3C//DTD SVG 1.1//EN" "http://www.w3.org/Graphics/SVG/1.1/DTD/svg11.dtd">
<svg xmlns="http://www.w3.org/2000/svg" version="1.1" viewBox="0.00 0.00 590.00 255.00">
<g stroke-width="2.00" fill="none" stroke-linecap="butt">
<path stroke="#d8d8d8" stroke-opacity="0.592" vector-effect="non-scaling-stroke" d="
  M 353.04 84.33
  Q 334.71 85.77 323.22 99.68
  Q 314.62 110.10 313.26 123.09
  Q 310.83 146.23 327.17 160.65
  Q 338.27 170.43 354.33 171.02
  Q 373.25 171.71 389.33 164.06
  Q 389.90 163.79 389.80 162.40"
/>
<path stroke="#d8d8d8" stroke-opacity="0.592" vector-effect="non-scaling-stroke" d="
  M 389.81 146.00
  Q 389.71 143.05 390.21 141.96"
/>
<path stroke="#d8d8d8" stroke-opacity="0.592" vector-effect="non-scaling-stroke" d="
  M 392.54 164.93
  Q 391.22 165.46 391.64 168.63
  Q 391.69 169.00 392.06 169.00
  L 462.02 168.98"
/>
<path stroke="#d8d8d8" stroke-opacity="0.592" vector-effect="non-scaling-stroke" d="
  M 305.79 136.23
  Q 313.94 128.87 307.04 120.49"
/>
<path stroke="#d8d8d8" stroke-opacity="0.592" vector-effect="non-scaling-stroke" d="
  M 396.37 86.44
  L 392.32 86.48
  Q 391.72 86.49 391.69 87.09
  L 391.60 89.22
  Q 391.56 89.88 392.22 89.81
  Q 396.02 89.39 399.14 90.90
  C 403.45 92.98 402.89 97.28 402.89 101.34
  Q 402.89 128.41 402.86 155.50
  Q 402.84 166.00 392.54 164.93"
/>
<path stroke="#d8d8d8" stroke-opacity="0.592" vector-effect="non-scaling-stroke" d="
  M 376.68 88.78
  C 380.37 90.53 383.48 91.33 385.47 86.73"
/>
<path stroke="#d8d8d8" stroke-opacity="0.592" vector-effect="non-scaling-stroke" d="
  M 388.77 86.38
  L 388.79 94.60"
/>
<path stroke="#d8d8d8" stroke-opacity="0.592" vector-effect="non-scaling-stroke" d="
  M 388.84 113.76
  L 385.44 113.34
  Q 384.91 113.27 384.72 112.77
  Q 380.61 101.62 371.04 93.12
  Q 366.17 88.80 358.96 88.98
  Q 345.23 89.34 339.07 101.78
  Q 338.11 103.73 337.30 105.79"
/>
<path stroke="#d8d8d8" stroke-opacity="0.592" vector-effect="non-scaling-stroke" d="
  M 336.77 107.40
  L 335.28 113.61"
/>
<path stroke="#d8d8d8" stroke-opacity="0.592" vector-effect="non-scaling-stroke" d="
  M 346.60 163.31
  Q 350.11 165.37 353.64 166.07"
/>
<path stroke="#d8d8d8" stroke-opacity="0.592" vector-effect="non-scaling-stroke" d="
  M 357.69 166.33
  C 362.21 166.76 370.92 165.98 370.91 159.58
  Q 370.89 150.78 370.81 143.07
  C 370.74 136.82 364.21 136.59 359.73 136.71
  Q 359.22 136.72 359.23 136.21
  L 359.26 134.25
  Q 359.26 133.75 359.75 133.75
  L 399.77 133.74
  Q 400.05 133.74 400.04 134.02
  L 399.99 136.26
  A 0.49 0.48 -2.7 0 1 399.56 136.73
  C 395.54 137.16 391.45 136.67 390.21 141.96"
/>
<path stroke="#d8d8d8" stroke-opacity="0.592" vector-effect="non-scaling-stroke" d="
  M 304.28 137.02
  Q 300.80 138.12 297.99 137.50
  C 292.40 136.29 289.41 131.06 290.49 125.65
  Q 291.46 120.72 296.89 118.31"
/>
<path stroke="#d8d8d8" stroke-opacity="0.592" vector-effect="non-scaling-stroke" d="
  M 458.84 110.91
  Q 457.80 107.42 456.82 104.19
  C 452.49 90.01 437.99 90.95 426.27 91.31
  Q 422.05 91.44 422.24 95.58"
/>
<path stroke="#d8d8d8" stroke-opacity="0.592" vector-effect="non-scaling-stroke" d="
  M 427.83 123.98
  Q 435.06 123.60 438.27 117.25
  Q 440.67 112.49 441.21 106.85"
/>
<path stroke="#d8d8d8" stroke-opacity="0.592" vector-effect="non-scaling-stroke" d="
  M 444.08 148.12
  L 441.89 147.91
  Q 441.34 147.85 441.30 147.30
  Q 440.88 141.71 438.13 136.51
  C 434.73 130.07 429.41 129.30 422.82 129.44
  Q 422.23 129.45 422.22 130.04
  L 422.15 133.61"
/>
<path stroke="#d8d8d8" stroke-opacity="0.592" vector-effect="non-scaling-stroke" d="
  M 441.97 163.76
  C 453.31 161.57 459.60 154.03 462.78 143.44
  Q 462.99 142.73 463.73 142.74
  L 466.02 142.75
  A 0.79 0.78 5.3 0 1 466.79 143.67
  L 465.22 152.46"
/>
<path stroke="#d8d8d8" stroke-opacity="0.592" vector-effect="non-scaling-stroke" d="
  M 254.67 85.31
  L 257.43 86.04"
/>
<path stroke="#d8d8d8" stroke-opacity="0.592" vector-effect="non-scaling-stroke" d="
  M 269.94 91.79
  L 278.70 100.52"
/>
<path stroke="#d8d8d8" stroke-opacity="0.592" vector-effect="non-scaling-stroke" d="
  M 286.88 121.60
  L 286.63 134.93"
/>
<path stroke="#d8d8d8" stroke-opacity="0.592" vector-effect="non-scaling-stroke" d="
  M 550.71 135.22
  L 550.16 138.61"
/>
<path stroke="#d8d8d8" stroke-opacity="0.592" vector-effect="non-scaling-stroke" d="
  M 541.70 156.38
  Q 539.67 158.57 537.59 160.60
  Q 530.04 167.92 520.36 170.12
  C 514.76 171.39 508.51 170.96 502.61 170.87
  C 495.13 170.75 486.42 167.11 480.61 162.01
  Q 469.92 152.62 467.03 139.50
  C 461.98 116.64 471.06 95.48 493.64 86.75"
/>
<path stroke="#d8d8d8" stroke-opacity="0.592" vector-effect="non-scaling-stroke" d="
  M 493.75 86.74
  Q 494.75 86.87 495.82 86.29"
/>
<path stroke="#d8d8d8" stroke-opacity="0.592" vector-effect="non-scaling-stroke" d="
  M 233.96 85.14
  Q 220.19 88.48 211.61 98.51
  C 201.22 110.65 199.07 127.52 203.81 142.47
  C 207.95 155.52 218.50 166.26 232.13 169.47
  C 250.24 173.73 268.36 169.29 279.23 153.45"
/>
<path stroke="#d8d8d8" stroke-opacity="0.592" vector-effect="non-scaling-stroke" d="
  M 200.26 157.12
  L 202.63 142.75
  A 0.59 0.58 4.0 0 0 202.03 142.07
  L 199.26 142.14
  Q 198.67 142.16 198.50 142.73
  C 195.84 151.76 190.95 158.75 181.74 162.05
  Q 173.82 164.89 162.66 163.36"
/>
<path stroke="#d8d8d8" stroke-opacity="0.592" vector-effect="non-scaling-stroke" d="
  M 519.35 86.03
  L 515.19 85.24"
/>
<path stroke="#d8d8d8" stroke-opacity="0.592" vector-effect="non-scaling-stroke" d="
  M 500.09 85.36
  Q 498.96 85.81 497.98 85.74"
/>
<path stroke="#d8d8d8" stroke-opacity="0.592" vector-effect="non-scaling-stroke" d="
  M 196.89 110.17
  L 194.79 110.12
  Q 194.17 110.10 194.07 109.49
  Q 193.08 103.50 190.87 99.68
  Q 186.41 91.98 176.54 90.96
  Q 170.99 90.38 161.25 90.74
  C 158.65 90.84 157.80 92.89 158.01 95.33"
/>
<path stroke="#d8d8d8" stroke-opacity="0.592" vector-effect="non-scaling-stroke" d="
  M 159.50 123.46
  C 170.96 124.60 174.72 117.53 176.81 107.72"
/>
<path stroke="#d8d8d8" stroke-opacity="0.592" vector-effect="non-scaling-stroke" d="
  M 180.39 147.41
  L 177.73 147.20
  Q 177.23 147.16 177.17 146.66
  C 176.22 139.55 173.01 129.80 164.28 129.17
  Q 161.21 128.95 158.68 128.68
  Q 158.03 128.61 158.03 129.26
  L 158.01 132.84"
/>
<path stroke="#d8d8d8" stroke-opacity="0.592" vector-effect="non-scaling-stroke" d="
  M 198.60 166.39
  Q 198.60 167.14 198.37 167.80
  Q 198.21 168.25 197.72 168.25
  L 127.78 168.26
  Q 127.30 168.26 127.29 167.78
  L 127.22 165.43"
/>
<path stroke="#d8d8d8" stroke-opacity="0.592" vector-effect="non-scaling-stroke" d="
  M 196.81 85.74
  L 127.96 85.74
  Q 127.25 85.74 127.25 86.46
  L 127.26 88.46
  A 0.64 0.63 -2.9 0 0 127.96 89.09
  C 132.91 88.58 138.37 90.31 138.41 96.24
  Q 138.60 123.80 138.39 156.24
  Q 138.33 164.92 129.76 164.15"
/>
<path stroke="#d8d8d8" stroke-opacity="0.592" vector-effect="non-scaling-stroke" d="
  M 114.05 98.47
  Q 114.16 93.27 117.48 91.14
  Q 119.46 89.88 123.78 89.33
  Q 124.28 89.27 124.28 88.76
  L 124.25 86.25
  Q 124.24 85.76 123.75 85.76
  L 98.28 85.75
  Q 97.55 85.75 97.50 86.48
  Q 97.40 87.71 97.74 88.67
  Q 97.91 89.14 98.41 89.16
  Q 106.75 89.47 108.68 95.85
  Q 109.24 97.69 109.25 106.62
  Q 109.27 122.04 109.13 136.19
  Q 109.12 136.89 108.67 136.35
  L 100.14 126.11"
/>
<path stroke="#d8d8d8" stroke-opacity="0.592" vector-effect="non-scaling-stroke" d="
  M 114.05 169.30
  Q 112.71 170.16 110.76 169.66
  Q 110.35 169.55 110.08 169.21
  L 57.08 103.17
  Q 56.69 102.68 56.69 103.31
  L 56.56 115.20"
/>
<path stroke="#d8d8d8" stroke-opacity="0.592" vector-effect="non-scaling-stroke" d="
  M 66.06 167.72
  L 40.65 167.63
  Q 40.17 167.63 40.17 167.14
  L 40.19 164.48"
/>
<path stroke="#d8d8d8" stroke-opacity="0.592" vector-effect="non-scaling-stroke" d="
  M 42.64 164.12
  Q 51.85 163.89 52.08 155.25
  Q 52.45 141.62 52.14 97.50
  Q 52.13 97.00 51.81 96.61
  Q 47.20 91.19 41.28 87.73"
/>
<path stroke="#d8d8d8" stroke-opacity="0.592" vector-effect="non-scaling-stroke" d="
  M 246.04 166.13
  Q 251.93 165.99 255.85 162.08
  Q 258.86 159.06 260.35 155.97
  Q 264.06 148.28 264.92 139.73
  Q 266.16 127.37 264.84 114.18
  Q 263.82 104.06 259.22 96.76
  Q 253.76 88.12 242.77 88.72
  C 233.45 89.23 227.42 97.86 225.43 106.18"
/>
<path stroke="#d8d8d8" stroke-opacity="0.592" vector-effect="non-scaling-stroke" d="
  M 504.78 166.42
  Q 514.67 168.12 520.75 161.93
  C 525.30 157.29 528.05 149.01 528.92 142.71
  Q 530.36 132.28 529.38 116.75
  C 528.98 110.35 527.20 103.69 524.11 98.18
  C 517.76 86.87 502.91 85.94 494.85 95.85
  Q 493.08 98.03 491.30 101.66"
/>
</g>
<path fill="#000000" fill-opacity="0.180" d="
  M 353.04 84.33
  Q 334.71 85.77 323.22 99.68
  Q 314.62 110.10 313.26 123.09
  Q 310.83 146.23 327.17 160.65
  Q 338.27 170.43 354.33 171.02
  Q 373.25 171.71 389.33 164.06
  Q 389.90 163.79 389.80 162.40
  Q 394.25 164.39 395.60 161.07
  Q 396.73 158.30 396.62 155.00
  Q 396.46 149.90 396.61 144.24
  Q 396.63 143.73 396.32 143.32
  Q 395.34 142.03 393.85 142.11
  A 1.04 1.03 -70.1 0 0 393.13 142.45
  L 389.81 146.00
  Q 389.71 143.05 390.21 141.96
  Q 393.56 140.24 395.02 140.23
  Q 395.82 140.22 395.73 141.04
  Q 395.67 141.49 396.13 141.53
  Q 397.99 141.69 397.99 144.00
  Q 398.00 150.17 398.00 156.74
  A 12.91 9.55 63.4 0 1 397.27 160.95
  Q 396.36 163.36 393.95 164.02
  Q 393.81 164.06 393.74 164.21
  Q 393.71 164.27 393.77 164.31
  Q 394.19 164.67 393.64 164.71
  Q 393.16 164.75 392.54 164.93
  Q 391.22 165.46 391.64 168.63
  Q 391.69 169.00 392.06 169.00
  L 462.02 168.98
  Q 462.33 169.44 462.32 169.67
  Q 462.31 169.86 461.86 169.86
  Q 461.69 169.86 461.55 169.90
  Q 461.25 169.98 461.18 170.28
  Q 460.82 171.85 459.35 172.34
  Q 456.27 173.39 452.91 173.39
  Q 426.23 173.39 393.80 173.38
  Q 392.00 173.38 390.23 172.32
  Q 388.65 171.37 386.52 170.02
  Q 385.40 169.31 383.64 170.23
  Q 382.95 170.59 382.11 170.84
  Q 381.36 171.06 380.63 171.38
  C 379.61 171.83 378.73 171.46 377.73 172.14
  Q 376.99 172.64 376.13 172.86
  Q 367.29 175.17 358.35 175.37
  Q 352.83 175.49 346.84 175.30
  Q 341.05 175.12 336.18 172.97
  Q 331.65 170.97 328.06 168.88
  Q 327.86 168.76 327.85 168.52
  Q 327.84 168.39 327.80 168.26
  Q 327.77 168.20 327.72 168.16
  Q 324.58 166.47 322.11 163.96
  C 320.98 162.81 319.54 162.43 318.91 160.78
  Q 318.71 160.24 318.13 160.16
  Q 317.81 160.11 317.62 159.85
  Q 315.65 157.05 313.75 154.25
  Q 311.39 150.76 309.52 145.06
  C 308.86 143.03 309.08 140.98 307.24 139.50
  A 1.89 1.88 -41.4 0 0 305.06 139.37
  Q 299.18 143.06 292.57 140.81
  C 290.88 140.23 289.72 138.97 287.92 138.53
  A 0.74 0.73 10.7 0 1 287.37 137.73
  Q 287.44 137.21 287.07 136.82
  Q 286.55 136.26 287.26 136.55
  Q 288.38 137.01 288.85 137.76
  Q 289.11 138.17 289.58 138.28
  C 291.02 138.62 291.74 139.65 293.12 140.06
  Q 295.71 140.83 298.61 140.65
  Q 300.45 140.53 302.16 139.43
  Q 303.83 138.36 305.49 137.45
  A 2.26 2.26 0.0 0 1 308.71 138.65
  L 310.29 142.99
  Q 310.40 143.29 310.37 142.97
  Q 310.05 138.91 308.30 135.41
  A 0.18 0.18 0.0 0 0 308.06 135.33
  Q 305.87 136.48 305.79 136.23
  Q 313.94 128.87 307.04 120.49
  Q 310.48 117.86 310.72 112.49
  Q 310.74 111.98 311.10 111.61
  Q 311.82 110.88 311.86 109.85
  Q 311.88 109.37 312.16 108.97
  Q 314.04 106.34 315.67 103.55
  C 316.53 102.09 317.63 101.32 318.53 99.99
  Q 319.02 99.26 319.69 98.54
  Q 327.92 89.57 339.79 85.84
  Q 343.53 84.67 347.27 84.83
  Q 347.56 84.84 347.69 84.59
  Q 347.88 84.22 348.28 84.13
  Q 350.99 83.49 353.04 84.33
  Z"
/>
<path fill="#ffffff" d="
  M 353.04 84.33
  Q 364.86 83.50 375.75 88.59
  Q 376.28 88.84 376.68 88.78
  C 380.37 90.53 383.48 91.33 385.47 86.73
  Q 385.81 86.53 386.15 85.36
  Q 386.36 84.63 386.82 84.37
  Q 387.26 84.12 387.92 84.14
  Q 388.55 84.15 388.68 84.76
  Q 388.86 85.55 388.77 86.38
  L 388.79 94.60
  L 388.84 113.76
  L 385.44 113.34
  Q 384.91 113.27 384.72 112.77
  Q 380.61 101.62 371.04 93.12
  Q 366.17 88.80 358.96 88.98
  Q 345.23 89.34 339.07 101.78
  Q 338.11 103.73 337.30 105.79
  L 336.77 107.40
  L 335.28 113.61
  Q 332.64 127.64 334.86 142.27
  C 336.09 150.34 339.31 159.06 346.60 163.31
  Q 350.11 165.37 353.64 166.07
  L 357.69 166.33
  C 362.21 166.76 370.92 165.98 370.91 159.58
  Q 370.89 150.78 370.81 143.07
  C 370.74 136.82 364.21 136.59 359.73 136.71
  Q 359.22 136.72 359.23 136.21
  L 359.26 134.25
  Q 359.26 133.75 359.75 133.75
  L 399.77 133.74
  Q 400.05 133.74 400.04 134.02
  L 399.99 136.26
  A 0.49 0.48 -2.7 0 1 399.56 136.73
  C 395.54 137.16 391.45 136.67 390.21 141.96
  Q 389.71 143.05 389.81 146.00
  L 389.80 162.40
  Q 389.90 163.79 389.33 164.06
  Q 373.25 171.71 354.33 171.02
  Q 338.27 170.43 327.17 160.65
  Q 310.83 146.23 313.26 123.09
  Q 314.62 110.10 323.22 99.68
  Q 334.71 85.77 353.04 84.33
  Z"
/>
<path fill="#000000" fill-opacity="0.180" d="
  M 196.81 85.74
  L 127.96 85.74
  Q 127.25 85.74 127.25 86.46
  L 127.26 88.46
  A 0.64 0.63 -2.9 0 0 127.96 89.09
  C 132.91 88.58 138.37 90.31 138.41 96.24
  Q 138.60 123.80 138.39 156.24
  Q 138.33 164.92 129.76 164.15
  Q 133.10 160.31 133.10 158.00
  Q 133.13 128.08 133.11 99.89
  Q 133.11 98.41 132.52 97.25
  Q 131.58 95.37 130.86 94.97
  Q 126.48 92.50 125.24 92.00
  Q 124.20 91.59 122.79 91.82
  Q 121.88 91.97 120.61 92.73
  Q 118.93 93.74 117.17 94.58
  Q 116.68 94.81 116.65 95.34
  Q 116.61 95.87 116.09 95.98
  A 1.07 1.07 0.0 0 0 115.26 96.83
  Q 115.13 97.51 114.98 98.20
  Q 114.92 98.46 114.67 98.54
  Q 114.43 98.61 114.05 98.47
  Q 114.16 93.27 117.48 91.14
  Q 119.46 89.88 123.78 89.33
  Q 124.28 89.27 124.28 88.76
  L 124.25 86.25
  Q 124.24 85.76 123.75 85.76
  L 98.28 85.75
  Q 97.55 85.75 97.50 86.48
  Q 97.40 87.71 97.74 88.67
  Q 97.91 89.14 98.41 89.16
  Q 106.75 89.47 108.68 95.85
  Q 109.24 97.69 109.25 106.62
  Q 109.27 122.04 109.13 136.19
  Q 109.12 136.89 108.67 136.35
  L 100.14 126.11
  Q 100.79 125.91 101.12 126.59
  Q 101.34 127.02 101.76 126.79
  Q 102.78 126.22 102.80 124.87
  Q 102.93 113.82 102.84 102.51
  Q 102.82 100.29 101.83 98.28
  Q 101.55 97.70 100.52 96.83
  Q 99.90 96.31 99.47 95.60
  Q 99.19 95.14 98.72 94.87
  L 94.87 92.72
  A 1.73 1.72 -55.0 0 1 94.41 90.09
  Q 94.87 89.56 94.87 88.91
  Q 94.87 88.38 95.16 87.93
  L 96.37 86.06
  Q 96.77 85.44 97.51 85.42
  Q 98.05 85.40 98.51 85.15
  Q 99.46 84.62 100.66 84.62
  C 106.58 84.62 112.65 84.40 118.57 84.87
  Q 121.92 85.14 124.77 84.87
  Q 125.24 84.82 125.56 85.16
  Q 126.01 85.65 126.51 85.18
  Q 126.96 84.77 127.57 84.83
  C 129.50 85.03 131.27 84.61 133.18 84.61
  Q 161.02 84.62 191.75 84.84
  Q 193.36 84.85 196.81 85.74
  Z"
/>
<path fill="#000000" fill-opacity="0.180" d="
  M 233.96 85.14
  Q 220.19 88.48 211.61 98.51
  C 201.22 110.65 199.07 127.52 203.81 142.47
  C 207.95 155.52 218.50 166.26 232.13 169.47
  C 250.24 173.73 268.36 169.29 279.23 153.45
  C 279.57 156.27 278.07 157.03 276.77 158.93
  Q 275.98 160.07 275.07 161.09
  Q 271.07 165.55 267.56 167.98
  Q 265.47 169.43 262.60 170.85
  Q 259.91 172.18 257.29 173.05
  Q 255.22 173.73 253.36 174.28
  Q 251.51 174.83 249.29 174.92
  Q 240.70 175.29 235.51 174.96
  Q 228.63 174.51 221.91 171.51
  Q 219.74 170.54 217.81 169.09
  Q 216.56 168.14 214.94 167.68
  Q 213.54 167.28 212.25 165.98
  Q 210.03 163.74 207.75 161.41
  Q 207.12 160.77 206.77 160.04
  Q 206.42 159.32 205.65 159.13
  Q 205.10 159.00 204.95 158.45
  Q 204.34 156.13 202.02 155.67
  Q 201.52 155.58 201.25 156.00
  Q 200.74 156.80 200.26 157.12
  L 202.63 142.75
  A 0.59 0.58 4.0 0 0 202.03 142.07
  L 199.26 142.14
  Q 198.67 142.16 198.50 142.73
  C 195.84 151.76 190.95 158.75 181.74 162.05
  Q 173.82 164.89 162.66 163.36
  L 177.01 162.69
  Q 177.51 162.67 177.83 162.29
  Q 178.27 161.79 178.95 161.73
  Q 179.50 161.69 180.03 161.43
  Q 184.66 159.14 187.89 155.38
  Q 189.80 153.15 190.84 150.42
  Q 192.35 146.51 195.18 143.72
  Q 196.67 142.27 196.99 140.09
  Q 197.26 138.30 196.82 136.47
  Q 196.34 134.53 196.35 132.51
  Q 196.37 128.49 196.36 124.55
  Q 196.36 124.03 196.65 123.59
  Q 197.21 122.72 197.12 121.65
  Q 196.79 117.58 198.00 114.88
  Q 199.07 112.50 199.52 110.11
  Q 199.58 109.77 199.79 109.50
  Q 201.17 107.72 202.10 105.57
  Q 203.25 102.93 205.51 101.03
  Q 207.51 99.35 209.35 97.04
  Q 212.39 93.22 214.42 92.15
  Q 217.95 90.30 221.04 88.60
  Q 227.53 85.04 233.96 85.14
  Z"
/>
<path fill="#ffffff" d="
  M 254.67 85.31
  L 257.43 86.04
  Q 264.07 87.87 269.94 91.79
  L 278.70 100.52
  Q 285.46 109.84 286.88 121.60
  L 286.63 134.93
  Q 284.78 145.08 279.23 153.45
  C 268.36 169.29 250.24 173.73 232.13 169.47
  C 218.50 166.26 207.95 155.52 203.81 142.47
  C 199.07 127.52 201.22 110.65 211.61 98.51
  Q 220.19 88.48 233.96 85.14
  Q 244.41 84.25 254.67 85.31
  Z
  M 225.43 106.18
  Q 224.61 108.23 224.16 110.88
  Q 221.25 127.95 224.35 144.99
  Q 226.20 155.15 231.39 161.08
  Q 237.03 167.53 246.04 166.13
  Q 251.93 165.99 255.85 162.08
  Q 258.86 159.06 260.35 155.97
  Q 264.06 148.28 264.92 139.73
  Q 266.16 127.37 264.84 114.18
  Q 263.82 104.06 259.22 96.76
  Q 253.76 88.12 242.77 88.72
  C 233.45 89.23 227.42 97.86 225.43 106.18
  Z"
/>
<path fill="#000000" fill-opacity="0.180" d="
  M 519.35 86.03
  L 515.19 85.24
  Q 518.22 84.03 519.35 86.03
  Z"
/>
<path fill="#000000" fill-opacity="0.180" d="
  M 257.43 86.04
  L 254.67 85.31
  Q 256.34 84.61 257.43 86.04
  Z"
/>
<path fill="#000000" fill-opacity="0.180" d="
  M 500.09 85.36
  Q 498.96 85.81 497.98 85.74
  Q 497.95 85.68 497.93 85.62
  Q 497.88 85.50 497.99 85.42
  Q 499.28 84.47 500.09 85.36
  Z"
/>
<path fill="#000000" fill-opacity="0.180" d="
  M 396.37 86.44
  L 392.32 86.48
  Q 391.72 86.49 391.69 87.09
  L 391.60 89.22
  Q 391.56 89.88 392.22 89.81
  Q 396.02 89.39 399.14 90.90
  C 403.45 92.98 402.89 97.28 402.89 101.34
  Q 402.89 128.41 402.86 155.50
  Q 402.84 166.00 392.54 164.93
  Q 393.16 164.75 393.64 164.71
  Q 394.19 164.67 393.77 164.31
  Q 393.71 164.27 393.74 164.21
  Q 393.81 164.06 393.95 164.02
  Q 396.36 163.36 397.27 160.95
  A 12.91 9.55 63.4 0 0 398.00 156.74
  Q 398.00 150.17 397.99 144.00
  Q 397.99 141.69 396.13 141.53
  Q 395.67 141.49 395.73 141.04
  Q 395.82 140.22 395.02 140.23
  Q 393.56 140.24 390.21 141.96
  C 391.45 136.67 395.54 137.16 399.56 136.73
  A 0.49 0.48 -2.7 0 0 399.99 136.26
  L 400.04 134.02
  Q 400.05 133.74 399.77 133.74
  L 359.75 133.75
  Q 359.26 133.75 359.26 134.25
  L 359.23 136.21
  Q 359.22 136.72 359.73 136.71
  C 364.21 136.59 370.74 136.82 370.81 143.07
  Q 370.89 150.78 370.91 159.58
  C 370.92 165.98 362.21 166.76 357.69 166.33
  Q 362.13 165.05 364.35 162.16
  Q 364.64 161.78 364.68 161.29
  C 365.01 156.74 365.20 151.15 364.57 146.24
  Q 364.33 144.40 362.74 143.20
  Q 361.29 142.10 359.80 141.22
  C 358.20 140.28 357.03 140.78 356.08 138.67
  C 355.56 137.53 356.16 136.97 356.11 135.87
  Q 356.08 135.36 356.48 135.03
  Q 359.06 132.89 362.50 132.89
  C 372.73 132.87 383.13 132.54 393.34 132.89
  Q 396.79 133.01 396.93 129.12
  Q 397.42 115.15 396.93 98.53
  Q 396.91 98.00 396.61 97.57
  Q 393.76 93.54 388.79 94.60
  L 388.77 86.38
  Q 392.73 84.40 396.37 86.44
  Z"
/>
<path fill="#ffffff" d="
  M 515.19 85.24
  L 519.35 86.03
  Q 527.03 87.56 532.51 91.25
  Q 549.66 102.78 551.07 124.23
  Q 551.26 127.12 550.71 135.22
  L 550.16 138.61
  Q 547.61 148.39 541.70 156.38
  Q 539.67 158.57 537.59 160.60
  Q 530.04 167.92 520.36 170.12
  C 514.76 171.39 508.51 170.96 502.61 170.87
  C 495.13 170.75 486.42 167.11 480.61 162.01
  Q 469.92 152.62 467.03 139.50
  C 461.98 116.64 471.06 95.48 493.64 86.75
  Q 493.70 86.74 493.75 86.74
  Q 494.75 86.87 495.82 86.29
  Q 497.00 86.25 497.98 85.74
  Q 498.96 85.81 500.09 85.36
  L 515.19 85.24
  Z
  M 491.30 101.66
  Q 488.90 108.04 488.06 113.26
  Q 485.96 126.33 487.70 140.29
  C 488.14 143.82 489.16 147.78 490.09 150.96
  C 492.15 158.05 496.88 165.12 504.78 166.42
  Q 514.67 168.12 520.75 161.93
  C 525.30 157.29 528.05 149.01 528.92 142.71
  Q 530.36 132.28 529.38 116.75
  C 528.98 110.35 527.20 103.69 524.11 98.18
  C 517.76 86.87 502.91 85.94 494.85 95.85
  Q 493.08 98.03 491.30 101.66
  Z"
/>
<path fill="#ffffff" d="
  M 100.14 126.11
  L 108.67 136.35
  Q 109.12 136.89 109.13 136.19
  Q 109.27 122.04 109.25 106.62
  Q 109.24 97.69 108.68 95.85
  Q 106.75 89.47 98.41 89.16
  Q 97.91 89.14 97.74 88.67
  Q 97.40 87.71 97.50 86.48
  Q 97.55 85.75 98.28 85.75
  L 123.75 85.76
  Q 124.24 85.76 124.25 86.25
  L 124.28 88.76
  Q 124.28 89.27 123.78 89.33
  Q 119.46 89.88 117.48 91.14
  Q 114.16 93.27 114.05 98.47
  L 114.05 169.30
  Q 112.71 170.16 110.76 169.66
  Q 110.35 169.55 110.08 169.21
  L 57.08 103.17
  Q 56.69 102.68 56.69 103.31
  L 56.56 115.20
  Q 56.40 142.93 56.52 152.75
  C 56.54 154.61 56.86 157.45 57.74 159.33
  C 59.45 163.03 63.78 164.72 67.87 164.22
  Q 68.75 164.11 68.75 165.00
  L 68.77 167.19
  Q 68.78 167.80 68.17 167.78
  L 66.06 167.72
  L 40.65 167.63
  Q 40.17 167.63 40.17 167.14
  L 40.19 164.48
  L 42.64 164.12
  Q 51.85 163.89 52.08 155.25
  Q 52.45 141.62 52.14 97.50
  Q 52.13 97.00 51.81 96.61
  Q 47.20 91.19 41.28 87.73
  Q 40.78 86.50 41.72 85.91
  A 1.21 1.14 -59.4 0 1 42.34 85.73
  L 65.91 85.77
  A 2.48 2.46 -19.4 0 1 67.83 86.68
  L 100.14 126.11
  Z"
/>
<path fill="#ffffff" d="
  M 196.81 85.74
  L 196.89 110.17
  L 194.79 110.12
  Q 194.17 110.10 194.07 109.49
  Q 193.08 103.50 190.87 99.68
  Q 186.41 91.98 176.54 90.96
  Q 170.99 90.38 161.25 90.74
  C 158.65 90.84 157.80 92.89 158.01 95.33
  L 158.05 123.04
  Q 158.05 123.58 158.59 123.64
  Q 159.05 123.70 159.50 123.46
  C 170.96 124.60 174.72 117.53 176.81 107.72
  L 177.19 105.10
  Q 177.26 104.60 177.77 104.60
  L 179.94 104.60
  Q 180.40 104.60 180.40 105.06
  L 180.39 147.41
  L 177.73 147.20
  Q 177.23 147.16 177.17 146.66
  C 176.22 139.55 173.01 129.80 164.28 129.17
  Q 161.21 128.95 158.68 128.68
  Q 158.03 128.61 158.03 129.26
  L 158.01 132.84
  Q 157.85 151.85 158.09 158.50
  Q 158.24 162.73 162.66 163.36
  Q 173.82 164.89 181.74 162.05
  C 190.95 158.75 195.84 151.76 198.50 142.73
  Q 198.67 142.16 199.26 142.14
  L 202.03 142.07
  A 0.59 0.58 4.0 0 1 202.63 142.75
  L 200.26 157.12
  L 198.60 166.39
  Q 198.60 167.14 198.37 167.80
  Q 198.21 168.25 197.72 168.25
  L 127.78 168.26
  Q 127.30 168.26 127.29 167.78
  L 127.22 165.43
  Q 127.17 165.10 127.23 164.86
  Q 127.35 164.34 127.88 164.35
  Q 129.43 164.37 129.76 164.15
  Q 138.33 164.92 138.39 156.24
  Q 138.60 123.80 138.41 96.24
  C 138.37 90.31 132.91 88.58 127.96 89.09
  A 0.64 0.63 -2.9 0 1 127.26 88.46
  L 127.25 86.46
  Q 127.25 85.74 127.96 85.74
  L 196.81 85.74
  Z"
/>
<path fill="#000000" fill-opacity="0.180" d="
  M 495.82 86.29
  Q 494.75 86.87 493.75 86.74
  Q 493.65 86.59 493.62 86.46
  Q 493.56 86.09 493.93 86.03
  Q 494.90 85.89 495.82 86.29
  Z"
/>
<path fill="#000000" fill-opacity="0.180" d="
  M 385.47 86.73
  C 383.48 91.33 380.37 90.53 376.68 88.78
  L 378.00 88.87
  Q 378.50 88.90 378.87 88.57
  Q 381.94 85.88 385.47 86.73
  Z"
/>
<path fill="#ffffff" d="
  M 396.37 86.44
  L 460.70 86.50
  A 0.72 0.72 0.0 0 1 461.42 87.22
  L 461.44 110.00
  Q 461.44 110.48 460.98 110.63
  Q 460.03 110.93 458.84 110.91
  Q 457.80 107.42 456.82 104.19
  C 452.49 90.01 437.99 90.95 426.27 91.31
  Q 422.05 91.44 422.24 95.58
  L 422.24 123.49
  Q 422.24 124.00 422.74 124.08
  Q 425.38 124.48 427.83 123.98
  Q 435.06 123.60 438.27 117.25
  Q 440.67 112.49 441.21 106.85
  Q 441.04 104.58 444.48 105.46
  Q 444.94 105.57 444.94 106.05
  L 444.95 147.44
  Q 444.95 147.85 444.56 147.97
  L 444.08 148.12
  L 441.89 147.91
  Q 441.34 147.85 441.30 147.30
  Q 440.88 141.71 438.13 136.51
  C 434.73 130.07 429.41 129.30 422.82 129.44
  Q 422.23 129.45 422.22 130.04
  L 422.15 133.61
  Q 421.78 151.40 422.26 158.74
  Q 422.60 163.93 428.00 164.21
  Q 435.05 164.57 441.97 163.76
  C 453.31 161.57 459.60 154.03 462.78 143.44
  Q 462.99 142.73 463.73 142.74
  L 466.02 142.75
  A 0.79 0.78 5.3 0 1 466.79 143.67
  L 465.22 152.46
  Q 463.83 163.03 462.72 168.50
  Q 462.62 169.01 462.02 168.98
  L 392.06 169.00
  Q 391.69 169.00 391.64 168.63
  Q 391.22 165.46 392.54 164.93
  Q 402.84 166.00 402.86 155.50
  Q 402.89 128.41 402.89 101.34
  C 402.89 97.28 403.45 92.98 399.14 90.90
  Q 396.02 89.39 392.22 89.81
  Q 391.56 89.88 391.60 89.22
  L 391.69 87.09
  Q 391.72 86.49 392.32 86.48
  L 396.37 86.44
  Z"
/>
<path fill="#000000" fill-opacity="0.180" d="
  M 493.64 86.75
  C 471.06 95.48 461.98 116.64 467.03 139.50
  Q 469.92 152.62 480.61 162.01
  C 486.42 167.11 495.13 170.75 502.61 170.87
  C 508.51 170.96 514.76 171.39 520.36 170.12
  Q 530.04 167.92 537.59 160.60
  Q 539.67 158.57 541.70 156.38
  Q 540.09 159.92 537.28 162.61
  Q 536.92 162.96 536.44 163.08
  Q 535.56 163.29 535.05 164.12
  Q 534.56 164.91 533.82 165.53
  Q 531.58 167.38 528.90 169.27
  Q 528.49 169.55 528.00 169.64
  Q 527.35 169.75 526.88 170.25
  C 526.02 171.18 525.11 171.58 523.84 171.61
  Q 523.37 171.62 522.99 171.91
  C 522.54 172.24 522.18 172.58 521.61 172.71
  Q 518.51 173.42 515.55 174.02
  Q 512.39 174.65 509.55 174.63
  C 505.41 174.60 500.65 175.05 496.62 174.21
  Q 494.28 173.72 491.73 173.37
  Q 491.55 173.35 491.47 173.17
  Q 491.37 172.94 491.12 172.87
  Q 487.72 172.02 484.68 170.78
  C 482.91 170.06 481.75 168.46 479.98 167.86
  Q 479.37 167.66 478.96 167.14
  Q 478.61 166.70 478.08 166.55
  Q 477.05 166.27 476.57 165.29
  Q 476.38 164.89 476.00 164.67
  Q 473.52 163.18 471.56 160.47
  Q 471.36 160.19 471.09 159.96
  Q 470.89 159.79 470.87 159.53
  Q 470.82 159.13 470.53 158.85
  Q 469.22 157.65 468.37 156.07
  Q 468.14 155.63 467.71 155.38
  Q 466.06 154.43 465.22 152.46
  L 466.79 143.67
  A 0.79 0.78 5.3 0 0 466.02 142.75
  L 463.73 142.74
  Q 462.99 142.73 462.78 143.44
  C 459.60 154.03 453.31 161.57 441.97 163.76
  Q 441.48 163.22 441.54 163.18
  A 3.15 3.13 28.2 0 1 443.38 162.63
  Q 443.99 162.64 444.56 162.63
  Q 445.12 162.62 444.66 162.30
  Q 444.60 162.26 444.63 162.19
  Q 444.72 161.95 444.97 161.92
  Q 446.41 161.72 447.25 160.54
  A 1.06 1.05 -77.2 0 1 447.88 160.14
  Q 448.02 160.11 448.16 160.12
  Q 448.34 160.12 448.46 160.01
  Q 450.50 158.17 452.36 155.92
  Q 453.30 154.78 454.12 153.65
  Q 454.76 152.77 455.20 151.74
  Q 456.72 148.16 460.21 144.12
  C 461.07 143.12 461.60 141.48 461.48 140.21
  Q 460.93 134.12 461.17 127.30
  Q 461.38 121.07 463.24 114.34
  Q 463.84 112.15 464.91 110.34
  Q 465.64 109.09 466.06 107.71
  Q 466.48 106.30 467.42 105.16
  Q 468.79 103.50 469.95 101.75
  Q 471.15 99.95 472.64 98.42
  Q 476.23 94.73 479.11 92.38
  Q 480.05 91.61 481.23 91.13
  Q 482.46 90.63 483.50 89.98
  Q 487.99 87.22 493.64 86.75
  Z"
/>
<path fill="#000000" fill-opacity="0.180" d="
  M 41.28 87.73
  Q 47.20 91.19 51.81 96.61
  Q 52.13 97.00 52.14 97.50
  Q 52.45 141.62 52.08 155.25
  Q 51.85 163.89 42.64 164.12
  Q 47.14 159.56 47.18 153.44
  Q 47.33 129.81 47.21 105.92
  Q 47.19 101.94 46.12 99.78
  Q 44.60 96.72 42.27 94.95
  Q 40.70 93.77 40.30 91.75
  A 1.24 1.23 56.1 0 1 40.47 90.86
  Q 41.32 89.51 41.28 87.73
  Z"
/>
<path fill="#000000" fill-opacity="0.180" d="
  M 246.04 166.13
  Q 246.89 163.79 250.48 162.59
  Q 250.96 162.44 251.28 162.06
  Q 254.93 157.93 256.02 154.94
  Q 256.84 152.69 257.64 150.54
  Q 258.39 148.53 258.42 146.50
  Q 258.45 144.50 258.70 142.44
  Q 259.93 132.18 259.04 119.06
  Q 258.75 114.85 258.00 111.37
  Q 257.97 111.23 257.82 111.21
  Q 257.67 111.19 257.64 111.06
  Q 256.82 107.95 255.88 105.25
  Q 255.01 102.72 253.21 100.20
  Q 247.26 91.89 237.08 94.36
  Q 236.37 94.53 235.81 94.99
  C 234.89 95.74 233.88 95.99 233.04 96.82
  Q 231.42 98.44 229.62 100.00
  C 228.70 100.80 228.20 101.81 227.61 102.85
  Q 227.37 103.28 227.38 103.78
  Q 227.39 104.29 226.95 104.53
  Q 226.53 104.75 226.42 105.22
  Q 226.19 106.17 225.43 106.18
  C 227.42 97.86 233.45 89.23 242.77 88.72
  Q 253.76 88.12 259.22 96.76
  Q 263.82 104.06 264.84 114.18
  Q 266.16 127.37 264.92 139.73
  Q 264.06 148.28 260.35 155.97
  Q 258.86 159.06 255.85 162.08
  Q 251.93 165.99 246.04 166.13
  Z"
/>
<path fill="#000000" fill-opacity="0.180" d="
  M 388.84 113.76
  Q 387.05 114.45 386.86 115.25
  Q 386.75 115.71 386.35 115.96
  Q 383.56 117.75 380.56 115.92
  C 379.76 115.44 378.41 113.84 377.98 113.01
  Q 376.88 110.86 375.52 108.89
  Q 374.56 107.48 373.76 106.10
  Q 373.00 104.79 371.80 103.64
  Q 370.21 102.13 369.24 100.35
  Q 368.36 98.72 366.93 97.89
  Q 365.81 97.24 364.80 96.44
  Q 362.33 94.48 359.60 93.98
  Q 354.02 92.98 347.41 95.31
  Q 347.10 95.42 347.37 95.60
  Q 347.42 95.64 347.40 95.71
  Q 347.33 95.88 347.17 95.98
  Q 342.33 98.94 339.29 103.72
  Q 339.04 104.11 338.60 104.23
  Q 337.83 104.45 337.89 105.27
  Q 337.92 105.74 337.30 105.79
  Q 338.11 103.73 339.07 101.78
  Q 345.23 89.34 358.96 88.98
  Q 366.17 88.80 371.04 93.12
  Q 380.61 101.62 384.72 112.77
  Q 384.91 113.27 385.44 113.34
  L 388.84 113.76
  Z"
/>
<path fill="#000000" fill-opacity="0.180" d="
  M 504.78 166.42
  Q 510.89 166.55 515.77 162.21
  Q 516.98 161.13 517.92 159.66
  Q 518.88 158.16 519.84 156.66
  Q 521.21 154.52 522.07 152.09
  Q 524.06 146.51 524.26 141.08
  Q 524.57 132.33 524.18 120.19
  Q 524.10 117.94 523.70 115.96
  Q 523.30 114.02 523.02 112.13
  Q 523.00 112.00 522.89 111.93
  Q 522.77 111.86 522.60 111.91
  Q 522.52 111.94 522.53 111.85
  Q 522.90 110.11 521.95 108.64
  A 1.99 1.98 24.6 0 1 521.64 107.81
  Q 521.40 105.99 520.38 104.37
  Q 519.64 103.19 519.07 102.00
  C 518.49 100.78 517.76 99.04 516.59 98.30
  C 515.20 97.43 514.53 96.05 512.94 95.46
  Q 511.26 94.83 509.48 94.06
  Q 507.75 93.32 505.86 93.35
  Q 501.35 93.41 497.45 95.89
  Q 496.03 96.79 494.94 97.80
  Q 493.54 99.10 492.49 101.77
  Q 492.46 101.84 492.39 101.86
  Q 491.84 102.03 491.30 101.66
  Q 493.08 98.03 494.85 95.85
  C 502.91 85.94 517.76 86.87 524.11 98.18
  C 527.20 103.69 528.98 110.35 529.38 116.75
  Q 530.36 132.28 528.92 142.71
  C 528.05 149.01 525.30 157.29 520.75 161.93
  Q 514.67 168.12 504.78 166.42
  Z"
/>
<path fill="#000000" fill-opacity="0.180" d="
  M 196.89 110.17
  Q 197.11 110.24 197.14 110.53
  Q 197.19 111.02 196.71 110.93
  Q 194.90 110.59 193.51 111.65
  A 1.31 1.30 -55.5 0 1 192.34 111.87
  Q 190.22 111.26 189.02 109.53
  Q 187.99 108.06 187.36 106.26
  Q 184.06 96.85 174.63 95.62
  Q 167.45 94.68 158.01 95.33
  C 157.80 92.89 158.65 90.84 161.25 90.74
  Q 170.99 90.38 176.54 90.96
  Q 186.41 91.98 190.87 99.68
  Q 193.08 103.50 194.07 109.49
  Q 194.17 110.10 194.79 110.12
  L 196.89 110.17
  Z"
/>
<path fill="#000000" fill-opacity="0.180" d="
  M 458.84 110.91
  L 456.38 111.34
  Q 455.85 111.43 455.44 111.09
  Q 453.05 109.11 452.15 106.38
  Q 451.13 103.28 448.53 100.33
  Q 447.25 98.88 445.51 98.17
  Q 443.79 97.47 442.28 96.41
  Q 441.80 96.07 441.23 96.07
  C 439.24 96.07 437.62 95.16 435.63 95.09
  Q 432.50 94.97 429.48 94.77
  Q 427.78 94.65 425.92 94.97
  Q 424.12 95.27 422.24 95.58
  Q 422.05 91.44 426.27 91.31
  C 437.99 90.95 452.49 90.01 456.82 104.19
  Q 457.80 107.42 458.84 110.91
  Z"
/>
<path fill="#000000" fill-opacity="0.180" d="
  M 269.94 91.79
  Q 273.59 93.52 276.32 96.83
  Q 276.50 97.05 276.78 97.07
  Q 277.01 97.08 277.11 97.25
  Q 278.10 98.80 278.70 100.52
  L 269.94 91.79
  Z"
/>
<path fill="#000000" fill-opacity="0.180" d="
  M 114.05 169.30
  Q 114.42 169.11 114.25 169.74
  Q 114.10 170.26 113.57 170.16
  Q 112.70 170.00 111.91 170.45
  Q 111.02 170.95 109.97 170.92
  Q 107.64 170.87 105.94 170.42
  Q 103.78 169.84 102.55 168.19
  Q 100.97 166.06 99.30 164.01
  C 98.52 163.05 97.35 162.22 96.72 161.22
  Q 96.13 160.29 95.83 159.95
  Q 89.78 153.16 84.78 145.79
  Q 83.65 144.11 82.05 142.66
  Q 80.32 141.08 79.55 139.11
  Q 79.39 138.71 79.01 138.50
  Q 77.92 137.91 77.63 136.84
  Q 77.51 136.42 77.18 136.15
  Q 75.46 134.76 74.33 132.89
  C 72.82 130.39 70.54 128.98 69.00 126.57
  Q 67.82 124.74 66.34 123.26
  Q 63.78 120.71 61.91 117.60
  Q 61.11 116.28 60.03 115.24
  Q 57.23 112.55 56.56 115.20
  L 56.69 103.31
  Q 56.69 102.68 57.08 103.17
  L 110.08 169.21
  Q 110.35 169.55 110.76 169.66
  Q 112.71 170.16 114.05 169.30
  Z"
/>
<path fill="#000000" fill-opacity="0.180" d="
  M 441.21 106.85
  Q 440.67 112.49 438.27 117.25
  Q 435.06 123.60 427.83 123.98
  Q 427.79 122.53 430.26 121.42
  Q 430.71 121.22 430.92 120.78
  Q 431.37 119.83 432.14 119.09
  Q 432.50 118.75 432.61 118.27
  Q 432.80 117.44 433.40 116.82
  Q 433.74 116.47 433.87 116.00
  Q 434.42 114.01 435.10 111.98
  Q 436.85 106.76 441.21 106.85
  Z"
/>
<path fill="#000000" fill-opacity="0.180" d="
  M 336.77 107.40
  Q 337.29 108.21 337.20 109.26
  Q 337.15 109.80 336.46 110.90
  Q 335.84 111.89 335.28 113.61
  L 336.77 107.40
  Z"
/>
<path fill="#000000" fill-opacity="0.180" d="
  M 176.81 107.72
  C 174.72 117.53 170.96 124.60 159.50 123.46
  Q 161.12 122.99 162.74 122.79
  Q 164.27 122.60 165.49 121.42
  Q 167.14 119.82 168.41 118.18
  Q 169.43 116.87 170.18 115.05
  Q 170.90 113.27 171.55 111.55
  C 171.92 110.56 172.77 110.30 173.14 109.41
  Q 174.11 107.11 176.81 107.72
  Z"
/>
<path fill="#ffffff" d="
  M 307.04 120.49
  Q 313.94 128.87 305.79 136.23
  Q 304.89 136.49 304.28 137.02
  Q 300.80 138.12 297.99 137.50
  C 292.40 136.29 289.41 131.06 290.49 125.65
  Q 291.46 120.72 296.89 118.31
  Q 302.15 116.71 307.04 120.49
  Z"
/>
<path fill="#000000" fill-opacity="0.180" d="
  M 296.89 118.31
  Q 291.46 120.72 290.49 125.65
  C 289.41 131.06 292.40 136.29 297.99 137.50
  Q 300.80 138.12 304.28 137.02
  Q 304.56 137.55 304.24 137.74
  Q 302.91 138.55 300.94 139.34
  Q 299.23 140.03 297.65 140.14
  Q 294.59 140.35 292.08 138.76
  Q 289.57 137.16 287.45 135.08
  Q 287.21 134.85 287.25 135.17
  Q 287.26 135.32 287.03 135.35
  Q 286.92 135.37 286.83 135.31
  Q 286.66 135.20 286.63 134.93
  L 286.88 121.60
  Q 290.33 121.15 293.75 118.84
  Q 294.72 118.18 296.89 118.31
  Z"
/>
<path fill="#000000" fill-opacity="0.180" d="
  M 180.39 147.41
  Q 177.44 148.68 175.00 147.55
  Q 172.95 146.60 171.98 144.23
  Q 171.14 142.14 170.73 141.42
  Q 170.23 140.51 169.79 139.58
  Q 169.22 138.39 168.76 137.78
  Q 165.02 132.80 158.01 132.84
  L 158.03 129.26
  Q 158.03 128.61 158.68 128.68
  Q 161.21 128.95 164.28 129.17
  C 173.01 129.80 176.22 139.55 177.17 146.66
  Q 177.23 147.16 177.73 147.20
  L 180.39 147.41
  Z"
/>
<path fill="#000000" fill-opacity="0.180" d="
  M 444.08 148.12
  Q 441.72 149.33 438.98 148.59
  Q 438.50 148.46 438.24 148.04
  C 437.55 146.89 436.74 146.48 436.24 145.13
  Q 434.98 141.70 433.16 138.49
  Q 429.64 132.29 422.15 133.61
  L 422.22 130.04
  Q 422.23 129.45 422.82 129.44
  C 429.41 129.30 434.73 130.07 438.13 136.51
  Q 440.88 141.71 441.30 147.30
  Q 441.34 147.85 441.89 147.91
  L 444.08 148.12
  Z"
/>
<path fill="#000000" fill-opacity="0.180" d="
  M 550.71 135.22
  Q 551.77 139.24 550.16 138.61
  L 550.71 135.22
  Z"
/>
<path fill="#000000" fill-opacity="0.180" d="
  M 346.60 163.31
  L 350.31 164.67
  Q 350.78 164.84 351.27 164.78
  Q 353.11 164.58 353.64 166.07
  Q 350.11 165.37 346.60 163.31
  Z"
/>
<path fill="#000000" fill-opacity="0.180" d="
  M 40.19 164.48
  L 40.17 167.14
  Q 40.17 167.63 40.65 167.63
  L 66.06 167.72
  Q 65.94 168.22 65.69 168.61
  Q 65.42 169.04 65.40 169.54
  Q 65.36 170.27 64.80 170.82
  Q 64.27 171.33 63.58 171.41
  C 62.47 171.55 61.65 171.84 60.49 171.86
  Q 50.56 172.05 42.55 171.64
  Q 40.22 171.51 38.39 169.82
  Q 38.03 169.47 38.11 168.98
  Q 38.21 168.40 37.82 167.92
  Q 37.49 167.53 37.61 167.02
  Q 37.88 165.88 39.04 165.37
  Q 39.64 166.04 40.19 164.48
  Z"
/>
<path fill="#000000" fill-opacity="0.180" d="
  M 127.22 165.43
  L 127.29 167.78
  Q 127.30 168.26 127.78 168.26
  L 197.72 168.25
  Q 198.21 168.25 198.37 167.80
  Q 198.60 167.14 198.60 166.39
  Q 199.08 167.56 198.79 168.36
  Q 198.61 168.83 198.10 168.88
  Q 196.51 169.02 195.59 170.50
  Q 195.31 170.94 194.82 171.11
  Q 193.49 171.54 191.99 171.97
  Q 190.59 172.37 189.07 172.38
  Q 159.25 172.43 129.91 172.37
  C 129.26 172.36 128.26 172.02 127.63 171.81
  Q 124.55 170.80 124.52 168.17
  C 124.51 166.55 125.70 165.51 127.22 165.43
  Z"
/>
</svg>
