<?xml version="1.0" encoding="UTF-8" standalone="no"?>
<!DOCTYPE svg PUBLIC "-//W3C//DTD SVG 1.1//EN" "http://www.w3.org/Graphics/SVG/1.1/DTD/svg11.dtd">
<svg xmlns="http://www.w3.org/2000/svg" version="1.1" viewBox="0.00 0.00 590.00 255.00">
<g stroke-width="2.00" fill="none" stroke-linecap="butt">
<path stroke="#c6c5c7" stroke-opacity="0.659" vector-effect="non-scaling-stroke" d="
  M 223.03 107.77
  L 141.80 107.43
  Q 141.29 107.43 141.21 107.94
  Q 141.01 109.24 141.17 109.86"
/>
<path stroke="#c6c5c7" stroke-opacity="0.659" vector-effect="non-scaling-stroke" d="
  M 136.93 132.88
  L 136.29 131.51
  Q 136.08 131.06 136.08 130.57
  L 135.94 103.45"
/>
<path stroke="#c6c5c7" stroke-opacity="0.659" vector-effect="non-scaling-stroke" d="
  M 230.08 96.81
  L 230.53 82.75
  Q 230.54 82.27 230.05 82.27
  Q 185.27 82.25 138.99 82.31
  C 136.80 82.31 135.56 80.59 135.79 78.46"
/>
<path stroke="#c6c5c7" stroke-opacity="0.659" vector-effect="non-scaling-stroke" d="
  M 339.36 82.85
  Q 314.68 81.78 290.80 82.33
  Q 290.28 82.34 290.12 82.84
  Q 290.02 83.12 290.13 83.49"
/>
<path stroke="#c6c5c7" stroke-opacity="0.659" vector-effect="non-scaling-stroke" d="
  M 290.11 132.76
  L 267.82 133.16"
/>
<path stroke="#c6c5c7" stroke-opacity="0.659" vector-effect="non-scaling-stroke" d="
  M 260.03 133.09
  Q 259.69 132.89 259.20 133.02"
/>
<path stroke="#c6c5c7" stroke-opacity="0.659" vector-effect="non-scaling-stroke" d="
  M 284.32 79.81
  Q 284.67 78.91 284.43 77.70"
/>
<path stroke="#c6c5c7" stroke-opacity="0.659" vector-effect="non-scaling-stroke" d="
  M 452.97 107.38
  L 359.62 107.51
  Q 359.05 107.51 359.04 108.09
  L 359.00 111.07"
/>
<path stroke="#c6c5c7" stroke-opacity="0.659" vector-effect="non-scaling-stroke" d="
  M 452.93 132.73
  L 452.22 132.81"
/>
<path stroke="#c6c5c7" stroke-opacity="0.659" vector-effect="non-scaling-stroke" d="
  M 452.05 132.85
  L 433.31 132.95"
/>
<path stroke="#808080" vector-effect="non-scaling-stroke" d="
  M 433.31 132.95
  L 385.44 133.02"
/>
<path stroke="#c6c5c7" stroke-opacity="0.659" vector-effect="non-scaling-stroke" d="
  M 384.33 133.14
  Q 372.29 132.45 360.01 133.32"
/>
<path stroke="#c6c5c7" stroke-opacity="0.659" vector-effect="non-scaling-stroke" d="
  M 446.32 102.11
  Q 448.13 102.51 448.15 101.25
  Q 448.28 91.91 448.14 82.70
  A 0.42 0.42 0.0 0 0 447.72 82.29
  L 358.40 82.31"
/>
<path stroke="#c6c5c7" stroke-opacity="0.659" vector-effect="non-scaling-stroke" d="
  M 353.14 80.10
  Q 353.39 79.00 353.23 78.04"
/>
<path stroke="#050506" stroke-opacity="0.659" vector-effect="non-scaling-stroke" d="
  M 431.42 133.36
  Q 432.72 133.37 433.31 132.95"
/>
<path stroke="#808080" vector-effect="non-scaling-stroke" d="
  M 370.86 148.92
  C 371.96 152.99 372.95 159.06 367.75 159.42
  Q 365.23 159.59 362.70 159.44
  C 360.29 159.30 359.56 160.14 359.12 162.50
  Q 358.23 167.31 360.20 168.14"
/>
<path stroke="#808080" vector-effect="non-scaling-stroke" d="
  M 371.43 169.15
  Q 371.28 170.57 369.25 170.59
  Q 363.19 170.66 356.09 170.27"
/>
<path stroke="#808080" vector-effect="non-scaling-stroke" d="
  M 367.86 150.84
  Q 364.01 148.59 357.16 149.97"
/>
<path stroke="#808080" vector-effect="non-scaling-stroke" d="
  M 227.72 152.98
  Q 228.23 155.90 227.93 158.74
  C 227.51 162.60 224.40 162.21 221.72 162.50"
/>
<path stroke="#808080" vector-effect="non-scaling-stroke" d="
  M 224.55 154.02
  C 223.79 152.30 220.71 152.33 219.27 152.62
  Q 218.77 152.72 218.77 153.23
  Q 218.65 161.02 218.93 168.76
  Q 218.97 169.92 216.96 169.97"
/>
<path stroke="#808080" vector-effect="non-scaling-stroke" d="
  M 234.10 151.52
  Q 233.01 160.37 233.60 168.89
  Q 233.63 169.41 233.19 169.69
  Q 232.66 170.02 231.68 170.01"
/>
<path stroke="#808080" vector-effect="non-scaling-stroke" d="
  M 274.97 151.92
  Q 274.47 152.67 273.74 152.64
  Q 271.18 152.54 269.59 152.76
  Q 269.09 152.83 268.78 153.23
  Q 266.63 156.02 269.18 158.47"
/>
<path stroke="#808080" vector-effect="non-scaling-stroke" d="
  M 275.48 160.75
  Q 275.81 162.93 275.85 164.99
  C 275.96 170.92 270.70 169.66 266.96 169.90"
/>
<path stroke="#808080" vector-effect="non-scaling-stroke" d="
  M 272.65 162.59
  Q 271.17 160.75 267.19 161.17"
/>
<path stroke="#808080" vector-effect="non-scaling-stroke" d="
  M 314.24 151.80
  Q 313.80 153.98 312.20 153.61"
/>
<path stroke="#808080" vector-effect="non-scaling-stroke" d="
  M 282.28 153.68
  Q 281.78 154.38 282.07 154.87
  Q 282.25 155.17 282.70 155.23
  Q 283.11 155.28 283.49 155.21"
/>
<path stroke="#808080" vector-effect="non-scaling-stroke" d="
  M 285.64 156.38
  Q 284.70 157.13 282.69 157.06
  A 0.65 0.64 -88.3 0 0 282.02 157.70
  Q 281.97 162.24 281.95 166.83
  Q 281.94 167.32 282.29 167.67
  Q 282.70 168.09 283.40 167.93"
/>
<path stroke="#808080" vector-effect="non-scaling-stroke" d="
  M 285.02 169.27
  Q 283.28 170.21 280.47 169.77"
/>
<path stroke="#808080" vector-effect="non-scaling-stroke" d="
  M 305.29 153.71
  Q 304.87 154.40 305.17 154.81
  Q 305.51 155.29 306.25 155.07"
/>
<path stroke="#808080" vector-effect="non-scaling-stroke" d="
  M 308.78 156.45
  Q 307.67 157.19 305.90 156.93
  A 0.79 0.79 0.0 0 0 305.00 157.71
  L 304.99 166.90
  A 0.90 0.86 -60.2 0 0 305.09 167.31
  Q 305.46 168.02 306.26 167.79"
/>
<path stroke="#808080" vector-effect="non-scaling-stroke" d="
  M 307.97 169.06
  Q 307.55 169.91 306.25 169.83
  Q 304.96 169.75 303.73 170.00"
/>
<path stroke="#808080" vector-effect="non-scaling-stroke" d="
  M 263.12 156.21
  L 254.48 176.90"
/>
<path stroke="#808080" vector-effect="non-scaling-stroke" d="
  M 253.82 156.51
  Q 254.23 161.01 256.98 165.24"
/>
<path stroke="#808080" vector-effect="non-scaling-stroke" d="
  M 329.30 157.50
  Q 330.52 164.01 329.45 166.75
  C 327.94 170.61 323.21 170.38 319.70 169.54"
/>
<path stroke="#808080" vector-effect="non-scaling-stroke" d="
  M 248.12 157.52
  L 247.96 168.84
  Q 247.95 169.76 247.02 169.74
  L 238.26 169.50"
/>
<path stroke="#808080" vector-effect="non-scaling-stroke" d="
  M 243.58 161.68
  Q 236.85 163.92 240.68 167.84"
/>
<path stroke="#808080" vector-effect="non-scaling-stroke" d="
  M 244.73 158.47
  Q 243.59 157.06 242.25 157.03
  Q 240.72 157.00 239.21 157.31"
/>
<path stroke="#808080" vector-effect="non-scaling-stroke" d="
  M 298.58 157.33
  L 298.54 169.11
  Q 298.54 169.71 297.93 169.70
  L 288.68 169.57"
/>
<path stroke="#808080" vector-effect="non-scaling-stroke" d="
  M 293.99 161.95
  C 292.88 162.47 291.66 162.43 290.81 163.33
  Q 288.62 165.61 291.22 167.64"
/>
<path stroke="#808080" vector-effect="non-scaling-stroke" d="
  M 295.29 158.41
  Q 293.49 156.25 289.92 157.26"
/>
<path stroke="#808080" vector-effect="non-scaling-stroke" d="
  M 314.46 155.81
  Q 313.71 162.35 313.91 168.60
  Q 313.93 169.49 313.54 169.76
  Q 313.07 170.07 312.14 170.07"
/>
<path stroke="#808080" vector-effect="non-scaling-stroke" d="
  M 344.83 157.42
  Q 344.66 163.16 344.87 168.87
  Q 344.91 169.87 342.97 169.99"
/>
<path stroke="#808080" vector-effect="non-scaling-stroke" d="
  M 341.66 158.47
  Q 339.70 156.12 336.53 157.41
  Q 335.99 157.63 336.00 158.21
  L 336.01 169.04
  Q 336.01 169.58 335.48 169.69
  L 334.17 169.98"
/>
<path stroke="#808080" vector-effect="non-scaling-stroke" d="
  M 325.72 158.25
  A 5.75 3.26 -89.8 0 0 320.57 160.33
  A 5.75 3.25 -89.7 0 0 321.90 167.54"
/>
</g>
<path fill="#ffffff" d="
  M 223.03 107.77
  L 141.80 107.43
  Q 141.29 107.43 141.21 107.94
  Q 141.01 109.24 141.17 109.86
  L 141.16 132.02
  A 0.81 0.80 -6.9 0 1 140.54 132.80
  Q 138.50 133.28 136.93 132.88
  L 136.29 131.51
  Q 136.08 131.06 136.08 130.57
  L 135.94 103.45
  Q 135.85 102.08 136.50 102.08
  Q 183.22 102.14 229.95 102.10
  Q 230.46 102.10 230.43 101.59
  L 230.08 96.81
  L 230.53 82.75
  Q 230.54 82.27 230.05 82.27
  Q 185.27 82.25 138.99 82.31
  C 136.80 82.31 135.56 80.59 135.79 78.46
  L 135.98 77.45
  Q 136.06 76.99 136.53 76.99
  L 233.49 76.99
  A 0.77 0.76 -10.7 0 1 234.20 77.47
  Q 234.46 78.17 235.14 78.44
  Q 235.54 78.60 235.54 79.02
  L 235.62 106.96
  Q 235.62 107.53 235.06 107.54
  L 223.03 107.77
  Z"
/>
<path fill="#ffffff" d="
  M 339.36 82.85
  Q 314.68 81.78 290.80 82.33
  Q 290.28 82.34 290.12 82.84
  Q 290.02 83.12 290.13 83.49
  L 290.11 132.76
  L 267.82 133.16
  L 260.03 133.09
  Q 259.69 132.89 259.20 133.02
  L 237.40 133.05
  Q 234.76 133.06 234.05 130.52
  Q 234.01 130.36 233.93 130.08
  Q 233.24 127.63 235.79 127.62
  L 283.33 127.58
  Q 283.85 127.58 284.17 127.16
  Q 284.48 126.77 284.22 126.29
  Q 283.97 125.80 283.97 125.26
  L 284.32 79.81
  Q 284.67 78.91 284.43 77.70
  Q 284.42 77.49 284.51 77.31
  Q 284.67 76.99 285.02 76.99
  Q 310.96 76.99 337.03 76.98
  Q 338.53 76.98 339.55 78.26
  Q 341.02 80.11 339.36 82.85
  Z"
/>
<path fill="#ffffff" d="
  M 452.97 107.38
  L 359.62 107.51
  Q 359.05 107.51 359.04 108.09
  L 359.00 111.07
  L 358.95 127.03
  A 0.55 0.55 0.0 0 0 359.50 127.59
  L 451.18 127.60
  A 1.02 1.01 67.9 0 1 451.91 127.91
  Q 453.59 129.63 452.93 132.73
  L 452.22 132.81
  Q 452.13 132.83 452.05 132.85
  L 433.31 132.95
  L 385.44 133.02
  Q 384.65 132.95 384.33 133.14
  Q 372.29 132.45 360.01 133.32
  L 355.31 133.00
  A 2.47 2.46 -2.0 0 1 353.04 130.89
  Q 352.86 129.65 352.85 127.75
  Q 352.79 114.58 352.99 103.17
  Q 353.01 102.10 354.09 102.10
  L 446.32 102.11
  Q 448.13 102.51 448.15 101.25
  Q 448.28 91.91 448.14 82.70
  A 0.42 0.42 0.0 0 0 447.72 82.29
  L 358.40 82.31
  C 356.15 82.71 353.64 82.87 353.14 80.10
  Q 353.39 79.00 353.23 78.04
  Q 353.23 77.60 353.44 77.30
  A 0.71 0.70 -72.7 0 1 354.02 76.99
  L 450.71 76.99
  A 2.28 2.27 -0.0 0 1 452.99 79.26
  L 452.97 107.38
  Z"
/>
<path fill="#131017" fill-opacity="0.318" d="
  M 284.43 77.70
  Q 284.67 78.91 284.32 79.81
  Q 284.00 79.08 283.82 79.26
  Q 283.27 78.37 284.43 77.70
  Z"
/>
<path fill="#131017" fill-opacity="0.318" d="
  M 353.23 78.04
  Q 353.39 79.00 353.14 80.10
  Q 352.62 82.06 352.17 78.66
  Q 352.11 78.20 352.57 78.13
  L 353.23 78.04
  Z"
/>
<path fill="#131017" fill-opacity="0.318" d="
  M 135.79 78.46
  C 135.56 80.59 136.80 82.31 138.99 82.31
  Q 185.27 82.25 230.05 82.27
  Q 230.54 82.27 230.53 82.75
  L 230.08 96.81
  Q 228.03 91.92 228.82 86.18
  A 2.03 2.02 3.9 0 0 226.81 83.88
  Q 183.99 83.89 141.04 83.90
  Q 138.63 83.90 136.14 82.24
  Q 135.70 81.95 135.68 81.42
  Q 135.66 81.02 135.29 81.06
  A 0.04 0.03 -40.3 0 0 135.28 81.13
  Q 135.53 81.18 135.54 81.40
  A 0.20 0.20 0.0 0 1 135.17 81.51
  Q 133.51 78.46 135.79 78.46
  Z"
/>
<path fill="#131017" fill-opacity="0.318" d="
  M 283.82 79.26
  Q 283.93 85.64 283.84 92.00
  Q 283.83 92.18 283.65 92.18
  L 283.65 92.18
  Q 283.45 92.18 283.44 91.98
  Q 283.33 85.80 283.40 79.62
  Q 283.41 79.47 283.50 79.37
  Q 283.62 79.25 283.82 79.26
  Z"
/>
<path fill="#131017" fill-opacity="0.318" d="
  M 339.36 82.85
  Q 314.86 84.40 290.13 83.49
  Q 290.02 83.12 290.12 82.84
  Q 290.28 82.34 290.80 82.33
  Q 314.68 81.78 339.36 82.85
  Z"
/>
<path fill="#131017" fill-opacity="0.318" d="
  M 358.40 82.31
  L 447.72 82.29
  A 0.42 0.42 0.0 0 1 448.14 82.70
  Q 448.28 91.91 448.15 101.25
  Q 448.13 102.51 446.32 102.11
  L 446.35 85.96
  A 2.07 2.07 0.0 0 0 444.28 83.89
  L 357.92 83.88
  Q 357.68 83.88 357.56 83.66
  L 357.37 83.26
  Q 357.31 83.16 357.43 83.16
  Q 401.53 83.09 445.57 83.19
  Q 445.63 83.19 445.63 83.13
  Q 445.63 83.12 445.63 83.12
  Q 445.63 83.12 445.62 83.12
  Q 403.31 83.12 361.00 83.08
  Q 359.12 83.08 358.40 82.31
  Z"
/>
<path fill="#131017" fill-opacity="0.318" d="
  M 135.94 103.45
  L 136.08 130.57
  Q 136.08 131.06 136.29 131.51
  L 136.93 132.88
  L 134.24 130.64
  Q 133.85 130.32 133.85 129.81
  Q 133.93 117.83 133.82 105.94
  Q 133.82 105.87 133.83 105.85
  Q 133.86 105.81 133.91 105.85
  Q 133.94 105.87 133.94 105.93
  Q 133.85 117.71 133.91 129.50
  Q 133.91 129.68 134.09 129.68
  L 134.10 129.68
  Q 134.27 129.68 134.27 129.51
  Q 134.24 117.29 134.37 104.79
  Q 134.37 104.32 134.70 103.99
  Q 135.23 103.47 135.94 103.45
  Z"
/>
<path fill="#131017" fill-opacity="0.318" d="
  M 223.03 107.77
  Q 213.21 109.13 205.50 109.13
  Q 189.00 109.13 172.50 109.36
  Q 169.38 109.40 166.25 109.41
  Q 153.77 109.46 141.17 109.86
  Q 141.01 109.24 141.21 107.94
  Q 141.29 107.43 141.80 107.43
  L 223.03 107.77
  Z"
/>
<path fill="#131017" fill-opacity="0.318" d="
  M 452.97 107.38
  Q 451.53 109.28 449.75 109.34
  Q 439.94 109.66 430.27 108.93
  Q 429.86 108.90 429.58 108.59
  Q 429.49 108.49 429.37 108.44
  Q 429.24 108.38 429.11 108.38
  Q 411.35 108.38 393.59 108.39
  Q 389.74 108.39 381.92 108.86
  Q 374.87 109.28 370.24 108.77
  Q 365.39 108.24 360.20 108.42
  A 0.84 0.84 0.0 0 0 359.39 109.29
  Q 359.41 110.09 359.00 111.07
  L 359.04 108.09
  Q 359.05 107.51 359.62 107.51
  L 452.97 107.38
  Z"
/>
<path fill="#131017" fill-opacity="0.318" d="
  M 290.11 132.76
  Q 290.32 134.25 287.72 134.50
  Q 277.81 135.47 271.17 134.98
  Q 265.93 134.60 262.36 134.56
  Q 262.00 134.56 261.68 134.42
  Q 260.74 134.01 259.73 134.16
  A 0.55 0.51 -38.0 0 1 259.48 134.14
  Q 259.12 134.02 259.10 133.76
  Q 259.07 133.41 259.37 133.58
  Q 259.50 133.65 259.64 133.59
  Q 259.83 133.52 259.66 133.41
  Q 259.31 133.21 259.20 133.02
  Q 259.69 132.89 260.03 133.09
  Q 260.47 133.20 260.75 133.60
  Q 261.20 134.27 262.02 134.23
  Q 267.02 133.93 270.89 134.47
  C 276.37 135.23 281.65 134.70 287.21 134.28
  Q 288.24 134.20 289.12 133.60
  Q 289.56 133.30 289.03 133.37
  Q 278.42 134.76 267.82 133.16
  L 290.11 132.76
  Z"
/>
<path fill="#131017" fill-opacity="0.318" d="
  M 452.05 132.85
  Q 450.11 134.35 447.41 133.80
  Q 447.35 133.79 447.33 133.84
  Q 447.30 133.89 447.36 133.92
  Q 447.41 133.93 447.46 133.93
  Q 449.00 133.81 449.28 133.85
  Q 452.00 134.26 449.26 134.18
  Q 443.24 134.00 436.47 133.91
  Q 436.22 133.90 436.20 134.16
  L 436.18 134.41
  Q 436.17 134.51 436.28 134.53
  Q 443.14 135.50 450.05 135.38
  Q 451.26 135.36 451.80 134.87
  Q 452.65 134.11 452.22 132.81
  L 452.93 132.73
  Q 453.84 135.16 451.50 135.56
  Q 447.70 136.21 437.31 135.28
  Q 435.75 135.15 434.31 134.56
  Q 432.88 133.97 431.42 133.36
  Q 432.72 133.37 433.31 132.95
  L 452.05 132.85
  Z"
/>
<path fill="#131017" fill-opacity="0.318" d="
  M 360.01 133.32
  Q 372.29 132.45 384.33 133.14
  Q 382.98 133.57 379.75 133.79
  Q 368.72 134.56 360.01 133.32
  Z"
/>
<path fill="#000100" fill-opacity="0.996" d="
  M 385.44 133.02
  L 433.31 132.95
  Q 432.72 133.37 431.42 133.36
  L 385.44 133.02
  Z"
/>
<path fill="#ffffff" d="
  M 370.86 148.92
  C 371.96 152.99 372.95 159.06 367.75 159.42
  Q 365.23 159.59 362.70 159.44
  C 360.29 159.30 359.56 160.14 359.12 162.50
  Q 358.23 167.31 360.20 168.14
  L 370.24 168.12
  Q 370.75 168.12 371.07 168.52
  Q 371.29 168.79 371.43 169.15
  Q 371.28 170.57 369.25 170.59
  Q 363.19 170.66 356.09 170.27
  Q 354.80 164.82 355.75 161.24
  C 357.72 153.79 366.90 160.26 368.09 154.76
  Q 368.39 153.36 367.86 150.84
  Q 364.01 148.59 357.16 149.97
  Q 355.63 148.97 356.32 147.97
  Q 356.61 147.55 357.13 147.47
  Q 365.43 146.17 370.86 148.92
  Z"
/>
<path fill="#000100" fill-opacity="0.996" d="
  M 367.86 150.84
  Q 361.14 151.12 358.50 151.00
  Q 357.86 150.97 357.16 149.97
  Q 364.01 148.59 367.86 150.84
  Z"
/>
<path fill="#000100" fill-opacity="0.996" d="
  M 370.86 148.92
  Q 372.43 150.92 372.81 152.71
  Q 373.16 154.33 372.86 156.79
  C 371.90 164.72 360.66 156.88 360.45 163.88
  Q 360.39 165.91 360.20 168.14
  Q 358.23 167.31 359.12 162.50
  C 359.56 160.14 360.29 159.30 362.70 159.44
  Q 365.23 159.59 367.75 159.42
  C 372.95 159.06 371.96 152.99 370.86 148.92
  Z"
/>
<path fill="#ffffff" d="
  M 227.72 152.98
  Q 228.23 155.90 227.93 158.74
  C 227.51 162.60 224.40 162.21 221.72 162.50
  Q 221.29 162.40 220.92 162.19
  Q 220.51 161.95 220.46 161.50
  Q 220.44 161.25 220.61 161.07
  A 1.05 1.05 0.0 0 1 221.49 160.75
  Q 222.83 160.92 223.94 160.26
  Q 224.40 159.98 224.56 159.47
  Q 225.41 156.69 224.55 154.02
  C 223.79 152.30 220.71 152.33 219.27 152.62
  Q 218.77 152.72 218.77 153.23
  Q 218.65 161.02 218.93 168.76
  Q 218.97 169.92 216.96 169.97
  L 216.33 169.81
  Q 215.75 169.66 215.75 169.07
  L 215.75 151.43
  Q 215.75 150.83 216.35 150.79
  Q 221.03 150.49 224.24 150.86
  Q 226.46 151.11 227.72 152.98
  Z"
/>
<path fill="#ffffff" d="
  M 234.10 151.52
  Q 233.01 160.37 233.60 168.89
  Q 233.63 169.41 233.19 169.69
  Q 232.66 170.02 231.68 170.01
  Q 231.36 170.00 231.04 169.84
  Q 230.60 169.63 230.60 169.15
  L 230.66 151.40
  Q 230.66 150.92 231.12 150.79
  Q 232.61 150.39 234.10 151.52
  Z"
/>
<path fill="#ffffff" d="
  M 274.97 151.92
  Q 274.47 152.67 273.74 152.64
  Q 271.18 152.54 269.59 152.76
  Q 269.09 152.83 268.78 153.23
  Q 266.63 156.02 269.18 158.47
  Q 270.68 158.54 272.25 158.76
  Q 274.36 159.06 275.48 160.75
  Q 275.81 162.93 275.85 164.99
  C 275.96 170.92 270.70 169.66 266.96 169.90
  Q 266.53 169.97 266.12 169.75
  Q 265.69 169.52 265.66 169.07
  Q 265.65 168.80 265.71 168.54
  Q 265.84 168.03 266.37 168.03
  L 270.59 168.07
  A 2.02 2.01 -81.2 0 0 272.54 166.64
  Q 273.11 164.76 272.65 162.59
  Q 271.17 160.75 267.19 161.17
  Q 265.35 159.67 265.12 158.25
  C 263.95 151.05 267.88 150.15 273.91 150.86
  Q 274.40 150.92 274.64 151.34
  L 274.97 151.92
  Z"
/>
<path fill="#ffffff" d="
  M 314.24 151.80
  Q 313.80 153.98 312.20 153.61
  Q 310.44 153.25 311.07 151.26
  Q 311.23 150.78 311.74 150.71
  Q 313.99 150.43 314.24 151.80
  Z"
/>
<path fill="#000100" fill-opacity="0.996" d="
  M 234.10 151.52
  Q 235.29 161.20 234.82 170.30
  A 0.78 0.77 84.4 0 1 234.24 171.01
  Q 231.97 171.61 231.68 170.01
  Q 232.66 170.02 233.19 169.69
  Q 233.63 169.41 233.60 168.89
  Q 233.01 160.37 234.10 151.52
  Z"
/>
<path fill="#000100" fill-opacity="0.996" d="
  M 274.97 151.92
  Q 275.61 152.14 275.95 152.61
  A 0.79 0.79 0.0 0 1 275.24 153.86
  C 271.83 153.57 268.64 153.19 269.18 158.47
  Q 266.63 156.02 268.78 153.23
  Q 269.09 152.83 269.59 152.76
  Q 271.18 152.54 273.74 152.64
  Q 274.47 152.67 274.97 151.92
  Z"
/>
<path fill="#000100" fill-opacity="0.996" d="
  M 314.24 151.80
  Q 315.98 152.84 315.12 154.05
  Q 314.60 154.78 313.68 154.77
  Q 312.50 154.76 312.20 153.61
  Q 313.80 153.98 314.24 151.80
  Z"
/>
<path fill="#000100" fill-opacity="0.996" d="
  M 224.55 154.02
  Q 222.42 153.48 220.51 153.88
  Q 220.02 153.99 220.02 154.49
  L 220.03 170.47
  Q 220.03 170.96 219.56 171.08
  Q 217.30 171.68 216.96 169.97
  Q 218.97 169.92 218.93 168.76
  Q 218.65 161.02 218.77 153.23
  Q 218.77 152.72 219.27 152.62
  C 220.71 152.33 223.79 152.30 224.55 154.02
  Z"
/>
<path fill="#ffffff" d="
  M 282.28 153.68
  Q 281.78 154.38 282.07 154.87
  Q 282.25 155.17 282.70 155.23
  Q 283.11 155.28 283.49 155.21
  Q 285.51 154.89 285.64 156.38
  Q 284.70 157.13 282.69 157.06
  A 0.65 0.64 -88.3 0 0 282.02 157.70
  Q 281.97 162.24 281.95 166.83
  Q 281.94 167.32 282.29 167.67
  Q 282.70 168.09 283.40 167.93
  Q 284.65 168.06 285.02 169.27
  Q 283.28 170.21 280.47 169.77
  Q 279.10 169.01 279.09 167.26
  Q 279.04 160.24 279.02 153.26
  Q 279.02 152.75 279.51 152.61
  Q 281.85 151.97 282.28 153.68
  Z"
/>
<path fill="#ffffff" d="
  M 305.29 153.71
  Q 304.87 154.40 305.17 154.81
  Q 305.51 155.29 306.25 155.07
  Q 308.24 154.87 308.78 156.45
  Q 307.67 157.19 305.90 156.93
  A 0.79 0.79 0.0 0 0 305.00 157.71
  L 304.99 166.90
  A 0.90 0.86 -60.2 0 0 305.09 167.31
  Q 305.46 168.02 306.26 167.79
  Q 307.43 168.08 307.97 169.06
  Q 307.55 169.91 306.25 169.83
  Q 304.96 169.75 303.73 170.00
  Q 302.15 169.14 302.08 167.88
  Q 301.91 164.58 302.01 153.24
  Q 302.02 152.74 302.50 152.60
  Q 304.77 151.96 305.29 153.71
  Z"
/>
<path fill="#000100" fill-opacity="0.996" d="
  M 227.72 152.98
  C 229.86 154.69 229.51 158.81 228.88 161.08
  C 228.14 163.74 225.17 163.75 222.91 163.72
  Q 222.44 163.72 222.14 163.36
  Q 221.85 163.02 221.72 162.50
  C 224.40 162.21 227.51 162.60 227.93 158.74
  Q 228.23 155.90 227.72 152.98
  Z"
/>
<path fill="#000100" fill-opacity="0.996" d="
  M 282.28 153.68
  Q 283.19 153.74 283.49 155.21
  Q 283.11 155.28 282.70 155.23
  Q 282.25 155.17 282.07 154.87
  Q 281.78 154.38 282.28 153.68
  Z"
/>
<path fill="#000100" fill-opacity="0.996" d="
  M 305.29 153.71
  Q 306.34 153.77 306.25 155.07
  Q 305.51 155.29 305.17 154.81
  Q 304.87 154.40 305.29 153.71
  Z"
/>
<path fill="#ffffff" d="
  M 263.12 156.21
  L 254.48 176.90
  Q 253.32 177.17 252.56 176.88
  Q 252.11 176.71 252.29 176.27
  L 254.83 170.04
  Q 255.04 169.53 254.85 169.01
  L 249.84 155.98
  Q 249.65 155.50 250.14 155.36
  Q 252.71 154.60 253.82 156.51
  Q 254.23 161.01 256.98 165.24
  L 260.24 156.20
  Q 260.59 155.24 261.60 155.19
  Q 263.24 155.11 263.12 156.21
  Z"
/>
<path fill="#ffffff" d="
  M 329.30 157.50
  Q 330.52 164.01 329.45 166.75
  C 327.94 170.61 323.21 170.38 319.70 169.54
  C 316.71 167.21 317.04 163.23 317.29 159.93
  C 317.64 155.30 321.92 154.61 325.51 155.23
  Q 327.67 155.59 329.30 157.50
  Z
  M 321.90 167.54
  A 5.76 3.26 89.9 0 0 325.37 167.35
  A 5.73 3.25 -89.9 0 0 326.66 164.29
  A 5.76 3.25 -89.6 0 0 325.72 158.25
  A 5.75 3.26 -89.8 0 0 320.57 160.33
  A 5.75 3.25 -89.7 0 0 321.90 167.54
  Z"
/>
<path fill="#ffffff" d="
  M 248.12 157.52
  L 247.96 168.84
  Q 247.95 169.76 247.02 169.74
  L 238.26 169.50
  C 235.94 167.71 235.62 164.15 237.64 162.01
  Q 239.88 159.63 243.58 161.68
  Q 236.85 163.92 240.68 167.84
  Q 242.74 168.25 244.49 167.83
  Q 244.99 167.71 244.98 167.20
  L 244.73 158.47
  Q 243.59 157.06 242.25 157.03
  Q 240.72 157.00 239.21 157.31
  Q 238.48 157.27 238.16 156.68
  A 0.89 0.89 0.0 0 1 238.86 155.37
  Q 241.25 155.14 244.00 155.34
  Q 245.93 155.47 248.12 157.52
  Z"
/>
<path fill="#ffffff" d="
  M 298.58 157.33
  L 298.54 169.11
  Q 298.54 169.71 297.93 169.70
  L 288.68 169.57
  Q 285.82 166.64 287.08 163.77
  Q 288.75 159.95 293.28 160.94
  Q 293.72 161.04 293.99 161.95
  C 292.88 162.47 291.66 162.43 290.81 163.33
  Q 288.62 165.61 291.22 167.64
  Q 293.01 168.22 294.88 167.94
  Q 295.41 167.86 295.40 167.33
  L 295.29 158.41
  Q 293.49 156.25 289.92 157.26
  Q 289.17 157.34 288.74 156.63
  A 0.84 0.84 0.0 0 1 289.39 155.36
  Q 291.75 155.15 294.51 155.30
  Q 296.37 155.39 298.58 157.33
  Z"
/>
<path fill="#ffffff" d="
  M 314.46 155.81
  Q 313.71 162.35 313.91 168.60
  Q 313.93 169.49 313.54 169.76
  Q 313.07 170.07 312.14 170.07
  Q 311.78 170.00 311.39 169.73
  Q 310.99 169.46 310.99 168.98
  L 311.00 155.94
  Q 311.00 155.42 311.50 155.29
  Q 312.69 154.99 314.46 155.81
  Z"
/>
<path fill="#ffffff" d="
  M 344.83 157.42
  Q 344.66 163.16 344.87 168.87
  Q 344.91 169.87 342.97 169.99
  L 342.28 169.78
  Q 341.78 169.63 341.77 169.10
  L 341.66 158.47
  Q 339.70 156.12 336.53 157.41
  Q 335.99 157.63 336.00 158.21
  L 336.01 169.04
  Q 336.01 169.58 335.48 169.69
  L 334.17 169.98
  Q 333.83 169.93 333.54 169.77
  A 0.81 0.78 -76.7 0 1 333.12 169.06
  L 333.12 155.73
  A 0.37 0.37 0.0 0 1 333.47 155.36
  Q 337.26 155.15 341.01 155.29
  Q 342.57 155.34 344.83 157.42
  Z"
/>
<path fill="#000100" fill-opacity="0.996" d="
  M 314.46 155.81
  Q 315.83 162.96 315.28 170.47
  Q 315.24 170.97 314.75 171.11
  Q 312.45 171.72 312.14 170.07
  Q 313.07 170.07 313.54 169.76
  Q 313.93 169.49 313.91 168.60
  Q 313.71 162.35 314.46 155.81
  Z"
/>
<path fill="#000100" fill-opacity="0.996" d="
  M 263.12 156.21
  Q 264.54 156.50 264.38 156.91
  Q 260.48 166.51 256.64 176.13
  Q 256.14 177.38 254.48 176.90
  L 263.12 156.21
  Z"
/>
<path fill="#000100" fill-opacity="0.996" d="
  M 285.64 156.38
  Q 286.49 156.23 286.77 157.28
  A 0.77 0.77 0.0 0 1 286.02 158.25
  L 284.06 158.23
  Q 283.32 158.22 283.32 158.96
  L 283.40 167.93
  Q 282.70 168.09 282.29 167.67
  Q 281.94 167.32 281.95 166.83
  Q 281.97 162.24 282.02 157.70
  A 0.65 0.64 -88.3 0 1 282.69 157.06
  Q 284.70 157.13 285.64 156.38
  Z"
/>
<path fill="#000100" fill-opacity="0.996" d="
  M 308.78 156.45
  Q 309.11 156.43 309.41 156.64
  Q 309.69 156.83 309.74 157.16
  Q 309.85 157.78 309.28 158.05
  C 308.56 158.40 307.78 158.20 307.02 158.24
  Q 306.28 158.29 306.28 159.02
  L 306.26 167.79
  Q 305.46 168.02 305.09 167.31
  A 0.90 0.86 -60.2 0 1 304.99 166.90
  L 305.00 157.71
  A 0.79 0.79 0.0 0 1 305.90 156.93
  Q 307.67 157.19 308.78 156.45
  Z"
/>
<path fill="#000100" fill-opacity="0.996" d="
  M 253.82 156.51
  Q 256.17 160.30 256.98 165.24
  Q 254.23 161.01 253.82 156.51
  Z"
/>
<path fill="#000100" fill-opacity="0.996" d="
  M 244.73 158.47
  Q 242.52 158.37 241.00 158.54
  Q 239.59 158.70 239.21 157.31
  Q 240.72 157.00 242.25 157.03
  Q 243.59 157.06 244.73 158.47
  Z"
/>
<path fill="#000100" fill-opacity="0.996" d="
  M 295.29 158.41
  L 290.98 158.45
  Q 290.46 158.45 290.18 158.01
  Q 289.98 157.67 289.92 157.26
  Q 293.49 156.25 295.29 158.41
  Z"
/>
<path fill="#000100" fill-opacity="0.996" d="
  M 325.72 158.25
  Q 321.43 158.15 321.74 163.00
  Q 321.88 165.24 321.90 167.54
  A 5.75 3.25 -89.7 0 1 320.57 160.33
  A 5.75 3.26 -89.8 0 1 325.72 158.25
  Z"
/>
<path fill="#000100" fill-opacity="0.996" d="
  M 341.66 158.47
  L 337.90 158.57
  Q 337.32 158.59 337.32 159.17
  L 337.32 170.46
  Q 337.32 170.95 336.84 171.08
  Q 334.44 171.71 334.17 169.98
  L 335.48 169.69
  Q 336.01 169.58 336.01 169.04
  L 336.00 158.21
  Q 335.99 157.63 336.53 157.41
  Q 339.70 156.12 341.66 158.47
  Z"
/>
<path fill="#000100" fill-opacity="0.996" d="
  M 298.58 157.33
  Q 300.54 163.08 299.72 170.39
  Q 299.67 170.89 299.17 170.97
  Q 292.93 172.03 288.68 169.57
  L 297.93 169.70
  Q 298.54 169.71 298.54 169.11
  L 298.58 157.33
  Z"
/>
<path fill="#000100" fill-opacity="0.996" d="
  M 248.12 157.52
  Q 249.97 163.26 249.22 170.42
  Q 249.17 170.92 248.67 170.96
  C 246.23 171.17 240.24 171.89 238.26 169.50
  L 247.02 169.74
  Q 247.95 169.76 247.96 168.84
  L 248.12 157.52
  Z"
/>
<path fill="#000100" fill-opacity="0.996" d="
  M 329.30 157.50
  Q 332.62 162.58 330.38 168.59
  Q 329.61 170.64 327.05 171.20
  Q 322.62 172.16 319.70 169.54
  C 323.21 170.38 327.94 170.61 329.45 166.75
  Q 330.52 164.01 329.30 157.50
  Z"
/>
<path fill="#000100" fill-opacity="0.996" d="
  M 344.83 157.42
  Q 346.82 163.16 346.07 170.46
  Q 346.02 170.96 345.53 171.09
  Q 343.31 171.66 342.97 169.99
  Q 344.91 169.87 344.87 168.87
  Q 344.66 163.16 344.83 157.42
  Z"
/>
<path fill="#000100" fill-opacity="0.996" d="
  M 275.48 160.75
  C 277.80 162.48 277.88 169.79 274.59 170.74
  Q 271.72 171.56 267.62 170.99
  Q 267.27 170.94 267.09 170.64
  Q 266.91 170.33 266.96 169.90
  C 270.70 169.66 275.96 170.92 275.85 164.99
  Q 275.81 162.93 275.48 160.75
  Z"
/>
<path fill="#000100" fill-opacity="0.996" d="
  M 267.19 161.17
  Q 271.17 160.75 272.65 162.59
  Q 268.96 163.02 267.19 161.17
  Z"
/>
<path fill="#000100" fill-opacity="0.996" d="
  M 243.58 161.68
  Q 244.25 162.27 244.37 162.89
  A 0.66 0.65 -12.5 0 1 243.88 163.65
  C 243.26 163.81 242.59 163.68 242.01 164.00
  Q 240.35 164.88 240.68 167.84
  Q 236.85 163.92 243.58 161.68
  Z"
/>
<path fill="#000100" fill-opacity="0.996" d="
  M 293.99 161.95
  Q 294.93 162.21 294.98 162.81
  Q 295.03 163.34 294.50 163.42
  Q 290.77 164.00 291.22 167.64
  Q 288.62 165.61 290.81 163.33
  C 291.66 162.43 292.88 162.47 293.99 161.95
  Z"
/>
<path fill="#000100" fill-opacity="0.996" d="
  M 307.97 169.06
  Q 309.01 169.52 309.03 170.38
  Q 309.05 170.91 308.54 171.04
  Q 305.31 171.82 303.73 170.00
  Q 304.96 169.75 306.25 169.83
  Q 307.55 169.91 307.97 169.06
  Z"
/>
<path fill="#000100" fill-opacity="0.996" d="
  M 285.02 169.27
  Q 285.57 169.23 285.97 169.72
  A 0.81 0.81 0.0 0 1 285.55 171.02
  Q 282.18 171.91 280.47 169.77
  Q 283.28 170.21 285.02 169.27
  Z"
/>
<path fill="#000100" fill-opacity="0.996" d="
  M 371.43 169.15
  Q 372.25 169.45 372.54 170.19
  A 1.15 1.15 0.0 0 1 371.47 171.75
  Q 365.12 171.74 358.50 171.58
  Q 357.69 171.56 356.09 170.27
  Q 363.19 170.66 369.25 170.59
  Q 371.28 170.57 371.43 169.15
  Z"
/>
</svg>
