<?xml version="1.0" encoding="UTF-8" standalone="no"?>
<!DOCTYPE svg PUBLIC "-//W3C//DTD SVG 1.1//EN" "http://www.w3.org/Graphics/SVG/1.1/DTD/svg11.dtd">
<svg xmlns="http://www.w3.org/2000/svg" version="1.1" viewBox="0.00 0.00 590.00 255.00">
<g stroke-width="2.00" fill="none" stroke-linecap="butt">
<path stroke="#828282" stroke-opacity="0.988" vector-effect="non-scaling-stroke" d="
  M 233.82 88.66
  Q 235.91 98.28 231.92 105.88"
/>
<path stroke="#979797" stroke-opacity="0.847" vector-effect="non-scaling-stroke" d="
  M 231.92 105.88
  L 229.62 108.74"
/>
<path stroke="#828282" stroke-opacity="0.988" vector-effect="non-scaling-stroke" d="
  M 229.62 108.74
  Q 223.81 113.36 217.00 113.48
  Q 196.35 113.85 158.50 113.70
  C 151.98 113.67 149.34 119.12 149.36 124.64
  Q 149.39 134.39 149.51 143.27
  A 1.56 1.56 0.0 0 1 147.99 144.86
  L 134.89 145.18"
/>
<path stroke="#979797" stroke-opacity="0.847" vector-effect="non-scaling-stroke" d="
  M 219.58 92.00
  Q 218.85 87.21 215.24 85.36
  Q 213.25 84.35 208.10 84.32
  Q 171.59 84.15 134.93 84.30"
/>
<path stroke="#979797" stroke-opacity="0.847" vector-effect="non-scaling-stroke" d="
  M 338.57 78.96
  L 338.66 82.68
  Q 338.69 84.28 337.09 84.29
  L 297.23 84.61"
/>
<path stroke="#828282" stroke-opacity="0.988" vector-effect="non-scaling-stroke" d="
  M 297.23 84.61
  Q 293.02 87.87 292.42 90.90"
/>
<path stroke="#828282" stroke-opacity="0.988" vector-effect="non-scaling-stroke" d="
  M 292.22 91.93
  Q 291.80 93.22 291.79 93.75
  Q 291.65 105.95 291.86 120.65
  Q 291.98 129.09 291.01 132.73
  Q 288.98 140.39 280.94 143.50
  Q 277.82 144.71 269.14 144.72
  Q 250.25 144.74 231.13 144.75"
/>
<path stroke="#979797" stroke-opacity="0.847" vector-effect="non-scaling-stroke" d="
  M 452.48 98.98
  L 449.94 105.23"
/>
<path stroke="#828282" stroke-opacity="0.988" vector-effect="non-scaling-stroke" d="
  M 449.94 105.23
  L 446.48 109.51
  Q 446.15 109.91 446.46 110.32
  Q 446.65 110.58 447.02 110.77"
/>
<path stroke="#828282" stroke-opacity="0.988" vector-effect="non-scaling-stroke" d="
  M 451.76 119.44
  Q 452.86 126.32 451.48 132.69"
/>
<path stroke="#979797" stroke-opacity="0.847" vector-effect="non-scaling-stroke" d="
  M 451.48 132.69
  Q 449.97 136.96 446.97 140.07"
/>
<path stroke="#828282" stroke-opacity="0.988" vector-effect="non-scaling-stroke" d="
  M 446.97 140.07
  Q 441.62 144.66 436.25 144.68
  Q 394.71 144.82 352.93 144.75"
/>
<path stroke="#979797" stroke-opacity="0.847" vector-effect="non-scaling-stroke" d="
  M 437.01 120.48
  Q 435.16 113.05 426.99 113.53"
/>
<path stroke="#828282" stroke-opacity="0.988" vector-effect="non-scaling-stroke" d="
  M 426.99 113.53
  L 352.94 113.69"
/>
<path stroke="#979797" stroke-opacity="0.847" vector-effect="non-scaling-stroke" d="
  M 436.94 90.39
  Q 435.17 84.47 429.25 84.34
  Q 411.95 83.99 362.14 84.35"
/>
<path stroke="#828282" stroke-opacity="0.988" vector-effect="non-scaling-stroke" d="
  M 362.14 84.35
  L 352.66 84.38"
/>
<path stroke="#828282" stroke-opacity="0.988" vector-effect="non-scaling-stroke" d="
  M 278.33 153.75
  Q 277.19 154.81 275.99 154.47
  C 274.61 154.09 274.30 152.41 273.03 151.47"
/>
<path stroke="#979797" stroke-opacity="0.847" vector-effect="non-scaling-stroke" d="
  M 273.03 151.47
  Q 269.36 149.78 267.17 152.18
  Q 266.17 153.27 267.44 155.19"
/>
<path stroke="#979797" stroke-opacity="0.847" vector-effect="non-scaling-stroke" d="
  M 277.80 166.06
  Q 274.47 169.31 269.03 168.64"
/>
<path stroke="#828282" stroke-opacity="0.988" vector-effect="non-scaling-stroke" d="
  M 269.03 168.64
  L 266.03 167.77"
/>
<path stroke="#979797" stroke-opacity="0.847" vector-effect="non-scaling-stroke" d="
  M 266.03 167.77
  L 264.18 166.29"
/>
<path stroke="#828282" stroke-opacity="0.988" vector-effect="non-scaling-stroke" d="
  M 273.99 162.32
  Q 274.51 162.47 274.60 162.00
  Q 274.86 160.58 272.70 160.29"
/>
<path stroke="#979797" stroke-opacity="0.847" vector-effect="non-scaling-stroke" d="
  M 272.70 160.29
  L 268.99 159.24"
/>
<path stroke="#828282" stroke-opacity="0.988" vector-effect="non-scaling-stroke" d="
  M 268.99 159.24
  L 265.32 158.00"
/>
<path stroke="#828282" stroke-opacity="0.988" vector-effect="non-scaling-stroke" d="
  M 225.96 156.07
  C 224.20 161.80 219.08 160.63 214.61 160.80
  Q 214.11 160.81 214.03 161.32
  Q 213.84 162.60 214.05 163.80"
/>
<path stroke="#828282" stroke-opacity="0.988" vector-effect="non-scaling-stroke" d="
  M 214.14 165.11
  L 213.94 167.44
  Q 213.90 167.96 213.45 168.23
  Q 212.50 168.79 210.67 168.42"
/>
<path stroke="#828282" stroke-opacity="0.988" vector-effect="non-scaling-stroke" d="
  M 231.42 150.52
  Q 231.16 161.28 231.48 165.50
  Q 231.73 168.71 228.47 168.43"
/>
<path stroke="#828282" stroke-opacity="0.988" vector-effect="non-scaling-stroke" d="
  M 318.93 150.78
  Q 318.58 151.68 317.15 151.98"
/>
<path stroke="#828282" stroke-opacity="0.988" vector-effect="non-scaling-stroke" d="
  M 318.80 154.09
  Q 318.04 153.69 317.29 153.72"
/>
<path stroke="#828282" stroke-opacity="0.988" vector-effect="non-scaling-stroke" d="
  M 319.09 157.00
  Q 318.74 161.40 318.94 165.75
  Q 319.11 169.36 315.46 168.15"
/>
<path stroke="#828282" stroke-opacity="0.988" vector-effect="non-scaling-stroke" d="
  M 376.02 154.15
  Q 375.58 156.05 374.18 157.27
  Q 373.81 157.60 374.07 158.03
  Q 374.60 158.88 375.74 159.48"
/>
<path stroke="#828282" stroke-opacity="0.988" vector-effect="non-scaling-stroke" d="
  M 376.90 162.44
  Q 374.74 172.11 364.42 166.97"
/>
<path stroke="#828282" stroke-opacity="0.988" vector-effect="non-scaling-stroke" d="
  M 373.37 161.79
  Q 372.55 159.36 369.17 159.31"
/>
<path stroke="#828282" stroke-opacity="0.988" vector-effect="non-scaling-stroke" d="
  M 372.78 154.18
  Q 373.06 153.02 371.92 152.07
  Q 369.76 150.26 367.57 152.08
  C 366.45 153.01 366.97 154.95 364.72 155.55"
/>
<path stroke="#828282" stroke-opacity="0.988" vector-effect="non-scaling-stroke" d="
  M 288.22 156.07
  L 285.71 156.64"
/>
<path stroke="#828282" stroke-opacity="0.988" vector-effect="non-scaling-stroke" d="
  M 285.71 156.64
  Q 285.57 156.89 285.47 157.09
  Q 285.37 157.31 285.35 157.57
  Q 285.20 161.42 285.69 165.36"
/>
<path stroke="#979797" stroke-opacity="0.847" vector-effect="non-scaling-stroke" d="
  M 288.34 167.80
  Q 286.27 168.81 283.38 168.01"
/>
<path stroke="#828282" stroke-opacity="0.988" vector-effect="non-scaling-stroke" d="
  M 312.96 156.07
  Q 311.52 156.12 310.54 156.63
  Q 310.07 156.87 310.09 157.39
  L 310.39 165.07"
/>
<path stroke="#828282" stroke-opacity="0.988" vector-effect="non-scaling-stroke" d="
  M 312.96 167.96
  Q 310.74 169.03 307.44 167.99"
/>
<path stroke="#828282" stroke-opacity="0.988" vector-effect="non-scaling-stroke" d="
  M 246.86 157.93
  Q 246.39 161.34 246.59 164.79
  Q 246.61 165.19 246.79 165.45
  Q 247.02 165.80 247.31 165.94"
/>
<path stroke="#828282" stroke-opacity="0.988" vector-effect="non-scaling-stroke" d="
  M 248.20 167.77
  Q 246.53 169.67 244.21 167.97"
/>
<path stroke="#828282" stroke-opacity="0.988" vector-effect="non-scaling-stroke" d="
  M 241.51 168.15
  Q 238.48 169.30 235.24 168.01"
/>
<path stroke="#828282" stroke-opacity="0.988" vector-effect="non-scaling-stroke" d="
  M 243.46 158.47
  Q 243.76 158.09 243.46 157.41
  Q 243.25 156.93 242.81 156.71
  Q 241.29 155.93 239.57 156.32
  A 1.85 1.83 -75.1 0 0 238.65 156.86
  Q 237.37 158.26 235.04 158.73"
/>
<path stroke="#828282" stroke-opacity="0.988" vector-effect="non-scaling-stroke" d="
  M 302.89 157.50
  Q 302.56 161.81 302.77 164.75
  Q 302.81 165.33 303.34 165.71"
/>
<path stroke="#828282" stroke-opacity="0.988" vector-effect="non-scaling-stroke" d="
  M 304.38 167.62
  Q 302.57 169.98 300.36 167.66"
/>
<path stroke="#979797" stroke-opacity="0.847" vector-effect="non-scaling-stroke" d="
  M 300.36 167.66
  Q 295.18 169.20 291.19 168.00"
/>
<path stroke="#828282" stroke-opacity="0.988" vector-effect="non-scaling-stroke" d="
  M 299.58 158.15
  Q 299.87 158.02 299.57 157.40
  Q 299.42 157.09 299.10 156.90
  C 294.59 154.28 294.54 159.21 290.83 158.36"
/>
<path stroke="#828282" stroke-opacity="0.988" vector-effect="non-scaling-stroke" d="
  M 336.06 162.07
  Q 332.93 172.13 322.75 166.91"
/>
<path stroke="#828282" stroke-opacity="0.988" vector-effect="non-scaling-stroke" d="
  M 350.62 157.74
  Q 350.52 159.62 350.60 166.75
  Q 350.63 168.76 347.40 168.46"
/>
<path stroke="#828282" stroke-opacity="0.988" vector-effect="non-scaling-stroke" d="
  M 347.05 158.79
  Q 347.00 156.63 345.24 156.26"
/>
<path stroke="#828282" stroke-opacity="0.988" vector-effect="non-scaling-stroke" d="
  M 341.47 158.06
  Q 340.58 158.99 341.21 161.70"
/>
<path stroke="#828282" stroke-opacity="0.988" vector-effect="non-scaling-stroke" d="
  M 341.18 160.99
  Q 341.00 164.00 341.01 166.64
  Q 341.02 167.81 340.48 168.15
  Q 339.86 168.55 338.67 168.47"
/>
<path stroke="#828282" stroke-opacity="0.988" vector-effect="non-scaling-stroke" d="
  M 261.20 156.46
  L 258.23 164.49"
/>
<path stroke="#979797" stroke-opacity="0.847" vector-effect="non-scaling-stroke" d="
  M 258.23 164.49
  C 256.70 168.15 255.94 174.19 250.74 173.94"
/>
<path stroke="#828282" stroke-opacity="0.988" vector-effect="non-scaling-stroke" d="
  M 222.40 155.28
  C 223.19 150.50 217.49 151.04 214.58 151.49
  Q 213.96 151.58 213.96 152.20
  L 213.96 157.05
  Q 213.96 157.69 214.55 157.92
  Q 214.92 158.07 215.31 157.95"
/>
<path stroke="#828282" stroke-opacity="0.988" vector-effect="non-scaling-stroke" d="
  M 237.22 164.76
  Q 237.61 165.60 238.38 165.80"
/>
<path stroke="#828282" stroke-opacity="0.988" vector-effect="non-scaling-stroke" d="
  M 293.52 163.46
  Q 293.10 163.62 293.20 164.24
  Q 293.43 165.57 294.74 165.92"
/>
<path stroke="#828282" stroke-opacity="0.988" vector-effect="non-scaling-stroke" d="
  M 325.16 157.87
  A 5.09 4.09 88.9 0 0 324.66 163.50"
/>
<path stroke="#828282" stroke-opacity="0.988" vector-effect="non-scaling-stroke" d="
  M 332.33 160.49
  A 5.10 4.09 88.8 0 0 329.98 156.58"
/>
<path stroke="#828282" stroke-opacity="0.988" vector-effect="non-scaling-stroke" d="
  M 329.98 156.58
  A 5.11 4.10 88.7 0 0 328.98 156.18"
/>
</g>
<path fill="#ffffff" d="
  M 233.82 88.66
  Q 235.91 98.28 231.92 105.88
  L 229.62 108.74
  Q 223.81 113.36 217.00 113.48
  Q 196.35 113.85 158.50 113.70
  C 151.98 113.67 149.34 119.12 149.36 124.64
  Q 149.39 134.39 149.51 143.27
  A 1.56 1.56 0.0 0 1 147.99 144.86
  L 134.89 145.18
  Q 134.71 133.85 134.88 123.50
  C 135.04 114.28 141.64 106.27 151.24 106.29
  Q 181.89 106.33 211.33 106.28
  C 219.08 106.27 220.72 98.00 219.58 92.00
  Q 218.85 87.21 215.24 85.36
  Q 213.25 84.35 208.10 84.32
  Q 171.59 84.15 134.93 84.30
  L 134.94 77.31
  A 0.30 0.30 0.0 0 1 135.24 77.01
  Q 175.74 76.97 216.24 77.03
  Q 228.92 77.05 233.82 88.66
  Z"
/>
<path fill="#ffffff" d="
  M 338.57 78.96
  L 338.66 82.68
  Q 338.69 84.28 337.09 84.29
  L 297.23 84.61
  Q 293.02 87.87 292.42 90.90
  Q 292.20 91.54 292.22 91.93
  Q 291.80 93.22 291.79 93.75
  Q 291.65 105.95 291.86 120.65
  Q 291.98 129.09 291.01 132.73
  Q 288.98 140.39 280.94 143.50
  Q 277.82 144.71 269.14 144.72
  Q 250.25 144.74 231.13 144.75
  L 231.04 138.16
  Q 231.03 137.67 231.52 137.66
  Q 247.14 137.53 266.76 137.69
  C 273.18 137.74 277.02 134.45 277.14 127.60
  Q 277.39 113.52 277.17 97.80
  C 277.07 90.82 278.48 84.35 284.43 80.39
  C 289.97 76.71 294.76 77.02 303.13 77.00
  Q 320.50 76.97 337.91 77.02
  Q 338.43 77.02 338.47 77.55
  L 338.57 78.96
  Z"
/>
<path fill="#ffffff" d="
  M 452.48 98.98
  L 449.94 105.23
  L 446.48 109.51
  Q 446.15 109.91 446.46 110.32
  Q 446.65 110.58 447.02 110.77
  Q 450.46 114.50 451.76 119.44
  Q 452.86 126.32 451.48 132.69
  Q 449.97 136.96 446.97 140.07
  Q 441.62 144.66 436.25 144.68
  Q 394.71 144.82 352.93 144.75
  Q 352.06 141.48 352.70 138.19
  Q 352.82 137.61 353.41 137.61
  Q 390.77 137.77 428.22 137.65
  C 437.77 137.62 438.88 128.00 437.01 120.48
  Q 435.16 113.05 426.99 113.53
  L 352.94 113.69
  Q 352.10 110.11 352.73 106.84
  Q 352.83 106.34 353.34 106.34
  Q 387.71 106.34 427.36 106.29
  Q 430.79 106.29 432.51 105.53
  C 437.98 103.14 438.54 95.49 436.94 90.39
  Q 435.17 84.47 429.25 84.34
  Q 411.95 83.99 362.14 84.35
  L 352.66 84.38
  L 352.72 77.53
  Q 352.73 77.02 353.24 77.02
  Q 393.76 77.00 433.39 77.00
  Q 438.00 77.00 442.43 79.10
  Q 452.37 83.81 452.31 95.01
  Q 452.30 97.30 452.48 98.98
  Z"
/>
<path fill="#020202" fill-opacity="0.694" d="
  M 338.57 78.96
  L 339.25 85.25
  Q 339.36 86.24 338.39 86.02
  C 336.50 85.58 334.59 86.60 332.58 86.60
  Q 317.70 86.58 302.98 86.55
  Q 300.42 86.54 298.37 87.54
  Q 296.04 88.66 294.20 90.55
  Q 293.96 90.80 293.73 90.84
  Q 293.29 90.91 293.19 90.45
  Q 293.38 90.23 293.34 89.75
  Q 293.28 89.12 293.82 89.07
  Q 293.93 89.06 293.89 88.96
  Q 293.65 88.29 294.36 88.18
  Q 295.16 88.06 295.50 87.30
  Q 295.75 86.73 296.37 86.66
  Q 296.76 86.62 297.06 86.35
  Q 297.35 86.10 297.06 85.84
  Q 296.71 85.53 297.23 84.61
  L 337.09 84.29
  Q 338.69 84.28 338.66 82.68
  L 338.57 78.96
  Z"
/>
<path fill="#010101" fill-opacity="0.973" d="
  M 352.66 84.38
  L 362.14 84.35
  Q 364.82 85.15 368.00 85.01
  Q 368.36 84.99 368.14 85.27
  Q 367.88 85.61 368.10 86.07
  Q 364.47 85.21 362.37 85.67
  Q 356.09 87.05 352.66 84.38
  Z"
/>
<path fill="#020202" fill-opacity="0.694" d="
  M 134.93 84.30
  Q 171.59 84.15 208.10 84.32
  Q 213.25 84.35 215.24 85.36
  Q 218.85 87.21 219.58 92.00
  Q 218.38 91.27 217.46 90.18
  Q 217.11 89.75 216.60 89.54
  L 212.99 88.07
  Q 212.91 88.04 212.88 88.11
  Q 211.57 90.82 212.92 88.15
  Q 212.95 88.09 213.02 88.10
  Q 214.28 88.35 215.88 87.99
  Q 216.48 87.85 215.93 87.58
  Q 213.58 86.40 211.44 86.41
  Q 195.23 86.43 179.47 86.27
  C 168.04 86.16 156.23 86.74 144.84 86.64
  C 142.21 86.62 139.60 86.11 136.99 85.87
  Q 136.41 85.82 136.34 85.25
  A 0.73 0.72 7.6 0 0 135.88 84.66
  L 134.93 84.30
  Z"
/>
<path fill="#020202" fill-opacity="0.694" d="
  M 362.14 84.35
  Q 411.95 83.99 429.25 84.34
  Q 435.17 84.47 436.94 90.39
  Q 433.74 86.68 429.99 86.66
  Q 420.13 86.60 410.25 86.37
  Q 389.12 85.88 368.10 86.07
  Q 367.88 85.61 368.14 85.27
  Q 368.36 84.99 368.00 85.01
  Q 364.82 85.15 362.14 84.35
  Z"
/>
<path fill="#010101" fill-opacity="0.973" d="
  M 297.23 84.61
  Q 296.71 85.53 297.06 85.84
  Q 297.35 86.10 297.06 86.35
  Q 296.76 86.62 296.37 86.66
  Q 295.75 86.73 295.50 87.30
  Q 295.16 88.06 294.36 88.18
  Q 293.65 88.29 293.89 88.96
  Q 293.93 89.06 293.82 89.07
  Q 293.28 89.12 293.34 89.75
  Q 293.38 90.23 293.19 90.45
  Q 292.75 91.26 292.42 90.90
  Q 293.02 87.87 297.23 84.61
  Z"
/>
<path fill="#010101" fill-opacity="0.973" d="
  M 233.82 88.66
  Q 236.80 97.23 233.57 105.48
  Q 232.06 109.36 228.56 112.29
  C 227.78 112.94 227.10 112.91 226.39 113.41
  Q 225.96 113.71 225.45 113.74
  Q 223.97 113.82 222.86 114.69
  Q 222.47 115.00 221.97 115.00
  Q 192.27 115.16 163.49 115.09
  Q 162.30 115.09 161.18 115.44
  Q 159.88 115.86 158.47 115.86
  A 0.94 0.92 63.1 0 1 157.91 115.67
  Q 157.33 115.24 156.71 115.66
  A 0.23 0.23 0.0 0 0 156.62 115.82
  Q 156.59 116.23 157.09 116.11
  Q 157.66 115.99 157.07 116.12
  Q 156.19 116.33 155.39 116.36
  Q 154.94 116.38 154.57 116.64
  L 151.79 118.57
  Q 151.47 118.80 151.72 119.10
  Q 151.83 119.22 151.78 119.36
  Q 151.73 119.51 151.64 119.64
  Q 150.19 121.76 150.12 124.63
  Q 149.89 135.29 150.11 145.75
  A 0.69 0.69 0.0 0 1 149.46 146.45
  Q 141.82 146.92 134.89 145.18
  L 147.99 144.86
  A 1.56 1.56 0.0 0 0 149.51 143.27
  Q 149.39 134.39 149.36 124.64
  C 149.34 119.12 151.98 113.67 158.50 113.70
  Q 196.35 113.85 217.00 113.48
  Q 223.81 113.36 229.62 108.74
  Q 229.09 110.77 226.07 112.19
  Q 225.69 112.37 225.96 112.69
  Q 226.10 112.86 226.29 112.88
  Q 226.88 112.96 226.93 112.37
  Q 226.97 111.87 227.44 111.86
  Q 227.73 111.86 228.00 111.73
  Q 232.23 109.81 231.92 105.88
  Q 235.91 98.28 233.82 88.66
  Z"
/>
<path fill="#010101" fill-opacity="0.973" d="
  M 292.22 91.93
  Q 292.55 92.24 292.55 92.50
  Q 292.49 110.61 292.51 128.00
  Q 292.52 134.90 288.71 140.21
  Q 287.04 142.54 284.41 143.63
  Q 283.93 143.83 283.65 144.26
  Q 283.31 144.79 282.96 144.44
  Q 282.63 144.03 282.13 144.19
  Q 281.96 144.24 281.95 144.42
  Q 281.95 144.47 281.92 144.52
  Q 281.67 144.91 281.61 144.45
  Q 281.57 144.12 281.28 144.22
  Q 281.01 144.32 280.84 144.55
  Q 280.24 145.31 279.14 145.23
  Q 278.24 145.15 277.20 145.40
  Q 276.20 145.63 277.20 145.86
  Q 279.62 146.42 282.05 144.99
  Q 280.35 146.35 277.94 146.32
  Q 277.51 146.31 277.10 146.40
  Q 276.35 146.57 275.90 145.99
  Q 275.71 145.73 275.57 146.02
  Q 275.47 146.24 275.22 146.27
  Q 274.61 146.33 273.78 146.33
  Q 268.52 146.31 263.22 146.39
  Q 262.64 146.40 262.12 146.58
  Q 261.71 146.72 261.30 146.55
  A 0.80 0.71 -30.1 0 0 261.00 146.49
  L 233.59 146.47
  Q 233.12 146.47 232.84 146.08
  Q 232.28 145.32 231.13 144.75
  Q 250.25 144.74 269.14 144.72
  Q 277.82 144.71 280.94 143.50
  Q 288.98 140.39 291.01 132.73
  Q 291.98 129.09 291.86 120.65
  Q 291.65 105.95 291.79 93.75
  Q 291.80 93.22 292.22 91.93
  Z"
/>
<path fill="#020202" fill-opacity="0.694" d="
  M 452.48 98.98
  Q 452.75 104.82 449.56 109.39
  Q 449.26 109.83 448.79 109.57
  Q 448.63 109.47 448.65 109.24
  Q 448.67 108.98 448.81 108.76
  L 449.33 107.95
  Q 449.99 107.13 449.94 105.23
  L 452.48 98.98
  Z"
/>
<path fill="#010101" fill-opacity="0.973" d="
  M 449.94 105.23
  Q 449.99 107.13 449.33 107.95
  Q 447.18 108.40 447.02 110.77
  Q 446.65 110.58 446.46 110.32
  Q 446.15 109.91 446.48 109.51
  L 449.94 105.23
  Z"
/>
<path fill="#020202" fill-opacity="0.694" d="
  M 231.92 105.88
  Q 232.23 109.81 228.00 111.73
  Q 227.73 111.86 227.44 111.86
  Q 226.97 111.87 226.93 112.37
  Q 226.88 112.96 226.29 112.88
  Q 226.10 112.86 225.96 112.69
  Q 225.69 112.37 226.07 112.19
  Q 229.09 110.77 229.62 108.74
  L 231.92 105.88
  Z"
/>
<path fill="#010101" fill-opacity="0.973" d="
  M 352.94 113.69
  L 426.99 113.53
  Q 420.61 113.68 414.21 113.78
  Q 411.97 113.82 409.34 114.30
  Q 406.98 114.73 404.48 115.04
  Q 373.34 115.23 355.25 115.03
  Q 353.48 115.01 352.94 113.69
  Z"
/>
<path fill="#020202" fill-opacity="0.694" d="
  M 426.99 113.53
  Q 435.16 113.05 437.01 120.48
  Q 436.21 120.10 435.54 119.33
  Q 435.34 119.10 435.32 118.80
  Q 435.29 118.26 434.87 117.90
  C 433.45 116.70 431.80 115.80 429.90 115.81
  C 423.76 115.85 417.70 116.01 411.50 115.41
  Q 408.05 115.07 404.48 115.04
  Q 406.98 114.73 409.34 114.30
  Q 411.97 113.82 414.21 113.78
  Q 420.61 113.68 426.99 113.53
  Z"
/>
<path fill="#010101" fill-opacity="0.973" d="
  M 451.76 119.44
  Q 453.55 125.05 452.52 131.27
  Q 451.94 132.85 451.48 132.69
  Q 452.86 126.32 451.76 119.44
  Z"
/>
<path fill="#020202" fill-opacity="0.694" d="
  M 452.52 131.27
  Q 452.41 139.14 445.98 143.28
  Q 444.70 143.32 446.69 141.88
  Q 447.64 141.21 448.34 140.44
  Q 449.03 139.70 448.19 140.26
  Q 447.78 140.54 447.57 141.05
  Q 447.29 141.74 446.94 141.08
  Q 446.73 140.69 446.97 140.07
  Q 449.97 136.96 451.48 132.69
  Q 451.94 132.85 452.52 131.27
  Z"
/>
<path fill="#010101" fill-opacity="0.973" d="
  M 446.97 140.07
  Q 446.73 140.69 446.94 141.08
  Q 447.29 141.74 447.57 141.05
  Q 447.78 140.54 448.19 140.26
  Q 449.03 139.70 448.34 140.44
  Q 447.64 141.21 446.69 141.88
  Q 444.70 143.32 445.98 143.28
  L 441.60 145.73
  Q 441.31 145.89 440.98 145.89
  C 439.98 145.90 437.87 146.07 437.03 146.69
  Q 436.55 147.05 436.00 146.78
  Q 435.53 146.55 435.00 146.55
  Q 405.75 146.23 377.51 146.36
  Q 363.50 146.43 355.23 146.42
  C 354.12 146.42 353.47 145.64 352.93 144.75
  Q 394.71 144.82 436.25 144.68
  Q 441.62 144.66 446.97 140.07
  Z"
/>
<path fill="#020202" fill-opacity="0.694" d="
  M 282.96 144.44
  Q 282.57 145.16 282.05 144.99
  Q 279.62 146.42 277.20 145.86
  Q 276.20 145.63 277.20 145.40
  Q 278.24 145.15 279.14 145.23
  Q 280.24 145.31 280.84 144.55
  Q 281.01 144.32 281.28 144.22
  Q 281.57 144.12 281.61 144.45
  Q 281.67 144.91 281.92 144.52
  Q 281.95 144.47 281.95 144.42
  Q 281.96 144.24 282.13 144.19
  Q 282.63 144.03 282.96 144.44
  Z"
/>
<path fill="#ffffff" d="
  M 278.33 153.75
  Q 277.19 154.81 275.99 154.47
  C 274.61 154.09 274.30 152.41 273.03 151.47
  Q 269.36 149.78 267.17 152.18
  Q 266.17 153.27 267.44 155.19
  Q 269.77 156.30 272.37 157.00
  Q 276.07 157.99 277.14 158.96
  Q 279.94 161.51 277.80 166.06
  Q 274.47 169.31 269.03 168.64
  L 266.03 167.77
  L 264.18 166.29
  Q 262.78 164.53 262.82 162.38
  Q 262.83 161.72 263.49 161.74
  L 265.42 161.79
  Q 265.92 161.80 266.06 162.28
  Q 267.41 166.88 272.65 165.85
  Q 274.51 165.48 275.23 163.74
  A 0.98 0.98 0.0 0 0 274.34 162.38
  Q 272.50 162.35 270.64 162.38
  Q 270.63 162.38 270.62 162.37
  Q 270.62 162.35 270.62 162.36
  Q 272.31 162.42 273.99 162.32
  Q 274.51 162.47 274.60 162.00
  Q 274.86 160.58 272.70 160.29
  L 268.99 159.24
  L 265.32 158.00
  Q 262.20 154.66 264.02 151.52
  C 267.13 146.16 277.05 147.34 278.33 153.75
  Z"
/>
<path fill="#ffffff" d="
  M 225.96 156.07
  C 224.20 161.80 219.08 160.63 214.61 160.80
  Q 214.11 160.81 214.03 161.32
  Q 213.84 162.60 214.05 163.80
  Q 213.94 164.71 214.14 165.11
  L 213.94 167.44
  Q 213.90 167.96 213.45 168.23
  Q 212.50 168.79 210.67 168.42
  L 210.52 149.09
  A 0.50 0.49 -88.4 0 1 211.04 148.59
  C 216.75 148.85 226.79 146.44 225.96 156.07
  Z
  M 215.31 157.95
  C 218.24 158.12 221.80 158.55 222.40 155.28
  C 223.19 150.50 217.49 151.04 214.58 151.49
  Q 213.96 151.58 213.96 152.20
  L 213.96 157.05
  Q 213.96 157.69 214.55 157.92
  Q 214.92 158.07 215.31 157.95
  Z"
/>
<path fill="#ffffff" d="
  M 231.42 150.52
  Q 231.16 161.28 231.48 165.50
  Q 231.73 168.71 228.47 168.43
  Q 227.93 168.44 227.93 167.75
  Q 227.98 158.55 228.00 149.33
  Q 228.00 148.62 228.70 148.62
  L 230.07 148.62
  Q 230.75 148.62 230.97 149.26
  L 231.42 150.52
  Z"
/>
<path fill="#ffffff" d="
  M 318.93 150.78
  Q 318.58 151.68 317.15 151.98
  Q 314.76 151.78 315.55 149.44
  A 1.14 1.14 0.0 0 1 316.63 148.66
  Q 319.09 148.65 318.93 150.78
  Z"
/>
<path fill="#ffffff" d="
  M 376.02 154.15
  Q 375.58 156.05 374.18 157.27
  Q 373.81 157.60 374.07 158.03
  Q 374.60 158.88 375.74 159.48
  L 376.90 162.44
  Q 374.74 172.11 364.42 166.97
  Q 363.10 164.69 363.08 162.55
  Q 363.08 161.84 363.78 161.87
  L 365.17 161.93
  Q 365.83 161.96 366.04 162.58
  C 366.69 164.50 367.82 166.19 370.15 166.02
  Q 373.60 165.77 373.37 161.79
  Q 372.55 159.36 369.17 159.31
  Q 368.55 158.96 368.28 158.10
  A 0.79 0.79 0.0 0 1 369.00 157.07
  Q 371.85 156.95 372.78 154.18
  Q 373.06 153.02 371.92 152.07
  Q 369.76 150.26 367.57 152.08
  C 366.45 153.01 366.97 154.95 364.72 155.55
  Q 364.21 155.49 363.77 155.13
  Q 363.38 154.80 363.47 154.30
  C 364.84 146.61 375.50 146.87 376.02 154.15
  Z"
/>
<path fill="#ffffff" d="
  M 288.22 156.07
  L 285.71 156.64
  Q 285.57 156.89 285.47 157.09
  Q 285.37 157.31 285.35 157.57
  Q 285.20 161.42 285.69 165.36
  Q 286.40 165.64 287.15 165.88
  Q 287.88 166.12 288.08 166.56
  Q 288.31 167.05 288.34 167.80
  Q 286.27 168.81 283.38 168.01
  Q 282.27 166.91 282.20 164.24
  Q 282.11 160.77 282.19 157.25
  Q 282.21 156.71 281.71 156.49
  Q 281.23 156.28 280.68 156.33
  Q 280.16 156.38 279.94 155.91
  Q 279.64 155.24 280.00 154.60
  Q 280.32 154.05 280.94 154.05
  L 281.47 154.04
  Q 282.23 154.04 282.23 153.28
  L 282.24 150.26
  Q 282.24 149.76 282.74 149.76
  L 284.79 149.74
  Q 285.35 149.74 285.36 150.29
  L 285.40 152.76
  Q 285.42 153.86 286.52 153.92
  Q 288.61 154.05 288.22 156.07
  Z"
/>
<path fill="#ffffff" d="
  M 312.96 156.07
  Q 311.52 156.12 310.54 156.63
  Q 310.07 156.87 310.09 157.39
  L 310.39 165.07
  C 311.07 165.71 312.57 165.99 312.86 166.68
  Q 313.08 167.17 312.96 167.96
  Q 310.74 169.03 307.44 167.99
  L 306.64 157.39
  Q 306.60 156.81 306.04 156.64
  L 305.29 156.42
  Q 304.70 156.24 304.53 155.64
  Q 304.41 155.24 304.49 154.81
  Q 304.59 154.19 305.22 154.13
  L 306.29 154.04
  A 0.59 0.59 0.0 0 0 306.84 153.46
  L 306.87 150.43
  Q 306.88 149.74 307.57 149.74
  L 309.26 149.75
  Q 310.03 149.75 310.09 150.51
  L 310.32 153.15
  Q 310.36 153.57 310.75 153.75
  Q 311.22 153.96 311.73 153.97
  Q 312.50 154.00 312.80 154.61
  Q 313.05 155.13 312.96 156.07
  Z"
/>
<path fill="#010101" fill-opacity="0.973" d="
  M 231.42 150.52
  L 231.79 168.79
  A 1.16 1.15 -69.8 0 1 229.87 169.68
  L 228.47 168.43
  Q 231.73 168.71 231.48 165.50
  Q 231.16 161.28 231.42 150.52
  Z"
/>
<path fill="#020202" fill-opacity="0.694" d="
  M 273.03 151.47
  Q 272.93 151.97 273.69 152.76
  Q 271.32 153.26 269.25 153.50
  Q 267.69 153.68 267.44 155.19
  Q 266.17 153.27 267.17 152.18
  Q 269.36 149.78 273.03 151.47
  Z"
/>
<path fill="#010101" fill-opacity="0.973" d="
  M 318.93 150.78
  Q 319.66 152.23 318.80 154.09
  Q 318.04 153.69 317.29 153.72
  Q 318.15 152.89 317.15 151.98
  Q 318.58 151.68 318.93 150.78
  Z"
/>
<path fill="#010101" fill-opacity="0.973" d="
  M 222.40 155.28
  Q 222.49 153.86 221.05 153.28
  Q 219.99 152.85 218.86 153.05
  Q 217.53 153.28 216.35 153.01
  Q 215.87 152.90 215.54 153.26
  Q 213.42 155.61 215.31 157.95
  Q 214.92 158.07 214.55 157.92
  Q 213.96 157.69 213.96 157.05
  L 213.96 152.20
  Q 213.96 151.58 214.58 151.49
  C 217.49 151.04 223.19 150.50 222.40 155.28
  Z"
/>
<path fill="#010101" fill-opacity="0.973" d="
  M 372.78 154.18
  Q 369.34 151.02 367.73 155.84
  A 1.55 1.54 45.7 0 1 364.79 155.80
  Q 364.76 155.69 364.72 155.55
  C 366.97 154.95 366.45 153.01 367.57 152.08
  Q 369.76 150.26 371.92 152.07
  Q 373.06 153.02 372.78 154.18
  Z"
/>
<path fill="#010101" fill-opacity="0.973" d="
  M 273.03 151.47
  C 274.30 152.41 274.61 154.09 275.99 154.47
  Q 277.19 154.81 278.33 153.75
  Q 278.40 154.86 277.62 155.73
  Q 277.28 156.12 276.82 155.86
  Q 274.72 154.63 273.69 152.76
  Q 272.93 151.97 273.03 151.47
  Z"
/>
<path fill="#ffffff" d="
  M 246.86 157.93
  Q 246.39 161.34 246.59 164.79
  Q 246.61 165.19 246.79 165.45
  Q 247.02 165.80 247.31 165.94
  Q 248.19 166.66 248.20 167.77
  Q 246.53 169.67 244.21 167.97
  Q 242.86 167.41 241.51 168.15
  Q 238.48 169.30 235.24 168.01
  Q 232.98 165.45 234.37 162.53
  C 236.37 158.33 241.05 161.54 243.46 158.47
  Q 243.76 158.09 243.46 157.41
  Q 243.25 156.93 242.81 156.71
  Q 241.29 155.93 239.57 156.32
  A 1.85 1.83 -75.1 0 0 238.65 156.86
  Q 237.37 158.26 235.04 158.73
  Q 233.57 154.94 239.01 153.91
  C 242.56 153.23 245.95 153.99 246.86 157.93
  Z
  M 237.22 164.76
  Q 237.61 165.60 238.38 165.80
  Q 242.41 167.14 243.49 162.94
  Q 243.74 161.95 242.73 161.79
  Q 240.48 161.44 237.97 162.66
  Q 236.39 163.42 237.22 164.76
  Z"
/>
<path fill="#ffffff" d="
  M 302.89 157.50
  Q 302.56 161.81 302.77 164.75
  Q 302.81 165.33 303.34 165.71
  Q 304.06 166.39 304.38 167.62
  Q 302.57 169.98 300.36 167.66
  Q 295.18 169.20 291.19 168.00
  Q 289.49 165.42 290.17 163.25
  C 291.85 157.86 298.64 161.74 299.58 158.15
  Q 299.87 158.02 299.57 157.40
  Q 299.42 157.09 299.10 156.90
  C 294.59 154.28 294.54 159.21 290.83 158.36
  Q 290.28 154.66 295.25 153.81
  C 298.57 153.25 301.79 154.04 302.89 157.50
  Z
  M 293.52 163.46
  Q 293.10 163.62 293.20 164.24
  Q 293.43 165.57 294.74 165.92
  C 297.53 166.76 299.70 165.44 299.49 162.37
  Q 299.45 161.84 298.92 161.83
  C 297.10 161.77 294.49 161.75 293.52 163.46
  Z"
/>
<path fill="#ffffff" d="
  M 317.29 153.72
  Q 318.04 153.69 318.80 154.09
  L 319.09 157.00
  Q 318.74 161.40 318.94 165.75
  Q 319.11 169.36 315.46 168.15
  Q 315.56 164.40 315.37 155.37
  Q 315.34 153.60 317.29 153.72
  Z"
/>
<path fill="#ffffff" d="
  M 336.06 162.07
  Q 332.93 172.13 322.75 166.91
  A 8.51 7.45 75.1 0 1 323.19 155.67
  A 8.50 7.44 75.3 0 1 332.04 154.77
  A 8.52 7.45 75.5 0 1 336.06 162.07
  Z
  M 325.16 157.87
  A 5.09 4.09 88.9 0 0 324.66 163.50
  A 5.09 4.09 89.1 0 0 329.37 166.11
  A 5.10 4.09 88.9 0 0 332.33 160.49
  A 5.10 4.09 88.8 0 0 329.98 156.58
  A 5.11 4.10 88.7 0 0 328.98 156.18
  A 5.09 4.09 88.7 0 0 325.16 157.87
  Z"
/>
<path fill="#ffffff" d="
  M 350.62 157.74
  Q 350.52 159.62 350.60 166.75
  Q 350.63 168.76 347.40 168.46
  L 347.05 158.79
  Q 347.00 156.63 345.24 156.26
  Q 342.87 155.46 341.47 158.06
  Q 340.58 158.99 341.21 161.70
  Q 341.20 161.35 341.18 160.99
  Q 341.00 164.00 341.01 166.64
  Q 341.02 167.81 340.48 168.15
  Q 339.86 168.55 338.67 168.47
  Q 338.42 168.53 338.16 168.32
  Q 337.78 168.01 337.78 167.52
  L 337.77 154.78
  A 0.72 0.71 -0.8 0 1 338.47 154.07
  L 340.05 154.02
  A 0.60 0.60 0.0 0 1 340.67 154.55
  L 340.74 155.29
  Q 340.83 156.10 341.39 155.51
  C 344.58 152.12 349.25 153.46 350.62 157.74
  Z"
/>
<path fill="#ffffff" d="
  M 261.20 156.46
  L 258.23 164.49
  C 256.70 168.15 255.94 174.19 250.74 173.94
  Q 249.47 173.94 249.03 172.87
  A 1.00 1.00 0.0 0 1 249.95 171.49
  C 253.17 171.47 253.46 168.79 252.46 166.40
  Q 250.18 160.92 248.13 154.60
  Q 247.98 154.14 248.47 154.12
  L 250.69 154.03
  Q 251.18 154.01 251.38 154.45
  Q 253.33 158.82 254.75 163.89
  Q 255.04 164.94 255.39 163.90
  L 258.57 154.50
  Q 258.77 153.89 259.41 154.01
  Q 260.23 154.15 260.99 153.98
  Q 261.72 153.80 261.70 154.55
  Q 261.68 155.57 261.20 156.46
  Z"
/>
<path fill="#010101" fill-opacity="0.973" d="
  M 376.02 154.15
  Q 376.77 156.13 375.82 157.56
  Q 375.26 158.42 375.74 159.48
  Q 374.60 158.88 374.07 158.03
  Q 373.81 157.60 374.18 157.27
  Q 375.58 156.05 376.02 154.15
  Z"
/>
<path fill="#010101" fill-opacity="0.973" d="
  M 288.22 156.07
  Q 288.50 157.02 288.05 157.40
  Q 287.65 157.73 287.26 157.39
  Q 286.59 156.81 285.71 156.64
  L 288.22 156.07
  Z"
/>
<path fill="#010101" fill-opacity="0.973" d="
  M 312.96 156.07
  Q 313.18 156.58 313.09 157.18
  A 1.36 1.35 -14.1 0 1 312.59 158.01
  L 311.20 159.09
  A 0.92 0.90 -17.2 0 0 310.85 159.74
  L 310.39 165.07
  L 310.09 157.39
  Q 310.07 156.87 310.54 156.63
  Q 311.52 156.12 312.96 156.07
  Z"
/>
<path fill="#010101" fill-opacity="0.973" d="
  M 225.96 156.07
  Q 226.65 158.30 225.30 160.20
  Q 224.09 161.90 222.15 162.13
  Q 219.54 162.43 216.68 162.44
  A 2.35 1.79 16.1 0 0 215.08 163.06
  Q 214.93 163.22 214.96 163.44
  A 0.39 0.39 0.0 0 1 214.50 163.88
  L 214.05 163.80
  Q 213.84 162.60 214.03 161.32
  Q 214.11 160.81 214.61 160.80
  C 219.08 160.63 224.20 161.80 225.96 156.07
  Z"
/>
<path fill="#010101" fill-opacity="0.973" d="
  M 243.46 158.47
  Q 241.73 156.47 238.99 158.73
  Q 237.90 159.63 237.13 159.49
  Q 236.29 159.33 235.04 158.73
  Q 237.37 158.26 238.65 156.86
  A 1.85 1.83 -75.1 0 1 239.57 156.32
  Q 241.29 155.93 242.81 156.71
  Q 243.25 156.93 243.46 157.41
  Q 243.76 158.09 243.46 158.47
  Z"
/>
<path fill="#010101" fill-opacity="0.973" d="
  M 299.58 158.15
  Q 298.74 156.70 295.91 158.03
  Q 295.47 158.24 295.19 158.65
  Q 293.84 160.66 290.83 158.36
  C 294.54 159.21 294.59 154.28 299.10 156.90
  Q 299.42 157.09 299.57 157.40
  Q 299.87 158.02 299.58 158.15
  Z"
/>
<path fill="#010101" fill-opacity="0.973" d="
  M 328.98 156.18
  A 5.11 4.10 88.7 0 1 329.98 156.58
  Q 329.91 157.43 329.63 157.83
  Q 329.30 158.31 328.89 157.89
  Q 328.53 157.52 327.97 157.55
  Q 327.65 157.56 327.61 157.88
  Q 327.56 158.32 327.10 158.47
  Q 326.78 158.58 326.47 158.50
  Q 325.60 158.28 326.22 157.64
  Q 327.37 156.47 328.98 156.18
  Z"
/>
<path fill="#010101" fill-opacity="0.973" d="
  M 345.24 156.26
  Q 347.00 156.63 347.05 158.79
  L 346.23 157.99
  Q 345.85 157.63 345.35 157.76
  Q 344.80 157.90 344.34 157.55
  Q 343.91 157.21 344.13 156.74
  Q 344.34 156.32 345.24 156.26
  Z"
/>
<path fill="#010101" fill-opacity="0.973" d="
  M 261.20 156.46
  L 261.37 159.23
  Q 261.40 159.70 260.98 159.91
  Q 259.86 160.50 260.19 162.23
  L 258.23 164.49
  L 261.20 156.46
  Z"
/>
<path fill="#010101" fill-opacity="0.973" d="
  M 285.71 156.64
  Q 286.22 157.15 286.23 157.75
  Q 286.25 161.46 285.69 165.36
  Q 285.20 161.42 285.35 157.57
  Q 285.37 157.31 285.47 157.09
  Q 285.57 156.89 285.71 156.64
  Z"
/>
<path fill="#010101" fill-opacity="0.973" d="
  M 329.98 156.58
  A 5.10 4.09 88.8 0 1 332.33 160.49
  Q 331.76 158.77 330.40 157.99
  Q 330.03 157.78 330.09 157.36
  Q 330.13 157.05 329.98 156.58
  Z"
/>
<path fill="#010101" fill-opacity="0.973" d="
  M 319.09 157.00
  L 319.24 168.92
  A 0.93 0.93 0.0 0 1 318.03 169.81
  Q 316.20 169.22 315.46 168.15
  Q 319.11 169.36 318.94 165.75
  Q 318.74 161.40 319.09 157.00
  Z"
/>
<path fill="#010101" fill-opacity="0.973" d="
  M 302.89 157.50
  L 303.34 165.71
  Q 302.81 165.33 302.77 164.75
  Q 302.56 161.81 302.89 157.50
  Z"
/>
<path fill="#010101" fill-opacity="0.973" d="
  M 341.21 161.70
  Q 340.58 158.99 341.47 158.06
  L 343.43 157.61
  Q 343.69 157.55 343.81 157.80
  Q 343.88 157.93 343.84 158.11
  Q 343.80 158.31 343.61 158.39
  Q 342.29 158.96 341.21 161.70
  Z"
/>
<path fill="#010101" fill-opacity="0.973" d="
  M 350.62 157.74
  L 350.94 169.05
  Q 350.97 169.97 350.05 169.86
  Q 348.68 169.70 347.40 168.46
  Q 350.63 168.76 350.60 166.75
  Q 350.52 159.62 350.62 157.74
  Z"
/>
<path fill="#010101" fill-opacity="0.973" d="
  M 246.86 157.93
  L 247.31 165.94
  Q 247.02 165.80 246.79 165.45
  Q 246.61 165.19 246.59 164.79
  Q 246.39 161.34 246.86 157.93
  Z"
/>
<path fill="#010101" fill-opacity="0.973" d="
  M 265.32 158.00
  L 268.99 159.24
  Q 267.79 159.46 266.09 159.20
  Q 265.93 159.47 265.32 158.00
  Z"
/>
<path fill="#010101" fill-opacity="0.973" d="
  M 325.16 157.87
  Q 325.25 158.41 325.70 158.74
  Q 326.42 159.26 325.56 159.43
  Q 325.29 159.48 325.15 159.77
  Q 324.85 160.40 324.88 160.99
  Q 324.94 162.26 324.66 163.50
  A 5.09 4.09 88.9 0 1 325.16 157.87
  Z"
/>
<path fill="#020202" fill-opacity="0.694" d="
  M 266.09 159.20
  Q 267.79 159.46 268.99 159.24
  L 272.70 160.29
  Q 272.09 160.36 271.91 160.55
  Q 271.71 160.77 272.13 161.09
  Q 272.39 161.29 272.77 161.53
  Q 269.12 162.63 266.09 159.20
  Z"
/>
<path fill="#010101" fill-opacity="0.973" d="
  M 369.17 159.31
  Q 372.55 159.36 373.37 161.79
  C 371.84 160.95 370.16 160.69 369.17 159.31
  Z"
/>
<path fill="#010101" fill-opacity="0.973" d="
  M 272.70 160.29
  Q 274.86 160.58 274.60 162.00
  Q 274.51 162.47 273.99 162.32
  L 273.90 161.85
  Q 273.83 161.52 273.49 161.61
  Q 273.18 161.69 272.77 161.53
  Q 272.39 161.29 272.13 161.09
  Q 271.71 160.77 271.91 160.55
  Q 272.09 160.36 272.70 160.29
  Z"
/>
<path fill="#010101" fill-opacity="0.973" d="
  M 341.18 160.99
  L 341.57 168.83
  A 0.93 0.92 -17.4 0 1 341.12 169.67
  Q 339.79 170.45 338.67 168.47
  Q 339.86 168.55 340.48 168.15
  Q 341.02 167.81 341.01 166.64
  Q 341.00 164.00 341.18 160.99
  Z"
/>
<path fill="#010101" fill-opacity="0.973" d="
  M 336.06 162.07
  A 8.45 7.45 75.9 0 1 335.20 166.41
  A 8.51 7.45 74.9 0 1 328.19 170.37
  A 8.53 7.46 75.1 0 1 322.75 166.91
  Q 332.93 172.13 336.06 162.07
  Z"
/>
<path fill="#020202" fill-opacity="0.694" d="
  M 260.19 162.23
  Q 260.53 162.94 260.38 163.79
  Q 260.29 164.29 259.85 164.56
  Q 259.53 164.76 259.58 165.20
  Q 259.61 165.57 259.50 165.22
  Q 259.48 165.17 259.43 165.15
  Q 259.35 165.12 259.33 165.21
  Q 258.18 169.35 256.41 173.27
  Q 256.20 173.74 255.73 173.93
  Q 255.23 174.13 255.15 174.33
  A 2.51 2.48 14.4 0 1 252.41 175.93
  Q 250.22 175.59 250.74 173.94
  C 255.94 174.19 256.70 168.15 258.23 164.49
  L 260.19 162.23
  Z"
/>
<path fill="#010101" fill-opacity="0.973" d="
  M 376.90 162.44
  Q 377.53 164.62 376.94 166.54
  C 375.82 170.17 371.08 170.88 367.90 169.92
  Q 365.56 169.22 364.42 166.97
  Q 374.74 172.11 376.90 162.44
  Z"
/>
<path fill="#010101" fill-opacity="0.973" d="
  M 240.88 162.49
  Q 241.32 162.19 241.80 162.49
  Q 242.52 162.93 241.73 163.24
  Q 240.54 163.70 239.24 163.94
  Q 238.44 164.10 238.92 163.44
  Q 239.38 162.81 240.33 162.69
  Q 240.63 162.65 240.88 162.49
  Z"
/>
<path fill="#010101" fill-opacity="0.973" d="
  M 293.52 163.46
  Q 293.60 163.59 293.62 163.74
  Q 293.65 163.94 293.85 163.88
  Q 294.03 163.82 294.20 163.84
  Q 294.38 163.85 294.38 164.04
  Q 294.39 165.02 294.74 165.92
  Q 293.43 165.57 293.20 164.24
  Q 293.10 163.62 293.52 163.46
  Z"
/>
<path fill="#010101" fill-opacity="0.973" d="
  M 238.38 165.80
  Q 237.61 165.60 237.22 164.76
  L 237.93 164.20
  Q 238.37 163.84 238.37 164.41
  L 238.38 165.80
  Z"
/>
<path fill="#010101" fill-opacity="0.973" d="
  M 214.14 165.11
  Q 215.04 166.59 214.65 168.80
  Q 214.51 169.63 213.67 169.72
  Q 212.13 169.89 210.67 168.42
  Q 212.50 168.79 213.45 168.23
  Q 213.90 167.96 213.94 167.44
  L 214.14 165.11
  Z"
/>
<path fill="#020202" fill-opacity="0.694" d="
  M 277.80 166.06
  Q 277.67 167.43 277.73 167.47
  A 1.12 1.12 0.0 0 1 277.36 169.37
  Q 273.59 170.64 270.39 170.65
  Q 270.38 170.65 270.37 170.63
  Q 270.36 170.57 270.30 170.58
  Q 270.28 170.58 270.51 170.60
  Q 272.54 170.78 274.30 170.39
  Q 274.45 170.36 274.49 170.51
  Q 274.50 170.56 274.50 170.61
  Q 274.50 170.66 274.44 170.68
  Q 271.24 171.72 268.80 170.34
  Q 267.96 169.86 267.02 169.73
  Q 266.53 169.66 266.25 169.26
  L 264.18 166.29
  L 266.03 167.77
  Q 266.93 169.62 269.03 168.64
  Q 274.47 169.31 277.80 166.06
  Z"
/>
<path fill="#010101" fill-opacity="0.973" d="
  M 304.38 167.62
  Q 304.71 168.67 304.47 169.86
  A 0.80 0.80 0.0 0 1 303.23 170.35
  Q 301.90 169.42 300.24 169.63
  L 300.36 167.66
  Q 302.57 169.98 304.38 167.62
  Z"
/>
<path fill="#010101" fill-opacity="0.973" d="
  M 248.20 167.77
  Q 248.80 169.01 248.28 170.07
  Q 248.04 170.57 247.48 170.56
  Q 246.55 170.53 245.89 169.88
  Q 245.54 169.54 245.05 169.56
  Q 243.50 169.62 241.96 170.20
  C 239.57 171.10 236.36 170.49 235.24 168.01
  Q 238.48 169.30 241.51 168.15
  Q 241.46 169.48 240.26 169.11
  Q 240.08 169.05 239.97 169.13
  Q 239.71 169.31 240.09 169.33
  Q 242.24 169.44 244.21 167.97
  Q 246.53 169.67 248.20 167.77
  Z"
/>
<path fill="#010101" fill-opacity="0.973" d="
  M 266.03 167.77
  L 269.03 168.64
  Q 266.93 169.62 266.03 167.77
  Z"
/>
<path fill="#020202" fill-opacity="0.694" d="
  M 288.34 167.80
  Q 288.83 168.46 288.69 169.40
  Q 288.62 169.91 288.11 169.95
  C 286.38 170.07 283.86 170.24 283.38 168.01
  Q 286.27 168.81 288.34 167.80
  Z"
/>
<path fill="#020202" fill-opacity="0.694" d="
  M 291.19 168.00
  Q 295.18 169.20 300.36 167.66
  L 300.24 169.63
  Q 293.93 172.20 291.19 168.00
  Z"
/>
<path fill="#010101" fill-opacity="0.973" d="
  M 307.44 167.99
  Q 310.74 169.03 312.96 167.96
  L 313.47 168.91
  Q 313.73 169.40 313.22 169.61
  Q 309.97 170.95 307.44 167.99
  Z"
/>
</svg>
