<?xml version="1.0" encoding="UTF-8" standalone="no"?>
<!DOCTYPE svg PUBLIC "-//W3C//DTD SVG 1.1//EN" "http://www.w3.org/Graphics/SVG/1.1/DTD/svg11.dtd">
<svg xmlns="http://www.w3.org/2000/svg" version="1.1" viewBox="0.00 0.00 590.00 255.00">
<g stroke-width="2.00" fill="none" stroke-linecap="butt">
<path stroke="#dddddd" stroke-opacity="0.576" vector-effect="non-scaling-stroke" d="
  M 93.33 83.96
  L 90.18 83.35
  Q 89.61 83.24 89.61 83.83
  L 89.54 165.22
  A 0.72 0.71 9.0 0 0 90.04 165.90
  L 107.79 171.55
  A 0.48 0.48 0.0 0 0 108.42 171.09
  Q 108.38 137.16 108.36 101.97
  Q 108.36 100.06 109.46 98.64
  A 2.25 2.23 -64.7 0 1 111.70 97.83
  C 115.19 98.60 115.73 102.16 115.72 105.25
  Q 115.70 118.84 115.74 132.01
  Q 115.74 132.52 116.20 132.76
  Q 121.72 135.62 127.75 134.29
  Q 129.13 133.98 132.69 131.30"
/>
<path stroke="#dddddd" stroke-opacity="0.576" vector-effect="non-scaling-stroke" d="
  M 136.35 137.81
  Q 124.07 137.43 112.41 141.24
  Q 111.68 141.48 111.68 142.25
  L 111.71 152.26
  Q 111.72 152.90 112.32 152.68
  Q 121.92 149.17 132.05 145.67
  Q 138.11 143.58 143.81 145.40
  A 1.26 1.26 0.0 0 1 144.28 147.52
  Q 143.48 148.27 142.49 148.63
  Q 129.36 153.35 112.14 159.45
  A 0.60 0.59 -9.7 0 0 111.74 160.01
  L 111.74 169.79
  Q 111.74 170.48 112.39 170.25
  Q 131.70 163.40 152.24 155.97
  Q 157.83 153.94 160.98 150.22"
/>
<path stroke="#dddddd" stroke-opacity="0.576" vector-effect="non-scaling-stroke" d="
  M 98.68 85.31
  L 101.30 86.04"
/>
<path stroke="#dddddd" stroke-opacity="0.576" vector-effect="non-scaling-stroke" d="
  M 385.28 104.08
  L 383.31 104.31
  Q 382.81 104.37 382.57 104.81
  Q 372.24 124.12 361.91 143.35
  C 361.27 144.53 359.61 145.92 358.18 145.10
  C 356.68 144.23 355.53 141.54 354.78 139.98"
/>
<path stroke="#dddddd" stroke-opacity="0.576" vector-effect="non-scaling-stroke" d="
  M 324.61 104.09
  L 323.47 104.31
  Q 322.91 104.41 323.18 104.91
  Q 336.87 130.35 349.48 153.79
  C 353.25 160.81 360.81 159.84 364.32 153.25
  Q 374.63 133.87 385.25 114.34"
/>
<path stroke="#dddddd" stroke-opacity="0.576" vector-effect="non-scaling-stroke" d="
  M 290.02 148.06
  Q 290.24 146.13 290.25 144.25
  Q 290.34 132.50 290.40 120.74
  C 290.42 116.44 290.72 112.39 295.14 111.22
  Q 296.01 110.99 302.39 110.98
  Q 309.67 110.97 317.41 110.95
  Q 317.92 110.95 317.93 110.44
  L 318.02 105.17"
/>
<path stroke="#dddddd" stroke-opacity="0.576" vector-effect="non-scaling-stroke" d="
  M 290.58 104.20
  Q 278.90 106.87 278.90 119.01
  Q 278.89 131.51 278.94 144.00
  C 278.95 147.99 277.26 151.89 272.66 151.88
  Q 261.55 151.85 251.22 151.89
  A 0.64 0.63 -0.0 0 0 250.59 152.51
  L 250.52 158.20
  Q 250.51 158.74 251.06 158.74
  Q 262.39 158.57 273.91 158.74
  C 281.54 158.85 287.04 156.85 289.71 149.42"
/>
<path stroke="#dddddd" stroke-opacity="0.576" vector-effect="non-scaling-stroke" d="
  M 227.32 104.07
  L 213.42 104.12"
/>
<path stroke="#dddddd" stroke-opacity="0.576" vector-effect="non-scaling-stroke" d="
  M 256.25 128.39
  Q 251.91 134.02 244.76 133.98
  Q 231.33 133.89 217.54 133.97
  C 215.70 133.99 213.89 134.49 212.82 135.82
  Q 210.58 138.58 210.77 142.20"
/>
<path stroke="#dddddd" stroke-opacity="0.576" vector-effect="non-scaling-stroke" d="
  M 210.79 156.92
  L 210.74 158.10
  Q 210.71 158.76 210.05 158.76
  L 199.79 158.76
  A 0.46 0.46 0.0 0 1 199.33 158.29
  Q 199.38 149.86 199.52 141.02
  Q 199.65 132.44 206.78 128.13"
/>
<path stroke="#dddddd" stroke-opacity="0.576" vector-effect="non-scaling-stroke" d="
  M 207.72 127.80
  L 209.90 127.25"
/>
<path stroke="#dddddd" stroke-opacity="0.576" vector-effect="non-scaling-stroke" d="
  M 241.22 127.22
  Q 242.16 127.28 243.08 126.77"
/>
<path stroke="#dddddd" stroke-opacity="0.576" vector-effect="non-scaling-stroke" d="
  M 245.87 124.49
  Q 248.29 119.80 246.45 114.98
  C 245.56 112.64 243.76 111.01 241.21 111.00
  Q 220.60 110.91 199.51 111.04
  Q 199.13 111.04 199.09 110.67
  L 198.63 106.38"
/>
<path stroke="#dddddd" stroke-opacity="0.576" vector-effect="non-scaling-stroke" d="
  M 397.72 104.37
  L 397.76 158.25
  Q 397.76 158.81 398.32 158.81
  L 408.39 158.79
  Q 408.89 158.79 409.05 158.31
  Q 409.32 157.49 409.25 156.44"
/>
<path stroke="#dddddd" stroke-opacity="0.576" vector-effect="non-scaling-stroke" d="
  M 496.98 105.02
  L 494.16 104.16"
/>
<path stroke="#dddddd" stroke-opacity="0.576" vector-effect="non-scaling-stroke" d="
  M 523.37 150.71
  L 527.19 158.06
  Q 527.45 158.56 526.88 158.59
  L 522.98 158.77"
/>
<path stroke="#dddddd" stroke-opacity="0.576" vector-effect="non-scaling-stroke" d="
  M 522.98 158.77
  L 515.54 158.73
  A 1.09 1.08 75.5 0 1 514.59 158.16
  L 509.28 148.25
  A 1.45 1.45 0.0 0 0 508.00 147.48
  Q 491.19 147.48 474.80 147.50
  C 473.49 147.51 472.75 148.72 472.46 149.87"
/>
<path stroke="#dddddd" stroke-opacity="0.576" vector-effect="non-scaling-stroke" d="
  M 472.46 149.87
  L 467.97 158.13
  Q 467.63 158.75 466.92 158.75
  L 460.54 158.75
  Q 459.86 158.74 460.18 158.14
  Q 472.88 134.47 485.75 110.52
  Q 487.85 106.63 491.05 104.71"
/>
<path stroke="#dddddd" stroke-opacity="0.576" vector-effect="non-scaling-stroke" d="
  M 530.94 151.77
  Q 528.90 159.25 536.48 158.55"
/>
<path stroke="#dddddd" stroke-opacity="0.576" vector-effect="non-scaling-stroke" d="
  M 470.37 111.01
  L 450.06 111.08
  Q 449.53 111.08 449.51 111.61
  L 449.25 119.27"
/>
<path stroke="#dddddd" stroke-opacity="0.576" vector-effect="non-scaling-stroke" d="
  M 447.87 158.73
  L 438.35 158.67
  Q 437.75 158.66 437.75 158.07
  L 437.75 111.73
  A 0.77 0.77 0.0 0 0 436.98 110.96
  L 417.21 110.97
  Q 416.69 110.97 416.68 110.45
  L 416.59 104.24"
/>
<path stroke="#dddddd" stroke-opacity="0.576" vector-effect="non-scaling-stroke" d="
  M 64.34 152.40
  Q 65.40 151.47 66.77 150.97
  Q 76.35 147.51 85.53 144.23
  Q 86.08 144.03 86.09 143.44
  L 86.14 133.63
  A 0.39 0.39 0.0 0 0 85.62 133.26
  Q 71.38 138.35 58.65 142.81
  Q 53.98 144.45 49.69 147.02
  C 44.62 150.06 47.16 155.20 51.42 156.98
  Q 67.49 163.68 85.71 160.61
  Q 86.01 160.56 86.01 160.26
  L 86.13 150.96
  Q 86.13 150.69 85.88 150.79
  Q 80.12 153.05 75.22 154.53
  Q 69.83 156.16 64.70 154.32
  A 1.13 1.13 0.0 0 1 64.34 152.40"
/>
<path stroke="#dddddd" stroke-opacity="0.576" vector-effect="non-scaling-stroke" d="
  M 481.57 132.56
  Q 479.56 136.36 477.60 140.05
  A 0.46 0.46 0.0 0 0 478.01 140.73
  L 504.48 140.73
  A 0.47 0.47 0.0 0 0 504.90 140.04
  L 493.60 118.99
  A 2.60 2.60 0.0 0 0 490.07 117.94
  Q 488.99 118.53 488.21 120.01
  Q 484.80 126.47 481.57 132.56"
/>
<path stroke="#dddddd" stroke-opacity="0.576" vector-effect="non-scaling-stroke" d="
  M 158.01 167.11
  A 3.65 3.65 0.0 0 0 154.36 163.46
  A 3.65 3.65 0.0 0 0 150.71 167.11
  A 3.65 3.65 0.0 0 0 154.36 170.76
  A 3.65 3.65 0.0 0 0 158.01 167.11"
/>
<path stroke="#dddddd" stroke-opacity="0.576" vector-effect="non-scaling-stroke" d="
  M 154.73 167.08
  Q 154.58 167.07 154.47 167.17
  Q 154.10 167.49 154.55 167.68
  Q 155.45 168.06 155.67 169.04
  Q 155.77 169.50 156.22 169.36
  L 156.49 169.28
  A 0.06 0.05 67.3 0 0 156.52 169.20
  Q 156.04 167.98 156.28 166.67
  Q 156.41 165.97 156.05 165.37
  Q 155.67 164.75 154.98 164.65
  Q 154.06 164.53 154.64 165.25
  Q 155.19 165.94 155.11 166.76
  Q 155.07 167.11 154.73 167.08"
/>
<path stroke="#dddddd" stroke-opacity="0.576" vector-effect="non-scaling-stroke" d="
  M 153.54 167.07
  Q 153.31 166.03 153.74 165.20
  Q 153.94 164.80 153.49 164.76
  L 153.14 164.73
  Q 152.59 164.67 152.54 165.23
  Q 152.40 167.09 152.56 168.74
  Q 152.66 169.75 153.26 168.93
  Q 153.80 168.19 153.54 167.07"
/>
</g>
<path fill="#010101" fill-opacity="0.153" d="
  M 93.33 83.96
  L 90.18 83.35
  Q 89.61 83.24 89.61 83.83
  L 89.54 165.22
  A 0.72 0.71 9.0 0 0 90.04 165.90
  L 107.79 171.55
  A 0.48 0.48 0.0 0 0 108.42 171.09
  Q 108.38 137.16 108.36 101.97
  Q 108.36 100.06 109.46 98.64
  A 2.25 2.23 -64.7 0 1 111.70 97.83
  C 115.19 98.60 115.73 102.16 115.72 105.25
  Q 115.70 118.84 115.74 132.01
  Q 115.74 132.52 116.20 132.76
  Q 121.72 135.62 127.75 134.29
  Q 129.13 133.98 132.69 131.30
  Q 130.73 133.51 131.00 135.88
  Q 131.06 136.38 131.55 136.51
  L 136.35 137.81
  Q 124.07 137.43 112.41 141.24
  Q 111.68 141.48 111.68 142.25
  L 111.71 152.26
  Q 111.72 152.90 112.32 152.68
  Q 121.92 149.17 132.05 145.67
  Q 138.11 143.58 143.81 145.40
  A 1.26 1.26 0.0 0 1 144.28 147.52
  Q 143.48 148.27 142.49 148.63
  Q 129.36 153.35 112.14 159.45
  A 0.60 0.59 -9.7 0 0 111.74 160.01
  L 111.74 169.79
  Q 111.74 170.48 112.39 170.25
  Q 131.70 163.40 152.24 155.97
  Q 157.83 153.94 160.98 150.22
  Q 161.09 151.35 160.54 151.76
  Q 160.32 151.93 160.16 152.16
  C 159.19 153.57 159.27 154.93 157.77 156.06
  Q 156.21 157.25 154.47 158.21
  Q 154.02 158.46 153.71 158.87
  Q 153.27 159.47 152.67 159.75
  Q 151.75 160.18 150.89 160.91
  Q 150.10 161.57 149.03 161.83
  Q 138.07 164.41 127.59 168.58
  Q 127.39 168.67 127.17 168.67
  Q 126.93 168.67 126.93 168.90
  Q 126.94 169.25 126.61 169.16
  Q 125.63 168.89 124.94 169.53
  Q 124.59 169.87 124.12 170.03
  Q 122.56 170.57 121.00 171.06
  Q 119.32 171.60 117.75 172.35
  Q 114.12 174.09 109.47 173.90
  Q 108.13 173.84 107.06 174.27
  Q 105.89 174.74 104.77 174.97
  Q 101.77 175.58 99.52 174.78
  Q 97.68 174.13 95.90 173.61
  Q 92.16 172.54 88.69 170.90
  Q 87.63 170.40 86.76 169.50
  Q 86.22 168.94 85.67 168.34
  Q 85.37 168.03 84.72 167.04
  Q 84.04 166.01 82.94 165.40
  Q 81.96 164.85 80.77 165.10
  Q 72.85 166.73 67.42 166.06
  Q 61.53 165.33 54.75 163.82
  Q 50.07 162.78 46.91 160.66
  Q 45.45 159.69 44.01 158.45
  Q 42.97 157.56 42.50 156.36
  Q 41.59 154.06 42.29 151.52
  Q 42.91 149.28 44.68 147.83
  Q 50.11 143.36 56.26 142.27
  Q 56.79 142.18 57.15 141.78
  L 57.62 141.26
  Q 58.02 140.81 58.61 140.80
  Q 59.75 140.78 60.69 140.24
  Q 61.88 139.55 62.48 139.40
  Q 66.82 138.29 71.10 136.60
  Q 71.54 136.42 71.91 136.11
  Q 72.24 135.84 72.64 136.04
  A 0.68 0.67 43.7 0 0 73.27 136.03
  L 75.72 134.71
  A 1.00 0.97 -54.8 0 1 76.31 134.60
  Q 78.32 134.83 80.16 134.08
  Q 80.66 133.87 81.21 133.86
  L 82.16 133.85
  Q 82.70 133.84 82.94 133.36
  Q 84.10 130.95 84.10 128.25
  Q 84.11 109.25 84.13 90.24
  Q 84.13 86.70 86.84 84.70
  Q 87.26 84.39 87.77 84.31
  Q 88.40 84.21 88.67 83.66
  Q 88.88 83.24 89.33 83.16
  Q 91.62 82.73 93.33 83.96
  Z
  M 64.34 152.40
  Q 65.40 151.47 66.77 150.97
  Q 76.35 147.51 85.53 144.23
  Q 86.08 144.03 86.09 143.44
  L 86.14 133.63
  A 0.39 0.39 0.0 0 0 85.62 133.26
  Q 71.38 138.35 58.65 142.81
  Q 53.98 144.45 49.69 147.02
  C 44.62 150.06 47.16 155.20 51.42 156.98
  Q 67.49 163.68 85.71 160.61
  Q 86.01 160.56 86.01 160.26
  L 86.13 150.96
  Q 86.13 150.69 85.88 150.79
  Q 80.12 153.05 75.22 154.53
  Q 69.83 156.16 64.70 154.32
  A 1.13 1.13 0.0 0 1 64.34 152.40
  Z"
/>
<path fill="#ffffff" d="
  M 93.33 83.96
  L 98.68 85.31
  L 101.30 86.04
  C 110.99 88.68 122.15 91.47 129.78 98.07
  C 132.45 100.38 134.30 103.87 135.28 107.31
  Q 139.06 120.52 132.69 131.30
  Q 129.13 133.98 127.75 134.29
  Q 121.72 135.62 116.20 132.76
  Q 115.74 132.52 115.74 132.01
  Q 115.70 118.84 115.72 105.25
  C 115.73 102.16 115.19 98.60 111.70 97.83
  A 2.25 2.23 -64.7 0 0 109.46 98.64
  Q 108.36 100.06 108.36 101.97
  Q 108.38 137.16 108.42 171.09
  A 0.48 0.48 0.0 0 1 107.79 171.55
  L 90.04 165.90
  A 0.72 0.71 9.0 0 1 89.54 165.22
  L 89.61 83.83
  Q 89.61 83.24 90.18 83.35
  L 93.33 83.96
  Z"
/>
<path fill="#010101" fill-opacity="0.153" d="
  M 101.30 86.04
  L 98.68 85.31
  Q 100.40 84.59 101.30 86.04
  Z"
/>
<path fill="#010101" fill-opacity="0.153" d="
  M 385.28 104.08
  L 383.31 104.31
  Q 382.81 104.37 382.57 104.81
  Q 372.24 124.12 361.91 143.35
  C 361.27 144.53 359.61 145.92 358.18 145.10
  C 356.68 144.23 355.53 141.54 354.78 139.98
  L 355.67 140.66
  A 1.56 1.56 0.0 0 0 358.01 140.10
  Q 359.84 136.39 361.92 133.18
  C 362.85 131.72 363.53 130.18 364.32 128.66
  Q 364.94 127.48 365.30 126.24
  C 365.67 124.99 366.64 124.29 367.20 123.17
  C 368.31 120.96 369.26 118.66 370.69 116.64
  Q 371.63 115.31 372.33 113.77
  Q 373.12 112.00 373.99 110.34
  Q 374.88 108.63 375.88 107.08
  Q 376.85 105.57 378.62 104.32
  Q 380.26 103.17 381.78 103.13
  Q 383.60 103.08 385.28 104.08
  Z"
/>
<path fill="#010101" fill-opacity="0.153" d="
  M 227.32 104.07
  L 213.42 104.12
  L 227.32 104.07
  Z"
/>
<path fill="#010101" fill-opacity="0.153" d="
  M 290.58 104.20
  Q 278.90 106.87 278.90 119.01
  Q 278.89 131.51 278.94 144.00
  C 278.95 147.99 277.26 151.89 272.66 151.88
  Q 261.55 151.85 251.22 151.89
  A 0.64 0.63 -0.0 0 0 250.59 152.51
  L 250.52 158.20
  Q 250.51 158.74 251.06 158.74
  Q 262.39 158.57 273.91 158.74
  C 281.54 158.85 287.04 156.85 289.71 149.42
  L 289.10 152.51
  Q 289.01 153.01 288.65 153.37
  Q 288.09 153.94 287.92 154.74
  Q 287.81 155.24 287.45 155.61
  Q 286.77 156.29 286.09 157.13
  Q 283.73 160.06 280.21 161.82
  Q 277.36 163.24 272.75 163.33
  Q 262.28 163.55 251.82 163.31
  A 2.64 2.63 79.3 0 1 249.43 161.67
  C 248.74 159.99 248.35 158.76 247.38 156.65
  Q 246.82 155.41 246.91 153.99
  Q 246.95 153.48 247.31 153.12
  Q 248.06 152.37 248.96 152.00
  Q 249.33 151.84 249.56 151.50
  L 249.91 150.96
  Q 249.98 150.84 250.11 150.90
  C 251.32 151.47 252.41 150.85 253.63 150.86
  Q 260.54 150.90 267.25 150.78
  Q 270.52 150.72 271.98 148.50
  Q 272.90 147.10 272.87 143.86
  Q 272.76 131.31 273.06 120.57
  C 273.10 119.15 273.44 117.66 273.71 116.24
  C 274.00 114.78 275.02 113.61 275.37 112.66
  A 10.83 10.80 76.9 0 1 277.56 109.13
  Q 282.59 103.72 290.58 104.20
  Z"
/>
<path fill="#010101" fill-opacity="0.153" d="
  M 324.61 104.09
  L 323.47 104.31
  Q 322.91 104.41 323.18 104.91
  Q 336.87 130.35 349.48 153.79
  C 353.25 160.81 360.81 159.84 364.32 153.25
  Q 374.63 133.87 385.25 114.34
  Q 385.10 117.67 382.95 120.76
  Q 382.25 121.78 381.74 122.86
  Q 381.28 123.84 380.46 124.45
  A 0.84 0.82 71.1 0 0 380.12 125.16
  Q 380.19 127.19 378.59 128.38
  Q 378.05 128.77 378.18 129.43
  Q 378.27 129.89 377.81 129.90
  A 0.44 0.44 0.0 0 0 377.37 130.36
  Q 377.42 131.35 376.71 131.96
  A 1.34 1.29 -15.5 0 0 376.29 132.67
  Q 375.70 135.30 373.91 137.12
  Q 373.57 137.48 373.38 137.94
  L 372.34 140.47
  Q 372.15 140.94 371.72 141.21
  Q 370.44 142.04 370.12 143.50
  Q 369.86 144.65 369.24 145.72
  Q 368.58 146.85 368.11 148.03
  Q 367.69 149.07 366.66 149.82
  Q 366.15 150.19 366.11 150.82
  Q 366.09 151.00 366.22 151.14
  Q 366.60 151.57 366.12 151.88
  Q 365.46 152.31 365.41 153.05
  C 365.33 154.34 364.06 156.17 363.35 157.33
  Q 363.09 157.76 362.64 157.99
  Q 362.19 158.21 361.98 158.66
  Q 361.76 159.11 361.38 159.47
  Q 358.82 161.90 356.00 162.82
  Q 353.83 163.53 351.25 162.85
  Q 348.39 162.09 345.84 159.40
  Q 344.96 158.46 344.39 157.32
  C 343.85 156.23 342.99 155.66 342.47 154.61
  Q 339.64 148.92 336.56 143.33
  Q 336.22 142.72 335.74 142.29
  Q 335.37 141.96 335.40 141.45
  Q 335.43 140.98 335.17 140.58
  Q 333.11 137.44 331.72 134.15
  Q 331.04 132.53 329.98 130.98
  Q 328.17 128.32 327.54 126.96
  Q 326.39 124.49 325.16 122.03
  C 324.82 121.35 324.86 120.84 324.61 120.14
  Q 324.47 119.74 324.15 119.45
  Q 322.22 117.70 321.36 115.17
  Q 321.10 114.39 320.57 113.85
  Q 320.01 113.27 319.50 112.65
  Q 318.86 111.86 317.74 111.80
  Q 316.87 111.76 316.48 112.50
  Q 316.19 113.06 315.67 113.42
  L 313.30 115.09
  Q 312.91 115.36 312.44 115.39
  Q 306.27 115.76 300.17 115.61
  C 298.59 115.56 297.15 115.92 295.56 115.91
  Q 294.60 115.90 293.63 116.47
  Q 292.33 117.24 291.76 117.77
  A 2.85 2.82 -22.0 0 0 290.88 119.82
  L 290.89 147.02
  Q 290.89 147.56 290.42 147.83
  L 290.02 148.06
  Q 290.24 146.13 290.25 144.25
  Q 290.34 132.50 290.40 120.74
  C 290.42 116.44 290.72 112.39 295.14 111.22
  Q 296.01 110.99 302.39 110.98
  Q 309.67 110.97 317.41 110.95
  Q 317.92 110.95 317.93 110.44
  L 318.02 105.17
  Q 318.48 105.47 318.91 105.57
  Q 319.40 105.68 319.80 105.38
  Q 322.05 103.70 324.61 104.09
  Z"
/>
<path fill="#010101" fill-opacity="0.153" d="
  M 397.72 104.37
  L 397.76 158.25
  Q 397.76 158.81 398.32 158.81
  L 408.39 158.79
  Q 408.89 158.79 409.05 158.31
  Q 409.32 157.49 409.25 156.44
  Q 410.66 157.02 409.72 158.76
  Q 409.35 159.44 408.49 159.42
  Q 407.96 159.41 407.46 159.58
  Q 400.76 161.81 394.05 160.28
  Q 393.53 160.17 393.23 159.74
  Q 391.88 157.84 391.87 155.59
  Q 391.86 131.72 391.88 110.81
  Q 391.88 110.46 391.67 110.17
  Q 391.52 109.97 391.63 109.75
  Q 392.36 108.27 393.27 106.72
  Q 395.39 103.12 397.72 104.37
  Z"
/>
<path fill="#010101" fill-opacity="0.153" d="
  M 496.98 105.02
  L 494.16 104.16
  Q 496.70 103.14 496.98 105.02
  Z"
/>
<path fill="#ffffff" d="
  M 227.32 104.07
  Q 236.63 104.14 245.99 104.28
  Q 251.85 104.37 255.28 108.68
  C 259.63 114.14 259.53 122.24 256.25 128.39
  Q 251.91 134.02 244.76 133.98
  Q 231.33 133.89 217.54 133.97
  C 215.70 133.99 213.89 134.49 212.82 135.82
  Q 210.58 138.58 210.77 142.20
  L 210.79 156.92
  L 210.74 158.10
  Q 210.71 158.76 210.05 158.76
  L 199.79 158.76
  A 0.46 0.46 0.0 0 1 199.33 158.29
  Q 199.38 149.86 199.52 141.02
  Q 199.65 132.44 206.78 128.13
  Q 207.34 128.17 207.72 127.80
  L 209.90 127.25
  L 241.22 127.22
  Q 242.16 127.28 243.08 126.77
  Q 244.76 126.40 245.87 124.49
  Q 248.29 119.80 246.45 114.98
  C 245.56 112.64 243.76 111.01 241.21 111.00
  Q 220.60 110.91 199.51 111.04
  Q 199.13 111.04 199.09 110.67
  L 198.63 106.38
  L 199.25 104.82
  Q 199.43 104.37 199.91 104.36
  L 213.42 104.12
  L 227.32 104.07
  Z"
/>
<path fill="#ffffff" d="
  M 409.25 156.44
  Q 409.32 157.49 409.05 158.31
  Q 408.89 158.79 408.39 158.79
  L 398.32 158.81
  Q 397.76 158.81 397.76 158.25
  L 397.72 104.37
  L 408.65 104.23
  A 0.62 0.62 0.0 0 1 409.28 104.85
  L 409.25 156.44
  Z"
/>
<path fill="#ffffff" d="
  M 470.37 111.01
  L 450.06 111.08
  Q 449.53 111.08 449.51 111.61
  L 449.25 119.27
  L 449.17 158.00
  A 0.69 0.68 82.2 0 1 448.67 158.66
  Q 448.29 158.77 447.87 158.73
  L 438.35 158.67
  Q 437.75 158.66 437.75 158.07
  L 437.75 111.73
  A 0.77 0.77 0.0 0 0 436.98 110.96
  L 417.21 110.97
  Q 416.69 110.97 416.68 110.45
  L 416.59 104.24
  L 469.87 104.24
  A 0.54 0.54 0.0 0 1 470.41 104.79
  L 470.37 111.01
  Z"
/>
<path fill="#ffffff" d="
  M 290.58 104.20
  L 317.52 104.31
  Q 318.05 104.31 318.03 104.84
  L 318.02 105.17
  L 317.93 110.44
  Q 317.92 110.95 317.41 110.95
  Q 309.67 110.97 302.39 110.98
  Q 296.01 110.99 295.14 111.22
  C 290.72 112.39 290.42 116.44 290.40 120.74
  Q 290.34 132.50 290.25 144.25
  Q 290.24 146.13 290.02 148.06
  Q 289.67 148.77 289.71 149.42
  C 287.04 156.85 281.54 158.85 273.91 158.74
  Q 262.39 158.57 251.06 158.74
  Q 250.51 158.74 250.52 158.20
  L 250.59 152.51
  A 0.64 0.63 -0.0 0 1 251.22 151.89
  Q 261.55 151.85 272.66 151.88
  C 277.26 151.89 278.95 147.99 278.94 144.00
  Q 278.89 131.51 278.90 119.01
  Q 278.90 106.87 290.58 104.20
  Z"
/>
<path fill="#ffffff" d="
  M 324.61 104.09
  L 335.08 104.27
  Q 335.66 104.28 335.93 104.79
  L 354.78 139.98
  C 355.53 141.54 356.68 144.23 358.18 145.10
  C 359.61 145.92 361.27 144.53 361.91 143.35
  Q 372.24 124.12 382.57 104.81
  Q 382.81 104.37 383.31 104.31
  L 385.28 104.08
  L 389.63 104.28
  Q 390.60 104.32 390.14 105.19
  L 385.25 114.34
  Q 374.63 133.87 364.32 153.25
  C 360.81 159.84 353.25 160.81 349.48 153.79
  Q 336.87 130.35 323.18 104.91
  Q 322.91 104.41 323.47 104.31
  L 324.61 104.09
  Z"
/>
<path fill="#ffffff" d="
  M 494.16 104.16
  L 496.98 105.02
  Q 499.97 107.04 501.71 110.29
  Q 512.54 130.56 523.37 150.71
  L 527.19 158.06
  Q 527.45 158.56 526.88 158.59
  L 522.98 158.77
  L 515.54 158.73
  A 1.09 1.08 75.5 0 1 514.59 158.16
  L 509.28 148.25
  A 1.45 1.45 0.0 0 0 508.00 147.48
  Q 491.19 147.48 474.80 147.50
  C 473.49 147.51 472.75 148.72 472.46 149.87
  L 467.97 158.13
  Q 467.63 158.75 466.92 158.75
  L 460.54 158.75
  Q 459.86 158.74 460.18 158.14
  Q 472.88 134.47 485.75 110.52
  Q 487.85 106.63 491.05 104.71
  L 494.16 104.16
  Z
  M 481.57 132.56
  Q 479.56 136.36 477.60 140.05
  A 0.46 0.46 0.0 0 0 478.01 140.73
  L 504.48 140.73
  A 0.47 0.47 0.0 0 0 504.90 140.04
  L 493.60 118.99
  A 2.60 2.60 0.0 0 0 490.07 117.94
  Q 488.99 118.53 488.21 120.01
  Q 484.80 126.47 481.57 132.56
  Z"
/>
<path fill="#010101" fill-opacity="0.153" d="
  M 416.59 104.24
  L 416.68 110.45
  Q 416.69 110.97 417.21 110.97
  L 436.98 110.96
  A 0.77 0.77 0.0 0 1 437.75 111.73
  L 437.75 158.07
  Q 437.75 158.66 438.35 158.67
  L 447.87 158.73
  L 446.65 160.47
  Q 446.26 161.02 445.60 161.11
  C 440.69 161.80 432.38 162.21 432.40 155.25
  Q 432.46 136.77 432.42 119.62
  A 4.32 4.32 0.0 0 0 428.14 115.31
  C 425.14 115.29 420.94 115.77 418.07 115.02
  C 417.14 114.78 416.17 114.97 415.32 114.57
  Q 411.95 112.97 411.66 109.65
  Q 411.49 107.66 413.15 106.18
  Q 414.49 104.99 416.59 104.24
  Z"
/>
<path fill="#010101" fill-opacity="0.153" d="
  M 491.05 104.71
  Q 487.85 106.63 485.75 110.52
  Q 472.88 134.47 460.18 158.14
  Q 459.86 158.74 460.54 158.75
  L 466.92 158.75
  Q 467.63 158.75 467.97 158.13
  L 472.46 149.87
  Q 472.59 150.01 472.70 150.08
  Q 472.89 150.23 472.97 150.01
  Q 473.06 149.75 473.32 149.75
  Q 487.47 149.76 501.63 149.74
  C 502.63 149.74 503.25 150.14 504.19 150.25
  Q 504.67 150.30 505.03 150.63
  Q 508.08 153.45 509.20 156.63
  Q 509.65 157.88 510.70 158.66
  Q 514.37 161.40 519.25 160.99
  Q 520.58 160.88 522.98 158.77
  L 526.88 158.59
  Q 527.45 158.56 527.19 158.06
  L 523.37 150.71
  Q 524.15 150.92 524.82 151.25
  Q 525.74 151.70 526.26 151.67
  Q 527.22 151.61 527.96 150.98
  Q 528.33 150.66 528.83 150.62
  Q 530.28 150.49 530.94 151.77
  Q 528.90 159.25 536.48 158.55
  Q 533.62 159.94 530.73 159.94
  Q 529.94 159.95 529.22 159.69
  Q 527.56 159.11 525.84 159.49
  Q 525.35 159.59 525.10 160.04
  Q 524.38 161.28 523.24 161.82
  Q 517.19 164.66 511.62 161.82
  C 506.37 159.14 507.18 151.89 499.76 151.94
  Q 488.12 152.00 477.06 151.88
  Q 474.72 151.85 473.28 152.68
  Q 471.23 153.85 470.25 155.99
  Q 469.09 158.49 466.68 160.81
  Q 465.40 162.05 463.59 162.62
  Q 461.70 163.22 459.84 162.50
  Q 457.52 161.61 456.85 159.27
  Q 456.20 157.01 457.40 154.56
  Q 458.79 151.72 460.67 148.89
  Q 461.95 146.97 462.88 144.86
  Q 464.11 142.06 465.48 139.83
  Q 466.93 137.46 468.13 135.06
  Q 469.99 131.33 472.24 127.25
  Q 472.44 126.89 472.76 126.66
  Q 473.15 126.37 473.34 125.93
  Q 478.11 114.85 483.05 108.27
  Q 485.94 104.42 491.05 104.71
  Z"
/>
<path fill="#010101" fill-opacity="0.153" d="
  M 198.63 106.38
  L 199.09 110.67
  Q 199.13 111.04 199.51 111.04
  Q 220.60 110.91 241.21 111.00
  C 243.76 111.01 245.56 112.64 246.45 114.98
  Q 248.29 119.80 245.87 124.49
  L 245.03 124.46
  Q 244.51 124.44 244.56 123.92
  Q 244.87 120.98 244.31 118.01
  Q 243.91 115.87 242.12 114.60
  Q 240.51 113.45 238.95 112.73
  Q 237.56 112.09 236.00 112.09
  Q 218.45 112.15 200.04 112.12
  A 1.74 1.72 -7.2 0 1 198.38 110.85
  Q 197.70 108.34 198.63 106.38
  Z"
/>
<path fill="#010101" fill-opacity="0.153" d="
  M 470.37 111.01
  L 466.30 115.00
  Q 465.81 115.48 465.13 115.49
  L 452.22 115.71
  A 0.74 0.74 0.0 0 0 451.80 115.84
  Q 450.06 117.03 449.25 119.27
  L 449.51 111.61
  Q 449.53 111.08 450.06 111.08
  L 470.37 111.01
  Z"
/>
<path fill="#010101" fill-opacity="0.153" d="
  M 243.08 126.77
  Q 242.16 127.28 241.22 127.22
  Q 240.68 127.00 240.26 126.58
  Q 239.83 126.15 240.29 125.75
  Q 242.78 123.57 242.45 119.95
  Q 242.35 118.86 241.79 118.10
  Q 241.50 117.69 241.42 117.21
  Q 241.32 116.54 240.76 116.05
  Q 238.59 114.15 236.36 114.14
  Q 218.53 114.08 200.96 114.13
  Q 200.51 114.13 200.26 113.75
  L 199.68 112.85
  Q 198.92 111.68 199.98 112.45
  C 200.34 112.71 201.01 112.91 201.46 112.91
  Q 218.34 112.81 234.78 112.93
  Q 236.77 112.95 238.89 113.60
  Q 241.14 114.29 242.07 115.45
  Q 243.77 117.58 243.82 119.87
  Q 243.88 122.18 243.67 124.78
  Q 243.60 125.56 243.03 125.75
  Q 242.56 125.91 242.82 126.33
  L 243.08 126.77
  Z"
/>
<path fill="#010101" fill-opacity="0.153" d="
  M 481.57 132.56
  Q 484.80 126.47 488.21 120.01
  Q 488.99 118.53 490.07 117.94
  A 2.60 2.60 0.0 0 1 493.60 118.99
  L 504.90 140.04
  A 0.47 0.47 0.0 0 1 504.48 140.73
  L 478.01 140.73
  A 0.46 0.46 0.0 0 1 477.60 140.05
  Q 479.56 136.36 481.57 132.56
  Z
  M 480.65 135.89
  Q 479.93 136.78 480.22 138.09
  A 2.10 2.08 -82.7 0 0 481.31 139.51
  Q 482.39 140.07 483.81 140.09
  Q 488.69 140.17 493.93 140.09
  Q 495.55 140.07 496.10 138.73
  C 496.56 137.61 495.96 136.18 495.88 135.03
  Q 495.87 134.85 495.75 134.72
  Q 495.65 134.62 495.50 134.60
  Q 495.20 134.58 495.07 134.30
  Q 492.87 129.57 489.46 125.85
  A 1.80 1.74 -40.0 0 0 487.07 125.68
  Q 486.77 125.92 486.39 125.92
  A 0.55 0.54 7.6 0 0 485.86 126.32
  Q 485.55 127.48 484.56 128.20
  Q 484.21 128.46 484.16 128.89
  Q 484.10 129.46 483.76 129.98
  Q 483.31 130.67 482.88 131.30
  Q 481.75 132.99 480.95 135.34
  A 2.17 2.04 75.3 0 1 480.65 135.89
  Z"
/>
<path fill="#010101" fill-opacity="0.153" d="
  M 209.90 127.25
  L 207.72 127.80
  Q 207.43 127.00 208.00 126.88
  Q 209.57 126.57 209.90 127.25
  Z"
/>
<path fill="#010101" fill-opacity="0.153" d="
  M 206.78 128.13
  Q 199.65 132.44 199.52 141.02
  Q 199.38 149.86 199.33 158.29
  A 0.46 0.46 0.0 0 0 199.79 158.76
  L 210.05 158.76
  Q 210.71 158.76 210.74 158.10
  L 210.79 156.92
  Q 211.19 157.73 211.16 158.62
  Q 211.14 159.13 210.63 159.13
  Q 208.98 159.14 207.56 160.31
  Q 207.13 160.66 206.58 160.76
  Q 201.84 161.61 196.60 161.34
  Q 196.22 161.32 195.95 161.05
  Q 195.29 160.40 194.74 159.60
  Q 193.94 158.46 193.85 157.30
  Q 193.46 152.33 193.44 146.85
  Q 193.41 139.91 196.42 133.86
  Q 196.47 133.77 196.53 133.85
  Q 196.62 133.98 196.75 134.00
  Q 196.86 134.02 196.90 133.92
  Q 198.60 129.87 203.75 128.16
  Q 205.70 127.51 206.78 128.13
  Z"
/>
<path fill="#010101" fill-opacity="0.153" d="
  M 256.25 128.39
  Q 255.46 131.94 252.74 134.52
  Q 252.23 135.00 251.65 135.21
  Q 251.19 135.38 250.89 135.78
  Q 250.56 136.22 250.06 136.45
  Q 245.22 138.68 239.49 138.62
  Q 231.64 138.54 223.78 138.73
  Q 223.71 138.73 218.73 138.53
  Q 212.91 138.30 210.77 142.20
  Q 210.58 138.58 212.82 135.82
  C 213.89 134.49 215.70 133.99 217.54 133.97
  Q 231.33 133.89 244.76 133.98
  Q 251.91 134.02 256.25 128.39
  Z"
/>
<path fill="#ffffff" d="
  M 64.34 152.40
  A 1.13 1.13 0.0 0 0 64.70 154.32
  Q 69.83 156.16 75.22 154.53
  Q 80.12 153.05 85.88 150.79
  Q 86.13 150.69 86.13 150.96
  L 86.01 160.26
  Q 86.01 160.56 85.71 160.61
  Q 67.49 163.68 51.42 156.98
  C 47.16 155.20 44.62 150.06 49.69 147.02
  Q 53.98 144.45 58.65 142.81
  Q 71.38 138.35 85.62 133.26
  A 0.39 0.39 0.0 0 1 86.14 133.63
  L 86.09 143.44
  Q 86.08 144.03 85.53 144.23
  Q 76.35 147.51 66.77 150.97
  Q 65.40 151.47 64.34 152.40
  Z"
/>
<path fill="#ffffff" d="
  M 136.35 137.81
  Q 145.68 138.50 154.50 141.78
  C 158.12 143.13 162.50 145.58 160.98 150.22
  Q 157.83 153.94 152.24 155.97
  Q 131.70 163.40 112.39 170.25
  Q 111.74 170.48 111.74 169.79
  L 111.74 160.01
  A 0.60 0.59 -9.7 0 1 112.14 159.45
  Q 129.36 153.35 142.49 148.63
  Q 143.48 148.27 144.28 147.52
  A 1.26 1.26 0.0 0 0 143.81 145.40
  Q 138.11 143.58 132.05 145.67
  Q 121.92 149.17 112.32 152.68
  Q 111.72 152.90 111.71 152.26
  L 111.68 142.25
  Q 111.68 141.48 112.41 141.24
  Q 124.07 137.43 136.35 137.81
  Z"
/>
<path fill="#010101" fill-opacity="0.153" d="
  M 522.98 158.77
  Q 520.58 160.88 519.25 160.99
  Q 514.37 161.40 510.70 158.66
  Q 509.65 157.88 509.20 156.63
  Q 508.08 153.45 505.03 150.63
  Q 504.67 150.30 504.19 150.25
  C 503.25 150.14 502.63 149.74 501.63 149.74
  Q 487.47 149.76 473.32 149.75
  Q 473.06 149.75 472.97 150.01
  Q 472.89 150.23 472.70 150.08
  Q 472.59 150.01 472.46 149.87
  C 472.75 148.72 473.49 147.51 474.80 147.50
  Q 491.19 147.48 508.00 147.48
  A 1.45 1.45 0.0 0 1 509.28 148.25
  L 514.59 158.16
  A 1.09 1.08 75.5 0 0 515.54 158.73
  L 522.98 158.77
  Z"
/>
<path fill="#ffffff" d="
  M 536.48 158.55
  Q 528.90 159.25 530.94 151.77
  Q 534.35 148.71 537.03 150.53
  Q 538.95 151.83 538.99 154.34
  Q 539.04 157.19 536.48 158.55
  Z
  M 537.12 156.96
  A 3.53 3.52 61.3 0 0 538.18 153.32
  A 3.54 3.54 0.0 0 0 533.17 151.16
  A 3.54 3.54 0.0 0 0 531.98 156.47
  A 3.54 3.53 -39.5 0 0 537.12 156.96
  Z"
/>
<path fill="#ffffff" d="
  M 537.12 156.96
  Q 536.89 156.77 536.63 156.66
  Q 536.18 156.45 536.06 155.97
  Q 535.79 154.86 534.58 154.75
  Q 534.01 154.70 533.89 155.26
  L 533.66 156.37
  A 0.29 0.28 -6.9 0 1 533.51 156.56
  Q 533.26 156.67 533.10 156.59
  Q 532.88 156.49 532.89 156.25
  L 533.01 152.94
  Q 533.05 151.68 534.31 151.78
  L 535.77 151.89
  A 1.18 1.17 8.2 0 1 536.83 153.30
  Q 536.47 155.02 537.12 156.96
  Z
  M 535.7751 153.2398
  A 0.98 0.79 -10.0 0 0 534.6728 152.6320
  A 0.98 0.79 -10.0 0 0 533.8449 153.5802
  A 0.98 0.79 -10.0 0 0 534.9472 154.1880
  A 0.98 0.79 -10.0 0 0 535.7751 153.2398
  Z"
/>
<path fill="#ffffff" d="
  M 158.80 167.15
  A 4.44 4.44 0.0 0 1 154.36 171.59
  A 4.44 4.44 0.0 0 1 149.92 167.15
  A 4.44 4.44 0.0 0 1 154.36 162.71
  A 4.44 4.44 0.0 0 1 158.80 167.15
  Z
  M 158.01 167.11
  A 3.65 3.65 0.0 0 0 154.36 163.46
  A 3.65 3.65 0.0 0 0 150.71 167.11
  A 3.65 3.65 0.0 0 0 154.36 170.76
  A 3.65 3.65 0.0 0 0 158.01 167.11
  Z"
/>
<path fill="#010101" fill-opacity="0.153" d="
  M 158.01 167.11
  A 3.65 3.65 0.0 0 1 154.36 170.76
  A 3.65 3.65 0.0 0 1 150.71 167.11
  A 3.65 3.65 0.0 0 1 154.36 163.46
  A 3.65 3.65 0.0 0 1 158.01 167.11
  Z
  M 154.73 167.08
  Q 154.58 167.07 154.47 167.17
  Q 154.10 167.49 154.55 167.68
  Q 155.45 168.06 155.67 169.04
  Q 155.77 169.50 156.22 169.36
  L 156.49 169.28
  A 0.06 0.05 67.3 0 0 156.52 169.20
  Q 156.04 167.98 156.28 166.67
  Q 156.41 165.97 156.05 165.37
  Q 155.67 164.75 154.98 164.65
  Q 154.06 164.53 154.64 165.25
  Q 155.19 165.94 155.11 166.76
  Q 155.07 167.11 154.73 167.08
  Z
  M 153.54 167.07
  Q 153.31 166.03 153.74 165.20
  Q 153.94 164.80 153.49 164.76
  L 153.14 164.73
  Q 152.59 164.67 152.54 165.23
  Q 152.40 167.09 152.56 168.74
  Q 152.66 169.75 153.26 168.93
  Q 153.80 168.19 153.54 167.07
  Z"
/>
<path fill="#ffffff" d="
  M 155.11 166.76
  Q 155.19 165.94 154.64 165.25
  Q 154.06 164.53 154.98 164.65
  Q 155.67 164.75 156.05 165.37
  Q 156.41 165.97 156.28 166.67
  Q 156.04 167.98 156.52 169.20
  A 0.06 0.05 67.3 0 1 156.49 169.28
  L 156.22 169.36
  Q 155.77 169.50 155.67 169.04
  Q 155.45 168.06 154.55 167.68
  Q 154.10 167.49 154.47 167.17
  Q 154.58 167.07 154.73 167.08
  Q 155.07 167.11 155.11 166.76
  Z"
/>
<path fill="#ffffff" d="
  M 153.54 167.07
  Q 153.80 168.19 153.26 168.93
  Q 152.66 169.75 152.56 168.74
  Q 152.40 167.09 152.54 165.23
  Q 152.59 164.67 153.14 164.73
  L 153.49 164.76
  Q 153.94 164.80 153.74 165.20
  Q 153.31 166.03 153.54 167.07
  Z"
/>
</svg>
