<?xml version="1.0" encoding="UTF-8" standalone="no"?>
<!DOCTYPE svg PUBLIC "-//W3C//DTD SVG 1.1//EN" "http://www.w3.org/Graphics/SVG/1.1/DTD/svg11.dtd">
<svg xmlns="http://www.w3.org/2000/svg" version="1.1" viewBox="0.00 0.00 590.00 255.00">
<g stroke-width="2.00" fill="none" stroke-linecap="butt">
<path stroke="#750200" stroke-opacity="0.996" vector-effect="non-scaling-stroke" d="
  M 116.55 103.01
  Q 116.61 112.48 116.40 115.88
  C 116.07 120.93 112.88 126.98 107.63 128.78
  C 103.36 130.24 99.70 129.25 95.93 129.12"
/>
<path stroke="#750200" stroke-opacity="0.996" vector-effect="non-scaling-stroke" d="
  M 94.54 95.79
  Q 93.57 92.69 90.43 93.22
  C 86.95 93.81 87.44 95.83 87.48 98.93
  Q 87.72 118.06 87.23 137.22"
/>
<path stroke="#744c14" vector-effect="non-scaling-stroke" d="
  M 87.23 137.22
  L 87.53 147.33"
/>
<path stroke="#750200" stroke-opacity="0.996" vector-effect="non-scaling-stroke" d="
  M 87.53 147.33
  L 87.47 154.27"
/>
<path stroke="#f38102" vector-effect="non-scaling-stroke" d="
  M 87.47 154.27
  L 87.07 165.06"
/>
<path stroke="#750200" stroke-opacity="0.996" vector-effect="non-scaling-stroke" d="
  M 87.07 165.06
  L 69.66 159.96"
/>
<path stroke="#750200" stroke-opacity="0.996" vector-effect="non-scaling-stroke" d="
  M 68.54 155.91
  Q 69.25 154.37 68.67 153.52"
/>
<path stroke="#f38102" vector-effect="non-scaling-stroke" d="
  M 68.67 153.52
  Q 69.29 150.37 68.31 148.08"
/>
<path stroke="#744c14" vector-effect="non-scaling-stroke" d="
  M 68.31 148.08
  Q 69.57 145.56 68.32 142.95"
/>
<path stroke="#750200" stroke-opacity="0.996" vector-effect="non-scaling-stroke" d="
  M 68.62 138.99
  Q 68.95 137.80 68.66 136.06"
/>
<path stroke="#744c14" vector-effect="non-scaling-stroke" d="
  M 68.66 136.06
  Q 69.24 133.50 68.50 130.74"
/>
<path stroke="#74027e" vector-effect="non-scaling-stroke" d="
  M 68.50 130.74
  Q 68.70 129.26 68.90 127.25
  Q 68.99 126.36 68.47 125.85"
/>
<path stroke="#808002" stroke-opacity="0.996" vector-effect="non-scaling-stroke" d="
  M 45.83 148.55
  C 43.19 147.76 43.29 144.93 45.92 144.46
  Q 47.88 144.11 50.19 142.63"
/>
<path stroke="#004a14" stroke-opacity="0.996" vector-effect="non-scaling-stroke" d="
  M 88.58 152.97
  Q 87.73 153.49 87.83 153.95"
/>
<path stroke="#808002" stroke-opacity="0.996" vector-effect="non-scaling-stroke" d="
  M 87.83 153.95
  Q 87.70 154.31 87.47 154.27"
/>
<path stroke="#7fca16" vector-effect="non-scaling-stroke" d="
  M 60.64 145.64
  Q 64.28 147.49 68.31 148.08"
/>
<path stroke="#808002" stroke-opacity="0.996" vector-effect="non-scaling-stroke" d="
  M 68.67 153.52
  Q 63.94 155.86 60.75 156.04
  Q 42.58 157.05 26.07 150.88"
/>
<path stroke="#00017e" stroke-opacity="0.996" vector-effect="non-scaling-stroke" d="
  M 110.97 131.33
  L 102.03 132.21"
/>
<path stroke="#00017e" stroke-opacity="0.996" vector-effect="non-scaling-stroke" d="
  M 89.32 136.14
  Q 88.91 136.00 88.97 136.31"
/>
<path stroke="#004a14" stroke-opacity="0.996" vector-effect="non-scaling-stroke" d="
  M 88.97 136.31
  Q 87.70 136.22 87.23 137.22"
/>
<path stroke="#808002" stroke-opacity="0.996" vector-effect="non-scaling-stroke" d="
  M 87.07 165.06
  Q 87.28 165.72 88.27 165.32
  Q 96.39 162.00 101.30 160.57
  Q 102.15 160.32 102.83 159.80"
/>
<path stroke="#004a14" stroke-opacity="0.996" vector-effect="non-scaling-stroke" d="
  M 102.83 159.80
  L 130.26 150.71"
/>
<path stroke="#004b91" vector-effect="non-scaling-stroke" d="
  M 68.50 130.74
  L 62.16 128.10"
/>
<path stroke="#004a14" stroke-opacity="0.996" vector-effect="non-scaling-stroke" d="
  M 68.66 136.06
  L 50.19 142.63"
/>
<path stroke="#7fca16" vector-effect="non-scaling-stroke" d="
  M 50.19 142.63
  L 34.25 137.64"
/>
<path stroke="#004a14" stroke-opacity="0.996" vector-effect="non-scaling-stroke" d="
  M 103.70 141.73
  L 87.53 147.33"
/>
<path stroke="#7fca16" vector-effect="non-scaling-stroke" d="
  M 102.83 159.80
  Q 102.53 159.37 101.69 159.10
  Q 95.18 156.93 91.18 155.77
  C 89.89 155.39 88.95 154.62 87.83 153.95"
/>
<path stroke="#00017e" stroke-opacity="0.996" vector-effect="non-scaling-stroke" d="
  M 141.05 141.85
  Q 139.93 145.29 137.42 147.16"
/>
<path stroke="#00017e" stroke-opacity="0.996" vector-effect="non-scaling-stroke" d="
  M 135.40 148.40
  L 130.26 150.71"
/>
<path stroke="#004b91" vector-effect="non-scaling-stroke" d="
  M 130.26 150.71
  Q 130.54 149.79 130.07 149.68
  Q 122.94 147.89 115.96 145.33"
/>
<path stroke="#00017e" stroke-opacity="0.996" vector-effect="non-scaling-stroke" d="
  M 115.96 145.33
  Q 116.00 144.56 114.70 144.27"
/>
<path stroke="#00017e" stroke-opacity="0.996" vector-effect="non-scaling-stroke" d="
  M 122.77 140.59
  Q 123.69 139.83 123.44 138.98
  A 0.84 0.84 0.0 0 0 122.80 138.39
  Q 118.25 137.49 114.74 138.24
  Q 110.09 139.23 103.70 141.73"
/>
<path stroke="#004b91" vector-effect="non-scaling-stroke" d="
  M 103.70 141.73
  Q 96.84 139.65 90.91 137.61
  C 90.12 137.34 89.63 136.79 88.97 136.31"
/>
<path stroke="#004a14" stroke-opacity="0.996" vector-effect="non-scaling-stroke" d="
  M 115.96 145.33
  L 113.21 144.68"
/>
<path stroke="#808080" stroke-opacity="0.996" vector-effect="non-scaling-stroke" d="
  M 188.18 99.75
  Q 188.12 101.42 188.56 104.24
  C 189.80 112.27 188.45 123.72 179.48 126.76
  C 175.87 127.99 170.61 127.54 166.41 127.42"
/>
<path stroke="#808080" stroke-opacity="0.996" vector-effect="non-scaling-stroke" d="
  M 177.48 101.75
  C 176.47 98.69 174.09 96.55 170.75 96.68
  Q 165.14 96.89 160.19 96.59
  A 0.77 0.76 -88.3 0 0 159.38 97.36
  Q 159.44 119.81 159.32 145.00
  Q 159.31 147.37 159.52 149.52
  A 1.38 1.37 -2.8 0 1 158.15 151.03
  L 150.26 151.01"
/>
<path stroke="#808080" stroke-opacity="0.996" vector-effect="non-scaling-stroke" d="
  M 206.80 90.38
  Q 206.25 105.36 206.18 118.75
  Q 206.10 134.39 206.52 149.81
  A 1.21 1.21 0.0 0 1 205.30 151.05
  L 197.17 150.96"
/>
<path stroke="#808080" stroke-opacity="0.996" vector-effect="non-scaling-stroke" d="
  M 463.87 92.26
  Q 463.38 94.43 463.77 96.27
  A 1.48 1.47 -6.6 0 1 462.35 98.05
  L 454.18 98.16"
/>
<path stroke="#808080" stroke-opacity="0.996" vector-effect="non-scaling-stroke" d="
  M 338.83 92.53
  L 338.90 94.89
  A 1.69 1.69 0.0 0 1 337.16 96.64
  Q 330.31 96.44 323.74 96.64
  Q 318.65 96.81 317.34 101.54
  Q 315.73 107.34 318.07 112.21"
/>
<path stroke="#808080" stroke-opacity="0.996" vector-effect="non-scaling-stroke" d="
  M 341.95 124.05
  Q 343.04 135.34 342.22 139.50
  Q 340.80 146.71 334.98 149.62
  Q 332.23 151.00 326.80 151.02
  Q 318.52 151.05 310.13 151.04"
/>
<path stroke="#808080" stroke-opacity="0.996" vector-effect="non-scaling-stroke" d="
  M 332.46 128.46
  C 331.76 124.95 328.98 124.06 325.56 123.98
  C 319.75 123.86 315.15 124.88 310.46 119.89"
/>
<path stroke="#808080" stroke-opacity="0.996" vector-effect="non-scaling-stroke" d="
  M 362.01 98.61
  Q 360.84 104.07 363.65 103.44"
/>
<path stroke="#808080" stroke-opacity="0.996" vector-effect="non-scaling-stroke" d="
  M 372.80 106.79
  L 372.84 108.62
  A 1.85 1.84 -89.4 0 1 370.93 110.50
  L 362.51 110.22
  A 0.68 0.67 0.8 0 0 361.81 110.89
  Q 361.77 125.33 361.84 139.49
  Q 361.85 142.78 363.18 144.87"
/>
<path stroke="#808080" stroke-opacity="0.996" vector-effect="non-scaling-stroke" d="
  M 369.28 147.51
  Q 369.59 149.43 368.78 150.53
  A 1.10 1.10 0.0 0 1 367.99 150.99
  Q 360.86 151.69 354.83 150.10"
/>
<path stroke="#808080" stroke-opacity="0.996" vector-effect="non-scaling-stroke" d="
  M 435.06 98.64
  L 434.79 102.53
  Q 434.75 103.08 435.26 103.30
  Q 435.64 103.46 436.17 103.36"
/>
<path stroke="#808080" stroke-opacity="0.996" vector-effect="non-scaling-stroke" d="
  M 445.33 104.79
  L 445.56 108.38
  Q 445.71 110.62 443.47 110.53
  L 435.51 110.25
  A 0.59 0.59 0.0 0 0 434.89 110.84
  Q 434.92 126.17 434.92 140.50
  Q 434.92 142.14 436.11 144.38"
/>
<path stroke="#808080" stroke-opacity="0.996" vector-effect="non-scaling-stroke" d="
  M 442.77 148.77
  Q 443.28 150.86 441.51 151.06
  Q 435.30 151.77 428.07 150.27"
/>
<path stroke="#808080" stroke-opacity="0.996" vector-effect="non-scaling-stroke" d="
  M 301.63 106.19
  L 273.18 172.16
  A 2.53 2.52 -78.7 0 1 270.91 173.68
  L 266.32 173.79"
/>
<path stroke="#808080" stroke-opacity="0.996" vector-effect="non-scaling-stroke" d="
  M 514.31 115.05
  Q 515.00 125.44 514.50 136.00
  C 514.13 143.63 509.22 149.96 501.40 150.62
  Q 495.33 151.14 487.75 150.69
  Q 482.19 150.36 477.03 145.47"
/>
<path stroke="#808080" stroke-opacity="0.996" vector-effect="non-scaling-stroke" d="
  M 563.60 113.29
  L 563.32 150.01
  A 1.18 1.17 0.7 0 1 562.12 151.17
  L 554.24 151.03"
/>
<path stroke="#808080" stroke-opacity="0.996" vector-effect="non-scaling-stroke" d="
  M 553.07 115.36
  Q 551.73 110.51 546.75 110.45
  Q 541.03 110.39 535.40 110.24
  A 0.45 0.45 0.0 0 0 534.93 110.70
  L 535.01 149.77
  A 1.32 1.32 0.0 0 1 533.68 151.09
  L 526.25 151.02"
/>
<path stroke="#808080" stroke-opacity="0.996" vector-effect="non-scaling-stroke" d="
  M 252.11 112.05
  L 251.93 149.75
  A 1.23 1.23 0.0 0 1 250.69 150.97
  Q 239.25 150.91 227.49 150.95
  Q 222.98 150.97 218.20 146.21"
/>
<path stroke="#808080" stroke-opacity="0.996" vector-effect="non-scaling-stroke" d="
  M 236.56 124.01
  C 236.91 126.35 234.97 127.04 233.09 126.80
  C 228.19 126.14 225.43 127.75 224.85 133.00
  Q 224.27 138.11 226.44 141.28"
/>
<path stroke="#808080" stroke-opacity="0.996" vector-effect="non-scaling-stroke" d="
  M 242.57 115.95
  Q 241.80 112.73 239.10 111.11
  Q 237.31 110.05 233.68 110.00
  Q 227.83 109.93 221.44 110.00"
/>
<path stroke="#808080" stroke-opacity="0.996" vector-effect="non-scaling-stroke" d="
  M 414.84 111.98
  L 415.00 149.79
  A 1.19 1.19 0.0 0 1 413.81 150.98
  Q 402.14 150.89 390.49 150.97
  Q 386.01 151.00 381.19 146.21"
/>
<path stroke="#808080" stroke-opacity="0.996" vector-effect="non-scaling-stroke" d="
  M 399.54 123.93
  C 399.54 125.33 399.13 126.86 397.48 126.76
  Q 395.38 126.63 393.37 126.58
  Q 390.96 126.51 389.54 128.71
  Q 385.87 134.40 388.99 140.30"
/>
<path stroke="#808080" stroke-opacity="0.996" vector-effect="non-scaling-stroke" d="
  M 405.55 115.50
  Q 403.41 110.19 398.25 110.06
  Q 391.75 109.89 384.35 109.96"
/>
<path stroke="#808080" stroke-opacity="0.996" vector-effect="non-scaling-stroke" d="
  M 464.04 106.68
  Q 463.08 128.14 463.79 149.57
  A 1.38 1.38 0.0 0 1 462.41 150.99
  L 454.75 151.01"
/>
<path stroke="#808080" stroke-opacity="0.996" vector-effect="non-scaling-stroke" d="
  M 503.70 117.05
  Q 500.62 108.66 491.51 110.40
  C 485.11 111.62 483.96 119.55 483.99 124.74
  Q 484.02 129.43 484.18 134.62
  Q 484.27 137.34 485.57 139.45"
/>
</g>
<path fill="#e80300" d="
  M 116.55 103.01
  Q 116.61 112.48 116.40 115.88
  C 116.07 120.93 112.88 126.98 107.63 128.78
  C 103.36 130.24 99.70 129.25 95.93 129.12
  Q 94.65 128.34 94.67 126.75
  Q 94.82 111.26 94.54 95.79
  Q 93.57 92.69 90.43 93.22
  C 86.95 93.81 87.44 95.83 87.48 98.93
  Q 87.72 118.06 87.23 137.22
  L 87.53 147.33
  L 87.47 154.27
  L 87.07 165.06
  L 69.66 159.96
  Q 68.67 159.01 68.54 155.91
  Q 69.25 154.37 68.67 153.52
  Q 69.29 150.37 68.31 148.08
  Q 69.57 145.56 68.32 142.95
  Q 69.34 141.53 68.62 138.99
  Q 68.95 137.80 68.66 136.06
  Q 69.24 133.50 68.50 130.74
  Q 68.70 129.26 68.90 127.25
  Q 68.99 126.36 68.47 125.85
  L 68.75 77.83
  A 0.34 0.33 -83.3 0 1 69.16 77.50
  Q 83.40 80.99 97.36 85.19
  Q 111.31 89.39 116.55 103.01
  Z"
/>
<path fill="#ffffff" d="
  M 188.18 99.75
  Q 188.12 101.42 188.56 104.24
  C 189.80 112.27 188.45 123.72 179.48 126.76
  C 175.87 127.99 170.61 127.54 166.41 127.42
  Q 165.14 125.62 165.57 121.83
  Q 165.69 120.82 166.70 120.86
  C 170.87 121.05 176.54 122.35 178.14 116.86
  Q 180.40 109.11 177.48 101.75
  C 176.47 98.69 174.09 96.55 170.75 96.68
  Q 165.14 96.89 160.19 96.59
  A 0.77 0.76 -88.3 0 0 159.38 97.36
  Q 159.44 119.81 159.32 145.00
  Q 159.31 147.37 159.52 149.52
  A 1.38 1.37 -2.8 0 1 158.15 151.03
  L 150.26 151.01
  Q 149.19 150.49 149.22 149.00
  Q 149.67 118.77 149.34 90.45
  A 0.71 0.71 0.0 0 1 150.06 89.73
  Q 161.51 89.88 174.25 89.88
  Q 184.22 89.88 188.18 99.75
  Z"
/>
<path fill="#ffffff" d="
  M 206.80 90.38
  Q 206.25 105.36 206.18 118.75
  Q 206.10 134.39 206.52 149.81
  A 1.21 1.21 0.0 0 1 205.30 151.05
  L 197.17 150.96
  Q 196.31 150.69 196.31 149.75
  Q 196.31 120.00 196.29 90.45
  A 0.66 0.66 0.0 0 1 196.90 89.79
  Q 202.13 89.33 206.80 90.38
  Z"
/>
<path fill="#ffffff" d="
  M 463.87 92.26
  Q 463.38 94.43 463.77 96.27
  A 1.48 1.47 -6.6 0 1 462.35 98.05
  L 454.18 98.16
  L 453.76 90.39
  Q 453.73 89.73 454.39 89.73
  L 462.55 89.75
  Q 463.15 89.75 463.31 90.32
  L 463.87 92.26
  Z"
/>
<path fill="#ffffff" d="
  M 338.83 92.53
  L 338.90 94.89
  A 1.69 1.69 0.0 0 1 337.16 96.64
  Q 330.31 96.44 323.74 96.64
  Q 318.65 96.81 317.34 101.54
  Q 315.73 107.34 318.07 112.21
  C 323.03 118.43 328.80 114.15 334.81 116.36
  Q 339.68 118.16 341.95 124.05
  Q 343.04 135.34 342.22 139.50
  Q 340.80 146.71 334.98 149.62
  Q 332.23 151.00 326.80 151.02
  Q 318.52 151.05 310.13 151.04
  Q 308.53 149.92 309.01 146.28
  Q 309.14 145.27 310.16 145.27
  Q 318.04 145.25 325.69 145.30
  C 332.90 145.35 333.43 133.26 332.46 128.46
  C 331.76 124.95 328.98 124.06 325.56 123.98
  C 319.75 123.86 315.15 124.88 310.46 119.89
  Q 307.59 116.33 307.53 113.50
  Q 307.40 107.11 307.59 101.30
  C 307.81 94.47 314.91 90.39 320.71 90.29
  Q 327.71 90.18 337.57 90.22
  Q 338.06 90.22 338.30 90.65
  Q 338.72 91.42 338.83 92.53
  Z"
/>
<path fill="#000000" fill-opacity="0.988" d="
  M 206.80 90.38
  L 207.25 152.75
  A 0.52 0.51 -83.9 0 1 206.62 153.26
  Q 203.15 152.50 199.49 152.98
  Q 198.17 153.15 197.17 150.96
  L 205.30 151.05
  A 1.21 1.21 0.0 0 0 206.52 149.81
  Q 206.10 134.39 206.18 118.75
  Q 206.25 105.36 206.80 90.38
  Z"
/>
<path fill="#000000" fill-opacity="0.988" d="
  M 463.87 92.26
  L 464.57 100.01
  A 0.48 0.48 0.0 0 1 464.00 100.52
  Q 460.28 99.82 456.54 100.30
  Q 456.00 100.37 455.65 99.95
  L 454.18 98.16
  L 462.35 98.05
  A 1.48 1.47 -6.6 0 0 463.77 96.27
  Q 463.38 94.43 463.87 92.26
  Z"
/>
<path fill="#000000" fill-opacity="0.988" d="
  M 338.83 92.53
  Q 340.06 95.35 339.61 98.37
  Q 339.53 98.91 338.99 98.88
  Q 333.30 98.61 325.57 98.67
  C 321.69 98.70 318.69 101.01 318.02 104.76
  Q 317.47 107.81 318.07 112.21
  Q 315.73 107.34 317.34 101.54
  Q 318.65 96.81 323.74 96.64
  Q 330.31 96.44 337.16 96.64
  A 1.69 1.69 0.0 0 0 338.90 94.89
  L 338.83 92.53
  Z"
/>
<path fill="#000000" fill-opacity="0.988" d="
  M 94.54 95.79
  Q 88.19 93.86 88.22 99.74
  Q 88.30 117.63 88.26 135.50
  Q 88.25 136.10 89.32 136.14
  Q 88.91 136.00 88.97 136.31
  Q 87.70 136.22 87.23 137.22
  Q 87.72 118.06 87.48 98.93
  C 87.44 95.83 86.95 93.81 90.43 93.22
  Q 93.57 92.69 94.54 95.79
  Z"
/>
<path fill="#ffffff" d="
  M 362.01 98.61
  Q 360.84 104.07 363.65 103.44
  L 371.05 103.26
  A 0.95 0.95 0.0 0 1 371.99 103.94
  L 372.80 106.79
  L 372.84 108.62
  A 1.85 1.84 -89.4 0 1 370.93 110.50
  L 362.51 110.22
  A 0.68 0.67 0.8 0 0 361.81 110.89
  Q 361.77 125.33 361.84 139.49
  Q 361.85 142.78 363.18 144.87
  Q 366.00 145.56 367.86 145.32
  Q 368.36 145.25 368.69 145.64
  Q 369.25 146.30 369.28 147.51
  Q 369.59 149.43 368.78 150.53
  A 1.10 1.10 0.0 0 1 367.99 150.99
  Q 360.86 151.69 354.83 150.10
  Q 352.54 146.70 352.49 144.50
  Q 352.23 133.05 352.40 96.62
  Q 352.40 95.99 353.03 95.99
  L 360.99 96.00
  Q 361.62 96.00 361.72 96.63
  L 362.01 98.61
  Z"
/>
<path fill="#ffffff" d="
  M 435.06 98.64
  L 434.79 102.53
  Q 434.75 103.08 435.26 103.30
  Q 435.64 103.46 436.17 103.36
  Q 440.56 103.59 443.75 103.29
  Q 445.27 103.15 445.33 104.79
  L 445.56 108.38
  Q 445.71 110.62 443.47 110.53
  L 435.51 110.25
  A 0.59 0.59 0.0 0 0 434.89 110.84
  Q 434.92 126.17 434.92 140.50
  Q 434.92 142.14 436.11 144.38
  Q 437.89 145.52 440.74 145.20
  Q 441.80 145.07 442.07 146.10
  L 442.77 148.77
  Q 443.28 150.86 441.51 151.06
  Q 435.30 151.77 428.07 150.27
  Q 425.66 147.07 425.61 144.25
  Q 425.28 123.17 425.48 96.75
  Q 425.49 96.00 426.23 96.00
  L 434.03 95.99
  Q 434.72 95.99 434.81 96.68
  L 435.06 98.64
  Z"
/>
<path fill="#000000" fill-opacity="0.988" d="
  M 177.48 101.75
  Q 175.41 98.63 173.50 98.68
  Q 167.13 98.86 161.12 98.55
  A 0.84 0.84 0.0 0 0 160.24 99.39
  Q 160.26 124.50 160.26 149.73
  Q 160.26 151.12 160.48 152.49
  A 0.72 0.72 0.0 0 1 159.58 153.30
  Q 155.87 152.32 152.18 152.94
  Q 151.68 153.02 151.39 152.61
  L 150.26 151.01
  L 158.15 151.03
  A 1.38 1.37 -2.8 0 0 159.52 149.52
  Q 159.31 147.37 159.32 145.00
  Q 159.44 119.81 159.38 97.36
  A 0.77 0.76 -88.3 0 1 160.19 96.59
  Q 165.14 96.89 170.75 96.68
  C 174.09 96.55 176.47 98.69 177.48 101.75
  Z"
/>
<path fill="#000000" fill-opacity="0.988" d="
  M 362.01 98.61
  Q 363.13 100.17 362.62 102.06
  Q 362.33 103.15 363.65 103.44
  Q 360.84 104.07 362.01 98.61
  Z"
/>
<path fill="#000000" fill-opacity="0.988" d="
  M 435.06 98.64
  Q 436.45 100.28 435.58 102.43
  Q 435.42 102.81 435.82 102.91
  Q 436.20 103.00 436.17 103.36
  Q 435.64 103.46 435.26 103.30
  Q 434.75 103.08 434.79 102.53
  L 435.06 98.64
  Z"
/>
<path fill="#000000" fill-opacity="0.988" d="
  M 188.18 99.75
  Q 191.87 111.44 187.94 122.21
  Q 185.96 127.61 179.97 129.09
  Q 176.19 130.01 168.20 129.59
  Q 167.80 129.57 167.59 129.23
  L 166.41 127.42
  C 170.61 127.54 175.87 127.99 179.48 126.76
  C 188.45 123.72 189.80 112.27 188.56 104.24
  Q 188.12 101.42 188.18 99.75
  Z"
/>
<path fill="#000000" fill-opacity="0.988" d="
  M 116.55 103.01
  Q 118.91 111.19 117.16 119.95
  Q 116.23 124.60 113.57 127.95
  Q 111.62 130.41 108.06 129.85
  Q 108.00 129.84 107.98 129.91
  L 107.92 130.20
  A 0.52 0.52 0.0 0 0 108.33 130.82
  L 110.97 131.33
  L 102.03 132.21
  L 106.37 130.62
  A 0.04 0.04 0.0 0 0 106.35 130.55
  C 102.60 130.65 97.89 132.99 95.93 129.12
  C 99.70 129.25 103.36 130.24 107.63 128.78
  C 112.88 126.98 116.07 120.93 116.40 115.88
  Q 116.61 112.48 116.55 103.01
  Z"
/>
<path fill="#ffffff" d="
  M 301.63 106.19
  L 273.18 172.16
  A 2.53 2.52 -78.7 0 1 270.91 173.68
  L 266.32 173.79
  Q 265.39 173.70 264.98 173.24
  Q 264.65 172.88 264.84 172.42
  L 274.06 150.04
  A 3.74 3.73 -44.4 0 0 274.09 147.29
  L 257.32 104.07
  A 0.39 0.39 0.0 0 1 257.69 103.54
  L 267.26 103.61
  A 2.39 2.39 0.0 0 1 269.48 105.15
  L 279.93 132.76
  Q 280.53 134.33 281.17 132.77
  L 292.81 104.37
  A 1.51 1.51 0.0 0 1 294.39 103.45
  Q 297.71 103.84 301.40 103.40
  Q 301.93 103.34 302.00 103.86
  Q 302.15 105.00 301.63 106.19
  Z"
/>
<path fill="#ffffff" d="
  M 514.31 115.05
  Q 515.00 125.44 514.50 136.00
  C 514.13 143.63 509.22 149.96 501.40 150.62
  Q 495.33 151.14 487.75 150.69
  Q 482.19 150.36 477.03 145.47
  Q 473.89 141.06 473.78 135.50
  Q 473.61 127.70 473.88 120.51
  C 474.16 112.75 479.29 104.53 487.74 103.66
  Q 492.80 103.13 498.95 103.72
  Q 509.83 104.76 514.31 115.05
  Z
  M 485.57 139.45
  Q 487.86 143.90 491.25 143.99
  C 493.65 144.05 497.38 144.44 499.47 143.26
  C 502.20 141.72 504.01 137.87 504.20 135.00
  Q 504.82 125.71 503.70 117.05
  Q 500.62 108.66 491.51 110.40
  C 485.11 111.62 483.96 119.55 483.99 124.74
  Q 484.02 129.43 484.18 134.62
  Q 484.27 137.34 485.57 139.45
  Z"
/>
<path fill="#ffffff" d="
  M 563.60 113.29
  L 563.32 150.01
  A 1.18 1.17 0.7 0 1 562.12 151.17
  L 554.24 151.03
  Q 553.90 150.96 553.64 150.57
  Q 553.45 150.28 553.45 149.93
  Q 553.55 134.03 553.45 117.92
  C 553.44 117.05 553.17 116.23 553.07 115.36
  Q 551.73 110.51 546.75 110.45
  Q 541.03 110.39 535.40 110.24
  A 0.45 0.45 0.0 0 0 534.93 110.70
  L 535.01 149.77
  A 1.32 1.32 0.0 0 1 533.68 151.09
  L 526.25 151.02
  Q 525.37 150.83 525.37 149.75
  Q 525.38 126.81 525.37 103.96
  A 0.56 0.55 -0.0 0 1 525.93 103.41
  Q 537.12 103.34 548.24 103.37
  Q 558.23 103.39 563.60 113.29
  Z"
/>
<path fill="#ffffff" d="
  M 252.11 112.05
  L 251.93 149.75
  A 1.23 1.23 0.0 0 1 250.69 150.97
  Q 239.25 150.91 227.49 150.95
  Q 222.98 150.97 218.20 146.21
  Q 213.50 139.26 215.52 131.58
  C 216.93 126.21 221.04 122.37 226.27 121.57
  Q 229.95 121.02 235.26 121.29
  Q 235.79 121.31 235.94 121.82
  L 236.56 124.01
  C 236.91 126.35 234.97 127.04 233.09 126.80
  C 228.19 126.14 225.43 127.75 224.85 133.00
  Q 224.27 138.11 226.44 141.28
  C 227.92 143.71 230.08 145.40 233.05 145.30
  Q 237.87 145.12 241.94 145.30
  A 0.66 0.66 0.0 0 0 242.63 144.64
  L 242.57 115.95
  Q 241.80 112.73 239.10 111.11
  Q 237.31 110.05 233.68 110.00
  Q 227.83 109.93 221.44 110.00
  Q 219.99 108.21 220.66 104.36
  A 0.95 0.94 4.6 0 1 221.60 103.57
  Q 230.99 103.63 239.98 103.75
  Q 248.47 103.86 252.11 112.05
  Z"
/>
<path fill="#ffffff" d="
  M 414.84 111.98
  L 415.00 149.79
  A 1.19 1.19 0.0 0 1 413.81 150.98
  Q 402.14 150.89 390.49 150.97
  Q 386.01 151.00 381.19 146.21
  C 375.41 138.21 377.10 125.97 386.99 122.15
  C 390.42 120.82 394.52 121.31 398.16 121.22
  Q 398.76 121.21 398.92 121.78
  L 399.54 123.93
  C 399.54 125.33 399.13 126.86 397.48 126.76
  Q 395.38 126.63 393.37 126.58
  Q 390.96 126.51 389.54 128.71
  Q 385.87 134.40 388.99 140.30
  C 390.37 143.44 392.83 145.46 396.40 145.31
  Q 401.12 145.11 405.03 145.27
  A 0.67 0.67 0.0 0 0 405.73 144.60
  L 405.55 115.50
  Q 403.41 110.19 398.25 110.06
  Q 391.75 109.89 384.35 109.96
  Q 383.21 108.01 383.73 104.08
  Q 383.80 103.50 384.39 103.52
  Q 391.40 103.74 399.22 103.56
  C 406.63 103.39 412.19 104.74 414.84 111.98
  Z"
/>
<path fill="#ffffff" d="
  M 464.04 106.68
  Q 463.08 128.14 463.79 149.57
  A 1.38 1.38 0.0 0 1 462.41 150.99
  L 454.75 151.01
  Q 454.23 151.10 453.92 150.63
  Q 453.73 150.34 453.73 149.98
  Q 453.75 127.25 453.73 104.62
  Q 453.73 103.92 454.43 103.93
  L 462.53 104.02
  Q 463.37 104.03 463.40 104.87
  Q 463.43 105.69 464.04 106.68
  Z"
/>
<path fill="#000000" fill-opacity="0.988" d="
  M 445.33 104.79
  Q 446.55 108.43 446.44 112.08
  Q 446.42 112.68 445.82 112.65
  L 436.98 112.29
  A 1.13 1.13 0.0 0 0 435.80 113.43
  L 436.11 144.38
  Q 434.92 142.14 434.92 140.50
  Q 434.92 126.17 434.89 110.84
  A 0.59 0.59 0.0 0 1 435.51 110.25
  L 443.47 110.53
  Q 445.71 110.62 445.56 108.38
  L 445.33 104.79
  Z"
/>
<path fill="#000000" fill-opacity="0.988" d="
  M 301.63 106.19
  L 302.85 106.82
  Q 303.24 107.02 303.07 107.43
  L 273.86 175.03
  A 1.04 1.02 -77.2 0 1 272.89 175.65
  L 267.60 175.48
  Q 267.10 175.47 266.84 175.04
  Q 266.50 174.48 266.32 173.79
  L 270.91 173.68
  A 2.53 2.52 -78.7 0 0 273.18 172.16
  L 301.63 106.19
  Z"
/>
<path fill="#000000" fill-opacity="0.988" d="
  M 372.80 106.79
  L 373.29 112.05
  Q 373.34 112.62 372.76 112.60
  L 363.47 112.28
  A 0.76 0.76 0.0 0 0 362.69 113.05
  L 363.18 144.87
  Q 361.85 142.78 361.84 139.49
  Q 361.77 125.33 361.81 110.89
  A 0.68 0.67 0.8 0 1 362.51 110.22
  L 370.93 110.50
  A 1.85 1.84 -89.4 0 0 372.84 108.62
  L 372.80 106.79
  Z"
/>
<path fill="#000000" fill-opacity="0.988" d="
  M 464.04 106.68
  L 464.51 152.98
  A 0.44 0.44 0.0 0 1 463.96 153.41
  Q 460.24 152.41 456.51 153.15
  Q 455.94 153.26 455.67 152.75
  L 454.75 151.01
  L 462.41 150.99
  A 1.38 1.38 0.0 0 0 463.79 149.57
  Q 463.08 128.14 464.04 106.68
  Z"
/>
<path fill="#000000" fill-opacity="0.988" d="
  M 405.55 115.50
  Q 403.03 112.37 399.50 112.24
  Q 392.93 112.02 386.34 112.17
  Q 385.85 112.18 385.58 111.77
  L 384.35 109.96
  Q 391.75 109.89 398.25 110.06
  Q 403.41 110.19 405.55 115.50
  Z"
/>
<path fill="#000000" fill-opacity="0.988" d="
  M 221.44 110.00
  Q 227.83 109.93 233.68 110.00
  Q 237.31 110.05 239.10 111.11
  Q 241.80 112.73 242.57 115.95
  Q 240.86 112.55 237.75 112.30
  Q 233.75 111.97 223.16 112.11
  Q 222.67 112.12 222.53 111.65
  Q 222.19 110.56 221.44 110.00
  Z"
/>
<path fill="#000000" fill-opacity="0.988" d="
  M 503.70 117.05
  Q 501.46 113.31 499.27 112.66
  Q 497.10 112.02 492.69 112.54
  C 490.59 112.79 488.58 114.22 487.54 116.02
  Q 485.05 120.32 484.88 125.25
  Q 484.62 132.56 485.57 139.45
  Q 484.27 137.34 484.18 134.62
  Q 484.02 129.43 483.99 124.74
  C 483.96 119.55 485.11 111.62 491.51 110.40
  Q 500.62 108.66 503.70 117.05
  Z"
/>
<path fill="#000000" fill-opacity="0.988" d="
  M 553.07 115.36
  Q 550.95 112.49 548.49 112.52
  Q 542.50 112.57 536.85 112.30
  A 0.97 0.96 -88.6 0 0 535.84 113.27
  L 535.88 152.94
  A 0.49 0.48 7.5 0 1 535.27 153.40
  Q 531.77 152.42 528.32 153.17
  Q 527.80 153.28 527.49 152.84
  L 526.25 151.02
  L 533.68 151.09
  A 1.32 1.32 0.0 0 0 535.01 149.77
  L 534.93 110.70
  A 0.45 0.45 0.0 0 1 535.40 110.24
  Q 541.03 110.39 546.75 110.45
  Q 551.73 110.51 553.07 115.36
  Z"
/>
<path fill="#000000" fill-opacity="0.988" d="
  M 252.11 112.05
  L 252.88 152.59
  Q 252.89 153.40 252.09 153.25
  C 250.81 153.00 249.51 152.77 248.17 152.78
  Q 240.26 152.88 232.24 153.08
  Q 227.42 153.19 224.54 151.96
  Q 220.61 150.28 218.20 146.21
  Q 222.98 150.97 227.49 150.95
  Q 239.25 150.91 250.69 150.97
  A 1.23 1.23 0.0 0 0 251.93 149.75
  L 252.11 112.05
  Z"
/>
<path fill="#000000" fill-opacity="0.988" d="
  M 414.84 111.98
  Q 415.88 114.65 415.89 116.25
  Q 415.90 134.34 415.91 152.45
  Q 415.91 153.15 415.21 153.13
  C 414.47 153.11 413.73 152.78 413.00 152.78
  Q 403.08 152.87 393.69 153.02
  C 388.18 153.11 384.00 150.85 381.19 146.21
  Q 386.01 151.00 390.49 150.97
  Q 402.14 150.89 413.81 150.98
  A 1.19 1.19 0.0 0 0 415.00 149.79
  L 414.84 111.98
  Z"
/>
<path fill="#000000" fill-opacity="0.988" d="
  M 563.60 113.29
  L 564.15 153.14
  A 0.35 0.35 0.0 0 1 563.70 153.48
  Q 560.07 152.33 556.35 153.13
  Q 555.83 153.24 555.51 152.81
  L 554.24 151.03
  L 562.12 151.17
  A 1.18 1.17 0.7 0 0 563.32 150.01
  L 563.60 113.29
  Z"
/>
<path fill="#000000" fill-opacity="0.988" d="
  M 514.31 115.05
  Q 516.73 126.99 515.40 139.49
  Q 514.55 147.57 508.21 151.09
  Q 505.02 152.86 499.02 153.03
  C 490.41 153.27 481.96 153.43 477.03 145.47
  Q 482.19 150.36 487.75 150.69
  Q 495.33 151.14 501.40 150.62
  C 509.22 149.96 514.13 143.63 514.50 136.00
  Q 515.00 125.44 514.31 115.05
  Z"
/>
<path fill="#000000" fill-opacity="0.988" d="
  M 310.46 119.89
  C 315.15 124.88 319.75 123.86 325.56 123.98
  C 328.98 124.06 331.76 124.95 332.46 128.46
  Q 331.08 126.48 329.76 126.29
  C 325.79 125.71 319.41 126.76 315.65 125.09
  Q 312.27 123.58 310.46 119.89
  Z"
/>
<path fill="#000000" fill-opacity="0.988" d="
  M 236.56 124.01
  Q 237.88 126.22 237.16 128.47
  Q 237.00 128.95 236.49 128.89
  C 233.44 128.54 229.85 127.85 227.65 130.63
  Q 224.12 135.08 226.44 141.28
  Q 224.27 138.11 224.85 133.00
  C 225.43 127.75 228.19 126.14 233.09 126.80
  C 234.97 127.04 236.91 126.35 236.56 124.01
  Z"
/>
<path fill="#000000" fill-opacity="0.988" d="
  M 341.95 124.05
  Q 344.64 132.60 343.08 141.99
  Q 341.90 149.14 335.89 151.95
  Q 332.77 153.41 327.04 153.17
  Q 320.74 152.90 314.45 153.08
  Q 313.58 153.11 312.66 153.26
  Q 310.97 153.53 310.13 151.04
  Q 318.52 151.05 326.80 151.02
  Q 332.23 151.00 334.98 149.62
  Q 340.80 146.71 342.22 139.50
  Q 343.04 135.34 341.95 124.05
  Z"
/>
<path fill="#000000" fill-opacity="0.988" d="
  M 399.54 123.93
  Q 400.64 126.10 400.21 128.59
  A 0.48 0.48 0.0 0 1 399.65 128.98
  Q 397.25 128.58 394.60 128.59
  Q 392.61 128.60 390.95 130.27
  Q 387.30 133.95 388.99 140.30
  Q 385.87 134.40 389.54 128.71
  Q 390.96 126.51 393.37 126.58
  Q 395.38 126.63 397.48 126.76
  C 399.13 126.86 399.54 125.33 399.54 123.93
  Z"
/>
<path fill="#0001fb" d="
  M 68.47 125.85
  Q 68.99 126.36 68.90 127.25
  Q 68.70 129.26 68.50 130.74
  L 62.16 128.10
  L 68.47 125.85
  Z"
/>
<path fill="#009427" d="
  M 62.16 128.10
  L 68.50 130.74
  Q 69.24 133.50 68.66 136.06
  L 50.19 142.63
  L 34.25 137.64
  L 62.16 128.10
  Z"
/>
<path fill="#0001fb" d="
  M 110.97 131.33
  Q 123.18 130.76 134.00 134.51
  Q 139.64 136.47 141.05 141.85
  Q 139.93 145.29 137.42 147.16
  L 135.40 148.40
  L 130.26 150.71
  Q 130.54 149.79 130.07 149.68
  Q 122.94 147.89 115.96 145.33
  Q 116.00 144.56 114.70 144.27
  L 122.77 140.59
  Q 123.69 139.83 123.44 138.98
  A 0.84 0.84 0.0 0 0 122.80 138.39
  Q 118.25 137.49 114.74 138.24
  Q 110.09 139.23 103.70 141.73
  Q 96.84 139.65 90.91 137.61
  C 90.12 137.34 89.63 136.79 88.97 136.31
  Q 88.91 136.00 89.32 136.14
  L 102.03 132.21
  L 110.97 131.33
  Z"
/>
<path fill="#000000" fill-opacity="0.988" d="
  M 68.66 136.06
  Q 68.95 137.80 68.62 138.99
  Q 67.05 139.02 65.33 139.81
  Q 62.81 140.98 62.26 141.16
  Q 51.33 144.91 45.99 147.04
  Q 45.10 147.39 45.83 148.55
  C 43.19 147.76 43.29 144.93 45.92 144.46
  Q 47.88 144.11 50.19 142.63
  L 68.66 136.06
  Z"
/>
<path fill="#009427" d="
  M 88.97 136.31
  C 89.63 136.79 90.12 137.34 90.91 137.61
  Q 96.84 139.65 103.70 141.73
  L 87.53 147.33
  L 87.23 137.22
  Q 87.70 136.22 88.97 136.31
  Z"
/>
<path fill="#feff04" d="
  M 34.25 137.64
  L 50.19 142.63
  Q 47.88 144.11 45.92 144.46
  C 43.29 144.93 43.19 147.76 45.83 148.55
  Q 48.14 150.00 51.53 148.81
  Q 56.18 147.18 60.64 145.64
  Q 64.28 147.49 68.31 148.08
  Q 69.29 150.37 68.67 153.52
  Q 63.94 155.86 60.75 156.04
  Q 42.58 157.05 26.07 150.88
  Q 23.36 147.16 25.62 144.12
  Q 29.49 138.95 34.25 137.64
  Z"
/>
<path fill="#000000" fill-opacity="0.988" d="
  M 122.77 140.59
  L 122.92 139.79
  A 0.25 0.25 0.0 0 0 122.63 139.49
  C 119.96 139.91 117.50 139.93 114.89 140.77
  Q 102.45 144.77 89.56 149.20
  Q 88.69 149.50 88.85 148.71
  Q 88.87 148.59 88.84 148.48
  Q 88.58 147.49 88.51 148.52
  Q 88.42 149.78 88.09 150.98
  Q 87.78 152.14 88.58 152.97
  Q 87.73 153.49 87.83 153.95
  Q 87.70 154.31 87.47 154.27
  L 87.53 147.33
  L 103.70 141.73
  Q 110.09 139.23 114.74 138.24
  Q 118.25 137.49 122.80 138.39
  A 0.84 0.84 0.0 0 1 123.44 138.98
  Q 123.69 139.83 122.77 140.59
  Z"
/>
<path fill="#000000" fill-opacity="0.988" d="
  M 141.05 141.85
  Q 142.43 145.54 140.34 147.85
  Q 138.02 150.42 133.01 152.18
  Q 112.26 159.45 93.24 165.81
  Q 91.21 166.49 89.42 167.69
  Q 88.77 168.13 88.05 167.80
  Q 80.82 164.56 72.51 162.60
  C 71.15 162.28 70.24 161.18 69.66 159.96
  L 87.07 165.06
  Q 87.28 165.72 88.27 165.32
  Q 96.39 162.00 101.30 160.57
  Q 102.15 160.32 102.83 159.80
  L 130.26 150.71
  L 135.40 148.40
  Q 136.71 149.46 137.42 147.16
  Q 139.93 145.29 141.05 141.85
  Z"
/>
<path fill="#009427" d="
  M 68.32 142.95
  Q 69.57 145.56 68.31 148.08
  Q 64.28 147.49 60.64 145.64
  L 68.32 142.95
  Z"
/>
<path fill="#000000" fill-opacity="0.988" d="
  M 114.70 144.27
  Q 116.00 144.56 115.96 145.33
  L 113.21 144.68
  L 114.70 144.27
  Z"
/>
<path fill="#009427" d="
  M 113.21 144.68
  L 115.96 145.33
  Q 122.94 147.89 130.07 149.68
  Q 130.54 149.79 130.26 150.71
  L 102.83 159.80
  Q 102.53 159.37 101.69 159.10
  Q 95.18 156.93 91.18 155.77
  C 89.89 155.39 88.95 154.62 87.83 153.95
  Q 87.73 153.49 88.58 152.97
  L 113.21 144.68
  Z"
/>
<path fill="#000000" fill-opacity="0.988" d="
  M 369.28 147.51
  Q 370.43 150.01 370.03 152.72
  Q 369.95 153.29 369.38 153.23
  Q 365.13 152.78 360.42 153.15
  Q 358.66 153.29 357.22 152.52
  Q 355.56 151.62 354.83 150.10
  Q 360.86 151.69 367.99 150.99
  A 1.10 1.10 0.0 0 0 368.78 150.53
  Q 369.59 149.43 369.28 147.51
  Z"
/>
<path fill="#000000" fill-opacity="0.988" d="
  M 442.77 148.77
  Q 443.50 150.69 443.24 152.69
  Q 443.17 153.27 442.59 153.23
  Q 437.76 152.88 432.94 153.07
  Q 431.49 153.13 430.17 152.42
  Q 428.63 151.59 428.07 150.27
  Q 435.30 151.77 441.51 151.06
  Q 443.28 150.86 442.77 148.77
  Z"
/>
<path fill="#000000" fill-opacity="0.988" d="
  M 26.07 150.88
  Q 42.58 157.05 60.75 156.04
  Q 63.94 155.86 68.67 153.52
  Q 69.25 154.37 68.54 155.91
  Q 67.08 156.35 65.65 157.01
  Q 63.89 157.82 62.74 157.99
  Q 59.52 158.49 54.88 158.30
  Q 41.07 157.73 30.30 154.37
  Q 27.58 153.52 26.07 150.88
  Z"
/>
<path fill="#feff04" d="
  M 87.83 153.95
  C 88.95 154.62 89.89 155.39 91.18 155.77
  Q 95.18 156.93 101.69 159.10
  Q 102.53 159.37 102.83 159.80
  Q 102.15 160.32 101.30 160.57
  Q 96.39 162.00 88.27 165.32
  Q 87.28 165.72 87.07 165.06
  L 87.47 154.27
  Q 87.70 154.31 87.83 153.95
  Z"
/>
</svg>
