<?xml version="1.0" encoding="UTF-8" standalone="no"?>
<!DOCTYPE svg PUBLIC "-//W3C//DTD SVG 1.1//EN" "http://www.w3.org/Graphics/SVG/1.1/DTD/svg11.dtd">
<svg xmlns="http://www.w3.org/2000/svg" version="1.1" viewBox="0.00 0.00 590.00 255.00">
<g stroke-width="2.00" fill="none" stroke-linecap="butt">
<path stroke="#0178bc" vector-effect="non-scaling-stroke" d="
  M 429.13 106.92
  Q 422.62 108.80 415.84 105.96"
/>
<path stroke="#0178bc" vector-effect="non-scaling-stroke" d="
  M 379.69 108.59
  L 366.99 107.90"
/>
<path stroke="#80a9cb" vector-effect="non-scaling-stroke" d="
  M 404.62 164.78
  L 416.68 139.70
  A 0.40 0.39 12.4 0 0 416.32 139.14
  L 392.72 139.24"
/>
<path stroke="#80a9cb" vector-effect="non-scaling-stroke" d="
  M 364.93 146.67
  L 361.99 139.71
  Q 361.79 139.23 361.27 139.23
  L 335.24 139.22
  Q 334.78 139.22 334.97 139.64
  L 336.51 143.00"
/>
<path stroke="#012b4d" stroke-opacity="0.996" vector-effect="non-scaling-stroke" d="
  M 336.51 143.00
  Q 336.11 144.19 336.55 145.17
  A 0.75 0.74 78.4 0 1 335.86 146.22
  L 313.84 145.93"
/>
<path stroke="#80a9cb" vector-effect="non-scaling-stroke" d="
  M 313.84 145.93
  L 313.67 139.82
  Q 313.65 139.33 313.15 139.32
  L 299.14 139.22"
/>
<path stroke="#818282" stroke-opacity="0.996" vector-effect="non-scaling-stroke" d="
  M 404.62 164.78
  Q 404.49 164.77 404.36 164.76
  Q 404.27 164.76 404.23 164.84
  Q 396.96 179.41 389.55 194.15
  Q 388.91 195.44 387.46 195.43
  Q 376.75 195.34 364.22 195.44
  C 362.61 195.45 361.85 194.01 361.36 192.61"
/>
<path stroke="#818282" stroke-opacity="0.996" vector-effect="non-scaling-stroke" d="
  M 341.34 152.79
  L 336.51 143.00"
/>
<path stroke="#0178bc" vector-effect="non-scaling-stroke" d="
  M 304.48 109.45
  L 295.45 108.82
  Q 294.98 108.79 295.15 108.36
  Q 295.23 108.16 294.97 108.05
  Q 294.64 107.93 294.29 108.03
  Q 292.47 108.57 292.27 108.09"
/>
<path stroke="#026cb0" vector-effect="non-scaling-stroke" d="
  M 356.90 110.45
  Q 356.50 112.18 354.95 113.16
  Q 354.53 113.43 354.03 113.36
  Q 350.51 112.87 347.31 111.28
  A 1.25 1.21 49.3 0 0 346.43 111.20
  L 344.56 111.70"
/>
<path stroke="#024466" stroke-opacity="0.996" vector-effect="non-scaling-stroke" d="
  M 340.51 101.03
  L 322.36 101.01"
/>
<path stroke="#818282" stroke-opacity="0.996" vector-effect="non-scaling-stroke" d="
  M 313.84 145.93
  L 313.97 146.52"
/>
<path stroke="#818282" stroke-opacity="0.996" vector-effect="non-scaling-stroke" d="
  M 314.06 152.54
  Q 314.17 153.36 313.13 153.39
  Q 304.27 153.65 291.24 153.30
  Q 291.09 153.30 291.02 153.43
  Q 290.93 153.60 291.03 153.67"
/>
<path stroke="#818282" stroke-opacity="0.996" vector-effect="non-scaling-stroke" d="
  M 290.86 194.04
  Q 291.09 195.38 289.50 195.42
  Q 283.87 195.57 266.83 195.41
  Q 266.29 195.40 266.01 194.95
  L 265.76 194.53"
/>
<path stroke="#818282" stroke-opacity="0.996" vector-effect="non-scaling-stroke" d="
  M 265.74 154.27
  Q 266.53 155.56 265.60 153.74
  Q 265.35 153.25 264.81 153.28
  Q 256.56 153.73 248.14 153.33
  Q 247.22 153.28 247.23 154.21
  L 247.24 155.22
  Q 247.25 155.93 246.53 155.93
  L 219.55 155.76
  A 1.18 1.16 79.4 0 1 218.46 155.00
  Q 217.05 151.37 212.61 150.67
  C 209.91 150.25 195.94 148.77 196.84 154.49"
/>
<path stroke="#818282" stroke-opacity="0.996" vector-effect="non-scaling-stroke" d="
  M 250.29 175.49
  C 251.07 193.47 231.12 196.44 217.84 196.94
  Q 205.70 197.40 196.06 196.63
  C 186.00 195.82 173.27 193.24 169.74 182.10"
/>
<path stroke="#818282" stroke-opacity="0.996" vector-effect="non-scaling-stroke" d="
  M 220.58 179.36
  Q 220.69 175.59 216.37 175.09
  Q 192.14 172.26 183.75 170.77
  Q 177.26 169.61 172.27 163.93"
/>
<path stroke="#818282" stroke-opacity="0.996" vector-effect="non-scaling-stroke" d="
  M 173.26 146.50
  Q 173.56 146.40 173.79 145.89"
/>
<path stroke="#012b4d" stroke-opacity="0.996" vector-effect="non-scaling-stroke" d="
  M 209.53 136.06
  Q 207.75 136.70 207.97 137.46"
/>
<path stroke="#80a9cb" vector-effect="non-scaling-stroke" d="
  M 207.97 137.46
  Q 199.09 137.19 188.90 138.89
  Q 179.92 140.38 173.79 145.89"
/>
<path stroke="#012b4d" stroke-opacity="0.996" vector-effect="non-scaling-stroke" d="
  M 173.79 145.89
  Q 173.62 145.54 173.03 145.72
  Q 171.91 146.05 170.76 146.45"
/>
<path stroke="#818282" stroke-opacity="0.996" vector-effect="non-scaling-stroke" d="
  M 209.78 137.45
  L 207.97 137.46"
/>
<path stroke="#80a9cb" vector-effect="non-scaling-stroke" d="
  M 288.00 139.23
  L 243.56 139.22
  A 0.55 0.54 0.0 0 0 243.01 139.76
  L 243.04 144.96
  Q 243.04 145.71 242.43 145.27
  Q 236.09 140.78 228.96 139.36"
/>
<path stroke="#0178bc" vector-effect="non-scaling-stroke" d="
  M 212.75 103.74
  Q 208.00 104.75 203.01 104.47
  Q 202.28 104.43 201.57 104.20
  Q 200.78 103.95 200.11 104.46
  Q 199.70 104.77 199.20 104.70
  L 197.24 104.45"
/>
<path stroke="#0178bc" vector-effect="non-scaling-stroke" d="
  M 233.99 108.42
  Q 233.64 109.58 232.83 110.06
  Q 232.36 110.33 231.85 110.16
  Q 230.52 109.69 229.10 109.81
  Q 227.84 109.91 226.42 109.48
  Q 224.18 108.80 221.79 108.31"
/>
<path stroke="#017ec2" vector-effect="non-scaling-stroke" d="
  M 167.43 100.59
  Q 160.21 100.74 153.56 98.87
  A 0.05 0.05 0.0 0 0 153.50 98.93
  Q 153.55 99.10 153.49 99.22
  Q 153.28 99.65 152.84 99.48
  L 152.07 99.18
  Q 151.58 98.98 151.83 98.52
  Q 151.94 98.31 151.80 98.10
  Q 151.59 97.79 151.34 98.07
  Q 151.08 98.35 150.60 98.26"
/>
<path stroke="#017ec2" vector-effect="non-scaling-stroke" d="
  M 319.53 104.45
  Q 319.08 104.45 319.10 105.08
  Q 319.12 105.62 318.73 105.25
  Q 318.69 105.21 318.63 105.20
  Q 318.04 105.06 318.34 105.59
  Q 318.38 105.66 318.33 105.71
  Q 318.16 105.91 317.91 105.98
  Q 312.31 107.33 307.35 106.09"
/>
<path stroke="#818282" stroke-opacity="0.996" vector-effect="non-scaling-stroke" d="
  M 341.87 171.21
  L 341.79 177.49
  Q 341.77 178.97 340.29 178.97
  L 310.63 178.95
  A 0.94 0.93 73.0 0 1 309.85 178.53
  Q 309.51 178.00 309.46 177.26"
/>
<path stroke="#017ec2" vector-effect="non-scaling-stroke" d="
  M 410.76 99.35
  Q 406.51 100.91 401.00 100.07
  Q 400.41 99.99 399.85 100.41
  A 1.34 1.32 -62.6 0 1 399.02 100.68
  L 385.35 100.48"
/>
<path stroke="#0178bc" vector-effect="non-scaling-stroke" d="
  M 204.92 85.78
  C 203.87 85.60 202.51 85.66 201.44 85.76
  Q 200.39 85.86 201.43 86.02
  Q 203.25 86.31 204.92 86.05
  Q 205.75 85.92 204.92 85.78"
/>
</g>
<path fill="#009ee1" d="
  M 429.13 106.92
  Q 422.62 108.80 415.84 105.96
  Q 410.62 90.42 405.27 74.80
  Q 404.10 71.37 402.80 69.97
  C 399.37 66.28 393.36 68.27 391.79 73.01
  Q 388.95 81.60 379.69 108.59
  L 366.99 107.90
  Q 373.36 89.11 379.90 70.02
  Q 383.14 60.56 392.69 57.91
  C 400.24 55.81 409.23 58.17 413.90 64.55
  Q 415.67 66.96 417.81 73.30
  Q 423.43 89.95 429.13 106.92
  Z"
/>
<path fill="#009ee1" d="
  M 167.43 100.59
  Q 160.21 100.74 153.56 98.87
  A 0.05 0.05 0.0 0 0 153.50 98.93
  Q 153.55 99.10 153.49 99.22
  Q 153.28 99.65 152.84 99.48
  L 152.07 99.18
  Q 151.58 98.98 151.83 98.52
  Q 151.94 98.31 151.80 98.10
  Q 151.59 97.79 151.34 98.07
  Q 151.08 98.35 150.60 98.26
  C 147.02 88.73 148.18 78.83 154.08 70.50
  Q 162.65 58.39 179.29 58.47
  Q 198.15 58.56 215.45 58.48
  Q 216.14 58.48 216.14 59.18
  L 216.17 70.52
  Q 216.17 71.13 215.56 71.13
  Q 196.42 71.15 176.51 71.22
  Q 169.94 71.24 165.07 76.79
  Q 160.21 82.34 161.03 89.51
  Q 161.73 95.56 167.43 100.59
  Z"
/>
<path fill="#009ee1" d="
  M 233.99 108.42
  Q 233.64 109.58 232.83 110.06
  Q 232.36 110.33 231.85 110.16
  Q 230.52 109.69 229.10 109.81
  Q 227.84 109.91 226.42 109.48
  Q 224.18 108.80 221.79 108.31
  Q 221.68 97.72 221.77 87.28
  Q 221.86 78.26 223.33 74.45
  C 227.31 64.10 236.64 58.44 247.62 58.48
  Q 268.37 58.55 286.97 58.49
  Q 287.73 58.49 287.74 59.26
  L 287.76 70.31
  Q 287.76 71.03 287.05 71.03
  Q 267.61 71.04 247.95 71.05
  Q 238.51 71.06 235.46 77.54
  Q 233.99 80.66 234.02 88.65
  Q 234.07 98.57 233.99 108.42
  Z"
/>
<path fill="#009ee1" d="
  M 304.48 109.45
  L 295.45 108.82
  Q 294.98 108.79 295.15 108.36
  Q 295.23 108.16 294.97 108.05
  Q 294.64 107.93 294.29 108.03
  Q 292.47 108.57 292.27 108.09
  Q 292.15 97.28 292.22 86.67
  Q 292.27 78.94 293.43 75.33
  C 296.67 65.27 306.17 58.54 316.75 58.52
  Q 336.09 58.48 356.21 58.53
  A 0.76 0.76 0.0 0 1 356.97 59.29
  L 357.00 70.49
  Q 357.00 71.02 356.47 71.02
  Q 340.53 71.09 320.99 70.96
  C 314.12 70.92 308.19 71.94 305.52 78.35
  Q 304.51 80.76 304.51 85.61
  Q 304.49 97.32 304.48 109.45
  Z"
/>
<path fill="#009ee1" d="
  M 410.76 99.35
  Q 406.51 100.91 401.00 100.07
  Q 400.41 99.99 399.85 100.41
  A 1.34 1.32 -62.6 0 1 399.02 100.68
  L 385.35 100.48
  L 394.58 73.28
  A 3.33 3.32 -7.7 0 1 395.88 71.58
  C 399.46 69.16 401.47 71.79 402.58 75.08
  Q 406.63 87.06 410.76 99.35
  Z"
/>
<path fill="#009ee1" d="
  M 212.75 103.74
  Q 208.00 104.75 203.01 104.47
  Q 202.28 104.43 201.57 104.20
  Q 200.78 103.95 200.11 104.46
  Q 199.70 104.77 199.20 104.70
  L 197.24 104.45
  C 192.05 100.30 186.04 101.20 179.88 101.19
  Q 174.36 101.19 171.74 99.92
  C 161.18 94.80 160.87 79.56 172.04 74.76
  Q 174.64 73.64 178.76 73.65
  Q 197.32 73.74 215.58 73.67
  Q 216.18 73.67 216.17 74.27
  L 216.07 85.53
  Q 216.07 86.12 215.47 86.12
  L 177.45 85.99
  Q 176.22 85.98 175.98 87.19
  Q 175.92 87.50 176.01 87.81
  Q 176.22 88.61 177.06 88.65
  Q 181.50 88.82 186.24 88.79
  Q 203.82 88.69 212.75 103.74
  Z
  M 204.92 85.78
  C 203.87 85.60 202.51 85.66 201.44 85.76
  Q 200.39 85.86 201.43 86.02
  Q 203.25 86.31 204.92 86.05
  Q 205.75 85.92 204.92 85.78
  Z"
/>
<path fill="#009ee1" d="
  M 249.27 87.80
  A 0.74 0.73 -86.0 0 0 250.00 88.65
  L 278.00 88.60
  A 0.91 0.90 -0.0 0 1 278.91 89.50
  L 279.00 100.44
  Q 279.01 101.13 278.31 101.13
  L 237.95 101.14
  A 1.13 1.13 0.0 0 1 236.82 99.98
  Q 236.97 92.63 236.88 84.68
  C 236.80 78.36 240.09 73.61 246.68 73.60
  Q 266.45 73.55 286.94 73.53
  A 0.81 0.81 0.0 0 1 287.75 74.34
  L 287.71 85.33
  A 0.84 0.84 0.0 0 1 286.85 86.17
  Q 271.05 85.90 251.99 86.10
  A 3.61 3.55 -63.4 0 0 249.86 86.83
  Q 249.37 87.20 249.27 87.80
  Z"
/>
<path fill="#009ee1" d="
  M 319.53 104.45
  Q 319.08 104.45 319.10 105.08
  Q 319.12 105.62 318.73 105.25
  Q 318.69 105.21 318.63 105.20
  Q 318.04 105.06 318.34 105.59
  Q 318.38 105.66 318.33 105.71
  Q 318.16 105.91 317.91 105.98
  Q 312.31 107.33 307.35 106.09
  Q 307.37 95.89 307.35 86.34
  Q 307.33 80.67 308.37 78.73
  C 310.90 74.00 314.69 73.58 319.67 73.56
  Q 338.59 73.51 356.07 73.57
  A 0.92 0.91 90.0 0 1 356.98 74.49
  L 356.99 85.53
  Q 356.99 86.06 356.46 86.06
  L 322.53 86.02
  Q 319.62 86.01 319.60 88.93
  L 319.53 104.45
  Z"
/>
<path fill="#015297" d="
  M 201.44 85.76
  C 202.51 85.66 203.87 85.60 204.92 85.78
  Q 205.75 85.92 204.92 86.05
  Q 203.25 86.31 201.43 86.02
  Q 200.39 85.86 201.44 85.76
  Z"
/>
<path fill="#0285c8" d="
  M 356.90 110.45
  Q 356.50 112.18 354.95 113.16
  Q 354.53 113.43 354.03 113.36
  Q 350.51 112.87 347.31 111.28
  A 1.25 1.21 49.3 0 0 346.43 111.20
  L 344.56 111.70
  L 344.56 101.62
  A 0.58 0.58 0.0 0 0 343.98 101.04
  L 340.51 101.03
  L 322.36 101.01
  L 322.45 89.18
  Q 322.45 88.60 323.04 88.60
  L 355.99 88.56
  Q 356.93 88.56 356.93 89.50
  L 356.90 110.45
  Z"
/>
<path fill="#015da3" d="
  M 167.43 100.59
  Q 171.97 103.70 176.50 103.71
  C 181.62 103.72 188.65 103.04 192.84 104.96
  C 203.92 110.05 203.86 125.85 192.29 130.41
  Q 189.55 131.49 185.99 131.47
  Q 167.82 131.37 149.26 131.41
  Q 148.62 131.41 148.62 130.77
  L 148.62 119.47
  Q 148.62 118.82 149.28 118.82
  L 187.01 118.95
  Q 188.35 118.96 188.68 117.66
  Q 188.73 117.48 188.69 117.29
  Q 188.52 116.37 187.59 116.35
  C 181.13 116.16 174.74 116.97 168.55 114.94
  Q 156.16 110.87 150.60 98.26
  Q 151.08 98.35 151.34 98.07
  Q 151.59 97.79 151.80 98.10
  Q 151.94 98.31 151.83 98.52
  Q 151.58 98.98 152.07 99.18
  L 152.84 99.48
  Q 153.28 99.65 153.49 99.22
  Q 153.55 99.10 153.50 98.93
  A 0.05 0.05 0.0 0 1 153.56 98.87
  Q 160.21 100.74 167.43 100.59
  Z"
/>
<path fill="#015da3" d="
  M 410.76 99.35
  L 421.32 130.71
  A 0.55 0.54 -9.5 0 1 420.80 131.43
  L 393.42 131.47
  Q 392.87 131.47 392.88 130.92
  L 393.04 122.50
  Q 393.08 120.35 392.40 122.39
  L 384.45 145.87
  A 0.83 0.82 -80.6 0 1 383.67 146.43
  L 370.35 146.47
  A 0.41 0.40 -80.6 0 1 369.97 145.93
  L 385.35 100.48
  L 399.02 100.68
  A 1.34 1.32 -62.6 0 0 399.85 100.41
  Q 400.41 99.99 401.00 100.07
  Q 406.51 100.91 410.76 99.35
  Z
  M 397.92 105.74
  C 396.83 109.60 395.70 113.49 394.13 116.94
  Q 393.86 117.53 394.52 117.53
  L 401.77 117.53
  Q 402.43 117.52 402.22 116.90
  L 398.47 105.73
  Q 398.17 104.84 397.92 105.74
  Z"
/>
<path fill="#020303" fill-opacity="0.988" d="
  M 322.36 101.01
  L 340.51 101.03
  L 322.36 101.01
  Z"
/>
<path fill="#015297" d="
  M 212.75 103.74
  C 218.04 114.16 217.51 126.95 209.53 136.06
  Q 207.75 136.70 207.97 137.46
  Q 199.09 137.19 188.90 138.89
  Q 179.92 140.38 173.79 145.89
  Q 173.62 145.54 173.03 145.72
  Q 171.91 146.05 170.76 146.45
  L 149.11 146.50
  A 0.48 0.48 0.0 0 1 148.63 146.03
  L 148.60 134.50
  Q 148.60 133.83 149.28 133.82
  Q 167.26 133.77 186.66 133.84
  C 202.91 133.91 210.21 114.76 197.24 104.45
  L 199.20 104.70
  Q 199.70 104.77 200.11 104.46
  Q 200.78 103.95 201.57 104.20
  Q 202.28 104.43 203.01 104.47
  Q 208.00 104.75 212.75 103.74
  Z"
/>
<path fill="#015da3" d="
  M 249.79 116.29
  Q 248.77 116.29 249.32 117.15
  L 249.76 117.84
  A 2.48 2.46 73.2 0 0 251.85 118.97
  L 286.94 118.85
  A 0.59 0.59 0.0 0 1 287.53 119.44
  L 287.56 130.74
  A 0.52 0.52 0.0 0 1 287.04 131.26
  Q 269.12 131.22 246.86 131.26
  C 240.75 131.27 236.85 126.87 236.89 120.92
  Q 236.95 112.38 236.95 104.38
  Q 236.94 103.75 237.57 103.75
  L 278.47 103.75
  A 0.47 0.47 0.0 0 1 278.94 104.22
  L 278.89 115.33
  Q 278.88 116.30 277.92 116.30
  L 249.79 116.29
  Z"
/>
<path fill="#015da3" d="
  M 307.35 106.09
  Q 312.31 107.33 317.91 105.98
  Q 318.16 105.91 318.33 105.71
  Q 318.38 105.66 318.34 105.59
  Q 318.04 105.06 318.63 105.20
  Q 318.69 105.21 318.73 105.25
  Q 319.12 105.62 319.10 105.08
  Q 319.08 104.45 319.53 104.45
  L 319.59 116.06
  A 2.71 2.70 0.7 0 0 322.23 118.75
  L 328.73 118.90
  A 0.88 0.87 0.3 0 0 329.63 118.02
  L 329.61 117.04
  Q 329.60 116.22 328.78 116.23
  L 323.02 116.29
  Q 322.25 116.30 322.25 115.52
  L 322.29 104.20
  A 0.51 0.50 -0.0 0 1 322.80 103.70
  L 341.50 103.71
  A 0.29 0.29 0.0 0 1 341.79 104.00
  L 341.81 130.79
  A 0.65 0.64 0.4 0 1 341.15 131.43
  Q 330.89 131.30 319.52 131.44
  C 314.58 131.51 310.23 130.33 308.20 125.76
  Q 307.33 123.80 307.32 119.90
  Q 307.32 112.66 307.35 106.09
  Z"
/>
<path fill="#015297" d="
  M 415.84 105.96
  Q 422.62 108.80 429.13 106.92
  L 442.24 145.80
  Q 442.40 146.30 441.88 146.30
  L 415.06 146.30
  A 1.93 1.92 13.2 0 0 413.34 147.36
  L 404.62 164.78
  L 416.68 139.70
  A 0.40 0.39 12.4 0 0 416.32 139.14
  L 392.72 139.24
  L 393.04 134.45
  Q 393.08 133.99 393.54 133.99
  L 424.94 133.96
  Q 425.34 133.96 425.22 133.58
  L 415.84 105.96
  Z"
/>
<path fill="#015297" d="
  M 379.69 108.59
  L 367.04 145.64
  Q 366.88 146.11 366.41 146.25
  L 364.93 146.67
  L 361.99 139.71
  Q 361.79 139.23 361.27 139.23
  L 335.24 139.22
  Q 334.78 139.22 334.97 139.64
  L 336.51 143.00
  Q 336.11 144.19 336.55 145.17
  A 0.75 0.74 78.4 0 1 335.86 146.22
  L 313.84 145.93
  L 313.67 139.82
  Q 313.65 139.33 313.15 139.32
  L 299.14 139.22
  Q 297.78 137.37 296.56 135.69
  Q 292.30 129.80 292.22 122.50
  Q 292.15 115.13 292.27 108.09
  Q 292.47 108.57 294.29 108.03
  Q 294.64 107.93 294.97 108.05
  Q 295.23 108.16 295.15 108.36
  Q 294.98 108.79 295.45 108.82
  L 304.48 109.45
  Q 304.51 114.06 304.51 118.98
  Q 304.52 124.82 305.76 127.15
  C 308.64 132.58 313.33 134.14 319.33 134.06
  Q 332.43 133.88 344.08 134.02
  Q 344.59 134.03 344.59 133.52
  L 344.56 111.70
  L 346.43 111.20
  A 1.25 1.21 49.3 0 1 347.31 111.28
  Q 350.51 112.87 354.03 113.36
  Q 354.53 113.43 354.95 113.16
  Q 356.50 112.18 356.90 110.45
  L 356.82 135.80
  Q 356.81 137.96 357.50 135.92
  L 366.99 107.90
  L 379.69 108.59
  Z"
/>
<path fill="#015297" d="
  M 221.79 108.31
  Q 224.18 108.80 226.42 109.48
  Q 227.84 109.91 229.10 109.81
  Q 230.52 109.69 231.85 110.16
  Q 232.36 110.33 232.83 110.06
  Q 233.64 109.58 233.99 108.42
  Q 234.03 113.81 234.08 119.17
  Q 234.13 125.07 235.43 127.46
  C 237.84 131.91 242.18 134.03 247.12 134.02
  Q 268.85 133.95 287.08 134.00
  Q 287.52 134.00 287.48 134.44
  Q 287.26 137.19 288.00 139.23
  L 243.56 139.22
  A 0.55 0.54 0.0 0 0 243.01 139.76
  L 243.04 144.96
  Q 243.04 145.71 242.43 145.27
  Q 236.09 140.78 228.96 139.36
  Q 222.22 132.14 221.80 123.50
  Q 221.60 119.46 221.79 108.31
  Z"
/>
<path fill="#020303" fill-opacity="0.988" d="
  M 209.53 136.06
  L 209.11 136.69
  Q 208.84 137.11 209.31 137.28
  L 209.78 137.45
  L 207.97 137.46
  Q 207.75 136.70 209.53 136.06
  Z"
/>
<path fill="#ffffff" d="
  M 207.97 137.46
  L 209.78 137.45
  Q 219.16 137.34 228.96 139.36
  Q 236.09 140.78 242.43 145.27
  Q 243.04 145.71 243.04 144.96
  L 243.01 139.76
  A 0.55 0.54 -0.0 0 1 243.56 139.22
  L 288.00 139.23
  L 299.14 139.22
  L 313.15 139.32
  Q 313.65 139.33 313.67 139.82
  L 313.84 145.93
  L 313.97 146.52
  L 314.06 152.54
  Q 314.17 153.36 313.13 153.39
  Q 304.27 153.65 291.24 153.30
  Q 291.09 153.30 291.02 153.43
  Q 290.93 153.60 291.03 153.67
  L 290.86 194.04
  Q 291.09 195.38 289.50 195.42
  Q 283.87 195.57 266.83 195.41
  Q 266.29 195.40 266.01 194.95
  L 265.76 194.53
  L 265.74 154.27
  Q 266.53 155.56 265.60 153.74
  Q 265.35 153.25 264.81 153.28
  Q 256.56 153.73 248.14 153.33
  Q 247.22 153.28 247.23 154.21
  L 247.24 155.22
  Q 247.25 155.93 246.53 155.93
  L 219.55 155.76
  A 1.18 1.16 79.4 0 1 218.46 155.00
  Q 217.05 151.37 212.61 150.67
  C 209.91 150.25 195.94 148.77 196.84 154.49
  C 197.26 156.47 199.09 156.88 200.85 157.09
  Q 218.01 159.17 232.22 161.19
  C 240.40 162.35 249.36 166.36 250.29 175.49
  C 251.07 193.47 231.12 196.44 217.84 196.94
  Q 205.70 197.40 196.06 196.63
  C 186.00 195.82 173.27 193.24 169.74 182.10
  Q 169.02 180.10 169.45 178.55
  Q 169.57 178.12 170.03 178.12
  L 198.76 178.14
  Q 199.45 178.14 199.61 178.81
  Q 200.34 181.88 203.01 182.52
  C 207.17 183.50 219.23 184.95 220.58 179.36
  Q 220.69 175.59 216.37 175.09
  Q 192.14 172.26 183.75 170.77
  Q 177.26 169.61 172.27 163.93
  Q 167.63 154.37 173.26 146.50
  Q 173.56 146.40 173.79 145.89
  Q 179.92 140.38 188.90 138.89
  Q 199.09 137.19 207.97 137.46
  Z"
/>
<path fill="#ffffff" d="
  M 364.93 146.67
  L 375.70 174.17
  Q 375.97 174.84 376.22 174.17
  Q 382.42 157.99 388.46 142.03
  Q 388.66 141.51 388.82 140.95
  Q 389.51 138.54 392.72 139.24
  L 416.32 139.14
  A 0.40 0.39 12.4 0 1 416.68 139.70
  L 404.62 164.78
  Q 404.49 164.77 404.36 164.76
  Q 404.27 164.76 404.23 164.84
  Q 396.96 179.41 389.55 194.15
  Q 388.91 195.44 387.46 195.43
  Q 376.75 195.34 364.22 195.44
  C 362.61 195.45 361.85 194.01 361.36 192.61
  L 341.34 152.79
  L 336.51 143.00
  L 334.97 139.64
  Q 334.78 139.22 335.24 139.22
  L 361.27 139.23
  Q 361.79 139.23 361.99 139.71
  L 364.93 146.67
  Z"
/>
<path fill="#020303" fill-opacity="0.988" d="
  M 336.51 143.00
  L 341.34 152.79
  L 338.28 147.56
  A 2.21 2.20 74.7 0 0 336.38 146.47
  L 313.97 146.52
  L 313.84 145.93
  L 335.86 146.22
  A 0.75 0.74 78.4 0 0 336.55 145.17
  Q 336.11 144.19 336.51 143.00
  Z"
/>
<path fill="#020303" fill-opacity="0.988" d="
  M 173.79 145.89
  Q 173.56 146.40 173.26 146.50
  L 170.76 146.45
  Q 171.91 146.05 173.03 145.72
  Q 173.62 145.54 173.79 145.89
  Z"
/>
<path fill="#020303" fill-opacity="0.988" d="
  M 265.74 154.27
  L 248.70 154.07
  A 1.01 1.01 0.0 0 0 247.70 154.86
  Q 247.36 156.47 246.25 156.48
  Q 233.41 156.50 219.89 156.59
  Q 218.60 156.59 218.11 155.41
  Q 216.83 152.37 213.48 151.71
  Q 208.47 150.72 202.03 151.22
  Q 197.95 151.54 196.84 154.49
  C 195.94 148.77 209.91 150.25 212.61 150.67
  Q 217.05 151.37 218.46 155.00
  A 1.18 1.16 79.4 0 0 219.55 155.76
  L 246.53 155.93
  Q 247.25 155.93 247.24 155.22
  L 247.23 154.21
  Q 247.22 153.28 248.14 153.33
  Q 256.56 153.73 264.81 153.28
  Q 265.35 153.25 265.60 153.74
  Q 266.53 155.56 265.74 154.27
  Z"
/>
<path fill="#020303" fill-opacity="0.988" d="
  M 314.06 152.54
  Q 314.31 153.16 314.08 153.51
  A 1.14 1.13 -72.7 0 1 313.14 154.01
  Q 302.19 154.02 291.38 154.00
  Q 291.25 153.99 291.18 153.89
  Q 291.10 153.78 291.03 153.67
  Q 290.93 153.60 291.02 153.43
  Q 291.09 153.30 291.24 153.30
  Q 304.27 153.65 313.13 153.39
  Q 314.17 153.36 314.06 152.54
  Z"
/>
<path fill="#020303" fill-opacity="0.988" d="
  M 172.27 163.93
  Q 177.26 169.61 183.75 170.77
  Q 192.14 172.26 216.37 175.09
  Q 220.69 175.59 220.58 179.36
  Q 219.41 176.61 217.88 176.34
  C 207.21 174.50 196.47 173.33 185.75 171.86
  Q 176.55 170.60 172.27 163.93
  Z"
/>
<path fill="#020303" fill-opacity="0.988" d="
  M 404.62 164.78
  L 389.51 195.32
  A 1.37 1.36 12.7 0 1 388.30 196.08
  Q 376.29 196.27 363.98 196.18
  Q 362.91 196.17 362.20 195.31
  Q 361.34 194.28 361.36 192.61
  C 361.85 194.01 362.61 195.45 364.22 195.44
  Q 376.75 195.34 387.46 195.43
  Q 388.91 195.44 389.55 194.15
  Q 396.96 179.41 404.23 164.84
  Q 404.27 164.76 404.36 164.76
  Q 404.49 164.77 404.62 164.78
  Z"
/>
<path fill="#ffffff" d="
  M 341.87 171.21
  L 341.79 177.49
  Q 341.77 178.97 340.29 178.97
  L 310.63 178.95
  A 0.94 0.93 73.0 0 1 309.85 178.53
  Q 309.51 178.00 309.46 177.26
  L 309.49 165.72
  A 0.50 0.50 0.0 0 1 309.99 165.22
  L 341.00 165.22
  Q 341.72 165.22 341.74 165.93
  L 341.87 171.21
  Z"
/>
<path fill="#020303" fill-opacity="0.988" d="
  M 341.87 171.21
  L 341.95 178.87
  A 0.83 0.83 0.0 0 1 341.12 179.71
  Q 326.17 179.85 310.45 179.75
  Q 309.87 179.75 309.51 179.31
  Q 308.97 178.67 309.46 177.26
  Q 309.51 178.00 309.85 178.53
  A 0.94 0.93 73.0 0 0 310.63 178.95
  L 340.29 178.97
  Q 341.77 178.97 341.79 177.49
  L 341.87 171.21
  Z"
/>
<path fill="#020303" fill-opacity="0.988" d="
  M 250.29 175.49
  C 253.05 198.58 218.36 198.30 203.90 197.84
  C 192.83 197.49 172.47 196.27 169.74 182.10
  C 173.27 193.24 186.00 195.82 196.06 196.63
  Q 205.70 197.40 217.84 196.94
  C 231.12 196.44 251.07 193.47 250.29 175.49
  Z"
/>
<path fill="#020303" fill-opacity="0.988" d="
  M 290.86 194.04
  Q 291.26 194.90 290.96 195.55
  Q 290.76 195.98 290.28 195.99
  Q 278.58 196.24 266.53 195.98
  Q 266.11 195.97 265.89 195.62
  Q 265.64 195.21 265.76 194.53
  L 266.01 194.95
  Q 266.29 195.40 266.83 195.41
  Q 283.87 195.57 289.50 195.42
  Q 291.09 195.38 290.86 194.04
  Z"
/>
</svg>
