<?xml version="1.0" encoding="UTF-8" standalone="no"?>
<!DOCTYPE svg PUBLIC "-//W3C//DTD SVG 1.1//EN" "http://www.w3.org/Graphics/SVG/1.1/DTD/svg11.dtd">
<svg xmlns="http://www.w3.org/2000/svg" version="1.1" viewBox="0.00 0.00 590.00 255.00">
<path fill="#ff0505" d="
  M 159.14 176.54
  A 1.20 1.20 0.0 0 1 157.94 177.74
  L 136.49 177.74
  A 26.26 25.89 90.0 0 1 110.60 151.48
  L 110.60 105.42
  A 26.26 25.89 -90.0 0 1 136.49 79.16
  L 157.94 79.16
  A 1.20 1.20 0.0 0 1 159.14 80.36
  L 159.14 176.54
  Z
  M 150.54 169.50
  L 150.40 88.16
  A 0.29 0.29 0.0 0 0 150.11 87.87
  L 137.31 87.90
  A 17.86 17.85 89.9 0 0 119.49 105.79
  L 119.57 151.99
  A 17.86 17.85 89.9 0 0 137.45 169.82
  L 150.25 169.79
  A 0.29 0.29 0.0 0 0 150.54 169.50
  Z"
/>
<path fill="#ff0505" d="
  M 167.86 80.99
  A 1.88 1.88 0.0 0 1 169.74 79.11
  L 184.46 79.06
  A 26.08 25.72 89.8 0 1 210.27 105.05
  L 210.43 151.65
  A 26.08 25.72 89.8 0 1 184.80 177.82
  L 170.08 177.87
  A 1.88 1.88 0.0 0 1 168.20 175.99
  L 167.86 80.99
  Z
  M 197.67 133.65
  A 9.51 9.51 0.0 0 0 188.16 124.14
  A 9.51 9.51 0.0 0 0 178.65 133.65
  A 9.51 9.51 0.0 0 0 188.16 143.16
  A 9.51 9.51 0.0 0 0 197.67 133.65
  Z"
/>
<path fill="#ffffff" d="
  M 468.4670 116.7119
  A 11.59 11.32 86.8 0 1 456.5177 105.7719
  A 11.59 11.32 86.8 0 1 467.1730 93.5681
  A 11.59 11.32 86.8 0 1 479.1223 104.5081
  A 11.59 11.32 86.8 0 1 468.4670 116.7119
  Z
  M 474.12 105.10
  A 6.30 6.30 0.0 0 0 467.82 98.80
  A 6.30 6.30 0.0 0 0 461.52 105.10
  A 6.30 6.30 0.0 0 0 467.82 111.40
  A 6.30 6.30 0.0 0 0 474.12 105.10
  Z"
/>
<path fill="#ffffff" d="
  M 401.15 106.71
  L 401.14 95.56
  Q 401.14 94.25 402.44 94.25
  L 404.23 94.24
  Q 405.97 94.23 405.98 95.98
  L 406.01 115.16
  Q 406.01 115.71 405.48 115.86
  C 404.06 116.27 401.73 116.56 400.70 115.15
  Q 396.30 109.19 392.05 103.34
  Q 391.54 102.64 391.53 103.50
  L 391.35 114.79
  A 1.26 1.25 87.7 0 1 390.21 116.03
  L 387.40 116.30
  Q 386.41 116.39 386.43 115.40
  L 386.85 94.94
  Q 386.86 94.40 387.38 94.27
  Q 390.56 93.48 392.35 95.96
  Q 396.61 101.88 400.68 106.88
  Q 401.15 107.47 401.15 106.71
  Z"
/>
<path fill="#ffffff" d="
  M 244.76 106.55
  L 244.76 95.55
  Q 244.76 94.35 245.95 94.37
  L 248.42 94.42
  A 1.25 1.24 0.7 0 1 249.64 95.66
  L 249.59 115.05
  Q 249.58 115.67 249.00 115.89
  Q 245.83 117.10 243.93 114.48
  Q 239.78 108.73 235.57 102.78
  Q 235.13 102.17 235.12 102.92
  L 234.98 114.38
  Q 234.96 115.96 233.38 116.06
  L 232.21 116.14
  Q 230.13 116.27 230.13 114.19
  L 230.13 96.04
  A 1.82 1.82 0.0 0 1 231.70 94.24
  C 233.77 93.94 235.53 94.84 236.67 96.52
  Q 240.34 101.90 244.29 106.72
  Q 244.76 107.29 244.76 106.55
  Z"
/>
<path fill="#ffffff" d="
  M 264.84 115.65
  L 264.92 95.10
  A 0.63 0.63 0.0 0 1 265.55 94.47
  L 269.38 94.46
  A 0.63 0.63 0.0 0 1 270.01 95.09
  L 270.01 115.23
  A 0.63 0.63 0.0 0 1 269.45 115.86
  L 265.54 116.28
  A 0.63 0.63 0.0 0 1 264.84 115.65
  Z"
/>
<path fill="#ffffff" d="
  M 300.20 106.68
  Q 299.94 101.23 300.22 95.88
  Q 300.29 94.53 301.63 94.38
  Q 302.85 94.24 303.73 94.13
  Q 305.01 93.99 305.01 95.27
  L 305.01 115.02
  Q 305.01 115.57 304.48 115.71
  Q 302.55 116.21 300.80 115.78
  Q 300.24 115.64 299.89 115.17
  L 290.82 102.78
  Q 290.31 102.08 290.29 102.94
  L 290.12 114.34
  Q 290.09 116.14 288.30 115.95
  Q 287.89 115.91 287.30 115.84
  Q 285.44 115.65 285.43 113.77
  L 285.36 95.31
  A 1.05 1.05 0.0 0 1 286.26 94.26
  Q 288.40 93.95 290.19 94.65
  A 1.23 1.21 82.4 0 1 290.73 95.07
  L 299.65 106.88
  Q 300.25 107.67 300.20 106.68
  Z"
/>
<path fill="#ffffff" d="
  M 422.85 94.58
  A 0.40 0.40 0.0 0 1 423.26 94.18
  L 431.25 94.25
  A 12.07 10.83 0.5 0 1 443.22 105.19
  L 443.22 105.49
  A 12.07 10.83 0.5 0 1 431.05 116.21
  L 423.06 116.14
  A 0.40 0.40 0.0 0 1 422.67 115.74
  L 422.85 94.58
  Z
  M 427.87 100.27
  L 427.87 109.95
  A 0.97 0.97 0.0 0 0 428.84 110.92
  L 432.01 110.92
  A 6.32 5.67 -0.0 0 0 438.33 105.25
  L 438.33 104.97
  A 6.32 5.67 0.0 0 0 432.01 99.30
  L 428.84 99.30
  A 0.97 0.97 0.0 0 0 427.87 100.27
  Z"
/>
<path fill="#ffffff" d="
  M 325.50 99.46
  L 319.77 99.63
  Q 319.14 99.65 319.18 99.02
  L 319.43 95.36
  Q 319.49 94.47 320.39 94.47
  L 336.51 94.50
  Q 337.52 94.51 337.52 95.51
  L 337.52 98.46
  Q 337.52 99.43 336.56 99.53
  Q 334.48 99.76 332.35 99.42
  A 0.91 0.90 -85.1 0 0 331.30 100.31
  L 331.24 114.73
  Q 331.23 115.73 330.26 115.96
  Q 328.46 116.38 326.52 116.18
  Q 325.86 116.11 325.87 115.44
  L 326.05 100.00
  Q 326.06 99.45 325.50 99.46
  Z"
/>
<path fill="#ffffff" d="
  M 358.16 107.08
  Q 357.66 107.03 357.63 107.53
  L 357.46 110.53
  Q 357.42 111.12 358.00 111.25
  Q 358.83 111.44 359.64 111.42
  Q 364.00 111.35 368.28 111.45
  Q 369.26 111.48 369.26 112.46
  L 369.24 114.82
  Q 369.24 116.12 367.94 116.13
  L 352.75 116.29
  Q 352.20 116.30 352.20 115.74
  L 352.36 95.55
  Q 352.37 94.47 353.45 94.47
  L 368.54 94.49
  Q 369.60 94.49 369.52 95.55
  L 369.39 97.38
  A 1.70 1.69 -1.7 0 1 367.92 98.93
  Q 363.66 99.49 358.74 99.21
  Q 357.51 99.14 357.37 100.36
  L 357.30 100.92
  Q 357.09 102.73 358.92 102.75
  L 367.94 102.86
  Q 368.76 102.87 368.76 103.69
  L 368.74 106.27
  A 0.75 0.74 -3.0 0 1 368.07 107.01
  Q 363.27 107.54 358.16 107.08
  Z"
/>
<circle fill="#ff0505" cx="135.88" cy="109.08" r="9.67"/>
<path fill="#ffffff" d="
  M 394.18 149.37
  Q 394.04 149.02 394.01 148.63
  Q 393.33 138.04 400.75 130.82
  C 410.04 121.78 425.60 123.27 433.12 133.68
  Q 433.67 134.43 432.98 135.06
  L 427.82 139.79
  A 1.15 1.14 -38.2 0 1 426.10 139.59
  Q 423.43 135.60 419.68 134.74
  C 412.00 132.98 404.39 137.39 403.70 145.54
  C 403.02 153.52 411.36 160.35 419.06 157.95
  Q 423.40 156.60 426.18 153.19
  Q 427.00 152.18 427.97 153.04
  L 432.60 157.14
  Q 433.72 158.13 432.80 159.31
  C 425.26 168.90 413.22 170.56 403.38 163.59
  Q 396.31 158.57 394.34 149.89
  Q 394.28 149.62 394.18 149.37
  Z"
/>
<path fill="#ffffff" d="
  M 244.05 149.45
  Q 237.76 148.39 233.30 145.56
  C 229.33 143.04 227.03 136.94 230.19 132.75
  C 237.43 123.16 251.54 124.88 261.47 128.29
  Q 262.48 128.64 262.10 129.63
  L 260.08 134.97
  Q 259.63 136.16 258.41 135.78
  C 255.29 134.80 236.97 130.63 237.99 137.81
  C 238.21 139.40 240.04 140.08 241.40 140.35
  Q 251.87 142.43 259.27 145.18
  C 264.95 147.28 267.16 153.39 264.91 158.77
  Q 262.26 165.11 255.60 166.57
  Q 244.16 169.08 233.00 165.24
  Q 231.16 164.61 229.19 163.98
  Q 227.83 163.55 228.57 162.34
  L 231.84 156.94
  Q 232.31 156.17 233.16 156.49
  C 240.07 159.15 246.82 161.25 253.83 158.38
  Q 257.16 157.01 257.08 153.99
  Q 257.06 153.44 256.67 153.06
  Q 255.38 151.78 253.66 151.38
  Q 249.03 150.28 244.05 149.45
  Z"
/>
<path fill="#ffffff" d="
  M 286.68 152.97
  Q 289.70 142.30 293.09 130.47
  Q 293.87 127.76 294.73 126.41
  A 0.95 0.94 -73.4 0 1 295.52 125.98
  L 300.30 125.99
  A 1.83 1.82 -11.4 0 1 301.98 127.10
  Q 302.85 129.18 303.49 131.50
  Q 306.51 142.56 309.89 153.24
  Q 310.19 154.19 310.40 153.22
  Q 313.17 140.34 317.10 127.48
  A 2.14 2.13 8.3 0 1 319.13 125.98
  L 325.34 125.98
  Q 326.77 125.98 326.38 127.36
  L 315.69 165.15
  A 2.45 2.44 -81.4 0 1 313.29 166.93
  L 306.07 166.78
  A 1.07 1.07 0.0 0 1 305.07 166.01
  Q 303.25 159.81 301.66 153.51
  Q 300.95 150.72 300.10 148.01
  Q 299.22 145.25 298.77 142.50
  Q 298.33 139.83 297.60 142.44
  L 291.35 164.89
  A 2.79 2.78 8.4 0 1 288.60 166.92
  L 281.30 166.74
  A 0.76 0.74 -6.2 0 1 280.60 166.19
  C 279.99 164.02 279.65 161.81 279.06 159.62
  Q 276.06 148.59 272.67 136.98
  Q 271.22 131.97 270.00 127.20
  Q 269.69 125.97 270.96 125.97
  L 277.04 126.00
  Q 278.72 126.00 279.15 127.63
  L 285.90 152.96
  Q 286.28 154.39 286.68 152.97
  Z"
/>
<path fill="#ffffff" d="
  M 467.88 150.70
  L 452.06 150.74
  A 1.05 1.05 0.0 0 0 451.01 151.79
  L 451.00 165.69
  A 1.05 1.05 0.0 0 1 449.96 166.74
  L 442.92 166.79
  A 1.05 1.05 0.0 0 1 441.86 165.74
  L 441.75 127.03
  A 1.05 1.05 0.0 0 1 442.80 125.98
  L 449.82 125.99
  A 1.05 1.05 0.0 0 1 450.87 127.04
  L 450.87 140.96
  A 1.05 1.05 0.0 0 0 451.92 142.01
  L 467.76 141.95
  A 1.05 1.05 0.0 0 0 468.81 140.90
  L 468.79 127.26
  A 1.05 1.05 0.0 0 1 469.84 126.21
  L 476.67 126.21
  A 1.05 1.05 0.0 0 1 477.72 127.26
  L 477.73 165.67
  A 1.05 1.05 0.0 0 1 476.69 166.72
  L 469.58 166.80
  A 1.05 1.05 0.0 0 1 468.52 165.72
  L 468.93 151.78
  A 1.05 1.05 0.0 0 0 467.88 150.70
  Z"
/>
<rect fill="#ffffff" x="-4.76" y="-20.28" transform="translate(340.49,146.51) rotate(0.1)" width="9.52" height="40.56" rx="0.69"/>
<path fill="#ffffff" d="
  M 376.28 135.43
  L 376.23 166.14
  A 0.62 0.62 0.0 0 1 375.61 166.76
  L 367.09 166.78
  A 0.62 0.62 0.0 0 1 366.47 166.15
  L 366.92 135.54
  A 0.62 0.62 0.0 0 0 366.27 134.91
  L 354.81 135.38
  A 0.62 0.62 0.0 0 1 354.17 134.74
  L 354.40 126.82
  A 0.62 0.62 0.0 0 1 355.02 126.22
  L 387.86 126.22
  A 0.62 0.62 0.0 0 1 388.48 126.84
  L 388.47 134.28
  A 0.62 0.62 0.0 0 1 387.85 134.90
  L 376.90 134.81
  A 0.62 0.62 0.0 0 0 376.28 135.43
  Z"
/>
</svg>
