<?xml version="1.0" encoding="UTF-8" standalone="no"?>
<!DOCTYPE svg PUBLIC "-//W3C//DTD SVG 1.1//EN" "http://www.w3.org/Graphics/SVG/1.1/DTD/svg11.dtd">
<svg xmlns="http://www.w3.org/2000/svg" version="1.1" viewBox="0.00 0.00 590.00 255.00">
<g stroke-width="2.00" fill="none" stroke-linecap="butt">
<path stroke="#7e030e" vector-effect="non-scaling-stroke" d="
  M 198.60 66.77
  Q 195.37 66.61 192.22 66.72
  Q 188.16 66.87 185.89 66.83
  Q 173.61 66.57 161.75 66.70
  Q 151.86 66.82 141.59 66.79
  A 0.53 0.53 0.0 0 0 141.06 67.28
  L 138.52 100.22
  A 0.44 0.44 0.0 0 0 138.97 100.70
  L 155.42 100.09
  Q 156.56 100.05 156.47 101.19
  L 152.62 153.66
  A 0.65 0.65 0.0 0 0 153.39 154.35
  L 188.69 147.96
  Q 189.28 147.85 189.28 148.45
  L 189.35 187.11
  A 0.66 0.66 0.0 0 0 190.01 187.77
  Q 259.96 187.75 329.00 187.97
  Q 336.84 188.00 349.00 187.83
  Q 367.46 187.58 385.87 188.07
  A 0.79 0.79 0.0 0 0 386.69 187.28
  L 386.68 160.22
  Q 386.68 159.37 387.53 159.35
  L 391.53 159.31
  Q 392.12 159.30 392.13 158.71
  L 392.25 149.95
  Q 392.26 149.26 392.94 149.38
  Q 404.83 151.54 418.77 154.15
  C 427.21 155.74 436.52 151.39 438.21 142.50
  Q 438.81 139.29 438.61 136.11
  Q 437.99 126.56 436.77 116.55
  Q 435.95 109.82 435.30 93.33
  Q 434.93 84.00 432.77 78.85
  Q 427.66 66.67 413.98 66.76
  Q 389.85 66.92 366.50 66.91
  Q 345.30 66.90 322.56 66.88
  Q 322.38 66.88 322.26 66.74
  Q 322.15 66.63 322.01 66.63
  Q 296.91 66.50 267.75 66.64
  Q 258.53 66.68 247.76 66.83
  Q 232.94 67.05 216.42 66.74
  Q 213.73 66.69 211.07 66.78
  Q 208.21 66.87 205.73 66.65
  Q 203.93 66.49 202.14 66.66
  Q 200.22 66.85 198.60 66.77"
/>
<path stroke="#7e030e" vector-effect="non-scaling-stroke" d="
  M 148.68 90.90
  Q 155.85 91.52 164.75 90.38
  Q 166.28 90.18 166.65 91.27"
/>
<path stroke="#7c431b" vector-effect="non-scaling-stroke" d="
  M 166.65 91.27
  Q 164.53 116.89 162.90 142.51
  Q 162.86 143.27 164.05 142.91"
/>
<path stroke="#62010a" vector-effect="non-scaling-stroke" d="
  M 164.05 142.91
  L 168.71 142.12"
/>
<path stroke="#7e030e" vector-effect="non-scaling-stroke" d="
  M 168.71 142.12
  L 181.61 139.83
  A 0.96 0.96 0.0 0 0 182.40 138.96
  L 186.05 89.90
  A 0.53 0.52 1.7 0 1 186.58 89.41
  L 202.67 89.29
  Q 204.26 89.28 204.50 87.71
  Q 205.33 82.15 204.67 77.44
  Q 204.44 75.81 202.79 75.80
  L 150.29 75.75"
/>
<path stroke="#7c431b" vector-effect="non-scaling-stroke" d="
  M 150.29 75.75
  Q 148.41 82.62 148.68 90.90"
/>
<path stroke="#fa4529" vector-effect="non-scaling-stroke" d="
  M 150.29 75.75
  Q 151.50 77.73 151.03 80.42
  Q 150.40 84.03 150.39 84.14
  Q 150.12 87.30 149.80 90.46
  Q 149.76 90.90 148.68 90.90"
/>
<path stroke="#e00418" vector-effect="non-scaling-stroke" d="
  M 168.71 142.12
  Q 168.38 141.18 168.79 140.24
  Q 169.11 139.52 170.07 139.10
  Q 171.63 138.42 173.14 138.32
  Q 176.15 138.12 178.71 136.93
  A 1.59 1.58 79.2 0 0 179.63 135.57
  C 179.81 131.64 179.51 127.78 180.07 123.78
  Q 180.66 119.58 180.55 115.31
  C 180.50 113.49 180.92 111.67 181.34 109.90
  A 1.17 1.16 1.3 0 0 179.99 108.49
  Q 174.46 109.53 169.94 109.62
  Q 168.24 109.66 168.18 107.95
  L 167.78 95.52"
/>
<path stroke="#fa4529" vector-effect="non-scaling-stroke" d="
  M 167.78 95.52
  L 167.91 91.28
  Q 167.92 90.66 167.33 90.83
  Q 167.01 90.92 166.65 91.27"
/>
<path stroke="#de4425" vector-effect="non-scaling-stroke" d="
  M 167.78 95.52
  L 164.05 142.91"
/>
<path stroke="#7e030e" vector-effect="non-scaling-stroke" d="
  M 373.46 134.33
  C 376.59 137.56 381.25 138.38 385.81 138.96
  Q 396.19 140.28 418.38 144.75
  C 422.00 145.48 426.73 145.72 428.57 142.11
  C 429.82 139.65 429.35 133.65 428.97 130.86
  Q 426.39 111.84 425.90 93.52
  Q 425.77 88.51 424.64 84.10
  Q 422.88 77.19 417.01 76.39"
/>
<path stroke="#7c431b" vector-effect="non-scaling-stroke" d="
  M 417.01 76.39
  Q 390.85 75.03 376.39 75.85
  Q 371.79 76.11 369.23 81.11
  C 368.14 83.24 368.59 88.73 368.87 91.17
  Q 370.63 106.53 370.71 122.81
  Q 370.72 124.72 371.00 126.66
  C 371.41 129.48 371.33 131.93 373.46 134.33"
/>
<path stroke="#fa4529" vector-effect="non-scaling-stroke" d="
  M 417.01 76.39
  Q 399.17 77.56 381.70 77.22
  Q 376.09 77.11 374.37 77.72
  Q 370.04 79.25 369.95 84.75
  Q 369.85 91.07 371.79 106.47"
/>
<path stroke="#de4425" vector-effect="non-scaling-stroke" d="
  M 371.79 106.47
  Q 371.87 114.67 372.13 123.50
  Q 372.29 128.84 373.88 133.40"
/>
<path stroke="#fa4529" vector-effect="non-scaling-stroke" d="
  M 373.88 133.40
  Q 374.33 134.13 373.46 134.33"
/>
<path stroke="#e00418" vector-effect="non-scaling-stroke" d="
  M 373.88 133.40
  Q 375.38 134.94 376.99 134.74
  Q 377.49 134.68 377.97 134.82
  C 379.10 135.18 380.37 135.68 381.53 135.72
  Q 385.13 135.86 388.53 136.66
  Q 391.79 137.43 394.86 137.78
  Q 398.02 138.14 401.11 138.42
  C 405.53 138.82 409.57 139.80 413.75 140.84
  Q 415.70 141.32 417.78 141.52
  C 420.40 141.77 423.27 142.71 425.67 141.23
  A 1.62 1.60 71.3 0 0 426.43 139.68
  Q 425.97 135.26 425.83 130.97
  Q 425.72 127.48 424.87 122.39
  Q 423.90 116.62 423.85 110.83
  A 0.92 0.92 0.0 0 0 423.00 109.92
  L 411.87 109.07
  A 3.00 3.00 0.0 0 0 408.65 112.07
  L 408.66 118.47"
/>
<path stroke="#fa4529" vector-effect="non-scaling-stroke" d="
  M 408.66 118.47
  Q 407.56 105.60 406.51 92.75
  Q 406.40 91.47 404.99 90.49"
/>
<path stroke="#7e030e" vector-effect="non-scaling-stroke" d="
  M 404.99 90.49
  L 390.32 90.00
  A 0.79 0.78 89.0 0 0 389.51 90.84
  L 391.97 125.09
  Q 392.03 125.92 392.86 125.98
  Q 400.12 126.54 407.32 128.13
  Q 407.42 128.15 407.51 128.08
  Q 407.62 127.99 407.74 127.94"
/>
<path stroke="#fa4529" vector-effect="non-scaling-stroke" d="
  M 407.74 127.94
  Q 407.46 128.30 407.89 128.71
  A 0.66 0.66 0.0 0 0 409.00 128.23
  L 408.97 120.82"
/>
<path stroke="#e00418" vector-effect="non-scaling-stroke" d="
  M 408.97 120.82
  Q 409.70 121.89 410.29 122.99
  Q 410.90 124.15 410.91 125.35
  Q 410.91 127.56 410.85 129.78
  A 1.91 1.91 0.0 0 1 408.15 131.47
  L 404.61 129.88
  Q 404.06 129.63 403.48 129.75
  Q 401.16 130.21 399.08 129.14
  Q 398.60 128.90 398.07 128.96
  Q 395.04 129.32 391.83 128.98
  Q 390.03 128.79 389.42 127.10
  Q 388.29 123.97 388.17 120.39
  Q 387.97 114.43 387.67 108.72
  A 1.34 1.34 0.0 0 0 386.42 107.45
  L 371.79 106.47"
/>
<path stroke="#7c431b" vector-effect="non-scaling-stroke" d="
  M 404.99 90.49
  L 407.74 127.94"
/>
<path stroke="#de4425" vector-effect="non-scaling-stroke" d="
  M 408.66 118.47
  L 408.97 120.82"
/>
<path stroke="#7c431b" vector-effect="non-scaling-stroke" d="
  M 210.00 83.46
  L 207.35 131.07
  Q 207.32 131.60 207.85 131.70
  Q 208.35 131.79 209.05 131.41"
/>
<path stroke="#7e030e" vector-effect="non-scaling-stroke" d="
  M 209.05 131.41
  L 251.09 128.01
  Q 251.61 127.97 251.87 127.51
  Q 254.79 122.33 256.80 116.75
  Q 257.12 115.86 258.97 115.25"
/>
<path stroke="#7c431b" vector-effect="non-scaling-stroke" d="
  M 258.97 115.25
  Q 259.32 115.66 259.31 116.01
  Q 259.22 119.30 259.32 122.68
  Q 259.33 123.21 259.85 123.07
  Q 260.57 122.88 261.20 122.27"
/>
<path stroke="#62010a" vector-effect="non-scaling-stroke" d="
  M 261.20 122.27
  Q 265.02 118.86 269.06 116.54
  Q 273.18 114.18 276.34 110.74
  Q 277.61 109.36 279.41 108.05
  Q 281.13 106.82 282.48 105.28"
/>
<path stroke="#7e030e" vector-effect="non-scaling-stroke" d="
  M 282.48 105.28
  Q 287.68 101.93 290.00 99.51
  Q 298.30 90.87 306.55 81.81
  Q 308.14 80.07 305.79 80.07
  L 288.54 80.10"
/>
<path stroke="#7c431b" vector-effect="non-scaling-stroke" d="
  M 288.54 80.10
  L 276.96 93.23"
/>
<path stroke="#7e030e" vector-effect="non-scaling-stroke" d="
  M 276.96 93.23
  Q 276.81 93.33 276.68 93.34
  A 0.34 0.34 0.0 0 1 276.33 92.99
  L 276.54 80.13"
/>
<path stroke="#7c431b" vector-effect="non-scaling-stroke" d="
  M 276.54 80.13
  L 261.41 80.06
  A 1.43 1.43 0.0 0 0 259.98 81.47
  L 259.51 112.23
  A 0.46 0.46 0.0 0 0 260.21 112.63
  Q 261.28 111.96 261.10 111.33"
/>
<path stroke="#7e030e" vector-effect="non-scaling-stroke" d="
  M 261.10 111.33
  Q 268.57 106.73 271.25 104.31
  Q 277.13 99.00 283.58 94.38
  C 286.17 92.53 289.22 91.63 291.54 89.55
  Q 292.86 88.35 294.53 87.43
  C 295.99 86.62 297.85 85.28 299.47 85.13
  Q 300.20 85.06 299.75 85.64
  Q 298.88 86.75 297.70 87.46
  C 294.27 89.52 291.30 92.28 287.69 93.95
  C 285.09 95.15 282.96 97.37 281.07 98.54
  Q 278.30 100.25 275.98 102.36"
/>
<path stroke="#62010a" vector-effect="non-scaling-stroke" d="
  M 275.98 102.36
  L 259.48 114.47"
/>
<path stroke="#7c431b" vector-effect="non-scaling-stroke" d="
  M 259.48 114.47
  L 258.96 114.88"
/>
<path stroke="#7e030e" vector-effect="non-scaling-stroke" d="
  M 258.96 114.88
  L 253.78 117.61
  Q 253.51 117.75 253.21 117.68
  Q 253.03 117.63 252.87 117.57
  Q 252.50 117.43 252.11 117.45
  Q 247.05 117.75 241.93 117.88
  C 236.91 118.00 231.84 118.98 226.78 118.75
  Q 226.26 118.73 225.84 119.05
  Q 225.71 119.16 225.58 119.27
  Q 224.92 119.86 224.96 118.97
  L 225.28 111.98
  Q 225.35 110.56 226.77 110.50
  L 250.80 109.63
  Q 252.16 109.59 252.18 108.23
  L 252.29 99.51
  A 0.52 0.51 -0.0 0 0 251.76 98.99
  L 225.89 99.91
  Q 225.51 99.93 225.56 99.56
  Q 226.03 95.82 226.19 91.46
  Q 226.20 91.15 226.50 91.15
  Q 238.65 91.23 249.09 91.02
  Q 250.67 90.99 252.30 90.78
  A 0.79 0.79 0.0 0 0 252.92 90.34
  L 257.47 80.82
  A 0.58 0.58 0.0 0 0 256.95 79.99
  Q 235.56 79.93 214.26 79.90
  Q 210.50 79.89 210.00 83.46"
/>
<path stroke="#fa4529" vector-effect="non-scaling-stroke" d="
  M 258.96 114.88
  Q 259.05 114.97 258.97 115.25"
/>
<path stroke="#fa4529" vector-effect="non-scaling-stroke" d="
  M 209.05 131.41
  Q 208.89 127.04 209.00 125.50
  Q 210.49 104.77 211.37 83.97
  A 0.84 0.84 0.0 0 0 210.67 83.11
  Q 210.40 83.07 210.00 83.46"
/>
<path stroke="#de4425" vector-effect="non-scaling-stroke" d="
  M 261.20 122.27
  Q 260.98 118.23 260.72 114.76
  Q 260.68 114.20 259.48 114.47"
/>
<path stroke="#e00418" vector-effect="non-scaling-stroke" d="
  M 282.48 105.28
  Q 279.82 103.65 276.50 103.31
  Q 276.01 103.26 275.98 102.77
  Q 275.97 102.59 275.98 102.36"
/>
<path stroke="#fa4529" vector-effect="non-scaling-stroke" d="
  M 276.96 93.23
  Q 277.49 94.42 278.92 92.68
  Q 283.80 86.71 289.24 81.20
  A 0.66 0.65 -53.8 0 0 289.08 80.16
  Q 288.96 80.09 288.54 80.10"
/>
<path stroke="#fa4529" vector-effect="non-scaling-stroke" d="
  M 276.54 80.13
  Q 276.01 82.18 273.98 81.28
  Q 273.07 80.88 272.09 80.88
  L 262.96 80.88
  A 1.22 1.22 0.0 0 0 261.74 82.07
  L 261.10 111.33"
/>
<path stroke="#7c431b" vector-effect="non-scaling-stroke" d="
  M 313.08 80.29
  Q 311.84 83.49 313.47 85.27"
/>
<path stroke="#7e030e" vector-effect="non-scaling-stroke" d="
  M 313.47 85.27
  Q 316.51 83.11 318.13 83.16
  Q 318.72 83.18 318.65 83.65
  A 0.30 0.29 80.8 0 1 318.49 83.88
  L 313.97 86.39"
/>
<path stroke="#62010a" vector-effect="non-scaling-stroke" d="
  M 313.97 86.39
  Q 313.49 86.27 313.23 86.51
  Q 312.22 87.41 311.06 88.03
  Q 309.84 88.69 308.85 89.53
  Q 302.73 94.68 297.06 96.93
  Q 295.86 97.40 295.11 98.28
  C 293.87 99.76 292.67 101.09 290.95 102.03
  C 288.95 103.13 286.85 104.27 285.27 105.92
  Q 278.95 112.48 273.53 115.83
  Q 266.48 120.18 260.22 124.62
  Q 257.98 126.21 255.61 127.56
  Q 253.17 128.95 250.83 130.55
  Q 250.68 130.64 250.77 130.80
  L 250.91 131.07
  Q 251.01 131.24 251.18 131.15
  L 257.94 127.53
  Q 258.38 127.30 258.84 127.52
  Q 259.37 127.77 259.97 127.78
  C 262.99 127.82 267.23 128.34 269.56 126.00
  Q 272.02 123.52 275.43 121.92
  A 1.48 1.48 0.0 0 0 276.28 120.52
  L 276.08 116.00
  A 0.48 0.48 0.0 0 1 276.88 115.61
  L 279.47 117.83
  A 1.06 1.06 0.0 0 0 280.95 117.73
  Q 285.13 113.05 290.44 109.68
  A 0.68 0.67 -40.1 0 0 290.54 108.61
  L 288.25 106.49
  A 0.83 0.82 53.8 0 1 288.46 105.13
  Q 293.22 102.96 296.15 99.21
  Q 296.56 98.69 297.17 98.45
  Q 304.43 95.61 310.63 89.37
  Q 310.96 89.04 311.43 89.07
  Q 312.83 89.16 312.88 90.49"
/>
<path stroke="#7c431b" vector-effect="non-scaling-stroke" d="
  M 312.88 90.49
  L 312.90 93.87
  Q 312.91 94.43 313.47 94.41
  Q 313.81 94.39 314.21 94.19"
/>
<path stroke="#7e030e" vector-effect="non-scaling-stroke" d="
  M 314.21 94.19
  Q 314.85 94.65 314.48 95.63"
/>
<path stroke="#7c431b" vector-effect="non-scaling-stroke" d="
  M 314.48 95.63
  Q 312.58 96.14 312.86 98.15
  Q 313.19 100.49 313.19 100.62
  Q 313.37 119.35 313.77 127.25
  Q 313.83 128.34 315.26 127.71"
/>
<path stroke="#62010a" vector-effect="non-scaling-stroke" d="
  M 315.26 127.71
  L 318.73 128.04"
/>
<path stroke="#7e030e" vector-effect="non-scaling-stroke" d="
  M 318.73 128.04
  L 330.24 128.40
  A 0.40 0.40 0.0 0 0 330.66 127.98
  L 329.63 91.19
  Q 329.61 90.53 330.28 90.55
  L 343.85 91.12"
/>
<path stroke="#7c431b" vector-effect="non-scaling-stroke" d="
  M 343.85 91.12
  Q 344.67 110.27 345.66 128.62
  A 1.40 1.38 9.4 0 0 346.54 129.83
  Q 346.71 129.89 347.22 129.72"
/>
<path stroke="#7e030e" vector-effect="non-scaling-stroke" d="
  M 347.22 129.72
  L 362.36 131.21
  A 0.38 0.37 1.4 0 0 362.77 130.83
  Q 361.84 111.77 360.96 92.55
  Q 360.88 90.74 360.48 86.99
  Q 360.17 84.02 360.18 81.39
  Q 360.19 80.05 358.84 80.05
  L 313.08 80.29"
/>
<path stroke="#fa4529" vector-effect="non-scaling-stroke" d="
  M 347.22 129.72
  L 347.04 125.58"
/>
<path stroke="#e00418" vector-effect="non-scaling-stroke" d="
  M 347.04 125.58
  Q 347.70 127.94 350.78 127.83
  Q 353.77 127.72 354.61 127.81
  Q 356.52 128.01 358.46 128.09
  A 1.39 1.39 0.0 0 0 359.88 126.43
  Q 359.28 123.52 359.23 120.41
  C 359.17 116.08 358.29 111.81 358.09 107.45
  C 358.02 106.03 356.74 105.58 355.53 105.47
  Q 351.81 105.13 348.99 105.41
  Q 348.45 105.46 348.12 105.90
  L 346.15 108.57"
/>
<path stroke="#fa4529" vector-effect="non-scaling-stroke" d="
  M 346.15 108.57
  Q 346.02 99.92 345.29 92.00
  Q 345.26 91.64 343.85 91.12"
/>
<path stroke="#e00418" vector-effect="non-scaling-stroke" d="
  M 318.73 128.04
  Q 318.03 126.69 318.68 125.63
  Q 318.95 125.19 319.46 125.20
  L 327.49 125.34
  A 0.81 0.80 -4.4 0 0 328.30 124.40
  Q 327.64 120.53 327.59 116.64
  Q 327.53 111.55 327.21 106.14
  A 1.89 1.88 88.2 0 0 325.33 104.37
  L 315.82 104.32
  A 1.05 1.05 0.0 0 1 315.19 104.11
  Q 314.64 103.71 314.72 104.20"
/>
<path stroke="#fa4529" vector-effect="non-scaling-stroke" d="
  M 314.72 104.20
  L 314.75 95.63
  Q 314.75 95.62 314.73 95.62
  Q 314.61 95.62 314.48 95.63"
/>
<path stroke="#fa4529" vector-effect="non-scaling-stroke" d="
  M 314.21 94.19
  L 314.16 86.95"
/>
<path stroke="#e00418" vector-effect="non-scaling-stroke" d="
  M 314.16 86.95
  Q 313.88 87.22 313.97 86.39"
/>
<path stroke="#fa4529" vector-effect="non-scaling-stroke" d="
  M 313.47 85.27
  Q 315.24 80.84 313.08 80.29"
/>
<path stroke="#de4425" vector-effect="non-scaling-stroke" d="
  M 314.72 104.20
  L 315.26 127.71"
/>
<path stroke="#de4425" vector-effect="non-scaling-stroke" d="
  M 346.15 108.57
  L 347.04 125.58"
/>
<path stroke="#de4425" vector-effect="non-scaling-stroke" d="
  M 314.16 86.95
  Q 313.22 87.01 313.12 87.51
  Q 312.85 88.99 312.88 90.49"
/>
<path stroke="#62010a" vector-effect="non-scaling-stroke" d="
  M 294.12 110.82
  C 297.31 108.76 299.38 105.97 303.01 104.29
  Q 307.83 102.06 311.73 97.86
  Q 311.77 97.81 311.73 97.77
  L 311.47 97.45
  Q 311.32 97.28 311.14 97.42
  C 308.22 99.78 304.89 102.50 301.35 103.85
  Q 299.26 104.65 297.78 106.42
  C 295.68 108.92 292.30 109.92 289.89 112.27
  Q 284.82 117.22 281.49 119.52
  Q 273.08 125.31 260.31 133.07
  Q 260.05 133.23 260.27 133.44
  L 260.48 133.65
  Q 260.60 133.77 260.64 133.75
  Q 263.04 132.75 265.38 131.49
  C 268.63 129.74 270.14 127.17 274.44 127.51
  A 1.50 1.50 0.0 0 0 276.05 126.13
  Q 276.17 124.77 277.21 123.99
  Q 279.66 122.15 282.10 120.47
  Q 282.57 120.15 282.99 120.51
  L 289.84 126.38
  A 4.15 4.15 0.0 0 0 292.46 127.38
  L 309.45 127.67
  Q 311.51 127.70 309.99 126.31
  L 294.05 111.72
  A 0.57 0.57 0.0 0 1 294.12 110.82"
/>
<path stroke="#015672" vector-effect="non-scaling-stroke" d="
  M 252.48 170.12
  A 0.32 0.32 0.0 0 1 252.18 170.54
  L 244.96 170.52
  A 0.32 0.32 0.0 0 0 244.64 170.84
  L 244.67 178.05
  A 0.32 0.32 0.0 0 0 244.99 178.37
  L 264.87 178.36
  A 0.32 0.32 0.0 0 0 265.17 177.94
  L 252.87 142.25
  A 0.32 0.32 0.0 0 0 252.58 142.03
  L 242.50 141.81
  A 0.32 0.32 0.0 0 0 242.19 142.02
  L 229.17 177.82
  A 0.32 0.32 0.0 0 0 229.47 178.25
  L 238.85 178.11
  A 0.32 0.32 0.0 0 0 239.14 177.90
  L 247.12 155.58
  A 0.32 0.32 0.0 0 1 247.72 155.59
  L 252.48 170.12"
/>
<path stroke="#015672" vector-effect="non-scaling-stroke" d="
  M 209.28 162.77
  Q 215.49 162.80 221.74 162.89
  C 225.50 162.95 227.74 161.03 227.62 157.25
  Q 227.48 152.52 227.59 148.03
  C 227.75 142.03 223.63 142.35 218.78 142.32
  Q 209.15 142.26 199.49 142.48
  A 0.79 0.79 0.0 0 0 198.71 143.27
  L 198.71 177.85
  Q 198.71 178.49 199.35 178.49
  L 208.12 178.50
  Q 208.74 178.50 208.73 177.88
  L 208.52 163.54
  Q 208.50 162.77 209.28 162.77"
/>
<path stroke="#015672" vector-effect="non-scaling-stroke" d="
  M 288.86 162.71
  C 289.75 162.67 290.55 162.93 291.46 162.79
  Q 295.59 162.15 295.61 157.78
  Q 295.65 152.49 295.59 147.26
  Q 295.54 142.46 290.77 142.37
  Q 278.48 142.16 267.30 142.48
  Q 266.76 142.50 266.76 143.04
  L 266.75 177.74
  Q 266.75 178.46 267.48 178.47
  L 275.98 178.49
  Q 276.70 178.49 276.69 177.77
  L 276.32 150.84
  Q 276.31 150.24 276.91 150.24
  L 284.77 150.26
  Q 285.28 150.27 285.27 150.78
  L 285.08 156.44
  A 0.26 0.26 0.0 0 1 284.82 156.69
  L 278.57 156.68
  Q 278.04 156.68 277.97 157.21
  Q 277.39 161.80 278.56 164.24
  Q 282.02 171.48 285.15 178.30
  Q 285.27 178.56 285.56 178.57
  Q 291.55 178.63 295.44 178.38
  A 0.05 0.05 0.0 0 0 295.49 178.32
  Q 292.20 170.95 288.36 163.58
  A 0.59 0.59 0.0 0 1 288.86 162.71"
/>
<path stroke="#015672" vector-effect="non-scaling-stroke" d="
  M 314.99 156.76
  L 309.01 156.69
  Q 308.43 156.68 308.42 157.26
  C 308.39 160.03 308.07 162.48 309.39 165.14
  Q 312.37 171.16 315.52 178.32
  A 0.36 0.35 -11.0 0 0 315.85 178.54
  L 325.86 178.52
  A 0.13 0.12 -12.7 0 0 325.98 178.34
  L 318.94 163.56
  A 0.56 0.56 0.0 0 1 319.49 162.76
  C 323.37 163.06 326.24 161.87 326.10 157.44
  Q 325.96 153.08 326.09 148.17
  C 326.18 144.78 325.05 142.46 321.18 142.38
  Q 309.31 142.15 297.43 142.51
  A 0.50 0.50 0.0 0 0 296.96 143.09
  Q 297.15 144.33 297.16 145.46
  Q 297.29 161.44 297.18 177.85
  A 0.60 0.59 1.0 0 0 297.77 178.45
  L 306.54 178.46
  Q 307.28 178.46 307.27 177.71
  L 306.75 150.89
  Q 306.74 150.26 307.37 150.26
  L 315.17 150.23
  Q 315.75 150.22 315.73 150.80
  L 315.51 156.26
  Q 315.49 156.76 314.99 156.76"
/>
<path stroke="#015672" vector-effect="non-scaling-stroke" d="
  M 356.5061 146.7148
  A 4.42 4.42 0.0 0 0 352.0784 142.3025
  L 332.0185 142.3375
  A 4.42 4.42 0.0 0 0 327.6062 146.7652
  L 327.6539 174.0852
  A 4.42 4.42 0.0 0 0 332.0816 178.4975
  L 352.1415 178.4625
  A 4.42 4.42 0.0 0 0 356.5538 174.0348
  L 356.5061 146.7148"
/>
<path stroke="#015672" vector-effect="non-scaling-stroke" d="
  M 377.21 150.52
  A 0.51 0.51 0.0 0 1 377.73 150.00
  L 382.16 150.04
  A 0.51 0.51 0.0 0 0 382.67 149.54
  L 382.84 143.07
  A 0.51 0.51 0.0 0 0 382.33 142.54
  L 358.28 142.25
  A 0.51 0.51 0.0 0 0 357.77 142.77
  L 357.99 149.72
  A 0.51 0.51 0.0 0 0 358.52 150.21
  L 366.77 149.94
  A 0.51 0.51 0.0 0 1 367.30 150.45
  L 367.36 178.08
  A 0.51 0.51 0.0 0 0 367.88 178.59
  L 376.84 178.48
  A 0.51 0.51 0.0 0 0 377.35 177.96
  L 377.21 150.52"
/>
<path stroke="#e00418" vector-effect="non-scaling-stroke" d="
  M 221.84 121.05
  Q 222.48 115.45 222.01 109.39
  Q 221.89 107.88 223.39 107.71
  L 227.99 107.20
  A 0.49 0.49 0.0 0 0 228.34 106.43
  Q 227.81 105.68 226.74 105.70
  Q 219.53 105.85 214.11 106.32
  A 2.11 2.10 87.2 0 0 212.19 108.44
  Q 212.27 115.37 211.23 121.40
  Q 210.69 124.46 211.75 127.50
  Q 211.92 128.01 212.46 128.07
  Q 213.99 128.24 215.62 127.73
  Q 217.46 127.14 219.39 127.12
  Q 221.59 127.09 223.76 127.00
  Q 235.54 126.52 246.28 125.52
  Q 248.53 125.32 250.15 124.32
  Q 250.60 124.04 250.64 123.51
  Q 250.70 122.75 250.31 122.12
  Q 250.04 121.68 249.52 121.65
  C 247.80 121.56 246.24 121.33 244.51 121.43
  Q 240.63 121.68 236.75 121.66
  Q 233.48 121.65 229.93 122.01
  Q 226.31 122.38 222.62 122.01
  A 0.87 0.86 -84.2 0 1 221.84 121.05"
/>
<path stroke="#0192d2" vector-effect="non-scaling-stroke" d="
  M 236.46 177.22
  A 2.71 2.71 0.0 0 0 238.81 175.40
  L 242.86 163.64
  A 1.17 1.17 0.0 0 0 241.80 162.09
  Q 239.95 162.03 238.11 161.82
  Q 237.71 161.77 237.52 161.41
  Q 237.24 160.86 236.85 161.34
  C 235.48 163.02 235.52 164.92 234.63 166.81
  Q 232.34 171.69 231.17 176.20
  Q 230.79 177.65 232.29 177.54
  L 236.46 177.22"
/>
<path stroke="#0192d2" vector-effect="non-scaling-stroke" d="
  M 253.69 170.69
  A 0.82 0.82 0.0 0 1 252.85 171.73
  L 247.00 171.41
  A 0.82 0.82 0.0 0 0 246.14 172.17
  L 245.88 176.19
  A 0.82 0.82 0.0 0 0 246.70 177.06
  L 262.46 176.93
  A 0.82 0.82 0.0 0 0 263.23 175.84
  L 258.50 162.35
  A 0.82 0.82 0.0 0 0 257.70 161.81
  L 252.22 161.95
  A 0.82 0.82 0.0 0 0 251.46 163.00
  L 253.69 170.69"
/>
<path stroke="#015672" vector-effect="non-scaling-stroke" d="
  M 216.60 156.72
  A 0.35 0.35 0.0 0 0 216.95 156.38
  L 217.11 150.67
  A 0.35 0.35 0.0 0 0 216.76 150.31
  L 208.83 150.29
  A 0.35 0.35 0.0 0 0 208.48 150.65
  L 208.57 156.40
  A 0.35 0.35 0.0 0 0 208.92 156.74
  L 216.60 156.72"
/>
<path stroke="#0192d2" vector-effect="non-scaling-stroke" d="
  M 207.18 163.36
  A 1.18 1.18 0.0 0 0 206.02 162.20
  L 201.04 162.14
  A 1.18 1.18 0.0 0 0 199.84 163.33
  L 199.94 176.23
  A 1.18 1.18 0.0 0 0 201.22 177.40
  L 206.35 176.96
  A 1.18 1.18 0.0 0 0 207.43 175.76
  L 207.18 163.36"
/>
<path stroke="#0192d2" vector-effect="non-scaling-stroke" d="
  M 275.3768 163.5042
  A 1.55 1.55 0.0 0 0 273.8161 161.9651
  L 269.4962 161.9953
  A 1.55 1.55 0.0 0 0 267.9570 163.5561
  L 268.0432 175.8958
  A 1.55 1.55 0.0 0 0 269.6039 177.4349
  L 273.9238 177.4047
  A 1.55 1.55 0.0 0 0 275.4630 175.8439
  L 275.3768 163.5042"
/>
<path stroke="#0192d2" vector-effect="non-scaling-stroke" d="
  M 286.44 162.37
  A 0.94 0.94 0.0 0 0 285.52 161.85
  L 280.48 162.25
  A 0.94 0.94 0.0 0 0 279.70 163.59
  L 285.92 176.72
  A 0.94 0.94 0.0 0 0 286.79 177.26
  L 292.22 177.14
  A 0.94 0.94 0.0 0 0 293.05 175.79
  L 286.44 162.37"
/>
<path stroke="#0192d2" vector-effect="non-scaling-stroke" d="
  M 316.64 162.06
  A 0.79 0.79 0.0 0 0 315.87 161.63
  L 310.71 162.07
  A 0.79 0.79 0.0 0 0 310.06 163.20
  L 316.42 176.85
  A 0.79 0.79 0.0 0 0 317.18 177.31
  L 323.04 176.98
  A 0.79 0.79 0.0 0 0 323.70 175.83
  L 316.64 162.06"
/>
<path stroke="#0192d2" vector-effect="non-scaling-stroke" d="
  M 305.8458 163.6965
  A 1.64 1.64 0.0 0 0 304.1774 162.0854
  L 300.0780 162.1569
  A 1.64 1.64 0.0 0 0 298.4669 163.8253
  L 298.6742 175.7035
  A 1.64 1.64 0.0 0 0 300.3426 177.3146
  L 304.4420 177.2431
  A 1.64 1.64 0.0 0 0 306.0531 175.5747
  L 305.8458 163.6965"
/>
<path stroke="#015672" vector-effect="non-scaling-stroke" d="
  M 346.01 150.58
  A 0.27 0.27 0.0 0 0 345.74 150.31
  L 338.42 150.31
  A 0.27 0.27 0.0 0 0 338.15 150.58
  L 338.15 170.24
  A 0.27 0.27 0.0 0 0 338.42 170.51
  L 345.74 170.51
  A 0.27 0.27 0.0 0 0 346.01 170.24
  L 346.01 150.58"
/>
<path stroke="#0192d2" vector-effect="non-scaling-stroke" d="
  M 346.60 171.70
  Q 343.16 171.95 339.45 171.70
  Q 338.75 171.65 338.10 171.81
  Q 336.97 172.07 336.89 170.93
  Q 336.63 167.47 337.24 164.02
  Q 337.61 161.91 335.47 161.85
  L 331.54 161.73
  Q 329.23 161.66 329.20 163.97
  L 329.06 174.81
  A 2.25 2.25 0.0 0 0 331.31 177.09
  L 352.13 177.06
  A 3.02 3.02 0.0 0 0 355.15 174.04
  L 355.12 162.79
  Q 355.12 162.63 354.97 162.58
  Q 353.18 161.96 348.09 161.93
  Q 348.00 161.93 347.98 162.02
  Q 347.23 166.48 347.53 170.63
  A 1.00 1.00 0.0 0 1 346.60 171.70"
/>
<path stroke="#0192d2" vector-effect="non-scaling-stroke" d="
  M 375.96 163.56
  A 1.64 1.64 0.0 0 0 374.32 161.98
  L 370.62 162.00
  A 1.64 1.64 0.0 0 0 368.98 163.62
  L 368.84 176.02
  A 1.64 1.64 0.0 0 0 370.58 177.67
  L 374.90 177.41
  A 1.64 1.64 0.0 0 0 376.44 175.71
  L 375.96 163.56"
/>
</g>
<path fill="#fb051c" d="
  M 184.58 153.73
  Q 182.66 153.45 180.92 153.86
  Q 179.22 154.26 177.48 154.33
  Q 176.27 154.38 175.12 154.82
  Q 174.03 155.24 172.81 155.44
  Q 168.55 156.12 163.99 156.73
  C 162.42 156.94 161.35 157.91 159.68 157.83
  C 157.93 157.75 156.59 158.69 154.83 158.45
  Q 154.22 158.37 153.74 158.75
  Q 153.10 159.26 152.27 159.06
  Q 151.78 158.94 151.31 159.12
  L 148.41 160.22
  Q 147.83 160.44 147.78 159.83
  Q 147.52 156.86 147.95 154.16
  Q 148.26 152.22 148.27 150.31
  C 148.28 148.46 148.25 146.77 148.58 144.92
  Q 149.50 139.79 149.41 134.47
  C 149.39 133.67 150.00 133.15 150.00 132.44
  C 149.99 129.58 149.72 126.53 150.48 123.75
  Q 150.96 121.96 150.77 119.85
  Q 150.61 118.05 151.04 116.21
  Q 151.48 114.40 151.32 112.28
  C 151.16 110.02 152.08 108.09 151.90 105.76
  Q 151.85 105.18 151.28 105.17
  Q 145.00 105.05 138.71 105.18
  C 137.25 105.22 136.09 105.97 134.54 105.70
  Q 133.94 105.59 133.95 104.98
  L 134.35 91.14
  Q 134.36 90.56 134.68 90.07
  Q 134.77 89.94 134.85 89.80
  Q 135.02 89.51 135.02 89.18
  C 135.00 87.13 134.54 82.32 135.49 80.77
  A 1.40 1.34 -34.4 0 0 135.67 79.90
  Q 135.44 78.16 135.88 76.48
  C 136.53 74.00 135.82 71.69 136.35 69.33
  Q 137.02 66.33 136.67 62.92
  A 0.74 0.73 86.8 0 1 137.40 62.10
  Q 276.04 62.11 415.09 62.09
  C 416.70 62.09 417.98 62.60 419.55 62.57
  Q 420.07 62.56 420.57 62.74
  L 425.38 64.53
  Q 425.88 64.72 426.28 65.06
  C 427.16 65.78 428.05 65.84 428.97 66.67
  Q 434.06 71.23 434.94 72.74
  Q 438.12 78.18 438.57 84.13
  C 438.66 85.45 439.43 86.20 439.16 87.59
  Q 439.03 88.25 439.37 88.87
  Q 439.64 89.34 439.65 89.88
  C 439.86 103.26 440.99 115.45 442.61 128.46
  C 443.21 133.32 442.96 138.07 443.02 142.93
  A 1.90 1.85 -28.1 0 1 442.66 144.06
  C 442.08 144.85 442.23 145.71 441.79 146.68
  Q 439.65 151.30 437.42 153.10
  Q 434.37 155.55 430.61 157.33
  Q 427.85 158.64 424.70 158.54
  Q 420.48 158.41 416.77 158.49
  Q 416.21 158.50 415.71 158.24
  Q 414.62 157.68 413.48 157.86
  Q 412.99 157.94 412.52 157.77
  Q 409.07 156.51 405.28 156.12
  Q 403.34 155.93 401.30 155.23
  Q 399.15 154.50 397.00 154.26
  A 0.70 0.70 0.0 0 0 396.22 154.95
  L 396.15 163.24
  Q 396.15 163.88 395.51 163.86
  L 392.61 163.75
  A 0.90 0.89 0.9 0 0 391.68 164.64
  L 391.46 191.36
  Q 391.45 191.91 390.89 191.91
  L 185.67 191.91
  A 0.62 0.61 0.0 0 1 185.05 191.30
  L 185.07 154.30
  Q 185.07 153.80 184.58 153.73
  Z
  M 198.60 66.77
  Q 195.37 66.61 192.22 66.72
  Q 188.16 66.87 185.89 66.83
  Q 173.61 66.57 161.75 66.70
  Q 151.86 66.82 141.59 66.79
  A 0.53 0.53 0.0 0 0 141.06 67.28
  L 138.52 100.22
  A 0.44 0.44 0.0 0 0 138.97 100.70
  L 155.42 100.09
  Q 156.56 100.05 156.47 101.19
  L 152.62 153.66
  A 0.65 0.65 0.0 0 0 153.39 154.35
  L 188.69 147.96
  Q 189.28 147.85 189.28 148.45
  L 189.35 187.11
  A 0.66 0.66 0.0 0 0 190.01 187.77
  Q 259.96 187.75 329.00 187.97
  Q 336.84 188.00 349.00 187.83
  Q 367.46 187.58 385.87 188.07
  A 0.79 0.79 0.0 0 0 386.69 187.28
  L 386.68 160.22
  Q 386.68 159.37 387.53 159.35
  L 391.53 159.31
  Q 392.12 159.30 392.13 158.71
  L 392.25 149.95
  Q 392.26 149.26 392.94 149.38
  Q 404.83 151.54 418.77 154.15
  C 427.21 155.74 436.52 151.39 438.21 142.50
  Q 438.81 139.29 438.61 136.11
  Q 437.99 126.56 436.77 116.55
  Q 435.95 109.82 435.30 93.33
  Q 434.93 84.00 432.77 78.85
  Q 427.66 66.67 413.98 66.76
  Q 389.85 66.92 366.50 66.91
  Q 345.30 66.90 322.56 66.88
  Q 322.38 66.88 322.26 66.74
  Q 322.15 66.63 322.01 66.63
  Q 296.91 66.50 267.75 66.64
  Q 258.53 66.68 247.76 66.83
  Q 232.94 67.05 216.42 66.74
  Q 213.73 66.69 211.07 66.78
  Q 208.21 66.87 205.73 66.65
  Q 203.93 66.49 202.14 66.66
  Q 200.22 66.85 198.60 66.77
  Z"
/>
<path fill="#000000" d="
  M 202.14 66.66
  Q 203.93 66.49 205.73 66.65
  Q 208.21 66.87 211.07 66.78
  Q 213.73 66.69 216.42 66.74
  Q 232.94 67.05 247.76 66.83
  Q 258.53 66.68 267.75 66.64
  Q 296.91 66.50 322.01 66.63
  Q 322.15 66.63 322.26 66.74
  Q 322.38 66.88 322.56 66.88
  Q 345.30 66.90 366.50 66.91
  Q 389.85 66.92 413.98 66.76
  Q 427.66 66.67 432.77 78.85
  Q 434.93 84.00 435.30 93.33
  Q 435.95 109.82 436.77 116.55
  Q 437.99 126.56 438.61 136.11
  Q 438.81 139.29 438.21 142.50
  C 436.52 151.39 427.21 155.74 418.77 154.15
  Q 404.83 151.54 392.94 149.38
  Q 392.26 149.26 392.25 149.95
  L 392.13 158.71
  Q 392.12 159.30 391.53 159.31
  L 387.53 159.35
  Q 386.68 159.37 386.68 160.22
  L 386.69 187.28
  A 0.79 0.79 0.0 0 1 385.87 188.07
  Q 367.46 187.58 349.00 187.83
  Q 336.84 188.00 329.00 187.97
  Q 259.96 187.75 190.01 187.77
  A 0.66 0.66 0.0 0 1 189.35 187.11
  L 189.28 148.45
  Q 189.28 147.85 188.69 147.96
  L 153.39 154.35
  A 0.65 0.65 0.0 0 1 152.62 153.66
  L 156.47 101.19
  Q 156.56 100.05 155.42 100.09
  L 138.97 100.70
  A 0.44 0.44 0.0 0 1 138.52 100.22
  L 141.06 67.28
  A 0.53 0.53 0.0 0 1 141.59 66.79
  Q 151.86 66.82 161.75 66.70
  Q 173.61 66.57 185.89 66.83
  Q 188.16 66.87 192.22 66.72
  Q 195.37 66.61 198.60 66.77
  Q 200.22 66.85 202.14 66.66
  Z
  M 148.68 90.90
  Q 155.85 91.52 164.75 90.38
  Q 166.28 90.18 166.65 91.27
  Q 164.53 116.89 162.90 142.51
  Q 162.86 143.27 164.05 142.91
  L 168.71 142.12
  L 181.61 139.83
  A 0.96 0.96 0.0 0 0 182.40 138.96
  L 186.05 89.90
  A 0.53 0.52 1.7 0 1 186.58 89.41
  L 202.67 89.29
  Q 204.26 89.28 204.50 87.71
  Q 205.33 82.15 204.67 77.44
  Q 204.44 75.81 202.79 75.80
  L 150.29 75.75
  Q 148.41 82.62 148.68 90.90
  Z
  M 373.46 134.33
  C 376.59 137.56 381.25 138.38 385.81 138.96
  Q 396.19 140.28 418.38 144.75
  C 422.00 145.48 426.73 145.72 428.57 142.11
  C 429.82 139.65 429.35 133.65 428.97 130.86
  Q 426.39 111.84 425.90 93.52
  Q 425.77 88.51 424.64 84.10
  Q 422.88 77.19 417.01 76.39
  Q 390.85 75.03 376.39 75.85
  Q 371.79 76.11 369.23 81.11
  C 368.14 83.24 368.59 88.73 368.87 91.17
  Q 370.63 106.53 370.71 122.81
  Q 370.72 124.72 371.00 126.66
  C 371.41 129.48 371.33 131.93 373.46 134.33
  Z
  M 210.00 83.46
  L 207.35 131.07
  Q 207.32 131.60 207.85 131.70
  Q 208.35 131.79 209.05 131.41
  L 251.09 128.01
  Q 251.61 127.97 251.87 127.51
  Q 254.79 122.33 256.80 116.75
  Q 257.12 115.86 258.97 115.25
  Q 259.32 115.66 259.31 116.01
  Q 259.22 119.30 259.32 122.68
  Q 259.33 123.21 259.85 123.07
  Q 260.57 122.88 261.20 122.27
  Q 265.02 118.86 269.06 116.54
  Q 273.18 114.18 276.34 110.74
  Q 277.61 109.36 279.41 108.05
  Q 281.13 106.82 282.48 105.28
  Q 287.68 101.93 290.00 99.51
  Q 298.30 90.87 306.55 81.81
  Q 308.14 80.07 305.79 80.07
  L 288.54 80.10
  L 276.96 93.23
  Q 276.81 93.33 276.68 93.34
  A 0.34 0.34 0.0 0 1 276.33 92.99
  L 276.54 80.13
  L 261.41 80.06
  A 1.43 1.43 0.0 0 0 259.98 81.47
  L 259.51 112.23
  A 0.46 0.46 0.0 0 0 260.21 112.63
  Q 261.28 111.96 261.10 111.33
  Q 268.57 106.73 271.25 104.31
  Q 277.13 99.00 283.58 94.38
  C 286.17 92.53 289.22 91.63 291.54 89.55
  Q 292.86 88.35 294.53 87.43
  C 295.99 86.62 297.85 85.28 299.47 85.13
  Q 300.20 85.06 299.75 85.64
  Q 298.88 86.75 297.70 87.46
  C 294.27 89.52 291.30 92.28 287.69 93.95
  C 285.09 95.15 282.96 97.37 281.07 98.54
  Q 278.30 100.25 275.98 102.36
  L 259.48 114.47
  L 258.96 114.88
  L 253.78 117.61
  Q 253.51 117.75 253.21 117.68
  Q 253.03 117.63 252.87 117.57
  Q 252.50 117.43 252.11 117.45
  Q 247.05 117.75 241.93 117.88
  C 236.91 118.00 231.84 118.98 226.78 118.75
  Q 226.26 118.73 225.84 119.05
  Q 225.71 119.16 225.58 119.27
  Q 224.92 119.86 224.96 118.97
  L 225.28 111.98
  Q 225.35 110.56 226.77 110.50
  L 250.80 109.63
  Q 252.16 109.59 252.18 108.23
  L 252.29 99.51
  A 0.52 0.51 -0.0 0 0 251.76 98.99
  L 225.89 99.91
  Q 225.51 99.93 225.56 99.56
  Q 226.03 95.82 226.19 91.46
  Q 226.20 91.15 226.50 91.15
  Q 238.65 91.23 249.09 91.02
  Q 250.67 90.99 252.30 90.78
  A 0.79 0.79 0.0 0 0 252.92 90.34
  L 257.47 80.82
  A 0.58 0.58 0.0 0 0 256.95 79.99
  Q 235.56 79.93 214.26 79.90
  Q 210.50 79.89 210.00 83.46
  Z
  M 313.08 80.29
  Q 311.84 83.49 313.47 85.27
  Q 316.51 83.11 318.13 83.16
  Q 318.72 83.18 318.65 83.65
  A 0.30 0.29 80.8 0 1 318.49 83.88
  L 313.97 86.39
  Q 313.49 86.27 313.23 86.51
  Q 312.22 87.41 311.06 88.03
  Q 309.84 88.69 308.85 89.53
  Q 302.73 94.68 297.06 96.93
  Q 295.86 97.40 295.11 98.28
  C 293.87 99.76 292.67 101.09 290.95 102.03
  C 288.95 103.13 286.85 104.27 285.27 105.92
  Q 278.95 112.48 273.53 115.83
  Q 266.48 120.18 260.22 124.62
  Q 257.98 126.21 255.61 127.56
  Q 253.17 128.95 250.83 130.55
  Q 250.68 130.64 250.77 130.80
  L 250.91 131.07
  Q 251.01 131.24 251.18 131.15
  L 257.94 127.53
  Q 258.38 127.30 258.84 127.52
  Q 259.37 127.77 259.97 127.78
  C 262.99 127.82 267.23 128.34 269.56 126.00
  Q 272.02 123.52 275.43 121.92
  A 1.48 1.48 0.0 0 0 276.28 120.52
  L 276.08 116.00
  A 0.48 0.48 0.0 0 1 276.88 115.61
  L 279.47 117.83
  A 1.06 1.06 0.0 0 0 280.95 117.73
  Q 285.13 113.05 290.44 109.68
  A 0.68 0.67 -40.1 0 0 290.54 108.61
  L 288.25 106.49
  A 0.83 0.82 53.8 0 1 288.46 105.13
  Q 293.22 102.96 296.15 99.21
  Q 296.56 98.69 297.17 98.45
  Q 304.43 95.61 310.63 89.37
  Q 310.96 89.04 311.43 89.07
  Q 312.83 89.16 312.88 90.49
  L 312.90 93.87
  Q 312.91 94.43 313.47 94.41
  Q 313.81 94.39 314.21 94.19
  Q 314.85 94.65 314.48 95.63
  Q 312.58 96.14 312.86 98.15
  Q 313.19 100.49 313.19 100.62
  Q 313.37 119.35 313.77 127.25
  Q 313.83 128.34 315.26 127.71
  L 318.73 128.04
  L 330.24 128.40
  A 0.40 0.40 0.0 0 0 330.66 127.98
  L 329.63 91.19
  Q 329.61 90.53 330.28 90.55
  L 343.85 91.12
  Q 344.67 110.27 345.66 128.62
  A 1.40 1.38 9.4 0 0 346.54 129.83
  Q 346.71 129.89 347.22 129.72
  L 362.36 131.21
  A 0.38 0.37 1.4 0 0 362.77 130.83
  Q 361.84 111.77 360.96 92.55
  Q 360.88 90.74 360.48 86.99
  Q 360.17 84.02 360.18 81.39
  Q 360.19 80.05 358.84 80.05
  L 313.08 80.29
  Z
  M 294.12 110.82
  C 297.31 108.76 299.38 105.97 303.01 104.29
  Q 307.83 102.06 311.73 97.86
  Q 311.77 97.81 311.73 97.77
  L 311.47 97.45
  Q 311.32 97.28 311.14 97.42
  C 308.22 99.78 304.89 102.50 301.35 103.85
  Q 299.26 104.65 297.78 106.42
  C 295.68 108.92 292.30 109.92 289.89 112.27
  Q 284.82 117.22 281.49 119.52
  Q 273.08 125.31 260.31 133.07
  Q 260.05 133.23 260.27 133.44
  L 260.48 133.65
  Q 260.60 133.77 260.64 133.75
  Q 263.04 132.75 265.38 131.49
  C 268.63 129.74 270.14 127.17 274.44 127.51
  A 1.50 1.50 0.0 0 0 276.05 126.13
  Q 276.17 124.77 277.21 123.99
  Q 279.66 122.15 282.10 120.47
  Q 282.57 120.15 282.99 120.51
  L 289.84 126.38
  A 4.15 4.15 0.0 0 0 292.46 127.38
  L 309.45 127.67
  Q 311.51 127.70 309.99 126.31
  L 294.05 111.72
  A 0.57 0.57 0.0 0 1 294.12 110.82
  Z
  M 252.48 170.12
  A 0.32 0.32 0.0 0 1 252.18 170.54
  L 244.96 170.52
  A 0.32 0.32 0.0 0 0 244.64 170.84
  L 244.67 178.05
  A 0.32 0.32 0.0 0 0 244.99 178.37
  L 264.87 178.36
  A 0.32 0.32 0.0 0 0 265.17 177.94
  L 252.87 142.25
  A 0.32 0.32 0.0 0 0 252.58 142.03
  L 242.50 141.81
  A 0.32 0.32 0.0 0 0 242.19 142.02
  L 229.17 177.82
  A 0.32 0.32 0.0 0 0 229.47 178.25
  L 238.85 178.11
  A 0.32 0.32 0.0 0 0 239.14 177.90
  L 247.12 155.58
  A 0.32 0.32 0.0 0 1 247.72 155.59
  L 252.48 170.12
  Z
  M 209.28 162.77
  Q 215.49 162.80 221.74 162.89
  C 225.50 162.95 227.74 161.03 227.62 157.25
  Q 227.48 152.52 227.59 148.03
  C 227.75 142.03 223.63 142.35 218.78 142.32
  Q 209.15 142.26 199.49 142.48
  A 0.79 0.79 0.0 0 0 198.71 143.27
  L 198.71 177.85
  Q 198.71 178.49 199.35 178.49
  L 208.12 178.50
  Q 208.74 178.50 208.73 177.88
  L 208.52 163.54
  Q 208.50 162.77 209.28 162.77
  Z
  M 288.86 162.71
  C 289.75 162.67 290.55 162.93 291.46 162.79
  Q 295.59 162.15 295.61 157.78
  Q 295.65 152.49 295.59 147.26
  Q 295.54 142.46 290.77 142.37
  Q 278.48 142.16 267.30 142.48
  Q 266.76 142.50 266.76 143.04
  L 266.75 177.74
  Q 266.75 178.46 267.48 178.47
  L 275.98 178.49
  Q 276.70 178.49 276.69 177.77
  L 276.32 150.84
  Q 276.31 150.24 276.91 150.24
  L 284.77 150.26
  Q 285.28 150.27 285.27 150.78
  L 285.08 156.44
  A 0.26 0.26 0.0 0 1 284.82 156.69
  L 278.57 156.68
  Q 278.04 156.68 277.97 157.21
  Q 277.39 161.80 278.56 164.24
  Q 282.02 171.48 285.15 178.30
  Q 285.27 178.56 285.56 178.57
  Q 291.55 178.63 295.44 178.38
  A 0.05 0.05 0.0 0 0 295.49 178.32
  Q 292.20 170.95 288.36 163.58
  A 0.59 0.59 0.0 0 1 288.86 162.71
  Z
  M 314.99 156.76
  L 309.01 156.69
  Q 308.43 156.68 308.42 157.26
  C 308.39 160.03 308.07 162.48 309.39 165.14
  Q 312.37 171.16 315.52 178.32
  A 0.36 0.35 -11.0 0 0 315.85 178.54
  L 325.86 178.52
  A 0.13 0.12 -12.7 0 0 325.98 178.34
  L 318.94 163.56
  A 0.56 0.56 0.0 0 1 319.49 162.76
  C 323.37 163.06 326.24 161.87 326.10 157.44
  Q 325.96 153.08 326.09 148.17
  C 326.18 144.78 325.05 142.46 321.18 142.38
  Q 309.31 142.15 297.43 142.51
  A 0.50 0.50 0.0 0 0 296.96 143.09
  Q 297.15 144.33 297.16 145.46
  Q 297.29 161.44 297.18 177.85
  A 0.60 0.59 1.0 0 0 297.77 178.45
  L 306.54 178.46
  Q 307.28 178.46 307.27 177.71
  L 306.75 150.89
  Q 306.74 150.26 307.37 150.26
  L 315.17 150.23
  Q 315.75 150.22 315.73 150.80
  L 315.51 156.26
  Q 315.49 156.76 314.99 156.76
  Z
  M 356.5061 146.7148
  A 4.42 4.42 0.0 0 0 352.0784 142.3025
  L 332.0185 142.3375
  A 4.42 4.42 0.0 0 0 327.6062 146.7652
  L 327.6539 174.0852
  A 4.42 4.42 0.0 0 0 332.0816 178.4975
  L 352.1415 178.4625
  A 4.42 4.42 0.0 0 0 356.5538 174.0348
  L 356.5061 146.7148
  Z
  M 377.21 150.52
  A 0.51 0.51 0.0 0 1 377.73 150.00
  L 382.16 150.04
  A 0.51 0.51 0.0 0 0 382.67 149.54
  L 382.84 143.07
  A 0.51 0.51 0.0 0 0 382.33 142.54
  L 358.28 142.25
  A 0.51 0.51 0.0 0 0 357.77 142.77
  L 357.99 149.72
  A 0.51 0.51 0.0 0 0 358.52 150.21
  L 366.77 149.94
  A 0.51 0.51 0.0 0 1 367.30 150.45
  L 367.36 178.08
  A 0.51 0.51 0.0 0 0 367.88 178.59
  L 376.84 178.48
  A 0.51 0.51 0.0 0 0 377.35 177.96
  L 377.21 150.52
  Z"
/>
<path fill="#f88536" d="
  M 150.29 75.75
  Q 151.50 77.73 151.03 80.42
  Q 150.40 84.03 150.39 84.14
  Q 150.12 87.30 149.80 90.46
  Q 149.76 90.90 148.68 90.90
  Q 148.41 82.62 150.29 75.75
  Z"
/>
<path fill="#fb051c" d="
  M 150.29 75.75
  L 202.79 75.80
  Q 204.44 75.81 204.67 77.44
  Q 205.33 82.15 204.50 87.71
  Q 204.26 89.28 202.67 89.29
  L 186.58 89.41
  A 0.53 0.52 1.7 0 0 186.05 89.90
  L 182.40 138.96
  A 0.96 0.96 0.0 0 1 181.61 139.83
  L 168.71 142.12
  Q 168.38 141.18 168.79 140.24
  Q 169.11 139.52 170.07 139.10
  Q 171.63 138.42 173.14 138.32
  Q 176.15 138.12 178.71 136.93
  A 1.59 1.58 79.2 0 0 179.63 135.57
  C 179.81 131.64 179.51 127.78 180.07 123.78
  Q 180.66 119.58 180.55 115.31
  C 180.50 113.49 180.92 111.67 181.34 109.90
  A 1.17 1.16 1.3 0 0 179.99 108.49
  Q 174.46 109.53 169.94 109.62
  Q 168.24 109.66 168.18 107.95
  L 167.78 95.52
  L 167.91 91.28
  Q 167.92 90.66 167.33 90.83
  Q 167.01 90.92 166.65 91.27
  Q 166.28 90.18 164.75 90.38
  Q 155.85 91.52 148.68 90.90
  Q 149.76 90.90 149.80 90.46
  Q 150.12 87.30 150.39 84.14
  Q 150.40 84.03 151.03 80.42
  Q 151.50 77.73 150.29 75.75
  Z"
/>
<path fill="#f88536" d="
  M 417.01 76.39
  Q 399.17 77.56 381.70 77.22
  Q 376.09 77.11 374.37 77.72
  Q 370.04 79.25 369.95 84.75
  Q 369.85 91.07 371.79 106.47
  Q 371.87 114.67 372.13 123.50
  Q 372.29 128.84 373.88 133.40
  Q 374.33 134.13 373.46 134.33
  C 371.33 131.93 371.41 129.48 371.00 126.66
  Q 370.72 124.72 370.71 122.81
  Q 370.63 106.53 368.87 91.17
  C 368.59 88.73 368.14 83.24 369.23 81.11
  Q 371.79 76.11 376.39 75.85
  Q 390.85 75.03 417.01 76.39
  Z"
/>
<path fill="#fb051c" d="
  M 417.01 76.39
  Q 422.88 77.19 424.64 84.10
  Q 425.77 88.51 425.90 93.52
  Q 426.39 111.84 428.97 130.86
  C 429.35 133.65 429.82 139.65 428.57 142.11
  C 426.73 145.72 422.00 145.48 418.38 144.75
  Q 396.19 140.28 385.81 138.96
  C 381.25 138.38 376.59 137.56 373.46 134.33
  Q 374.33 134.13 373.88 133.40
  Q 375.38 134.94 376.99 134.74
  Q 377.49 134.68 377.97 134.82
  C 379.10 135.18 380.37 135.68 381.53 135.72
  Q 385.13 135.86 388.53 136.66
  Q 391.79 137.43 394.86 137.78
  Q 398.02 138.14 401.11 138.42
  C 405.53 138.82 409.57 139.80 413.75 140.84
  Q 415.70 141.32 417.78 141.52
  C 420.40 141.77 423.27 142.71 425.67 141.23
  A 1.62 1.60 71.3 0 0 426.43 139.68
  Q 425.97 135.26 425.83 130.97
  Q 425.72 127.48 424.87 122.39
  Q 423.90 116.62 423.85 110.83
  A 0.92 0.92 0.0 0 0 423.00 109.92
  L 411.87 109.07
  A 3.00 3.00 0.0 0 0 408.65 112.07
  L 408.66 118.47
  Q 407.56 105.60 406.51 92.75
  Q 406.40 91.47 404.99 90.49
  L 390.32 90.00
  A 0.79 0.78 89.0 0 0 389.51 90.84
  L 391.97 125.09
  Q 392.03 125.92 392.86 125.98
  Q 400.12 126.54 407.32 128.13
  Q 407.42 128.15 407.51 128.08
  Q 407.62 127.99 407.74 127.94
  Q 407.46 128.30 407.89 128.71
  A 0.66 0.66 0.0 0 0 409.00 128.23
  L 408.97 120.82
  Q 409.70 121.89 410.29 122.99
  Q 410.90 124.15 410.91 125.35
  Q 410.91 127.56 410.85 129.78
  A 1.91 1.91 0.0 0 1 408.15 131.47
  L 404.61 129.88
  Q 404.06 129.63 403.48 129.75
  Q 401.16 130.21 399.08 129.14
  Q 398.60 128.90 398.07 128.96
  Q 395.04 129.32 391.83 128.98
  Q 390.03 128.79 389.42 127.10
  Q 388.29 123.97 388.17 120.39
  Q 387.97 114.43 387.67 108.72
  A 1.34 1.34 0.0 0 0 386.42 107.45
  L 371.79 106.47
  Q 369.85 91.07 369.95 84.75
  Q 370.04 79.25 374.37 77.72
  Q 376.09 77.11 381.70 77.22
  Q 399.17 77.56 417.01 76.39
  Z"
/>
<path fill="#fb051c" d="
  M 258.96 114.88
  Q 259.05 114.97 258.97 115.25
  Q 257.12 115.86 256.80 116.75
  Q 254.79 122.33 251.87 127.51
  Q 251.61 127.97 251.09 128.01
  L 209.05 131.41
  Q 208.89 127.04 209.00 125.50
  Q 210.49 104.77 211.37 83.97
  A 0.84 0.84 0.0 0 0 210.67 83.11
  Q 210.40 83.07 210.00 83.46
  Q 210.50 79.89 214.26 79.90
  Q 235.56 79.93 256.95 79.99
  A 0.58 0.58 0.0 0 1 257.47 80.82
  L 252.92 90.34
  A 0.79 0.79 0.0 0 1 252.30 90.78
  Q 250.67 90.99 249.09 91.02
  Q 238.65 91.23 226.50 91.15
  Q 226.20 91.15 226.19 91.46
  Q 226.03 95.82 225.56 99.56
  Q 225.51 99.93 225.89 99.91
  L 251.76 98.99
  A 0.52 0.51 -0.0 0 1 252.29 99.51
  L 252.18 108.23
  Q 252.16 109.59 250.80 109.63
  L 226.77 110.50
  Q 225.35 110.56 225.28 111.98
  L 224.96 118.97
  Q 224.92 119.86 225.58 119.27
  Q 225.71 119.16 225.84 119.05
  Q 226.26 118.73 226.78 118.75
  C 231.84 118.98 236.91 118.00 241.93 117.88
  Q 247.05 117.75 252.11 117.45
  Q 252.50 117.43 252.87 117.57
  Q 253.03 117.63 253.21 117.68
  Q 253.51 117.75 253.78 117.61
  L 258.96 114.88
  Z
  M 221.84 121.05
  Q 222.48 115.45 222.01 109.39
  Q 221.89 107.88 223.39 107.71
  L 227.99 107.20
  A 0.49 0.49 0.0 0 0 228.34 106.43
  Q 227.81 105.68 226.74 105.70
  Q 219.53 105.85 214.11 106.32
  A 2.11 2.10 87.2 0 0 212.19 108.44
  Q 212.27 115.37 211.23 121.40
  Q 210.69 124.46 211.75 127.50
  Q 211.92 128.01 212.46 128.07
  Q 213.99 128.24 215.62 127.73
  Q 217.46 127.14 219.39 127.12
  Q 221.59 127.09 223.76 127.00
  Q 235.54 126.52 246.28 125.52
  Q 248.53 125.32 250.15 124.32
  Q 250.60 124.04 250.64 123.51
  Q 250.70 122.75 250.31 122.12
  Q 250.04 121.68 249.52 121.65
  C 247.80 121.56 246.24 121.33 244.51 121.43
  Q 240.63 121.68 236.75 121.66
  Q 233.48 121.65 229.93 122.01
  Q 226.31 122.38 222.62 122.01
  A 0.87 0.86 -84.2 0 1 221.84 121.05
  Z"
/>
<path fill="#f88536" d="
  M 276.54 80.13
  Q 276.01 82.18 273.98 81.28
  Q 273.07 80.88 272.09 80.88
  L 262.96 80.88
  A 1.22 1.22 0.0 0 0 261.74 82.07
  L 261.10 111.33
  Q 261.28 111.96 260.21 112.63
  A 0.46 0.46 0.0 0 1 259.51 112.23
  L 259.98 81.47
  A 1.43 1.43 0.0 0 1 261.41 80.06
  L 276.54 80.13
  Z"
/>
<path fill="#fb051c" d="
  M 282.48 105.28
  Q 279.82 103.65 276.50 103.31
  Q 276.01 103.26 275.98 102.77
  Q 275.97 102.59 275.98 102.36
  Q 278.30 100.25 281.07 98.54
  C 282.96 97.37 285.09 95.15 287.69 93.95
  C 291.30 92.28 294.27 89.52 297.70 87.46
  Q 298.88 86.75 299.75 85.64
  Q 300.20 85.06 299.47 85.13
  C 297.85 85.28 295.99 86.62 294.53 87.43
  Q 292.86 88.35 291.54 89.55
  C 289.22 91.63 286.17 92.53 283.58 94.38
  Q 277.13 99.00 271.25 104.31
  Q 268.57 106.73 261.10 111.33
  L 261.74 82.07
  A 1.22 1.22 0.0 0 1 262.96 80.88
  L 272.09 80.88
  Q 273.07 80.88 273.98 81.28
  Q 276.01 82.18 276.54 80.13
  L 276.33 92.99
  A 0.34 0.34 0.0 0 0 276.68 93.34
  Q 276.81 93.33 276.96 93.23
  Q 277.49 94.42 278.92 92.68
  Q 283.80 86.71 289.24 81.20
  A 0.66 0.65 -53.8 0 0 289.08 80.16
  Q 288.96 80.09 288.54 80.10
  L 305.79 80.07
  Q 308.14 80.07 306.55 81.81
  Q 298.30 90.87 290.00 99.51
  Q 287.68 101.93 282.48 105.28
  Z"
/>
<path fill="#fb051c" d="
  M 347.22 129.72
  L 347.04 125.58
  Q 347.70 127.94 350.78 127.83
  Q 353.77 127.72 354.61 127.81
  Q 356.52 128.01 358.46 128.09
  A 1.39 1.39 0.0 0 0 359.88 126.43
  Q 359.28 123.52 359.23 120.41
  C 359.17 116.08 358.29 111.81 358.09 107.45
  C 358.02 106.03 356.74 105.58 355.53 105.47
  Q 351.81 105.13 348.99 105.41
  Q 348.45 105.46 348.12 105.90
  L 346.15 108.57
  Q 346.02 99.92 345.29 92.00
  Q 345.26 91.64 343.85 91.12
  L 330.28 90.55
  Q 329.61 90.53 329.63 91.19
  L 330.66 127.98
  A 0.40 0.40 0.0 0 1 330.24 128.40
  L 318.73 128.04
  Q 318.03 126.69 318.68 125.63
  Q 318.95 125.19 319.46 125.20
  L 327.49 125.34
  A 0.81 0.80 -4.4 0 0 328.30 124.40
  Q 327.64 120.53 327.59 116.64
  Q 327.53 111.55 327.21 106.14
  A 1.89 1.88 88.2 0 0 325.33 104.37
  L 315.82 104.32
  A 1.05 1.05 0.0 0 1 315.19 104.11
  Q 314.64 103.71 314.72 104.20
  L 314.75 95.63
  Q 314.75 95.62 314.73 95.62
  Q 314.61 95.62 314.48 95.63
  Q 314.85 94.65 314.21 94.19
  L 314.16 86.95
  Q 313.88 87.22 313.97 86.39
  L 318.49 83.88
  A 0.30 0.29 80.8 0 0 318.65 83.65
  Q 318.72 83.18 318.13 83.16
  Q 316.51 83.11 313.47 85.27
  Q 315.24 80.84 313.08 80.29
  L 358.84 80.05
  Q 360.19 80.05 360.18 81.39
  Q 360.17 84.02 360.48 86.99
  Q 360.88 90.74 360.96 92.55
  Q 361.84 111.77 362.77 130.83
  A 0.38 0.37 1.4 0 1 362.36 131.21
  L 347.22 129.72
  Z"
/>
<path fill="#f88536" d="
  M 288.54 80.10
  Q 288.96 80.09 289.08 80.16
  A 0.66 0.65 -53.8 0 1 289.24 81.20
  Q 283.80 86.71 278.92 92.68
  Q 277.49 94.42 276.96 93.23
  L 288.54 80.10
  Z"
/>
<path fill="#f88536" d="
  M 313.08 80.29
  Q 315.24 80.84 313.47 85.27
  Q 311.84 83.49 313.08 80.29
  Z"
/>
<path fill="#f88536" d="
  M 209.05 131.41
  Q 208.35 131.79 207.85 131.70
  Q 207.32 131.60 207.35 131.07
  L 210.00 83.46
  Q 210.40 83.07 210.67 83.11
  A 0.84 0.84 0.0 0 1 211.37 83.97
  Q 210.49 104.77 209.00 125.50
  Q 208.89 127.04 209.05 131.41
  Z"
/>
<path fill="#c40214" d="
  M 313.97 86.39
  Q 313.88 87.22 314.16 86.95
  Q 313.22 87.01 313.12 87.51
  Q 312.85 88.99 312.88 90.49
  Q 312.83 89.16 311.43 89.07
  Q 310.96 89.04 310.63 89.37
  Q 304.43 95.61 297.17 98.45
  Q 296.56 98.69 296.15 99.21
  Q 293.22 102.96 288.46 105.13
  A 0.83 0.82 53.8 0 0 288.25 106.49
  L 290.54 108.61
  A 0.68 0.67 -40.1 0 1 290.44 109.68
  Q 285.13 113.05 280.95 117.73
  A 1.06 1.06 0.0 0 1 279.47 117.83
  L 276.88 115.61
  A 0.48 0.48 0.0 0 0 276.08 116.00
  L 276.28 120.52
  A 1.48 1.48 0.0 0 1 275.43 121.92
  Q 272.02 123.52 269.56 126.00
  C 267.23 128.34 262.99 127.82 259.97 127.78
  Q 259.37 127.77 258.84 127.52
  Q 258.38 127.30 257.94 127.53
  L 251.18 131.15
  Q 251.01 131.24 250.91 131.07
  L 250.77 130.80
  Q 250.68 130.64 250.83 130.55
  Q 253.17 128.95 255.61 127.56
  Q 257.98 126.21 260.22 124.62
  Q 266.48 120.18 273.53 115.83
  Q 278.95 112.48 285.27 105.92
  C 286.85 104.27 288.95 103.13 290.95 102.03
  C 292.67 101.09 293.87 99.76 295.11 98.28
  Q 295.86 97.40 297.06 96.93
  Q 302.73 94.68 308.85 89.53
  Q 309.84 88.69 311.06 88.03
  Q 312.22 87.41 313.23 86.51
  Q 313.49 86.27 313.97 86.39
  Z"
/>
<path fill="#f88536" d="
  M 314.16 86.95
  L 314.21 94.19
  Q 313.81 94.39 313.47 94.41
  Q 312.91 94.43 312.90 93.87
  L 312.88 90.49
  Q 312.85 88.99 313.12 87.51
  Q 313.22 87.01 314.16 86.95
  Z"
/>
<path fill="#000000" d="
  M 404.99 90.49
  L 407.74 127.94
  Q 407.62 127.99 407.51 128.08
  Q 407.42 128.15 407.32 128.13
  Q 400.12 126.54 392.86 125.98
  Q 392.03 125.92 391.97 125.09
  L 389.51 90.84
  A 0.79 0.78 89.0 0 1 390.32 90.00
  L 404.99 90.49
  Z"
/>
<path fill="#f88536" d="
  M 167.78 95.52
  L 164.05 142.91
  Q 162.86 143.27 162.90 142.51
  Q 164.53 116.89 166.65 91.27
  Q 167.01 90.92 167.33 90.83
  Q 167.92 90.66 167.91 91.28
  L 167.78 95.52
  Z"
/>
<path fill="#f88536" d="
  M 404.99 90.49
  Q 406.40 91.47 406.51 92.75
  Q 407.56 105.60 408.66 118.47
  L 408.97 120.82
  L 409.00 128.23
  A 0.66 0.66 0.0 0 1 407.89 128.71
  Q 407.46 128.30 407.74 127.94
  L 404.99 90.49
  Z"
/>
<path fill="#f88536" d="
  M 343.85 91.12
  Q 345.26 91.64 345.29 92.00
  Q 346.02 99.92 346.15 108.57
  L 347.04 125.58
  L 347.22 129.72
  Q 346.71 129.89 346.54 129.83
  A 1.40 1.38 9.4 0 1 345.66 128.62
  Q 344.67 110.27 343.85 91.12
  Z"
/>
<path fill="#c40214" d="
  M 167.78 95.52
  L 168.18 107.95
  Q 168.24 109.66 169.94 109.62
  Q 174.46 109.53 179.99 108.49
  A 1.17 1.16 1.3 0 1 181.34 109.90
  C 180.92 111.67 180.50 113.49 180.55 115.31
  Q 180.66 119.58 180.07 123.78
  C 179.51 127.78 179.81 131.64 179.63 135.57
  A 1.59 1.58 79.2 0 1 178.71 136.93
  Q 176.15 138.12 173.14 138.32
  Q 171.63 138.42 170.07 139.10
  Q 169.11 139.52 168.79 140.24
  Q 168.38 141.18 168.71 142.12
  L 164.05 142.91
  L 167.78 95.52
  Z"
/>
<path fill="#f88536" d="
  M 314.48 95.63
  Q 314.61 95.62 314.73 95.62
  Q 314.75 95.62 314.75 95.63
  L 314.72 104.20
  L 315.26 127.71
  Q 313.83 128.34 313.77 127.25
  Q 313.37 119.35 313.19 100.62
  Q 313.19 100.49 312.86 98.15
  Q 312.58 96.14 314.48 95.63
  Z"
/>
<path fill="#c40214" d="
  M 294.12 110.82
  A 0.57 0.57 0.0 0 0 294.05 111.72
  L 309.99 126.31
  Q 311.51 127.70 309.45 127.67
  L 292.46 127.38
  A 4.15 4.15 0.0 0 1 289.84 126.38
  L 282.99 120.51
  Q 282.57 120.15 282.10 120.47
  Q 279.66 122.15 277.21 123.99
  Q 276.17 124.77 276.05 126.13
  A 1.50 1.50 0.0 0 1 274.44 127.51
  C 270.14 127.17 268.63 129.74 265.38 131.49
  Q 263.04 132.75 260.64 133.75
  Q 260.60 133.77 260.48 133.65
  L 260.27 133.44
  Q 260.05 133.23 260.31 133.07
  Q 273.08 125.31 281.49 119.52
  Q 284.82 117.22 289.89 112.27
  C 292.30 109.92 295.68 108.92 297.78 106.42
  Q 299.26 104.65 301.35 103.85
  C 304.89 102.50 308.22 99.78 311.14 97.42
  Q 311.32 97.28 311.47 97.45
  L 311.73 97.77
  Q 311.77 97.81 311.73 97.86
  Q 307.83 102.06 303.01 104.29
  C 299.38 105.97 297.31 108.76 294.12 110.82
  Z"
/>
<path fill="#c40214" d="
  M 275.98 102.36
  Q 275.97 102.59 275.98 102.77
  Q 276.01 103.26 276.50 103.31
  Q 279.82 103.65 282.48 105.28
  Q 281.13 106.82 279.41 108.05
  Q 277.61 109.36 276.34 110.74
  Q 273.18 114.18 269.06 116.54
  Q 265.02 118.86 261.20 122.27
  Q 260.98 118.23 260.72 114.76
  Q 260.68 114.20 259.48 114.47
  L 275.98 102.36
  Z"
/>
<path fill="#c40214" d="
  M 318.73 128.04
  L 315.26 127.71
  L 314.72 104.20
  Q 314.64 103.71 315.19 104.11
  A 1.05 1.05 0.0 0 0 315.82 104.32
  L 325.33 104.37
  A 1.89 1.88 88.2 0 1 327.21 106.14
  Q 327.53 111.55 327.59 116.64
  Q 327.64 120.53 328.30 124.40
  A 0.81 0.80 -4.4 0 1 327.49 125.34
  L 319.46 125.20
  Q 318.95 125.19 318.68 125.63
  Q 318.03 126.69 318.73 128.04
  Z"
/>
<path fill="#c40214" d="
  M 347.04 125.58
  L 346.15 108.57
  L 348.12 105.90
  Q 348.45 105.46 348.99 105.41
  Q 351.81 105.13 355.53 105.47
  C 356.74 105.58 358.02 106.03 358.09 107.45
  C 358.29 111.81 359.17 116.08 359.23 120.41
  Q 359.28 123.52 359.88 126.43
  A 1.39 1.39 0.0 0 1 358.46 128.09
  Q 356.52 128.01 354.61 127.81
  Q 353.77 127.72 350.78 127.83
  Q 347.70 127.94 347.04 125.58
  Z"
/>
<path fill="#c40214" d="
  M 221.84 121.05
  A 0.87 0.86 -84.2 0 0 222.62 122.01
  Q 226.31 122.38 229.93 122.01
  Q 233.48 121.65 236.75 121.66
  Q 240.63 121.68 244.51 121.43
  C 246.24 121.33 247.80 121.56 249.52 121.65
  Q 250.04 121.68 250.31 122.12
  Q 250.70 122.75 250.64 123.51
  Q 250.60 124.04 250.15 124.32
  Q 248.53 125.32 246.28 125.52
  Q 235.54 126.52 223.76 127.00
  Q 221.59 127.09 219.39 127.12
  Q 217.46 127.14 215.62 127.73
  Q 213.99 128.24 212.46 128.07
  Q 211.92 128.01 211.75 127.50
  Q 210.69 124.46 211.23 121.40
  Q 212.27 115.37 212.19 108.44
  A 2.11 2.10 87.2 0 1 214.11 106.32
  Q 219.53 105.85 226.74 105.70
  Q 227.81 105.68 228.34 106.43
  A 0.49 0.49 0.0 0 1 227.99 107.20
  L 223.39 107.71
  Q 221.89 107.88 222.01 109.39
  Q 222.48 115.45 221.84 121.05
  Z"
/>
<path fill="#c40214" d="
  M 408.97 120.82
  L 408.66 118.47
  L 408.65 112.07
  A 3.00 3.00 0.0 0 1 411.87 109.07
  L 423.00 109.92
  A 0.92 0.92 0.0 0 1 423.85 110.83
  Q 423.90 116.62 424.87 122.39
  Q 425.72 127.48 425.83 130.97
  Q 425.97 135.26 426.43 139.68
  A 1.62 1.60 71.3 0 1 425.67 141.23
  C 423.27 142.71 420.40 141.77 417.78 141.52
  Q 415.70 141.32 413.75 140.84
  C 409.57 139.80 405.53 138.82 401.11 138.42
  Q 398.02 138.14 394.86 137.78
  Q 391.79 137.43 388.53 136.66
  Q 385.13 135.86 381.53 135.72
  C 380.37 135.68 379.10 135.18 377.97 134.82
  Q 377.49 134.68 376.99 134.74
  Q 375.38 134.94 373.88 133.40
  Q 372.29 128.84 372.13 123.50
  Q 371.87 114.67 371.79 106.47
  L 386.42 107.45
  A 1.34 1.34 0.0 0 1 387.67 108.72
  Q 387.97 114.43 388.17 120.39
  Q 388.29 123.97 389.42 127.10
  Q 390.03 128.79 391.83 128.98
  Q 395.04 129.32 398.07 128.96
  Q 398.60 128.90 399.08 129.14
  Q 401.16 130.21 403.48 129.75
  Q 404.06 129.63 404.61 129.88
  L 408.15 131.47
  A 1.91 1.91 0.0 0 0 410.85 129.78
  Q 410.91 127.56 410.91 125.35
  Q 410.90 124.15 410.29 122.99
  Q 409.70 121.89 408.97 120.82
  Z"
/>
<path fill="#f88536" d="
  M 259.48 114.47
  Q 260.68 114.20 260.72 114.76
  Q 260.98 118.23 261.20 122.27
  Q 260.57 122.88 259.85 123.07
  Q 259.33 123.21 259.32 122.68
  Q 259.22 119.30 259.31 116.01
  Q 259.32 115.66 258.97 115.25
  Q 259.05 114.97 258.96 114.88
  L 259.48 114.47
  Z"
/>
<path fill="#01ace3" d="
  M 252.48 170.12
  L 247.72 155.59
  A 0.32 0.32 0.0 0 0 247.12 155.58
  L 239.14 177.90
  A 0.32 0.32 0.0 0 1 238.85 178.11
  L 229.47 178.25
  A 0.32 0.32 0.0 0 1 229.17 177.82
  L 242.19 142.02
  A 0.32 0.32 0.0 0 1 242.50 141.81
  L 252.58 142.03
  A 0.32 0.32 0.0 0 1 252.87 142.25
  L 265.17 177.94
  A 0.32 0.32 0.0 0 1 264.87 178.36
  L 244.99 178.37
  A 0.32 0.32 0.0 0 1 244.67 178.05
  L 244.64 170.84
  A 0.32 0.32 0.0 0 1 244.96 170.52
  L 252.18 170.54
  A 0.32 0.32 0.0 0 0 252.48 170.12
  Z
  M 236.46 177.22
  A 2.71 2.71 0.0 0 0 238.81 175.40
  L 242.86 163.64
  A 1.17 1.17 0.0 0 0 241.80 162.09
  Q 239.95 162.03 238.11 161.82
  Q 237.71 161.77 237.52 161.41
  Q 237.24 160.86 236.85 161.34
  C 235.48 163.02 235.52 164.92 234.63 166.81
  Q 232.34 171.69 231.17 176.20
  Q 230.79 177.65 232.29 177.54
  L 236.46 177.22
  Z
  M 253.69 170.69
  A 0.82 0.82 0.0 0 1 252.85 171.73
  L 247.00 171.41
  A 0.82 0.82 0.0 0 0 246.14 172.17
  L 245.88 176.19
  A 0.82 0.82 0.0 0 0 246.70 177.06
  L 262.46 176.93
  A 0.82 0.82 0.0 0 0 263.23 175.84
  L 258.50 162.35
  A 0.82 0.82 0.0 0 0 257.70 161.81
  L 252.22 161.95
  A 0.82 0.82 0.0 0 0 251.46 163.00
  L 253.69 170.69
  Z"
/>
<path fill="#01ace3" d="
  M 208.52 163.54
  L 208.73 177.88
  Q 208.74 178.50 208.12 178.50
  L 199.35 178.49
  Q 198.71 178.49 198.71 177.85
  L 198.71 143.27
  A 0.79 0.79 0.0 0 1 199.49 142.48
  Q 209.15 142.26 218.78 142.32
  C 223.63 142.35 227.75 142.03 227.59 148.03
  Q 227.48 152.52 227.62 157.25
  C 227.74 161.03 225.50 162.95 221.74 162.89
  Q 215.49 162.80 209.28 162.77
  Q 208.50 162.77 208.52 163.54
  Z
  M 216.60 156.72
  A 0.35 0.35 0.0 0 0 216.95 156.38
  L 217.11 150.67
  A 0.35 0.35 0.0 0 0 216.76 150.31
  L 208.83 150.29
  A 0.35 0.35 0.0 0 0 208.48 150.65
  L 208.57 156.40
  A 0.35 0.35 0.0 0 0 208.92 156.74
  L 216.60 156.72
  Z
  M 207.18 163.36
  A 1.18 1.18 0.0 0 0 206.02 162.20
  L 201.04 162.14
  A 1.18 1.18 0.0 0 0 199.84 163.33
  L 199.94 176.23
  A 1.18 1.18 0.0 0 0 201.22 177.40
  L 206.35 176.96
  A 1.18 1.18 0.0 0 0 207.43 175.76
  L 207.18 163.36
  Z"
/>
<path fill="#01ace3" d="
  M 288.86 162.71
  A 0.59 0.59 0.0 0 0 288.36 163.58
  Q 292.20 170.95 295.49 178.32
  A 0.05 0.05 0.0 0 1 295.44 178.38
  Q 291.55 178.63 285.56 178.57
  Q 285.27 178.56 285.15 178.30
  Q 282.02 171.48 278.56 164.24
  Q 277.39 161.80 277.97 157.21
  Q 278.04 156.68 278.57 156.68
  L 284.82 156.69
  A 0.26 0.26 0.0 0 0 285.08 156.44
  L 285.27 150.78
  Q 285.28 150.27 284.77 150.26
  L 276.91 150.24
  Q 276.31 150.24 276.32 150.84
  L 276.69 177.77
  Q 276.70 178.49 275.98 178.49
  L 267.48 178.47
  Q 266.75 178.46 266.75 177.74
  L 266.76 143.04
  Q 266.76 142.50 267.30 142.48
  Q 278.48 142.16 290.77 142.37
  Q 295.54 142.46 295.59 147.26
  Q 295.65 152.49 295.61 157.78
  Q 295.59 162.15 291.46 162.79
  C 290.55 162.93 289.75 162.67 288.86 162.71
  Z
  M 275.3768 163.5042
  A 1.55 1.55 0.0 0 0 273.8161 161.9651
  L 269.4962 161.9953
  A 1.55 1.55 0.0 0 0 267.9570 163.5561
  L 268.0432 175.8958
  A 1.55 1.55 0.0 0 0 269.6039 177.4349
  L 273.9238 177.4047
  A 1.55 1.55 0.0 0 0 275.4630 175.8439
  L 275.3768 163.5042
  Z
  M 286.44 162.37
  A 0.94 0.94 0.0 0 0 285.52 161.85
  L 280.48 162.25
  A 0.94 0.94 0.0 0 0 279.70 163.59
  L 285.92 176.72
  A 0.94 0.94 0.0 0 0 286.79 177.26
  L 292.22 177.14
  A 0.94 0.94 0.0 0 0 293.05 175.79
  L 286.44 162.37
  Z"
/>
<path fill="#01ace3" d="
  M 314.99 156.76
  Q 315.49 156.76 315.51 156.26
  L 315.73 150.80
  Q 315.75 150.22 315.17 150.23
  L 307.37 150.26
  Q 306.74 150.26 306.75 150.89
  L 307.27 177.71
  Q 307.28 178.46 306.54 178.46
  L 297.77 178.45
  A 0.60 0.59 1.0 0 1 297.18 177.85
  Q 297.29 161.44 297.16 145.46
  Q 297.15 144.33 296.96 143.09
  A 0.50 0.50 0.0 0 1 297.43 142.51
  Q 309.31 142.15 321.18 142.38
  C 325.05 142.46 326.18 144.78 326.09 148.17
  Q 325.96 153.08 326.10 157.44
  C 326.24 161.87 323.37 163.06 319.49 162.76
  A 0.56 0.56 0.0 0 0 318.94 163.56
  L 325.98 178.34
  A 0.13 0.12 -12.7 0 1 325.86 178.52
  L 315.85 178.54
  A 0.36 0.35 -11.0 0 1 315.52 178.32
  Q 312.37 171.16 309.39 165.14
  C 308.07 162.48 308.39 160.03 308.42 157.26
  Q 308.43 156.68 309.01 156.69
  L 314.99 156.76
  Z
  M 316.64 162.06
  A 0.79 0.79 0.0 0 0 315.87 161.63
  L 310.71 162.07
  A 0.79 0.79 0.0 0 0 310.06 163.20
  L 316.42 176.85
  A 0.79 0.79 0.0 0 0 317.18 177.31
  L 323.04 176.98
  A 0.79 0.79 0.0 0 0 323.70 175.83
  L 316.64 162.06
  Z
  M 305.8458 163.6965
  A 1.64 1.64 0.0 0 0 304.1774 162.0854
  L 300.0780 162.1569
  A 1.64 1.64 0.0 0 0 298.4669 163.8253
  L 298.6742 175.7035
  A 1.64 1.64 0.0 0 0 300.3426 177.3146
  L 304.4420 177.2431
  A 1.64 1.64 0.0 0 0 306.0531 175.5747
  L 305.8458 163.6965
  Z"
/>
<path fill="#01ace3" d="
  M 356.5538 174.0348
  A 4.42 4.42 0.0 0 1 352.1415 178.4625
  L 332.0816 178.4975
  A 4.42 4.42 0.0 0 1 327.6539 174.0852
  L 327.6062 146.7652
  A 4.42 4.42 0.0 0 1 332.0185 142.3375
  L 352.0784 142.3025
  A 4.42 4.42 0.0 0 1 356.5061 146.7148
  L 356.5538 174.0348
  Z
  M 346.01 150.58
  A 0.27 0.27 0.0 0 0 345.74 150.31
  L 338.42 150.31
  A 0.27 0.27 0.0 0 0 338.15 150.58
  L 338.15 170.24
  A 0.27 0.27 0.0 0 0 338.42 170.51
  L 345.74 170.51
  A 0.27 0.27 0.0 0 0 346.01 170.24
  L 346.01 150.58
  Z
  M 346.60 171.70
  Q 343.16 171.95 339.45 171.70
  Q 338.75 171.65 338.10 171.81
  Q 336.97 172.07 336.89 170.93
  Q 336.63 167.47 337.24 164.02
  Q 337.61 161.91 335.47 161.85
  L 331.54 161.73
  Q 329.23 161.66 329.20 163.97
  L 329.06 174.81
  A 2.25 2.25 0.0 0 0 331.31 177.09
  L 352.13 177.06
  A 3.02 3.02 0.0 0 0 355.15 174.04
  L 355.12 162.79
  Q 355.12 162.63 354.97 162.58
  Q 353.18 161.96 348.09 161.93
  Q 348.00 161.93 347.98 162.02
  Q 347.23 166.48 347.53 170.63
  A 1.00 1.00 0.0 0 1 346.60 171.70
  Z"
/>
<path fill="#01ace3" d="
  M 377.21 150.52
  L 377.35 177.96
  A 0.51 0.51 0.0 0 1 376.84 178.48
  L 367.88 178.59
  A 0.51 0.51 0.0 0 1 367.36 178.08
  L 367.30 150.45
  A 0.51 0.51 0.0 0 0 366.77 149.94
  L 358.52 150.21
  A 0.51 0.51 0.0 0 1 357.99 149.72
  L 357.77 142.77
  A 0.51 0.51 0.0 0 1 358.28 142.25
  L 382.33 142.54
  A 0.51 0.51 0.0 0 1 382.84 143.07
  L 382.67 149.54
  A 0.51 0.51 0.0 0 1 382.16 150.04
  L 377.73 150.00
  A 0.51 0.51 0.0 0 0 377.21 150.52
  Z
  M 375.96 163.56
  A 1.64 1.64 0.0 0 0 374.32 161.98
  L 370.62 162.00
  A 1.64 1.64 0.0 0 0 368.98 163.62
  L 368.84 176.02
  A 1.64 1.64 0.0 0 0 370.58 177.67
  L 374.90 177.41
  A 1.64 1.64 0.0 0 0 376.44 175.71
  L 375.96 163.56
  Z"
/>
<path fill="#000000" d="
  M 216.60 156.72
  L 208.92 156.74
  A 0.35 0.35 0.0 0 1 208.57 156.40
  L 208.48 150.65
  A 0.35 0.35 0.0 0 1 208.83 150.29
  L 216.76 150.31
  A 0.35 0.35 0.0 0 1 217.11 150.67
  L 216.95 156.38
  A 0.35 0.35 0.0 0 1 216.60 156.72
  Z"
/>
<rect fill="#000000" x="338.15" y="150.31" width="7.86" height="20.20" rx="0.27"/>
<path fill="#0177c0" d="
  M 236.46 177.22
  L 232.29 177.54
  Q 230.79 177.65 231.17 176.20
  Q 232.34 171.69 234.63 166.81
  C 235.52 164.92 235.48 163.02 236.85 161.34
  Q 237.24 160.86 237.52 161.41
  Q 237.71 161.77 238.11 161.82
  Q 239.95 162.03 241.80 162.09
  A 1.17 1.17 0.0 0 1 242.86 163.64
  L 238.81 175.40
  A 2.71 2.71 0.0 0 1 236.46 177.22
  Z"
/>
<path fill="#0177c0" d="
  M 253.69 170.69
  L 251.46 163.00
  A 0.82 0.82 0.0 0 1 252.22 161.95
  L 257.70 161.81
  A 0.82 0.82 0.0 0 1 258.50 162.35
  L 263.23 175.84
  A 0.82 0.82 0.0 0 1 262.46 176.93
  L 246.70 177.06
  A 0.82 0.82 0.0 0 1 245.88 176.19
  L 246.14 172.17
  A 0.82 0.82 0.0 0 1 247.00 171.41
  L 252.85 171.73
  A 0.82 0.82 0.0 0 0 253.69 170.69
  Z"
/>
<path fill="#0177c0" d="
  M 316.64 162.06
  L 323.70 175.83
  A 0.79 0.79 0.0 0 1 323.04 176.98
  L 317.18 177.31
  A 0.79 0.79 0.0 0 1 316.42 176.85
  L 310.06 163.20
  A 0.79 0.79 0.0 0 1 310.71 162.07
  L 315.87 161.63
  A 0.79 0.79 0.0 0 1 316.64 162.06
  Z"
/>
<path fill="#0177c0" d="
  M 347.53 170.63
  Q 347.23 166.48 347.98 162.02
  Q 348.00 161.93 348.09 161.93
  Q 353.18 161.96 354.97 162.58
  Q 355.12 162.63 355.12 162.79
  L 355.15 174.04
  A 3.02 3.02 0.0 0 1 352.13 177.06
  L 331.31 177.09
  A 2.25 2.25 0.0 0 1 329.06 174.81
  L 329.20 163.97
  Q 329.23 161.66 331.54 161.73
  L 335.47 161.85
  Q 337.61 161.91 337.24 164.02
  Q 336.63 167.47 336.89 170.93
  Q 336.97 172.07 338.10 171.81
  Q 338.75 171.65 339.45 171.70
  Q 343.16 171.95 346.60 171.70
  A 1.00 1.00 0.0 0 0 347.53 170.63
  Z"
/>
<path fill="#0177c0" d="
  M 207.18 163.36
  L 207.43 175.76
  A 1.18 1.18 0.0 0 1 206.35 176.96
  L 201.22 177.40
  A 1.18 1.18 0.0 0 1 199.94 176.23
  L 199.84 163.33
  A 1.18 1.18 0.0 0 1 201.04 162.14
  L 206.02 162.20
  A 1.18 1.18 0.0 0 1 207.18 163.36
  Z"
/>
<rect fill="#0177c0" x="-3.71" y="-7.72" transform="translate(271.71,169.70) rotate(-0.4)" width="7.42" height="15.44" rx="1.55"/>
<path fill="#0177c0" d="
  M 286.44 162.37
  L 293.05 175.79
  A 0.94 0.94 0.0 0 1 292.22 177.14
  L 286.79 177.26
  A 0.94 0.94 0.0 0 1 285.92 176.72
  L 279.70 163.59
  A 0.94 0.94 0.0 0 1 280.48 162.25
  L 285.52 161.85
  A 0.94 0.94 0.0 0 1 286.44 162.37
  Z"
/>
<rect fill="#0177c0" x="-3.69" y="-7.58" transform="translate(302.26,169.70) rotate(-1.0)" width="7.38" height="15.16" rx="1.64"/>
<path fill="#0177c0" d="
  M 375.96 163.56
  L 376.44 175.71
  A 1.64 1.64 0.0 0 1 374.90 177.41
  L 370.58 177.67
  A 1.64 1.64 0.0 0 1 368.84 176.02
  L 368.98 163.62
  A 1.64 1.64 0.0 0 1 370.62 162.00
  L 374.32 161.98
  A 1.64 1.64 0.0 0 1 375.96 163.56
  Z"
/>
</svg>
