<?xml version="1.0" encoding="UTF-8" standalone="no"?>
<!DOCTYPE svg PUBLIC "-//W3C//DTD SVG 1.1//EN" "http://www.w3.org/Graphics/SVG/1.1/DTD/svg11.dtd">
<svg xmlns="http://www.w3.org/2000/svg" version="1.1" viewBox="0.00 0.00 590.00 255.00">
<g stroke-width="2.00" fill="none" stroke-linecap="butt">
<path stroke="#828282" stroke-opacity="0.988" vector-effect="non-scaling-stroke" d="
  M 326.26 98.55
  L 320.17 97.99
  A 1.86 1.85 -12.4 0 1 318.74 97.08
  L 316.82 93.73"
/>
<path stroke="#b7b7b7" stroke-opacity="0.698" vector-effect="non-scaling-stroke" d="
  M 316.82 93.73
  L 291.25 50.26
  Q 290.99 49.82 290.64 50.19
  Q 289.74 51.15 289.31 52.43"
/>
<path stroke="#b7b7b7" stroke-opacity="0.698" vector-effect="non-scaling-stroke" d="
  M 278.94 50.58
  L 285.09 40.24"
/>
<path stroke="#828282" stroke-opacity="0.988" vector-effect="non-scaling-stroke" d="
  M 137.41 114.22
  L 117.43 114.07"
/>
<path stroke="#828282" stroke-opacity="0.988" vector-effect="non-scaling-stroke" d="
  M 115.00 150.28
  L 103.22 150.33
  A 0.91 0.91 0.0 0 1 102.31 149.38
  C 102.82 137.70 102.01 126.08 102.72 114.55
  Q 102.76 114.00 102.21 114.00
  L 83.01 114.03
  Q 81.63 114.03 81.64 112.64
  L 81.72 104.92"
/>
<path stroke="#828282" stroke-opacity="0.988" vector-effect="non-scaling-stroke" d="
  M 195.06 150.31
  L 189.11 150.14"
/>
<path stroke="#828282" stroke-opacity="0.988" vector-effect="non-scaling-stroke" d="
  M 185.95 150.08
  Q 182.10 150.28 180.75 149.21
  Q 176.57 145.88 172.38 142.61"
/>
<path stroke="#828282" stroke-opacity="0.988" vector-effect="non-scaling-stroke" d="
  M 171.13 141.71
  Q 166.67 138.07 162.06 134.68
  Q 160.94 133.86 161.00 132.51
  Q 161.12 129.52 160.78 126.49"
/>
<path stroke="#828282" stroke-opacity="0.988" vector-effect="non-scaling-stroke" d="
  M 178.57 122.78
  Q 178.67 122.79 178.81 122.61
  Q 178.94 122.45 178.95 122.25
  L 179.19 115.53
  A 1.43 1.43 0.0 0 0 177.61 114.06
  C 170.11 114.91 162.70 114.50 155.00 114.05"
/>
<path stroke="#828282" stroke-opacity="0.988" vector-effect="non-scaling-stroke" d="
  M 153.06 150.39
  L 141.85 150.02
  A 0.84 0.84 0.0 0 1 141.03 149.18
  L 140.93 105.70"
/>
<path stroke="#828282" stroke-opacity="0.988" vector-effect="non-scaling-stroke" d="
  M 264.98 114.56
  L 238.17 114.20"
/>
<path stroke="#828282" stroke-opacity="0.988" vector-effect="non-scaling-stroke" d="
  M 262.16 132.14
  L 237.99 132.05"
/>
<path stroke="#828282" stroke-opacity="0.988" vector-effect="non-scaling-stroke" d="
  M 236.05 150.29
  L 223.65 150.19
  A 0.78 0.78 0.0 0 1 222.88 149.41
  L 222.70 106.51"
/>
<path stroke="#828282" stroke-opacity="0.988" vector-effect="non-scaling-stroke" d="
  M 317.77 150.11
  Q 300.41 149.91 283.05 150.01
  C 280.40 150.02 278.30 149.50 275.90 148.33
  Q 271.34 146.11 271.27 140.75
  Q 271.07 126.52 270.79 112.28"
/>
<path stroke="#828282" stroke-opacity="0.988" vector-effect="non-scaling-stroke" d="
  M 387.78 150.25
  L 376.20 150.05"
/>
<path stroke="#828282" stroke-opacity="0.988" vector-effect="non-scaling-stroke" d="
  M 374.26 150.04
  L 370.51 147.61"
/>
<path stroke="#828282" stroke-opacity="0.988" vector-effect="non-scaling-stroke" d="
  M 370.44 147.66
  Q 368.73 145.78 366.66 144.63"
/>
<path stroke="#828282" stroke-opacity="0.988" vector-effect="non-scaling-stroke" d="
  M 364.37 142.72
  L 353.62 134.54
  A 2.12 2.12 0.0 0 1 352.78 132.89
  L 352.69 126.04"
/>
<path stroke="#828282" stroke-opacity="0.988" vector-effect="non-scaling-stroke" d="
  M 370.57 123.01
  L 371.16 115.64
  A 1.43 1.43 0.0 0 0 369.61 114.10
  Q 358.62 115.10 346.95 114.13"
/>
<path stroke="#828282" stroke-opacity="0.988" vector-effect="non-scaling-stroke" d="
  M 344.98 150.38
  L 333.59 150.04
  A 0.68 0.68 0.0 0 1 332.93 149.36
  L 332.67 105.44"
/>
<path stroke="#828282" stroke-opacity="0.988" vector-effect="non-scaling-stroke" d="
  M 440.47 121.94
  L 433.53 122.05"
/>
<path stroke="#828282" stroke-opacity="0.988" vector-effect="non-scaling-stroke" d="
  M 431.48 122.05
  Q 429.82 121.78 429.99 119.99
  Q 430.25 117.35 430.21 114.50
  Q 430.20 114.00 429.69 114.00
  L 404.44 114.15"
/>
<path stroke="#828282" stroke-opacity="0.988" vector-effect="non-scaling-stroke" d="
  M 429.51 139.60
  Q 429.50 139.74 429.74 139.56
  Q 429.94 139.42 429.98 139.18
  Q 430.48 136.22 429.91 133.20"
/>
<path stroke="#828282" stroke-opacity="0.988" vector-effect="non-scaling-stroke" d="
  M 435.77 150.25
  Q 418.51 149.77 401.25 150.05
  Q 395.53 150.14 392.38 146.61
  Q 389.99 143.94 390.01 141.75
  Q 390.20 126.86 389.78 111.51"
/>
<path stroke="#828282" stroke-opacity="0.988" vector-effect="non-scaling-stroke" d="
  M 482.56 132.41
  L 463.45 132.03"
/>
<path stroke="#828282" stroke-opacity="0.988" vector-effect="non-scaling-stroke" d="
  M 492.32 150.03
  Q 460.47 149.73 449.00 150.18
  Q 447.20 150.25 446.96 149.50"
/>
<path stroke="#828282" stroke-opacity="0.988" vector-effect="non-scaling-stroke" d="
  M 191.49 168.11
  L 180.93 168.02
  Q 180.42 168.01 180.04 167.68
  Q 178.77 166.58 178.85 164.41"
/>
<path stroke="#828282" stroke-opacity="0.988" vector-effect="non-scaling-stroke" d="
  M 481.82 168.11
  L 476.44 168.31"
/>
<path stroke="#828282" stroke-opacity="0.988" vector-effect="non-scaling-stroke" d="
  M 104.98 168.16
  Q 103.77 167.54 102.51 165.94"
/>
<path stroke="#828282" stroke-opacity="0.988" vector-effect="non-scaling-stroke" d="
  M 278.56 168.18
  L 269.67 168.04
  A 1.71 1.70 90.0 0 1 267.99 166.35
  L 267.88 158.18"
/>
<path stroke="#828282" stroke-opacity="0.988" vector-effect="non-scaling-stroke" d="
  M 343.30 167.78
  Q 343.00 166.99 342.28 166.47"
/>
<path stroke="#828282" stroke-opacity="0.988" vector-effect="non-scaling-stroke" d="
  M 332.63 167.32
  L 332.81 157.26"
/>
<path stroke="#828282" stroke-opacity="0.988" vector-effect="non-scaling-stroke" d="
  M 354.75 168.08
  L 354.81 157.77"
/>
<path stroke="#828282" stroke-opacity="0.988" vector-effect="non-scaling-stroke" d="
  M 378.68 167.95
  Q 377.37 167.20 376.27 165.72"
/>
<path stroke="#828282" stroke-opacity="0.988" vector-effect="non-scaling-stroke" d="
  M 413.97 168.18
  Q 411.77 167.98 409.58 168.09
  Q 408.81 168.12 408.56 167.76
  Q 408.27 167.34 408.33 166.52"
/>
<path stroke="#828282" stroke-opacity="0.988" vector-effect="non-scaling-stroke" d="
  M 438.49 168.13
  L 436.34 165.94"
/>
<path stroke="#828282" stroke-opacity="0.988" vector-effect="non-scaling-stroke" d="
  M 428.47 168.10
  Q 426.82 168.27 426.98 166.50"
/>
<path stroke="#b7b7b7" stroke-opacity="0.698" vector-effect="non-scaling-stroke" d="
  M 371.46 194.88
  Q 372.09 195.10 372.79 194.90"
/>
<path stroke="#828282" stroke-opacity="0.988" vector-effect="non-scaling-stroke" d="
  M 372.79 194.90
  L 374.21 194.96
  A 0.44 0.44 0.0 0 0 374.66 194.47
  Q 374.63 194.24 374.41 193.99"
/>
<path stroke="#b7b7b7" stroke-opacity="0.698" vector-effect="non-scaling-stroke" d="
  M 374.41 193.99
  L 364.37 176.17"
/>
<path stroke="#b7b7b7" stroke-opacity="0.698" vector-effect="non-scaling-stroke" d="
  M 391.18 203.99
  L 190.96 204.00
  Q 190.42 204.00 190.54 203.47
  Q 190.66 202.91 191.15 202.29"
/>
<path stroke="#b7b7b7" stroke-opacity="0.698" vector-effect="non-scaling-stroke" d="
  M 191.76 201.07
  L 197.11 191.68"
/>
<path stroke="#828282" stroke-opacity="0.988" vector-effect="non-scaling-stroke" d="
  M 313.54 139.33
  L 313.86 114.55
  A 0.53 0.53 0.0 0 0 313.33 114.02
  L 285.97 114.31"
/>
<path stroke="#828282" stroke-opacity="0.988" vector-effect="non-scaling-stroke" d="
  M 188.72 165.27
  Q 189.33 162.22 188.82 158.62"
/>
<path stroke="#828282" stroke-opacity="0.988" vector-effect="non-scaling-stroke" d="
  M 480.35 165.12
  L 480.59 158.61"
/>
</g>
<path fill="#ffffff" d="
  M 326.26 98.55
  L 320.17 97.99
  A 1.86 1.85 -12.4 0 1 318.74 97.08
  L 316.82 93.73
  L 291.25 50.26
  Q 290.99 49.82 290.64 50.19
  Q 289.74 51.15 289.31 52.43
  L 263.54 96.96
  Q 262.62 98.55 260.79 98.54
  L 251.78 98.52
  A 0.50 0.50 0.0 0 1 251.35 97.77
  L 278.94 50.58
  L 285.09 40.24
  L 290.30 31.23
  A 0.61 0.61 0.0 0 1 291.36 31.23
  L 329.48 97.36
  A 0.53 0.52 -18.9 0 1 329.09 98.14
  L 326.26 98.55
  Z"
/>
<path fill="#000100" fill-opacity="0.396" d="
  M 285.09 40.24
  L 278.94 50.58
  Q 281.57 44.04 285.44 38.07
  Q 285.60 37.82 285.82 37.98
  Q 285.86 38.01 285.87 38.06
  Q 285.92 38.26 285.77 38.38
  Q 284.90 39.13 285.09 40.24
  Z"
/>
<path fill="#000100" fill-opacity="0.396" d="
  M 316.82 93.73
  Q 317.21 96.22 318.55 98.43
  Q 317.63 98.45 317.19 97.65
  Q 316.96 97.24 316.50 97.16
  Q 315.93 97.06 315.81 96.38
  Q 315.74 95.97 316.14 96.11
  Q 316.37 96.19 316.43 95.90
  Q 316.48 95.71 316.36 95.55
  C 315.48 94.44 314.33 93.78 313.67 92.53
  Q 312.21 89.77 310.61 87.14
  Q 310.50 86.95 310.26 86.93
  A 0.40 0.39 0.8 0 1 309.90 86.56
  Q 309.73 84.08 308.08 82.49
  A 2.07 2.04 16.9 0 1 307.48 81.38
  Q 307.25 80.14 306.27 79.23
  A 1.81 1.77 16.5 0 1 305.73 78.26
  Q 305.43 76.65 304.40 75.41
  Q 303.45 74.26 303.16 72.79
  Q 303.06 72.31 302.62 72.12
  Q 302.32 71.99 302.14 71.71
  Q 299.36 67.39 296.64 63.00
  Q 296.33 62.48 296.16 61.87
  Q 296.06 61.51 295.75 61.31
  Q 295.33 61.04 295.15 60.56
  Q 293.33 55.65 289.31 52.43
  Q 289.74 51.15 290.64 50.19
  Q 290.99 49.82 291.25 50.26
  L 316.82 93.73
  Z"
/>
<path fill="#020202" fill-opacity="0.976" d="
  M 316.82 93.73
  L 318.74 97.08
  A 1.86 1.85 -12.4 0 0 320.17 97.99
  L 326.26 98.55
  L 318.55 98.43
  Q 317.21 96.22 316.82 93.73
  Z"
/>
<path fill="#ffffff" d="
  M 137.41 114.22
  L 117.43 114.07
  Q 116.92 114.34 116.92 115.50
  Q 117.00 132.38 117.03 149.29
  Q 117.04 149.81 116.53 149.93
  L 115.00 150.28
  L 103.22 150.33
  A 0.91 0.91 0.0 0 1 102.31 149.38
  C 102.82 137.70 102.01 126.08 102.72 114.55
  Q 102.76 114.00 102.21 114.00
  L 83.01 114.03
  Q 81.63 114.03 81.64 112.64
  L 81.72 104.92
  Q 81.44 103.33 82.62 103.33
  Q 108.94 103.30 136.81 103.31
  Q 137.94 103.31 138.03 104.44
  Q 138.43 109.87 137.41 114.22
  Z"
/>
<path fill="#ffffff" d="
  M 195.06 150.31
  L 189.11 150.14
  L 185.95 150.08
  Q 182.10 150.28 180.75 149.21
  Q 176.57 145.88 172.38 142.61
  L 171.13 141.71
  Q 166.67 138.07 162.06 134.68
  Q 160.94 133.86 161.00 132.51
  Q 161.12 129.52 160.78 126.49
  L 160.84 124.38
  A 1.09 1.08 0.5 0 1 161.93 123.32
  Q 169.98 123.28 177.75 123.24
  Q 178.03 123.23 178.57 122.78
  Q 178.67 122.79 178.81 122.61
  Q 178.94 122.45 178.95 122.25
  L 179.19 115.53
  A 1.43 1.43 0.0 0 0 177.61 114.06
  C 170.11 114.91 162.70 114.50 155.00 114.05
  L 155.00 149.44
  Q 155.00 149.95 154.50 150.07
  L 153.06 150.39
  L 141.85 150.02
  A 0.84 0.84 0.0 0 1 141.03 149.18
  L 140.93 105.70
  Q 140.63 103.33 141.99 103.33
  Q 162.06 103.32 180.50 103.34
  C 187.80 103.35 192.59 107.36 192.56 114.82
  Q 192.55 119.02 192.47 123.05
  C 192.35 128.92 186.67 134.38 180.56 133.89
  Q 179.47 133.81 180.32 134.49
  L 199.08 149.46
  Q 199.51 149.81 198.98 149.96
  Q 197.11 150.48 195.06 150.31
  Z"
/>
<rect fill="#ffffff" x="-7.45" y="-23.55" transform="translate(207.70,126.92) rotate(-0.1)" width="14.90" height="47.10" rx="1.24"/>
<path fill="#ffffff" d="
  M 264.98 114.56
  L 238.17 114.20
  L 237.77 120.85
  A 0.46 0.46 0.0 0 0 238.23 121.34
  L 261.98 121.37
  A 0.81 0.79 87.6 0 1 262.77 122.11
  Q 263.21 127.92 262.16 132.14
  L 237.99 132.05
  L 237.77 149.52
  Q 237.76 150.04 237.25 150.11
  L 236.05 150.29
  L 223.65 150.19
  A 0.78 0.78 0.0 0 1 222.88 149.41
  L 222.70 106.51
  L 222.84 104.36
  A 1.09 1.09 0.0 0 1 223.93 103.33
  L 266.32 103.28
  A 1.05 1.05 0.0 0 1 267.37 104.32
  L 267.51 113.04
  Q 267.52 113.56 267.11 113.86
  Q 266.23 114.50 264.98 114.56
  Z"
/>
<path fill="#ffffff" d="
  M 317.77 150.11
  Q 300.41 149.91 283.05 150.01
  C 280.40 150.02 278.30 149.50 275.90 148.33
  Q 271.34 146.11 271.27 140.75
  Q 271.07 126.52 270.79 112.28
  C 272.95 105.82 278.72 103.35 285.09 103.33
  Q 299.88 103.29 314.81 103.38
  C 321.57 103.42 327.85 106.39 327.91 114.42
  Q 327.99 123.95 328.09 134.84
  Q 328.15 141.19 326.61 144.19
  Q 324.15 148.99 317.77 150.11
  Z
  M 313.54 139.33
  L 313.86 114.55
  A 0.53 0.53 0.0 0 0 313.33 114.02
  L 285.97 114.31
  L 285.82 139.06
  A 0.63 0.63 0.0 0 0 286.46 139.69
  L 313.54 139.33
  Z"
/>
<path fill="#ffffff" d="
  M 387.78 150.25
  L 376.20 150.05
  L 374.26 150.04
  L 370.51 147.61
  Q 370.05 147.35 370.44 147.66
  Q 368.73 145.78 366.66 144.63
  L 364.37 142.72
  L 353.62 134.54
  A 2.12 2.12 0.0 0 1 352.78 132.89
  L 352.69 126.04
  Q 352.39 123.38 353.96 123.37
  C 359.51 123.32 365.08 123.44 370.57 123.01
  L 371.16 115.64
  A 1.43 1.43 0.0 0 0 369.61 114.10
  Q 358.62 115.10 346.95 114.13
  L 346.91 149.33
  Q 346.91 149.86 346.40 150.00
  L 344.98 150.38
  L 333.59 150.04
  A 0.68 0.68 0.0 0 1 332.93 149.36
  L 332.67 105.44
  L 332.74 104.28
  A 0.97 0.96 1.6 0 1 333.71 103.37
  Q 353.35 103.28 372.38 103.36
  C 378.41 103.39 384.05 106.47 384.37 113.20
  C 384.57 117.41 385.15 122.92 383.45 126.77
  C 381.57 131.02 377.29 134.65 372.41 133.83
  Q 371.12 133.61 372.14 134.42
  L 390.69 149.20
  Q 391.62 149.94 390.43 150.04
  L 387.78 150.25
  Z"
/>
<path fill="#ffffff" d="
  M 440.47 121.94
  L 433.53 122.05
  Q 432.49 121.81 431.48 122.05
  Q 429.82 121.78 429.99 119.99
  Q 430.25 117.35 430.21 114.50
  Q 430.20 114.00 429.69 114.00
  L 404.44 114.15
  Q 404.41 114.04 404.22 114.12
  A 0.40 0.40 0.0 0 0 403.99 114.48
  L 403.99 139.20
  A 0.45 0.44 -90.0 0 0 404.43 139.65
  L 429.51 139.60
  Q 429.50 139.74 429.74 139.56
  Q 429.94 139.42 429.98 139.18
  Q 430.48 136.22 429.91 133.20
  Q 429.88 132.74 430.01 132.37
  Q 430.20 131.83 430.77 131.83
  L 442.81 131.82
  A 0.96 0.96 0.0 0 1 443.77 132.82
  C 443.59 136.41 444.45 141.12 443.23 144.44
  Q 441.52 149.12 435.77 150.25
  Q 418.51 149.77 401.25 150.05
  Q 395.53 150.14 392.38 146.61
  Q 389.99 143.94 390.01 141.75
  Q 390.20 126.86 389.78 111.51
  Q 392.62 103.47 401.50 103.39
  Q 418.26 103.24 433.12 103.43
  Q 441.03 103.53 443.29 110.87
  C 444.16 113.72 443.70 117.61 443.76 120.69
  Q 443.77 121.22 443.32 121.50
  Q 442.19 122.19 440.47 121.94
  Z"
/>
<path fill="#ffffff" d="
  M 482.56 132.41
  L 463.45 132.03
  Q 462.80 131.91 462.77 132.25
  Q 462.54 135.60 462.50 139.01
  A 0.71 0.70 0.4 0 0 463.21 139.72
  L 493.44 139.74
  A 0.46 0.45 0.0 0 1 493.90 140.19
  L 493.95 149.43
  Q 493.96 149.91 493.49 150.02
  Q 492.89 150.17 492.32 150.03
  Q 460.47 149.73 449.00 150.18
  Q 447.20 150.25 446.96 149.50
  L 447.12 104.67
  A 1.35 1.35 0.0 0 1 448.47 103.33
  L 492.92 103.30
  A 1.11 1.10 -89.7 0 1 494.02 104.42
  L 493.92 113.07
  Q 493.91 114.36 492.62 114.40
  Q 478.29 114.83 462.97 114.24
  Q 462.72 114.23 462.71 114.48
  L 462.48 121.00
  A 0.31 0.31 0.0 0 0 462.79 121.32
  L 483.87 121.37
  Q 484.87 121.37 484.87 122.37
  L 484.89 131.33
  Q 484.90 131.90 484.34 132.02
  L 482.56 132.41
  Z"
/>
<path fill="#ffffff" d="
  M 497.76 105.01
  Q 496.64 104.92 496.29 103.94
  Q 496.04 103.25 496.78 103.25
  L 500.49 103.26
  Q 501.58 103.26 500.78 104.01
  L 499.97 104.77
  Q 499.42 105.29 499.45 106.05
  Q 499.53 107.77 499.22 109.20
  Q 499.09 109.81 498.44 109.93
  Q 498.08 109.99 497.99 109.63
  Q 497.49 107.45 498.09 105.50
  A 0.38 0.38 0.0 0 0 497.76 105.01
  Z"
/>
<path fill="#ffffff" d="
  M 503.48 108.19
  L 503.52 109.25
  A 0.64 0.63 -84.1 0 1 502.74 109.89
  L 502.26 109.78
  Q 501.84 109.69 501.85 109.26
  L 501.97 104.07
  Q 501.98 103.42 502.63 103.51
  Q 502.81 103.54 503.00 103.54
  Q 503.45 103.56 503.73 103.91
  Q 504.35 104.65 504.91 105.42
  Q 505.54 106.28 506.19 105.44
  L 507.20 104.16
  Q 507.68 103.54 507.93 104.28
  C 508.49 106.02 507.08 107.88 505.96 109.19
  A 0.68 0.68 0.0 0 1 504.80 108.96
  Q 504.62 108.39 504.24 107.91
  Q 503.44 106.90 503.48 108.19
  Z"
/>
<path fill="#020202" fill-opacity="0.976" d="
  M 81.72 104.92
  L 81.64 112.64
  Q 81.63 114.03 83.01 114.03
  L 102.21 114.00
  Q 102.76 114.00 102.72 114.55
  C 102.01 126.08 102.82 137.70 102.31 149.38
  A 0.91 0.91 0.0 0 0 103.22 150.33
  L 115.00 150.28
  L 102.65 150.61
  Q 101.93 150.62 101.97 149.91
  C 102.03 148.79 102.24 147.81 102.23 146.63
  Q 102.04 131.06 102.16 115.66
  A 0.94 0.94 0.0 0 0 101.22 114.72
  L 81.79 114.70
  Q 81.30 114.70 81.32 114.21
  L 81.72 104.92
  Z"
/>
<path fill="#020202" fill-opacity="0.976" d="
  M 332.67 105.44
  L 332.93 149.36
  A 0.68 0.68 0.0 0 0 333.59 150.04
  L 344.98 150.38
  L 332.80 150.48
  Q 332.11 150.49 332.12 149.80
  L 332.67 105.44
  Z"
/>
<path fill="#020202" fill-opacity="0.976" d="
  M 140.93 105.70
  L 141.03 149.18
  A 0.84 0.84 0.0 0 0 141.85 150.02
  L 153.06 150.39
  L 141.24 150.60
  A 0.93 0.93 0.0 0 1 140.29 149.66
  L 140.93 105.70
  Z"
/>
<path fill="#020202" fill-opacity="0.976" d="
  M 222.70 106.51
  L 222.88 149.41
  A 0.78 0.78 0.0 0 0 223.65 150.19
  L 236.05 150.29
  L 223.04 150.68
  Q 222.52 150.70 222.52 150.18
  L 222.70 106.51
  Z"
/>
<path fill="#020202" fill-opacity="0.976" d="
  M 389.78 111.51
  Q 390.20 126.86 390.01 141.75
  Q 389.99 143.94 392.38 146.61
  Q 395.53 150.14 401.25 150.05
  Q 418.51 149.77 435.77 150.25
  Q 416.34 151.03 401.26 150.68
  Q 399.31 150.64 396.86 150.10
  Q 394.66 149.61 393.02 148.12
  Q 389.79 145.18 389.43 141.76
  Q 388.79 135.66 389.78 111.51
  Z"
/>
<path fill="#020202" fill-opacity="0.976" d="
  M 270.79 112.28
  Q 271.07 126.52 271.27 140.75
  Q 271.34 146.11 275.90 148.33
  C 278.30 149.50 280.40 150.02 283.05 150.01
  Q 300.41 149.91 317.77 150.11
  Q 315.35 150.70 312.75 150.69
  Q 297.89 150.63 283.52 150.67
  Q 276.71 150.68 273.14 147.35
  Q 270.79 145.16 270.51 141.80
  Q 270.31 139.35 270.25 135.68
  Q 270.06 123.94 270.79 112.28
  Z"
/>
<path fill="#020202" fill-opacity="0.976" d="
  M 117.43 114.07
  L 137.41 114.22
  Q 134.75 114.71 134.25 114.71
  Q 126.07 114.78 117.90 114.65
  Q 117.63 114.65 117.53 114.52
  Q 117.39 114.36 117.43 114.07
  Z"
/>
<path fill="#020202" fill-opacity="0.976" d="
  M 178.57 122.78
  L 178.60 116.06
  A 1.32 1.31 0.4 0 0 177.29 114.74
  Q 167.12 114.70 157.26 114.74
  Q 156.02 114.74 155.00 114.05
  C 162.70 114.50 170.11 114.91 177.61 114.06
  A 1.43 1.43 0.0 0 1 179.19 115.53
  L 178.95 122.25
  Q 178.94 122.45 178.81 122.61
  Q 178.67 122.79 178.57 122.78
  Z"
/>
<path fill="#020202" fill-opacity="0.976" d="
  M 238.17 114.20
  L 264.98 114.56
  Q 252.85 114.89 240.75 114.73
  Q 239.58 114.71 238.17 114.20
  Z"
/>
<path fill="#020202" fill-opacity="0.976" d="
  M 285.97 114.31
  L 313.33 114.02
  A 0.53 0.53 0.0 0 1 313.86 114.55
  L 313.54 139.33
  Q 313.20 138.25 313.19 137.25
  Q 313.05 126.99 313.17 115.75
  Q 313.17 115.43 312.27 114.49
  Q 312.12 114.33 311.95 114.50
  Q 311.77 114.68 311.52 114.68
  L 285.97 114.31
  Z"
/>
<path fill="#020202" fill-opacity="0.976" d="
  M 370.57 123.01
  L 370.50 115.98
  A 1.20 1.19 90.0 0 0 369.32 114.79
  Q 359.37 114.64 349.08 114.69
  Q 348.12 114.69 346.95 114.13
  Q 358.62 115.10 369.61 114.10
  A 1.43 1.43 0.0 0 1 371.16 115.64
  L 370.57 123.01
  Z"
/>
<path fill="#020202" fill-opacity="0.976" d="
  M 404.44 114.15
  L 429.69 114.00
  Q 430.20 114.00 430.21 114.50
  Q 430.25 117.35 429.99 119.99
  Q 429.82 121.78 431.48 122.05
  Q 430.66 122.38 430.05 122.14
  A 0.82 0.81 10.5 0 1 429.52 121.38
  L 429.44 115.82
  A 1.18 1.18 0.0 0 0 428.25 114.65
  Q 416.86 114.81 406.01 114.63
  Q 404.73 114.61 404.44 114.15
  Z"
/>
<path fill="#020202" fill-opacity="0.976" d="
  M 440.47 121.94
  L 433.53 122.05
  L 440.47 121.94
  Z"
/>
<path fill="#020202" fill-opacity="0.976" d="
  M 352.69 126.04
  L 352.78 132.89
  A 2.12 2.12 0.0 0 0 353.62 134.54
  L 364.37 142.72
  Q 363.16 143.14 362.76 142.35
  Q 362.54 141.93 362.10 141.76
  Q 361.42 141.51 360.88 141.04
  Q 357.01 137.70 352.96 134.79
  Q 352.56 134.50 352.56 134.00
  L 352.69 126.04
  Z"
/>
<path fill="#020202" fill-opacity="0.976" d="
  M 160.78 126.49
  Q 161.12 129.52 161.00 132.51
  Q 160.94 133.86 162.06 134.68
  Q 166.67 138.07 171.13 141.71
  Q 170.40 142.13 169.84 141.67
  Q 165.63 138.22 161.25 134.92
  Q 160.84 134.62 160.75 134.13
  Q 160.04 130.38 160.78 126.49
  Z"
/>
<path fill="#020202" fill-opacity="0.976" d="
  M 237.99 132.05
  L 262.16 132.14
  Q 259.52 132.67 259.31 132.66
  Q 250.00 132.51 240.70 132.65
  C 239.78 132.66 238.97 132.31 237.99 132.05
  Z"
/>
<path fill="#020202" fill-opacity="0.976" d="
  M 463.45 132.03
  L 482.56 132.41
  Q 473.53 132.82 464.50 132.55
  Q 463.30 132.51 463.45 132.03
  Z"
/>
<path fill="#020202" fill-opacity="0.976" d="
  M 429.91 133.20
  Q 430.48 136.22 429.98 139.18
  Q 429.94 139.42 429.74 139.56
  Q 429.50 139.74 429.51 139.60
  L 429.91 133.20
  Z"
/>
<path fill="#020202" fill-opacity="0.976" d="
  M 172.38 142.61
  Q 176.57 145.88 180.75 149.21
  Q 182.10 150.28 185.95 150.08
  Q 182.52 151.48 179.49 149.25
  Q 175.97 146.69 173.19 143.82
  A 0.85 0.84 73.3 0 0 172.73 143.57
  Q 172.48 143.52 172.27 143.38
  Q 171.91 143.15 172.38 142.61
  Z"
/>
<path fill="#020202" fill-opacity="0.976" d="
  M 366.66 144.63
  Q 368.73 145.78 370.44 147.66
  Q 367.36 147.03 366.66 144.63
  Z"
/>
<path fill="#020202" fill-opacity="0.976" d="
  M 370.51 147.61
  L 374.26 150.04
  Q 371.76 150.67 370.51 147.61
  Z"
/>
<path fill="#020202" fill-opacity="0.976" d="
  M 446.96 149.50
  Q 447.20 150.25 449.00 150.18
  Q 460.47 149.73 492.32 150.03
  Q 491.37 150.56 489.18 150.58
  Q 468.30 150.74 447.41 150.62
  Q 446.86 150.62 446.84 150.08
  Q 446.83 149.82 446.96 149.50
  Z"
/>
<path fill="#020202" fill-opacity="0.976" d="
  M 189.11 150.14
  L 195.06 150.31
  Q 191.72 151.08 189.11 150.14
  Z"
/>
<path fill="#020202" fill-opacity="0.976" d="
  M 376.20 150.05
  L 387.78 150.25
  Q 381.79 150.89 376.75 150.56
  Q 376.26 150.52 376.20 150.05
  Z"
/>
<path fill="#ffffff" d="
  M 191.49 168.11
  L 180.93 168.02
  Q 180.42 168.01 180.04 167.68
  Q 178.77 166.58 178.85 164.41
  Q 178.67 161.52 178.83 158.50
  Q 178.95 156.05 181.31 155.82
  Q 185.29 155.44 189.83 155.84
  C 191.57 155.99 192.34 156.98 192.55 158.67
  Q 193.25 164.34 191.49 168.11
  Z
  M 188.72 165.27
  Q 189.33 162.22 188.82 158.62
  L 183.24 158.80
  Q 182.73 158.81 182.70 159.32
  L 182.46 164.65
  Q 182.43 165.28 183.03 165.44
  Q 185.68 166.12 188.72 165.27
  Z"
/>
<path fill="#ffffff" d="
  M 462.5131 166.3744
  A 1.84 1.84 0.0 0 1 460.6827 168.2240
  L 450.8028 168.2758
  A 1.84 1.84 0.0 0 1 448.9532 166.4454
  L 448.9069 157.6056
  A 1.84 1.84 0.0 0 1 450.7373 155.7560
  L 460.6172 155.7042
  A 1.84 1.84 0.0 0 1 462.4668 157.5346
  L 462.5131 166.3744
  Z
  M 459.46 159.49
  A 0.73 0.73 0.0 0 0 458.73 158.76
  L 452.97 158.76
  A 0.73 0.73 0.0 0 0 452.24 159.49
  L 452.24 164.91
  A 0.73 0.73 0.0 0 0 452.97 165.64
  L 458.73 165.64
  A 0.73 0.73 0.0 0 0 459.46 164.91
  L 459.46 159.49
  Z"
/>
<path fill="#ffffff" d="
  M 481.82 168.11
  L 476.44 168.31
  L 472.62 168.01
  A 2.26 2.26 0.0 0 1 470.54 165.75
  L 470.58 158.07
  A 2.15 2.14 -3.3 0 1 472.48 155.94
  Q 476.91 155.43 481.75 155.88
  A 2.72 2.72 0.0 0 1 484.20 158.36
  Q 484.50 161.79 484.27 165.51
  Q 484.11 168.00 481.82 168.11
  Z
  M 480.35 165.12
  L 480.59 158.61
  L 475.39 158.64
  Q 474.49 158.64 474.45 159.54
  L 474.22 164.40
  Q 474.17 165.32 475.07 165.52
  Q 477.45 166.06 480.35 165.12
  Z"
/>
<path fill="#ffffff" d="
  M 104.98 168.16
  Q 103.77 167.54 102.51 165.94
  L 97.11 159.36
  Q 96.41 158.50 96.52 159.61
  Q 96.86 163.18 96.30 167.07
  A 1.08 1.06 -3.9 0 1 95.53 167.94
  L 93.89 168.40
  Q 92.97 168.66 92.98 167.70
  L 93.09 157.09
  Q 93.10 156.33 93.77 155.97
  C 95.00 155.30 96.52 155.82 97.38 156.90
  Q 99.84 159.98 102.46 162.45
  Q 104.13 164.02 104.13 161.73
  L 104.14 156.67
  Q 104.14 155.72 105.08 155.75
  L 106.06 155.78
  Q 106.82 155.81 106.82 156.56
  L 106.88 167.12
  Q 106.88 167.60 106.48 167.85
  Q 105.89 168.21 104.98 168.16
  Z"
/>
<path fill="#ffffff" d="
  M 117.26 164.22
  L 117.07 166.78
  Q 116.99 167.86 115.98 168.24
  L 115.48 168.43
  Q 114.49 168.80 114.51 167.73
  L 114.71 157.99
  A 2.30 2.30 0.0 0 1 117.01 155.74
  L 125.50 155.75
  A 2.28 2.28 0.0 0 1 127.78 158.00
  L 127.88 166.70
  Q 127.89 167.60 127.05 167.91
  L 125.55 168.48
  Q 124.53 168.87 124.71 167.79
  L 125.28 164.29
  A 0.74 0.73 4.2 0 0 124.54 163.44
  L 118.03 163.50
  Q 117.32 163.50 117.26 164.22
  Z
  M 125.4050 159.2664
  A 0.78 0.78 0.0 0 0 124.6168 158.4946
  L 117.8372 158.5656
  A 0.78 0.78 0.0 0 0 117.0654 159.3537
  L 117.0750 160.2736
  A 0.78 0.78 0.0 0 0 117.8632 161.0454
  L 124.6428 160.9744
  A 0.78 0.78 0.0 0 0 125.4146 160.1863
  L 125.4050 159.2664
  Z"
/>
<path fill="#ffffff" d="
  M 144.40 163.97
  L 146.58 156.65
  A 1.23 1.23 0.0 0 1 147.73 155.78
  L 151.98 155.72
  Q 152.75 155.71 152.75 156.48
  L 152.74 166.69
  A 1.32 1.32 0.0 0 1 151.81 167.95
  L 150.94 168.21
  Q 149.89 168.53 149.91 167.43
  L 150.08 158.98
  Q 150.09 158.45 149.57 158.52
  Q 148.81 158.62 148.59 159.42
  Q 147.73 162.56 146.65 165.17
  Q 144.01 171.60 141.40 165.15
  Q 140.32 162.47 139.59 159.12
  Q 139.45 158.49 138.80 158.32
  A 0.53 0.53 0.0 0 0 138.13 158.82
  L 137.95 167.10
  Q 137.93 167.75 137.31 167.93
  L 135.97 168.32
  Q 135.50 168.46 135.51 167.97
  L 135.72 156.51
  Q 135.73 155.74 136.49 155.75
  L 140.45 155.75
  A 1.01 1.00 81.4 0 1 141.41 156.46
  L 143.81 163.98
  Q 144.11 164.95 144.40 163.97
  Z"
/>
<path fill="#ffffff" d="
  M 163.58 158.69
  Q 162.96 158.60 162.93 159.22
  L 162.70 164.91
  A 0.72 0.71 1.6 0 0 163.41 165.65
  L 170.89 165.76
  Q 172.31 165.78 171.87 167.13
  L 171.77 167.43
  Q 171.52 168.19 170.72 168.18
  L 160.78 168.10
  A 1.82 1.81 87.2 0 1 158.99 166.47
  Q 158.59 162.80 158.78 158.91
  Q 158.93 155.94 161.93 155.81
  Q 166.54 155.62 170.89 155.81
  Q 172.25 155.87 171.86 157.20
  Q 171.79 157.46 171.83 157.74
  A 0.81 0.81 0.0 0 1 171.15 158.65
  Q 167.17 159.22 163.58 158.69
  Z"
/>
<path fill="#ffffff" d="
  M 228.32 158.67
  Q 227.35 158.60 227.34 159.57
  L 227.33 159.90
  Q 227.31 160.99 228.40 160.99
  L 235.50 160.98
  Q 237.78 160.98 237.77 163.25
  L 237.77 165.69
  Q 237.76 168.14 235.31 168.16
  L 224.53 168.23
  Q 223.80 168.23 223.99 167.53
  L 224.34 166.19
  Q 224.51 165.55 225.18 165.54
  L 233.55 165.40
  Q 234.39 165.39 234.51 164.56
  Q 234.55 164.25 234.47 163.96
  A 0.74 0.73 80.9 0 0 233.74 163.43
  L 227.28 163.64
  Q 224.06 163.74 224.05 160.53
  L 224.04 158.85
  Q 224.03 155.72 227.15 155.73
  L 235.21 155.74
  Q 235.78 155.74 236.20 156.13
  Q 236.93 156.79 236.49 157.78
  Q 236.28 158.26 235.78 158.38
  C 233.42 158.95 230.77 158.82 228.32 158.67
  Z"
/>
<path fill="#ffffff" d="
  M 246.04 166.25
  L 246.01 157.65
  A 1.86 1.85 89.8 0 1 247.85 155.79
  L 258.50 155.74
  Q 259.51 155.73 259.49 156.75
  L 259.48 157.26
  Q 259.45 158.73 257.99 158.73
  L 250.44 158.75
  Q 249.62 158.75 249.56 159.56
  L 249.52 159.97
  Q 249.44 161.00 250.47 161.00
  L 256.26 161.00
  Q 257.04 161.00 256.96 161.77
  Q 256.94 161.92 256.93 162.07
  A 1.46 1.46 0.0 0 1 255.52 163.45
  L 250.04 163.62
  A 0.53 0.52 87.3 0 0 249.54 164.18
  L 249.57 164.55
  Q 249.62 165.39 250.46 165.42
  L 258.79 165.79
  Q 259.31 165.82 259.38 166.33
  L 259.48 166.93
  Q 259.64 168.00 258.56 168.00
  L 247.88 168.07
  A 1.83 1.83 0.0 0 1 246.04 166.25
  Z"
/>
<path fill="#ffffff" d="
  M 278.56 168.18
  L 269.67 168.04
  A 1.71 1.70 90.0 0 1 267.99 166.35
  L 267.88 158.18
  Q 268.14 155.91 270.25 155.82
  Q 275.17 155.62 280.51 155.83
  A 1.30 1.30 0.0 0 1 281.75 157.07
  Q 281.79 158.27 280.61 158.45
  Q 275.88 159.16 271.73 158.47
  A 0.23 0.23 0.0 0 0 271.46 158.69
  L 271.22 165.07
  Q 271.20 165.54 271.67 165.56
  Q 276.27 165.73 278.07 165.19
  A 0.88 0.88 0.0 0 0 277.79 163.46
  L 274.88 163.53
  A 0.86 0.86 0.0 0 1 273.99 162.62
  L 274.02 161.96
  Q 274.06 160.98 275.04 160.98
  L 280.69 160.99
  Q 281.20 160.99 281.33 161.48
  C 282.04 164.07 281.96 167.94 278.56 168.18
  Z"
/>
<path fill="#ffffff" d="
  M 301.29 164.01
  Q 301.42 163.15 300.56 163.30
  Q 297.21 163.88 293.88 163.53
  A 0.52 0.52 0.0 0 0 293.31 164.00
  L 293.02 166.83
  Q 292.93 167.77 292.06 168.17
  L 291.44 168.45
  Q 290.59 168.84 290.51 167.91
  Q 290.06 162.70 290.59 157.45
  A 1.91 1.91 0.0 0 1 292.49 155.73
  L 300.99 155.72
  Q 303.76 155.72 303.76 158.49
  L 303.75 166.70
  Q 303.75 167.47 303.05 167.80
  L 301.60 168.48
  Q 300.59 168.96 300.75 167.85
  L 301.29 164.01
  Z
  M 301.4268 159.3408
  A 0.74 0.74 0.0 0 0 300.6817 158.6059
  L 293.7818 158.6541
  A 0.74 0.74 0.0 0 0 293.0470 159.3993
  L 293.0532 160.2792
  A 0.74 0.74 0.0 0 0 293.7983 161.0141
  L 300.6982 160.9659
  A 0.74 0.74 0.0 0 0 301.4330 160.2207
  L 301.4268 159.3408
  Z"
/>
<path fill="#ffffff" d="
  M 343.30 167.78
  Q 343.00 166.99 342.28 166.47
  L 336.32 159.38
  Q 335.73 158.67 335.83 159.59
  Q 336.24 163.23 335.66 166.71
  A 2.03 1.84 -66.8 0 1 332.61 168.11
  Q 332.52 168.03 332.63 167.32
  L 332.81 157.26
  Q 332.74 156.83 332.81 156.41
  Q 332.89 155.90 333.40 155.79
  Q 335.49 155.33 336.64 156.71
  Q 339.37 160.00 342.11 162.70
  Q 343.39 163.97 343.24 162.17
  Q 343.01 159.51 343.27 156.71
  Q 343.36 155.78 344.28 155.75
  L 345.34 155.71
  Q 346.25 155.67 346.25 156.59
  L 346.25 167.20
  Q 346.25 167.94 345.52 168.05
  Q 344.49 168.21 343.30 167.78
  Z"
/>
<path fill="#ffffff" d="
  M 354.75 168.08
  L 354.81 157.77
  L 354.87 156.41
  Q 354.90 155.81 355.50 155.79
  L 357.52 155.72
  Q 358.34 155.69 358.34 156.52
  L 358.31 167.13
  Q 358.30 167.64 357.84 167.84
  Q 356.36 168.51 354.75 168.08
  Z"
/>
<path fill="#ffffff" d="
  M 378.68 167.95
  Q 377.37 167.20 376.27 165.72
  L 370.97 159.33
  Q 370.47 158.73 370.45 159.51
  Q 370.36 163.29 370.22 167.06
  Q 370.19 167.85 369.37 167.93
  Q 369.24 167.95 368.04 168.07
  A 0.95 0.95 0.0 0 1 366.99 167.11
  L 367.15 157.35
  A 1.91 1.91 0.0 0 1 370.48 156.11
  L 376.13 162.44
  Q 378.06 164.61 377.99 161.70
  L 377.87 156.63
  Q 377.85 155.74 378.74 155.75
  L 379.71 155.75
  Q 380.67 155.76 380.67 156.71
  L 380.71 167.01
  A 0.86 0.85 -15.7 0 1 380.30 167.74
  Q 379.64 168.14 378.68 167.95
  Z"
/>
<path fill="#ffffff" d="
  M 392.23 158.56
  L 388.63 158.57
  Q 387.68 158.58 387.72 157.63
  L 387.75 156.97
  Q 387.79 155.86 388.90 155.82
  Q 394.47 155.59 400.27 155.85
  A 0.81 0.80 86.9 0 1 401.03 156.54
  Q 401.14 157.24 400.92 157.90
  A 1.08 1.07 -84.9 0 1 400.07 158.62
  Q 398.52 158.88 397.16 158.53
  Q 396.52 158.36 396.51 159.03
  L 396.49 166.66
  Q 396.48 167.82 395.34 168.03
  L 393.69 168.34
  A 1.21 1.21 0.0 0 1 392.27 167.22
  Q 392.02 162.79 392.77 159.22
  Q 392.91 158.56 392.23 158.56
  Z"
/>
<path fill="#ffffff" d="
  M 413.97 168.18
  Q 411.77 167.98 409.58 168.09
  Q 408.81 168.12 408.56 167.76
  Q 408.27 167.34 408.33 166.52
  L 408.42 156.55
  A 0.85 0.85 0.0 0 1 409.27 155.71
  L 418.68 155.77
  A 1.10 1.10 0.0 0 1 419.56 156.21
  Q 420.17 157.04 419.62 157.90
  A 1.17 1.15 11.1 0 1 418.80 158.44
  Q 415.67 158.94 412.93 158.63
  Q 411.94 158.52 411.97 159.52
  L 411.98 160.02
  Q 412.01 161.02 413.02 161.02
  L 418.63 160.99
  Q 419.78 160.99 419.76 162.13
  L 419.75 162.47
  Q 419.73 163.42 418.78 163.43
  L 413.00 163.54
  Q 412.08 163.55 412.03 164.47
  L 412.01 164.84
  A 0.59 0.59 0.0 0 0 412.59 165.47
  L 418.41 165.59
  Q 419.43 165.61 419.73 166.59
  Q 419.87 167.04 419.57 167.54
  A 0.79 0.76 13.2 0 1 418.93 167.92
  L 413.97 168.18
  Z"
/>
<path fill="#ffffff" d="
  M 438.49 168.13
  L 436.34 165.94
  L 431.32 159.74
  Q 430.48 158.72 430.57 160.04
  Q 430.78 163.26 430.25 167.10
  Q 430.19 167.61 429.73 167.84
  Q 429.20 168.10 428.47 168.10
  Q 426.82 168.27 426.98 166.50
  L 426.99 157.16
  A 1.40 1.40 0.0 0 1 428.11 155.79
  C 429.29 155.54 430.51 155.95 431.27 156.89
  Q 433.59 159.80 436.49 162.59
  Q 437.75 163.80 437.73 162.05
  L 437.68 156.81
  Q 437.67 155.78 438.69 155.76
  L 439.73 155.74
  Q 440.74 155.72 440.74 156.73
  L 440.73 167.00
  Q 440.73 167.49 440.32 167.77
  Q 439.60 168.24 438.49 168.13
  Z"
/>
<path fill="#020202" fill-opacity="0.976" d="
  M 332.81 157.26
  L 332.63 167.32
  Q 331.99 162.23 332.81 157.26
  Z"
/>
<path fill="#020202" fill-opacity="0.976" d="
  M 354.81 157.77
  L 354.75 168.08
  Q 354.08 162.88 354.81 157.77
  Z"
/>
<path fill="#020202" fill-opacity="0.976" d="
  M 267.88 158.18
  L 267.99 166.35
  A 1.71 1.70 90.0 0 0 269.67 168.04
  L 278.56 168.18
  L 268.36 168.17
  A 0.58 0.58 0.0 0 1 267.79 167.68
  Q 267.05 162.91 267.88 158.18
  Z"
/>
<path fill="#020202" fill-opacity="0.976" d="
  M 188.82 158.62
  Q 189.33 162.22 188.72 165.27
  Q 187.97 162.03 188.82 158.62
  Z"
/>
<path fill="#020202" fill-opacity="0.976" d="
  M 480.59 158.61
  L 480.35 165.12
  Q 479.72 161.92 480.59 158.61
  Z"
/>
<ellipse fill="#ffffff" cx="0.00" cy="0.00" transform="translate(208.26,161.99) rotate(-34.9)" rx="2.09" ry="1.81"/>
<ellipse fill="#ffffff" cx="0.00" cy="0.00" transform="translate(317.33,162.28) rotate(133.3)" rx="2.14" ry="1.78"/>
<path fill="#020202" fill-opacity="0.976" d="
  M 178.85 164.41
  Q 178.77 166.58 180.04 167.68
  Q 180.42 168.01 180.93 168.02
  L 191.49 168.11
  Q 184.83 168.85 179.72 168.00
  Q 179.20 167.92 179.00 167.44
  Q 178.48 166.18 178.85 164.41
  Z"
/>
<path fill="#020202" fill-opacity="0.976" d="
  M 376.27 165.72
  Q 377.37 167.20 378.68 167.95
  Q 377.64 167.98 377.25 167.80
  Q 375.69 167.09 376.27 165.72
  Z"
/>
<path fill="#020202" fill-opacity="0.976" d="
  M 102.51 165.94
  Q 103.77 167.54 104.98 168.16
  Q 103.83 168.33 103.02 167.76
  Q 102.60 167.46 102.57 166.94
  L 102.51 165.94
  Z"
/>
<path fill="#020202" fill-opacity="0.976" d="
  M 436.34 165.94
  L 438.49 168.13
  Q 436.55 168.51 435.88 167.37
  Q 435.57 166.86 436.34 165.94
  Z"
/>
<path fill="#020202" fill-opacity="0.976" d="
  M 342.28 166.47
  Q 343.00 166.99 343.30 167.78
  Q 342.61 167.83 342.03 167.51
  Q 341.50 167.23 341.93 166.82
  L 342.28 166.47
  Z"
/>
<path fill="#020202" fill-opacity="0.976" d="
  M 408.33 166.52
  Q 408.27 167.34 408.56 167.76
  Q 408.81 168.12 409.58 168.09
  Q 411.77 167.98 413.97 168.18
  L 408.83 168.48
  Q 408.31 168.51 408.10 168.04
  Q 407.84 167.46 408.33 166.52
  Z"
/>
<path fill="#020202" fill-opacity="0.976" d="
  M 426.98 166.50
  Q 426.82 168.27 428.47 168.10
  Q 427.78 168.64 427.28 168.45
  Q 426.82 168.27 426.77 167.61
  Q 426.73 167.05 426.98 166.50
  Z"
/>
<path fill="#020202" fill-opacity="0.976" d="
  M 481.82 168.11
  Q 479.32 168.85 476.44 168.31
  L 481.82 168.11
  Z"
/>
<path fill="#ffffff" d="
  M 371.46 194.88
  Q 372.09 195.10 372.79 194.90
  L 374.21 194.96
  A 0.44 0.44 0.0 0 0 374.66 194.47
  Q 374.63 194.24 374.41 193.99
  L 364.37 176.17
  L 362.75 173.52
  A 0.60 0.60 0.0 0 1 363.26 172.61
  L 372.68 172.65
  A 1.27 1.27 0.0 0 1 373.76 173.28
  L 391.18 203.99
  L 190.96 204.00
  Q 190.42 204.00 190.54 203.47
  Q 190.66 202.91 191.15 202.29
  L 191.76 201.07
  L 197.11 191.68
  L 207.51 173.48
  A 1.79 1.79 0.0 0 1 209.08 172.58
  L 218.05 172.65
  A 0.64 0.64 0.0 0 1 218.61 173.59
  L 207.32 194.24
  A 0.43 0.42 14.3 0 0 207.70 194.87
  L 371.46 194.88
  Z"
/>
<path fill="#000100" fill-opacity="0.396" d="
  M 364.37 176.17
  L 374.41 193.99
  Q 373.71 194.73 372.79 194.90
  Q 372.09 195.10 371.46 194.88
  Q 372.36 194.58 371.75 192.97
  Q 370.95 190.88 369.85 190.18
  Q 369.36 189.86 369.15 189.32
  L 368.32 187.25
  Q 368.11 186.72 367.57 186.55
  Q 366.54 186.23 366.36 184.77
  Q 366.21 183.50 365.67 182.42
  Q 364.92 180.95 364.09 179.54
  C 363.36 178.31 363.39 177.15 364.37 176.17
  Z"
/>
<path fill="#000100" fill-opacity="0.396" d="
  M 197.11 191.68
  L 191.76 201.07
  Q 191.59 200.56 191.82 200.03
  Q 193.79 195.41 197.11 191.68
  Z"
/>
<path fill="#020202" fill-opacity="0.976" d="
  M 374.41 193.99
  Q 374.63 194.24 374.66 194.47
  A 0.44 0.44 0.0 0 1 374.21 194.96
  L 372.79 194.90
  Q 373.71 194.73 374.41 193.99
  Z"
/>
<path fill="#000100" fill-opacity="0.396" d="
  M 191.15 202.29
  Q 190.66 202.91 190.54 203.47
  Q 190.42 204.00 190.96 204.00
  L 391.18 203.99
  Q 391.23 206.38 388.87 206.59
  C 386.17 206.83 382.88 206.38 380.38 206.38
  Q 285.88 206.38 191.39 206.38
  Q 191.37 206.38 191.37 206.37
  Q 191.37 206.37 191.37 206.37
  Q 191.37 206.31 191.43 206.31
  Q 287.19 206.41 388.33 206.35
  A 1.57 1.56 -60.3 0 0 389.13 206.13
  Q 390.20 205.49 389.79 205.07
  Q 389.50 204.77 389.17 205.04
  C 388.57 205.52 387.89 205.88 387.10 205.88
  Q 289.19 205.89 191.49 205.87
  A 1.85 1.85 0.0 0 1 189.65 203.80
  Q 189.82 202.41 191.10 200.28
  Q 191.60 199.44 191.30 200.37
  Q 191.26 200.50 191.15 200.59
  Q 190.98 200.73 190.96 200.95
  Q 190.91 201.58 191.15 202.29
  Z"
/>
</svg>
