<?xml version="1.0" encoding="UTF-8" standalone="no"?>
<!DOCTYPE svg PUBLIC "-//W3C//DTD SVG 1.1//EN" "http://www.w3.org/Graphics/SVG/1.1/DTD/svg11.dtd">
<svg xmlns="http://www.w3.org/2000/svg" version="1.1" viewBox="0.00 0.00 590.00 255.00">
<g stroke-width="2.00" fill="none" stroke-linecap="butt">
<path stroke="#414141" stroke-opacity="0.804" vector-effect="non-scaling-stroke" d="
  M 374.39 86.96
  Q 373.83 82.69 373.24 78.37
  Q 373.23 78.24 373.12 78.16
  Q 373.01 78.07 372.88 78.17
  Q 372.73 78.29 372.70 78.48
  L 372.50 80.28"
/>
<path stroke="#353535" vector-effect="non-scaling-stroke" d="
  M 372.50 80.28
  Q 372.68 77.00 371.83 77.41"
/>
<path stroke="#414141" stroke-opacity="0.804" vector-effect="non-scaling-stroke" d="
  M 371.83 77.41
  L 370.05 74.30
  A 0.46 0.46 0.0 0 0 369.22 74.35
  Q 369.03 74.83 369.66 74.88"
/>
<path stroke="#353535" vector-effect="non-scaling-stroke" d="
  M 369.66 74.88
  L 373.26 94.92
  Q 373.36 95.46 373.86 95.23
  L 377.47 93.62"
/>
<path stroke="#414141" stroke-opacity="0.804" vector-effect="non-scaling-stroke" d="
  M 388.93 90.49
  Q 399.05 89.64 409.09 90.92"
/>
<path stroke="#353535" vector-effect="non-scaling-stroke" d="
  M 443.76 72.40
  Q 447.17 72.52 450.50 72.60
  C 455.89 72.74 457.25 78.58 455.12 82.72
  Q 451.46 89.86 448.64 97.46
  Q 446.45 103.36 446.22 109.81
  C 446.09 113.68 447.31 116.66 448.91 119.99
  C 451.40 125.15 449.32 128.43 444.37 130.59
  Q 438.97 132.94 433.73 135.01
  Q 428.40 137.13 424.40 133.24"
/>
<path stroke="#414141" stroke-opacity="0.804" vector-effect="non-scaling-stroke" d="
  M 420.17 127.04
  Q 418.58 122.75 415.08 120.62"
/>
<path stroke="#414141" stroke-opacity="0.804" vector-effect="non-scaling-stroke" d="
  M 410.90 117.84
  Q 415.93 120.43 408.73 114.88"
/>
<path stroke="#414141" stroke-opacity="0.804" vector-effect="non-scaling-stroke" d="
  M 408.73 114.88
  Q 407.45 113.51 404.24 113.82"
/>
<path stroke="#414141" stroke-opacity="0.804" vector-effect="non-scaling-stroke" d="
  M 404.24 113.82
  Q 404.35 112.42 401.87 112.75"
/>
<path stroke="#414141" stroke-opacity="0.804" vector-effect="non-scaling-stroke" d="
  M 400.96 112.27
  L 403.89 112.79
  Q 404.42 112.89 404.75 113.31
  Q 405.33 114.04 406.23 113.91
  Q 407.30 113.77 406.34 113.29
  L 400.99 110.65"
/>
<path stroke="#353535" vector-effect="non-scaling-stroke" d="
  M 400.99 110.65
  C 397.06 109.04 386.57 107.03 384.00 111.71
  C 381.95 115.43 381.17 119.93 380.94 124.43
  Q 380.73 128.40 380.97 130.99
  Q 381.51 136.69 384.99 143.54"
/>
<path stroke="#353535" vector-effect="non-scaling-stroke" d="
  M 384.99 143.54
  Q 385.48 144.76 386.48 145.81"
/>
<path stroke="#414141" stroke-opacity="0.804" vector-effect="non-scaling-stroke" d="
  M 386.48 145.81
  Q 386.79 146.44 386.94 146.39"
/>
<path stroke="#353535" vector-effect="non-scaling-stroke" d="
  M 386.94 146.39
  Q 393.18 154.32 402.50 156.72"
/>
<path stroke="#353535" vector-effect="non-scaling-stroke" d="
  M 446.64 148.97
  Q 453.29 152.36 452.50 158.58
  Q 451.98 162.72 448.76 165.51
  Q 445.41 168.40 441.89 170.25
  Q 431.79 175.52 423.31 177.01
  Q 423.05 177.05 420.83 177.81
  Q 418.90 178.46 416.49 178.12
  Q 415.87 178.04 415.49 178.47
  Q 398.03 181.05 381.93 174.04
  Q 381.42 173.82 381.14 174.30
  Q 379.53 177.00 376.88 177.98
  Q 370.40 180.37 363.17 183.45
  C 360.63 184.53 358.03 184.10 355.84 182.40
  Q 336.81 167.71 318.09 152.66"
/>
<path stroke="#414141" stroke-opacity="0.804" vector-effect="non-scaling-stroke" d="
  M 318.09 152.66
  L 310.77 146.92"
/>
<path stroke="#414141" stroke-opacity="0.804" vector-effect="non-scaling-stroke" d="
  M 302.89 149.16
  Q 302.21 150.28 302.57 149.84
  Q 302.63 149.77 302.55 149.74
  Q 302.50 149.72 302.49 149.67
  Q 302.46 149.23 302.26 149.63
  Q 301.98 150.19 302.10 150.69
  Q 302.13 150.80 302.15 150.69
  Q 302.34 149.67 301.43 149.19"
/>
<path stroke="#353535" vector-effect="non-scaling-stroke" d="
  M 301.43 149.19
  Q 301.84 148.59 301.48 148.04"
/>
<path stroke="#414141" stroke-opacity="0.804" vector-effect="non-scaling-stroke" d="
  M 301.48 148.04
  L 301.90 143.00
  Q 301.94 142.51 302.28 142.17
  Q 302.73 141.72 303.38 141.86
  Q 304.21 142.05 303.67 141.38
  Q 302.92 140.45 301.80 139.99"
/>
<path stroke="#353535" vector-effect="non-scaling-stroke" d="
  M 301.80 139.99
  Q 300.37 138.47 298.57 137.56
  Q 298.08 137.32 298.18 137.85
  Q 300.26 149.18 302.19 160.85
  C 302.68 163.77 302.54 166.55 300.10 168.41
  C 296.16 171.42 290.69 173.28 286.25 175.45
  Q 280.95 178.04 275.69 175.04"
/>
<path stroke="#353535" vector-effect="non-scaling-stroke" d="
  M 264.81 123.07
  Q 264.19 119.80 262.25 116.54
  Q 261.98 116.09 261.96 116.61
  Q 261.67 122.66 261.97 124.50
  Q 264.71 141.15 267.16 157.73
  Q 268.03 163.63 262.87 165.91
  Q 254.44 169.63 246.06 171.43
  A 1.25 1.23 -5.4 0 0 245.08 172.60
  C 244.95 175.95 242.74 178.22 239.52 179.04
  Q 235.69 180.00 232.16 181.05
  C 223.98 183.48 216.52 181.21 208.97 179.49"
/>
<path stroke="#353535" vector-effect="non-scaling-stroke" d="
  M 208.97 179.49
  L 163.26 167.42"
/>
<path stroke="#353535" vector-effect="non-scaling-stroke" d="
  M 163.26 167.42
  L 156.22 165.50"
/>
<path stroke="#414141" stroke-opacity="0.804" vector-effect="non-scaling-stroke" d="
  M 156.22 165.50
  L 150.06 163.42"
/>
<path stroke="#353535" vector-effect="non-scaling-stroke" d="
  M 150.06 163.42
  L 140.22 159.68"
/>
<path stroke="#353535" vector-effect="non-scaling-stroke" d="
  M 140.22 159.68
  L 134.18 156.55"
/>
<path stroke="#353535" vector-effect="non-scaling-stroke" d="
  M 224.43 94.61
  Q 224.63 94.54 224.69 94.20
  Q 224.77 93.68 224.34 93.40
  Q 223.30 92.74 222.13 92.36
  Q 217.28 90.79 212.25 90.35
  Q 193.37 88.70 173.99 91.28
  Q 167.61 92.13 161.20 94.56
  A 0.75 0.75 0.0 0 0 160.97 95.83
  L 163.70 98.24"
/>
<path stroke="#414141" stroke-opacity="0.804" vector-effect="non-scaling-stroke" d="
  M 163.70 98.24
  Q 165.58 100.42 168.72 101.24"
/>
<path stroke="#414141" stroke-opacity="0.804" vector-effect="non-scaling-stroke" d="
  M 171.32 103.48
  L 173.97 107.12"
/>
<path stroke="#353535" vector-effect="non-scaling-stroke" d="
  M 173.97 107.12
  C 175.52 112.50 172.98 114.82 168.23 117.01
  C 162.23 119.77 157.76 122.49 150.75 119.41"
/>
<path stroke="#414141" stroke-opacity="0.804" vector-effect="non-scaling-stroke" d="
  M 150.75 119.41
  L 146.07 116.89"
/>
<path stroke="#414141" stroke-opacity="0.804" vector-effect="non-scaling-stroke" d="
  M 145.48 116.50
  L 136.43 109.80"
/>
<path stroke="#414141" stroke-opacity="0.804" vector-effect="non-scaling-stroke" d="
  M 242.28 75.93
  Q 242.57 77.27 243.77 77.20
  Q 244.25 77.17 244.58 77.52
  Q 245.46 78.45 246.58 78.53"
/>
<path stroke="#353535" vector-effect="non-scaling-stroke" d="
  M 246.58 78.53
  Q 248.46 80.00 250.33 79.93"
/>
<path stroke="#414141" stroke-opacity="0.804" vector-effect="non-scaling-stroke" d="
  M 264.71 83.67
  Q 259.34 80.45 262.49 83.56"
/>
<path stroke="#353535" vector-effect="non-scaling-stroke" d="
  M 262.49 83.56
  Q 265.20 87.40 263.90 92.26
  A 0.65 0.65 0.0 0 0 264.76 93.04
  L 267.57 91.99"
/>
<path stroke="#414141" stroke-opacity="0.804" vector-effect="non-scaling-stroke" d="
  M 280.13 88.70
  Q 282.23 91.13 284.50 91.71"
/>
<path stroke="#353535" vector-effect="non-scaling-stroke" d="
  M 284.50 91.71
  Q 291.16 96.99 297.61 102.50
  Q 298.38 103.15 299.20 103.79
  Q 314.63 115.80 330.51 127.63"
/>
<path stroke="#353535" vector-effect="non-scaling-stroke" d="
  M 331.38 128.30
  L 335.55 131.44"
/>
<path stroke="#414141" stroke-opacity="0.804" vector-effect="non-scaling-stroke" d="
  M 335.55 131.44
  L 346.54 139.80"
/>
<path stroke="#353535" vector-effect="non-scaling-stroke" d="
  M 350.13 142.93
  Q 350.06 143.19 350.26 143.40
  Q 350.64 143.79 350.81 143.27
  Q 351.06 142.51 350.70 141.49"
/>
<path stroke="#000000" stroke-opacity="0.804" vector-effect="non-scaling-stroke" d="
  M 334.41 130.33
  L 335.55 131.44"
/>
<path stroke="#000000" stroke-opacity="0.804" vector-effect="non-scaling-stroke" d="
  M 318.09 152.66
  Q 318.00 152.85 317.91 153.04"
/>
<path stroke="#000000" stroke-opacity="0.804" vector-effect="non-scaling-stroke" d="
  M 150.06 163.42
  L 145.57 162.49
  Q 145.08 162.39 144.76 162.00
  Q 144.06 161.17 142.90 161.56"
/>
<path stroke="#000000" stroke-opacity="0.804" vector-effect="non-scaling-stroke" d="
  M 140.22 159.68
  L 136.34 158.42"
/>
<path stroke="#000000" stroke-opacity="0.804" vector-effect="non-scaling-stroke" d="
  M 393.03 151.51
  Q 394.10 152.77 395.53 153.18"
/>
<path stroke="#000000" stroke-opacity="0.804" vector-effect="non-scaling-stroke" d="
  M 392.56 150.98
  L 386.94 146.39"
/>
<path stroke="#000000" stroke-opacity="0.804" vector-effect="non-scaling-stroke" d="
  M 386.48 145.81
  Q 386.81 143.91 384.99 143.54"
/>
<path stroke="#000000" stroke-opacity="0.804" vector-effect="non-scaling-stroke" d="
  M 176.31 113.18
  Q 174.32 116.43 171.12 117.64
  Q 167.53 118.99 162.88 121.07
  Q 161.06 121.89 154.49 121.19
  Q 154.08 121.15 154.18 121.55
  L 154.30 122.03
  A 0.46 0.44 85.9 0 0 154.67 122.36
  Q 157.20 122.78 159.88 122.59
  Q 160.38 122.56 159.91 122.72
  Q 159.83 122.75 159.75 122.74
  Q 157.50 122.59 155.29 122.80"
/>
<path stroke="#000000" stroke-opacity="0.804" vector-effect="non-scaling-stroke" d="
  M 150.99 120.00
  Q 150.74 119.72 150.75 119.41"
/>
<path stroke="#000000" stroke-opacity="0.804" vector-effect="non-scaling-stroke" d="
  M 301.80 139.99
  Q 301.19 140.64 300.61 141.18
  Q 300.52 141.27 300.48 141.15
  Q 300.43 141.01 300.41 140.90
  Q 300.36 140.69 300.28 140.89
  Q 300.05 141.50 300.23 142.12
  Q 301.11 145.03 301.15 147.83
  Q 301.15 147.92 301.23 147.98
  Q 301.32 148.04 301.48 148.04"
/>
<path stroke="#000000" stroke-opacity="0.804" vector-effect="non-scaling-stroke" d="
  M 301.43 149.19
  Q 302.26 155.85 303.40 160.92
  Q 304.37 165.20 304.68 160.83
  Q 304.77 159.66 303.88 156.30"
/>
<path stroke="#000000" stroke-opacity="0.804" vector-effect="non-scaling-stroke" d="
  M 156.22 165.50
  Q 159.49 167.17 163.26 167.42"
/>
<path stroke="#000000" stroke-opacity="0.804" vector-effect="non-scaling-stroke" d="
  M 163.26 167.42
  Q 163.29 167.56 163.34 167.70
  Q 163.41 167.91 163.62 167.96
  L 177.50 171.73
  Q 178.67 172.05 177.45 172.04
  C 176.43 172.03 175.29 171.65 174.29 171.62
  Q 174.17 171.62 174.29 171.64
  Q 174.44 171.66 174.49 171.83
  Q 174.56 172.07 174.81 171.99
  Q 175.91 171.61 176.83 172.20
  Q 177.25 172.46 177.73 172.40
  Q 180.15 172.10 182.01 173.35
  Q 182.45 173.65 182.98 173.61
  Q 184.32 173.51 185.62 173.86
  Q 188.87 174.72 192.25 175.52
  Q 192.78 175.65 193.07 175.87
  Q 193.45 176.15 193.92 176.20
  Q 197.27 176.58 200.66 177.86
  Q 201.42 178.15 200.62 178.33
  Q 199.49 178.60 198.48 178.08
  Q 198.07 177.87 197.61 177.87
  L 196.83 177.87
  Q 196.54 177.87 196.82 177.80
  Q 197.56 177.62 198.00 178.20
  A 1.05 1.05 0.0 0 0 198.70 178.59
  C 200.42 178.76 202.80 178.07 203.97 179.77"
/>
<path stroke="#000000" stroke-opacity="0.804" vector-effect="non-scaling-stroke" d="
  M 246.35 77.89
  Q 246.13 78.25 246.58 78.53"
/>
<path stroke="#000000" stroke-opacity="0.804" vector-effect="non-scaling-stroke" d="
  M 140.22 159.68
  Q 140.32 159.87 140.36 160.04
  Q 140.43 160.36 140.75 160.38
  Q 141.94 160.46 142.55 161.45"
/>
<path stroke="#000000" stroke-opacity="0.804" vector-effect="non-scaling-stroke" d="
  M 219.64 92.57
  Q 217.59 91.22 215.00 91.01
  Q 204.39 90.12 193.75 90.44
  Q 192.65 90.48 191.74 90.87
  Q 191.30 91.06 190.83 91.08
  L 181.55 91.53
  A 0.41 0.41 0.0 0 0 181.17 91.83
  Q 181.06 92.22 181.32 92.25"
/>
<path stroke="#000000" stroke-opacity="0.804" vector-effect="non-scaling-stroke" d="
  M 181.32 92.25
  L 176.81 92.44
  A 0.16 0.16 0.0 0 0 176.78 92.76
  Q 179.20 93.33 181.32 92.25"
/>
<path stroke="#000000" stroke-opacity="0.804" vector-effect="non-scaling-stroke" d="
  M 181.32 92.25
  L 191.73 92.03"
/>
<path stroke="#000000" stroke-opacity="0.804" vector-effect="non-scaling-stroke" d="
  M 174.78 93.06
  C 171.76 92.51 170.44 93.45 167.94 93.72
  Q 167.76 93.75 167.61 93.86
  Q 167.42 93.99 167.40 94.23
  Q 167.36 94.63 167.00 94.80
  L 164.06 96.21
  Q 163.68 96.39 163.64 96.81
  Q 163.56 97.50 163.70 98.24"
/>
<path stroke="#000000" stroke-opacity="0.804" vector-effect="non-scaling-stroke" d="
  M 400.99 110.65
  Q 400.21 110.53 399.48 110.53
  Q 398.46 110.52 399.42 110.85
  Q 399.79 110.98 400.08 111.29
  Q 400.12 111.33 400.12 111.38
  Q 400.11 111.44 400.05 111.44
  Q 399.97 111.45 399.92 111.40
  Q 397.68 109.55 395.40 110.88
  Q 394.97 111.13 394.46 111.13
  Q 392.99 111.11 391.53 111.15
  Q 391.30 111.16 391.31 111.39
  L 391.31 111.40
  Q 391.32 111.59 391.51 111.59
  Q 394.81 111.58 398.11 111.71"
/>
<path stroke="#000000" stroke-opacity="0.804" vector-effect="non-scaling-stroke" d="
  M 383.72 136.26
  L 384.99 143.54"
/>
<path stroke="#000000" stroke-opacity="0.804" vector-effect="non-scaling-stroke" d="
  M 267.87 165.23
  L 263.22 168.60"
/>
<path stroke="#000000" stroke-opacity="0.804" vector-effect="non-scaling-stroke" d="
  M 257.29 171.03
  Q 254.27 171.42 251.44 171.97
  Q 251.39 171.98 251.39 172.03
  Q 251.39 172.04 251.38 171.92
  Q 251.37 171.85 251.44 171.88
  Q 251.93 172.04 252.13 171.74
  Q 252.34 171.44 251.97 171.42
  Q 250.18 171.29 248.76 171.92
  Q 247.23 172.60 246.64 174.24
  Q 245.96 176.12 245.08 177.57
  Q 244.49 178.53 243.00 179.19
  Q 242.73 179.30 242.63 179.03
  Q 242.56 178.83 242.36 178.88
  Q 241.72 179.05 241.60 179.69
  A 0.81 0.80 -12.2 0 1 241.26 180.21
  L 238.98 181.76"
/>
<path stroke="#000000" stroke-opacity="0.804" vector-effect="non-scaling-stroke" d="
  M 238.98 181.76
  Q 238.05 181.59 237.04 181.61
  Q 236.78 181.62 236.75 181.88
  Q 236.74 181.93 236.77 181.98
  Q 237.06 182.37 236.57 182.45
  Q 235.26 182.67 233.93 182.84
  A 1.90 1.81 24.1 0 0 233.16 183.11
  Q 232.25 183.69 231.10 183.32
  A 0.05 0.05 0.0 0 1 231.08 183.24
  Q 231.23 183.11 231.31 182.96
  Q 231.52 182.56 231.07 182.57
  Q 226.72 182.69 222.73 182.61
  Q 220.16 182.56 215.99 181.47
  Q 212.68 180.61 209.34 180.14"
/>
<path stroke="#000000" vector-effect="non-scaling-stroke" d="
  M 209.34 180.14
  Q 207.97 179.31 208.97 179.49"
/>
<path stroke="#000000" stroke-opacity="0.804" vector-effect="non-scaling-stroke" d="
  M 371.83 77.41
  L 369.66 74.88"
/>
<path stroke="#000000" stroke-opacity="0.804" vector-effect="non-scaling-stroke" d="
  M 372.50 80.28
  L 372.32 79.21
  Q 372.16 78.21 371.86 79.17
  Q 371.68 79.73 371.81 80.30
  Q 372.81 85.01 373.47 89.75
  C 373.63 90.91 374.18 91.80 374.31 93.03
  Q 374.41 94.01 374.71 93.07
  Q 375.13 91.75 375.01 90.28"
/>
<path stroke="#000000" stroke-opacity="0.804" vector-effect="non-scaling-stroke" d="
  M 436.30 136.68
  L 429.46 136.52"
/>
<path stroke="#000000" stroke-opacity="0.804" vector-effect="non-scaling-stroke" d="
  M 265.85 91.14
  Q 265.55 90.53 265.38 88.25
  Q 265.19 85.79 262.49 83.56"
/>
<path stroke="#000000" stroke-opacity="0.804" vector-effect="non-scaling-stroke" d="
  M 398.30 180.47
  Q 397.73 178.85 394.72 179.56"
/>
<path stroke="#000000" stroke-opacity="0.804" vector-effect="non-scaling-stroke" d="
  M 176.26 111.76
  Q 176.05 108.97 173.97 107.12"
/>
<path stroke="#000000" stroke-opacity="0.804" vector-effect="non-scaling-stroke" d="
  M 282.02 89.78
  L 284.50 91.71"
/>
<path stroke="#000000" stroke-opacity="0.804" vector-effect="non-scaling-stroke" d="
  M 209.34 180.14
  Q 206.58 180.37 205.34 179.31
  Q 204.38 178.49 203.37 178.47
  Q 202.67 178.46 203.24 178.86
  Q 204.90 180.05 206.59 180.37
  A 0.01 0.01 0.0 0 1 206.58 180.39
  Q 206.06 180.38 205.58 180.56"
/>
<path stroke="#353535" vector-effect="non-scaling-stroke" d="
  M 160.79 144.99
  A 0.48 0.48 0.0 0 1 160.99 144.28
  Q 187.65 132.34 214.21 120.58
  Q 222.75 116.80 234.02 111.28
  Q 240.13 108.29 244.63 103.74
  A 2.64 2.63 22.9 0 1 246.54 102.97
  Q 253.08 103.12 257.63 98.57
  C 260.54 95.67 263.21 89.19 260.24 85.33
  C 257.70 82.04 252.60 82.74 248.95 82.99
  A 2.18 2.15 -27.8 0 1 247.50 82.55
  Q 242.66 78.78 236.92 77.23
  Q 221.81 73.13 205.94 73.47
  Q 195.34 73.70 186.20 74.86
  C 172.84 76.55 159.14 78.95 147.02 84.14
  C 137.25 88.33 126.40 97.65 138.51 107.99
  Q 143.70 112.42 150.54 116.41
  C 156.99 120.16 162.87 116.78 168.85 113.96
  C 171.01 112.94 172.87 110.99 171.63 108.54
  Q 171.08 107.46 168.63 105.64
  Q 162.67 101.20 157.23 96.07
  A 0.97 0.97 0.0 0 1 157.13 94.76
  Q 158.73 92.71 161.47 91.77
  C 172.71 87.88 183.55 87.39 195.50 87.08
  Q 204.39 86.85 212.55 87.45
  C 217.39 87.81 223.91 89.15 227.55 92.58
  A 1.67 1.67 0.0 0 1 227.69 94.85
  Q 224.30 99.00 219.24 102.42
  Q 207.61 110.30 196.05 115.33
  Q 177.61 123.37 156.59 132.77
  Q 146.73 137.18 137.50 142.10
  C 133.64 144.15 128.83 148.23 133.37 152.26
  Q 136.37 154.92 140.10 156.60
  Q 150.10 161.12 161.54 164.35
  Q 188.26 171.91 214.76 178.33
  C 219.82 179.56 226.04 180.21 230.81 178.88
  Q 234.86 177.75 240.29 176.15
  C 242.78 175.42 243.00 171.83 242.62 169.58
  Q 242.41 168.37 243.64 168.47
  C 245.24 168.61 246.95 168.62 248.51 168.21
  Q 253.92 166.78 260.98 164.02
  C 263.81 162.91 264.81 160.38 264.31 157.41
  Q 261.55 140.73 259.48 125.15
  Q 259.09 122.20 259.55 118.97
  C 260.33 113.44 254.92 111.48 250.44 112.62
  Q 244.22 114.20 238.16 116.16
  C 234.57 117.31 234.35 120.35 235.03 123.48
  A 0.67 0.67 0.0 0 1 234.50 124.28
  C 229.45 125.23 224.92 126.77 220.14 128.52
  C 217.66 129.43 216.31 131.48 217.18 134.05
  Q 222.11 148.71 220.96 161.58
  A 0.43 0.43 0.0 0 1 220.42 161.96
  C 200.51 156.55 180.98 151.85 161.55 145.54
  Q 161.06 145.38 160.79 144.99"
/>
<path stroke="#353535" vector-effect="non-scaling-stroke" d="
  M 294.53 132.12
  Q 294.43 130.77 295.50 131.59
  C 311.46 143.86 327.57 157.32 342.53 168.80
  C 346.74 172.03 351.97 176.43 356.99 180.18
  C 359.42 182.01 361.34 181.75 363.92 180.71
  Q 370.40 178.12 376.19 175.75
  Q 379.56 174.38 379.01 170.54
  A 0.52 0.52 0.0 0 1 379.81 170.03
  C 398.11 181.67 427.49 177.12 444.76 166.09
  Q 447.37 164.42 449.09 161.77
  C 451.27 158.40 450.51 153.81 446.67 152.19
  C 443.24 150.74 439.65 152.42 436.69 154.31
  Q 433.09 156.60 428.88 159.29
  C 425.79 161.27 423.01 161.97 419.43 162.11
  Q 405.40 162.67 393.82 155.73
  C 383.11 149.31 377.95 138.94 378.16 126.58
  C 378.25 121.17 378.83 115.93 381.28 111.22
  Q 383.83 106.33 389.08 106.15
  C 403.83 105.64 415.96 114.97 423.53 126.93
  C 426.23 131.19 427.67 135.02 433.81 132.40
  Q 439.70 129.89 444.97 127.54
  A 4.00 3.99 65.9 0 0 446.99 122.24
  C 445.42 118.76 444.01 115.62 444.07 111.71
  Q 444.25 101.11 448.90 91.62
  C 450.78 87.79 452.15 84.81 453.88 81.59
  C 455.37 78.83 454.51 75.21 450.91 75.04
  Q 446.01 74.81 442.25 75.38
  C 435.09 76.46 429.64 81.86 427.79 88.70
  C 426.91 91.96 425.63 95.00 424.41 98.05
  A 0.64 0.64 0.0 0 1 423.55 98.40
  Q 404.18 89.65 383.50 94.44
  Q 377.66 95.78 371.73 99.91
  Q 371.20 100.29 371.09 99.64
  Q 369.10 88.23 367.17 77.51
  C 366.71 74.96 365.42 72.77 362.28 73.47
  Q 354.62 75.17 346.36 77.60
  C 343.94 78.32 342.40 80.12 342.95 82.76
  Q 345.27 93.75 347.69 106.91
  Q 348.07 108.97 348.44 110.96
  Q 351.57 127.68 353.78 144.52
  Q 354.06 146.62 353.92 148.71
  A 0.24 0.24 0.0 0 1 353.53 148.89
  Q 326.46 127.87 300.16 106.90
  C 294.13 102.09 287.93 98.01 281.90 93.14
  C 279.78 91.43 277.30 90.71 274.70 91.83
  Q 268.69 94.42 261.66 97.34
  C 258.60 98.62 258.41 102.31 259.79 104.90
  Q 264.13 113.06 267.57 121.54
  C 268.73 124.39 269.11 127.38 270.10 130.30
  Q 271.26 133.72 271.90 137.18
  Q 274.72 152.52 275.93 169.54
  Q 276.06 171.25 277.36 172.47
  Q 280.06 175.02 284.14 173.60
  Q 291.40 171.09 298.15 167.14
  C 299.68 166.25 300.12 164.83 299.79 163.12
  Q 297.70 152.06 296.02 141.00
  C 295.57 138.04 294.77 135.09 294.53 132.12"
/>
<path stroke="#414141" stroke-opacity="0.804" vector-effect="non-scaling-stroke" d="
  M 171.99 145.92
  L 174.56 146.87
  Q 175.64 147.27 174.97 146.33
  Q 174.87 146.19 174.78 146.03
  Q 174.48 145.47 174.64 145.00
  Q 174.86 144.34 175.97 144.36"
/>
<path stroke="#414141" stroke-opacity="0.804" vector-effect="non-scaling-stroke" d="
  M 177.05 144.07
  Q 177.31 143.28 178.64 143.27"
/>
<path stroke="#414141" stroke-opacity="0.804" vector-effect="non-scaling-stroke" d="
  M 182.21 149.02
  Q 183.92 150.41 186.55 150.14"
/>
<path stroke="#414141" stroke-opacity="0.804" vector-effect="non-scaling-stroke" d="
  M 216.83 126.59
  L 223.35 124.35"
/>
<path stroke="#353535" vector-effect="non-scaling-stroke" d="
  M 232.38 118.49
  Q 233.54 114.81 237.00 113.79
  Q 241.85 112.36 245.08 111.04"
/>
<path stroke="#353535" vector-effect="non-scaling-stroke" d="
  M 259.37 111.43
  Q 259.72 112.18 260.28 112.69
  Q 260.71 113.08 260.57 112.51
  Q 260.29 111.28 259.49 110.17"
/>
<path stroke="#353535" vector-effect="non-scaling-stroke" d="
  M 257.80 106.65
  L 256.09 103.79
  Q 255.78 103.27 255.26 103.58
  Q 251.52 105.85 247.13 105.66
  Q 246.52 105.63 246.08 106.05
  Q 242.11 109.87 237.55 112.16
  C 234.20 113.85 231.14 115.89 227.71 117.49
  Q 207.60 126.88 187.47 135.24
  C 180.94 137.95 174.66 141.25 168.18 143.93
  Q 166.86 144.47 168.23 144.86
  L 171.99 145.92"
/>
<path stroke="#000000" stroke-opacity="0.804" vector-effect="non-scaling-stroke" d="
  M 226.22 120.54
  Q 225.94 120.19 225.75 120.26
  Q 221.61 121.83 217.47 123.50
  C 215.76 124.19 214.50 125.28 212.75 125.79
  C 210.40 126.48 208.30 127.88 206.20 129.27
  Q 205.71 129.60 205.12 129.55
  Q 204.11 129.48 203.41 130.09
  Q 203.12 130.35 202.75 130.44
  Q 200.32 131.08 197.71 132.35
  Q 193.62 134.35 189.03 136.08
  Q 186.74 136.94 184.67 138.29
  Q 183.30 139.18 181.64 139.67
  Q 179.18 140.37 177.24 141.75
  Q 176.55 142.24 177.39 142.23
  Q 178.02 142.22 178.54 141.81
  Q 178.59 141.77 178.63 141.83
  Q 178.68 141.90 178.62 141.84
  Q 178.60 141.82 178.57 141.84
  Q 176.86 143.21 174.97 143.41
  Q 174.92 143.41 174.88 143.45
  Q 174.85 143.47 174.85 143.37
  Q 174.85 143.30 174.91 143.33
  Q 175.11 143.43 175.35 143.34
  Q 175.64 143.24 175.41 143.04
  Q 175.01 142.68 174.50 142.96
  Q 174.15 143.16 173.76 143.27
  Q 170.77 144.14 171.99 145.92"
/>
<path stroke="#808080" vector-effect="non-scaling-stroke" d="
  M 223.06 165.99
  A 0.92 0.92 0.0 0 1 222.68 165.99
  Q 197.00 159.49 176.02 153.52
  Q 164.26 150.17 152.70 146.12
  A 0.67 0.67 0.0 0 1 152.51 144.97
  Q 153.70 144.01 155.11 143.36
  Q 166.15 138.24 177.61 133.14
  Q 198.30 123.93 221.49 113.68
  Q 228.81 110.44 237.66 105.15
  Q 241.31 102.97 243.66 99.81
  A 1.00 1.00 0.0 0 1 244.60 99.41
  Q 254.64 100.72 258.09 91.38
  C 260.73 84.27 250.47 85.93 247.34 86.85
  Q 246.79 87.01 246.45 86.55
  Q 244.00 83.27 239.53 81.69
  Q 226.04 76.95 211.58 76.84
  Q 182.13 76.63 155.09 84.55
  Q 148.21 86.56 141.13 91.30
  C 137.06 94.03 133.89 98.94 138.25 103.10
  Q 144.67 109.21 152.45 113.63
  C 154.73 114.93 157.58 115.07 159.99 114.09
  Q 164.04 112.44 168.39 110.34
  A 0.43 0.43 0.0 0 0 168.45 109.60
  Q 161.38 104.72 155.38 98.99
  C 150.66 94.49 155.78 90.30 159.97 88.70
  Q 166.19 86.34 171.98 85.50
  Q 191.35 82.70 211.45 84.02
  C 217.26 84.41 227.20 86.24 230.77 90.96
  Q 233.21 94.19 229.48 98.07
  Q 223.95 103.84 215.84 108.57
  Q 205.01 114.90 195.47 119.18
  Q 177.59 127.20 159.33 135.12
  C 152.66 138.01 146.36 141.29 139.70 144.68
  Q 136.98 146.07 135.27 147.88
  A 1.17 1.17 0.0 0 0 135.28 149.51
  Q 137.19 151.45 140.16 152.87
  Q 148.07 156.63 155.15 158.75
  Q 184.16 167.41 215.92 174.99
  C 219.79 175.91 224.44 176.76 228.25 175.90
  Q 232.90 174.86 238.72 172.89
  A 0.72 0.70 -7.1 0 0 239.21 172.28
  Q 239.87 165.63 240.53 158.82
  Q 241.40 149.78 239.60 140.70
  Q 238.37 134.52 236.83 128.22
  A 1.05 1.04 -11.6 0 0 235.64 127.44
  Q 228.18 128.70 220.84 131.77
  A 0.89 0.88 68.9 0 0 220.35 132.89
  Q 225.97 148.13 224.05 164.50
  Q 223.89 165.79 223.06 165.99"
/>
<path stroke="#808080" vector-effect="non-scaling-stroke" d="
  M 250.50 164.14
  Q 255.01 162.52 259.51 160.98
  Q 261.54 160.28 260.99 158.20
  Q 260.32 155.66 260.09 152.99
  Q 259.59 147.05 258.76 142.00
  Q 257.30 133.09 256.00 123.75
  Q 255.70 121.54 256.24 119.04
  C 256.83 116.36 254.19 115.14 252.02 115.67
  Q 245.88 117.17 238.82 119.54
  A 0.86 0.86 0.0 0 0 238.23 120.41
  C 238.51 125.41 239.02 130.42 239.86 135.32
  Q 242.21 149.02 243.62 164.21
  Q 243.71 165.25 244.75 165.26
  Q 247.28 165.29 250.50 164.14"
/>
<path stroke="#808080" vector-effect="non-scaling-stroke" d="
  M 375.10 163.05
  C 395.08 177.86 421.47 175.39 442.23 163.43
  C 444.99 161.83 448.27 158.19 445.20 155.11
  Q 444.79 154.69 444.21 154.76
  Q 442.62 154.97 441.17 155.76
  Q 436.28 158.43 431.42 161.72
  C 427.50 164.37 423.43 165.35 418.80 165.53
  C 398.13 166.35 375.45 153.40 374.91 130.40
  C 374.61 118.16 375.52 101.41 392.75 102.76
  C 408.85 104.02 421.62 115.63 429.00 129.33
  A 1.28 1.28 0.0 0 0 430.62 129.90
  L 443.67 124.41
  A 0.67 0.67 0.0 0 0 444.03 123.54
  Q 442.97 120.99 441.79 118.44
  Q 440.72 116.15 440.66 113.40
  Q 440.49 105.88 441.19 103.10
  Q 444.29 90.78 450.65 79.47
  A 0.71 0.71 0.0 0 0 450.04 78.42
  C 447.08 78.41 443.81 78.20 440.93 79.02
  Q 434.44 80.86 431.67 87.92
  Q 428.82 95.16 426.24 102.71
  Q 425.89 103.73 424.97 103.17
  C 409.60 93.82 382.57 92.10 369.47 106.36
  A 0.45 0.44 -28.2 0 1 368.70 106.13
  C 368.01 101.56 366.95 97.22 366.41 92.58
  Q 365.49 84.67 363.83 77.11
  A 0.87 0.86 75.8 0 0 362.75 76.46
  L 346.76 80.84
  A 0.92 0.91 74.5 0 0 346.12 81.98
  C 347.67 87.23 348.06 92.58 349.17 97.96
  Q 352.76 115.28 355.87 133.07
  C 357.22 140.81 357.50 147.68 357.18 155.00
  A 0.51 0.50 -69.8 0 1 356.37 155.38
  L 278.53 94.97
  A 2.04 2.04 0.0 0 0 276.49 94.70
  L 262.43 100.61
  A 1.00 0.99 -27.0 0 0 261.96 102.03
  Q 264.13 105.69 266.00 109.39
  Q 267.66 112.68 269.25 117.14
  Q 270.99 122.00 272.84 127.32
  Q 275.73 135.62 277.01 147.63
  Q 278.23 159.08 278.85 168.33
  A 2.59 2.59 0.0 0 0 282.39 170.57
  Q 288.50 168.13 295.18 164.86
  A 1.96 1.96 0.0 0 0 296.25 162.79
  L 289.91 123.76
  Q 289.73 122.65 290.61 123.35
  L 359.00 177.46
  A 2.51 2.50 53.0 0 0 361.50 177.82
  L 374.87 172.42
  A 1.16 1.15 74.8 0 0 375.58 171.17
  L 374.40 163.47
  Q 374.24 162.41 375.10 163.05"
/>
<path stroke="#000000" stroke-opacity="0.804" vector-effect="non-scaling-stroke" d="
  M 191.3179 90.7300
  A 4.72 0.24 -1.7 0 0 186.5929 90.6301
  A 4.72 0.24 -1.7 0 0 181.8821 91.0100
  A 4.72 0.24 -1.7 0 0 186.6071 91.1099
  A 4.72 0.24 -1.7 0 0 191.3179 90.7300"
/>
<path stroke="#000000" stroke-opacity="0.804" vector-effect="non-scaling-stroke" d="
  M 386.76 112.77
  C 387.58 111.55 388.62 111.38 389.94 111.10
  Q 390.00 111.09 389.99 111.03
  L 389.94 110.77
  Q 389.90 110.53 389.65 110.55
  Q 386.92 110.73 385.62 112.98
  Q 384.53 114.86 383.98 117.62
  Q 383.94 117.79 384.11 117.77
  Q 384.33 117.74 384.53 117.61
  A 0.64 0.64 0.0 0 0 384.81 117.19
  Q 385.18 115.15 386.76 112.77"
/>
<path stroke="#000000" stroke-opacity="0.804" vector-effect="non-scaling-stroke" d="
  M 382.08 125.37
  Q 382.25 128.74 382.08 132.12
  Q 382.08 132.15 382.10 132.15
  L 382.41 132.24
  Q 382.59 132.30 382.60 132.10
  Q 382.65 128.81 382.60 125.54
  Q 382.59 125.33 382.37 125.33
  L 382.12 125.34
  A 0.04 0.03 0.0 0 0 382.08 125.37"
/>
</g>
<path fill="#696969" d="
  M 374.39 86.96
  Q 373.83 82.69 373.24 78.37
  Q 373.23 78.24 373.12 78.16
  Q 373.01 78.07 372.88 78.17
  Q 372.73 78.29 372.70 78.48
  L 372.50 80.28
  Q 372.68 77.00 371.83 77.41
  L 370.05 74.30
  A 0.46 0.46 0.0 0 0 369.22 74.35
  Q 369.03 74.83 369.66 74.88
  L 373.26 94.92
  Q 373.36 95.46 373.86 95.23
  L 377.47 93.62
  Q 383.14 91.31 388.93 90.49
  Q 399.05 89.64 409.09 90.92
  Q 413.18 91.42 417.33 92.17
  Q 417.36 92.17 417.37 92.15
  Q 417.37 92.14 417.37 92.13
  Q 417.39 92.06 417.32 92.07
  Q 416.21 92.24 415.15 91.77
  Q 414.95 91.68 414.88 91.88
  L 414.87 91.89
  Q 414.80 92.10 415.01 92.17
  Q 418.50 93.27 421.90 94.62
  A 0.75 0.74 -64.4 0 0 422.82 94.29
  Q 423.49 93.13 423.92 91.84
  Q 425.13 88.16 426.55 84.62
  C 429.47 77.36 435.89 72.95 443.76 72.40
  Q 447.17 72.52 450.50 72.60
  C 455.89 72.74 457.25 78.58 455.12 82.72
  Q 451.46 89.86 448.64 97.46
  Q 446.45 103.36 446.22 109.81
  C 446.09 113.68 447.31 116.66 448.91 119.99
  C 451.40 125.15 449.32 128.43 444.37 130.59
  Q 438.97 132.94 433.73 135.01
  Q 428.40 137.13 424.40 133.24
  L 420.17 127.04
  Q 418.58 122.75 415.08 120.62
  L 410.90 117.84
  Q 415.93 120.43 408.73 114.88
  Q 407.45 113.51 404.24 113.82
  Q 404.35 112.42 401.87 112.75
  Q 401.80 112.52 400.96 112.27
  L 403.89 112.79
  Q 404.42 112.89 404.75 113.31
  Q 405.33 114.04 406.23 113.91
  Q 407.30 113.77 406.34 113.29
  L 400.99 110.65
  C 397.06 109.04 386.57 107.03 384.00 111.71
  C 381.95 115.43 381.17 119.93 380.94 124.43
  Q 380.73 128.40 380.97 130.99
  Q 381.51 136.69 384.99 143.54
  Q 385.48 144.76 386.48 145.81
  Q 386.79 146.44 386.94 146.39
  Q 393.18 154.32 402.50 156.72
  Q 411.16 160.02 420.24 159.27
  C 423.08 159.04 425.35 158.49 427.82 156.83
  Q 433.19 153.22 438.75 150.20
  Q 442.60 148.11 446.64 148.97
  Q 453.29 152.36 452.50 158.58
  Q 451.98 162.72 448.76 165.51
  Q 445.41 168.40 441.89 170.25
  Q 431.79 175.52 423.31 177.01
  Q 423.05 177.05 420.83 177.81
  Q 418.90 178.46 416.49 178.12
  Q 415.87 178.04 415.49 178.47
  Q 398.03 181.05 381.93 174.04
  Q 381.42 173.82 381.14 174.30
  Q 379.53 177.00 376.88 177.98
  Q 370.40 180.37 363.17 183.45
  C 360.63 184.53 358.03 184.10 355.84 182.40
  Q 336.81 167.71 318.09 152.66
  L 310.77 146.92
  L 304.87 142.54
  A 1.71 1.71 0.0 0 0 302.14 143.76
  Q 301.91 146.41 302.89 149.16
  Q 302.21 150.28 302.57 149.84
  Q 302.63 149.77 302.55 149.74
  Q 302.50 149.72 302.49 149.67
  Q 302.46 149.23 302.26 149.63
  Q 301.98 150.19 302.10 150.69
  Q 302.13 150.80 302.15 150.69
  Q 302.34 149.67 301.43 149.19
  Q 301.84 148.59 301.48 148.04
  L 301.90 143.00
  Q 301.94 142.51 302.28 142.17
  Q 302.73 141.72 303.38 141.86
  Q 304.21 142.05 303.67 141.38
  Q 302.92 140.45 301.80 139.99
  Q 300.37 138.47 298.57 137.56
  Q 298.08 137.32 298.18 137.85
  Q 300.26 149.18 302.19 160.85
  C 302.68 163.77 302.54 166.55 300.10 168.41
  C 296.16 171.42 290.69 173.28 286.25 175.45
  Q 280.95 178.04 275.69 175.04
  C 272.73 171.82 273.15 169.09 272.78 165.00
  Q 271.11 146.42 268.60 133.91
  Q 267.85 130.17 264.81 123.07
  Q 264.19 119.80 262.25 116.54
  Q 261.98 116.09 261.96 116.61
  Q 261.67 122.66 261.97 124.50
  Q 264.71 141.15 267.16 157.73
  Q 268.03 163.63 262.87 165.91
  Q 254.44 169.63 246.06 171.43
  A 1.25 1.23 -5.4 0 0 245.08 172.60
  C 244.95 175.95 242.74 178.22 239.52 179.04
  Q 235.69 180.00 232.16 181.05
  C 223.98 183.48 216.52 181.21 208.97 179.49
  L 163.26 167.42
  L 156.22 165.50
  L 150.06 163.42
  L 140.22 159.68
  L 134.18 156.55
  C 129.49 154.04 126.60 148.33 130.55 143.80
  Q 131.84 142.31 135.77 139.94
  Q 138.81 138.10 142.14 136.50
  Q 160.28 127.81 178.93 119.95
  C 192.63 114.17 207.38 107.34 220.18 98.42
  Q 222.63 96.71 224.43 94.61
  Q 224.63 94.54 224.69 94.20
  Q 224.77 93.68 224.34 93.40
  Q 223.30 92.74 222.13 92.36
  Q 217.28 90.79 212.25 90.35
  Q 193.37 88.70 173.99 91.28
  Q 167.61 92.13 161.20 94.56
  A 0.75 0.75 0.0 0 0 160.97 95.83
  L 163.70 98.24
  Q 165.58 100.42 168.72 101.24
  Q 169.29 102.68 171.32 103.48
  L 173.97 107.12
  C 175.52 112.50 172.98 114.82 168.23 117.01
  C 162.23 119.77 157.76 122.49 150.75 119.41
  L 146.07 116.89
  Q 145.58 116.70 145.48 116.50
  L 136.43 109.80
  Q 136.09 109.33 135.69 109.15
  Q 135.12 108.89 135.45 109.42
  L 137.19 112.23
  Q 137.55 112.80 138.23 112.77
  Q 139.02 112.72 139.28 113.46
  Q 139.63 114.42 139.07 113.57
  Q 138.69 112.99 138.14 113.06
  Q 137.70 113.12 137.41 112.77
  Q 134.33 109.00 131.67 104.03
  C 126.99 95.28 134.33 87.76 141.78 83.71
  Q 148.79 79.91 155.72 78.02
  Q 185.90 69.78 215.50 70.77
  Q 228.82 71.21 242.28 75.93
  Q 242.57 77.27 243.77 77.20
  Q 244.25 77.17 244.58 77.52
  Q 245.46 78.45 246.58 78.53
  Q 248.46 80.00 250.33 79.93
  C 254.43 79.94 257.51 79.76 260.57 81.78
  Q 260.98 82.05 261.48 82.07
  Q 263.53 82.14 264.71 83.67
  Q 259.34 80.45 262.49 83.56
  Q 265.20 87.40 263.90 92.26
  A 0.65 0.65 0.0 0 0 264.76 93.04
  L 267.57 91.99
  Q 267.68 90.17 267.65 88.28
  A 0.01 0.01 0.0 0 0 267.63 88.28
  L 267.63 90.53
  A 0.89 0.89 0.0 0 0 268.97 91.29
  Q 274.83 87.79 280.13 88.70
  Q 282.23 91.13 284.50 91.71
  Q 291.16 96.99 297.61 102.50
  Q 298.38 103.15 299.20 103.79
  Q 314.63 115.80 330.51 127.63
  L 331.38 128.30
  L 335.55 131.44
  L 346.54 139.80
  Q 348.56 140.90 350.13 142.93
  Q 350.06 143.19 350.26 143.40
  Q 350.64 143.79 350.81 143.27
  Q 351.06 142.51 350.70 141.49
  C 350.13 135.33 348.89 130.57 348.13 125.05
  Q 347.31 119.05 346.78 116.33
  Q 343.92 101.63 340.63 86.03
  Q 339.73 81.75 340.23 79.94
  Q 341.27 76.13 344.87 75.09
  Q 358.13 71.26 361.63 70.41
  Q 364.50 69.71 367.13 71.78
  Q 367.54 72.10 368.06 72.12
  Q 369.87 72.18 371.05 73.35
  Q 374.48 76.72 374.09 81.28
  Q 373.81 84.62 374.39 86.96
  Z
  M 160.79 144.99
  A 0.48 0.48 0.0 0 1 160.99 144.28
  Q 187.65 132.34 214.21 120.58
  Q 222.75 116.80 234.02 111.28
  Q 240.13 108.29 244.63 103.74
  A 2.64 2.63 22.9 0 1 246.54 102.97
  Q 253.08 103.12 257.63 98.57
  C 260.54 95.67 263.21 89.19 260.24 85.33
  C 257.70 82.04 252.60 82.74 248.95 82.99
  A 2.18 2.15 -27.8 0 1 247.50 82.55
  Q 242.66 78.78 236.92 77.23
  Q 221.81 73.13 205.94 73.47
  Q 195.34 73.70 186.20 74.86
  C 172.84 76.55 159.14 78.95 147.02 84.14
  C 137.25 88.33 126.40 97.65 138.51 107.99
  Q 143.70 112.42 150.54 116.41
  C 156.99 120.16 162.87 116.78 168.85 113.96
  C 171.01 112.94 172.87 110.99 171.63 108.54
  Q 171.08 107.46 168.63 105.64
  Q 162.67 101.20 157.23 96.07
  A 0.97 0.97 0.0 0 1 157.13 94.76
  Q 158.73 92.71 161.47 91.77
  C 172.71 87.88 183.55 87.39 195.50 87.08
  Q 204.39 86.85 212.55 87.45
  C 217.39 87.81 223.91 89.15 227.55 92.58
  A 1.67 1.67 0.0 0 1 227.69 94.85
  Q 224.30 99.00 219.24 102.42
  Q 207.61 110.30 196.05 115.33
  Q 177.61 123.37 156.59 132.77
  Q 146.73 137.18 137.50 142.10
  C 133.64 144.15 128.83 148.23 133.37 152.26
  Q 136.37 154.92 140.10 156.60
  Q 150.10 161.12 161.54 164.35
  Q 188.26 171.91 214.76 178.33
  C 219.82 179.56 226.04 180.21 230.81 178.88
  Q 234.86 177.75 240.29 176.15
  C 242.78 175.42 243.00 171.83 242.62 169.58
  Q 242.41 168.37 243.64 168.47
  C 245.24 168.61 246.95 168.62 248.51 168.21
  Q 253.92 166.78 260.98 164.02
  C 263.81 162.91 264.81 160.38 264.31 157.41
  Q 261.55 140.73 259.48 125.15
  Q 259.09 122.20 259.55 118.97
  C 260.33 113.44 254.92 111.48 250.44 112.62
  Q 244.22 114.20 238.16 116.16
  C 234.57 117.31 234.35 120.35 235.03 123.48
  A 0.67 0.67 0.0 0 1 234.50 124.28
  C 229.45 125.23 224.92 126.77 220.14 128.52
  C 217.66 129.43 216.31 131.48 217.18 134.05
  Q 222.11 148.71 220.96 161.58
  A 0.43 0.43 0.0 0 1 220.42 161.96
  C 200.51 156.55 180.98 151.85 161.55 145.54
  Q 161.06 145.38 160.79 144.99
  Z
  M 294.53 132.12
  Q 294.43 130.77 295.50 131.59
  C 311.46 143.86 327.57 157.32 342.53 168.80
  C 346.74 172.03 351.97 176.43 356.99 180.18
  C 359.42 182.01 361.34 181.75 363.92 180.71
  Q 370.40 178.12 376.19 175.75
  Q 379.56 174.38 379.01 170.54
  A 0.52 0.52 0.0 0 1 379.81 170.03
  C 398.11 181.67 427.49 177.12 444.76 166.09
  Q 447.37 164.42 449.09 161.77
  C 451.27 158.40 450.51 153.81 446.67 152.19
  C 443.24 150.74 439.65 152.42 436.69 154.31
  Q 433.09 156.60 428.88 159.29
  C 425.79 161.27 423.01 161.97 419.43 162.11
  Q 405.40 162.67 393.82 155.73
  C 383.11 149.31 377.95 138.94 378.16 126.58
  C 378.25 121.17 378.83 115.93 381.28 111.22
  Q 383.83 106.33 389.08 106.15
  C 403.83 105.64 415.96 114.97 423.53 126.93
  C 426.23 131.19 427.67 135.02 433.81 132.40
  Q 439.70 129.89 444.97 127.54
  A 4.00 3.99 65.9 0 0 446.99 122.24
  C 445.42 118.76 444.01 115.62 444.07 111.71
  Q 444.25 101.11 448.90 91.62
  C 450.78 87.79 452.15 84.81 453.88 81.59
  C 455.37 78.83 454.51 75.21 450.91 75.04
  Q 446.01 74.81 442.25 75.38
  C 435.09 76.46 429.64 81.86 427.79 88.70
  C 426.91 91.96 425.63 95.00 424.41 98.05
  A 0.64 0.64 0.0 0 1 423.55 98.40
  Q 404.18 89.65 383.50 94.44
  Q 377.66 95.78 371.73 99.91
  Q 371.20 100.29 371.09 99.64
  Q 369.10 88.23 367.17 77.51
  C 366.71 74.96 365.42 72.77 362.28 73.47
  Q 354.62 75.17 346.36 77.60
  C 343.94 78.32 342.40 80.12 342.95 82.76
  Q 345.27 93.75 347.69 106.91
  Q 348.07 108.97 348.44 110.96
  Q 351.57 127.68 353.78 144.52
  Q 354.06 146.62 353.92 148.71
  A 0.24 0.24 0.0 0 1 353.53 148.89
  Q 326.46 127.87 300.16 106.90
  C 294.13 102.09 287.93 98.01 281.90 93.14
  C 279.78 91.43 277.30 90.71 274.70 91.83
  Q 268.69 94.42 261.66 97.34
  C 258.60 98.62 258.41 102.31 259.79 104.90
  Q 264.13 113.06 267.57 121.54
  C 268.73 124.39 269.11 127.38 270.10 130.30
  Q 271.26 133.72 271.90 137.18
  Q 274.72 152.52 275.93 169.54
  Q 276.06 171.25 277.36 172.47
  Q 280.06 175.02 284.14 173.60
  Q 291.40 171.09 298.15 167.14
  C 299.68 166.25 300.12 164.83 299.79 163.12
  Q 297.70 152.06 296.02 141.00
  C 295.57 138.04 294.77 135.09 294.53 132.12
  Z
  M 171.99 145.92
  L 174.56 146.87
  Q 175.64 147.27 174.97 146.33
  Q 174.87 146.19 174.78 146.03
  Q 174.48 145.47 174.64 145.00
  Q 174.86 144.34 175.97 144.36
  Q 174.28 145.29 175.27 146.72
  Q 175.60 147.20 176.57 147.36
  Q 177.50 147.51 176.68 147.03
  L 176.30 146.81
  Q 175.81 146.52 175.81 145.96
  Q 175.80 144.85 177.05 144.07
  Q 177.31 143.28 178.64 143.27
  L 176.55 144.83
  A 1.19 1.19 0.0 0 0 176.60 146.77
  Q 178.97 148.36 182.21 149.02
  Q 183.92 150.41 186.55 150.14
  C 190.81 151.32 195.09 152.68 199.47 153.34
  Q 201.38 153.63 203.21 154.24
  Q 207.84 155.79 207.89 155.81
  Q 212.74 157.14 217.78 158.51
  Q 218.42 158.68 218.44 158.02
  Q 218.58 152.59 217.58 147.12
  Q 216.43 140.84 214.34 133.00
  Q 213.82 131.07 216.83 126.59
  L 223.35 124.35
  L 231.40 122.02
  Q 231.87 121.89 231.94 121.41
  L 232.38 118.49
  Q 233.54 114.81 237.00 113.79
  Q 241.85 112.36 245.08 111.04
  C 250.72 109.63 254.77 108.42 259.37 111.43
  Q 259.72 112.18 260.28 112.69
  Q 260.71 113.08 260.57 112.51
  Q 260.29 111.28 259.49 110.17
  L 257.80 106.65
  L 256.09 103.79
  Q 255.78 103.27 255.26 103.58
  Q 251.52 105.85 247.13 105.66
  Q 246.52 105.63 246.08 106.05
  Q 242.11 109.87 237.55 112.16
  C 234.20 113.85 231.14 115.89 227.71 117.49
  Q 207.60 126.88 187.47 135.24
  C 180.94 137.95 174.66 141.25 168.18 143.93
  Q 166.86 144.47 168.23 144.86
  L 171.99 145.92
  Z"
/>
<path fill="#000000" d="
  M 436.30 136.68
  L 429.46 136.52
  Q 426.24 135.93 424.40 133.24
  Q 428.40 137.13 433.73 135.01
  Q 438.97 132.94 444.37 130.59
  C 449.32 128.43 451.40 125.15 448.91 119.99
  C 447.31 116.66 446.09 113.68 446.22 109.81
  Q 446.45 103.36 448.64 97.46
  Q 451.46 89.86 455.12 82.72
  C 457.25 78.58 455.89 72.74 450.50 72.60
  Q 447.17 72.52 443.76 72.40
  C 449.28 72.05 452.82 71.74 456.82 74.99
  C 460.21 77.74 459.79 81.55 457.93 85.09
  Q 452.98 94.53 450.62 102.76
  Q 447.64 113.11 451.55 120.72
  C 453.32 124.19 453.41 128.73 449.80 131.03
  Q 445.25 133.92 436.30 136.68
  Z"
/>
<path fill="#000000" d="
  M 160.79 144.99
  Q 161.06 145.38 161.55 145.54
  C 180.98 151.85 200.51 156.55 220.42 161.96
  A 0.43 0.43 0.0 0 0 220.96 161.58
  Q 222.11 148.71 217.18 134.05
  C 216.31 131.48 217.66 129.43 220.14 128.52
  C 224.92 126.77 229.45 125.23 234.50 124.28
  A 0.67 0.67 0.0 0 0 235.03 123.48
  C 234.35 120.35 234.57 117.31 238.16 116.16
  Q 244.22 114.20 250.44 112.62
  C 254.92 111.48 260.33 113.44 259.55 118.97
  Q 259.09 122.20 259.48 125.15
  Q 261.55 140.73 264.31 157.41
  C 264.81 160.38 263.81 162.91 260.98 164.02
  Q 253.92 166.78 248.51 168.21
  C 246.95 168.62 245.24 168.61 243.64 168.47
  Q 242.41 168.37 242.62 169.58
  C 243.00 171.83 242.78 175.42 240.29 176.15
  Q 234.86 177.75 230.81 178.88
  C 226.04 180.21 219.82 179.56 214.76 178.33
  Q 188.26 171.91 161.54 164.35
  Q 150.10 161.12 140.10 156.60
  Q 136.37 154.92 133.37 152.26
  C 128.83 148.23 133.64 144.15 137.50 142.10
  Q 146.73 137.18 156.59 132.77
  Q 177.61 123.37 196.05 115.33
  Q 207.61 110.30 219.24 102.42
  Q 224.30 99.00 227.69 94.85
  A 1.67 1.67 0.0 0 0 227.55 92.58
  C 223.91 89.15 217.39 87.81 212.55 87.45
  Q 204.39 86.85 195.50 87.08
  C 183.55 87.39 172.71 87.88 161.47 91.77
  Q 158.73 92.71 157.13 94.76
  A 0.97 0.97 0.0 0 0 157.23 96.07
  Q 162.67 101.20 168.63 105.64
  Q 171.08 107.46 171.63 108.54
  C 172.87 110.99 171.01 112.94 168.85 113.96
  C 162.87 116.78 156.99 120.16 150.54 116.41
  Q 143.70 112.42 138.51 107.99
  C 126.40 97.65 137.25 88.33 147.02 84.14
  C 159.14 78.95 172.84 76.55 186.20 74.86
  Q 195.34 73.70 205.94 73.47
  Q 221.81 73.13 236.92 77.23
  Q 242.66 78.78 247.50 82.55
  A 2.18 2.15 -27.8 0 0 248.95 82.99
  C 252.60 82.74 257.70 82.04 260.24 85.33
  C 263.21 89.19 260.54 95.67 257.63 98.57
  Q 253.08 103.12 246.54 102.97
  A 2.64 2.63 22.9 0 0 244.63 103.74
  Q 240.13 108.29 234.02 111.28
  Q 222.75 116.80 214.21 120.58
  Q 187.65 132.34 160.99 144.28
  A 0.48 0.48 0.0 0 0 160.79 144.99
  Z
  M 223.06 165.99
  A 0.92 0.92 0.0 0 1 222.68 165.99
  Q 197.00 159.49 176.02 153.52
  Q 164.26 150.17 152.70 146.12
  A 0.67 0.67 0.0 0 1 152.51 144.97
  Q 153.70 144.01 155.11 143.36
  Q 166.15 138.24 177.61 133.14
  Q 198.30 123.93 221.49 113.68
  Q 228.81 110.44 237.66 105.15
  Q 241.31 102.97 243.66 99.81
  A 1.00 1.00 0.0 0 1 244.60 99.41
  Q 254.64 100.72 258.09 91.38
  C 260.73 84.27 250.47 85.93 247.34 86.85
  Q 246.79 87.01 246.45 86.55
  Q 244.00 83.27 239.53 81.69
  Q 226.04 76.95 211.58 76.84
  Q 182.13 76.63 155.09 84.55
  Q 148.21 86.56 141.13 91.30
  C 137.06 94.03 133.89 98.94 138.25 103.10
  Q 144.67 109.21 152.45 113.63
  C 154.73 114.93 157.58 115.07 159.99 114.09
  Q 164.04 112.44 168.39 110.34
  A 0.43 0.43 0.0 0 0 168.45 109.60
  Q 161.38 104.72 155.38 98.99
  C 150.66 94.49 155.78 90.30 159.97 88.70
  Q 166.19 86.34 171.98 85.50
  Q 191.35 82.70 211.45 84.02
  C 217.26 84.41 227.20 86.24 230.77 90.96
  Q 233.21 94.19 229.48 98.07
  Q 223.95 103.84 215.84 108.57
  Q 205.01 114.90 195.47 119.18
  Q 177.59 127.20 159.33 135.12
  C 152.66 138.01 146.36 141.29 139.70 144.68
  Q 136.98 146.07 135.27 147.88
  A 1.17 1.17 0.0 0 0 135.28 149.51
  Q 137.19 151.45 140.16 152.87
  Q 148.07 156.63 155.15 158.75
  Q 184.16 167.41 215.92 174.99
  C 219.79 175.91 224.44 176.76 228.25 175.90
  Q 232.90 174.86 238.72 172.89
  A 0.72 0.70 -7.1 0 0 239.21 172.28
  Q 239.87 165.63 240.53 158.82
  Q 241.40 149.78 239.60 140.70
  Q 238.37 134.52 236.83 128.22
  A 1.05 1.04 -11.6 0 0 235.64 127.44
  Q 228.18 128.70 220.84 131.77
  A 0.89 0.88 68.9 0 0 220.35 132.89
  Q 225.97 148.13 224.05 164.50
  Q 223.89 165.79 223.06 165.99
  Z
  M 250.50 164.14
  Q 255.01 162.52 259.51 160.98
  Q 261.54 160.28 260.99 158.20
  Q 260.32 155.66 260.09 152.99
  Q 259.59 147.05 258.76 142.00
  Q 257.30 133.09 256.00 123.75
  Q 255.70 121.54 256.24 119.04
  C 256.83 116.36 254.19 115.14 252.02 115.67
  Q 245.88 117.17 238.82 119.54
  A 0.86 0.86 0.0 0 0 238.23 120.41
  C 238.51 125.41 239.02 130.42 239.86 135.32
  Q 242.21 149.02 243.62 164.21
  Q 243.71 165.25 244.75 165.26
  Q 247.28 165.29 250.50 164.14
  Z"
/>
<path fill="#000000" d="
  M 294.53 132.12
  C 294.77 135.09 295.57 138.04 296.02 141.00
  Q 297.70 152.06 299.79 163.12
  C 300.12 164.83 299.68 166.25 298.15 167.14
  Q 291.40 171.09 284.14 173.60
  Q 280.06 175.02 277.36 172.47
  Q 276.06 171.25 275.93 169.54
  Q 274.72 152.52 271.90 137.18
  Q 271.26 133.72 270.10 130.30
  C 269.11 127.38 268.73 124.39 267.57 121.54
  Q 264.13 113.06 259.79 104.90
  C 258.41 102.31 258.60 98.62 261.66 97.34
  Q 268.69 94.42 274.70 91.83
  C 277.30 90.71 279.78 91.43 281.90 93.14
  C 287.93 98.01 294.13 102.09 300.16 106.90
  Q 326.46 127.87 353.53 148.89
  A 0.24 0.24 0.0 0 0 353.92 148.71
  Q 354.06 146.62 353.78 144.52
  Q 351.57 127.68 348.44 110.96
  Q 348.07 108.97 347.69 106.91
  Q 345.27 93.75 342.95 82.76
  C 342.40 80.12 343.94 78.32 346.36 77.60
  Q 354.62 75.17 362.28 73.47
  C 365.42 72.77 366.71 74.96 367.17 77.51
  Q 369.10 88.23 371.09 99.64
  Q 371.20 100.29 371.73 99.91
  Q 377.66 95.78 383.50 94.44
  Q 404.18 89.65 423.55 98.40
  A 0.64 0.64 0.0 0 0 424.41 98.05
  C 425.63 95.00 426.91 91.96 427.79 88.70
  C 429.64 81.86 435.09 76.46 442.25 75.38
  Q 446.01 74.81 450.91 75.04
  C 454.51 75.21 455.37 78.83 453.88 81.59
  C 452.15 84.81 450.78 87.79 448.90 91.62
  Q 444.25 101.11 444.07 111.71
  C 444.01 115.62 445.42 118.76 446.99 122.24
  A 4.00 3.99 65.9 0 1 444.97 127.54
  Q 439.70 129.89 433.81 132.40
  C 427.67 135.02 426.23 131.19 423.53 126.93
  C 415.96 114.97 403.83 105.64 389.08 106.15
  Q 383.83 106.33 381.28 111.22
  C 378.83 115.93 378.25 121.17 378.16 126.58
  C 377.95 138.94 383.11 149.31 393.82 155.73
  Q 405.40 162.67 419.43 162.11
  C 423.01 161.97 425.79 161.27 428.88 159.29
  Q 433.09 156.60 436.69 154.31
  C 439.65 152.42 443.24 150.74 446.67 152.19
  C 450.51 153.81 451.27 158.40 449.09 161.77
  Q 447.37 164.42 444.76 166.09
  C 427.49 177.12 398.11 181.67 379.81 170.03
  A 0.52 0.52 0.0 0 0 379.01 170.54
  Q 379.56 174.38 376.19 175.75
  Q 370.40 178.12 363.92 180.71
  C 361.34 181.75 359.42 182.01 356.99 180.18
  C 351.97 176.43 346.74 172.03 342.53 168.80
  C 327.57 157.32 311.46 143.86 295.50 131.59
  Q 294.43 130.77 294.53 132.12
  Z
  M 375.10 163.05
  C 395.08 177.86 421.47 175.39 442.23 163.43
  C 444.99 161.83 448.27 158.19 445.20 155.11
  Q 444.79 154.69 444.21 154.76
  Q 442.62 154.97 441.17 155.76
  Q 436.28 158.43 431.42 161.72
  C 427.50 164.37 423.43 165.35 418.80 165.53
  C 398.13 166.35 375.45 153.40 374.91 130.40
  C 374.61 118.16 375.52 101.41 392.75 102.76
  C 408.85 104.02 421.62 115.63 429.00 129.33
  A 1.28 1.28 0.0 0 0 430.62 129.90
  L 443.67 124.41
  A 0.67 0.67 0.0 0 0 444.03 123.54
  Q 442.97 120.99 441.79 118.44
  Q 440.72 116.15 440.66 113.40
  Q 440.49 105.88 441.19 103.10
  Q 444.29 90.78 450.65 79.47
  A 0.71 0.71 0.0 0 0 450.04 78.42
  C 447.08 78.41 443.81 78.20 440.93 79.02
  Q 434.44 80.86 431.67 87.92
  Q 428.82 95.16 426.24 102.71
  Q 425.89 103.73 424.97 103.17
  C 409.60 93.82 382.57 92.10 369.47 106.36
  A 0.45 0.44 -28.2 0 1 368.70 106.13
  C 368.01 101.56 366.95 97.22 366.41 92.58
  Q 365.49 84.67 363.83 77.11
  A 0.87 0.86 75.8 0 0 362.75 76.46
  L 346.76 80.84
  A 0.92 0.91 74.5 0 0 346.12 81.98
  C 347.67 87.23 348.06 92.58 349.17 97.96
  Q 352.76 115.28 355.87 133.07
  C 357.22 140.81 357.50 147.68 357.18 155.00
  A 0.51 0.50 -69.8 0 1 356.37 155.38
  L 278.53 94.97
  A 2.04 2.04 0.0 0 0 276.49 94.70
  L 262.43 100.61
  A 1.00 0.99 -27.0 0 0 261.96 102.03
  Q 264.13 105.69 266.00 109.39
  Q 267.66 112.68 269.25 117.14
  Q 270.99 122.00 272.84 127.32
  Q 275.73 135.62 277.01 147.63
  Q 278.23 159.08 278.85 168.33
  A 2.59 2.59 0.0 0 0 282.39 170.57
  Q 288.50 168.13 295.18 164.86
  A 1.96 1.96 0.0 0 0 296.25 162.79
  L 289.91 123.76
  Q 289.73 122.65 290.61 123.35
  L 359.00 177.46
  A 2.51 2.50 53.0 0 0 361.50 177.82
  L 374.87 172.42
  A 1.16 1.15 74.8 0 0 375.58 171.17
  L 374.40 163.47
  Q 374.24 162.41 375.10 163.05
  Z"
/>
<path fill="#000000" fill-opacity="0.608" d="
  M 371.83 77.41
  L 369.66 74.88
  Q 369.03 74.83 369.22 74.35
  A 0.46 0.46 0.0 0 1 370.05 74.30
  L 371.83 77.41
  Z"
/>
<path fill="#000000" d="
  M 369.66 74.88
  L 371.83 77.41
  Q 372.68 77.00 372.50 80.28
  L 372.32 79.21
  Q 372.16 78.21 371.86 79.17
  Q 371.68 79.73 371.81 80.30
  Q 372.81 85.01 373.47 89.75
  C 373.63 90.91 374.18 91.80 374.31 93.03
  Q 374.41 94.01 374.71 93.07
  Q 375.13 91.75 375.01 90.28
  L 375.45 92.62
  Q 375.55 93.13 376.06 93.26
  L 377.47 93.62
  L 373.86 95.23
  Q 373.36 95.46 373.26 94.92
  L 369.66 74.88
  Z"
/>
<path fill="#000000" fill-opacity="0.608" d="
  M 242.28 75.93
  L 246.35 77.89
  Q 246.13 78.25 246.58 78.53
  Q 245.46 78.45 244.58 77.52
  Q 244.25 77.17 243.77 77.20
  Q 242.57 77.27 242.28 75.93
  Z"
/>
<path fill="#ffffff" d="
  M 374.40 163.47
  L 375.58 171.17
  A 1.16 1.15 74.8 0 1 374.87 172.42
  L 361.50 177.82
  A 2.51 2.50 53.0 0 1 359.00 177.46
  L 290.61 123.35
  Q 289.73 122.65 289.91 123.76
  L 296.25 162.79
  A 1.96 1.96 0.0 0 1 295.18 164.86
  Q 288.50 168.13 282.39 170.57
  A 2.59 2.59 0.0 0 1 278.85 168.33
  Q 278.23 159.08 277.01 147.63
  Q 275.73 135.62 272.84 127.32
  Q 270.99 122.00 269.25 117.14
  Q 267.66 112.68 266.00 109.39
  Q 264.13 105.69 261.96 102.03
  A 1.00 0.99 -27.0 0 1 262.43 100.61
  L 276.49 94.70
  A 2.04 2.04 0.0 0 1 278.53 94.97
  L 356.37 155.38
  A 0.51 0.50 -69.8 0 0 357.18 155.00
  C 357.50 147.68 357.22 140.81 355.87 133.07
  Q 352.76 115.28 349.17 97.96
  C 348.06 92.58 347.67 87.23 346.12 81.98
  A 0.92 0.91 74.5 0 1 346.76 80.84
  L 362.75 76.46
  A 0.87 0.86 75.8 0 1 363.83 77.11
  Q 365.49 84.67 366.41 92.58
  C 366.95 97.22 368.01 101.56 368.70 106.13
  A 0.45 0.44 -28.2 0 0 369.47 106.36
  C 382.57 92.10 409.60 93.82 424.97 103.17
  Q 425.89 103.73 426.24 102.71
  Q 428.82 95.16 431.67 87.92
  Q 434.44 80.86 440.93 79.02
  C 443.81 78.20 447.08 78.41 450.04 78.42
  A 0.71 0.71 0.0 0 1 450.65 79.47
  Q 444.29 90.78 441.19 103.10
  Q 440.49 105.88 440.66 113.40
  Q 440.72 116.15 441.79 118.44
  Q 442.97 120.99 444.03 123.54
  A 0.67 0.67 0.0 0 1 443.67 124.41
  L 430.62 129.90
  A 1.28 1.28 0.0 0 1 429.00 129.33
  C 421.62 115.63 408.85 104.02 392.75 102.76
  C 375.52 101.41 374.61 118.16 374.91 130.40
  C 375.45 153.40 398.13 166.35 418.80 165.53
  C 423.43 165.35 427.50 164.37 431.42 161.72
  Q 436.28 158.43 441.17 155.76
  Q 442.62 154.97 444.21 154.76
  Q 444.79 154.69 445.20 155.11
  C 448.27 158.19 444.99 161.83 442.23 163.43
  C 421.47 175.39 395.08 177.86 375.10 163.05
  Q 374.24 162.41 374.40 163.47
  Z"
/>
<path fill="#ffffff" d="
  M 223.06 165.99
  Q 223.89 165.79 224.05 164.50
  Q 225.97 148.13 220.35 132.89
  A 0.89 0.88 68.9 0 1 220.84 131.77
  Q 228.18 128.70 235.64 127.44
  A 1.05 1.04 -11.6 0 1 236.83 128.22
  Q 238.37 134.52 239.60 140.70
  Q 241.40 149.78 240.53 158.82
  Q 239.87 165.63 239.21 172.28
  A 0.72 0.70 -7.1 0 1 238.72 172.89
  Q 232.90 174.86 228.25 175.90
  C 224.44 176.76 219.79 175.91 215.92 174.99
  Q 184.16 167.41 155.15 158.75
  Q 148.07 156.63 140.16 152.87
  Q 137.19 151.45 135.28 149.51
  A 1.17 1.17 0.0 0 1 135.27 147.88
  Q 136.98 146.07 139.70 144.68
  C 146.36 141.29 152.66 138.01 159.33 135.12
  Q 177.59 127.20 195.47 119.18
  Q 205.01 114.90 215.84 108.57
  Q 223.95 103.84 229.48 98.07
  Q 233.21 94.19 230.77 90.96
  C 227.20 86.24 217.26 84.41 211.45 84.02
  Q 191.35 82.70 171.98 85.50
  Q 166.19 86.34 159.97 88.70
  C 155.78 90.30 150.66 94.49 155.38 98.99
  Q 161.38 104.72 168.45 109.60
  A 0.43 0.43 0.0 0 1 168.39 110.34
  Q 164.04 112.44 159.99 114.09
  C 157.58 115.07 154.73 114.93 152.45 113.63
  Q 144.67 109.21 138.25 103.10
  C 133.89 98.94 137.06 94.03 141.13 91.30
  Q 148.21 86.56 155.09 84.55
  Q 182.13 76.63 211.58 76.84
  Q 226.04 76.95 239.53 81.69
  Q 244.00 83.27 246.45 86.55
  Q 246.79 87.01 247.34 86.85
  C 250.47 85.93 260.73 84.27 258.09 91.38
  Q 254.64 100.72 244.60 99.41
  A 1.00 1.00 0.0 0 0 243.66 99.81
  Q 241.31 102.97 237.66 105.15
  Q 228.81 110.44 221.49 113.68
  Q 198.30 123.93 177.61 133.14
  Q 166.15 138.24 155.11 143.36
  Q 153.70 144.01 152.51 144.97
  A 0.67 0.67 0.0 0 0 152.70 146.12
  Q 164.26 150.17 176.02 153.52
  Q 197.00 159.49 222.68 165.99
  A 0.92 0.92 0.0 0 0 223.06 165.99
  Z"
/>
<path fill="#000000" d="
  M 246.35 77.89
  L 250.33 79.93
  Q 248.46 80.00 246.58 78.53
  Q 246.13 78.25 246.35 77.89
  Z"
/>
<path fill="#000000" fill-opacity="0.608" d="
  M 374.39 86.96
  L 375.01 90.28
  Q 375.13 91.75 374.71 93.07
  Q 374.41 94.01 374.31 93.03
  C 374.18 91.80 373.63 90.91 373.47 89.75
  Q 372.81 85.01 371.81 80.30
  Q 371.68 79.73 371.86 79.17
  Q 372.16 78.21 372.32 79.21
  L 372.50 80.28
  L 372.70 78.48
  Q 372.73 78.29 372.88 78.17
  Q 373.01 78.07 373.12 78.16
  Q 373.23 78.24 373.24 78.37
  Q 373.83 82.69 374.39 86.96
  Z"
/>
<path fill="#000000" fill-opacity="0.608" d="
  M 264.71 83.67
  Q 265.44 85.09 266.23 86.41
  Q 266.98 87.66 267.00 88.75
  Q 267.04 90.93 265.85 91.14
  Q 265.55 90.53 265.38 88.25
  Q 265.19 85.79 262.49 83.56
  Q 259.34 80.45 264.71 83.67
  Z"
/>
<path fill="#000000" d="
  M 262.49 83.56
  Q 265.19 85.79 265.38 88.25
  Q 265.55 90.53 265.85 91.14
  Q 266.02 92.13 267.57 91.99
  L 264.76 93.04
  A 0.65 0.65 0.0 0 1 263.90 92.26
  Q 265.20 87.40 262.49 83.56
  Z"
/>
<path fill="#000000" fill-opacity="0.608" d="
  M 280.13 88.70
  L 282.02 89.78
  L 284.50 91.71
  Q 282.23 91.13 280.13 88.70
  Z"
/>
<path fill="#000000" d="
  M 224.43 94.61
  Q 222.31 93.21 219.64 92.57
  Q 217.59 91.22 215.00 91.01
  Q 204.39 90.12 193.75 90.44
  Q 192.65 90.48 191.74 90.87
  Q 191.30 91.06 190.83 91.08
  L 181.55 91.53
  A 0.41 0.41 0.0 0 0 181.17 91.83
  Q 181.06 92.22 181.32 92.25
  L 176.81 92.44
  A 0.16 0.16 0.0 0 0 176.78 92.76
  Q 179.20 93.33 181.32 92.25
  L 191.73 92.03
  L 174.78 93.06
  C 171.76 92.51 170.44 93.45 167.94 93.72
  Q 167.76 93.75 167.61 93.86
  Q 167.42 93.99 167.40 94.23
  Q 167.36 94.63 167.00 94.80
  L 164.06 96.21
  Q 163.68 96.39 163.64 96.81
  Q 163.56 97.50 163.70 98.24
  L 160.97 95.83
  A 0.75 0.75 0.0 0 1 161.20 94.56
  Q 167.61 92.13 173.99 91.28
  Q 193.37 88.70 212.25 90.35
  Q 217.28 90.79 222.13 92.36
  Q 223.30 92.74 224.34 93.40
  Q 224.77 93.68 224.69 94.20
  Q 224.63 94.54 224.43 94.61
  Z
  M 191.3179 90.7300
  A 4.72 0.24 -1.7 0 0 186.5929 90.6301
  A 4.72 0.24 -1.7 0 0 181.8821 91.0100
  A 4.72 0.24 -1.7 0 0 186.6071 91.1099
  A 4.72 0.24 -1.7 0 0 191.3179 90.7300
  Z"
/>
<path fill="#000000" d="
  M 282.02 89.78
  L 282.67 89.80
  Q 283.19 89.81 283.61 90.13
  Q 301.22 103.80 317.93 116.69
  Q 319.84 118.17 321.51 119.87
  Q 322.84 121.23 324.09 121.95
  Q 325.49 122.77 326.99 123.72
  Q 327.21 123.86 326.97 123.95
  Q 326.92 123.97 326.90 124.01
  Q 326.86 124.09 326.94 124.13
  Q 329.32 125.54 330.51 127.63
  Q 314.63 115.80 299.20 103.79
  Q 298.38 103.15 297.61 102.50
  Q 291.16 96.99 284.50 91.71
  L 282.02 89.78
  Z"
/>
<path fill="#000000" fill-opacity="0.608" d="
  M 409.09 90.92
  Q 399.05 89.64 388.93 90.49
  Q 399.16 88.36 409.09 90.92
  Z"
/>
<path fill="#000000" fill-opacity="0.608" d="
  M 219.64 92.57
  Q 216.17 93.18 212.72 92.59
  Q 212.23 92.51 211.96 92.09
  Q 211.87 91.95 211.74 91.85
  Q 211.41 91.59 210.99 91.60
  L 191.73 92.03
  L 181.32 92.25
  Q 181.06 92.22 181.17 91.83
  A 0.41 0.41 0.0 0 1 181.55 91.53
  L 190.83 91.08
  Q 191.30 91.06 191.74 90.87
  Q 192.65 90.48 193.75 90.44
  Q 204.39 90.12 215.00 91.01
  Q 217.59 91.22 219.64 92.57
  Z"
/>
<ellipse fill="#000000" fill-opacity="0.608" cx="0.00" cy="0.00" transform="translate(186.60,90.87) rotate(-1.7)" rx="4.72" ry="0.24"/>
<path fill="#000000" fill-opacity="0.608" d="
  M 181.32 92.25
  Q 179.20 93.33 176.78 92.76
  A 0.16 0.16 0.0 0 1 176.81 92.44
  L 181.32 92.25
  Z"
/>
<path fill="#000000" fill-opacity="0.608" d="
  M 174.78 93.06
  L 166.28 96.48
  Q 165.82 96.67 165.81 97.16
  Q 165.78 99.04 168.72 101.24
  Q 165.58 100.42 163.70 98.24
  Q 163.56 97.50 163.64 96.81
  Q 163.68 96.39 164.06 96.21
  L 167.00 94.80
  Q 167.36 94.63 167.40 94.23
  Q 167.42 93.99 167.61 93.86
  Q 167.76 93.75 167.94 93.72
  C 170.44 93.45 171.76 92.51 174.78 93.06
  Z"
/>
<path fill="#000000" fill-opacity="0.608" d="
  M 171.32 103.48
  Q 174.57 105.39 176.12 107.63
  Q 177.30 109.33 176.26 111.76
  Q 176.05 108.97 173.97 107.12
  L 171.32 103.48
  Z"
/>
<path fill="#000000" d="
  M 257.80 106.65
  Q 252.63 106.11 249.39 107.62
  Q 248.22 108.16 245.08 111.04
  Q 241.85 112.36 237.00 113.79
  Q 233.54 114.81 232.38 118.49
  L 226.22 120.54
  Q 225.94 120.19 225.75 120.26
  Q 221.61 121.83 217.47 123.50
  C 215.76 124.19 214.50 125.28 212.75 125.79
  C 210.40 126.48 208.30 127.88 206.20 129.27
  Q 205.71 129.60 205.12 129.55
  Q 204.11 129.48 203.41 130.09
  Q 203.12 130.35 202.75 130.44
  Q 200.32 131.08 197.71 132.35
  Q 193.62 134.35 189.03 136.08
  Q 186.74 136.94 184.67 138.29
  Q 183.30 139.18 181.64 139.67
  Q 179.18 140.37 177.24 141.75
  Q 176.55 142.24 177.39 142.23
  Q 178.02 142.22 178.54 141.81
  Q 178.59 141.77 178.63 141.83
  Q 178.68 141.90 178.62 141.84
  Q 178.60 141.82 178.57 141.84
  Q 176.86 143.21 174.97 143.41
  Q 174.92 143.41 174.88 143.45
  Q 174.85 143.47 174.85 143.37
  Q 174.85 143.30 174.91 143.33
  Q 175.11 143.43 175.35 143.34
  Q 175.64 143.24 175.41 143.04
  Q 175.01 142.68 174.50 142.96
  Q 174.15 143.16 173.76 143.27
  Q 170.77 144.14 171.99 145.92
  L 168.23 144.86
  Q 166.86 144.47 168.18 143.93
  C 174.66 141.25 180.94 137.95 187.47 135.24
  Q 207.60 126.88 227.71 117.49
  C 231.14 115.89 234.20 113.85 237.55 112.16
  Q 242.11 109.87 246.08 106.05
  Q 246.52 105.63 247.13 105.66
  Q 251.52 105.85 255.26 103.58
  Q 255.78 103.27 256.09 103.79
  L 257.80 106.65
  Z"
/>
<path fill="#000000" d="
  M 173.97 107.12
  Q 176.05 108.97 176.26 111.76
  Q 176.45 112.12 176.31 113.18
  Q 174.32 116.43 171.12 117.64
  Q 167.53 118.99 162.88 121.07
  Q 161.06 121.89 154.49 121.19
  Q 154.08 121.15 154.18 121.55
  L 154.30 122.03
  A 0.46 0.44 85.9 0 0 154.67 122.36
  Q 157.20 122.78 159.88 122.59
  Q 160.38 122.56 159.91 122.72
  Q 159.83 122.75 159.75 122.74
  Q 157.50 122.59 155.29 122.80
  Q 153.97 122.67 153.59 121.65
  Q 153.42 121.18 152.97 120.96
  L 150.99 120.00
  Q 150.74 119.72 150.75 119.41
  C 157.76 122.49 162.23 119.77 168.23 117.01
  C 172.98 114.82 175.52 112.50 173.97 107.12
  Z"
/>
<path fill="#000000" d="
  M 400.99 110.65
  Q 400.21 110.53 399.48 110.53
  Q 398.46 110.52 399.42 110.85
  Q 399.79 110.98 400.08 111.29
  Q 400.12 111.33 400.12 111.38
  Q 400.11 111.44 400.05 111.44
  Q 399.97 111.45 399.92 111.40
  Q 397.68 109.55 395.40 110.88
  Q 394.97 111.13 394.46 111.13
  Q 392.99 111.11 391.53 111.15
  Q 391.30 111.16 391.31 111.39
  L 391.31 111.40
  Q 391.32 111.59 391.51 111.59
  Q 394.81 111.58 398.11 111.71
  Q 399.31 112.51 400.89 112.81
  Q 400.98 112.83 400.90 112.87
  Q 400.85 112.89 400.88 112.85
  Q 400.91 112.81 400.87 112.81
  Q 393.67 111.51 390.49 112.16
  Q 388.57 112.56 386.60 115.76
  A 1.57 1.56 -88.3 0 1 386.01 116.32
  Q 385.20 116.76 384.95 117.57
  Q 384.31 119.61 384.07 121.74
  Q 383.24 129.01 383.72 136.26
  L 384.99 143.54
  Q 381.51 136.69 380.97 130.99
  Q 380.73 128.40 380.94 124.43
  C 381.17 119.93 381.95 115.43 384.00 111.71
  C 386.57 107.03 397.06 109.04 400.99 110.65
  Z
  M 386.76 112.77
  C 387.58 111.55 388.62 111.38 389.94 111.10
  Q 390.00 111.09 389.99 111.03
  L 389.94 110.77
  Q 389.90 110.53 389.65 110.55
  Q 386.92 110.73 385.62 112.98
  Q 384.53 114.86 383.98 117.62
  Q 383.94 117.79 384.11 117.77
  Q 384.33 117.74 384.53 117.61
  A 0.64 0.64 0.0 0 0 384.81 117.19
  Q 385.18 115.15 386.76 112.77
  Z
  M 382.08 125.37
  Q 382.25 128.74 382.08 132.12
  Q 382.08 132.15 382.10 132.15
  L 382.41 132.24
  Q 382.59 132.30 382.60 132.10
  Q 382.65 128.81 382.60 125.54
  Q 382.59 125.33 382.37 125.33
  L 382.12 125.34
  A 0.04 0.03 0.0 0 0 382.08 125.37
  Z"
/>
<path fill="#000000" fill-opacity="0.608" d="
  M 155.29 122.80
  Q 157.50 122.59 159.75 122.74
  Q 159.83 122.75 159.91 122.72
  Q 160.38 122.56 159.88 122.59
  Q 157.20 122.78 154.67 122.36
  A 0.46 0.44 85.9 0 1 154.30 122.03
  L 154.18 121.55
  Q 154.08 121.15 154.49 121.19
  Q 161.06 121.89 162.88 121.07
  Q 167.53 118.99 171.12 117.64
  Q 174.32 116.43 176.31 113.18
  Q 176.98 111.41 176.93 109.51
  A 0.30 0.30 0.0 0 1 177.21 109.21
  L 177.48 109.19
  Q 177.59 109.18 177.60 109.29
  Q 177.87 114.13 174.64 117.41
  Q 173.97 118.09 173.06 118.38
  C 171.62 118.83 171.11 119.66 169.46 119.91
  Q 168.44 120.07 167.43 120.57
  Q 166.99 120.79 167.47 120.69
  Q 168.46 120.46 169.24 120.07
  Q 169.42 119.98 169.50 120.16
  L 169.60 120.39
  Q 169.64 120.47 169.56 120.50
  Q 167.35 121.14 165.10 122.10
  C 162.21 123.33 158.48 122.94 155.29 122.80
  Z"
/>
<path fill="#000000" fill-opacity="0.608" d="
  M 136.43 109.80
  L 145.48 116.50
  Q 142.35 116.10 141.23 114.73
  Q 139.63 112.76 136.69 110.88
  Q 136.18 110.55 136.43 109.80
  Z"
/>
<path fill="#000000" d="
  M 259.49 110.17
  Q 260.29 111.28 260.57 112.51
  Q 260.71 113.08 260.28 112.69
  Q 259.72 112.18 259.37 111.43
  Q 259.99 111.49 259.49 110.17
  Z"
/>
<path fill="#000000" fill-opacity="0.608" d="
  M 400.99 110.65
  L 406.34 113.29
  Q 407.30 113.77 406.23 113.91
  Q 405.33 114.04 404.75 113.31
  Q 404.42 112.89 403.89 112.79
  L 400.96 112.27
  L 398.11 111.71
  Q 394.81 111.58 391.51 111.59
  Q 391.32 111.59 391.31 111.40
  L 391.31 111.39
  Q 391.30 111.16 391.53 111.15
  Q 392.99 111.11 394.46 111.13
  Q 394.97 111.13 395.40 110.88
  Q 397.68 109.55 399.92 111.40
  Q 399.97 111.45 400.05 111.44
  Q 400.11 111.44 400.12 111.38
  Q 400.12 111.33 400.08 111.29
  Q 399.79 110.98 399.42 110.85
  Q 398.46 110.52 399.48 110.53
  Q 400.21 110.53 400.99 110.65
  Z"
/>
<path fill="#000000" fill-opacity="0.608" d="
  M 386.76 112.77
  Q 385.18 115.15 384.81 117.19
  A 0.64 0.64 0.0 0 1 384.53 117.61
  Q 384.33 117.74 384.11 117.77
  Q 383.94 117.79 383.98 117.62
  Q 384.53 114.86 385.62 112.98
  Q 386.92 110.73 389.65 110.55
  Q 389.90 110.53 389.94 110.77
  L 389.99 111.03
  Q 390.00 111.09 389.94 111.10
  C 388.62 111.38 387.58 111.55 386.76 112.77
  Z"
/>
<path fill="#000000" fill-opacity="0.608" d="
  M 401.87 112.75
  Q 404.35 112.42 404.24 113.82
  Q 402.87 113.67 401.87 112.75
  Z"
/>
<path fill="#000000" fill-opacity="0.608" d="
  M 404.24 113.82
  Q 407.45 113.51 408.73 114.88
  Q 406.36 115.11 404.24 113.82
  Z"
/>
<path fill="#000000" fill-opacity="0.608" d="
  M 408.73 114.88
  Q 415.93 120.43 410.90 117.84
  L 408.73 114.88
  Z"
/>
<path fill="#ffffff" d="
  M 250.50 164.14
  Q 247.28 165.29 244.75 165.26
  Q 243.71 165.25 243.62 164.21
  Q 242.21 149.02 239.86 135.32
  C 239.02 130.42 238.51 125.41 238.23 120.41
  A 0.86 0.86 0.0 0 1 238.82 119.54
  Q 245.88 117.17 252.02 115.67
  C 254.19 115.14 256.83 116.36 256.24 119.04
  Q 255.70 121.54 256.00 123.75
  Q 257.30 133.09 258.76 142.00
  Q 259.59 147.05 260.09 152.99
  Q 260.32 155.66 260.99 158.20
  Q 261.54 160.28 259.51 160.98
  Q 255.01 162.52 250.50 164.14
  Z"
/>
<path fill="#000000" d="
  M 264.81 123.07
  Q 264.91 125.81 265.86 133.75
  Q 265.94 134.37 265.64 136.52
  Q 265.57 137.07 265.96 137.47
  L 266.49 138.00
  Q 266.89 138.39 266.86 138.95
  C 266.77 140.55 267.57 141.83 267.69 143.38
  Q 268.30 150.78 269.09 158.00
  Q 269.13 158.32 269.31 158.59
  Q 269.59 159.00 269.51 159.49
  Q 269.37 160.40 269.23 162.24
  Q 269.11 163.84 267.87 165.23
  L 263.22 168.60
  L 257.29 171.03
  Q 254.27 171.42 251.44 171.97
  Q 251.39 171.98 251.39 172.03
  Q 251.39 172.04 251.38 171.92
  Q 251.37 171.85 251.44 171.88
  Q 251.93 172.04 252.13 171.74
  Q 252.34 171.44 251.97 171.42
  Q 250.18 171.29 248.76 171.92
  Q 247.23 172.60 246.64 174.24
  Q 245.96 176.12 245.08 177.57
  Q 244.49 178.53 243.00 179.19
  Q 242.73 179.30 242.63 179.03
  Q 242.56 178.83 242.36 178.88
  Q 241.72 179.05 241.60 179.69
  A 0.81 0.80 -12.2 0 1 241.26 180.21
  L 238.98 181.76
  Q 238.05 181.59 237.04 181.61
  Q 236.78 181.62 236.75 181.88
  Q 236.74 181.93 236.77 181.98
  Q 237.06 182.37 236.57 182.45
  Q 235.26 182.67 233.93 182.84
  A 1.90 1.81 24.1 0 0 233.16 183.11
  Q 232.25 183.69 231.10 183.32
  A 0.05 0.05 0.0 0 1 231.08 183.24
  Q 231.23 183.11 231.31 182.96
  Q 231.52 182.56 231.07 182.57
  Q 226.72 182.69 222.73 182.61
  Q 220.16 182.56 215.99 181.47
  Q 212.68 180.61 209.34 180.14
  Q 207.97 179.31 208.97 179.49
  C 216.52 181.21 223.98 183.48 232.16 181.05
  Q 235.69 180.00 239.52 179.04
  C 242.74 178.22 244.95 175.95 245.08 172.60
  A 1.25 1.23 -5.4 0 1 246.06 171.43
  Q 254.44 169.63 262.87 165.91
  Q 268.03 163.63 267.16 157.73
  Q 264.71 141.15 261.97 124.50
  Q 261.67 122.66 261.96 116.61
  Q 261.98 116.09 262.25 116.54
  Q 264.19 119.80 264.81 123.07
  Z"
/>
<path fill="#000000" fill-opacity="0.608" d="
  M 146.07 116.89
  L 150.75 119.41
  Q 150.74 119.72 150.99 120.00
  C 150.44 120.17 149.88 120.22 149.37 119.92
  Q 147.14 118.61 144.86 117.32
  Q 144.20 116.95 144.95 116.84
  Q 145.41 116.77 146.07 116.89
  Z"
/>
<path fill="#000000" fill-opacity="0.608" d="
  M 226.22 120.54
  L 226.14 120.93
  Q 226.07 121.28 225.75 121.45
  Q 223.01 122.93 223.35 124.35
  L 216.83 126.59
  L 189.53 137.98
  Q 189.15 138.15 188.73 138.08
  Q 188.16 137.99 187.87 138.46
  A 0.75 0.74 -82.1 0 1 187.45 138.78
  Q 182.64 140.14 178.64 143.27
  Q 177.31 143.28 177.05 144.07
  L 175.97 144.36
  Q 174.86 144.34 174.64 145.00
  Q 174.48 145.47 174.78 146.03
  Q 174.87 146.19 174.97 146.33
  Q 175.64 147.27 174.56 146.87
  L 171.99 145.92
  Q 170.77 144.14 173.76 143.27
  Q 174.15 143.16 174.50 142.96
  Q 175.01 142.68 175.41 143.04
  Q 175.64 143.24 175.35 143.34
  Q 175.11 143.43 174.91 143.33
  Q 174.85 143.30 174.85 143.37
  Q 174.85 143.47 174.88 143.45
  Q 174.92 143.41 174.97 143.41
  Q 176.86 143.21 178.57 141.84
  Q 178.60 141.82 178.62 141.84
  Q 178.68 141.90 178.63 141.83
  Q 178.59 141.77 178.54 141.81
  Q 178.02 142.22 177.39 142.23
  Q 176.55 142.24 177.24 141.75
  Q 179.18 140.37 181.64 139.67
  Q 183.30 139.18 184.67 138.29
  Q 186.74 136.94 189.03 136.08
  Q 193.62 134.35 197.71 132.35
  Q 200.32 131.08 202.75 130.44
  Q 203.12 130.35 203.41 130.09
  Q 204.11 129.48 205.12 129.55
  Q 205.71 129.60 206.20 129.27
  C 208.30 127.88 210.40 126.48 212.75 125.79
  C 214.50 125.28 215.76 124.19 217.47 123.50
  Q 221.61 121.83 225.75 120.26
  Q 225.94 120.19 226.22 120.54
  Z"
/>
<path fill="#000000" fill-opacity="0.608" d="
  M 420.17 127.04
  L 415.08 120.62
  Q 418.58 122.75 420.17 127.04
  Z"
/>
<path fill="#000000" fill-opacity="0.608" d="
  M 382.08 125.37
  A 0.04 0.03 0.0 0 1 382.12 125.34
  L 382.37 125.33
  Q 382.59 125.33 382.60 125.54
  Q 382.65 128.81 382.60 132.10
  Q 382.59 132.30 382.41 132.24
  L 382.10 132.15
  Q 382.08 132.15 382.08 132.12
  Q 382.25 128.74 382.08 125.37
  Z"
/>
<path fill="#000000" d="
  M 334.41 130.33
  L 335.55 131.44
  L 331.38 128.30
  Q 332.73 127.78 334.41 130.33
  Z"
/>
<path fill="#000000" fill-opacity="0.608" d="
  M 334.41 130.33
  Q 336.66 130.45 337.85 131.95
  Q 338.22 132.42 338.76 132.69
  Q 340.47 133.54 341.64 134.86
  Q 342.63 135.97 344.12 137.10
  Q 345.66 138.26 346.54 139.80
  L 335.55 131.44
  L 334.41 130.33
  Z"
/>
<path fill="#000000" fill-opacity="0.608" d="
  M 383.72 136.26
  Q 384.26 137.07 384.63 137.87
  C 385.05 138.76 384.79 139.52 385.37 140.45
  Q 385.84 141.22 385.63 140.34
  Q 385.49 139.72 385.07 139.29
  Q 384.81 139.02 384.85 138.64
  Q 384.87 138.48 384.97 138.36
  Q 385.18 138.13 385.31 138.42
  Q 386.19 140.46 386.95 142.60
  Q 387.36 143.74 388.17 144.76
  C 388.92 145.70 389.05 146.68 389.90 147.65
  Q 391.28 149.25 392.56 150.98
  L 386.94 146.39
  Q 386.79 146.44 386.48 145.81
  Q 386.81 143.91 384.99 143.54
  L 383.72 136.26
  Z"
/>
<path fill="#000000" fill-opacity="0.608" d="
  M 429.46 136.52
  L 436.30 136.68
  Q 437.79 136.19 435.76 138.23
  Q 435.19 138.80 435.95 138.54
  Q 436.61 138.32 436.98 137.72
  A 0.09 0.09 0.0 0 1 437.13 137.81
  Q 436.98 138.16 436.66 138.35
  Q 435.59 139.01 434.34 139.12
  A 0.06 0.05 40.3 0 0 434.35 139.23
  Q 434.80 139.20 434.94 138.78
  Q 435.11 138.28 434.62 138.49
  Q 432.77 139.26 430.68 138.66
  Q 430.46 138.60 430.69 138.64
  Q 433.38 139.09 435.20 137.88
  Q 435.71 137.54 435.11 137.66
  C 434.16 137.83 433.72 138.37 432.71 138.40
  Q 430.24 138.47 429.46 136.52
  Z"
/>
<path fill="#000000" d="
  M 301.80 139.99
  Q 301.19 140.64 300.61 141.18
  Q 300.52 141.27 300.48 141.15
  Q 300.43 141.01 300.41 140.90
  Q 300.36 140.69 300.28 140.89
  Q 300.05 141.50 300.23 142.12
  Q 301.11 145.03 301.15 147.83
  Q 301.15 147.92 301.23 147.98
  Q 301.32 148.04 301.48 148.04
  Q 301.84 148.59 301.43 149.19
  Q 302.26 155.85 303.40 160.92
  Q 304.37 165.20 304.68 160.83
  Q 304.77 159.66 303.88 156.30
  Q 305.19 161.38 304.70 166.24
  C 304.46 168.56 302.94 170.52 300.88 171.68
  Q 294.49 175.24 287.31 178.05
  C 283.20 179.66 278.62 178.24 275.69 175.04
  Q 280.95 178.04 286.25 175.45
  C 290.69 173.28 296.16 171.42 300.10 168.41
  C 302.54 166.55 302.68 163.77 302.19 160.85
  Q 300.26 149.18 298.18 137.85
  Q 298.08 137.32 298.57 137.56
  Q 300.37 138.47 301.80 139.99
  Z"
/>
<path fill="#000000" fill-opacity="0.608" d="
  M 301.80 139.99
  Q 302.92 140.45 303.67 141.38
  Q 304.21 142.05 303.38 141.86
  Q 302.73 141.72 302.28 142.17
  Q 301.94 142.51 301.90 143.00
  L 301.48 148.04
  Q 301.32 148.04 301.23 147.98
  Q 301.15 147.92 301.15 147.83
  Q 301.11 145.03 300.23 142.12
  Q 300.05 141.50 300.28 140.89
  Q 300.36 140.69 300.41 140.90
  Q 300.43 141.01 300.48 141.15
  Q 300.52 141.27 300.61 141.18
  Q 301.19 140.64 301.80 139.99
  Z"
/>
<path fill="#000000" d="
  M 350.70 141.49
  Q 351.06 142.51 350.81 143.27
  Q 350.64 143.79 350.26 143.40
  Q 350.06 143.19 350.13 142.93
  Q 350.54 142.84 350.70 141.49
  Z"
/>
<path fill="#000000" d="
  M 384.99 143.54
  Q 386.81 143.91 386.48 145.81
  Q 385.48 144.76 384.99 143.54
  Z"
/>
<path fill="#000000" d="
  M 386.94 146.39
  L 392.56 150.98
  Q 392.52 151.45 393.03 151.51
  Q 394.10 152.77 395.53 153.18
  L 402.50 156.72
  Q 393.18 154.32 386.94 146.39
  Z"
/>
<path fill="#000000" fill-opacity="0.608" d="
  M 310.77 146.92
  L 318.09 152.66
  Q 318.00 152.85 317.91 153.04
  C 315.54 152.73 313.92 150.71 312.41 149.02
  Q 312.08 148.65 311.63 148.44
  Q 310.63 147.99 310.77 146.92
  Z"
/>
<path fill="#000000" fill-opacity="0.608" d="
  M 182.21 149.02
  L 186.55 150.14
  Q 183.92 150.41 182.21 149.02
  Z"
/>
<path fill="#000000" d="
  M 446.64 148.97
  Q 456.06 152.24 455.09 160.63
  C 454.55 165.24 451.07 168.52 447.45 170.67
  Q 439.17 175.58 427.94 178.80
  Q 424.76 179.71 421.63 179.96
  Q 419.71 180.11 417.83 180.64
  Q 416.40 181.04 414.00 181.04
  Q 407.22 181.02 400.50 180.78
  Q 399.38 180.74 398.30 180.47
  Q 397.73 178.85 394.72 179.56
  L 385.26 176.92
  Q 384.74 176.78 384.24 176.98
  C 382.80 177.57 381.88 178.76 380.48 179.42
  Q 371.73 183.50 365.43 185.37
  C 359.86 187.02 356.43 183.87 352.41 180.70
  Q 336.28 167.99 321.32 156.15
  Q 320.56 155.54 319.44 155.27
  Q 318.19 154.96 317.41 154.49
  Q 315.18 153.14 317.46 154.39
  Q 317.98 154.68 319.41 154.96
  Q 319.93 155.06 319.61 154.64
  Q 318.86 153.65 317.91 153.04
  Q 318.00 152.85 318.09 152.66
  Q 336.81 167.71 355.84 182.40
  C 358.03 184.10 360.63 184.53 363.17 183.45
  Q 370.40 180.37 376.88 177.98
  Q 379.53 177.00 381.14 174.30
  Q 381.42 173.82 381.93 174.04
  Q 398.03 181.05 415.49 178.47
  Q 415.87 178.04 416.49 178.12
  Q 418.90 178.46 420.83 177.81
  Q 423.05 177.05 423.31 177.01
  Q 431.79 175.52 441.89 170.25
  Q 445.41 168.40 448.76 165.51
  Q 451.98 162.72 452.50 158.58
  Q 453.29 152.36 446.64 148.97
  Z"
/>
<path fill="#000000" fill-opacity="0.608" d="
  M 301.43 149.19
  Q 302.34 149.67 302.15 150.69
  Q 302.13 150.80 302.10 150.69
  Q 301.98 150.19 302.26 149.63
  Q 302.46 149.23 302.49 149.67
  Q 302.50 149.72 302.55 149.74
  Q 302.63 149.77 302.57 149.84
  Q 302.21 150.28 302.89 149.16
  L 303.88 156.30
  Q 304.77 159.66 304.68 160.83
  Q 304.37 165.20 303.40 160.92
  Q 302.26 155.85 301.43 149.19
  Z"
/>
<path fill="#000000" fill-opacity="0.608" d="
  M 393.03 151.51
  Q 394.72 151.84 395.53 153.18
  Q 394.10 152.77 393.03 151.51
  Z"
/>
<path fill="#000000" d="
  M 134.18 156.55
  L 140.22 159.68
  L 136.34 158.42
  L 134.18 156.55
  Z"
/>
<path fill="#000000" fill-opacity="0.608" d="
  M 136.34 158.42
  L 140.22 159.68
  Q 140.32 159.87 140.36 160.04
  Q 140.43 160.36 140.75 160.38
  Q 141.94 160.46 142.55 161.45
  Q 142.28 161.54 142.02 161.59
  Q 141.77 161.63 141.49 161.53
  Q 138.64 160.51 136.34 158.42
  Z"
/>
<path fill="#000000" d="
  M 140.22 159.68
  L 150.06 163.42
  L 145.57 162.49
  Q 145.08 162.39 144.76 162.00
  Q 144.06 161.17 142.90 161.56
  L 142.55 161.45
  Q 141.94 160.46 140.75 160.38
  Q 140.43 160.36 140.36 160.04
  Q 140.32 159.87 140.22 159.68
  Z"
/>
<path fill="#000000" fill-opacity="0.608" d="
  M 142.90 161.56
  Q 144.06 161.17 144.76 162.00
  Q 145.08 162.39 145.57 162.49
  L 150.06 163.42
  L 156.22 165.50
  Q 159.49 167.17 163.26 167.42
  Q 163.29 167.56 163.34 167.70
  Q 163.41 167.91 163.62 167.96
  L 177.50 171.73
  Q 178.67 172.05 177.45 172.04
  C 176.43 172.03 175.29 171.65 174.29 171.62
  Q 174.17 171.62 174.29 171.64
  Q 174.44 171.66 174.49 171.83
  Q 174.56 172.07 174.81 171.99
  Q 175.91 171.61 176.83 172.20
  Q 177.25 172.46 177.73 172.40
  Q 180.15 172.10 182.01 173.35
  Q 182.45 173.65 182.98 173.61
  Q 184.32 173.51 185.62 173.86
  Q 188.87 174.72 192.25 175.52
  Q 192.78 175.65 193.07 175.87
  Q 193.45 176.15 193.92 176.20
  Q 197.27 176.58 200.66 177.86
  Q 201.42 178.15 200.62 178.33
  Q 199.49 178.60 198.48 178.08
  Q 198.07 177.87 197.61 177.87
  L 196.83 177.87
  Q 196.54 177.87 196.82 177.80
  Q 197.56 177.62 198.00 178.20
  A 1.05 1.05 0.0 0 0 198.70 178.59
  C 200.42 178.76 202.80 178.07 203.97 179.77
  Q 202.79 180.00 201.88 179.34
  Q 201.47 179.05 200.98 179.06
  Q 199.30 179.09 198.74 178.96
  Q 191.68 177.30 184.30 175.05
  C 183.47 174.80 182.76 174.96 181.99 174.71
  Q 173.53 171.97 164.76 169.99
  Q 164.16 169.86 163.86 169.28
  Q 163.64 168.86 163.16 168.86
  C 162.47 168.85 161.62 168.99 160.98 168.73
  Q 158.52 167.70 155.85 167.18
  Q 154.35 166.88 153.00 166.25
  Q 151.63 165.62 150.17 165.11
  Q 146.40 163.80 142.90 161.56
  Z"
/>
<path fill="#000000" fill-opacity="0.608" d="
  M 267.87 165.23
  Q 267.68 167.88 263.22 168.60
  L 267.87 165.23
  Z"
/>
<path fill="#000000" d="
  M 156.22 165.50
  L 163.26 167.42
  Q 159.49 167.17 156.22 165.50
  Z"
/>
<path fill="#000000" d="
  M 163.26 167.42
  L 208.97 179.49
  Q 207.97 179.31 209.34 180.14
  Q 206.58 180.37 205.34 179.31
  Q 204.38 178.49 203.37 178.47
  Q 202.67 178.46 203.24 178.86
  Q 204.90 180.05 206.59 180.37
  A 0.01 0.01 0.0 0 1 206.58 180.39
  Q 206.06 180.38 205.58 180.56
  Q 205.17 179.95 203.97 179.77
  C 202.80 178.07 200.42 178.76 198.70 178.59
  A 1.05 1.05 0.0 0 1 198.00 178.20
  Q 197.56 177.62 196.82 177.80
  Q 196.54 177.87 196.83 177.87
  L 197.61 177.87
  Q 198.07 177.87 198.48 178.08
  Q 199.49 178.60 200.62 178.33
  Q 201.42 178.15 200.66 177.86
  Q 197.27 176.58 193.92 176.20
  Q 193.45 176.15 193.07 175.87
  Q 192.78 175.65 192.25 175.52
  Q 188.87 174.72 185.62 173.86
  Q 184.32 173.51 182.98 173.61
  Q 182.45 173.65 182.01 173.35
  Q 180.15 172.10 177.73 172.40
  Q 177.25 172.46 176.83 172.20
  Q 175.91 171.61 174.81 171.99
  Q 174.56 172.07 174.49 171.83
  Q 174.44 171.66 174.29 171.64
  Q 174.17 171.62 174.29 171.62
  C 175.29 171.65 176.43 172.03 177.45 172.04
  Q 178.67 172.05 177.50 171.73
  L 163.62 167.96
  Q 163.41 167.91 163.34 167.70
  Q 163.29 167.56 163.26 167.42
  Z"
/>
<path fill="#000000" fill-opacity="0.608" d="
  M 257.29 171.03
  Q 253.81 172.99 250.22 173.65
  Q 249.68 173.75 249.35 174.17
  C 247.90 175.97 247.45 178.21 245.42 179.57
  Q 242.60 181.46 238.98 181.76
  L 241.26 180.21
  A 0.81 0.80 -12.2 0 0 241.60 179.69
  Q 241.72 179.05 242.36 178.88
  Q 242.56 178.83 242.63 179.03
  Q 242.73 179.30 243.00 179.19
  Q 244.49 178.53 245.08 177.57
  Q 245.96 176.12 246.64 174.24
  Q 247.23 172.60 248.76 171.92
  Q 250.18 171.29 251.97 171.42
  Q 252.34 171.44 252.13 171.74
  Q 251.93 172.04 251.44 171.88
  Q 251.37 171.85 251.38 171.92
  Q 251.39 172.04 251.39 172.03
  Q 251.39 171.98 251.44 171.97
  Q 254.27 171.42 257.29 171.03
  Z"
/>
<path fill="#000000" fill-opacity="0.608" d="
  M 209.34 180.14
  Q 212.68 180.61 215.99 181.47
  Q 220.16 182.56 222.73 182.61
  Q 226.72 182.69 231.07 182.57
  Q 231.52 182.56 231.31 182.96
  Q 231.23 183.11 231.08 183.24
  A 0.05 0.05 0.0 0 0 231.10 183.32
  Q 232.25 183.69 233.16 183.11
  A 1.90 1.81 24.1 0 1 233.93 182.84
  Q 235.26 182.67 236.57 182.45
  Q 237.06 182.37 236.77 181.98
  Q 236.74 181.93 236.75 181.88
  Q 236.78 181.62 237.04 181.61
  Q 238.05 181.59 238.98 181.76
  L 237.63 182.69
  Q 236.86 183.22 237.80 183.15
  Q 238.53 183.09 239.03 182.64
  Q 239.39 182.32 239.87 182.34
  Q 240.22 182.35 240.56 182.43
  A 0.04 0.04 0.0 0 0 240.59 182.36
  Q 239.93 182.04 239.23 182.77
  Q 238.82 183.19 238.23 183.16
  Q 237.47 183.12 236.68 183.11
  Q 235.77 183.10 234.90 183.40
  Q 227.88 185.78 219.09 184.21
  Q 218.68 184.14 219.06 183.97
  Q 219.42 183.80 219.84 183.85
  Q 220.43 183.92 219.85 183.80
  Q 219.79 183.79 219.74 183.75
  Q 219.63 183.64 219.48 183.63
  Q 217.49 183.41 215.29 182.91
  Q 213.73 182.56 211.15 182.12
  Q 208.32 181.64 205.58 180.56
  Q 206.06 180.38 206.58 180.39
  A 0.01 0.01 0.0 0 0 206.59 180.37
  Q 204.90 180.05 203.24 178.86
  Q 202.67 178.46 203.37 178.47
  Q 204.38 178.49 205.34 179.31
  Q 206.58 180.37 209.34 180.14
  Z"
/>
<path fill="#000000" fill-opacity="0.608" d="
  M 394.72 179.56
  Q 397.73 178.85 398.30 180.47
  Q 396.57 180.57 394.72 179.56
  Z"
/>
</svg>
