<?xml version="1.0" encoding="utf-8"?><!-- Generator: Adobe Illustrator 18.1.1, SVG Export Plug-In . SVG Version: 6.00 Build 0)  -->
<svg xmlns="http://www.w3.org/2000/svg"
    xmlns:xlink="http://www.w3.org/1999/xlink" viewBox="0 0 50 50" width="100px" height="100px">
    <path fill="none" stroke="#ffffff" stroke-width="2" stroke-linecap="round" stroke-linejoin="round" stroke-miterlimit="10" d="M19,26.7L15.5,28l-9.3,3.3l-1.6,0.6C2.2,33,1,34.5,1,35.7c0,5.2,5.8,6.6,16,3.1c0.6-0.2,2-0.7,2-0.7"/>
    <path fill="none" stroke="#ffffff" stroke-width="2" stroke-linecap="round" stroke-linejoin="round" stroke-miterlimit="10" d="M19,34.2c0,0-3.1,1.2-5.1,1.9c-4.2,1.5-5.2,0.2-5.2,0.2C8.2,36,8.7,35,11.4,34c0.7-0.2,7.6-2.7,7.6-2.7"/>
    <g>
        <path fill="none" stroke="#ffffff" stroke-width="2" stroke-linecap="round" stroke-linejoin="round" stroke-miterlimit="10" d="M27,44l6.3-2.2l10.8-3.8l1.3-0.6c2.6-1,3.7-2,3.6-3.3c-0.1-1.2-1.5-2.2-4-3c-2.9-1-5.8-1.3-8.4-1.2c-2.5,0.1-5.1,0.5-7.7,1.3L27,31.7"/>
        <path fill="none" stroke="#ffffff" stroke-width="2" stroke-linecap="round" stroke-linejoin="round" stroke-miterlimit="10" d="M27,36.6c0,0,1.8-0.7,7.1-2.5s6.8-1.3,6.8-1.3c0.7,0.1,1,0.3,1.2,0.6c0.1,0.4-0.6,0.8-3.6,1.9C36.6,36,27,39.5,27,39.5"/>
    </g>
    <path fill="none" stroke="#ffffff" stroke-width="2" stroke-linecap="round" stroke-linejoin="round" stroke-miterlimit="10" d="M19,5v36.6l8,2.4V13.2c0-0.6,0.6-1,1.1-0.8l0,0c1.1,0.4,1.9,1.4,1.9,2.6v11.1c0,0,1.3,0.9,4,0.9c4.7,0,5-5.1,5-7.6c0-5.7-3.3-9.4-8-10.8L19,5z"/>
</svg>