<?xml version="1.0" standalone="no"?>
<!DOCTYPE svg PUBLIC "-//W3C//DTD SVG 20010904//EN"
 "http://www.w3.org/TR/2001/REC-SVG-20010904/DTD/svg10.dtd">
<svg version="1.0" xmlns="http://www.w3.org/2000/svg"
 width="512.000000pt" height="512.000000pt" viewBox="0 0 512.000000 512.000000"
 preserveAspectRatio="xMidYMid meet">

<g transform="translate(0.000000,512.000000) scale(0.100000,-0.100000)"
fill="#FFFFFF" stroke="none">
<path d="M2440 5109 c-220 -20 -505 -87 -708 -168 -812 -324 -1409 -1023
-1582 -1856 -71 -336 -71 -714 0 -1050 63 -305 192 -610 368 -875 392 -589
995 -987 1691 -1116 531 -98 1101 -21 1599 216 367 175 731 476 970 801 90
124 255 411 242 422 -3 2 -444 253 -980 557 -536 304 -979 556 -983 560 -4 4
428 254 960 555 532 302 970 550 972 551 13 10 -177 311 -275 436 -83 107
-324 341 -439 429 -274 208 -603 372 -923 458 -280 76 -621 106 -912 80z m510
-373 c484 -65 931 -276 1269 -601 89 -85 251 -274 251 -292 0 -4 -487 -284
-1081 -622 -594 -338 -1076 -617 -1072 -621 4 -4 496 -285 1093 -625 597 -340
1091 -622 1097 -628 10 -7 4 -22 -24 -61 -344 -474 -844 -781 -1453 -891 -146
-26 -463 -32 -630 -10 -383 48 -739 192 -1060 429 -121 89 -346 313 -437 436
-292 394 -436 825 -436 1310 0 212 17 346 68 546 98 383 283 703 574 995 190
189 345 301 579 418 212 106 460 184 687 214 143 19 440 21 575 3z"/>
</g>
</svg>
