<?xml version="1.0" standalone="no"?>
<!DOCTYPE svg PUBLIC "-//W3C//DTD SVG 20010904//EN"
 "http://www.w3.org/TR/2001/REC-SVG-20010904/DTD/svg10.dtd">
<svg version="1.0" xmlns="http://www.w3.org/2000/svg"
 width="512.000000pt" height="512.000000pt" viewBox="0 0 512.000000 512.000000"
 preserveAspectRatio="xMidYMid meet">

<g transform="translate(0.000000,512.000000) scale(0.100000,-0.100000)"
fill="#FFFFFF" stroke="none">
<path d="M1130 4625 c-337 -69 -587 -328 -639 -665 -9 -55 -11 -434 -9 -1445
3 -1493 -1 -1381 58 -1537 29 -78 106 -194 175 -263 69 -69 185 -146 263 -175
149 -56 132 -55 749 -55 562 0 572 0 599 21 53 39 69 71 69 134 0 63 -16 95
-69 134 -27 20 -41 21 -589 26 -546 5 -564 6 -614 27 -163 66 -267 181 -308
340 -23 87 -22 2700 0 2788 45 172 179 305 352 350 46 12 138 15 485 15 l428
0 2 -1549 c3 -1547 3 -1550 24 -1577 39 -53 71 -69 134 -69 63 0 95 16 134 69
l21 27 0 1659 0 1659 -21 27 c-11 15 -33 37 -48 48 -27 21 -39 21 -579 23
-425 1 -567 -2 -617 -12z"/>
<path d="M2815 4626 c-94 -42 -124 -169 -58 -247 51 -60 43 -59 616 -59 575 0
585 -1 698 -61 115 -62 214 -197 239 -328 14 -73 14 -2668 0 -2742 -34 -183
-195 -344 -379 -379 -31 -6 -229 -10 -472 -10 l-419 0 -2 1549 c-3 1547 -3
1550 -24 1577 -39 53 -71 69 -134 69 -63 0 -95 -16 -134 -69 l-21 -27 0 -1659
0 -1659 21 -27 c11 -15 33 -37 48 -48 27 -21 37 -21 599 -21 617 0 600 -1 749
55 78 29 194 106 263 175 69 69 146 185 175 263 59 156 55 50 55 1587 0 1584
6 1452 -75 1621 -77 161 -214 297 -374 374 -158 76 -134 73 -771 77 -463 2
-576 0 -600 -11z"/>
<path d="M1340 3984 c-227 -82 -293 -362 -125 -529 66 -66 125 -90 225 -89 72
0 93 4 136 26 75 39 107 70 145 140 30 57 33 71 34 148 0 100 -24 159 -90 225
-82 82 -222 116 -325 79z"/>
<path d="M3615 3981 c-51 -23 -95 -91 -95 -148 0 -43 38 -110 76 -134 47 -29
121 -29 168 0 38 24 76 91 76 136 0 39 -35 106 -67 130 -30 21 -124 31 -158
16z"/>
<path d="M3280 3648 c-75 -52 -99 -131 -61 -205 78 -154 317 -86 298 85 -9 81
-77 142 -157 142 -32 0 -57 -7 -80 -22z"/>
<path d="M3920 3652 c-40 -22 -80 -90 -80 -135 0 -47 37 -114 76 -138 47 -29
121 -29 168 0 38 24 76 91 76 136 0 39 -35 106 -67 130 -39 28 -128 32 -173 7z"/>
<path d="M3645 3350 c-70 -15 -125 -83 -125 -151 0 -53 35 -112 81 -138 32
-19 52 -22 93 -19 63 5 99 29 126 84 25 51 25 87 -1 140 -31 66 -103 100 -174
84z"/>
<path d="M1375 3031 c-51 -23 -95 -91 -95 -148 0 -43 38 -110 76 -134 47 -29
121 -29 168 0 38 24 76 91 76 136 0 39 -35 106 -67 130 -30 21 -124 31 -158
16z"/>
<path d="M1085 2720 c-70 -15 -125 -83 -125 -151 0 -53 35 -112 81 -138 32
-19 52 -22 93 -19 63 5 99 29 126 84 25 51 25 87 -1 140 -31 66 -103 100 -174
84z"/>
<path d="M1707 2716 c-49 -18 -64 -32 -89 -80 -52 -102 26 -226 142 -226 119
0 197 132 138 234 -39 68 -119 98 -191 72z"/>
<path d="M3604 2711 c-48 -12 -133 -62 -160 -94 -14 -17 -37 -53 -52 -81 -22
-43 -26 -64 -26 -136 -1 -70 4 -94 24 -135 31 -64 91 -124 155 -155 71 -35
197 -35 270 0 64 31 124 91 155 155 35 73 35 199 0 270 -32 64 -92 124 -155
154 -54 26 -156 36 -211 22z"/>
<path d="M1405 2400 c-70 -15 -125 -83 -125 -151 0 -53 35 -112 81 -138 32
-19 52 -22 93 -19 63 5 99 29 126 84 25 51 25 87 -1 140 -31 66 -103 100 -174
84z"/>
</g>
</svg>
