<?xml version="1.0" standalone="no"?>
<!DOCTYPE svg PUBLIC "-//W3C//DTD SVG 20010904//EN"
 "http://www.w3.org/TR/2001/REC-SVG-20010904/DTD/svg10.dtd">
<svg version="1.0" xmlns="http://www.w3.org/2000/svg"
 width="981.000000pt" height="966.000000pt" viewBox="0 0 981.000000 966.000000"
 preserveAspectRatio="xMidYMid meet">

<g transform="translate(0.000000,966.000000) scale(0.100000,-0.100000)"
fill="#FFFFFF" stroke="none">
<path d="M1695 9635 c-337 -53 -635 -206 -878 -451 -229 -233 -365 -494 -434
-834 -15 -78 -17 -232 -20 -1882 l-4 -1798 4541 0 4540 0 0 1743 c0 1126 -4
1774 -10 1832 -23 199 -68 354 -155 530 -220 451 -648 771 -1143 856 -111 19
-187 19 -3235 18 -2453 -1 -3139 -4 -3202 -14z m6265 -826 c69 -15 129 -62
163 -128 l27 -55 0 -1698 0 -1699 -25 -48 c-30 -61 -85 -107 -149 -126 -75
-23 -5997 -23 -6072 0 -63 19 -126 72 -156 133 l-23 47 -3 1665 c-2 1156 1
1681 8 1717 19 91 89 165 179 189 62 17 5973 20 6051 3z"/>
<path d="M425 4456 c-37 -16 -81 -60 -103 -101 -21 -40 -28 -180 -13 -253 12
-53 2 -133 -149 -1252 -177 -1306 -172 -1254 -134 -1472 121 -708 713 -1272
1424 -1358 70 -8 990 -10 3510 -8 l3415 3 100 23 c139 32 262 75 383 132 541
258 904 798 938 1395 5 91 -8 202 -156 1290 -143 1053 -160 1196 -151 1238 14
62 14 181 0 230 -13 47 -72 115 -116 134 -48 19 -8903 19 -8948 -1z m764 -666
c115 -22 226 -103 279 -204 24 -45 27 -62 27 -146 0 -86 -3 -100 -29 -148
-123 -222 -444 -266 -636 -86 -139 130 -147 334 -19 469 96 101 232 143 378
115z m6352 -31 c50 -23 107 -76 130 -120 15 -31 52 -301 186 -1376 184 -1482
176 -1378 110 -1465 -18 -24 -55 -54 -86 -70 l-53 -28 -2927 0 -2927 0 -55 28
c-33 16 -67 44 -86 70 -66 88 -74 -14 107 1442 89 723 166 1331 171 1351 19
77 95 153 176 175 39 10 547 12 2633 11 2362 -2 2588 -3 2621 -18z m1286 -274
c124 -57 125 -182 1 -251 -105 -58 -279 -31 -329 50 -36 59 -15 142 46 182 77
50 198 59 282 19z m514 -330 c148 -52 161 -194 24 -264 -36 -19 -69 -27 -121
-29 -238 -12 -313 213 -97 293 51 18 140 18 194 0z m-1026 -59 c58 -27 82 -51
95 -95 19 -69 -27 -137 -117 -171 -103 -38 -221 -19 -284 46 -30 31 -34 42
-34 86 0 47 3 53 47 92 55 51 91 64 178 65 49 1 77 -5 115 -23z m558 -349
c121 -71 108 -189 -28 -253 -93 -44 -219 -29 -287 34 -68 64 -59 144 23 204
74 56 210 62 292 15z m-7700 -104 c4 -3 5 -80 1 -172 l-7 -168 204 -7 c111 -4
206 -9 211 -12 9 -6 9 -225 -1 -269 l-6 -30 -208 4 -207 3 -1 -48 c-1 -27 -4
-103 -8 -169 l-6 -120 -60 -3 c-33 -2 -115 -1 -182 3 l-123 7 0 172 0 173
-201 6 c-111 3 -206 10 -211 15 -5 5 -5 71 -2 151 l7 143 211 -3 211 -4 2 150
c2 83 5 161 8 174 l6 23 177 -7 c97 -4 181 -9 185 -12z"/>
</g>
</svg>
